<?xml version="1.0" encoding="utf-8"?>
<!-- Generator: Adobe Illustrator 23.0.3, SVG Export Plug-In . SVG Version: 6.00 Build 0)  -->
<svg version="1.1" id="Layer_1" xmlns="http://www.w3.org/2000/svg" xmlns:xlink="http://www.w3.org/1999/xlink" x="0px" y="0px"
	 viewBox="0 0 457 457" style="enable-background:new 0 0 457 457;" xml:space="preserve">
<style type="text/css">
	.st0{fill:none;stroke:#9DB6CB;stroke-width:3.5;stroke-linecap:round;stroke-miterlimit:10;}
	.st1{fill:none;stroke:#FA8D28;stroke-width:3.5;stroke-linecap:round;stroke-miterlimit:10;}
	.st2{fill:none;stroke:#00A8E1;stroke-width:3.5;stroke-linecap:round;stroke-miterlimit:10;}
	.st3{fill:none;stroke:#004BA5;stroke-width:3.5;stroke-linecap:round;stroke-miterlimit:10;}
</style>
<g id="Colour_4">
	<path id="Stroke_3_1_" class="st0" d="M125.1,73l67.8-67.8"/>
	<path id="Stroke_5_1_" class="st0" d="M79.6,160.6L237.7,2.5"/>
	<path id="Stroke_10_1_" class="st0" d="M208.2,116.3l99.9-99.9"/>
	<path id="Stroke_11_1_" class="st0" d="M118.6,205.8l78.7-78.7"/>
	<path id="Stroke_16_1_" class="st0" d="M263.4,145.3l99.4-99.4"/>
	<path id="Stroke_19_1_" class="st0" d="M252.6,156.1L106.9,301.8"/>
	<path id="Stroke_20_1_" class="st0" d="M307.3,143.5L65.1,385.7"/>
	<path id="Stroke_26_1_" class="st0" d="M292.4,200.5L405.8,87.1"/>
	<path id="Stroke_31_1_" class="st0" d="M153.9,381.1l-42,42"/>
	<path id="Stroke_33_1_" class="st0" d="M252.4,282.7l170.8-170.8"/>
	<path id="Stroke_37_1_" class="st0" d="M252.3,366.9l87-87"/>
	<path id="Stroke_41_1_" class="st0" d="M325.3,336.1l129.2-129.2"/>
	<path id="Stroke_44_1_" class="st0" d="M406.7,170.4l30.7-30.7"/>
	<path id="Stroke_45_1_" class="st0" d="M6.5,275.8l30.7-30.7"/>
	<path id="Stroke_46_1_" class="st0" d="M367.4,378.2l-64.9,64.9"/>
	<path id="Stroke_48_1_" class="st0" d="M443.1,302.5l-64.9,64.9"/>
	<path id="Stroke_50_1_" class="st0" d="M321.8,44.8l19-19"/>
</g>
<g id="Colour_3">
	<path id="Stroke_8_5_" class="st1" d="M223,59.3L34.3,248.1"/>
	<path id="Stroke_9_5_" class="st1" d="M129.7,194.7L16.4,308.1"/>
	<path id="Stroke_36_5_" class="st1" d="M408.2,168.9L139.7,437.4"/>
	<path id="Stroke_40_5_" class="st1" d="M314.5,346.9L206.9,454.5"/>
</g>
<g id="Colour_2">
	<path id="Stroke_14_1_" class="st2" d="M96.1,312.6l-50.2,50.2"/>
	<path id="Stroke_39_1_" class="st2" d="M241.5,377.8l-70.4,70.4"/>
	<path id="Stroke_13_1_" class="st2" d="M187.1,179.5L324.8,41.7"/>
	<path id="Stroke_29_1_" class="st2" d="M202.9,290l78.7-78.7"/>
	<path id="Stroke_6_1_" class="st2" d="M68.8,171.4L2.5,237.7"/>
	<path id="Stroke_43_1_" class="st2" d="M423.8,279.6l30.7-30.7"/>
</g>
<g id="Colour_1">
	<path id="Stroke_1_1_" class="st3" d="M24.4,131.6L131.6,24.4"/>
	<path id="Stroke_4_1_" class="st3" d="M114.3,83.8L5.2,192.9"/>
	<path id="Stroke_12_1_" class="st3" d="M172.5,194.1L29.5,337"/>
	<path id="Stroke_24_1_" class="st3" d="M192.1,300.8l-105,105"/>
	<path id="Stroke_30_1_" class="st3" d="M241.5,293.5l-76.8,76.8"/>
	<path id="Stroke_7_1_" class="st3" d="M233.8,48.5L275.3,7"/>
	<path id="Stroke_22_1_" class="st3" d="M318.1,132.7l67.6-67.6"/>
	<path id="Stroke_42_1_" class="st3" d="M413,290.5L248.9,454.6"/>
	<path id="Stroke_38_1_" class="st3" d="M350.2,269.1l98-98"/>
</g>
</svg>
