<svg xmlns="http://www.w3.org/2000/svg" xmlns:xlink="http://www.w3.org/1999/xlink" width="756.594" height="761.256" viewBox="0 0 756.594 761.256">
  <defs>
    <clipPath id="clip-path">
      <path id="Path_20961" data-name="Path 20961" d="M376.371-439.437a89.486,89.486,0,0,0-89.385,89.385,89.486,89.486,0,0,0,89.385,89.385,89.486,89.486,0,0,0,89.385-89.385A89.486,89.486,0,0,0,376.371-439.437Zm0,182.27a92.99,92.99,0,0,1-92.885-92.885,92.99,92.99,0,0,1,92.885-92.885,92.99,92.99,0,0,1,92.885,92.885,92.99,92.99,0,0,1-92.885,92.885Z" fill="none" clip-rule="evenodd"/>
    </clipPath>
    <clipPath id="clip-path-2">
      <path id="Path_20960" data-name="Path 20960" d="M0,41H757V-762H0Z" fill="none"/>
    </clipPath>
    <clipPath id="clip-path-3">
      <path id="Path_20964" data-name="Path 20964" d="M376.371-439.437a89.284,89.284,0,0,0-27.856,4.425,89.14,89.14,0,0,0-16.573,7.38,89.553,89.553,0,0,0-22.827,18.7A89.07,89.07,0,0,0,292.94-382.2a88.947,88.947,0,0,0-5.116,19.852,90.574,90.574,0,0,0-.838,12.294,88.508,88.508,0,0,0,9.147,39.436,89.528,89.528,0,0,0,10.1,15.979,89.911,89.911,0,0,0,15.853,15.6,89.216,89.216,0,0,0,22.079,12.389,88.991,88.991,0,0,0,32.207,5.978,89.162,89.162,0,0,0,30.12-5.2,89.114,89.114,0,0,0,19.882-10.082,89.88,89.88,0,0,0,17.12-15.072,89.911,89.911,0,0,0,7.389-9.639,88.78,88.78,0,0,0,11.932-26.556,89.683,89.683,0,0,0,2.942-22.835,89.633,89.633,0,0,0-3.165-23.666,89.112,89.112,0,0,0-4.856-13.4,89.545,89.545,0,0,0-10.384-17.272,90.169,90.169,0,0,0-31.3-25.783,88.581,88.581,0,0,0-30.534-8.805A90.922,90.922,0,0,0,376.371-439.437Zm0,182.27a92.506,92.506,0,0,1-33.469-6.212,92.755,92.755,0,0,1-22.944-12.875,93.5,93.5,0,0,1-16.471-16.211,93.194,93.194,0,0,1-10.494-16.6,91.983,91.983,0,0,1-9.507-40.983,94,94,0,0,1,.871-12.77,92.348,92.348,0,0,1,5.318-20.635,92.538,92.538,0,0,1,16.807-27.778A93.031,93.031,0,0,1,330.2-430.667a92.581,92.581,0,0,1,17.226-7.671,92.784,92.784,0,0,1,28.945-4.6,94.386,94.386,0,0,1,9.495.479,92.081,92.081,0,0,1,31.738,9.151,93.7,93.7,0,0,1,32.524,26.789,92.936,92.936,0,0,1,10.79,17.949,92.473,92.473,0,0,1,5.048,13.926,93.076,93.076,0,0,1,3.29,24.591,93.126,93.126,0,0,1-3.058,23.727,92.243,92.243,0,0,1-12.4,27.6,93.585,93.585,0,0,1-7.678,10.015,93.394,93.394,0,0,1-17.786,15.659,92.611,92.611,0,0,1-20.663,10.477,92.65,92.65,0,0,1-31.3,5.406Z" fill="#fff" clip-rule="evenodd"/>
    </clipPath>
    <clipPath id="clip-path-4">
      <path id="Path_20963" data-name="Path 20963" d="M0,41H757V-762H0Z" fill="#fff"/>
    </clipPath>
    <clipPath id="clip-path-5">
      <path id="Path_20967" data-name="Path 20967" d="M376.347-234.351a115.014,115.014,0,0,1-28.532-3.6,116.366,116.366,0,0,1-14.928-4.916,1.748,1.748,0,0,1-.962-2.279,1.75,1.75,0,0,1,2.28-.963,113.238,113.238,0,0,0,14.477,4.768,111.491,111.491,0,0,0,36.4,3.147,112.512,112.512,0,0,0,28.271-5.961A112.389,112.389,0,0,0,440.078-257.7a111.458,111.458,0,0,0,13.866-11.3,112.353,112.353,0,0,0,16.168-19.447,113.2,113.2,0,0,0,17.594-47.752,111.19,111.19,0,0,0-2.2-39.82,113.777,113.777,0,0,0-3.235-11.02A112.03,112.03,0,0,0,465.5-418.2a1.75,1.75,0,0,1,.328-2.453,1.749,1.749,0,0,1,2.453.327,115.531,115.531,0,0,1,17.291,32.143,117.428,117.428,0,0,1,3.335,11.359,114.679,114.679,0,0,1,2.271,41.071,116.7,116.7,0,0,1-18.142,49.236,115.848,115.848,0,0,1-16.672,20.055,115.213,115.213,0,0,1-14.3,11.651,115.992,115.992,0,0,1-27.56,13.964,116.041,116.041,0,0,1-29.151,6.146q-4.5.354-9.007.353" fill="#fef6d1" clip-rule="evenodd"/>
    </clipPath>
    <clipPath id="clip-path-6">
      <path id="Path_20966" data-name="Path 20966" d="M0,41H757V-762H0Z" fill="#fef6d1"/>
    </clipPath>
    <clipPath id="clip-path-7">
      <path id="Path_20970" data-name="Path 20970" d="M376.347-234.351a115.014,115.014,0,0,1-28.532-3.6,116.366,116.366,0,0,1-14.928-4.916,1.748,1.748,0,0,1-.962-2.279,1.75,1.75,0,0,1,2.28-.963,113.238,113.238,0,0,0,14.477,4.768,111.464,111.464,0,0,0,36.4,3.147,112.512,112.512,0,0,0,28.271-5.961A112.389,112.389,0,0,0,440.078-257.7a111.458,111.458,0,0,0,13.866-11.3,1.75,1.75,0,0,1,2.474.053,1.75,1.75,0,0,1-.053,2.475,115.213,115.213,0,0,1-14.3,11.651,115.992,115.992,0,0,1-27.56,13.964,116.041,116.041,0,0,1-29.151,6.146q-4.5.354-9.007.353" fill="#edf3f8" clip-rule="evenodd"/>
    </clipPath>
    <clipPath id="clip-path-8">
      <path id="Path_20969" data-name="Path 20969" d="M0,41H757V-762H0Z" fill="#edf3f8"/>
    </clipPath>
    <clipPath id="clip-path-9">
      <path id="Path_20973" data-name="Path 20973" d="M287.737-276.69a1.744,1.744,0,0,1-1.363-.65,115.381,115.381,0,0,1-19.2-34.578,1.751,1.751,0,0,1,1.075-2.23,1.751,1.751,0,0,1,2.229,1.075A111.87,111.87,0,0,0,289.1-279.539a1.751,1.751,0,0,1-.261,2.461,1.749,1.749,0,0,1-1.1.388" fill="none" clip-rule="evenodd"/>
    </clipPath>
    <clipPath id="clip-path-11">
      <path id="Path_20976" data-name="Path 20976" d="M268.112-383.781a1.743,1.743,0,0,1-.547-.088,1.75,1.75,0,0,1-1.116-2.209,116.455,116.455,0,0,1,12.3-26.02,116.054,116.054,0,0,1,15.213-19.154,114.542,114.542,0,0,1,44.279-28,117.1,117.1,0,0,1,15.371-4.218,1.749,1.749,0,0,1,2.062,1.368,1.749,1.749,0,0,1-1.368,2.062,113.74,113.74,0,0,0-14.911,4.093A111.062,111.062,0,0,0,296.453-428.8,112.571,112.571,0,0,0,281.7-410.223a112.978,112.978,0,0,0-11.926,25.238,1.75,1.75,0,0,1-1.662,1.2" fill="#00a9e0" clip-rule="evenodd"/>
    </clipPath>
    <clipPath id="clip-path-12">
      <path id="Path_20975" data-name="Path 20975" d="M0,41H757V-762H0Z" fill="#00a9e0"/>
    </clipPath>
    <clipPath id="clip-path-13">
      <path id="Path_20979" data-name="Path 20979" d="M376.495-188.773q-4.485,0-8.982-.251a162.66,162.66,0,0,1-70.213-20.5,161.369,161.369,0,0,1-29.489-21.26,1.748,1.748,0,0,1-.118-2.471,1.75,1.75,0,0,1,2.472-.118,157.991,157.991,0,0,0,28.849,20.8,159.145,159.145,0,0,0,68.7,20.059,156.461,156.461,0,0,0,55.652-6.946,160.689,160.689,0,0,0,15.146-5.6,157.615,157.615,0,0,0,42.106-26.542,1.748,1.748,0,0,1,2.469.158,1.748,1.748,0,0,1-.157,2.469,161.1,161.1,0,0,1-43.039,27.132,164.105,164.105,0,0,1-15.479,5.728,159.857,159.857,0,0,1-47.912,7.351" fill="#fae164" clip-rule="evenodd"/>
    </clipPath>
    <clipPath id="clip-path-14">
      <path id="Path_20978" data-name="Path 20978" d="M0,41H757V-762H0Z" fill="#fae164"/>
    </clipPath>
    <clipPath id="clip-path-15">
      <path id="Path_20982" data-name="Path 20982" d="M218.555-324.994a1.751,1.751,0,0,1-1.729-1.494A160.175,160.175,0,0,1,217.737-379a162.556,162.556,0,0,1,5.4-21.23,162.158,162.158,0,0,1,17.672-37.147,160.8,160.8,0,0,1,25.8-30.846,1.75,1.75,0,0,1,2.473.091,1.751,1.751,0,0,1-.092,2.473,157.341,157.341,0,0,0-25.24,30.174,158.568,158.568,0,0,0-17.29,36.346,159.056,159.056,0,0,0-5.287,20.771A156.709,156.709,0,0,0,220.288-327a1.751,1.751,0,0,1-1.474,1.988,1.756,1.756,0,0,1-.259.019" fill="#fae164" clip-rule="evenodd"/>
    </clipPath>
    <clipPath id="clip-path-17">
      <path id="Path_20985" data-name="Path 20985" d="M503.762-252.3a1.74,1.74,0,0,1-1.051-.352,1.749,1.749,0,0,1-.346-2.45,158.066,158.066,0,0,0,24.025-46.2,157.193,157.193,0,0,0,7.652-54.6,156.913,156.913,0,0,0-5.5-35.759,159.991,159.991,0,0,0-7.184-20.521A156.177,156.177,0,0,0,479.1-469.8a158.106,158.106,0,0,0-27.487-18.9,1.751,1.751,0,0,1-.706-2.372,1.751,1.751,0,0,1,2.373-.7,161.583,161.583,0,0,1,28.1,19.316,159.657,159.657,0,0,1,43.193,58.887,163.442,163.442,0,0,1,7.342,20.972,160.464,160.464,0,0,1,5.626,36.559,160.682,160.682,0,0,1-7.822,55.811A161.569,161.569,0,0,1,505.161-253a1.745,1.745,0,0,1-1.4.7" fill="none" clip-rule="evenodd"/>
    </clipPath>
    <clipPath id="clip-path-19">
      <path id="Path_20988" data-name="Path 20988" d="M471.573-285.73a1.738,1.738,0,0,1-.958-.287,1.748,1.748,0,0,1-.5-2.423,113.2,113.2,0,0,0,17.594-47.752,111.19,111.19,0,0,0-2.2-39.82,113.777,113.777,0,0,0-3.235-11.02A112.03,112.03,0,0,0,465.5-418.2a1.75,1.75,0,0,1,.328-2.453,1.749,1.749,0,0,1,2.453.327,115.531,115.531,0,0,1,17.291,32.143,117.428,117.428,0,0,1,3.335,11.359,114.679,114.679,0,0,1,2.271,41.071,116.7,116.7,0,0,1-18.142,49.236,1.745,1.745,0,0,1-1.464.79" fill="#0062b4" clip-rule="evenodd"/>
    </clipPath>
    <clipPath id="clip-path-20">
      <path id="Path_20987" data-name="Path 20987" d="M0,41H757V-762H0Z" fill="#0062b4"/>
    </clipPath>
    <clipPath id="clip-path-21">
      <path id="Path_20991" data-name="Path 20991" d="M503.762-252.3a1.74,1.74,0,0,1-1.051-.352,1.749,1.749,0,0,1-.346-2.45,158.066,158.066,0,0,0,24.025-46.2,157.193,157.193,0,0,0,7.652-54.6,156.913,156.913,0,0,0-5.5-35.759,159.991,159.991,0,0,0-7.184-20.521A156.177,156.177,0,0,0,479.1-469.8a158.106,158.106,0,0,0-27.487-18.9,1.751,1.751,0,0,1-.706-2.372,1.751,1.751,0,0,1,2.373-.7,161.583,161.583,0,0,1,28.1,19.316,159.657,159.657,0,0,1,43.193,58.887,163.442,163.442,0,0,1,7.342,20.972,160.464,160.464,0,0,1,5.626,36.559,160.682,160.682,0,0,1-7.822,55.811A161.569,161.569,0,0,1,505.161-253a1.745,1.745,0,0,1-1.4.7" fill="#fff" clip-rule="evenodd"/>
    </clipPath>
    <clipPath id="clip-path-23">
      <path id="Path_20994" data-name="Path 20994" d="M232.18-474.529a1.742,1.742,0,0,1-1.153-.433,1.75,1.75,0,0,1-.163-2.47,193.788,193.788,0,0,1,49.382-40.458,192.8,192.8,0,0,1,35.861-15.97,193.232,193.232,0,0,1,60.264-9.575,1.75,1.75,0,0,1,1.75,1.75,1.75,1.75,0,0,1-1.75,1.75,189.728,189.728,0,0,0-59.174,9.4,189.332,189.332,0,0,0-35.208,15.679,190.263,190.263,0,0,0-48.492,39.73,1.749,1.749,0,0,1-1.317.6" fill="#fff" clip-rule="evenodd"/>
    </clipPath>
    <clipPath id="clip-path-25">
      <path id="Path_20997" data-name="Path 20997" d="M528.544-464.8a1.746,1.746,0,0,1-1.389-.685,191.57,191.57,0,0,0-66.5-54.769,1.751,1.751,0,0,1-.789-2.346,1.751,1.751,0,0,1,2.346-.79,195.1,195.1,0,0,1,67.717,55.775,1.749,1.749,0,0,1-.324,2.453,1.741,1.741,0,0,1-1.064.362" fill="none" clip-rule="evenodd"/>
    </clipPath>
    <clipPath id="clip-path-27">
      <path id="Path_21000" data-name="Path 21000" d="M259.984-196.048a1.734,1.734,0,0,1-1.062-.361,194.624,194.624,0,0,1-34.293-33.751,193.754,193.754,0,0,1-21.848-34.569,191.492,191.492,0,0,1-19.792-85.323,195.63,195.63,0,0,1,1.813-26.589,1.755,1.755,0,0,1,1.972-1.5,1.75,1.75,0,0,1,1.495,1.972,192.363,192.363,0,0,0-1.78,26.113,188.011,188.011,0,0,0,19.432,83.776,190.351,190.351,0,0,0,21.453,33.945,191.075,191.075,0,0,0,33.676,33.143,1.75,1.75,0,0,1,.325,2.453,1.748,1.748,0,0,1-1.391.687" fill="#fff" clip-rule="evenodd"/>
    </clipPath>
    <clipPath id="clip-path-29">
      <path id="Path_21003" data-name="Path 21003" d="M549.8-310.464a1.794,1.794,0,0,1-.376-.04,1.752,1.752,0,0,1-1.336-2.084,174.162,174.162,0,0,0,2.231-62.439,178.761,178.761,0,0,0-3.479-17.652,1.75,1.75,0,0,1,1.273-2.122,1.747,1.747,0,0,1,2.123,1.273,182.182,182.182,0,0,1,3.547,18,177.664,177.664,0,0,1-2.275,63.689,1.752,1.752,0,0,1-1.708,1.376" fill="#0062b4" clip-rule="evenodd"/>
    </clipPath>
    <clipPath id="clip-path-31">
      <path id="Path_21006" data-name="Path 21006" d="M376.229-170.789q-1.115,0-2.229-.014a1.752,1.752,0,0,1-1.728-1.773,1.744,1.744,0,0,1,1.772-1.727A175.664,175.664,0,0,0,419-179.578,176.23,176.23,0,0,0,462.622-196.9a174.983,174.983,0,0,0,23.238-15.65,175.9,175.9,0,0,0,27.989-28.04,1.75,1.75,0,0,1,2.459-.281,1.749,1.749,0,0,1,.281,2.459,179.329,179.329,0,0,1-28.548,28.6,178.32,178.32,0,0,1-23.7,15.965,179.646,179.646,0,0,1-44.49,17.669,179.908,179.908,0,0,1-43.618,5.4" fill="#fff" clip-rule="evenodd"/>
    </clipPath>
    <clipPath id="clip-path-33">
      <path id="Path_21009" data-name="Path 21009" d="M103.33-394.977a1.768,1.768,0,0,1-.3-.026,1.75,1.75,0,0,1-1.431-2.019,279.426,279.426,0,0,1,15.97-56.74A276.038,276.038,0,0,1,189.9-557.24a1.751,1.751,0,0,1,2.472.13,1.751,1.751,0,0,1-.13,2.472,272.533,272.533,0,0,0-71.421,102.176,275.97,275.97,0,0,0-15.77,56.028,1.751,1.751,0,0,1-1.723,1.457" fill="#fff" clip-rule="evenodd"/>
    </clipPath>
    <clipPath id="clip-path-35">
      <path id="Path_21012" data-name="Path 21012" d="M514.317-588.587a1.736,1.736,0,0,1-.869-.233,274.435,274.435,0,0,0-51.037-22.731,275.84,275.84,0,0,0-89.826-13.721,274.309,274.309,0,0,0-94.5,18.044,1.751,1.751,0,0,1-2.259-1.011,1.75,1.75,0,0,1,1.01-2.259,277.818,277.818,0,0,1,95.7-18.274,279.345,279.345,0,0,1,90.964,13.9,277.879,277.879,0,0,1,51.688,23.021,1.749,1.749,0,0,1,.646,2.389,1.748,1.748,0,0,1-1.519.879" fill="#fff" clip-rule="evenodd"/>
    </clipPath>
    <clipPath id="clip-path-37">
      <path id="Path_21015" data-name="Path 21015" d="M277.462-607.113a1.75,1.75,0,0,1-1.635-1.126,1.75,1.75,0,0,1,1.01-2.259,277.818,277.818,0,0,1,95.7-18.274,1.789,1.789,0,0,1,1.774,1.726,1.752,1.752,0,0,1-1.727,1.774,274.309,274.309,0,0,0-94.5,18.044,1.751,1.751,0,0,1-.624.115" fill="#00a9e0" clip-rule="evenodd"/>
    </clipPath>
    <clipPath id="clip-path-39">
      <path id="Path_21018" data-name="Path 21018" d="M643.165-423a1.751,1.751,0,0,1-1.684-1.28,272.857,272.857,0,0,0-42.752-88.033,279.409,279.409,0,0,0-17.772-21.871,1.75,1.75,0,0,1,.13-2.471,1.751,1.751,0,0,1,2.472.13,283.03,283.03,0,0,1,17.994,22.145,276.354,276.354,0,0,1,43.3,89.158,1.75,1.75,0,0,1-1.215,2.157,1.75,1.75,0,0,1-.472.065" fill="#0062b4" clip-rule="evenodd"/>
    </clipPath>
    <clipPath id="clip-path-41">
      <path id="Path_21021" data-name="Path 21021" d="M379.545-71.325a1.75,1.75,0,0,1-1.75-1.73,1.75,1.75,0,0,1,1.731-1.77,277.3,277.3,0,0,0,37.282-2.941,273.446,273.446,0,0,0,85.363-27.4,276.175,276.175,0,0,0,58.327-40.3,275.983,275.983,0,0,0,47.644-55.995,1.75,1.75,0,0,1,2.418-.528,1.75,1.75,0,0,1,.527,2.418,279.457,279.457,0,0,1-48.247,56.706,279.647,279.647,0,0,1-59.067,40.813A276.961,276.961,0,0,1,417.32-74.3a280.886,280.886,0,0,1-37.755,2.978h-.02" fill="#00a9e0" clip-rule="evenodd"/>
    </clipPath>
    <clipPath id="clip-path-43">
      <path id="Path_21024" data-name="Path 21024" d="M244.9-104.41a1.744,1.744,0,0,1-.829-.209,278.033,278.033,0,0,1-74.893-58.964,277.575,277.575,0,0,1-53.331-87.127,278.232,278.232,0,0,1-17.343-77.025,1.75,1.75,0,0,1,1.606-1.883A1.752,1.752,0,0,1,102-328.012a274.7,274.7,0,0,0,17.125,76.056,274.036,274.036,0,0,0,52.662,86.031A274.507,274.507,0,0,0,245.736-107.7a1.751,1.751,0,0,1,.711,2.371,1.752,1.752,0,0,1-1.542.919" fill="#fff" clip-rule="evenodd"/>
    </clipPath>
    <clipPath id="clip-path-45">
      <path id="Path_21027" data-name="Path 21027" d="M170.485-163a1.751,1.751,0,0,1-1.3-.579,277.575,277.575,0,0,1-53.331-87.127,278.232,278.232,0,0,1-17.343-77.025,1.751,1.751,0,0,1,1.606-1.883A1.752,1.752,0,0,1,102-328.012a274.7,274.7,0,0,0,17.125,76.056,274.054,274.054,0,0,0,52.662,86.031,1.752,1.752,0,0,1-.13,2.472,1.747,1.747,0,0,1-1.17.449" fill="#fae164" clip-rule="evenodd"/>
    </clipPath>
    <clipPath id="clip-path-47">
      <path id="Path_21030" data-name="Path 21030" d="M117.488-249.583a1.751,1.751,0,0,1-1.636-1.127,278.232,278.232,0,0,1-17.343-77.025,1.751,1.751,0,0,1,1.606-1.883A1.752,1.752,0,0,1,102-328.012a274.7,274.7,0,0,0,17.125,76.056,1.75,1.75,0,0,1-1.012,2.258,1.728,1.728,0,0,1-.623.115" fill="none" clip-rule="evenodd"/>
    </clipPath>
    <clipPath id="clip-path-49">
      <path id="Path_21033" data-name="Path 21033" d="M117.488-249.583a1.751,1.751,0,0,1-1.636-1.127,278.232,278.232,0,0,1-17.343-77.025,1.751,1.751,0,0,1,1.606-1.883A1.752,1.752,0,0,1,102-328.012a274.7,274.7,0,0,0,17.125,76.056,1.75,1.75,0,0,1-1.012,2.258,1.728,1.728,0,0,1-.623.115" fill="#fef6d1" clip-rule="evenodd"/>
    </clipPath>
    <clipPath id="clip-path-51">
      <path id="Path_21036" data-name="Path 21036" d="M562.454-465.422a1.75,1.75,0,0,1-1.482-.816,218.487,218.487,0,0,0-47.908-53.746,217.335,217.335,0,0,0-66.8-36.713,217.034,217.034,0,0,0-48.918-10.455,1.75,1.75,0,0,1-1.576-1.908,1.742,1.742,0,0,1,1.908-1.577,220.493,220.493,0,0,1,49.707,10.625,220.828,220.828,0,0,1,67.878,37.3,222,222,0,0,1,48.674,54.606,1.751,1.751,0,0,1-.547,2.413,1.741,1.741,0,0,1-.932.27" fill="#fff" clip-rule="evenodd"/>
    </clipPath>
    <clipPath id="clip-path-53">
      <path id="Path_21039" data-name="Path 21039" d="M514.16-519.6a1.742,1.742,0,0,1-1.1-.386,217.335,217.335,0,0,0-66.8-36.713,217.034,217.034,0,0,0-48.918-10.455,1.75,1.75,0,0,1-1.576-1.908,1.742,1.742,0,0,1,1.908-1.577,220.493,220.493,0,0,1,49.707,10.625,220.828,220.828,0,0,1,67.878,37.3,1.751,1.751,0,0,1,.266,2.461,1.749,1.749,0,0,1-1.365.652" fill="#fae164" clip-rule="evenodd"/>
    </clipPath>
    <clipPath id="clip-path-55">
      <path id="Path_21042" data-name="Path 21042" d="M376.249-128.465a221.769,221.769,0,0,1-47.512-5.129,220.1,220.1,0,0,1-67.015-26.812,223.086,223.086,0,0,1-24.634-17.307A222.885,222.885,0,0,1,198-218.554a221.036,221.036,0,0,1-27.024-48.208,1.75,1.75,0,0,1,.964-2.279,1.752,1.752,0,0,1,2.28.964,217.447,217.447,0,0,0,26.6,47.443,219.331,219.331,0,0,0,38.477,40.2A219.668,219.668,0,0,0,263.535-163.4a216.616,216.616,0,0,0,65.952,26.388,219.03,219.03,0,0,0,55.962,4.855,218.639,218.639,0,0,0,57.369-10.122,217.254,217.254,0,0,0,32.169-13.2,218.274,218.274,0,0,0,41.05-27.065,220.035,220.035,0,0,0,59.67-78.924,1.75,1.75,0,0,1,2.311-.887,1.751,1.751,0,0,1,.887,2.311,223.536,223.536,0,0,1-60.624,80.185,221.8,221.8,0,0,1-41.71,27.5,220.761,220.761,0,0,1-32.689,13.413A222.129,222.129,0,0,1,385.6-128.661q-4.676.195-9.347.2" fill="#0062b4" clip-rule="evenodd"/>
    </clipPath>
    <clipPath id="clip-path-57">
      <path id="Path_21045" data-name="Path 21045" d="M329.113-133.553a1.732,1.732,0,0,1-.376-.041,220.1,220.1,0,0,1-67.015-26.812,223.086,223.086,0,0,1-24.634-17.307A222.885,222.885,0,0,1,198-218.554a221.036,221.036,0,0,1-27.024-48.208,1.75,1.75,0,0,1,.964-2.279,1.752,1.752,0,0,1,2.28.964,217.447,217.447,0,0,0,26.6,47.443,219.331,219.331,0,0,0,38.477,40.2A219.668,219.668,0,0,0,263.535-163.4a216.616,216.616,0,0,0,65.952,26.388,1.75,1.75,0,0,1,1.334,2.084,1.752,1.752,0,0,1-1.708,1.375" fill="none" clip-rule="evenodd"/>
    </clipPath>
    <clipPath id="clip-path-59">
      <path id="Path_21048" data-name="Path 21048" d="M168.121-418.9a1.747,1.747,0,0,1-.562-.093,1.75,1.75,0,0,1-1.1-2.22,221.114,221.114,0,0,1,28.407-55.966,223.058,223.058,0,0,1,37.005-40.871,222.184,222.184,0,0,1,38.533-26.661,1.753,1.753,0,0,1,2.375.7,1.751,1.751,0,0,1-.7,2.375A218.508,218.508,0,0,0,234.16-515.4a219.46,219.46,0,0,0-36.423,40.227,217.637,217.637,0,0,0-27.959,55.081,1.751,1.751,0,0,1-1.657,1.189" fill="#0062b4" clip-rule="evenodd"/>
    </clipPath>
    <clipPath id="clip-path-61">
      <path id="Path_21051" data-name="Path 21051" d="M526.778-141.152a1.747,1.747,0,0,1-1.416-.719,1.752,1.752,0,0,1,.384-2.446,257.886,257.886,0,0,0,20.24-16.366A254.026,254.026,0,0,0,596.6-222.916a253.51,253.51,0,0,0,21.107-47.089,254.708,254.708,0,0,0,12.872-82.936,253.294,253.294,0,0,0-16.458-87.323,252.967,252.967,0,0,0-26.834-51.772,257.5,257.5,0,0,0-21.55-27.631,1.752,1.752,0,0,1,.136-2.472,1.751,1.751,0,0,1,2.472.137,261.053,261.053,0,0,1,21.843,28.008A256.528,256.528,0,0,1,617.4-441.505a256.845,256.845,0,0,1,16.684,88.525,258.167,258.167,0,0,1-13.05,84.074,256.86,256.86,0,0,1-21.4,47.74,257.532,257.532,0,0,1-51.312,63.09,261.916,261.916,0,0,1-20.515,16.589,1.748,1.748,0,0,1-1.029.335" fill="#fff" clip-rule="evenodd"/>
    </clipPath>
    <clipPath id="clip-path-63">
      <path id="Path_21054" data-name="Path 21054" d="M632.332-351.21a1.751,1.751,0,0,1-1.75-1.731,253.294,253.294,0,0,0-16.458-87.323,252.967,252.967,0,0,0-26.834-51.772,257.5,257.5,0,0,0-21.55-27.631,1.752,1.752,0,0,1,.136-2.472,1.751,1.751,0,0,1,2.472.137,261.053,261.053,0,0,1,21.843,28.008A256.528,256.528,0,0,1,617.4-441.505a256.848,256.848,0,0,1,16.684,88.525,1.75,1.75,0,0,1-1.73,1.77h-.02" fill="#edf3f8" clip-rule="evenodd"/>
    </clipPath>
    <clipPath id="clip-path-65">
      <path id="Path_21057" data-name="Path 21057" d="M376.356-92.355a258.818,258.818,0,0,1-47.9-4.453,1.75,1.75,0,0,1-1.4-2.044,1.75,1.75,0,0,1,2.044-1.4,256.492,256.492,0,0,0,115.238-4.777,1.748,1.748,0,0,1,2.153,1.22,1.749,1.749,0,0,1-1.219,2.153,259.035,259.035,0,0,1-68.92,9.3" fill="#edf3f8" clip-rule="evenodd"/>
    </clipPath>
    <clipPath id="clip-path-67">
      <path id="Path_21060" data-name="Path 21060" d="M367.85-58.388H367.8A290.927,290.927,0,0,1,270.072-78.4a1.75,1.75,0,0,1-.992-2.267,1.749,1.749,0,0,1,2.267-.993A287.462,287.462,0,0,0,367.9-61.887a1.75,1.75,0,0,1,1.7,1.8,1.751,1.751,0,0,1-1.749,1.7" fill="none" clip-rule="evenodd"/>
    </clipPath>
    <clipPath id="clip-path-69">
      <path id="Path_21063" data-name="Path 21063" d="M106.347-453.963a1.766,1.766,0,0,1-.637-.12,1.751,1.751,0,0,1-.992-2.268,295.608,295.608,0,0,1,17.163-36.356,1.753,1.753,0,0,1,2.382-.674,1.752,1.752,0,0,1,.674,2.382,291.828,291.828,0,0,0-16.959,35.923,1.752,1.752,0,0,1-1.631,1.113" fill="#0062b4" clip-rule="evenodd"/>
    </clipPath>
    <clipPath id="clip-path-71">
      <path id="Path_21066" data-name="Path 21066" d="M119.2-451.362a1.748,1.748,0,0,1-.649-.125,1.751,1.751,0,0,1-.976-2.275A276.038,276.038,0,0,1,189.9-557.24a1.751,1.751,0,0,1,2.472.13,1.751,1.751,0,0,1-.13,2.472,272.533,272.533,0,0,0-71.421,102.176,1.75,1.75,0,0,1-1.625,1.1" fill="#edf3f8" clip-rule="evenodd"/>
    </clipPath>
    <clipPath id="clip-path-73">
      <path id="Path_21069" data-name="Path 21069" d="M482.032-618.325a1.747,1.747,0,0,1-.637-.121,287.948,287.948,0,0,0-88.841-19.44,1.749,1.749,0,0,1-1.648-1.846,1.743,1.743,0,0,1,1.845-1.648,291.444,291.444,0,0,1,89.919,19.675,1.749,1.749,0,0,1,.992,2.267,1.749,1.749,0,0,1-1.63,1.113" fill="#edf3f8" clip-rule="evenodd"/>
    </clipPath>
    <clipPath id="clip-path-75">
      <path id="Path_21072" data-name="Path 21072" d="M684.511-444.883a1.753,1.753,0,0,1-1.669-1.226,321.83,321.83,0,0,0-27.1-62.261,323.2,323.2,0,0,0-47.733-64.076,320.426,320.426,0,0,0-71.6-56.081,1.75,1.75,0,0,1-.645-2.389,1.749,1.749,0,0,1,2.39-.645,323.94,323.94,0,0,1,72.382,56.693,326.658,326.658,0,0,1,48.249,64.77,325.358,325.358,0,0,1,27.4,62.94,1.751,1.751,0,0,1-1.146,2.194,1.741,1.741,0,0,1-.525.081" fill="none" clip-rule="evenodd"/>
    </clipPath>
    <clipPath id="clip-path-77">
      <path id="Path_21075" data-name="Path 21075" d="M609.275-571.907a1.745,1.745,0,0,1-1.264-.539,320.426,320.426,0,0,0-71.6-56.081,1.75,1.75,0,0,1-.645-2.389,1.749,1.749,0,0,1,2.39-.645,323.94,323.94,0,0,1,72.382,56.693,1.751,1.751,0,0,1-.052,2.475,1.745,1.745,0,0,1-1.211.486" fill="#fae164" clip-rule="evenodd"/>
    </clipPath>
    <clipPath id="clip-path-79">
      <path id="Path_21078" data-name="Path 21078" d="M492.239-46.9a1.749,1.749,0,0,1-1.633-1.12,1.75,1.75,0,0,1,1-2.263A321.694,321.694,0,0,0,582.9-104.176a319.974,319.974,0,0,0,72.067-86.041A319.528,319.528,0,0,0,684.006-257.9a325.322,325.322,0,0,0,9.709-43.18,1.762,1.762,0,0,1,2-1.463,1.749,1.749,0,0,1,1.463,2A328.7,328.7,0,0,1,687.36-256.9,322.964,322.964,0,0,1,658-188.475a323.471,323.471,0,0,1-72.852,86.981,325.193,325.193,0,0,1-92.279,54.475,1.741,1.741,0,0,1-.629.117" fill="#edf3f8" clip-rule="evenodd"/>
    </clipPath>
    <clipPath id="clip-path-81">
      <path id="Path_21081" data-name="Path 21081" d="M327.137-29.229a1.881,1.881,0,0,1-.268-.02,329.939,329.939,0,0,1-32.544-6.717A321.763,321.763,0,0,1,189.6-84.484a1.749,1.749,0,0,1-.423-2.438,1.75,1.75,0,0,1,2.439-.423A318.286,318.286,0,0,0,295.206-39.353a326.475,326.475,0,0,0,32.2,6.645,1.749,1.749,0,0,1,1.463,2,1.749,1.749,0,0,1-1.728,1.483" fill="#fff" clip-rule="evenodd"/>
    </clipPath>
    <clipPath id="clip-path-83">
      <path id="Path_21084" data-name="Path 21084" d="M55.562-311.319a1.751,1.751,0,0,1-1.737-1.55,325.45,325.45,0,0,1,1.743-86.686,325.616,325.616,0,0,1,23.209-80.321,1.749,1.749,0,0,1,2.3-.906,1.751,1.751,0,0,1,.906,2.3,322.1,322.1,0,0,0-22.959,79.458A321.9,321.9,0,0,0,57.3-313.268a1.75,1.75,0,0,1-1.54,1.938,1.937,1.937,0,0,1-.2.011" fill="none" clip-rule="evenodd"/>
    </clipPath>
    <clipPath id="clip-path-85">
      <path id="Path_21087" data-name="Path 21087" d="M169.289-595.994a1.747,1.747,0,0,1-1.344-.628,1.751,1.751,0,0,1,.221-2.466,326.425,326.425,0,0,1,69.781-44.6,323.81,323.81,0,0,1,76.945-25.174,1.75,1.75,0,0,1,2.05,1.387,1.75,1.75,0,0,1-1.387,2.05,320.223,320.223,0,0,0-76.113,24.9A322.954,322.954,0,0,0,170.41-596.4a1.748,1.748,0,0,1-1.121.407" fill="#fff" clip-rule="evenodd"/>
    </clipPath>
    <clipPath id="clip-path-87">
      <path id="Path_21090" data-name="Path 21090" d="M238.7-640.36a1.749,1.749,0,0,1-1.583-1,1.75,1.75,0,0,1,.835-2.33,323.81,323.81,0,0,1,76.945-25.174,1.75,1.75,0,0,1,2.05,1.387,1.75,1.75,0,0,1-1.387,2.05,320.269,320.269,0,0,0-76.113,24.9,1.734,1.734,0,0,1-.747.169" fill="none" clip-rule="evenodd"/>
    </clipPath>
    <clipPath id="clip-path-89">
      <path id="Path_21093" data-name="Path 21093" d="M266.378-.655a1.741,1.741,0,0,1-.529-.082,367.146,367.146,0,0,1-88.466-41.789,367.375,367.375,0,0,1-72.008-60.958,1.75,1.75,0,0,1,.115-2.472,1.75,1.75,0,0,1,2.472.115,363.941,363.941,0,0,0,71.322,60.377A363.642,363.642,0,0,0,266.906-4.073a1.751,1.751,0,0,1,1.14,2.2,1.751,1.751,0,0,1-1.668,1.22" fill="#0062b4" clip-rule="evenodd"/>
    </clipPath>
    <clipPath id="clip-path-91">
      <path id="Path_21096" data-name="Path 21096" d="M162.142-643.374a1.749,1.749,0,0,1-1.418-.722,1.751,1.751,0,0,1,.389-2.444,365.546,365.546,0,0,1,91.778-48.383,1.75,1.75,0,0,1,2.237,1.059,1.751,1.751,0,0,1-1.059,2.237,362.035,362.035,0,0,0-90.9,47.92,1.745,1.745,0,0,1-1.027.333" fill="#fae164" clip-rule="evenodd"/>
    </clipPath>
    <clipPath id="clip-path-93">
      <path id="Path_21099" data-name="Path 21099" d="M740.441-328.554c-.033,0-.064,0-.095,0a1.748,1.748,0,0,1-1.654-1.84,363.5,363.5,0,0,0-13.4-119.02,361.509,361.509,0,0,0-55.425-114.054,1.751,1.751,0,0,1,.387-2.444,1.75,1.75,0,0,1,2.445.386,365.035,365.035,0,0,1,55.96,115.155,366.947,366.947,0,0,1,13.525,120.163,1.75,1.75,0,0,1-1.745,1.657" fill="#fff" clip-rule="evenodd"/>
    </clipPath>
    <clipPath id="clip-path-95">
      <path id="Path_21113" data-name="Path 21113" d="M0-621.844H756.594v501.85H0Z" fill="#edf3f8" clip-rule="evenodd"/>
    </clipPath>
    <clipPath id="clip-path-97">
      <rect id="Rectangle_4008" data-name="Rectangle 4008" width="760" height="504" transform="translate(-1 -623)" fill="#edf3f8"/>
    </clipPath>
    <clipPath id="clip-path-98">
      <path id="Path_21102" data-name="Path 21102" d="M660.6-119.994a1.744,1.744,0,0,1-1.094-.385,1.749,1.749,0,0,1-.27-2.46,368.447,368.447,0,0,0,21.723-30.127A362.463,362.463,0,0,0,727.3-257.645a1.754,1.754,0,0,1,2.139-1.246,1.751,1.751,0,0,1,1.246,2.139A366.02,366.02,0,0,1,683.9-151.064a372.3,372.3,0,0,1-21.933,30.414,1.746,1.746,0,0,1-1.366.656" fill="#edf3f8" clip-rule="evenodd"/>
    </clipPath>
    <clipPath id="clip-path-99">
      <path id="Path_21101" data-name="Path 21101" d="M0-119H757V-622H0Z" fill="#edf3f8"/>
    </clipPath>
    <clipPath id="clip-path-100">
      <path id="Path_21105" data-name="Path 21105" d="M1.753-401.82a1.761,1.761,0,0,1-.25-.017,1.75,1.75,0,0,1-1.485-1.98A378.542,378.542,0,0,1,44.563-535.83a379.417,379.417,0,0,1,65.446-85.513,1.749,1.749,0,0,1,2.475.025,1.75,1.75,0,0,1-.025,2.474,375.943,375.943,0,0,0-64.843,84.725,375.044,375.044,0,0,0-44.133,130.8,1.751,1.751,0,0,1-1.73,1.5" fill="#edf3f8" clip-rule="evenodd"/>
    </clipPath>
    <clipPath id="clip-path-102">
      <path id="Path_21108" data-name="Path 21108" d="M46.088-533.224a1.742,1.742,0,0,1-.854-.224,1.75,1.75,0,0,1-.671-2.382,379.417,379.417,0,0,1,65.446-85.513,1.75,1.75,0,0,1,2.475.025,1.75,1.75,0,0,1-.025,2.474,375.914,375.914,0,0,0-64.843,84.725,1.749,1.749,0,0,1-1.528.9" fill="#edf3f8" clip-rule="evenodd"/>
    </clipPath>
    <clipPath id="clip-path-104">
      <path id="Path_21111" data-name="Path 21111" d="M750.994-294.785a1.757,1.757,0,0,1-.249-.017,1.75,1.75,0,0,1-1.485-1.98A376.313,376.313,0,0,0,747.4-415.625a1.75,1.75,0,0,1,1.419-2.028,1.743,1.743,0,0,1,2.028,1.419,379.866,379.866,0,0,1,1.88,119.947,1.75,1.75,0,0,1-1.731,1.5" fill="#edf3f8" clip-rule="evenodd"/>
    </clipPath>
    <clipPath id="clip-path-106">
      <path id="Path_21116" data-name="Path 21116" d="M561.608-18.29a1.751,1.751,0,0,1-1.528-.893,1.751,1.751,0,0,1,.668-2.383A380.021,380.021,0,0,0,686.956-136.783a1.749,1.749,0,0,1,2.434-.449,1.75,1.75,0,0,1,.449,2.434A383.532,383.532,0,0,1,562.463-18.515a1.741,1.741,0,0,1-.855.225" fill="#0062b4" clip-rule="evenodd"/>
    </clipPath>
    <clipPath id="clip-path-108">
      <path id="Path_21119" data-name="Path 21119" d="M124.75-65.6a1.747,1.747,0,0,1-1.164-.444,383,383,0,0,1-36.137-36.91,1.748,1.748,0,0,1,.194-2.466,1.749,1.749,0,0,1,2.467.193,379.691,379.691,0,0,0,35.805,36.571,1.75,1.75,0,0,1,.142,2.471,1.745,1.745,0,0,1-1.307.585" fill="#fae164" clip-rule="evenodd"/>
    </clipPath>
    <clipPath id="clip-path-110">
      <path id="Path_21122" data-name="Path 21122" d="M172.523-704.24a1.749,1.749,0,0,1-1.519-.879,1.749,1.749,0,0,1,.646-2.389,410.558,410.558,0,0,1,76.372-34.01,411.494,411.494,0,0,1,128.349-20.393,1.75,1.75,0,0,1,1.75,1.75,1.75,1.75,0,0,1-1.75,1.75,408.013,408.013,0,0,0-127.259,20.219,407.072,407.072,0,0,0-75.72,33.719,1.736,1.736,0,0,1-.869.233" fill="#0062b4" clip-rule="evenodd"/>
    </clipPath>
    <clipPath id="clip-path-112">
      <path id="Path_21125" data-name="Path 21125" d="M702.031-597.606a1.747,1.747,0,0,1-1.389-.685,412,412,0,0,0-143-117.784,1.751,1.751,0,0,1-.789-2.346,1.75,1.75,0,0,1,2.346-.79,415.521,415.521,0,0,1,144.223,118.79,1.748,1.748,0,0,1-.324,2.453,1.737,1.737,0,0,1-1.064.362" fill="#edf3f8" clip-rule="evenodd"/>
    </clipPath>
  </defs>
  <g id="Group_12834" data-name="Group 12834" transform="translate(-4251 6935)">
    <g id="Group_11907" data-name="Group 11907" transform="translate(4251 -6173.089)" clip-path="url(#clip-path)">
      <g id="Group_11906" data-name="Group 11906" clip-path="url(#clip-path-2)">
        <path id="Path_20959" data-name="Path 20959" d="M278.486-447.937h195.77v195.77H278.486Z" fill="#73c06b"/>
      </g>
    </g>
    <g id="Group_11909" data-name="Group 11909" transform="translate(4251 -6173.089)" clip-path="url(#clip-path-3)">
      <g id="Group_11908" data-name="Group 11908" clip-path="url(#clip-path-4)">
        <path id="Path_20962" data-name="Path 20962" d="M278.486-447.937h195.77v195.77H278.486Z" fill="#fff"/>
      </g>
    </g>
    <g id="Group_11911" data-name="Group 11911" transform="translate(4251 -6173.089)" clip-path="url(#clip-path-5)">
      <g id="Group_11910" data-name="Group 11910" clip-path="url(#clip-path-6)">
        <path id="Path_20965" data-name="Path 20965" d="M326.8-426.016H497.075v196.665H326.8Z" fill="#fef6d1"/>
      </g>
    </g>
    <g id="Group_11913" data-name="Group 11913" transform="translate(4251 -6173.089)" clip-path="url(#clip-path-7)">
      <g id="Group_11912" data-name="Group 11912" clip-path="url(#clip-path-8)">
        <path id="Path_20968" data-name="Path 20968" d="M326.8-274.479H461.9v45.128H326.8Z" fill="#edf3f8"/>
      </g>
    </g>
    <g id="Group_11915" data-name="Group 11915" transform="translate(4251 -6173.089)" clip-path="url(#clip-path-9)">
      <g id="Group_11914" data-name="Group 11914" clip-path="url(#clip-path-2)">
        <path id="Path_20971" data-name="Path 20971" d="M262.071-319.246h32.415v47.556H262.071Z" fill="#73c06b"/>
      </g>
    </g>
    <g id="Group_11917" data-name="Group 11917" transform="translate(4251 -6173.089)" clip-path="url(#clip-path-11)">
      <g id="Group_11916" data-name="Group 11916" clip-path="url(#clip-path-12)">
        <path id="Path_20974" data-name="Path 20974" d="M261.361-468.508h99.344v89.727H261.361Z" fill="#00a9e0"/>
      </g>
    </g>
    <g id="Group_11919" data-name="Group 11919" transform="translate(4251 -6173.089)" clip-path="url(#clip-path-13)">
      <g id="Group_11918" data-name="Group 11918" clip-path="url(#clip-path-14)">
        <path id="Path_20977" data-name="Path 20977" d="M262.238-238.83H488.519v55.057H262.238Z" fill="#fae164"/>
      </g>
    </g>
    <g id="Group_11921" data-name="Group 11921" transform="translate(4251 -6173.089)" clip-path="url(#clip-path-15)">
      <g id="Group_11920" data-name="Group 11920" clip-path="url(#clip-path-14)">
        <path id="Path_20980" data-name="Path 20980" d="M210.09-473.693h64.465v153.7H210.09Z" fill="#fae164"/>
      </g>
    </g>
    <g id="Group_11923" data-name="Group 11923" transform="translate(4251 -6173.089)" clip-path="url(#clip-path-17)">
      <g id="Group_11922" data-name="Group 11922" clip-path="url(#clip-path-2)">
        <path id="Path_20983" data-name="Path 20983" d="M445.7-496.982H542.65V-247.3H445.7Z" fill="#73c06b"/>
      </g>
    </g>
    <g id="Group_11925" data-name="Group 11925" transform="translate(4251 -6173.089)" clip-path="url(#clip-path-19)">
      <g id="Group_11924" data-name="Group 11924" clip-path="url(#clip-path-20)">
        <path id="Path_20986" data-name="Path 20986" d="M460.141-426.016h36.934V-280.73H460.141Z" fill="#0062b4"/>
      </g>
    </g>
    <g id="Group_11927" data-name="Group 11927" transform="translate(4251 -6173.089)" clip-path="url(#clip-path-21)">
      <g id="Group_11926" data-name="Group 11926" clip-path="url(#clip-path-4)">
        <path id="Path_20989" data-name="Path 20989" d="M445.7-496.982H542.65V-247.3H445.7Z" fill="#fff"/>
      </g>
    </g>
    <g id="Group_11929" data-name="Group 11929" transform="translate(4251 -6173.089)" clip-path="url(#clip-path-23)">
      <g id="Group_11928" data-name="Group 11928" clip-path="url(#clip-path-4)">
        <path id="Path_20992" data-name="Path 20992" d="M225.43-548.435H383.121v78.906H225.43Z" fill="#fff"/>
      </g>
    </g>
    <g id="Group_11931" data-name="Group 11931" transform="translate(4251 -6173.089)" clip-path="url(#clip-path-25)">
      <g id="Group_11930" data-name="Group 11930" clip-path="url(#clip-path-2)">
        <path id="Path_20995" data-name="Path 20995" d="M454.686-528.568h80.607V-459.8H454.686Z" fill="#00a8e0"/>
      </g>
    </g>
    <g id="Group_11933" data-name="Group 11933" transform="translate(4251 -6173.089)" clip-path="url(#clip-path-27)">
      <g id="Group_11932" data-name="Group 11932" clip-path="url(#clip-path-4)">
        <path id="Path_20998" data-name="Path 20998" d="M177.989-383.152h88.747v192.1H177.989Z" fill="#fff"/>
      </g>
    </g>
    <g id="Group_11935" data-name="Group 11935" transform="translate(4251 -6173.089)" clip-path="url(#clip-path-29)">
      <g id="Group_11934" data-name="Group 11934" clip-path="url(#clip-path-20)">
        <path id="Path_21001" data-name="Path 21001" d="M541.792-399.854h18.849v94.39H541.792Z" fill="#0062b4"/>
      </g>
    </g>
    <g id="Group_11937" data-name="Group 11937" transform="translate(4251 -6173.089)" clip-path="url(#clip-path-31)">
      <g id="Group_11936" data-name="Group 11936" clip-path="url(#clip-path-4)">
        <path id="Path_21004" data-name="Path 21004" d="M367.272-246.255h154.7v80.466h-154.7Z" fill="#fff"/>
      </g>
    </g>
    <g id="Group_11939" data-name="Group 11939" transform="translate(4251 -6173.089)" clip-path="url(#clip-path-33)">
      <g id="Group_11938" data-name="Group 11938" clip-path="url(#clip-path-4)">
        <path id="Path_21007" data-name="Path 21007" d="M96.578-562.689H197.823v172.712H96.578Z" fill="#fff"/>
      </g>
    </g>
    <g id="Group_11941" data-name="Group 11941" transform="translate(4251 -6173.089)" clip-path="url(#clip-path-35)">
      <g id="Group_11940" data-name="Group 11940" clip-path="url(#clip-path-4)">
        <path id="Path_21010" data-name="Path 21010" d="M270.711-633.8H521.069v50.21H270.711Z" fill="#fff"/>
      </g>
    </g>
    <g id="Group_11943" data-name="Group 11943" transform="translate(4251 -6173.089)" clip-path="url(#clip-path-37)">
      <g id="Group_11942" data-name="Group 11942" clip-path="url(#clip-path-12)">
        <path id="Path_21013" data-name="Path 21013" d="M270.711-633.772h108.6v31.659h-108.6Z" fill="#00a9e0"/>
      </g>
    </g>
    <g id="Group_11945" data-name="Group 11945" transform="translate(4251 -6173.089)" clip-path="url(#clip-path-39)">
      <g id="Group_11944" data-name="Group 11944" clip-path="url(#clip-path-20)">
        <path id="Path_21016" data-name="Path 21016" d="M575.508-542.1h74.409V-418H575.508Z" fill="#0062b4"/>
      </g>
    </g>
    <g id="Group_11947" data-name="Group 11947" transform="translate(4251 -6173.089)" clip-path="url(#clip-path-41)">
      <g id="Group_11946" data-name="Group 11946" clip-path="url(#clip-path-12)">
        <path id="Path_21019" data-name="Path 21019" d="M372.795-207.266h243.57V-66.325H372.795Z" fill="#00a9e0"/>
      </g>
    </g>
    <g id="Group_11949" data-name="Group 11949" transform="translate(4251 -6173.089)" clip-path="url(#clip-path-43)">
      <g id="Group_11948" data-name="Group 11948" clip-path="url(#clip-path-4)">
        <path id="Path_21022" data-name="Path 21022" d="M93.5-334.624H251.656V-99.41H93.5Z" fill="#fff"/>
      </g>
    </g>
    <g id="Group_11951" data-name="Group 11951" transform="translate(4251 -6173.089)" clip-path="url(#clip-path-45)">
      <g id="Group_11950" data-name="Group 11950" clip-path="url(#clip-path-14)">
        <path id="Path_21025" data-name="Path 21025" d="M93.5-334.624h83.731V-158H93.5Z" fill="#fae164"/>
      </g>
    </g>
    <g id="Group_11953" data-name="Group 11953" transform="translate(4251 -6173.089)" clip-path="url(#clip-path-47)">
      <g id="Group_11952" data-name="Group 11952" clip-path="url(#clip-path-2)">
        <path id="Path_21028" data-name="Path 21028" d="M93.5-334.624h30.735v90.041H93.5Z" fill="#004aa4"/>
      </g>
    </g>
    <g id="Group_11955" data-name="Group 11955" transform="translate(4251 -6173.089)" clip-path="url(#clip-path-49)">
      <g id="Group_11954" data-name="Group 11954" clip-path="url(#clip-path-6)">
        <path id="Path_21031" data-name="Path 21031" d="M93.5-334.624h30.735v90.041H93.5Z" fill="#fef6d1"/>
      </g>
    </g>
    <g id="Group_11957" data-name="Group 11957" transform="translate(4251 -6173.089)" clip-path="url(#clip-path-51)">
      <g id="Group_11956" data-name="Group 11956" clip-path="url(#clip-path-4)">
        <path id="Path_21034" data-name="Path 21034" d="M390.758-575.646H569.2v115.224H390.758Z" fill="#fff"/>
      </g>
    </g>
    <g id="Group_11959" data-name="Group 11959" transform="translate(4251 -6173.089)" clip-path="url(#clip-path-53)">
      <g id="Group_11958" data-name="Group 11958" clip-path="url(#clip-path-14)">
        <path id="Path_21037" data-name="Path 21037" d="M390.758-575.646H520.911V-514.6H390.758Z" fill="#fae164"/>
      </g>
    </g>
    <g id="Group_11961" data-name="Group 11961" transform="translate(4251 -6173.089)" clip-path="url(#clip-path-55)">
      <g id="Group_11960" data-name="Group 11960" clip-path="url(#clip-path-20)">
        <path id="Path_21040" data-name="Path 21040" d="M165.843-274.169H584.057v150.7H165.843Z" fill="#0062b4"/>
      </g>
    </g>
    <g id="Group_11963" data-name="Group 11963" transform="translate(4251 -6173.089)" clip-path="url(#clip-path-57)">
      <g id="Group_11962" data-name="Group 11962" clip-path="url(#clip-path-2)">
        <path id="Path_21043" data-name="Path 21043" d="M165.843-274.169H335.862v145.616H165.843Z" fill="#00a8e0"/>
      </g>
    </g>
    <g id="Group_11965" data-name="Group 11965" transform="translate(4251 -6173.089)" clip-path="url(#clip-path-59)">
      <g id="Group_11964" data-name="Group 11964" clip-path="url(#clip-path-20)">
        <path id="Path_21046" data-name="Path 21046" d="M161.37-549.928H278V-413.9H161.37Z" fill="#0062b4"/>
      </g>
    </g>
    <g id="Group_11967" data-name="Group 11967" transform="translate(4251 -6173.089)" clip-path="url(#clip-path-61)">
      <g id="Group_11966" data-name="Group 11966" clip-path="url(#clip-path-4)">
        <path id="Path_21049" data-name="Path 21049" d="M520.026-527.585H639.1v391.433H520.026Z" fill="#fff"/>
      </g>
    </g>
    <g id="Group_11969" data-name="Group 11969" transform="translate(4251 -6173.089)" clip-path="url(#clip-path-63)">
      <g id="Group_11968" data-name="Group 11968" clip-path="url(#clip-path-8)">
        <path id="Path_21052" data-name="Path 21052" d="M560.294-527.585h78.788V-346.21H560.294Z" fill="#edf3f8"/>
      </g>
    </g>
    <g id="Group_11971" data-name="Group 11971" transform="translate(4251 -6173.089)" clip-path="url(#clip-path-65)">
      <g id="Group_11970" data-name="Group 11970" clip-path="url(#clip-path-8)">
        <path id="Path_21055" data-name="Path 21055" d="M322.029-110.088h129.53v22.733H322.029Z" fill="#edf3f8"/>
      </g>
    </g>
    <g id="Group_11973" data-name="Group 11973" transform="translate(4251 -6173.089)" clip-path="url(#clip-path-67)">
      <g id="Group_11972" data-name="Group 11972" clip-path="url(#clip-path-2)">
        <path id="Path_21058" data-name="Path 21058" d="M263.959-86.78H374.6v33.392H263.959Z" fill="#00a8e0"/>
      </g>
    </g>
    <g id="Group_11975" data-name="Group 11975" transform="translate(4251 -6173.089)" clip-path="url(#clip-path-69)">
      <g id="Group_11974" data-name="Group 11974" clip-path="url(#clip-path-20)">
        <path id="Path_21061" data-name="Path 21061" d="M99.6-498.6h30.562v49.64H99.6Z" fill="#0062b4"/>
      </g>
    </g>
    <g id="Group_11977" data-name="Group 11977" transform="translate(4251 -6173.089)" clip-path="url(#clip-path-71)">
      <g id="Group_11976" data-name="Group 11976" clip-path="url(#clip-path-8)">
        <path id="Path_21064" data-name="Path 21064" d="M112.448-562.689h85.375v116.327H112.448Z" fill="#edf3f8"/>
      </g>
    </g>
    <g id="Group_11979" data-name="Group 11979" transform="translate(4251 -6173.089)" clip-path="url(#clip-path-73)">
      <g id="Group_11978" data-name="Group 11978" clip-path="url(#clip-path-8)">
        <path id="Path_21067" data-name="Path 21067" d="M385.9-646.384h102.88v33.059H385.9Z" fill="#edf3f8"/>
      </g>
    </g>
    <g id="Group_11981" data-name="Group 11981" transform="translate(4251 -6173.089)" clip-path="url(#clip-path-75)">
      <g id="Group_11980" data-name="Group 11980" clip-path="url(#clip-path-2)">
        <path id="Path_21070" data-name="Path 21070" d="M530.533-636.8h160.73v196.912H530.533Z" fill="#00a8e0"/>
      </g>
    </g>
    <g id="Group_11983" data-name="Group 11983" transform="translate(4251 -6173.089)" clip-path="url(#clip-path-77)">
      <g id="Group_11982" data-name="Group 11982" clip-path="url(#clip-path-14)">
        <path id="Path_21073" data-name="Path 21073" d="M530.533-636.8h85.492v69.888H530.533Z" fill="#fae164"/>
      </g>
    </g>
    <g id="Group_11985" data-name="Group 11985" transform="translate(4251 -6173.089)" clip-path="url(#clip-path-79)">
      <g id="Group_11984" data-name="Group 11984" clip-path="url(#clip-path-8)">
        <path id="Path_21076" data-name="Path 21076" d="M485.488-307.565H702.195V-41.9H485.488Z" fill="#edf3f8"/>
      </g>
    </g>
    <g id="Group_11987" data-name="Group 11987" transform="translate(4251 -6173.089)" clip-path="url(#clip-path-81)">
      <g id="Group_11986" data-name="Group 11986" clip-path="url(#clip-path-4)">
        <path id="Path_21079" data-name="Path 21079" d="M183.853-92.665H333.886v68.436H183.853Z" fill="#fff"/>
      </g>
    </g>
    <g id="Group_11989" data-name="Group 11989" transform="translate(4251 -6173.089)" clip-path="url(#clip-path-83)">
      <g id="Group_11988" data-name="Group 11988" clip-path="url(#clip-path-2)">
        <path id="Path_21082" data-name="Path 21082" d="M46.729-485.928h40.4v179.609h-40.4Z" fill="#00a8e0"/>
      </g>
    </g>
    <g id="Group_11991" data-name="Group 11991" transform="translate(4251 -6173.089)" clip-path="url(#clip-path-85)">
      <g id="Group_11990" data-name="Group 11990" clip-path="url(#clip-path-4)">
        <path id="Path_21085" data-name="Path 21085" d="M162.538-673.9H321.974v82.905H162.538Z" fill="#fff"/>
      </g>
    </g>
    <g id="Group_11993" data-name="Group 11993" transform="translate(4251 -6173.089)" clip-path="url(#clip-path-87)">
      <g id="Group_11992" data-name="Group 11992" clip-path="url(#clip-path-2)">
        <path id="Path_21088" data-name="Path 21088" d="M231.944-673.9h90.03v38.539h-90.03Z" fill="#00a8e0"/>
      </g>
    </g>
    <g id="Group_11995" data-name="Group 11995" transform="translate(4251 -6173.089)" clip-path="url(#clip-path-89)">
      <g id="Group_11994" data-name="Group 11994" clip-path="url(#clip-path-20)">
        <path id="Path_21091" data-name="Path 21091" d="M99.919-111.412h173.21V4.345H99.919Z" fill="#0062b4"/>
      </g>
    </g>
    <g id="Group_11997" data-name="Group 11997" transform="translate(4251 -6173.089)" clip-path="url(#clip-path-91)">
      <g id="Group_11996" data-name="Group 11996" clip-path="url(#clip-path-14)">
        <path id="Path_21094" data-name="Path 21094" d="M155.391-700.025H260.23v61.651H155.391Z" fill="#fae164"/>
      </g>
    </g>
    <g id="Group_11999" data-name="Group 11999" transform="translate(4251 -6173.089)" clip-path="url(#clip-path-93)">
      <g id="Group_11998" data-name="Group 11998" clip-path="url(#clip-path-4)">
        <path id="Path_21097" data-name="Path 21097" d="M664.535-571.25h83.174v247.7H664.535Z" fill="#fff"/>
      </g>
    </g>
    <g id="Group_12011" data-name="Group 12011" transform="translate(4251 -6173.089)" clip-path="url(#clip-path-95)">
      <g id="Group_12010" data-name="Group 12010" clip-path="url(#clip-path-8)">
        <g id="Group_12009" data-name="Group 12009" style="isolation: isolate">
          <g id="Group_12008" data-name="Group 12008" clip-path="url(#clip-path-97)">
            <g id="Group_12001" data-name="Group 12001" clip-path="url(#clip-path-98)">
              <g id="Group_12000" data-name="Group 12000" clip-path="url(#clip-path-99)">
                <path id="Path_21100" data-name="Path 21100" d="M653.851-263.948h81.89v148.954h-81.89Z" fill="#edf3f8"/>
              </g>
            </g>
            <g id="Group_12003" data-name="Group 12003" clip-path="url(#clip-path-100)">
              <g id="Group_12002" data-name="Group 12002" clip-path="url(#clip-path-99)">
                <path id="Path_21103" data-name="Path 21103" d="M-5-626.844H117.984V-396.82H-5Z" fill="#edf3f8"/>
              </g>
            </g>
            <g id="Group_12005" data-name="Group 12005" clip-path="url(#clip-path-102)">
              <g id="Group_12004" data-name="Group 12004" clip-path="url(#clip-path-99)">
                <path id="Path_21106" data-name="Path 21106" d="M39.34-626.843h78.644v98.619H39.34Z" fill="#edf3f8"/>
              </g>
            </g>
            <g id="Group_12007" data-name="Group 12007" clip-path="url(#clip-path-104)">
              <g id="Group_12006" data-name="Group 12006" clip-path="url(#clip-path-99)">
                <path id="Path_21109" data-name="Path 21109" d="M742.371-422.681h19.223v132.9H742.371Z" fill="#edf3f8"/>
              </g>
            </g>
          </g>
        </g>
      </g>
    </g>
    <g id="Group_12013" data-name="Group 12013" transform="translate(4251 -6173.089)" clip-path="url(#clip-path-106)">
      <g id="Group_12012" data-name="Group 12012" clip-path="url(#clip-path-20)">
        <path id="Path_21114" data-name="Path 21114" d="M554.856-142.541H695.148V-13.29H554.856Z" fill="#0062b4"/>
      </g>
    </g>
    <g id="Group_12015" data-name="Group 12015" transform="translate(4251 -6173.089)" clip-path="url(#clip-path-108)">
      <g id="Group_12014" data-name="Group 12014" clip-path="url(#clip-path-14)">
        <path id="Path_21117" data-name="Path 21117" d="M82.029-110.835H131.5V-60.6H82.029Z" fill="#fae164"/>
      </g>
    </g>
    <g id="Group_12017" data-name="Group 12017" transform="translate(4251 -6173.089)" clip-path="url(#clip-path-110)">
      <g id="Group_12016" data-name="Group 12016" clip-path="url(#clip-path-20)">
        <path id="Path_21120" data-name="Path 21120" d="M165.771-766.911h217.35v67.671H165.771Z" fill="#0062b4"/>
      </g>
    </g>
    <g id="Group_12019" data-name="Group 12019" transform="translate(4251 -6173.089)" clip-path="url(#clip-path-112)">
      <g id="Group_12018" data-name="Group 12018" clip-path="url(#clip-path-8)">
        <path id="Path_21123" data-name="Path 21123" d="M551.667-724.394H708.781v131.788H551.667Z" fill="#edf3f8"/>
      </g>
    </g>
  </g>
</svg>
