<?xml version="1.0" encoding="utf-8"?>
<!-- Generator: Adobe Illustrator 23.0.3, SVG Export Plug-In . SVG Version: 6.00 Build 0)  -->
<svg version="1.1" id="Layer_1" xmlns="http://www.w3.org/2000/svg" xmlns:xlink="http://www.w3.org/1999/xlink" x="0px" y="0px"
	 viewBox="0 0 724.4 1098.7" style="enable-background:new 0 0 724.4 1098.7;" xml:space="preserve">
<style type="text/css">
	.st0{fill:none;stroke:#FFF6D2;stroke-width:3.5;stroke-linecap:round;stroke-miterlimit:10;}
	.st1{fill:none;stroke:#9EB6CB;stroke-width:3.5;stroke-linecap:round;stroke-miterlimit:10;}
	.st2{fill:none;stroke:#FAE164;stroke-width:3.5;stroke-linecap:round;stroke-miterlimit:10;}
	.st3{fill:none;stroke:#004BA5;stroke-width:3.5;stroke-linecap:round;stroke-miterlimit:10;}
	.st4{fill:none;stroke:#0AA8E0;stroke-width:3.5;stroke-linecap:round;stroke-miterlimit:10;}
</style>
<title>swirl-left-cb</title>
<g id="c5">
	<path id="Path_19239" class="st0" d="M219.4,974.8c20.8-26,51.1-48.9,95.1-59.5"/>
	<path id="Path_19244" class="st0" d="M162.7,1048.4c6.1-23,16.7-51,35.2-77.1c19.1-27.1,46.7-52,86.4-67"/>
	<path id="Path_19250" class="st0" d="M658.2,610c4.7-19.9,7.1-40.2,7.2-60.6"/>
	<path id="Path_19251" class="st0" d="M603.9,728.6c16.6-23,30.2-48,40.5-74.4"/>
	<path id="Path_19256" class="st0" d="M295.4,840.2c23.7-5.2,47.8-7.8,72.1-7.6"/>
	<path id="Path_19259" class="st0" d="M615.2,478.3c-7.7-24.8-18.5-48.6-32.1-70.8"/>
	<path id="Path_19271" class="st0" d="M49.8,132.1c-9.6-25-17-50.9-22.1-77.2C21.5,23,20.8,1.7,20.8,1.7"/>
	<path id="Path_19274" class="st0" d="M333.6,757.3c9.8-0.7,19.9-1,30.3-1c51.6,0,90.4-14,119.5-34.6c29.5-21,49.1-48.8,62.1-76.2"
		/>
	<path id="Path_19279" class="st0" d="M469.6,709.2c28.9-18.6,47.5-44.2,59.5-69.4c7.9-16.9,13.7-34.6,17.3-52.9"/>
	<path id="Path_19280" class="st0" d="M55.7,908.6c29.9-54.4,76.2-107.7,148.2-140.1"/>
	<path id="Path_19240" class="st0" d="M370.2,208.8c-16.9,0.1-33.7-1.4-50.2-4.5c-62.5-11.8-101.5-45.6-125.7-82.2
		C156.7,65.4,154.5,1.7,154.5,1.7"/>
</g>
<g id="c4">
	<path id="Path_19247" class="st1" d="M518,831.6c44.6-25.4,81.6-61.4,109.2-102.6"/>
	<path id="Path_19254" class="st1" d="M200.5,214.4c-47.1-36.7-72.8-86.7-86.7-129"/>
	<path id="Path_19255" class="st1" d="M544.5,766.5c40.5-36,68.6-82.2,84.9-127.6c11.3-31.6,16.9-62.7,16.9-89.6
		c0-38-11.2-84.5-34-128.8c-14.1-27.5-32.2-52.8-53.8-75"/>
	<path id="Path_19261" class="st1" d="M86.7,1039.8c7.2-31,20.4-70.4,44.5-107.6c16.5-25.6,38.2-50.1,66.6-70.2"/>
	<path id="Path_19263" class="st1" d="M236.6,280.4c-25.6-10.6-49.3-25.3-70.2-43.4"/>
	<path id="Path_19275" class="st1" d="M43.3,984.5C53.9,953,69.5,918.5,92.4,886"/>
	<path id="Path_19278" class="st1" d="M550.9,549.3c0,0,0-32.9-13.8-71.1c-10.5-29.2-29-61.5-61.5-84.7"/>
</g>
<g id="c3">
	<path id="Path_19236" class="st2" d="M722.7,549.3c-0.1-58.3-14.6-115.7-42.1-167.1"/>
	<path id="Path_19238" class="st2" d="M371.1,908.9c37.1,0,74-6.3,109-18.6"/>
	<path id="Path_19245" class="st2" d="M227.9,186c-37.8-28-60.2-65.7-73.5-99.7"/>
	<path id="Path_19253" class="st2" d="M127.3,1034.1c7.1-25.3,18.7-55.2,37.8-83.3c15.7-23.4,35.7-43.6,59-59.3"/>
	<path id="Path_19258" class="st2" d="M257.2,267.5c-51.3-18.4-87.9-49.4-114-83.8C120,153.3,105.1,120,95.5,90.4
		C79.5,41.1,78.1,1.7,78.1,1.7"/>
	<path id="Path_19260" class="st2" d="M366.6,813.5c35.5,0,66.8-6.3,94.3-17c28.3-11.1,54.2-27.6,76.3-48.5
		c34.2-32.1,57.7-72,72-110.2"/>
	<path id="Path_19270" class="st2" d="M39.9,1096.9c0,0,0.6-17.8,5.5-45c5-27.6,14.6-64.8,32.6-103.1c19.8-42,49.9-85.1,95.4-117.8
		c23.2-16.6,48.9-29.6,76-38.4"/>
	<path id="Path_19276" class="st2" d="M32.1,139C19.4,105.7,10.3,71,5.2,35.6C3.5,24.4,2.3,13.1,1.8,1.7"/>
	<path id="Path_19277" class="st2" d="M234.2,342c-69.5-23.2-118.3-64.8-152.4-111.1"/>
</g>
<g id="c2">
	<path id="Path_19237" class="st3" d="M543.6,860.7c45.1-27,83.9-63.3,113.9-106.4"/>
	<path id="Path_19242" class="st3" d="M690.6,639.7c5-17.3,8.6-35,10.8-52.8"/>
	<path id="Path_19249" class="st3" d="M591,353.4c-27.4-33.2-62.1-61.7-103.5-80.8c-35-16.2-74.9-25.6-119.2-25.6
		C124.6,247,116.3,1.7,116.3,1.7"/>
	<path id="Path_19252" class="st3" d="M368.4,851.7c31.3,0.1,62.5-4.9,92.2-14.9"/>
	<path id="Path_19257" class="st3" d="M97.2,1096.9c0,0,1.9-58,30.9-119.7"/>
	<path id="Path_19266" class="st3" d="M65.9,1046.1c3.8-18.5,8.8-36.7,15.1-54.4c10.8-30.5,27-63.7,51-94
		c21.3-27.1,47.7-49.6,77.8-66.4"/>
	<path id="Path_19268" class="st3" d="M574.9,477.5c-13.5-39.4-38.5-84.9-82.2-116.2"/>
	<path id="Path_19269" class="st3" d="M448.1,761.1c23.9-9,45.7-22.6,64.4-40c33.3-31.1,53-70.7,64-104.9"/>
	<path id="Path_19272" class="st3" d="M363.9,342.4c-57.2,0-104.8-10.1-144.5-26.8"/>
</g>
<g id="c1">
	<path id="Path_19235" class="st4" d="M371.1,189.7c-78.3,0-125.6-31.7-154.2-69.1"/>
	<path id="Path_19243" class="st4" d="M483.7,868.8c38.9-15.1,74.6-37.4,105.3-65.7c35.3-32.4,63.7-71.6,83.7-115.2"/>
	<path id="Path_19246" class="st4" d="M682.2,513.9c-6.6-52.6-27.5-105.8-60.3-151.9c-23-32.5-51.6-60.6-84.5-82.9
		c-49.6-33.6-108.2-51.5-168.2-51.3"/>
	<path id="Path_19248" class="st4" d="M135.4,1096.9c0,0,1.5-44.2,22.8-93.5c10.4-24.2,25.6-49.6,47.6-71.6
		c25.7-25.7,60.8-46.9,108.8-56.1"/>
	<path id="Path_19264" class="st4" d="M596.4,616.2c8.3-26.5,11.8-50.4,11.8-66.8c0-26.4-9-72.4-32.7-117.4"/>
	<path id="Path_19265" class="st4" d="M307,798.8c19.4-2.9,39-4.4,58.7-4.3"/>
	<path id="Path_19267" class="st4" d="M364.8,323.3C50.3,323.3,40,1.7,40,1.7"/>
	<path id="Path_19273" class="st4" d="M554.8,475.5c-10.7-29.6-28.6-62.6-58.4-88.3"/>
</g>
</svg>
