<svg xmlns="http://www.w3.org/2000/svg" viewBox="0 0 724.4 1098.68">
  <defs>
    <style>
      .cls-1, .cls-2, .cls-3, .cls-4, .cls-5 {
        fill: none;
        stroke-linecap: round;
        stroke-miterlimit: 10;
        stroke-width: 3.5px;
      }

      .cls-1 {
        stroke: #9db6cb;
      }

      .cls-2 {
        stroke: #fff6ca;
      }

      .cls-3 {
        stroke: #fae164;
      }

      .cls-4 {
        stroke: #333232;
      }

      .cls-5 {
        stroke: #0aa8e0;
      }
    </style>
  </defs>
  <title>swirl-left-yellow</title>
  <g id="c5">
    <path id="Path_19239" data-name="Path 19239" class="cls-1" d="M-771.42,847.77c20.84-26,51.12-48.89,95.09-59.54" transform="translate(990.81 127.05)"/>
    <path id="Path_19244" data-name="Path 19244" class="cls-1" d="M-828.15,921.32c6.11-23,16.73-51,35.15-77.06,19.14-27.08,46.7-52,86.36-67" transform="translate(990.81 127.05)"/>
    <path id="Path_19250" data-name="Path 19250" class="cls-1" d="M-332.65,482.9a270.19,270.19,0,0,0,7.23-60.62" transform="translate(990.81 127.05)"/>
    <path id="Path_19251" data-name="Path 19251" class="cls-1" d="M-386.93,601.58a337.1,337.1,0,0,0,40.52-74.39" transform="translate(990.81 127.05)"/>
    <path id="Path_19256" data-name="Path 19256" class="cls-1" d="M-695.42,713.19a325.36,325.36,0,0,1,72.08-7.62" transform="translate(990.81 127.05)"/>
    <path id="Path_19259" data-name="Path 19259" class="cls-1" d="M-375.63,351.24a315.07,315.07,0,0,0-32.06-70.76" transform="translate(990.81 127.05)"/>
    <path id="Path_19271" data-name="Path 19271" class="cls-1" d="M-941,5.1a457.91,457.91,0,0,1-22.09-77.18C-969.29-104-970-125.3-970-125.3" transform="translate(990.81 127.05)"/>
    <path id="Path_19274" data-name="Path 19274" class="cls-1" d="M-657.24,630.24q14.68-1,30.3-1c51.61,0,90.41-14,119.54-34.64,29.53-21,49.13-48.84,62.08-76.15" transform="translate(990.81 127.05)"/>
    <path id="Path_19279" data-name="Path 19279" class="cls-1" d="M-521.2,582.12c28.86-18.61,47.47-44.17,59.47-69.39a229.13,229.13,0,0,0,17.34-52.9" transform="translate(990.81 127.05)"/>
    <path id="Path_19280" data-name="Path 19280" class="cls-1" d="M-935.15,781.57c29.87-54.39,76.25-107.74,148.2-140.1" transform="translate(990.81 127.05)"/>
    <path id="Path_19240" data-name="Path 19240" class="cls-1" d="M-620.64,81.76a269.71,269.71,0,0,1-50.25-4.48C-733.42,65.43-772.35,31.69-796.58-4.93-834.1-61.65-836.35-125.3-836.35-125.3" transform="translate(990.81 127.05)"/>
  </g>
  <g id="c4">
    <path id="Path_19247" data-name="Path 19247" class="cls-2" d="M-472.84,704.57c44.58-25.4,81.55-61.4,109.25-102.61" transform="translate(990.81 127.05)"/>
    <path id="Path_19254" data-name="Path 19254" class="cls-2" d="M-790.3,87.35C-837.39,50.68-863.06.65-877-41.68" transform="translate(990.81 127.05)"/>
    <path id="Path_19255" data-name="Path 19255" class="cls-2" d="M-446.29,639.45c40.46-36,68.59-82.25,84.86-127.59,11.34-31.59,16.93-62.72,16.93-89.57,0-38-11.18-84.51-34-128.8a309.83,309.83,0,0,0-53.75-75" transform="translate(990.81 127.05)"/>
    <path id="Path_19261" data-name="Path 19261" class="cls-2" d="M-904.12,912.7c7.2-31,20.38-70.38,44.45-107.62,16.52-25.58,38.18-50.12,66.56-70.18" transform="translate(990.81 127.05)"/>
    <path id="Path_19263" data-name="Path 19263" class="cls-2" d="M-754.24,153.39A257.77,257.77,0,0,1-824.44,110" transform="translate(990.81 127.05)"/>
    <path id="Path_19275" data-name="Path 19275" class="cls-2" d="M-947.51,857.49c10.62-31.54,26.21-66.09,49.12-98.55" transform="translate(990.81 127.05)"/>
    <path id="Path_19278" data-name="Path 19278" class="cls-2" d="M-439.95,422.28s0-32.87-13.75-71.12c-10.49-29.16-29-61.45-61.54-84.67" transform="translate(990.81 127.05)"/>
  </g>
  <g id="c3">
    <path id="Path_19236" data-name="Path 19236" class="cls-3" d="M-268.16,422.29a356,356,0,0,0-42.08-167.1" transform="translate(990.81 127.05)"/>
    <path id="Path_19238" data-name="Path 19238" class="cls-3" d="M-619.73,781.88a330.63,330.63,0,0,0,109-18.57" transform="translate(990.81 127.05)"/>
    <path id="Path_19245" data-name="Path 19245" class="cls-3" d="M-762.9,59c-37.81-28-60.2-65.69-73.45-99.73" transform="translate(990.81 127.05)"/>
    <path id="Path_19253" data-name="Path 19253" class="cls-3" d="M-863.54,907c7.1-25.34,18.74-55.18,37.82-83.3a218.51,218.51,0,0,1,59-59.35" transform="translate(990.81 127.05)"/>
    <path id="Path_19258" data-name="Path 19258" class="cls-3" d="M-733.56,140.49c-51.28-18.4-87.9-49.36-114.05-83.78C-870.78,26.21-885.73-7-895.36-36.63c-16-49.35-17.35-88.67-17.35-88.67" transform="translate(990.81 127.05)"/>
    <path id="Path_19260" data-name="Path 19260" class="cls-3" d="M-624.24,686.49c35.46,0,66.79-6.27,94.29-17A236.9,236.9,0,0,0-453.69,621c34.17-32.11,57.65-72,72.05-110.2" transform="translate(990.81 127.05)"/>
    <path id="Path_19270" data-name="Path 19270" class="cls-3" d="M-950.88,969.87s.57-17.79,5.53-45c5-27.58,14.59-64.84,32.64-103.07,19.82-42,49.87-85.08,95.44-117.83a279.66,279.66,0,0,1,76-38.43" transform="translate(990.81 127.05)"/>
    <path id="Path_19276" data-name="Path 19276" class="cls-3" d="M-958.72,12A487.73,487.73,0,0,1-985.61-91.44a337.07,337.07,0,0,1-3.45-33.86" transform="translate(990.81 127.05)"/>
    <path id="Path_19277" data-name="Path 19277" class="cls-3" d="M-756.66,214.92c-69.51-23.23-118.26-64.79-152.44-111.07" transform="translate(990.81 127.05)"/>
  </g>
  <g id="c2">
    <path id="Path_19237" data-name="Path 19237" class="cls-4" d="M-447.22,733.66A369.73,369.73,0,0,0-333.36,627.25" transform="translate(990.81 127.05)"/>
    <path id="Path_19242" data-name="Path 19242" class="cls-4" d="M-300.24,512.63a333.67,333.67,0,0,0,10.75-52.83" transform="translate(990.81 127.05)"/>
    <path id="Path_19249" data-name="Path 19249" class="cls-4" d="M-399.78,226.34c-27.4-33.21-62.06-61.68-103.46-80.78-35-16.17-74.86-25.64-119.2-25.64-243.77,0-252.09-245.22-252.09-245.22" transform="translate(990.81 127.05)"/>
    <path id="Path_19252" data-name="Path 19252" class="cls-4" d="M-622.44,724.65a286,286,0,0,0,92.18-14.86" transform="translate(990.81 127.05)"/>
    <path id="Path_19257" data-name="Path 19257" class="cls-4" d="M-893.62,969.87s1.94-58,30.9-119.7" transform="translate(990.81 127.05)"/>
    <path id="Path_19266" data-name="Path 19266" class="cls-4" d="M-924.9,919a407,407,0,0,1,15.13-54.44c10.85-30.46,27-63.68,51-94A260,260,0,0,1-781,704.16" transform="translate(990.81 127.05)"/>
    <path id="Path_19268" data-name="Path 19268" class="cls-4" d="M-415.94,350.45c-13.5-39.38-38.45-84.89-82.2-116.21" transform="translate(990.81 127.05)"/>
    <path id="Path_19269" data-name="Path 19269" class="cls-4" d="M-542.71,634.1a193.74,193.74,0,0,0,64.36-40c33.31-31.13,53-70.69,64-104.86" transform="translate(990.81 127.05)"/>
    <path id="Path_19272" data-name="Path 19272" class="cls-4" d="M-626.94,215.31c-57.16,0-104.8-10.08-144.51-26.77" transform="translate(990.81 127.05)"/>
  </g>
  <g id="c1">
    <path id="Path_19235" data-name="Path 19235" class="cls-5" d="M-619.73,62.69c-78.33,0-125.64-31.72-154.19-69.1" transform="translate(990.81 127.05)"/>
    <path id="Path_19243" data-name="Path 19243" class="cls-5" d="M-507.11,741.73A333.58,333.58,0,0,0-401.77,676a359.51,359.51,0,0,0,83.66-115.23" transform="translate(990.81 127.05)"/>
    <path id="Path_19246" data-name="Path 19246" class="cls-5" d="M-308.58,386.88c-6.59-52.56-27.5-105.8-60.27-151.87a330.8,330.8,0,0,0-84.52-82.92,298,298,0,0,0-168.17-51.25" transform="translate(990.81 127.05)"/>
    <path id="Path_19248" data-name="Path 19248" class="cls-5" d="M-855.44,969.87s1.53-44.17,22.75-93.47c10.41-24.18,25.56-49.6,47.59-71.64,25.73-25.74,60.85-46.89,108.77-56.08" transform="translate(990.81 127.05)"/>
    <path id="Path_19264" data-name="Path 19264" class="cls-5" d="M-394.43,489.11c8.28-26.54,11.75-50.44,11.75-66.82,0-26.43-9-72.4-32.68-117.44" transform="translate(990.81 127.05)"/>
    <path id="Path_19265" data-name="Path 19265" class="cls-5" d="M-683.83,671.73a384.2,384.2,0,0,1,58.68-4.32" transform="translate(990.81 127.05)"/>
    <path id="Path_19267" data-name="Path 19267" class="cls-5" d="M-626,196.23c-314.53,0-324.84-321.53-324.84-321.53" transform="translate(990.81 127.05)"/>
    <path id="Path_19273" data-name="Path 19273" class="cls-5" d="M-436.06,348.41c-10.69-29.64-28.61-62.6-58.39-88.31" transform="translate(990.81 127.05)"/>
  </g>
</svg>
