<?xml version="1.0" encoding="utf-8"?>
<!-- Generator: Adobe Illustrator 23.0.3, SVG Export Plug-In . SVG Version: 6.00 Build 0)  -->
<svg version="1.1" id="Layer_1" xmlns="http://www.w3.org/2000/svg" xmlns:xlink="http://www.w3.org/1999/xlink" x="0px" y="0px"
	 viewBox="0 0 724.4 1098.7" style="enable-background:new 0 0 724.4 1098.7;" xml:space="preserve">
<style type="text/css">
	.st0{fill:none;stroke:#FFF6D2;stroke-width:3.5;stroke-linecap:round;stroke-miterlimit:10;}
	.st1{fill:none;stroke:#9EB6CB;stroke-width:3.5;stroke-linecap:round;stroke-miterlimit:10;}
	.st2{fill:none;stroke:#FAE164;stroke-width:3.5;stroke-linecap:round;stroke-miterlimit:10;}
	.st3{fill:none;stroke:#004BA5;stroke-width:3.5;stroke-linecap:round;stroke-miterlimit:10;}
	.st4{fill:none;stroke:#0AA8E0;stroke-width:3.5;stroke-linecap:round;stroke-miterlimit:10;}
</style>
<title>swirl-right-cb</title>
<g id="c5">
	<path id="Path_19239" class="st0" d="M409.9,915.3c44,10.7,74.2,33.5,95.1,59.5"/>
	<path id="Path_19244" class="st0" d="M440.2,904.3c39.7,15,67.2,39.9,86.4,67c18.4,26.1,29,54.1,35.2,77.1"/>
	<path id="Path_19250" class="st0" d="M59,549.3c0.1,20.4,2.5,40.8,7.2,60.6"/>
	<path id="Path_19251" class="st0" d="M80,654.2c10.3,26.4,23.9,51.4,40.5,74.4"/>
	<path id="Path_19256" class="st0" d="M356.9,832.6c24.2-0.2,48.4,2.4,72.1,7.6"/>
	<path id="Path_19259" class="st0" d="M141.3,407.5c-13.6,22.2-24.3,45.9-32.1,70.8"/>
	<path id="Path_19271" class="st0" d="M703.6,1.7c0,0-0.7,21.3-6.9,53.2c-5.1,26.3-12.5,52.2-22.1,77.2"/>
	<path id="Path_19274" class="st0" d="M178.9,645.5c13,27.3,32.5,55.2,62.1,76.2c29.1,20.7,67.9,34.6,119.5,34.6
		c10.4,0,20.5,0.3,30.3,1"/>
	<path id="Path_19279" class="st0" d="M178,586.9c3.6,18.3,9.4,36,17.3,52.9c12,25.2,30.6,50.8,59.5,69.4"/>
	<path id="Path_19280" class="st0" d="M520.5,768.5c72,32.4,118.3,85.7,148.2,140.1"/>
	<path id="Path_19240" class="st0" d="M570,1.7c0,0-2.2,63.7-39.8,120.4c-24.2,36.6-63.2,70.4-125.7,82.2
		c-16.6,3.1-33.4,4.6-50.3,4.5"/>
</g>
<g id="c4">
	<path id="Path_19247" class="st1" d="M97.2,729c27.7,41.2,64.7,77.2,109.2,102.6"/>
	<path id="Path_19254" class="st1" d="M610.6,85.4c-14,42.3-39.6,92.4-86.7,129"/>
	<path id="Path_19255" class="st1" d="M165.8,345.6c-21.6,22.2-39.7,47.5-53.8,75c-22.8,44.3-34,90.8-34,128.8
		c0,26.9,5.6,58,16.9,89.6c16.3,45.3,44.4,91.6,84.9,127.6"/>
	<path id="Path_19261" class="st1" d="M526.7,862c28.4,20.1,50,44.6,66.6,70.2c24.1,37.2,37.2,76.7,44.4,107.6"/>
	<path id="Path_19263" class="st1" d="M558,237c-20.9,18.1-44.6,32.8-70.2,43.4"/>
	<path id="Path_19275" class="st1" d="M632,886c22.9,32.5,38.5,67,49.1,98.5"/>
	<path id="Path_19278" class="st1" d="M248.8,393.5c-32.6,23.2-51,55.5-61.5,84.7c-13.8,38.2-13.8,71.1-13.8,71.1"/>
</g>
<g id="c3">
	<path id="Path_19236" class="st2" d="M43.8,382.2C16.3,433.7,1.9,491,1.7,549.3"/>
	<path id="Path_19238" class="st2" d="M244.3,890.4c35,12.3,71.9,18.5,109,18.6"/>
	<path id="Path_19245" class="st2" d="M570,86.3c-13.2,34-35.7,71.8-73.5,99.8"/>
	<path id="Path_19253" class="st2" d="M500.3,891.4c23.3,15.8,43.3,36,59,59.3c19.1,28.1,30.7,58,37.8,83.3"/>
	<path id="Path_19258" class="st2" d="M646.3,1.7c0,0-1.3,39.3-17.3,88.7c-9.6,29.6-24.6,62.8-47.7,93.3
		c-26.2,34.4-62.8,65.4-114.1,83.8"/>
	<path id="Path_19260" class="st2" d="M115.2,637.9c14.4,38.2,37.9,78.1,72,110.2c22.1,20.9,48,37.4,76.3,48.5
		c27.5,10.8,58.8,17,94.3,17"/>
	<path id="Path_19270" class="st2" d="M474.8,792.6c27.1,8.9,52.8,21.8,76,38.4c45.6,32.8,75.6,75.9,95.4,117.8
		c18,38.2,27.6,75.5,32.6,103.1c5,27.2,5.5,45,5.5,45"/>
	<path id="Path_19276" class="st2" d="M722.7,1.7c-0.6,11.3-1.7,22.6-3.4,33.9c-5.2,35.4-14.2,70-26.9,103.4"/>
	<path id="Path_19277" class="st2" d="M642.7,230.9c-34.2,46.3-82.9,87.8-152.4,111.1"/>
</g>
<g id="c2">
	<path id="Path_19237" class="st3" d="M67,754.3c30,43.2,68.8,79.4,113.8,106.4"/>
	<path id="Path_19242" class="st3" d="M23.1,586.8c2.1,17.9,5.7,35.5,10.7,52.8"/>
	<path id="Path_19249" class="st3" d="M608.1,1.7c0,0-8.3,245.2-252.1,245.2c-44.3,0-84.2,9.5-119.2,25.6
		c-41.4,19.1-76.1,47.6-103.5,80.8"/>
	<path id="Path_19252" class="st3" d="M263.9,836.8c29.7,10,60.8,15,92.2,14.9"/>
	<path id="Path_19257" class="st3" d="M596.3,977.2c29,61.7,30.9,119.7,30.9,119.7"/>
	<path id="Path_19266" class="st3" d="M514.6,831.2c30,16.8,56.5,39.4,77.7,66.4c24,30.3,40.2,63.5,51,94
		c6.3,17.8,11.4,35.9,15.2,54.4"/>
	<path id="Path_19268" class="st3" d="M231.7,361.3c-43.8,31.3-68.7,76.8-82.2,116.2"/>
	<path id="Path_19269" class="st3" d="M147.9,616.3c11,34.2,30.7,73.7,64,104.9c18.6,17.4,40.5,31,64.3,40"/>
	<path id="Path_19272" class="st3" d="M505,315.6c-39.7,16.7-87.4,26.8-144.5,26.8"/>
</g>
<g id="c1">
	<path id="Path_19235" class="st4" d="M507.5,120.6c-28.6,37.4-75.9,69.1-154.2,69.1"/>
	<path id="Path_19243" class="st4" d="M51.7,687.8c19.9,43.6,48.4,82.8,83.7,115.2c30.7,28.3,66.4,50.6,105.3,65.7"/>
	<path id="Path_19246" class="st4" d="M355.1,227.9c-59.9-0.2-118.5,17.6-168.2,51.2c-32.9,22.3-61.6,50.4-84.5,82.9
		c-32.8,46.1-53.7,99.3-60.3,151.9"/>
	<path id="Path_19248" class="st4" d="M409.9,875.7c47.9,9.2,83,30.3,108.8,56.1c22,22,37.2,47.5,47.6,71.6
		c21.2,49.3,22.8,93.5,22.8,93.5"/>
	<path id="Path_19264" class="st4" d="M149,431.9c-23.7,45-32.7,91-32.7,117.4c0,16.4,3.5,40.3,11.7,66.8"/>
	<path id="Path_19265" class="st4" d="M358.7,794.5c19.6-0.1,39.3,1.4,58.7,4.3"/>
	<path id="Path_19267" class="st4" d="M684.5,1.7c0,0-10.3,321.5-324.8,321.5"/>
	<path id="Path_19273" class="st4" d="M228,387.1c-29.8,25.7-47.7,58.7-58.4,88.3"/>
</g>
</svg>
