<?xml version="1.0" encoding="utf-8"?>
<!-- Generator: Adobe Illustrator 25.0.0, SVG Export Plug-In . SVG Version: 6.00 Build 0)  -->
<svg version="1.0" id="Layer_1" xmlns="http://www.w3.org/2000/svg" xmlns:xlink="http://www.w3.org/1999/xlink" x="0px" y="0px"
	 viewBox="0 0 1095.8 1177.8" style="enable-background:new 0 0 1095.8 1177.8;" xml:space="preserve">
<style type="text/css">
	.st0{fill:#004BA5;}
	.st1{fill:#FFFFFF;}
	.st2{fill:#FEF6D1;}
	.st3{fill:#F9E547;}
	.st4{fill:none;}
</style>
<g id="Group_12687" transform="translate(10374 -2791)">
	<g id="Group_12657" transform="translate(-948 -802)">
		<path id="Path_22332" class="st0" d="M-8810.7,4488.6c1,0,1.8,0.8,1.8,1.8c0,0.5-0.2,0.9-0.5,1.2l-83.6,83.6
			c-0.7,0.7-1.8,0.6-2.5-0.1c-0.6-0.7-0.6-1.7,0-2.4l83.6-83.6C-8811.6,4488.8-8811.1,4488.6-8810.7,4488.6z"/>
		<path id="Path_22333" class="st1" d="M-8936.1,4615.8"/>
		<path id="Path_22334" class="st1" d="M-9025.9,4703.9c1,0,1.8,0.8,1.8,1.8c0,0.5-0.2,0.9-0.5,1.2l-35.6,35.6
			c-0.7,0.7-1.8,0.6-2.5-0.1c-0.6-0.7-0.6-1.7,0-2.4l35.6-35.6C-9026.8,4704.1-9026.4,4703.9-9025.9,4703.9z"/>
		<path id="Path_22335" class="st1" d="M-8810.7,4460.8c1,0,1.8,0.8,1.8,1.8c0,0.5-0.2,0.9-0.5,1.3l-69.7,69.7
			c-0.7,0.7-1.8,0.6-2.5-0.1c-0.6-0.7-0.6-1.7,0-2.4l69.7-69.7C-8811.6,4461-8811.1,4460.8-8810.7,4460.8z"/>
		<path id="Path_22336" class="st1" d="M-8894.3,4544.4c1,0,1.8,0.8,1.8,1.8c0,0.5-0.2,0.9-0.5,1.2l-42,42c-0.7,0.7-1.8,0.8-2.5,0.1
			c-0.7-0.7-0.8-1.8-0.1-2.5c0,0,0.1-0.1,0.1-0.1l42-42C-8895.2,4544.6-8894.7,4544.4-8894.3,4544.4z"/>
		<path id="Path_22337" class="st1" d="M-9058,4708.1c1,0,1.8,0.8,1.8,1.8c0,0.5-0.2,0.9-0.5,1.2l-47.6,47.6
			c-0.7,0.7-1.8,0.8-2.5,0.1c-0.7-0.7-0.8-1.8-0.1-2.5c0,0,0.1-0.1,0.1-0.1l47.6-47.6C-9058.9,4708.3-9058.4,4708.1-9058,4708.1z"/>
		<path id="Path_22338" class="st1" d="M-8838.5,4460.8c1,0,1.8,0.8,1.8,1.8c0,0.5-0.2,0.9-0.5,1.3l-69.7,69.7
			c-0.7,0.7-1.8,0.6-2.5-0.1c-0.6-0.7-0.6-1.7,0-2.4l69.7-69.7C-8839.5,4461-8839,4460.8-8838.5,4460.8z"/>
		<path id="Path_22339" class="st1" d="M-8922.1,4544.4c1,0,1.8,0.8,1.8,1.8c0,0.5-0.2,0.9-0.5,1.3l-83.6,83.6
			c-0.7,0.7-1.8,0.6-2.5-0.1c-0.6-0.7-0.6-1.7,0-2.4l83.6-83.6C-8923.1,4544.6-8922.6,4544.4-8922.1,4544.4z"/>
		<path id="Path_22340" class="st1" d="M-9019.7,4641.9c1,0,1.8,0.8,1.8,1.8c0,0.5-0.2,0.9-0.5,1.2l-27.9,27.9
			c-0.7,0.7-1.8,0.6-2.5-0.1c-0.6-0.7-0.6-1.7,0-2.4l27.9-27.9C-9020.6,4642.1-9020.1,4641.9-9019.7,4641.9z"/>
		<path id="Path_22341" class="st0" d="M-9061.5,4683.7c1,0,1.8,0.8,1.8,1.8c0,0.5-0.2,0.9-0.5,1.3l-66.2,66.2
			c-0.7,0.7-1.8,0.8-2.5,0.1c-0.7-0.7-0.8-1.8-0.1-2.5c0,0,0.1-0.1,0.1-0.1l66.2-66.2C-9062.4,4683.9-9061.9,4683.7-9061.5,4683.7z"
			/>
		<path id="Path_22342" class="st2" d="M-8866.4,4460.8c1,0,1.8,0.8,1.8,1.8c0,0.5-0.2,0.9-0.5,1.2l-55.7,55.7
			c-0.7,0.7-1.8,0.6-2.5-0.1c-0.6-0.7-0.6-1.7,0-2.4l55.7-55.7C-8867.3,4461-8866.9,4460.8-8866.4,4460.8z"/>
		<path id="Path_22343" class="st1" d="M-9033.6,4628c1,0,1.8,0.8,1.8,1.8c0,0.5-0.2,0.9-0.5,1.3l-55.7,55.7
			c-0.7,0.7-1.8,0.6-2.5-0.1c-0.6-0.7-0.6-1.7,0-2.4l55.7-55.7C-9034.5,4628.2-9034.1,4628-9033.6,4628z"/>
		<path id="Path_22344" class="st1" d="M-9103.3,4697.6c1,0,1.8,0.8,1.8,1.8c0,0.5-0.2,0.9-0.5,1.3l-69.7,69.7
			c-0.7,0.7-1.8,0.8-2.5,0.1c-0.7-0.7-0.8-1.8-0.1-2.5c0,0,0.1-0.1,0.1-0.1l69.7-69.7C-9104.2,4697.8-9103.7,4697.6-9103.3,4697.6z"
			/>
		<path id="Path_22345" class="st0" d="M-8894.3,4460.8c1,0,1.8,0.8,1.8,1.8c0,0.5-0.2,0.9-0.5,1.2l-125.4,125.4
			c-0.7,0.7-1.8,0.8-2.5,0.1c-0.7-0.7-0.8-1.8-0.1-2.5c0,0,0.1-0.1,0.1-0.1l125.4-125.4C-8895.2,4461-8894.7,4460.8-8894.3,4460.8z"
			/>
		<path id="Path_22346" class="st1" d="M-9049,4615.5c1,0,1.8,0.8,1.8,1.8c0,0.5-0.2,0.9-0.5,1.2l-55.7,55.7
			c-0.7,0.7-1.8,0.6-2.5-0.1c-0.6-0.7-0.6-1.7,0-2.4l11.9-11.9l0,0l43.8-43.8C-9049.9,4615.7-9049.5,4615.5-9049,4615.5z"/>
		<path id="Path_22347" class="st2" d="M-9145.1,4711.6c1,0,1.8,0.8,1.8,1.8c0,0.5-0.2,0.9-0.5,1.3l-13.9,13.9
			c-0.7,0.7-1.8,0.6-2.5-0.1c-0.6-0.7-0.6-1.7,0-2.4l13.9-13.9C-9146,4711.8-9145.5,4711.6-9145.1,4711.6z"/>
		<path id="Path_22348" class="st1" d="M-8922.1,4460.8c1,0,1.8,0.8,1.8,1.8c0,0.5-0.2,0.9-0.5,1.3l-157.3,157.3
			c-0.7,0.7-1.8,0.6-2.5-0.1c-0.6-0.7-0.6-1.7,0-2.4l157.3-157.3C-8923.1,4461-8922.6,4460.8-8922.1,4460.8z"/>
		<path id="Path_22349" class="st3" d="M-8963.9,4502.6c1,0,1.8,0.8,1.8,1.8c0,0.5-0.2,0.9-0.5,1.3l-115.5,115.5
			c-0.7,0.7-1.8,0.6-2.5-0.1c-0.6-0.7-0.6-1.7,0-2.4l115.5-115.5C-8964.9,4502.8-8964.4,4502.6-8963.9,4502.6z"/>
		<path id="Path_22350" class="st1" d="M-9089.3,4628c1,0,1.8,0.8,1.8,1.8c0,0.5-0.2,0.9-0.5,1.3l-18.3,18.3l0,0l-23.5,23.5
			c-0.7,0.7-1.8,0.6-2.5-0.1c-0.6-0.7-0.6-1.7,0-2.4l23.5-23.5l0,0l18.3-18.3C-9090.2,4628.2-9089.8,4628-9089.3,4628z"/>
		<path id="Path_22351" class="st1" d="M-9145.1,4683.7c1,0,1.8,0.8,1.8,1.8c0,0.5-0.2,0.9-0.5,1.3l-62.7,62.7
			c-0.7,0.7-1.8,0.8-2.5,0.1c-0.7-0.7-0.8-1.8-0.1-2.5c0,0,0.1-0.1,0.1-0.1l62.7-62.7C-9146,4683.9-9145.5,4683.7-9145.1,4683.7z"/>
		<path id="Path_22352" class="st1" d="M-8950,4460.8c1,0,1.8,0.8,1.8,1.8c0,0.5-0.2,0.9-0.5,1.3l-27.9,27.9
			c-0.7,0.7-1.8,0.8-2.5,0.1c-0.7-0.7-0.8-1.8-0.1-2.5c0,0,0.1-0.1,0.1-0.1l27.9-27.9C-8950.9,4461-8950.5,4460.8-8950,4460.8z"/>
		<path id="Path_22353" class="st2" d="M-8990.1,4500.9c1,0,1.8,0.8,1.8,1.8c0,0.5-0.2,0.9-0.5,1.2l-7.8,7.8
			c-0.7,0.7-1.8,0.6-2.5-0.1c-0.6-0.7-0.6-1.7,0-2.4l7.8-7.8C-8991,4501.1-8990.6,4500.9-8990.1,4500.9z"/>
		<path id="Path_22354" class="st1" d="M-9104.1,4614.9c1,0,1.8,0.8,1.8,1.8c0,0.5-0.2,0.9-0.5,1.2l-46.1,46.1l0,0l-22.6,22.6
			c-0.7,0.7-1.8,0.8-2.5,0.1c-0.7-0.7-0.8-1.8-0.1-2.5c0,0,0.1-0.1,0.1-0.1l68.8-68.8C-9105,4615.1-9104.6,4614.9-9104.1,4614.9z"/>
		<path id="Path_22355" class="st1" d="M-8977.9,4460.8c1,0,1.8,0.8,1.8,1.8c0,0.5-0.2,0.9-0.5,1.2l-55.7,55.7
			c-0.7,0.7-1.8,0.6-2.5-0.1c-0.6-0.7-0.6-1.7,0-2.4l55.7-55.7C-8978.8,4461-8978.3,4460.8-8977.9,4460.8z"/>
		<path id="Path_22356" class="st1" d="M-9047.5,4530.4c1,0,1.8,0.8,1.8,1.8c0,0.5-0.2,0.9-0.5,1.3l-69.7,69.7
			c-0.7,0.7-1.8,0.8-2.5,0.1c-0.7-0.7-0.8-1.8-0.1-2.5c0,0,0.1-0.1,0.1-0.1l69.7-69.7C-9048.4,4530.6-9048,4530.4-9047.5,4530.4z"/>
		<path id="Path_22357" class="st1" d="M-9131.1,4614c1,0,1.8,0.8,1.8,1.8c0,0.5-0.2,0.9-0.5,1.2l-19.9,19.9l0,0l-7.9,7.9
			c-0.7,0.7-1.8,0.6-2.5-0.1c-0.6-0.7-0.6-1.7,0-2.4l27.9-27.9C-9132,4614.2-9131.6,4614-9131.1,4614z"/>
		<path id="Path_22358" class="st1" d="M-9019.7,4476.5"/>
		<path id="Path_22359" class="st1" d="M-9033.6,4488.6c1,0,1.8,0.8,1.8,1.8c0,0.5-0.2,0.9-0.5,1.3l-83.6,83.6
			c-0.7,0.7-1.8,0.6-2.5-0.1c-0.6-0.7-0.6-1.7,0-2.4l83.6-83.6C-9034.5,4488.8-9034.1,4488.6-9033.6,4488.6z"/>
		<path id="Path_22360" class="st3" d="M-9131.1,4586.2c1,0,1.8,0.8,1.8,1.8c0,0.5-0.2,0.9-0.5,1.2l-50.5,50.5
			c-0.7,0.7-1.8,0.6-2.5-0.1c-0.6-0.7-0.6-1.7,0-2.4l10.5-10.4l0,0l40-40C-9132,4586.4-9131.6,4586.2-9131.1,4586.2z"/>
		<path id="Path_22361" class="st1" d="M-9033.6,4460.8c1,0,1.8,0.8,1.8,1.8c0,0.5-0.2,0.9-0.5,1.3l-62.7,62.7
			c-0.7,0.7-1.8,0.6-2.5-0.1c-0.6-0.7-0.6-1.7,0-2.4l62.7-62.7C-9034.5,4461-9034.1,4460.8-9033.6,4460.8z"/>
		<path id="Path_22362" class="st1" d="M-9159,4586.2c1,0,1.8,0.8,1.8,1.8c0,0.5-0.2,0.9-0.5,1.3l-45.3,45.3
			c-0.7,0.7-1.8,0.8-2.5,0.1c-0.7-0.7-0.8-1.8-0.1-2.5c0,0,0.1-0.1,0.1-0.1l45.3-45.3C-9159.9,4586.4-9159.5,4586.2-9159,4586.2z"/>
		<path id="Path_22363" class="st1" d="M-9061.5,4460.8c1,0,1.8,0.8,1.8,1.8c0,0.5-0.2,0.9-0.5,1.3l-69.7,69.7
			c-0.7,0.7-1.8,0.8-2.5,0.1c-0.7-0.7-0.8-1.8-0.1-2.5c0,0,0.1-0.1,0.1-0.1l69.7-69.7C-9062.4,4461-9061.9,4460.8-9061.5,4460.8z"/>
		<path id="Path_22364" class="st1" d="M-9145.1,4544.4c1,0,1.8,0.8,1.8,1.8c0,0.5-0.2,0.9-0.5,1.3l-62.7,62.7
			c-0.7,0.7-1.8,0.8-2.5,0.1c-0.7-0.7-0.8-1.8-0.1-2.5c0,0,0.1-0.1,0.1-0.1l62.7-62.7C-9146,4544.6-9145.5,4544.4-9145.1,4544.4z"/>
		<path id="Path_22365" class="st3" d="M-9089.3,4460.8c1,0,1.8,0.8,1.8,1.8c0,0.5-0.2,0.9-0.5,1.3l-27.9,27.9
			c-0.7,0.7-1.8,0.8-2.5,0.1c-0.7-0.7-0.8-1.8-0.1-2.5c0,0,0.1-0.1,0.1-0.1l27.9-27.9C-9090.2,4461-9089.8,4460.8-9089.3,4460.8z"/>
		<path id="Path_22366" class="st0" d="M-9131.1,4502.6c1,0,1.8,0.8,1.8,1.8c0,0.5-0.2,0.9-0.5,1.3l-130.6,130.6
			c-0.7,0.7-1.8,0.6-2.5-0.1c-0.6-0.7-0.6-1.7,0-2.4l130.6-130.6C-9132,4502.8-9131.6,4502.6-9131.1,4502.6z"/>
		<path id="Path_22367" class="st1" d="M-9131.1,4502.6c1,0,1.8,0.8,1.8,1.8c0,0.5-0.2,0.9-0.5,1.3l-27.9,27.9
			c-0.7,0.7-1.8,0.6-2.5-0.1c-0.6-0.7-0.6-1.7,0-2.4l27.9-27.9C-9132,4502.8-9131.6,4502.6-9131.1,4502.6z"/>
		<path id="Path_22368" class="st1" d="M-9117.2,4460.8c1,0,1.8,0.8,1.8,1.8c0,0.5-0.2,0.9-0.5,1.2l-90.6,90.6
			c-0.7,0.7-1.8,0.6-2.5-0.1c-0.6-0.7-0.6-1.7,0-2.4l90.6-90.6C-9118.1,4461-9117.7,4460.8-9117.2,4460.8z"/>
		<path id="Path_22369" class="st1" d="M-9145.1,4460.8c1,0,1.8,0.8,1.8,1.8c0,0.5-0.2,0.9-0.5,1.3l-62.7,62.7
			c-0.7,0.7-1.8,0.6-2.5-0.1c-0.6-0.7-0.6-1.7,0-2.4l62.7-62.7C-9146,4461-9145.5,4460.8-9145.1,4460.8z"/>
		<path id="Path_22370" class="st1" d="M-9172.9,4460.8c1,0,1.8,0.8,1.8,1.8c0,0.5-0.2,0.9-0.5,1.2l-34.8,34.8
			c-0.7,0.7-1.8,0.6-2.5-0.1c-0.6-0.7-0.6-1.7,0-2.4l34.8-34.8C-9173.8,4461-9173.4,4460.8-9172.9,4460.8z"/>
		<path id="Path_22371" class="st1" d="M-9008.4,4519.2c1,0,1.8,0.8,1.8,1.8c0,0.5-0.2,0.9-0.5,1.3l-85.7,85.7
			c-0.7,0.7-1.8,0.8-2.5,0.1c-0.7-0.7-0.8-1.8-0.1-2.5c0,0,0.1-0.1,0.1-0.1l85.7-85.7C-9009.3,4519.4-9008.9,4519.2-9008.4,4519.2z"
			/>
		<path id="Path_22372" class="st3" d="M-8907.6,4585.6c1,0,1.8,0.8,1.8,1.8c0,0.5-0.2,0.9-0.5,1.2l-41.8,41.8
			c-0.7,0.7-1.8,0.8-2.5,0.1c-0.7-0.7-0.8-1.8-0.1-2.5c0,0,0.1-0.1,0.1-0.1l41.8-41.8C-8908.5,4585.8-8908.1,4585.6-8907.6,4585.6z"
			/>
		<path id="Path_22373" class="st1" d="M-9107.7,4534.9c1,0,1.8,0.8,1.8,1.8c0,0.5-0.2,0.9-0.5,1.3l-12.5,12.5
			c-0.7,0.7-1.8,0.6-2.5-0.1c-0.6-0.7-0.6-1.7,0-2.4l12.5-12.5C-9108.6,4535.1-9108.2,4534.9-9107.7,4534.9z"/>
		<path id="Path_22374" class="st0" d="M-9172.4,4655.3c1,0,1.8,0.8,1.8,1.8c0,0.5-0.2,0.9-0.5,1.3l-44.1,44.1
			c-0.7,0.7-1.8,0.6-2.5-0.1c-0.6-0.7-0.6-1.7,0-2.4l44.1-44.1C-9173.3,4655.5-9172.9,4655.3-9172.4,4655.3z"/>
		<path id="Path_22375" class="st1" d="M-8948.1,4598.2c1,0,1.8,0.8,1.8,1.8c0,0.5-0.2,0.9-0.5,1.3l-44.4,44.4
			c-0.7,0.7-1.8,0.6-2.5-0.1c-0.6-0.7-0.6-1.7,0-2.4l44.4-44.4C-8949,4598.4-8948.6,4598.2-8948.1,4598.2z"/>
		<path id="Path_22376" class="st1" d="M-9197.3,4626.3"/>
		<path id="Path_22377" class="st1" d="M-9193.8,4621c1,0,1.8,0.8,1.8,1.8c0,0.5-0.2,0.9-0.5,1.3l-7,7c-0.7,0.7-1.8,0.8-2.5,0.1
			c-0.7-0.7-0.8-1.8-0.1-2.5c0,0,0.1-0.1,0.1-0.1l7-7C-9194.7,4621.2-9194.3,4621-9193.8,4621z"/>
		<path id="Path_22378" class="st1" d="M-9235.6,4662.8c1,0,1.8,0.8,1.8,1.8c0,0.5-0.2,0.9-0.5,1.2l-54,54c-0.7,0.7-1.8,0.6-2.5-0.1
			c-0.6-0.7-0.6-1.7,0-2.4l54-54C-9236.5,4663-9236.1,4662.8-9235.6,4662.8z"/>
		<path id="Path_22379" class="st2" d="M-9200.8,4600.1c1,0,1.8,0.8,1.8,1.8c0,0.5-0.2,0.9-0.5,1.3l-41.8,41.8
			c-0.7,0.7-1.8,0.6-2.5-0.1c-0.6-0.7-0.6-1.7,0-2.4l41.8-41.8C-9201.7,4600.3-9201.3,4600.1-9200.8,4600.1z"/>
		<path id="Path_22380" class="st2" d="M-9256.5,4655.8c1,0,1.8,0.8,1.8,1.8c0,0.5-0.2,0.9-0.5,1.3l-73.1,73.1
			c-0.7,0.7-1.8,0.6-2.5-0.1c-0.6-0.7-0.6-1.7,0-2.4l73.1-73.1C-9257.4,4656-9257,4655.8-9256.5,4655.8z"/>
		<path id="Path_22381" class="st1" d="M-9197.3,4570.5"/>
		<path id="Path_22382" class="st1" d="M-9313.4,4686.6"/>
		<path id="Path_22383" class="st1" d="M-9326.2,4697.6c1,0,1.8,0.8,1.8,1.8c0,0.5-0.2,0.9-0.5,1.3l-55.7,55.7
			c-0.7,0.7-1.8,0.6-2.5-0.1c-0.6-0.7-0.6-1.7,0-2.4l55.7-55.7C-9327.1,4697.8-9326.7,4697.6-9326.2,4697.6z"/>
		<path id="Path_22384" class="st1" d="M-9197.3,4540.9c1,0,1.8,0.8,1.8,1.8c0,0.5-0.2,0.9-0.5,1.3l-45.3,45.3
			c-0.7,0.7-1.8,0.6-2.5-0.1c-0.6-0.7-0.6-1.7,0-2.4l45.3-45.3C-9198.2,4541.1-9197.8,4540.9-9197.3,4540.9z"/>
		<path id="Path_22385" class="st0" d="M-9319.7,4663.3c1,0,1.8,0.8,1.8,1.8c0,0.5-0.2,0.9-0.5,1.3l-44.8,44.8
			c-0.7,0.7-1.8,0.6-2.5-0.1c-0.6-0.7-0.6-1.7,0-2.4l44.8-44.8C-9320.6,4663.5-9320.2,4663.3-9319.7,4663.3z"/>
		<path id="Path_22386" class="st1" d="M-9340.1,4685.5"/>
		<path id="Path_22387" class="st3" d="M-9230.4,4546.1c1,0,1.8,0.8,1.8,1.8c0,0.5-0.2,0.9-0.5,1.2l-54,54c-0.7,0.7-1.8,0.6-2.5-0.1
			c-0.6-0.7-0.6-1.7,0-2.4l54-54C-9231.3,4546.3-9230.9,4546.1-9230.4,4546.1z"/>
		<path id="Path_22388" class="st1" d="M-9345.2,4660.9c1,0,1.8,0.8,1.8,1.8c0,0.5-0.2,0.9-0.5,1.2l-41.8,41.8
			c-0.7,0.7-1.8,0.8-2.5,0.1c-0.7-0.7-0.8-1.8-0.1-2.5c0,0,0.1-0.1,0.1-0.1l22.5-22.5l0,0l19.3-19.3
			C-9346.1,4661.1-9345.7,4660.9-9345.2,4660.9z"/>
		<path id="Path_22389" class="st1" d="M-9340.1,4657.6"/>
		<path id="Path_22390" class="st1" d="M-9359.3,4676.8"/>
		<path id="Path_22391" class="st1" d="M-9197.3,4485.2c1,0,1.8,0.8,1.8,1.8c0,0.5-0.2,0.9-0.5,1.3l-31.3,31.3
			c-0.7,0.7-1.8,0.6-2.5-0.1c-0.6-0.7-0.6-1.7,0-2.4l31.3-31.3C-9198.2,4485.4-9197.8,4485.2-9197.3,4485.2z"/>
		<path id="Path_22392" class="st1" d="M-9270.5,4560.1"/>
		<path id="Path_22393" class="st1" d="M-9326.2,4614c1,0,1.8,0.8,1.8,1.8c0,0.5-0.2,0.9-0.5,1.2l-41.8,41.8
			c-0.7,0.7-1.8,0.6-2.5-0.1c-0.6-0.7-0.6-1.7,0-2.4l41.8-41.8C-9327.1,4614.2-9326.7,4614-9326.2,4614z"/>
		<path id="Path_22394" class="st1" d="M-9242.6,4502.6c1,0,1.8,0.8,1.8,1.8c0,0.5-0.2,0.9-0.5,1.3l-43.5,43.5
			c-0.7,0.7-1.8,0.6-2.5-0.1c-0.6-0.7-0.6-1.7,0-2.4l43.5-43.5C-9243.5,4502.8-9243.1,4502.6-9242.6,4502.6z"/>
		<path id="Path_22395" class="st0" d="M-9326.2,4586.2c1,0,1.8,0.8,1.8,1.8c0,0.5-0.2,0.9-0.5,1.3l-45.3,45.3
			c-0.7,0.7-1.8,0.8-2.5,0.1c-0.7-0.7-0.8-1.8-0.1-2.5c0,0,0.1-0.1,0.1-0.1l45.3-45.3C-9327.1,4586.4-9326.7,4586.2-9326.2,4586.2z"
			/>
		<path id="Path_22396" class="st1" d="M-9228.7,4460.8c1,0,1.8,0.8,1.8,1.8c0,0.5-0.2,0.9-0.5,1.2l-37.2,37.2
			c-0.7,0.7-1.8,0.6-2.5-0.1c-0.6-0.7-0.6-1.7,0-2.4l37.2-37.2C-9229.6,4461-9229.1,4460.8-9228.7,4460.8z"/>
		<path id="Path_22397" class="st3" d="M-9335.3,4567.4c1,0,1.8,0.8,1.8,1.8c0,0.5-0.2,0.9-0.5,1.2l-46.6,46.6
			c-0.7,0.7-1.8,0.6-2.5-0.1c-0.6-0.7-0.6-1.7,0-2.4l46.6-46.6C-9336.2,4567.6-9335.8,4567.4-9335.3,4567.4z"/>
		<path id="Path_22398" class="st1" d="M-9391.3,4623.4c1,0,1.8,0.8,1.8,1.8c0,0.5-0.2,0.9-0.5,1.2l-27.9,27.9
			c-0.7,0.7-1.8,0.8-2.5,0.1c-0.7-0.7-0.8-1.8-0.1-2.5c0,0,0.1-0.1,0.1-0.1l27.9-27.9C-9392.2,4623.6-9391.8,4623.4-9391.3,4623.4z"
			/>
		<path id="Path_22399" class="st2" d="M-9256.5,4460.8c1,0,1.8,0.8,1.8,1.8c0,0.5-0.2,0.9-0.5,1.3l-55.7,55.7
			c-0.7,0.7-1.8,0.6-2.5-0.1c-0.6-0.7-0.6-1.7,0-2.4l55.7-55.7C-9257.4,4461-9257,4460.8-9256.5,4460.8z"/>
		<path id="Path_22400" class="st1" d="M-9284.4,4462.6"/>
		<path id="Path_22401" class="st1" d="M-9423.7,4546.2"/>
		<path id="Path_22402" class="st3" d="M-9261.2,4716.3c1,0,1.8,0.8,1.8,1.8c0,0.5-0.2,0.9-0.5,1.3l-15.7,15.7
			c-0.7,0.7-1.8,0.6-2.5-0.1c-0.6-0.7-0.6-1.7,0-2.4l15.7-15.7C-9262.2,4716.5-9261.7,4716.3-9261.2,4716.3z"/>
		<path id="Path_22403" class="st1" d="M-9279.4,4511.5c1,0,1.8,0.8,1.8,1.8c0,0.5-0.2,0.9-0.5,1.2l-46.6,46.6
			c-0.7,0.7-1.8,0.6-2.5-0.1c-0.6-0.7-0.6-1.7,0-2.4l46.6-46.6C-9280.3,4511.7-9279.9,4511.5-9279.4,4511.5z"/>
		<path id="Path_22404" class="st1" d="M-8754.9,4349.3c1,0,1.8,0.8,1.8,1.8c0,0.5-0.2,0.9-0.5,1.3l-111.5,111.5
			c-0.7,0.7-1.8,0.6-2.5-0.1c-0.6-0.7-0.6-1.7,0-2.4l111.5-111.5C-8755.9,4349.5-8755.4,4349.3-8754.9,4349.3z"/>
		<path id="Path_22405" class="st1" d="M-8812.7,4379.2c1,0,1.8,0.8,1.8,1.8c0,0.5-0.2,0.9-0.5,1.3l-81.5,81.5
			c-0.7,0.7-1.8,0.6-2.5-0.1c-0.6-0.7-0.6-1.7,0-2.4l81.5-81.5C-8813.6,4379.4-8813.2,4379.2-8812.7,4379.2z"/>
		<path id="Path_22406" class="st1" d="M-8812.7,4379.2c1,0,1.8,0.8,1.8,1.8c0,0.5-0.2,0.9-0.5,1.3l-36.3,36.3
			c-0.7,0.7-1.8,0.6-2.5-0.1c-0.6-0.7-0.6-1.7,0-2.4l36.3-36.3C-8813.6,4379.4-8813.2,4379.2-8812.7,4379.2z"/>
		<path id="Path_22407" class="st1" d="M-8768.9,4307.5c1,0,1.8,0.8,1.8,1.8c0,0.5-0.2,0.9-0.5,1.3l-75.3,75.3
			c-0.7,0.7-1.8,0.6-2.5-0.1c-0.6-0.7-0.6-1.7,0-2.4l75.3-75.3C-8769.8,4307.7-8769.3,4307.5-8768.9,4307.5z"/>
		<path id="Path_22408" class="st1" d="M-8851.6,4390.3c1,0,1.8,0.8,1.8,1.8c0,0.5-0.2,0.9-0.5,1.2l-70.5,70.5
			c-0.7,0.7-1.8,0.6-2.5-0.1c-0.6-0.7-0.6-1.7,0-2.4l70.5-70.5C-8852.5,4390.5-8852.1,4390.3-8851.6,4390.3z"/>
		<path id="Path_22409" class="st1" d="M-8810.7,4321.5c1,0,1.8,0.8,1.8,1.8c0,0.5-0.2,0.9-0.5,1.2l-82.7,82.7
			c-0.7,0.7-1.8,0.6-2.5-0.1c-0.6-0.7-0.6-1.7,0-2.4l82.7-82.7C-8811.6,4321.6-8811.1,4321.5-8810.7,4321.5z"/>
		<path id="Path_22410" class="st2" d="M-8859.4,4370.2c1,0,1.8,0.8,1.8,1.8c0,0.5-0.2,0.9-0.5,1.3l-33.9,33.9
			c-0.7,0.7-1.8,0.6-2.5-0.1c-0.6-0.7-0.6-1.7,0-2.4l33.9-33.9C-8860.4,4370.4-8859.9,4370.2-8859.4,4370.2z"/>
		<path id="Path_22411" class="st0" d="M-8905.5,4416.3c1,0,1.8,0.8,1.8,1.8c0,0.5-0.2,0.9-0.5,1.3l-44.5,44.5
			c-0.7,0.7-1.8,0.6-2.5-0.1c-0.6-0.7-0.6-1.7,0-2.4l44.5-44.5C-8906.5,4416.5-8906,4416.3-8905.5,4416.3z"/>
		<path id="Path_22412" class="st0" d="M-8782.8,4265.7c1,0,1.8,0.8,1.8,1.8c0,0.5-0.2,0.9-0.5,1.2l-69.7,69.7
			c-0.7,0.7-1.8,0.6-2.5-0.1c-0.6-0.7-0.6-1.7,0-2.4l69.7-69.7C-8783.7,4265.9-8783.3,4265.7-8782.8,4265.7z"/>
		<path id="Path_22413" class="st1" d="M-8866.4,4349.3c1,0,1.8,0.8,1.8,1.8c0,0.5-0.2,0.9-0.5,1.3l-111.5,111.5
			c-0.7,0.7-1.8,0.6-2.5-0.1c-0.6-0.7-0.6-1.7,0-2.4l111.5-111.5C-8867.3,4349.5-8866.9,4349.3-8866.4,4349.3z"/>
		<path id="Path_22414" class="st1" d="M-8950,4434.7"/>
		<path id="Path_22415" class="st1" d="M-8796.7,4251.8c1,0,1.8,0.8,1.8,1.8c0,0.5-0.2,0.9-0.5,1.3l-69.7,69.7
			c-0.7,0.7-1.8,0.6-2.5-0.1c-0.6-0.7-0.6-1.7,0-2.4l69.7-69.7C-8797.7,4252-8797.2,4251.8-8796.7,4251.8z"/>
		<path id="Path_22416" class="st1" d="M-8844.4,4299.5c1,0,1.8,0.8,1.8,1.8c0,0.5-0.2,0.9-0.5,1.3l-29.4,29.4
			c-0.7,0.7-1.8,0.6-2.5-0.1c-0.6-0.7-0.6-1.7,0-2.4l29.4-29.4C-8845.3,4299.7-8844.9,4299.5-8844.4,4299.5z"/>
		<path id="Path_22417" class="st3" d="M-8880.3,4335.4c1,0,1.8,0.8,1.8,1.8c0,0.5-0.2,0.9-0.5,1.3l-69.7,69.7
			c-0.7,0.7-1.8,0.6-2.5-0.1c-0.6-0.7-0.6-1.7,0-2.4l69.7-69.7C-8881.3,4335.6-8880.8,4335.4-8880.3,4335.4z"/>
		<path id="Path_22418" class="st1" d="M-8963.9,4419c1,0,1.8,0.8,1.8,1.8c0,0.5-0.2,0.9-0.5,1.3l-41.8,41.8
			c-0.7,0.7-1.8,0.8-2.5,0.1c-0.7-0.7-0.8-1.8-0.1-2.5c0,0,0.1-0.1,0.1-0.1l41.8-41.8C-8964.8,4419.2-8964.4,4419-8963.9,4419z"/>
		<path id="Path_22419" class="st2" d="M-8796.7,4223.9c1,0,1.8,0.8,1.8,1.8c0,0.5-0.2,0.9-0.5,1.3l-76.6,76.6
			c-0.7,0.7-1.8,0.8-2.5,0.1c-0.7-0.7-0.8-1.8-0.1-2.5c0,0,0.1-0.1,0.1-0.1l76.6-76.6C-8797.7,4224.1-8797.2,4223.9-8796.7,4223.9z"
			/>
		<path id="Path_22420" class="st1" d="M-8880.3,4307.5c1,0,1.8,0.8,1.8,1.8c0,0.5-0.2,0.9-0.5,1.3l-41.8,41.8
			c-0.7,0.7-1.8,0.6-2.5-0.1c-0.6-0.7-0.6-1.7,0-2.4l41.8-41.8C-8881.3,4307.7-8880.8,4307.5-8880.3,4307.5z"/>
		<path id="Path_22421" class="st1" d="M-8985.6,4412.8c1,0,1.8,0.8,1.8,1.8c0,0.5-0.2,0.9-0.5,1.3l-48,48c-0.7,0.7-1.8,0.8-2.5,0.1
			c-0.7-0.7-0.8-1.8-0.1-2.5c0,0,0.1-0.1,0.1-0.1l48-48C-8986.5,4412.9-8986,4412.8-8985.6,4412.8z"/>
		<path id="Path_22422" class="st1" d="M-8817.6,4217c1,0,1.8,0.8,1.8,1.8c0,0.5-0.2,0.9-0.5,1.3l-62.7,62.7
			c-0.7,0.7-1.8,0.6-2.5-0.1c-0.6-0.7-0.6-1.7,0-2.4l62.7-62.7C-8818.6,4217.1-8818.1,4217-8817.6,4217z"/>
		<path id="Path_22423" class="st1" d="M-8894.3,4293.6c1,0,1.8,0.8,1.8,1.8c0,0.5-0.2,0.9-0.5,1.2l-69.7,69.7
			c-0.7,0.7-1.8,0.6-2.5-0.1c-0.6-0.7-0.6-1.7,0-2.4l69.7-69.7C-8895.2,4293.8-8894.7,4293.6-8894.3,4293.6z"/>
		<path id="Path_22424" class="st1" d="M-8977.9,4377.2c1,0,1.8,0.8,1.8,1.8c0,0.5-0.2,0.9-0.5,1.2l-55.7,55.7
			c-0.7,0.7-1.8,0.6-2.5-0.1c-0.6-0.7-0.6-1.7,0-2.4l55.7-55.7C-8978.8,4377.4-8978.3,4377.2-8977.9,4377.2z"/>
		<path id="Path_22425" class="st1" d="M-9044.3,4443.7c1,0,1.8,0.8,1.8,1.8c0,0.5-0.2,0.9-0.5,1.2l-17.1,17.1
			c-0.7,0.7-1.8,0.6-2.5-0.1c-0.6-0.7-0.6-1.7,0-2.4l17.1-17.1C-9045.3,4443.8-9044.8,4443.7-9044.3,4443.7z"/>
		<path id="Path_22426" class="st1" d="M-8817.6,4189.1c1,0,1.8,0.8,1.8,1.8c0,0.5-0.2,0.9-0.5,1.3l-48.8,48.8
			c-0.7,0.7-1.8,0.6-2.5-0.1c-0.6-0.7-0.6-1.7,0-2.4l48.8-48.8C-8818.6,4189.3-8818.1,4189.1-8817.6,4189.1z"/>
		<path id="Path_22427" class="st0" d="M-8880.3,4251.8c1,0,1.8,0.8,1.8,1.8c0,0.5-0.2,0.9-0.5,1.3l-41.8,41.8
			c-0.7,0.7-1.8,0.6-2.5-0.1c-0.6-0.7-0.6-1.7,0-2.4l41.8-41.8C-8881.3,4252-8880.8,4251.8-8880.3,4251.8z"/>
		<path id="Path_22428" class="st1" d="M-8936.1,4307.5c1,0,1.8,0.8,1.8,1.8c0,0.5-0.2,0.9-0.5,1.2l-69.7,69.7
			c-0.7,0.7-1.8,0.6-2.5-0.1c-0.6-0.7-0.6-1.7,0-2.4l69.7-69.7C-8937,4307.7-8936.5,4307.5-8936.1,4307.5z"/>
		<line id="Line_6944" class="st4" x1="-9047.5" y1="4420.8" x2="-9019.7" y2="4392.9"/>
		<path id="Path_22429" class="st1" d="M-9061.5,4432.9c1,0,1.8,0.8,1.8,1.8c0,0.5-0.2,0.9-0.5,1.3l-27.9,27.9
			c-0.7,0.7-1.8,0.6-2.5-0.1c-0.6-0.7-0.6-1.7,0-2.4l27.9-27.9C-9062.4,4433.1-9061.9,4432.9-9061.5,4432.9z"/>
		<path id="Path_22430" class="st1" d="M-8814.2,4157.7c1,0,1.8,0.8,1.8,1.8c0,0.5-0.2,0.9-0.5,1.2l-1.7,1.7
			c-0.7,0.7-1.8,0.6-2.5-0.1c-0.6-0.7-0.6-1.7,0-2.4l1.7-1.7C-8815.1,4157.9-8814.6,4157.7-8814.2,4157.7z"/>
		<path id="Path_22431" class="st0" d="M-8812.4,4156c1,0,1.8,0.8,1.8,1.8c0,0.5-0.2,0.9-0.5,1.3l-26.1,26.1
			c-0.7,0.7-1.8,0.6-2.5-0.1c-0.6-0.7-0.6-1.7,0-2.4l26.1-26.1C-8813.3,4156.2-8812.9,4156-8812.4,4156z"/>
		<path id="Path_22432" class="st1" d="M-8852.5,4196.1c1,0,1.8,0.8,1.8,1.8c0,0.5-0.2,0.9-0.5,1.3l-125.4,125.4
			c-0.7,0.7-1.8,0.6-2.5-0.1c-0.6-0.7-0.6-1.7,0-2.4l125.4-125.4C-8853.4,4196.2-8852.9,4196.1-8852.5,4196.1z"/>
		<path id="Path_22433" class="st1" d="M-8991.8,4337.2"/>
		<path id="Path_22434" class="st1" d="M-8991.8,4335.4c1,0,1.8,0.8,1.8,1.8c0,0.5-0.2,0.9-0.5,1.3l-55.7,55.7
			c-0.7,0.7-1.8,0.6-2.5-0.1c-0.6-0.7-0.6-1.7,0-2.4l55.7-55.7C-8992.7,4335.6-8992.3,4335.4-8991.8,4335.4z"/>
		<path id="Path_22435" class="st1" d="M-9061.5,4405c1,0,1.8,0.8,1.8,1.8c0,0.5-0.2,0.9-0.5,1.3l-55.7,55.7
			c-0.7,0.7-1.8,0.6-2.5-0.1c-0.6-0.7-0.6-1.7,0-2.4l55.7-55.7C-9062.4,4405.2-9061.9,4405.1-9061.5,4405z"/>
		<path id="Path_22436" class="st3" d="M-8840.3,4156c1,0,1.8,0.8,1.8,1.8c0,0.5-0.2,0.9-0.5,1.2l-54,54c-0.7,0.7-1.8,0.6-2.5-0.1
			c-0.6-0.7-0.6-1.7,0-2.4l54-54C-8841.2,4156.2-8840.7,4156-8840.3,4156z"/>
		<path id="Path_22437" class="st1" d="M-9003.4,4319.1c1,0,1.8,0.8,1.8,1.8c0,0.5-0.2,0.9-0.5,1.2l-16.3,16.3
			c-0.7,0.7-1.8,0.6-2.5-0.1c-0.6-0.7-0.6-1.7,0-2.4l16.3-16.3C-9004.3,4319.3-9003.8,4319.1-9003.4,4319.1z"/>
		<path id="Path_22438" class="st1" d="M-9033.6,4349.3c1,0,1.8,0.8,1.8,1.8c0,0.5-0.2,0.9-0.5,1.3l-55.7,55.7
			c-0.7,0.7-1.8,0.6-2.5-0.1c-0.6-0.7-0.6-1.7,0-2.4l55.7-55.7C-9034.5,4349.5-9034.1,4349.3-9033.6,4349.3z"/>
		<path id="Path_22439" class="st1" d="M-9033.6,4349.3c1,0,1.8,0.8,1.8,1.8c0,0.5-0.2,0.9-0.5,1.3l-25.1,25.1
			c-0.7,0.7-1.8,0.6-2.5-0.1c-0.6-0.7-0.6-1.7,0-2.4l25.1-25.1C-9034.5,4349.5-9034.1,4349.3-9033.6,4349.3z"/>
		<path id="Path_22440" class="st1" d="M-9103.3,4419c1,0,1.8,0.8,1.8,1.8c0,0.5-0.2,0.9-0.5,1.3l-41.8,41.8
			c-0.7,0.7-1.8,0.6-2.5-0.1c-0.6-0.7-0.6-1.7,0-2.4l41.8-41.8C-9104.2,4419.2-9103.7,4419-9103.3,4419z"/>
		<path id="Path_22441" class="st2" d="M-8926.3,4214.2c1,0,1.8,0.8,1.8,1.8c0,0.5-0.2,0.9-0.5,1.3l-37.6,37.6
			c-0.7,0.7-1.8,0.6-2.5-0.1c-0.6-0.7-0.6-1.7,0-2.4l37.6-37.6C-8927.2,4214.4-8926.8,4214.2-8926.3,4214.2z"/>
		<path id="Path_22442" class="st3" d="M-8977.9,4265.7c1,0,1.8,0.8,1.8,1.8c0,0.5-0.2,0.9-0.5,1.2l-97.5,97.5
			c-0.7,0.7-1.8,0.6-2.5-0.1c-0.6-0.7-0.6-1.7,0-2.4l97.5-97.5C-8978.8,4265.9-8978.3,4265.7-8977.9,4265.7z"/>
		<path id="Path_22443" class="st1" d="M-9047.5,4335.4c1,0,1.8,0.8,1.8,1.8c0,0.5-0.2,0.9-0.5,1.3l-27.9,27.9
			c-0.7,0.7-1.8,0.6-2.5-0.1c-0.6-0.7-0.6-1.7,0-2.4l27.9-27.9C-9048.4,4335.6-9048,4335.4-9047.5,4335.4z"/>
		<path id="Path_22444" class="st0" d="M-9089.3,4377.2c1,0,1.8,0.8,1.8,1.8c0,0.5-0.2,0.9-0.5,1.3l-55.7,55.7
			c-0.7,0.7-1.8,0.6-2.5-0.1c-0.6-0.7-0.6-1.7,0-2.4l55.7-55.7C-9090.2,4377.4-9089.8,4377.2-9089.3,4377.2z"/>
		<path id="Path_22445" class="st1" d="M-9159,4446.8c1,0,1.8,0.8,1.8,1.8c0,0.5-0.2,0.9-0.5,1.3l-13.9,13.9
			c-0.7,0.7-1.8,0.6-2.5-0.1c-0.6-0.7-0.6-1.7,0-2.4l13.9-13.9C-9159.9,4447-9159.5,4446.8-9159,4446.8z"/>
		<path id="Path_22446" class="st1" d="M-9019.7,4279.7c1,0,1.8,0.8,1.8,1.8c0,0.5-0.2,0.9-0.5,1.2l-27.9,27.9
			c-0.7,0.7-1.8,0.8-2.5,0.1c-0.7-0.7-0.8-1.8-0.1-2.5c0,0,0.1-0.1,0.1-0.1l27.9-27.9C-9020.6,4279.8-9020.1,4279.7-9019.7,4279.7z"
			/>
		<path id="Path_22447" class="st3" d="M-9131.1,4391.1c1,0,1.8,0.8,1.8,1.8c0,0.5-0.2,0.9-0.5,1.2l-94,94c-0.7,0.7-1.8,0.6-2.5-0.1
			c-0.6-0.7-0.6-1.7,0-2.4l94-94C-9132,4391.3-9131.6,4391.1-9131.1,4391.1z"/>
		<path id="Path_22448" class="st1" d="M-9131.1,4391.1c1,0,1.8,0.8,1.8,1.8c0,0.5-0.2,0.9-0.5,1.2l-31.4,31.4
			c-0.7,0.7-1.8,0.6-2.5-0.1c-0.6-0.7-0.6-1.7,0-2.4l31.4-31.4C-9132,4391.3-9131.6,4391.1-9131.1,4391.1z"/>
		<path id="Path_22449" class="st1" d="M-8936.1,4170"/>
		<path id="Path_22450" class="st2" d="M-9033.6,4265.7c1,0,1.8,0.8,1.8,1.8c0,0.5-0.2,0.9-0.5,1.3l-55.7,55.7
			c-0.7,0.7-1.8,0.6-2.5-0.1c-0.6-0.7-0.6-1.7,0-2.4l55.7-55.7C-9034.5,4265.9-9034.1,4265.7-9033.6,4265.7z"/>
		<path id="Path_22451" class="st1" d="M-9103.3,4335.4c1,0,1.8,0.8,1.8,1.8c0,0.5-0.2,0.9-0.5,1.3l-27.9,27.9
			c-0.7,0.7-1.8,0.6-2.5-0.1c-0.6-0.7-0.6-1.7,0-2.4l27.9-27.9C-9104.2,4335.6-9103.7,4335.4-9103.3,4335.4z"/>
		<path id="Path_22452" class="st1" d="M-9145.1,4377.2c1,0,1.8,0.8,1.8,1.8c0,0.5-0.2,0.9-0.5,1.3l-55.7,55.7
			c-0.7,0.7-1.8,0.6-2.5-0.1c-0.6-0.7-0.6-1.7,0-2.4l55.7-55.7C-9146,4377.4-9145.5,4377.2-9145.1,4377.2z"/>
		<path id="Path_22453" class="st3" d="M-9005.7,4210c1,0,1.8,0.8,1.8,1.8c0,0.5-0.2,0.9-0.5,1.2l-69.7,69.7
			c-0.7,0.7-1.8,0.6-2.5-0.1c-0.6-0.7-0.6-1.7,0-2.4l69.7-69.7C-9006.6,4210.2-9006.2,4210-9005.7,4210z"/>
		<path id="Path_22454" class="st0" d="M-9159,4363.3c1,0,1.8,0.8,1.8,1.8c0,0.5-0.2,0.9-0.5,1.3l-41.8,41.8
			c-0.7,0.7-1.8,0.6-2.5-0.1c-0.6-0.7-0.6-1.7,0-2.4l41.8-41.8C-9159.9,4363.4-9159.5,4363.3-9159,4363.3z"/>
		<path id="Path_22455" class="st1" d="M-8809.1,4431.4c1,0,1.8,0.8,1.8,1.8c0,0.5-0.2,0.9-0.5,1.2l-28.5,28.5
			c-0.7,0.7-1.8,0.6-2.5-0.1c-0.6-0.7-0.6-1.7,0-2.4l28.5-28.5C-8810,4431.6-8809.6,4431.4-8809.1,4431.4z"/>
		<path id="Path_22456" class="st1" d="M-8949.5,4376.7c1,0,1.8,0.8,1.8,1.8c0,0.5-0.2,0.9-0.5,1.2l-17.2,17.2
			c-0.7,0.7-1.8,0.6-2.5-0.1c-0.6-0.7-0.6-1.7,0-2.4l17.2-17.2C-8950.4,4376.8-8949.9,4376.7-8949.5,4376.7z"/>
		<path id="Path_22457" class="st1" d="M-8906.6,4222.4c1,0,1.8,0.8,1.8,1.8c0,0.5-0.2,0.9-0.5,1.3l-86.7,86.7
			c-0.7,0.7-1.8,0.6-2.5-0.1c-0.6-0.7-0.6-1.7,0-2.4l86.7-86.7C-8907.5,4222.5-8907.1,4222.4-8906.6,4222.4z"/>
	</g>
</g>
<g id="Group_12689" transform="translate(10797 -3354)">
	<g id="Group_12657-2" transform="translate(-948 -802)">
		<path id="Path_22332-2" class="st0" d="M-8810.7,4488.6c1,0,1.8,0.8,1.8,1.8c0,0.5-0.2,0.9-0.5,1.2l-83.6,83.6
			c-0.7,0.7-1.8,0.6-2.5-0.1c-0.6-0.7-0.6-1.7,0-2.4l83.6-83.6C-8811.6,4488.8-8811.1,4488.6-8810.7,4488.6z"/>
		<path id="Path_22333-2" class="st1" d="M-8936.1,4615.8"/>
		<path id="Path_22334-2" class="st1" d="M-9025.9,4703.9c1,0,1.8,0.8,1.8,1.8c0,0.5-0.2,0.9-0.5,1.2l-35.6,35.6
			c-0.7,0.7-1.8,0.6-2.5-0.1c-0.6-0.7-0.6-1.7,0-2.4l35.6-35.6C-9026.8,4704.1-9026.4,4703.9-9025.9,4703.9z"/>
		<path id="Path_22335-2" class="st1" d="M-8810.7,4460.8c1,0,1.8,0.8,1.8,1.8c0,0.5-0.2,0.9-0.5,1.3l-69.7,69.7
			c-0.7,0.7-1.8,0.6-2.5-0.1c-0.6-0.7-0.6-1.7,0-2.4l69.7-69.7C-8811.6,4461-8811.1,4460.8-8810.7,4460.8z"/>
		<path id="Path_22336-2" class="st1" d="M-8894.3,4544.4c1,0,1.8,0.8,1.8,1.8c0,0.5-0.2,0.9-0.5,1.2l-42,42
			c-0.7,0.7-1.8,0.8-2.5,0.1c-0.7-0.7-0.8-1.8-0.1-2.5c0,0,0.1-0.1,0.1-0.1l42-42C-8895.2,4544.6-8894.7,4544.4-8894.3,4544.4z"/>
		<path id="Path_22337-2" class="st1" d="M-9058,4708.1c1,0,1.8,0.8,1.8,1.8c0,0.5-0.2,0.9-0.5,1.2l-47.6,47.6
			c-0.7,0.7-1.8,0.8-2.5,0.1c-0.7-0.7-0.8-1.8-0.1-2.5c0,0,0.1-0.1,0.1-0.1l47.6-47.6C-9058.9,4708.3-9058.4,4708.1-9058,4708.1z"/>
		<path id="Path_22338-2" class="st1" d="M-8838.5,4460.8c1,0,1.8,0.8,1.8,1.8c0,0.5-0.2,0.9-0.5,1.3l-69.7,69.7
			c-0.7,0.7-1.8,0.6-2.5-0.1c-0.6-0.7-0.6-1.7,0-2.4l69.7-69.7C-8839.5,4461-8839,4460.8-8838.5,4460.8z"/>
		<path id="Path_22339-2" class="st1" d="M-8922.1,4544.4c1,0,1.8,0.8,1.8,1.8c0,0.5-0.2,0.9-0.5,1.3l-83.6,83.6
			c-0.7,0.7-1.8,0.6-2.5-0.1c-0.6-0.7-0.6-1.7,0-2.4l83.6-83.6C-8923.1,4544.6-8922.6,4544.4-8922.1,4544.4z"/>
		<path id="Path_22340-2" class="st1" d="M-9019.7,4641.9c1,0,1.8,0.8,1.8,1.8c0,0.5-0.2,0.9-0.5,1.2l-27.9,27.9
			c-0.7,0.7-1.8,0.6-2.5-0.1c-0.6-0.7-0.6-1.7,0-2.4l27.9-27.9C-9020.6,4642.1-9020.1,4641.9-9019.7,4641.9z"/>
		<path id="Path_22341-2" class="st0" d="M-9061.5,4683.7c1,0,1.8,0.8,1.8,1.8c0,0.5-0.2,0.9-0.5,1.3l-66.2,66.2
			c-0.7,0.7-1.8,0.8-2.5,0.1c-0.7-0.7-0.8-1.8-0.1-2.5c0,0,0.1-0.1,0.1-0.1l66.2-66.2C-9062.4,4683.9-9061.9,4683.7-9061.5,4683.7z"
			/>
		<path id="Path_22342-2" class="st2" d="M-8866.4,4460.8c1,0,1.8,0.8,1.8,1.8c0,0.5-0.2,0.9-0.5,1.2l-55.7,55.7
			c-0.7,0.7-1.8,0.6-2.5-0.1c-0.6-0.7-0.6-1.7,0-2.4l55.7-55.7C-8867.3,4461-8866.9,4460.8-8866.4,4460.8z"/>
		<path id="Path_22343-2" class="st1" d="M-9033.6,4628c1,0,1.8,0.8,1.8,1.8c0,0.5-0.2,0.9-0.5,1.3l-55.7,55.7
			c-0.7,0.7-1.8,0.6-2.5-0.1c-0.6-0.7-0.6-1.7,0-2.4l55.7-55.7C-9034.5,4628.2-9034.1,4628-9033.6,4628z"/>
		<path id="Path_22344-2" class="st1" d="M-9103.3,4697.6c1,0,1.8,0.8,1.8,1.8c0,0.5-0.2,0.9-0.5,1.3l-69.7,69.7
			c-0.7,0.7-1.8,0.8-2.5,0.1c-0.7-0.7-0.8-1.8-0.1-2.5c0,0,0.1-0.1,0.1-0.1l69.7-69.7C-9104.2,4697.8-9103.7,4697.6-9103.3,4697.6z"
			/>
		<path id="Path_22345-2" class="st0" d="M-8894.3,4460.8c1,0,1.8,0.8,1.8,1.8c0,0.5-0.2,0.9-0.5,1.2l-125.4,125.4
			c-0.7,0.7-1.8,0.8-2.5,0.1c-0.7-0.7-0.8-1.8-0.1-2.5c0,0,0.1-0.1,0.1-0.1l125.4-125.4C-8895.2,4461-8894.7,4460.8-8894.3,4460.8z"
			/>
		<path id="Path_22346-2" class="st1" d="M-9049,4615.5c1,0,1.8,0.8,1.8,1.8c0,0.5-0.2,0.9-0.5,1.2l-55.7,55.7
			c-0.7,0.7-1.8,0.6-2.5-0.1c-0.6-0.7-0.6-1.7,0-2.4l11.9-11.9l0,0l43.8-43.8C-9049.9,4615.7-9049.5,4615.5-9049,4615.5z"/>
		<path id="Path_22347-2" class="st2" d="M-9145.1,4711.6c1,0,1.8,0.8,1.8,1.8c0,0.5-0.2,0.9-0.5,1.3l-13.9,13.9
			c-0.7,0.7-1.8,0.6-2.5-0.1c-0.6-0.7-0.6-1.7,0-2.4l13.9-13.9C-9146,4711.8-9145.5,4711.6-9145.1,4711.6z"/>
		<path id="Path_22348-2" class="st1" d="M-8922.1,4460.8c1,0,1.8,0.8,1.8,1.8c0,0.5-0.2,0.9-0.5,1.3l-157.3,157.3
			c-0.7,0.7-1.8,0.6-2.5-0.1c-0.6-0.7-0.6-1.7,0-2.4l157.3-157.3C-8923.1,4461-8922.6,4460.8-8922.1,4460.8z"/>
		<path id="Path_22349-2" class="st3" d="M-8963.9,4502.6c1,0,1.8,0.8,1.8,1.8c0,0.5-0.2,0.9-0.5,1.3l-115.5,115.5
			c-0.7,0.7-1.8,0.6-2.5-0.1c-0.6-0.7-0.6-1.7,0-2.4l115.5-115.5C-8964.9,4502.8-8964.4,4502.6-8963.9,4502.6z"/>
		<path id="Path_22350-2" class="st1" d="M-9089.3,4628c1,0,1.8,0.8,1.8,1.8c0,0.5-0.2,0.9-0.5,1.3l-18.3,18.3l0,0l-23.5,23.5
			c-0.7,0.7-1.8,0.6-2.5-0.1c-0.6-0.7-0.6-1.7,0-2.4l23.5-23.5l0,0l18.3-18.3C-9090.2,4628.2-9089.8,4628-9089.3,4628z"/>
		<path id="Path_22351-2" class="st1" d="M-9145.1,4683.7c1,0,1.8,0.8,1.8,1.8c0,0.5-0.2,0.9-0.5,1.3l-62.7,62.7
			c-0.7,0.7-1.8,0.8-2.5,0.1c-0.7-0.7-0.8-1.8-0.1-2.5c0,0,0.1-0.1,0.1-0.1l62.7-62.7C-9146,4683.9-9145.5,4683.7-9145.1,4683.7z"/>
		<path id="Path_22352-2" class="st1" d="M-8950,4460.8c1,0,1.8,0.8,1.8,1.8c0,0.5-0.2,0.9-0.5,1.3l-27.9,27.9
			c-0.7,0.7-1.8,0.8-2.5,0.1c-0.7-0.7-0.8-1.8-0.1-2.5c0,0,0.1-0.1,0.1-0.1l27.9-27.9C-8950.9,4461-8950.5,4460.8-8950,4460.8z"/>
		<path id="Path_22353-2" class="st2" d="M-8990.1,4500.9c1,0,1.8,0.8,1.8,1.8c0,0.5-0.2,0.9-0.5,1.2l-7.8,7.8
			c-0.7,0.7-1.8,0.6-2.5-0.1c-0.6-0.7-0.6-1.7,0-2.4l7.8-7.8C-8991,4501.1-8990.6,4500.9-8990.1,4500.9z"/>
		<path id="Path_22354-2" class="st1" d="M-9104.1,4614.9c1,0,1.8,0.8,1.8,1.8c0,0.5-0.2,0.9-0.5,1.2l-46.1,46.1l0,0l-22.6,22.6
			c-0.7,0.7-1.8,0.8-2.5,0.1c-0.7-0.7-0.8-1.8-0.1-2.5c0,0,0.1-0.1,0.1-0.1l68.8-68.8C-9105,4615.1-9104.6,4614.9-9104.1,4614.9z"/>
		<path id="Path_22355-2" class="st1" d="M-8977.9,4460.8c1,0,1.8,0.8,1.8,1.8c0,0.5-0.2,0.9-0.5,1.2l-55.7,55.7
			c-0.7,0.7-1.8,0.6-2.5-0.1c-0.6-0.7-0.6-1.7,0-2.4l55.7-55.7C-8978.8,4461-8978.3,4460.8-8977.9,4460.8z"/>
		<path id="Path_22356-2" class="st1" d="M-9047.5,4530.4c1,0,1.8,0.8,1.8,1.8c0,0.5-0.2,0.9-0.5,1.3l-69.7,69.7
			c-0.7,0.7-1.8,0.8-2.5,0.1c-0.7-0.7-0.8-1.8-0.1-2.5c0,0,0.1-0.1,0.1-0.1l69.7-69.7C-9048.4,4530.6-9048,4530.4-9047.5,4530.4z"/>
		<path id="Path_22357-2" class="st1" d="M-9131.1,4614c1,0,1.8,0.8,1.8,1.8c0,0.5-0.2,0.9-0.5,1.2l-19.9,19.9l0,0l-7.9,7.9
			c-0.7,0.7-1.8,0.6-2.5-0.1c-0.6-0.7-0.6-1.7,0-2.4l27.9-27.9C-9132,4614.2-9131.6,4614-9131.1,4614z"/>
		<path id="Path_22358-2" class="st1" d="M-9019.7,4476.5"/>
		<path id="Path_22359-2" class="st1" d="M-9033.6,4488.6c1,0,1.8,0.8,1.8,1.8c0,0.5-0.2,0.9-0.5,1.3l-83.6,83.6
			c-0.7,0.7-1.8,0.6-2.5-0.1c-0.6-0.7-0.6-1.7,0-2.4l83.6-83.6C-9034.5,4488.8-9034.1,4488.6-9033.6,4488.6z"/>
		<path id="Path_22360-2" class="st3" d="M-9131.1,4586.2c1,0,1.8,0.8,1.8,1.8c0,0.5-0.2,0.9-0.5,1.2l-50.5,50.5
			c-0.7,0.7-1.8,0.6-2.5-0.1c-0.6-0.7-0.6-1.7,0-2.4l10.5-10.4l0,0l40-40C-9132,4586.4-9131.6,4586.2-9131.1,4586.2z"/>
		<path id="Path_22361-2" class="st1" d="M-9033.6,4460.8c1,0,1.8,0.8,1.8,1.8c0,0.5-0.2,0.9-0.5,1.3l-62.7,62.7
			c-0.7,0.7-1.8,0.6-2.5-0.1c-0.6-0.7-0.6-1.7,0-2.4l62.7-62.7C-9034.5,4461-9034.1,4460.8-9033.6,4460.8z"/>
		<path id="Path_22362-2" class="st1" d="M-9159,4586.2c1,0,1.8,0.8,1.8,1.8c0,0.5-0.2,0.9-0.5,1.3l-45.3,45.3
			c-0.7,0.7-1.8,0.8-2.5,0.1c-0.7-0.7-0.8-1.8-0.1-2.5c0,0,0.1-0.1,0.1-0.1l45.3-45.3C-9159.9,4586.4-9159.5,4586.2-9159,4586.2z"/>
		<path id="Path_22363-2" class="st1" d="M-9061.5,4460.8c1,0,1.8,0.8,1.8,1.8c0,0.5-0.2,0.9-0.5,1.3l-69.7,69.7
			c-0.7,0.7-1.8,0.8-2.5,0.1c-0.7-0.7-0.8-1.8-0.1-2.5c0,0,0.1-0.1,0.1-0.1l69.7-69.7C-9062.4,4461-9061.9,4460.8-9061.5,4460.8z"/>
		<path id="Path_22364-2" class="st1" d="M-9145.1,4544.4c1,0,1.8,0.8,1.8,1.8c0,0.5-0.2,0.9-0.5,1.3l-62.7,62.7
			c-0.7,0.7-1.8,0.8-2.5,0.1c-0.7-0.7-0.8-1.8-0.1-2.5c0,0,0.1-0.1,0.1-0.1l62.7-62.7C-9146,4544.6-9145.5,4544.4-9145.1,4544.4z"/>
		<path id="Path_22365-2" class="st3" d="M-9089.3,4460.8c1,0,1.8,0.8,1.8,1.8c0,0.5-0.2,0.9-0.5,1.3l-27.9,27.9
			c-0.7,0.7-1.8,0.8-2.5,0.1c-0.7-0.7-0.8-1.8-0.1-2.5c0,0,0.1-0.1,0.1-0.1l27.9-27.9C-9090.2,4461-9089.8,4460.8-9089.3,4460.8z"/>
		<path id="Path_22366-2" class="st0" d="M-9131.1,4502.6c1,0,1.8,0.8,1.8,1.8c0,0.5-0.2,0.9-0.5,1.3l-130.6,130.6
			c-0.7,0.7-1.8,0.6-2.5-0.1c-0.6-0.7-0.6-1.7,0-2.4l130.6-130.6C-9132,4502.8-9131.6,4502.6-9131.1,4502.6z"/>
		<path id="Path_22367-2" class="st1" d="M-9131.1,4502.6c1,0,1.8,0.8,1.8,1.8c0,0.5-0.2,0.9-0.5,1.3l-27.9,27.9
			c-0.7,0.7-1.8,0.6-2.5-0.1c-0.6-0.7-0.6-1.7,0-2.4l27.9-27.9C-9132,4502.8-9131.6,4502.6-9131.1,4502.6z"/>
		<path id="Path_22368-2" class="st1" d="M-9117.2,4460.8c1,0,1.8,0.8,1.8,1.8c0,0.5-0.2,0.9-0.5,1.2l-90.6,90.6
			c-0.7,0.7-1.8,0.6-2.5-0.1c-0.6-0.7-0.6-1.7,0-2.4l90.6-90.6C-9118.1,4461-9117.7,4460.8-9117.2,4460.8z"/>
		<path id="Path_22369-2" class="st1" d="M-9145.1,4460.8c1,0,1.8,0.8,1.8,1.8c0,0.5-0.2,0.9-0.5,1.3l-62.7,62.7
			c-0.7,0.7-1.8,0.6-2.5-0.1c-0.6-0.7-0.6-1.7,0-2.4l62.7-62.7C-9146,4461-9145.5,4460.8-9145.1,4460.8z"/>
		<path id="Path_22370-2" class="st1" d="M-9172.9,4460.8c1,0,1.8,0.8,1.8,1.8c0,0.5-0.2,0.9-0.5,1.2l-34.8,34.8
			c-0.7,0.7-1.8,0.6-2.5-0.1c-0.6-0.7-0.6-1.7,0-2.4l34.8-34.8C-9173.8,4461-9173.4,4460.8-9172.9,4460.8z"/>
		<path id="Path_22371-2" class="st1" d="M-9008.4,4519.2c1,0,1.8,0.8,1.8,1.8c0,0.5-0.2,0.9-0.5,1.3l-85.7,85.7
			c-0.7,0.7-1.8,0.8-2.5,0.1c-0.7-0.7-0.8-1.8-0.1-2.5c0,0,0.1-0.1,0.1-0.1l85.7-85.7C-9009.3,4519.4-9008.9,4519.2-9008.4,4519.2z"
			/>
		<path id="Path_22372-2" class="st3" d="M-8907.6,4585.6c1,0,1.8,0.8,1.8,1.8c0,0.5-0.2,0.9-0.5,1.2l-41.8,41.8
			c-0.7,0.7-1.8,0.8-2.5,0.1c-0.7-0.7-0.8-1.8-0.1-2.5c0,0,0.1-0.1,0.1-0.1l41.8-41.8C-8908.5,4585.8-8908.1,4585.6-8907.6,4585.6z"
			/>
		<path id="Path_22373-2" class="st1" d="M-9107.7,4534.9c1,0,1.8,0.8,1.8,1.8c0,0.5-0.2,0.9-0.5,1.3l-12.5,12.5
			c-0.7,0.7-1.8,0.6-2.5-0.1c-0.6-0.7-0.6-1.7,0-2.4l12.5-12.5C-9108.6,4535.1-9108.2,4534.9-9107.7,4534.9z"/>
		<path id="Path_22374-2" class="st0" d="M-9172.4,4655.3c1,0,1.8,0.8,1.8,1.8c0,0.5-0.2,0.9-0.5,1.3l-44.1,44.1
			c-0.7,0.7-1.8,0.6-2.5-0.1c-0.6-0.7-0.6-1.7,0-2.4l44.1-44.1C-9173.3,4655.5-9172.9,4655.3-9172.4,4655.3z"/>
		<path id="Path_22375-2" class="st1" d="M-8948.1,4598.2c1,0,1.8,0.8,1.8,1.8c0,0.5-0.2,0.9-0.5,1.3l-44.4,44.4
			c-0.7,0.7-1.8,0.6-2.5-0.1c-0.6-0.7-0.6-1.7,0-2.4l44.4-44.4C-8949,4598.4-8948.6,4598.2-8948.1,4598.2z"/>
		<path id="Path_22376-2" class="st1" d="M-9197.3,4626.3"/>
		<path id="Path_22377-2" class="st1" d="M-9193.8,4621c1,0,1.8,0.8,1.8,1.8c0,0.5-0.2,0.9-0.5,1.3l-7,7c-0.7,0.7-1.8,0.8-2.5,0.1
			c-0.7-0.7-0.8-1.8-0.1-2.5c0,0,0.1-0.1,0.1-0.1l7-7C-9194.7,4621.2-9194.3,4621-9193.8,4621z"/>
		<path id="Path_22378-2" class="st1" d="M-9235.6,4662.8c1,0,1.8,0.8,1.8,1.8c0,0.5-0.2,0.9-0.5,1.2l-54,54
			c-0.7,0.7-1.8,0.6-2.5-0.1c-0.6-0.7-0.6-1.7,0-2.4l54-54C-9236.5,4663-9236.1,4662.8-9235.6,4662.8z"/>
		<path id="Path_22379-2" class="st2" d="M-9200.8,4600.1c1,0,1.8,0.8,1.8,1.8c0,0.5-0.2,0.9-0.5,1.3l-41.8,41.8
			c-0.7,0.7-1.8,0.6-2.5-0.1c-0.6-0.7-0.6-1.7,0-2.4l41.8-41.8C-9201.7,4600.3-9201.3,4600.1-9200.8,4600.1z"/>
		<path id="Path_22380-2" class="st2" d="M-9256.5,4655.8c1,0,1.8,0.8,1.8,1.8c0,0.5-0.2,0.9-0.5,1.3l-73.1,73.1
			c-0.7,0.7-1.8,0.6-2.5-0.1c-0.6-0.7-0.6-1.7,0-2.4l73.1-73.1C-9257.4,4656-9257,4655.8-9256.5,4655.8z"/>
		<path id="Path_22381-2" class="st1" d="M-9197.3,4570.5"/>
		<path id="Path_22382-2" class="st1" d="M-9313.4,4686.6"/>
		<path id="Path_22383-2" class="st1" d="M-9326.2,4697.6c1,0,1.8,0.8,1.8,1.8c0,0.5-0.2,0.9-0.5,1.3l-55.7,55.7
			c-0.7,0.7-1.8,0.6-2.5-0.1c-0.6-0.7-0.6-1.7,0-2.4l55.7-55.7C-9327.1,4697.8-9326.7,4697.6-9326.2,4697.6z"/>
		<path id="Path_22384-2" class="st1" d="M-9197.3,4540.9c1,0,1.8,0.8,1.8,1.8c0,0.5-0.2,0.9-0.5,1.3l-45.3,45.3
			c-0.7,0.7-1.8,0.6-2.5-0.1c-0.6-0.7-0.6-1.7,0-2.4l45.3-45.3C-9198.2,4541.1-9197.8,4540.9-9197.3,4540.9z"/>
		<path id="Path_22385-2" class="st0" d="M-9319.7,4663.3c1,0,1.8,0.8,1.8,1.8c0,0.5-0.2,0.9-0.5,1.3l-44.8,44.8
			c-0.7,0.7-1.8,0.6-2.5-0.1c-0.6-0.7-0.6-1.7,0-2.4l44.8-44.8C-9320.6,4663.5-9320.2,4663.3-9319.7,4663.3z"/>
		<path id="Path_22386-2" class="st1" d="M-9340.1,4685.5"/>
		<path id="Path_22387-2" class="st3" d="M-9230.4,4546.1c1,0,1.8,0.8,1.8,1.8c0,0.5-0.2,0.9-0.5,1.2l-54,54
			c-0.7,0.7-1.8,0.6-2.5-0.1c-0.6-0.7-0.6-1.7,0-2.4l54-54C-9231.3,4546.3-9230.9,4546.1-9230.4,4546.1z"/>
		<path id="Path_22388-2" class="st1" d="M-9345.2,4660.9c1,0,1.8,0.8,1.8,1.8c0,0.5-0.2,0.9-0.5,1.2l-41.8,41.8
			c-0.7,0.7-1.8,0.8-2.5,0.1c-0.7-0.7-0.8-1.8-0.1-2.5c0,0,0.1-0.1,0.1-0.1l22.5-22.5l0,0l19.3-19.3
			C-9346.1,4661.1-9345.7,4660.9-9345.2,4660.9z"/>
		<path id="Path_22389-2" class="st1" d="M-9340.1,4657.6"/>
		<path id="Path_22390-2" class="st1" d="M-9359.3,4676.8"/>
		<path id="Path_22391-2" class="st1" d="M-9197.3,4485.2c1,0,1.8,0.8,1.8,1.8c0,0.5-0.2,0.9-0.5,1.3l-31.3,31.3
			c-0.7,0.7-1.8,0.6-2.5-0.1c-0.6-0.7-0.6-1.7,0-2.4l31.3-31.3C-9198.2,4485.4-9197.8,4485.2-9197.3,4485.2z"/>
		<path id="Path_22392-2" class="st1" d="M-9270.5,4560.1"/>
		<path id="Path_22393-2" class="st1" d="M-9326.2,4614c1,0,1.8,0.8,1.8,1.8c0,0.5-0.2,0.9-0.5,1.2l-41.8,41.8
			c-0.7,0.7-1.8,0.6-2.5-0.1c-0.6-0.7-0.6-1.7,0-2.4l41.8-41.8C-9327.1,4614.2-9326.7,4614-9326.2,4614z"/>
		<path id="Path_22394-2" class="st1" d="M-9242.6,4502.6c1,0,1.8,0.8,1.8,1.8c0,0.5-0.2,0.9-0.5,1.3l-43.5,43.5
			c-0.7,0.7-1.8,0.6-2.5-0.1c-0.6-0.7-0.6-1.7,0-2.4l43.5-43.5C-9243.5,4502.8-9243.1,4502.6-9242.6,4502.6z"/>
		<path id="Path_22395-2" class="st0" d="M-9326.2,4586.2c1,0,1.8,0.8,1.8,1.8c0,0.5-0.2,0.9-0.5,1.3l-45.3,45.3
			c-0.7,0.7-1.8,0.8-2.5,0.1c-0.7-0.7-0.8-1.8-0.1-2.5c0,0,0.1-0.1,0.1-0.1l45.3-45.3C-9327.1,4586.4-9326.7,4586.2-9326.2,4586.2z"
			/>
		<path id="Path_22396-2" class="st1" d="M-9228.7,4460.8c1,0,1.8,0.8,1.8,1.8c0,0.5-0.2,0.9-0.5,1.2l-37.2,37.2
			c-0.7,0.7-1.8,0.6-2.5-0.1c-0.6-0.7-0.6-1.7,0-2.4l37.2-37.2C-9229.6,4461-9229.1,4460.8-9228.7,4460.8z"/>
		<path id="Path_22397-2" class="st3" d="M-9335.3,4567.4c1,0,1.8,0.8,1.8,1.8c0,0.5-0.2,0.9-0.5,1.2l-46.6,46.6
			c-0.7,0.7-1.8,0.6-2.5-0.1c-0.6-0.7-0.6-1.7,0-2.4l46.6-46.6C-9336.2,4567.6-9335.8,4567.4-9335.3,4567.4z"/>
		<path id="Path_22398-2" class="st1" d="M-9391.3,4623.4c1,0,1.8,0.8,1.8,1.8c0,0.5-0.2,0.9-0.5,1.2l-27.9,27.9
			c-0.7,0.7-1.8,0.8-2.5,0.1c-0.7-0.7-0.8-1.8-0.1-2.5c0,0,0.1-0.1,0.1-0.1l27.9-27.9C-9392.2,4623.6-9391.8,4623.4-9391.3,4623.4z"
			/>
		<path id="Path_22399-2" class="st2" d="M-9256.5,4460.8c1,0,1.8,0.8,1.8,1.8c0,0.5-0.2,0.9-0.5,1.3l-55.7,55.7
			c-0.7,0.7-1.8,0.6-2.5-0.1c-0.6-0.7-0.6-1.7,0-2.4l55.7-55.7C-9257.4,4461-9257,4460.8-9256.5,4460.8z"/>
		<path id="Path_22400-2" class="st1" d="M-9284.4,4462.6"/>
		<path id="Path_22401-2" class="st1" d="M-9423.7,4546.2"/>
		<path id="Path_22402-2" class="st3" d="M-9261.2,4716.3c1,0,1.8,0.8,1.8,1.8c0,0.5-0.2,0.9-0.5,1.3l-15.7,15.7
			c-0.7,0.7-1.8,0.6-2.5-0.1c-0.6-0.7-0.6-1.7,0-2.4l15.7-15.7C-9262.2,4716.5-9261.7,4716.3-9261.2,4716.3z"/>
		<path id="Path_22403-2" class="st1" d="M-9279.4,4511.5c1,0,1.8,0.8,1.8,1.8c0,0.5-0.2,0.9-0.5,1.2l-46.6,46.6
			c-0.7,0.7-1.8,0.6-2.5-0.1c-0.6-0.7-0.6-1.7,0-2.4l46.6-46.6C-9280.3,4511.7-9279.9,4511.5-9279.4,4511.5z"/>
		<path id="Path_22404-2" class="st1" d="M-8754.9,4349.3c1,0,1.8,0.8,1.8,1.8c0,0.5-0.2,0.9-0.5,1.3l-111.5,111.5
			c-0.7,0.7-1.8,0.6-2.5-0.1c-0.6-0.7-0.6-1.7,0-2.4l111.5-111.5C-8755.9,4349.5-8755.4,4349.3-8754.9,4349.3z"/>
		<path id="Path_22405-2" class="st1" d="M-8812.7,4379.2c1,0,1.8,0.8,1.8,1.8c0,0.5-0.2,0.9-0.5,1.3l-81.5,81.5
			c-0.7,0.7-1.8,0.6-2.5-0.1c-0.6-0.7-0.6-1.7,0-2.4l81.5-81.5C-8813.6,4379.4-8813.2,4379.2-8812.7,4379.2z"/>
		<path id="Path_22406-2" class="st1" d="M-8812.7,4379.2c1,0,1.8,0.8,1.8,1.8c0,0.5-0.2,0.9-0.5,1.3l-36.3,36.3
			c-0.7,0.7-1.8,0.6-2.5-0.1c-0.6-0.7-0.6-1.7,0-2.4l36.3-36.3C-8813.6,4379.4-8813.2,4379.2-8812.7,4379.2z"/>
		<path id="Path_22407-2" class="st1" d="M-8768.9,4307.5c1,0,1.8,0.8,1.8,1.8c0,0.5-0.2,0.9-0.5,1.3l-75.3,75.3
			c-0.7,0.7-1.8,0.6-2.5-0.1c-0.6-0.7-0.6-1.7,0-2.4l75.3-75.3C-8769.8,4307.7-8769.3,4307.5-8768.9,4307.5z"/>
		<path id="Path_22408-2" class="st1" d="M-8851.6,4390.3c1,0,1.8,0.8,1.8,1.8c0,0.5-0.2,0.9-0.5,1.2l-70.5,70.5
			c-0.7,0.7-1.8,0.6-2.5-0.1c-0.6-0.7-0.6-1.7,0-2.4l70.5-70.5C-8852.5,4390.5-8852.1,4390.3-8851.6,4390.3z"/>
		<path id="Path_22409-2" class="st1" d="M-8810.7,4321.5c1,0,1.8,0.8,1.8,1.8c0,0.5-0.2,0.9-0.5,1.2l-82.7,82.7
			c-0.7,0.7-1.8,0.6-2.5-0.1c-0.6-0.7-0.6-1.7,0-2.4l82.7-82.7C-8811.6,4321.6-8811.1,4321.5-8810.7,4321.5z"/>
		<path id="Path_22410-2" class="st2" d="M-8859.4,4370.2c1,0,1.8,0.8,1.8,1.8c0,0.5-0.2,0.9-0.5,1.3l-33.9,33.9
			c-0.7,0.7-1.8,0.6-2.5-0.1c-0.6-0.7-0.6-1.7,0-2.4l33.9-33.9C-8860.4,4370.4-8859.9,4370.2-8859.4,4370.2z"/>
		<path id="Path_22411-2" class="st0" d="M-8905.5,4416.3c1,0,1.8,0.8,1.8,1.8c0,0.5-0.2,0.9-0.5,1.3l-44.5,44.5
			c-0.7,0.7-1.8,0.6-2.5-0.1c-0.6-0.7-0.6-1.7,0-2.4l44.5-44.5C-8906.5,4416.5-8906,4416.3-8905.5,4416.3z"/>
		<path id="Path_22412-2" class="st0" d="M-8782.8,4265.7c1,0,1.8,0.8,1.8,1.8c0,0.5-0.2,0.9-0.5,1.2l-69.7,69.7
			c-0.7,0.7-1.8,0.6-2.5-0.1c-0.6-0.7-0.6-1.7,0-2.4l69.7-69.7C-8783.7,4265.9-8783.3,4265.7-8782.8,4265.7z"/>
		<path id="Path_22413-2" class="st1" d="M-8866.4,4349.3c1,0,1.8,0.8,1.8,1.8c0,0.5-0.2,0.9-0.5,1.3l-111.5,111.5
			c-0.7,0.7-1.8,0.6-2.5-0.1c-0.6-0.7-0.6-1.7,0-2.4l111.5-111.5C-8867.3,4349.5-8866.9,4349.3-8866.4,4349.3z"/>
		<path id="Path_22414-2" class="st1" d="M-8950,4434.7"/>
		<path id="Path_22415-2" class="st1" d="M-8796.7,4251.8c1,0,1.8,0.8,1.8,1.8c0,0.5-0.2,0.9-0.5,1.3l-69.7,69.7
			c-0.7,0.7-1.8,0.6-2.5-0.1c-0.6-0.7-0.6-1.7,0-2.4l69.7-69.7C-8797.7,4252-8797.2,4251.8-8796.7,4251.8z"/>
		<path id="Path_22416-2" class="st1" d="M-8844.4,4299.5c1,0,1.8,0.8,1.8,1.8c0,0.5-0.2,0.9-0.5,1.3l-29.4,29.4
			c-0.7,0.7-1.8,0.6-2.5-0.1c-0.6-0.7-0.6-1.7,0-2.4l29.4-29.4C-8845.3,4299.7-8844.9,4299.5-8844.4,4299.5z"/>
		<path id="Path_22417-2" class="st3" d="M-8880.3,4335.4c1,0,1.8,0.8,1.8,1.8c0,0.5-0.2,0.9-0.5,1.3l-69.7,69.7
			c-0.7,0.7-1.8,0.6-2.5-0.1c-0.6-0.7-0.6-1.7,0-2.4l69.7-69.7C-8881.3,4335.6-8880.8,4335.4-8880.3,4335.4z"/>
		<path id="Path_22418-2" class="st1" d="M-8963.9,4419c1,0,1.8,0.8,1.8,1.8c0,0.5-0.2,0.9-0.5,1.3l-41.8,41.8
			c-0.7,0.7-1.8,0.8-2.5,0.1c-0.7-0.7-0.8-1.8-0.1-2.5c0,0,0.1-0.1,0.1-0.1l41.8-41.8C-8964.8,4419.2-8964.4,4419-8963.9,4419z"/>
		<path id="Path_22419-2" class="st2" d="M-8796.7,4223.9c1,0,1.8,0.8,1.8,1.8c0,0.5-0.2,0.9-0.5,1.3l-76.6,76.6
			c-0.7,0.7-1.8,0.8-2.5,0.1c-0.7-0.7-0.8-1.8-0.1-2.5c0,0,0.1-0.1,0.1-0.1l76.6-76.6C-8797.7,4224.1-8797.2,4223.9-8796.7,4223.9z"
			/>
		<path id="Path_22420-2" class="st1" d="M-8880.3,4307.5c1,0,1.8,0.8,1.8,1.8c0,0.5-0.2,0.9-0.5,1.3l-41.8,41.8
			c-0.7,0.7-1.8,0.6-2.5-0.1c-0.6-0.7-0.6-1.7,0-2.4l41.8-41.8C-8881.3,4307.7-8880.8,4307.5-8880.3,4307.5z"/>
		<path id="Path_22421-2" class="st1" d="M-8985.6,4412.8c1,0,1.8,0.8,1.8,1.8c0,0.5-0.2,0.9-0.5,1.3l-48,48
			c-0.7,0.7-1.8,0.8-2.5,0.1c-0.7-0.7-0.8-1.8-0.1-2.5c0,0,0.1-0.1,0.1-0.1l48-48C-8986.5,4412.9-8986,4412.8-8985.6,4412.8z"/>
		<path id="Path_22422-2" class="st1" d="M-8817.6,4217c1,0,1.8,0.8,1.8,1.8c0,0.5-0.2,0.9-0.5,1.3l-62.7,62.7
			c-0.7,0.7-1.8,0.6-2.5-0.1c-0.6-0.7-0.6-1.7,0-2.4l62.7-62.7C-8818.6,4217.1-8818.1,4217-8817.6,4217z"/>
		<path id="Path_22423-2" class="st1" d="M-8894.3,4293.6c1,0,1.8,0.8,1.8,1.8c0,0.5-0.2,0.9-0.5,1.2l-69.7,69.7
			c-0.7,0.7-1.8,0.6-2.5-0.1c-0.6-0.7-0.6-1.7,0-2.4l69.7-69.7C-8895.2,4293.8-8894.7,4293.6-8894.3,4293.6z"/>
		<path id="Path_22424-2" class="st1" d="M-8977.9,4377.2c1,0,1.8,0.8,1.8,1.8c0,0.5-0.2,0.9-0.5,1.2l-55.7,55.7
			c-0.7,0.7-1.8,0.6-2.5-0.1c-0.6-0.7-0.6-1.7,0-2.4l55.7-55.7C-8978.8,4377.4-8978.3,4377.2-8977.9,4377.2z"/>
		<path id="Path_22425-2" class="st1" d="M-9044.3,4443.7c1,0,1.8,0.8,1.8,1.8c0,0.5-0.2,0.9-0.5,1.2l-17.1,17.1
			c-0.7,0.7-1.8,0.6-2.5-0.1c-0.6-0.7-0.6-1.7,0-2.4l17.1-17.1C-9045.3,4443.8-9044.8,4443.7-9044.3,4443.7z"/>
		<path id="Path_22426-2" class="st1" d="M-8817.6,4189.1c1,0,1.8,0.8,1.8,1.8c0,0.5-0.2,0.9-0.5,1.3l-48.8,48.8
			c-0.7,0.7-1.8,0.6-2.5-0.1c-0.6-0.7-0.6-1.7,0-2.4l48.8-48.8C-8818.6,4189.3-8818.1,4189.1-8817.6,4189.1z"/>
		<path id="Path_22427-2" class="st0" d="M-8880.3,4251.8c1,0,1.8,0.8,1.8,1.8c0,0.5-0.2,0.9-0.5,1.3l-41.8,41.8
			c-0.7,0.7-1.8,0.6-2.5-0.1c-0.6-0.7-0.6-1.7,0-2.4l41.8-41.8C-8881.3,4252-8880.8,4251.8-8880.3,4251.8z"/>
		<path id="Path_22428-2" class="st1" d="M-8936.1,4307.5c1,0,1.8,0.8,1.8,1.8c0,0.5-0.2,0.9-0.5,1.2l-69.7,69.7
			c-0.7,0.7-1.8,0.6-2.5-0.1c-0.6-0.7-0.6-1.7,0-2.4l69.7-69.7C-8937,4307.7-8936.5,4307.5-8936.1,4307.5z"/>
		<line id="Line_6944-2" class="st4" x1="-9047.5" y1="4420.8" x2="-9019.7" y2="4392.9"/>
		<path id="Path_22429-2" class="st1" d="M-9061.5,4432.9c1,0,1.8,0.8,1.8,1.8c0,0.5-0.2,0.9-0.5,1.3l-27.9,27.9
			c-0.7,0.7-1.8,0.6-2.5-0.1c-0.6-0.7-0.6-1.7,0-2.4l27.9-27.9C-9062.4,4433.1-9061.9,4432.9-9061.5,4432.9z"/>
		<path id="Path_22430-2" class="st1" d="M-8814.2,4157.7c1,0,1.8,0.8,1.8,1.8c0,0.5-0.2,0.9-0.5,1.2l-1.7,1.7
			c-0.7,0.7-1.8,0.6-2.5-0.1c-0.6-0.7-0.6-1.7,0-2.4l1.7-1.7C-8815.1,4157.9-8814.6,4157.7-8814.2,4157.7z"/>
		<path id="Path_22431-2" class="st0" d="M-8812.4,4156c1,0,1.8,0.8,1.8,1.8c0,0.5-0.2,0.9-0.5,1.3l-26.1,26.1
			c-0.7,0.7-1.8,0.6-2.5-0.1c-0.6-0.7-0.6-1.7,0-2.4l26.1-26.1C-8813.3,4156.2-8812.9,4156-8812.4,4156z"/>
		<path id="Path_22432-2" class="st1" d="M-8852.5,4196.1c1,0,1.8,0.8,1.8,1.8c0,0.5-0.2,0.9-0.5,1.3l-125.4,125.4
			c-0.7,0.7-1.8,0.6-2.5-0.1c-0.6-0.7-0.6-1.7,0-2.4l125.4-125.4C-8853.4,4196.2-8852.9,4196.1-8852.5,4196.1z"/>
		<path id="Path_22433-2" class="st1" d="M-8991.8,4337.2"/>
		<path id="Path_22434-2" class="st1" d="M-8991.8,4335.4c1,0,1.8,0.8,1.8,1.8c0,0.5-0.2,0.9-0.5,1.3l-55.7,55.7
			c-0.7,0.7-1.8,0.6-2.5-0.1c-0.6-0.7-0.6-1.7,0-2.4l55.7-55.7C-8992.7,4335.6-8992.3,4335.4-8991.8,4335.4z"/>
		<path id="Path_22435-2" class="st1" d="M-9061.5,4405c1,0,1.8,0.8,1.8,1.8c0,0.5-0.2,0.9-0.5,1.3l-55.7,55.7
			c-0.7,0.7-1.8,0.6-2.5-0.1c-0.6-0.7-0.6-1.7,0-2.4l55.7-55.7C-9062.4,4405.2-9061.9,4405.1-9061.5,4405z"/>
		<path id="Path_22436-2" class="st3" d="M-8840.3,4156c1,0,1.8,0.8,1.8,1.8c0,0.5-0.2,0.9-0.5,1.2l-54,54c-0.7,0.7-1.8,0.6-2.5-0.1
			c-0.6-0.7-0.6-1.7,0-2.4l54-54C-8841.2,4156.2-8840.7,4156-8840.3,4156z"/>
		<path id="Path_22437-2" class="st1" d="M-9003.4,4319.1c1,0,1.8,0.8,1.8,1.8c0,0.5-0.2,0.9-0.5,1.2l-16.3,16.3
			c-0.7,0.7-1.8,0.6-2.5-0.1c-0.6-0.7-0.6-1.7,0-2.4l16.3-16.3C-9004.3,4319.3-9003.8,4319.1-9003.4,4319.1z"/>
		<path id="Path_22438-2" class="st1" d="M-9033.6,4349.3c1,0,1.8,0.8,1.8,1.8c0,0.5-0.2,0.9-0.5,1.3l-55.7,55.7
			c-0.7,0.7-1.8,0.6-2.5-0.1c-0.6-0.7-0.6-1.7,0-2.4l55.7-55.7C-9034.5,4349.5-9034.1,4349.3-9033.6,4349.3z"/>
		<path id="Path_22439-2" class="st1" d="M-9033.6,4349.3c1,0,1.8,0.8,1.8,1.8c0,0.5-0.2,0.9-0.5,1.3l-25.1,25.1
			c-0.7,0.7-1.8,0.6-2.5-0.1c-0.6-0.7-0.6-1.7,0-2.4l25.1-25.1C-9034.5,4349.5-9034.1,4349.3-9033.6,4349.3z"/>
		<path id="Path_22440-2" class="st1" d="M-9103.3,4419c1,0,1.8,0.8,1.8,1.8c0,0.5-0.2,0.9-0.5,1.3l-41.8,41.8
			c-0.7,0.7-1.8,0.6-2.5-0.1c-0.6-0.7-0.6-1.7,0-2.4l41.8-41.8C-9104.2,4419.2-9103.7,4419-9103.3,4419z"/>
		<path id="Path_22441-2" class="st2" d="M-8926.3,4214.2c1,0,1.8,0.8,1.8,1.8c0,0.5-0.2,0.9-0.5,1.3l-37.6,37.6
			c-0.7,0.7-1.8,0.6-2.5-0.1c-0.6-0.7-0.6-1.7,0-2.4l37.6-37.6C-8927.2,4214.4-8926.8,4214.2-8926.3,4214.2z"/>
		<path id="Path_22442-2" class="st3" d="M-8977.9,4265.7c1,0,1.8,0.8,1.8,1.8c0,0.5-0.2,0.9-0.5,1.2l-97.5,97.5
			c-0.7,0.7-1.8,0.6-2.5-0.1c-0.6-0.7-0.6-1.7,0-2.4l97.5-97.5C-8978.8,4265.9-8978.3,4265.7-8977.9,4265.7z"/>
		<path id="Path_22443-2" class="st1" d="M-9047.5,4335.4c1,0,1.8,0.8,1.8,1.8c0,0.5-0.2,0.9-0.5,1.3l-27.9,27.9
			c-0.7,0.7-1.8,0.6-2.5-0.1c-0.6-0.7-0.6-1.7,0-2.4l27.9-27.9C-9048.4,4335.6-9048,4335.4-9047.5,4335.4z"/>
		<path id="Path_22444-2" class="st0" d="M-9089.3,4377.2c1,0,1.8,0.8,1.8,1.8c0,0.5-0.2,0.9-0.5,1.3l-55.7,55.7
			c-0.7,0.7-1.8,0.6-2.5-0.1c-0.6-0.7-0.6-1.7,0-2.4l55.7-55.7C-9090.2,4377.4-9089.8,4377.2-9089.3,4377.2z"/>
		<path id="Path_22445-2" class="st1" d="M-9159,4446.8c1,0,1.8,0.8,1.8,1.8c0,0.5-0.2,0.9-0.5,1.3l-13.9,13.9
			c-0.7,0.7-1.8,0.6-2.5-0.1c-0.6-0.7-0.6-1.7,0-2.4l13.9-13.9C-9159.9,4447-9159.5,4446.8-9159,4446.8z"/>
		<path id="Path_22446-2" class="st1" d="M-9019.7,4279.7c1,0,1.8,0.8,1.8,1.8c0,0.5-0.2,0.9-0.5,1.2l-27.9,27.9
			c-0.7,0.7-1.8,0.8-2.5,0.1c-0.7-0.7-0.8-1.8-0.1-2.5c0,0,0.1-0.1,0.1-0.1l27.9-27.9C-9020.6,4279.8-9020.1,4279.7-9019.7,4279.7z"
			/>
		<path id="Path_22447-2" class="st3" d="M-9131.1,4391.1c1,0,1.8,0.8,1.8,1.8c0,0.5-0.2,0.9-0.5,1.2l-94,94
			c-0.7,0.7-1.8,0.6-2.5-0.1c-0.6-0.7-0.6-1.7,0-2.4l94-94C-9132,4391.3-9131.6,4391.1-9131.1,4391.1z"/>
		<path id="Path_22448-2" class="st1" d="M-9131.1,4391.1c1,0,1.8,0.8,1.8,1.8c0,0.5-0.2,0.9-0.5,1.2l-31.4,31.4
			c-0.7,0.7-1.8,0.6-2.5-0.1c-0.6-0.7-0.6-1.7,0-2.4l31.4-31.4C-9132,4391.3-9131.6,4391.1-9131.1,4391.1z"/>
		<path id="Path_22449-2" class="st1" d="M-8936.1,4170"/>
		<path id="Path_22450-2" class="st2" d="M-9033.6,4265.7c1,0,1.8,0.8,1.8,1.8c0,0.5-0.2,0.9-0.5,1.3l-55.7,55.7
			c-0.7,0.7-1.8,0.6-2.5-0.1c-0.6-0.7-0.6-1.7,0-2.4l55.7-55.7C-9034.5,4265.9-9034.1,4265.7-9033.6,4265.7z"/>
		<path id="Path_22451-2" class="st1" d="M-9103.3,4335.4c1,0,1.8,0.8,1.8,1.8c0,0.5-0.2,0.9-0.5,1.3l-27.9,27.9
			c-0.7,0.7-1.8,0.6-2.5-0.1c-0.6-0.7-0.6-1.7,0-2.4l27.9-27.9C-9104.2,4335.6-9103.7,4335.4-9103.3,4335.4z"/>
		<path id="Path_22452-2" class="st1" d="M-9145.1,4377.2c1,0,1.8,0.8,1.8,1.8c0,0.5-0.2,0.9-0.5,1.3l-55.7,55.7
			c-0.7,0.7-1.8,0.6-2.5-0.1c-0.6-0.7-0.6-1.7,0-2.4l55.7-55.7C-9146,4377.4-9145.5,4377.2-9145.1,4377.2z"/>
		<path id="Path_22453-2" class="st3" d="M-9005.7,4210c1,0,1.8,0.8,1.8,1.8c0,0.5-0.2,0.9-0.5,1.2l-69.7,69.7
			c-0.7,0.7-1.8,0.6-2.5-0.1c-0.6-0.7-0.6-1.7,0-2.4l69.7-69.7C-9006.6,4210.2-9006.2,4210-9005.7,4210z"/>
		<path id="Path_22454-2" class="st0" d="M-9159,4363.3c1,0,1.8,0.8,1.8,1.8c0,0.5-0.2,0.9-0.5,1.3l-41.8,41.8
			c-0.7,0.7-1.8,0.6-2.5-0.1c-0.6-0.7-0.6-1.7,0-2.4l41.8-41.8C-9159.9,4363.4-9159.5,4363.3-9159,4363.3z"/>
		<path id="Path_22455-2" class="st1" d="M-8809.1,4431.4c1,0,1.8,0.8,1.8,1.8c0,0.5-0.2,0.9-0.5,1.2l-28.5,28.5
			c-0.7,0.7-1.8,0.6-2.5-0.1c-0.6-0.7-0.6-1.7,0-2.4l28.5-28.5C-8810,4431.6-8809.6,4431.4-8809.1,4431.4z"/>
		<path id="Path_22456-2" class="st1" d="M-8949.5,4376.7c1,0,1.8,0.8,1.8,1.8c0,0.5-0.2,0.9-0.5,1.2l-17.2,17.2
			c-0.7,0.7-1.8,0.6-2.5-0.1c-0.6-0.7-0.6-1.7,0-2.4l17.2-17.2C-8950.4,4376.8-8949.9,4376.7-8949.5,4376.7z"/>
		<path id="Path_22457-2" class="st1" d="M-8906.6,4222.4c1,0,1.8,0.8,1.8,1.8c0,0.5-0.2,0.9-0.5,1.3l-86.7,86.7
			c-0.7,0.7-1.8,0.6-2.5-0.1c-0.6-0.7-0.6-1.7,0-2.4l86.7-86.7C-8907.5,4222.5-8907.1,4222.4-8906.6,4222.4z"/>
	</g>
</g>
</svg>
