<?xml version="1.0" encoding="utf-8"?>
<!-- Generator: Adobe Illustrator 23.0.3, SVG Export Plug-In . SVG Version: 6.00 Build 0)  -->
<svg version="1.1" id="Layer_1" xmlns="http://www.w3.org/2000/svg" xmlns:xlink="http://www.w3.org/1999/xlink" x="0px" y="0px"
	 viewBox="0 0 1164.6 294.2" style="enable-background:new 0 0 1164.6 294.2;" xml:space="preserve">
<style type="text/css">
	.st0{fill:none;stroke:#FA8D28;stroke-width:3.5;stroke-linecap:round;stroke-miterlimit:10;}
	.st1{fill:none;stroke:#9DB6CB;stroke-width:3.5;stroke-linecap:round;stroke-miterlimit:10;}
	.st2{fill:none;stroke:#00A8E1;stroke-width:3.5;stroke-linecap:round;stroke-miterlimit:10;}
	.st3{fill:none;stroke:#E4EBF1;stroke-width:3.5;stroke-linecap:round;stroke-miterlimit:10;}
</style>
<g id="Color_5">
	<path class="st0" d="M2.6,20.1c24.8,0,24.8-18.4,49.6-18.4S77,20.1,101.8,20.1c17.2,0,22.4-8.8,32.3-14.2"/>
	<path id="Master" class="st0" d="M481.8,40.5c0.3,0.1,0.5,0.3,0.8,0.4c5,2.4,10.4,3.5,15.9,3.4c24.8,0,24.8-18.4,49.6-18.4
		s24.8,18.4,49.6,18.4c8.3,0.1,16.4-2.8,22.7-8.3"/>
	<path id="Master-2" class="st0" d="M349.1,76.1h0.5c24.8,0,24.8,18.4,49.6,18.4s24.8-18.4,49.6-18.4c24.8,0,24.8,18.4,49.6,18.4
		c24.8,0,24.8-18.4,49.6-18.4c1.4,0,2.8,0.1,4.1,0.2"/>
	<path id="Master-3" class="st0" d="M547.3,76.1h0.7c24.8,0,24.8,18.4,49.6,18.4c8.3,0.1,16.4-2.8,22.7-8.3"/>
	<path id="Master-4" class="st0" d="M428,106.8c6.1-4.4,13.4-6.6,20.9-6.4c24.8,0,24.8,18.4,49.6,18.4c17.1,0,22.4-8.8,32.3-14.2"/>
	<path id="Master-5" class="st0" d="M2.6,168.5c24.8,0,24.8-18.4,49.6-18.4s24.8,18.4,49.6,18.4s24.8-18.4,49.6-18.4
		c7-0.2,13.9,1.8,19.8,5.6c0.1,0,0.1,0.1,0.2,0.1"/>
	<path id="Master-6" class="st0" d="M427.8,231c6.1-4.4,13.5-6.7,21.1-6.5c24.8,0,24.8,18.4,49.6,18.4c24.8,0,24.8-18.4,49.6-18.4
		s24.8,18.4,49.6,18.4c8.3,0.1,16.4-2.8,22.7-8.3"/>
	<path id="Master-7" class="st0" d="M2.6,267.2c24.8,0,24.8-18.4,49.6-18.4s24.8,18.4,49.6,18.4s24.8-18.4,49.6-18.4
		s24.8,18.4,49.6,18.4s24.8-18.4,49.6-18.4c5.8-0.1,11.5,1.2,16.6,3.8"/>
	<path id="Master-8" class="st0" d="M746.4,100.3h0.2c23.8,0.5,24.1,18.3,48.6,18.3c24.8,0,24.8-18.4,49.6-18.4
		c7.2,0,12.3,1.5,16.5,3.7"/>
	<path id="Master-9" class="st0" d="M782.6,166.8c0.3,0.1,0.6,0.2,1,0.3c3.8,1.2,7.7,1.7,11.6,1.7c24.8,0,24.8-18.4,49.6-18.4
		s24.8,18.4,49.6,18.4s24.8-18.4,49.6-18.4s24.8,18.4,49.6,18.4s24.8-18.4,49.6-18.4"/>
	<path id="Master-10" class="st0" d="M1091.9,193.5"/>
	<path id="Master-11_3_" class="st0" d="M877.2,214c5.3,2.8,11.2,4.2,17.1,4c24.8,0,24.8-18.4,49.6-18.4s24.8,18.4,49.6,18.4
		s24.8-18.4,49.6-18.4s24.8,18.4,49.6,18.4s24.8-18.4,49.6-18.4"/>
	<path id="Master-11_1_" class="st0" d="M993.5,69.4c24.8,0,24.8-18.4,49.6-18.4s24.8,18.4,49.6,18.4"/>
</g>
<g id="Color_4">
	<path id="Master-12" class="st1" d="M118.2,40.8c10.5-5.4,15.5-14.7,33.2-14.7c24.8,0,24.8,18.4,49.6,18.4S225.8,26,250.6,26
		c9,0,14.7,2.4,19.5,5.5"/>
	<path id="Master-13" class="st1" d="M266.1,29.2c0.1,0,0.1,0,0.2,0.1c10.8,5.3,15.8,15,33.7,15c24.8,0,24.8-18.4,49.6-18.4
		c7-0.2,13.9,1.8,19.7,5.6l2.7,1.8"/>
	<path id="Master-14" class="st1" d="M370.1,32c8,5.3,13.9,12.3,29.1,12.3c24.8,0,24.8-18.4,49.6-18.4c5.3-0.1,10.6,1,15.5,3.2
		l0.6,0.3"/>
	<path id="Master-15" class="st1" d="M386.6,141.6c4.1,1.5,8.4,2.2,12.7,2.1c24.8,0,24.8-18.4,49.6-18.4s24.8,18.4,49.6,18.4
		s24.8-18.4,49.6-18.4s24.8,18.4,49.6,18.4c8.3,0.1,16.4-2.8,22.7-8.3"/>
	<path id="Master-16" class="st1" d="M85.2,190c5.2,2.6,10.9,3.9,16.7,3.8c24.8,0,24.8-18.4,49.6-18.4s24.8,18.4,49.6,18.4
		s24.8-18.4,49.6-18.4s24.8,18.4,49.6,18.4c9.4,0,15.2-2.6,20.1-5.9c0.1-0.1,0.3-0.2,0.4-0.3"/>
	<path id="Master-17" class="st1" d="M2.6,242.8c24.8,0,24.8-18.4,49.6-18.4s24.8,18.4,49.6,18.4s24.8-18.4,49.6-18.4
		c8.6,0,14.2,2.2,18.9,5.1c0.5,0.3,0.9,0.6,1.4,0.9"/>
	<path id="Master-18" class="st1" d="M283.1,213.8c5.3,2.8,11.2,4.2,17.1,4c24.8,0,24.8-18.4,49.6-18.4s24.8,18.4,49.6,18.4
		s24.8-18.4,49.6-18.4c24.8,0,24.8,18.4,49.6,18.4c24.8,0,24.8-18.4,49.6-18.4c9.6,0,15.4,2.7,20.5,6.1"/>
	<path id="Master-19" class="st1" d="M1.8,292.3c24.8,0,24.8-18.4,49.6-18.4s24.8,18.4,49.6,18.4c5.9,0.2,11.8-1.2,17-4"/>
	<path id="Master-20" class="st1" d="M795.1,69.4c24.8,0,24.8-18.4,49.6-18.4s24.8,18.4,49.6,18.4S919.1,51,943.9,51
		s24.8,18.4,49.6,18.4"/>
	<path id="Master-20_1_" class="st1" d="M795.1,20.1c24.8,0,24.8-18.4,49.6-18.4s24.8,18.4,49.6,18.4s24.8-18.4,49.6-18.4
		s24.8,18.4,49.6,18.4"/>
	<path id="Master-20_3_" class="st1" d="M894.3,44.3c24.8,0,24.8-18.4,49.6-18.4s24.8,18.4,49.6,18.4"/>
	<path id="Master-21" class="st1" d="M596.8,94.5c24.8,0,24.8-18.4,49.6-18.4s24.8,18.4,49.6,18.4s24.8-18.4,49.6-18.4
		s24.8,18.4,49.6,18.4s24.8-18.4,49.6-18.4s24.8,18.4,49.6,18.4c17.4,0,22.6-9.1,32.8-14.5"/>
	<path id="Master-22" class="st1" d="M781.8,240.8c0.9,0.4,1.8,0.7,2.8,0.9c3.4,0.9,6.9,1.3,10.4,1.3c24.8,0,24.8-18.4,49.6-18.4
		s24.8,18.4,49.6,18.4s24.8-18.4,49.6-18.4s24.8,18.4,49.6,18.4c5.6,0.1,11.2-1.1,16.2-3.6"/>
	<path id="Master-23" class="st1" d="M877.2,263.2c5.3,2.8,11.2,4.2,17.1,4c24.8,0,24.8-18.4,49.6-18.4s24.8,18.4,49.6,18.4
		s24.8-18.4,49.6-18.4s24.8,18.4,49.6,18.4"/>
	<path id="Master-24" class="st1" d="M728.6,277.2c4.9-2.3,10.2-3.4,15.6-3.3c24.8,0,24.8,18.4,49.6,18.4s24.8-18.4,49.6-18.4h1.3"
		/>
</g>
<g id="Color_2">
	<path id="Master-47" class="st2" d="M2.6,44.3c24.8,0,24.8-18.4,49.6-18.4c24.4,0,24.8,17.8,48.4,18.3h0.5"/>
	<path id="Master-48" class="st2" d="M201,69.4c24.8,0,24.8-18.4,49.6-18.4s24.8,18.4,49.6,18.4S325,51,349.8,51
		s24.8,18.4,49.6,18.4S424.2,51,449,51s24.8,18.4,49.6,18.4S523.4,51,548.2,51c9.4,0,15.3,2.6,20.2,5.9"/>
	<path id="Master-49" class="st2" d="M283.4,114.8c5.2,2.7,11,4.1,16.8,3.9c24.8,0,24.8-18.4,49.6-18.4s24.8,18.4,49.6,18.4
		c5.5,0.1,10.9-1,15.8-3.4"/>
	<path id="Master-50" class="st2" d="M234.1,129.1c4.2-2.2,9.3-3.7,16.5-3.7c24.8,0,24.8,18.4,49.6,18.4s24.8-18.4,49.6-18.4
		c7.2-0.2,14.3,1.9,20.3,5.9"/>
	<path id="Master-51" class="st2" d="M2.6,143.8c24.8,0,24.8-18.4,49.6-18.4c24.2,0,24.8,17.5,48,18.3h0.7"/>
	<path class="st2" d="M596.8,20.1c24.8,0,24.8-18.4,49.6-18.4s24.8,18.4,49.6,18.4c17.2,0,22.4-8.8,32.3-14.2"/>
	<path id="Master-52" class="st2" d="M596.8,44.3c24.8,0,24.8-18.4,49.6-18.4c24.4,0,24.8,17.8,48.4,18.3h0.5"/>
	<path id="Master-53" class="st2" d="M745.5,125.3c24.8,0,24.8,18.4,49.6,18.4c5.4,0.1,10.8-1,15.7-3.3"/>
	<path id="Master-54" class="st2" d="M712.5,139.9c5.8-3,10-7.3,15.6-10.4c0.2-0.1,0.3-0.2,0.5-0.3"/>
	<path id="Master-55" class="st2" d="M596.8,168.8c24.8,0,24.8-18.4,49.6-18.4s24.8,18.4,49.6,18.4s24.8-18.4,49.6-18.4
		c7-0.2,13.9,1.8,19.8,5.6c0.1,0,0.1,0.1,0.2,0.1"/>
	<path id="Master-56" class="st2" d="M894.3,243.1c24.8,0,24.8-18.4,49.6-18.4s24.8,18.4,49.6,18.4c5.6,0.1,11.2-1.1,16.2-3.6"/>
	<path id="Master-57" class="st2" d="M595.9,292.3c24.8,0,24.8-18.4,49.6-18.4s24.8,18.4,49.6,18.4c5.9,0.2,11.8-1.2,17-4"/>
	<path id="Master-58" class="st2" d="M580.6,213.8c5.2,2.8,11.1,4.2,17,4c8.3,0.1,16.4-2.8,22.7-8.3"/>
	<path id="Master-11_6_" class="st2" d="M993.5,44.3c24.8,0,24.8-18.4,49.6-18.4"/>
	<path id="Master-11_2_" class="st2" d="M877.2,90.5c5.3,2.8,11.2,4.2,17.1,4c24.8,0,24.8-18.4,49.6-18.4s24.8,18.4,49.6,18.4
		s24.8-18.4,49.6-18.4s24.8,18.4,49.6,18.4s24.8-18.4,49.6-18.4"/>
</g>
<g id="Color_3">
	<path class="st3" d="M151.4,1.8c24.8,0,24.8,18.4,49.6,18.4s24.8-18.4,49.6-18.4s24.8,18.4,49.6,18.4S325,1.8,349.8,1.8
		s24.8,18.4,49.6,18.4c5.5,0.1,10.9-1,15.9-3.4"/>
	<path id="Master-25" class="st3" d="M2.6,94.5c24.8,0,24.8-18.4,49.6-18.4S77,94.5,101.8,94.5s24.8-18.4,49.6-18.4
		s24.8,18.4,49.6,18.4s24.8-18.4,49.6-18.4s24.8,18.4,49.6,18.4c17.4,0,22.6-9.1,32.8-14.5"/>
	<path id="Master-26" class="st3" d="M2.6,118.3c5.6,0.1,11.1-1.1,16.1-3.5"/>
	<path id="Master-27" class="st3" d="M151.4,125.3c24.8,0,24.8,18.4,49.6,18.4c5.4,0.1,10.8-1,15.7-3.3"/>
	<path id="Master-28" class="st3" d="M118.3,139.6c5.8-3,10-7.3,15.6-10.4c0.2-0.1,0.3-0.2,0.5-0.3"/>
	<path id="Master-29_1_" class="st3" d="M568.3,156.1c8.1,5.4,14,12.4,29.3,12.4"/>
	<path id="Master-30" class="st3" d="M2.6,193.5c24.8,0,24.8-18.4,49.6-18.4c5.6-0.1,11.1,1.1,16.1,3.5"/>
	<path id="Master-31" class="st3" d="M333.1,179.2c4.2-2.2,9.3-3.7,16.5-3.7c24.8,0,24.8,18.4,49.6,18.4s24.8-18.4,49.6-18.4
		s24.8,18.4,49.6,18.4c24.8,0,24.8-18.4,49.6-18.4s24.8,18.4,49.6,18.4c8.3,0.1,16.4-2.8,22.7-8.3"/>
	<path id="Master-32" class="st3" d="M300.1,242.8c24.8,0,24.8-18.4,49.6-18.4s24.8,18.4,49.6,18.4c5.6,0.1,11.2-1.1,16.2-3.6"/>
	<path id="Master-33" class="st3" d="M2.6,217.8c24.8,0,24.8-18.4,49.6-18.4s24.8,18.4,49.6,18.4s24.8-18.4,49.6-18.4
		s24.8,18.4,49.6,18.4s24.8-18.4,49.6-18.4c5.5-0.1,10.9,1,15.8,3.4"/>
	<path id="Master-34" class="st3" d="M370,280.5c7.7,5.3,13.6,11.8,28.4,11.8c24.8,0,24.8-18.4,49.6-18.4s24.8,18.4,49.6,18.4
		s24.8-18.4,49.6-18.4s24.8,18.4,49.6,18.4c8.3,0.1,16.4-2.8,22.7-8.3"/>
	<path id="Master-35" class="st3" d="M134.5,277.2c4.9-2.3,10.2-3.4,15.6-3.3c24.8,0,24.8,18.4,49.6,18.4s24.8-18.4,49.6-18.4h1.3"
		/>
	<path id="Master-36" class="st3" d="M596.8,69.4c24.8,0,24.8-18.4,49.6-18.4s24.8,18.4,49.6,18.4S720.8,51,745.6,51
		c19.4,0,23.6,11.3,36.5,16.1"/>
	<path id="Master-38" class="st3" d="M828.2,129.1c4.2-2.2,9.3-3.7,16.5-3.7c24.8,0,24.8,18.4,49.6,18.4s24.8-18.4,49.6-18.4
		c7.2-0.2,14.3,1.9,20.3,5.9"/>
	<path id="Master-39" class="st3" d="M596.8,143.8c24.8,0,24.8-18.4,49.6-18.4c24.2,0,24.8,17.5,48,18.3h0.7"/>
	<path id="Master-40" class="st3" d="M596.1,193.8c24.8,0,24.8-18.4,49.6-18.4c5.6-0.1,11.1,1.1,16.1,3.5"/>
	<path id="Master-41" class="st3" d="M927.3,179.2c4.2-2.2,9.3-3.7,16.5-3.7c24.8,0,24.8,18.4,49.6,18.4s24.8-18.4,49.6-18.4
		s24.8,18.4,49.6,18.4"/>
	<path id="Master-42" class="st3" d="M596.8,218c24.8,0,24.8-18.4,49.6-18.4S671.2,218,696,218s24.8-18.4,49.6-18.4
		s24.8,18.4,49.6,18.4s24.8-18.4,49.6-18.4c5.5-0.1,10.9,1,15.8,3.4"/>
	<path id="Master-43" class="st3" d="M596.8,267.2c24.8,0,24.8-18.4,49.6-18.4s24.8,18.4,49.6,18.4s24.8-18.4,49.6-18.4
		s24.8,18.4,49.6,18.4s24.8-18.4,49.6-18.4c5.8-0.1,11.5,1.2,16.6,3.8"/>
	<path id="Master-44" class="st3" d="M838.8,274.2c1.5-0.2,3.1-0.2,4.6-0.2c24.8,0,24.8,18.4,49.6,18.4s24.8-18.4,49.6-18.4h0.3"/>
	<path id="Master-45" class="st3" d="M580.6,65.4c5.2,2.8,11.1,4.2,17,4c8.3,0.1,16.4-2.8,22.7-8.3"/>
	<path id="Master-46" class="st3" d="M498.4,193.8c24.8,0,24.8-18.4,49.6-18.4s24.8,18.4,49.6,18.4c5.7,0.1,11.4-1.3,16.4-4"/>
	<path class="st3" d="M428.1,8.1c6.1-4.3,13.4-6.5,20.8-6.3c24.8,0,24.8,18.4,49.6,18.4c24.8,0,24.8-18.4,49.6-18.4
		s24.8,18.4,49.6,18.4"/>
	<path id="Master-59" class="st3" d="M2.6,69.4C27.4,69.4,27.4,51,52.2,51S77,69.4,101.8,69.4S126.7,51,151.5,51
		c19.4,0,23.6,11.3,36.5,16.1"/>
	<path id="Master-60" class="st3" d="M152.2,100.3h0.2c23.8,0.5,24.1,18.3,48.6,18.3c24.8,0,24.8-18.4,49.6-18.4
		c7.2,0,12.3,1.5,16.5,3.7"/>
	<path id="Master-61" class="st3" d="M35,104.3c0.5-0.2,0.9-0.5,1.4-0.7c4.9-2.3,10.3-3.4,15.7-3.3c24.8,0,24.8,18.4,49.6,18.4
		s24.8-18.4,49.6-18.4h0.8"/>
	<path id="Master-62" class="st3" d="M547.3,100.3h1.1c24.3,0.2,24.5,18.4,49.1,18.4c8.3,0.1,16.4-2.8,22.7-8.3"/>
	<path id="Master-63" class="st3" d="M188.5,166.5c0.3,0.1,0.6,0.2,1,0.3c3.8,1.2,7.7,1.7,11.6,1.7c24.8,0,24.8-18.4,49.6-18.4
		s24.8,18.4,49.6,18.4s24.8-18.4,49.6-18.4s24.8,18.4,49.6,18.4s24.8-18.4,49.6-18.4c24.8,0,24.8,18.4,49.6,18.4
		c24.2,0,24.8-17.5,47.9-18.3h1.7"/>
	<path id="Master-64" class="st3" d="M187.6,240.5c0.9,0.4,1.8,0.7,2.8,0.9c3.4,0.9,6.9,1.3,10.4,1.3c24.8,0,24.8-18.4,49.6-18.4
		s24.8,18.4,49.6,18.4s24.8-18.4,49.6-18.4s24.8,18.4,49.6,18.4c5.6,0.1,11.2-1.1,16.2-3.6"/>
	<path id="Master-65" class="st3" d="M283.1,263.2c5.3,2.8,11.2,4.2,17.1,4c24.8,0,24.8-18.4,49.6-18.4s24.8,18.4,49.6,18.4
		s24.8-18.4,49.6-18.4c24.8,0,24.8,18.4,49.6,18.4c24.8,0,24.8-18.4,49.6-18.4s24.8,18.4,49.6,18.4"/>
	<path id="Master-66" class="st3" d="M244.6,274.2c1.5-0.2,3.1-0.2,4.6-0.2c24.8,0,24.8,18.4,49.6,18.4s24.8-18.4,49.6-18.4h0.3"/>
	<path id="Master-67" class="st3" d="M712.3,40.8c10.5-5.4,15.5-14.7,33.2-14.7c24.8,0,24.8,18.4,49.6,18.4S819.9,26,844.7,26
		c9,0,14.7,2.4,19.5,5.5"/>
	<path id="Master-68" class="st3" d="M629.2,104.3c0.5-0.2,0.9-0.5,1.4-0.7c4.9-2.3,10.3-3.4,15.7-3.3c24.8,0,24.8,18.4,49.6,18.4
		s24.8-18.4,49.6-18.4h0.8"/>
	<path id="Master-69" class="st3" d="M877.5,114.8c5.2,2.7,11,4.1,16.8,3.9c24.8,0,24.8-18.4,49.6-18.4s24.8,18.4,49.6,18.4
		c5.5,0.1,10.9-1,15.8-3.4"/>
	<path id="Master-70" class="st3" d="M679.3,190c5.2,2.6,10.9,3.9,16.7,3.8c24.8,0,24.8-18.4,49.6-18.4s24.8,18.4,49.6,18.4
		s24.8-18.4,49.6-18.4s24.8,18.4,49.6,18.4c9.4,0,15.2-2.6,20.1-5.9c0.1-0.1,0.3-0.2,0.4-0.3"/>
	<path id="Master-71" class="st3" d="M596.8,243.1c24.8,0,24.8-18.4,49.6-18.4s24.8,18.4,49.6,18.4s24.8-18.4,49.6-18.4
		c8.6,0,14.2,2.2,18.9,5.1c0.5,0.3,0.9,0.6,1.4,0.9"/>
	<path id="Master-11_5_" class="st3" d="M877.2,139.8c5.3,2.8,11.2,4.2,17.1,4c24.8,0,24.8-18.4,49.6-18.4s24.8,18.4,49.6,18.4
		s24.8-18.4,49.6-18.4s24.8,18.4,49.6,18.4"/>
</g>
</svg>
