<svg xmlns="http://www.w3.org/2000/svg" width="302.942" height="163.984" viewBox="0 0 302.942 163.984"><defs><style>.a,.b,.c{fill:none;stroke-linecap:round;stroke-miterlimit:10;stroke-width:3.5px;}.a{stroke:#1d3564;}.b{stroke:#fff;}.c{stroke:#fae164;}</style></defs><g transform="translate(-0.05 -0.05)"><g transform="translate(1.8 16.433)"><path class="a" d="M1.8,37.126C16.736,37.126,16.736,26,31.793,26S46.728,37.126,61.785,37.126" transform="translate(-1.8 -26)"/><path class="b" d="M1.8,87.326c15,0,15-11.126,29.993-11.126.847,0,1.693.06,2.479.121" transform="translate(-1.8 -45.845)"/><path class="b" d="M50.6,76.2h.423c15,0,15,11.126,29.993,11.126" transform="translate(-21.091 -45.845)"/><path class="b" d="M1.8,113.187c10.34,0,13.545-5.321,19.531-8.587" transform="translate(-1.8 -57.071)"/><path class="c" d="M1.8,235.626c15,0,15-11.126,29.993-11.126s15,11.126,29.993,11.126a20.476,20.476,0,0,0,13.726-5.019" transform="translate(-1.8 -104.469)"/><path class="b" d="M249.8,100.36h.121c14.392.3,14.573,11.066,29.388,11.066,15,0,15-11.126,29.993-11.126a20.644,20.644,0,0,1,9.977,2.237" transform="translate(-99.837 -55.372)"/><path class="a" d="M286,160.417c.181.06.363.121.6.181a23.188,23.188,0,0,0,7.014,1.028c15,0,15-11.126,29.993-11.126s15,11.126,29.993,11.126S368.6,150.5,383.6,150.5s15,11.126,29.993,11.126" transform="translate(-114.147 -75.216)"/></g><g transform="translate(1.8 31.611)"><path class="a" d="M1.8,136.526c15,0,15-11.126,29.993-11.126s15,11.126,29.993,11.126" transform="translate(-1.8 -80.472)"/><path class="b" d="M1.9,210.526c15,0,15-11.126,29.993-11.126a20.55,20.55,0,0,1,12.4,3.689" transform="translate(-1.84 -109.725)"/><path class="b" d="M298.5,62.226c15,0,15-11.126,29.993-11.126s15,11.126,29.993,11.126,15-11.126,29.993-11.126" transform="translate(-119.089 -51.1)"/><path class="a" d="M99.5,186.624c15,0,15-11.126,29.993-11.126a21.578,21.578,0,0,1,9.735,2.116" transform="translate(-40.422 -100.274)"/><path class="a" d="M100.2,87.326c15,0,15-11.126,29.993-11.126s15,11.126,29.993,11.126,15-11.126,29.993-11.126,15,11.126,29.993,11.126,15-11.126,29.993-11.126,15,11.126,29.993,11.126" transform="translate(-40.699 -61.022)"/></g><g transform="translate(1.8 31.611)"><path class="b" d="M71.6,156.4c4.9,3.265,8.466,7.5,17.717,7.5" transform="translate(-29.393 -92.726)"/><path class="c" d="M1.8,186.726c15,0,15-11.126,29.993-11.126s14.936,11.126,29.993,11.126" transform="translate(-1.8 -100.316)"/><path class="c" d="M100.2,62.226c15,0,15-11.126,29.993-11.126s15,11.126,29.993,11.126,15-11.126,29.993-11.126c11.731,0,14.271,6.833,22.071,9.735" transform="translate(-40.699 -51.1)"/><path class="c" d="M331.5,127.732a20.644,20.644,0,0,1,9.977-2.237c15,0,15,11.126,29.993,11.126s15-11.126,29.993-11.126a21.117,21.117,0,0,1,12.275,3.568" transform="translate(-132.134 -80.506)"/><path class="c" d="M100.2,136.526c15,0,15-11.126,29.993-11.126,14.633,0,15,10.582,29.025,11.066h.423" transform="translate(-40.699 -80.472)"/><path class="a" d="M100.2,210.724c15,0,15-11.126,29.993-11.126s15,11.126,29.993,11.126,15-11.126,29.993-11.126,15,11.126,29.993,11.126,15-11.126,29.993-11.126a20.775,20.775,0,0,1,9.554,2.056" transform="translate(-40.699 -109.801)"/><path class="c" d="M100.2,259.924c15,0,15-11.126,29.993-11.126s15,11.126,29.993,11.126,15-11.126,29.993-11.126,15,11.126,29.993,11.126,15-11.126,29.993-11.126a21.281,21.281,0,0,1,10.038,2.3" transform="translate(-40.699 -129.251)"/><path class="c" d="M84,63.8a20.305,20.305,0,0,0,10.28,2.419A20.476,20.476,0,0,0,108.006,61.2" transform="translate(-34.295 -55.093)"/></g><g transform="translate(1.86 1.8)"><path class="b" d="M1.9,62.226c15,0,15-11.126,29.993-11.126a20.374,20.374,0,0,1,12.215,3.568" transform="translate(-1.9 -21.289)"/><path class="b" d="M100.2,12.926c15,0,15-11.126,29.993-11.126s15,11.126,29.993,11.126c10.4,0,13.545-5.321,19.531-8.587" transform="translate(-40.759 -1.8)"/><path class="b" d="M100.2,37.126c15,0,15-11.126,29.993-11.126,14.754,0,15,10.763,29.267,11.066h.3" transform="translate(-40.759 -11.367)"/><path class="b" d="M248.8,125.4c15,0,15,11.126,29.993,11.126a21.44,21.44,0,0,0,9.494-2" transform="translate(-99.502 -50.66)"/><path class="b" d="M215.8,135.77c3.507-1.814,6.047-4.414,9.433-6.289.121-.06.181-.121.3-.181" transform="translate(-86.457 -52.202)"/><path class="b" d="M100.2,161.621c15,0,15-11.126,29.993-11.126s15,11.126,29.993,11.126,15-11.126,29.993-11.126a21.042,21.042,0,0,1,11.973,3.386c.06,0,.06.06.121.06" transform="translate(-40.759 -60.577)"/><path class="b" d="M84,214a20.305,20.305,0,0,0,10.28,2.419" transform="translate(-34.355 -85.685)"/></g><g transform="translate(1.8 1.8)"><path class="b" d="M1.8,12.926c15,0,15-11.126,29.993-11.126S46.728,12.926,61.785,12.926" transform="translate(-1.8 -1.8)"/><path class="b" d="M50.6,100.4h.665c14.694.121,14.815,11.126,29.69,11.126a20.476,20.476,0,0,0,13.726-5.019" transform="translate(-21.091 -40.778)"/><path class="b" d="M2,161.266c14.633,0,15-10.582,28.965-11.066h1.028" transform="translate(-1.879 -60.464)"/><path class="a" d="M1.9,259.926c15,0,15-11.126,29.993-11.126s15,11.126,29.993,11.126" transform="translate(-1.84 -99.442)"/><path class="b" d="M215.7,34.949c6.349-3.265,9.373-8.889,20.076-8.889,15,0,15,11.126,29.993,11.126S280.7,26,295.7,26a20.264,20.264,0,0,1,11.791,3.326" transform="translate(-86.357 -11.367)"/><path class="b" d="M132.5,102.816c.3-.121.544-.3.847-.423a21.44,21.44,0,0,1,9.494-2c15,0,15,11.126,29.993,11.126s15-11.126,29.993-11.126h.484" transform="translate(-53.467 -40.775)"/><path class="b" d="M182.7,184.228a21.69,21.69,0,0,0,10.1,2.3c15,0,15-11.126,29.993-11.126s15,11.126,29.993,11.126,15-11.126,29.993-11.126,15,11.126,29.993,11.126a20.173,20.173,0,0,0,12.154-3.568c.06-.06.181-.121.242-.181" transform="translate(-73.312 -70.426)"/><path class="b" d="M100.2,235.926c15,0,15-11.126,29.993-11.126s15,11.126,29.993,11.126,15-11.126,29.993-11.126a20.417,20.417,0,0,1,11.429,3.084c.3.181.544.363.847.544" transform="translate(-40.699 -89.954)"/></g></g></svg>