<svg id="svg-bg-c2-1" preserveAspectRatio="xMidYMax slice" xmlns="http://www.w3.org/2000/svg" viewBox="0 0 1440 900">
  <style>
    .bg-c2-st0{fill:none;stroke:#007d39;stroke-width:5;stroke-linecap:round;stroke-linejoin:round}
  </style>
  <g>
    <path class="bg-c2-st0" d="M982.9 816.9c6.6 6.6 6.6 17.4 0 24s-17.4 6.6-24 0c-6.6-6.6-6.6-17.4 0-24 6.6-6.6 17.4-6.6 24 0zm15-14.4l95.1-95.1M940.7 844.3l15.4 15.4m129.3-159.2l-51.8 51.8s-20.1-10.1-34 3.9c-3.9 3.9-6.2 7.7-8.7 15.3-4.5 16.4-11.4 17.2-29.1 18.1-24.1.6-71.7 34.2-28.4 77.5 43.3 43.3 76.9-4.3 77.5-28.4.9-17.6 1.7-24.6 18.1-29.1 7.6-2.5 11.4-4.8 15.3-8.7 13.9-13.9 3.9-34 3.9-34l51.8-51.8m-15.8-18.1l19.3 19.3 20.1-21.7-17.8-17.8-21.6 20.2zM1082.3 688.9l-1.6-1.6M1089.2 681.9l-1.5-1.5M1096.2 675l-1.6-1.6M1114 720.6l-1.6-1.5M1120.9 713.6l-1.5-1.5M1127.9 706.7l-1.6-1.6"/>
  </g>

  <g>
    <path class="bg-c2-st0" d="M1387.4 645c6.6 6.6 6.6 17.4 0 24-6.6 6.6-17.4 6.6-24 0-6.6-6.6-6.6-17.4 0-24 6.6-6.6 17.4-6.6 24 0zm-134.1-109.5l95.1 95.1m41.8 57.2l15.4-15.4m-159.3-129.1l51.8 51.8s-10.1 20.1 3.9 34c3.9 3.9 7.7 6.2 15.3 8.7 16.4 4.5 17.2 11.4 18.1 29.1.6 24.1 34.2 71.7 77.5 28.4 43.3-43.3-4.3-76.9-28.4-77.5-17.6-.9-24.6-1.7-29.1-18.1-2.5-7.6-4.8-11.4-8.7-15.3-13.9-13.9-34-3.9-34-3.9l-51.8-51.8m-20.4-23.7l-17.8 17.8 20.1 21.7 19.3-19.3-21.6-20.2zM1264.1 517l1.5-1.6M1257.1 510l1.5-1.5M1250.1 503.1l1.6-1.6M1232.4 548.7l1.5-1.5M1225.4 541.7l1.5-1.5M1218.4 534.8l1.6-1.6"/>
  </g>

  <g>
    <path class="bg-c2-st0" d="M126.7 774.2v45.7h-10.4v-45.7c-5.2-7.6-23.6-20.4-2-58.9 14-26 54.5 44.9 58.9 52.5s11.2 16 18.4 19.2 27.2 12 32 21.6-37.6 11.2-37.6 11.2-29.6 4-38.5-20-20.8-25.6-20.8-25.6zm-4-64.1s-4.8 3.2 5.6 21.6c8.6 15.3 20.4 32.4 31.6 50.9 15.2 20.9 39.3 16 28 2.4" id="Layer_9"/>
    </g>

  <g>
    <path class="bg-c2-st0" d="M786.8 790c-8.8 24-38.5 20-38.5 20s-42.5-1.6-37.7-11.2 24.8-18.4 32-21.6 14-11.6 18.4-19.2 44.9-78.5 58.9-52.5c21.6 38.5 3.2 51.3-2 58.9V810h-10.4v-45.7c.2 0-11.9 1.6-20.7 25.7zm-40.4-14.9c-11.2 13.6 12.8 18.5 28-2.4 11.2-18.4 23-35.6 31.6-50.9 10.4-18.4 5.6-21.6 5.6-21.6" id="Layer_7"/>
    </g>

  <g>
    <path class="bg-c2-st0" d="M1355.5 339.6s23.5 12.4 25.7 34.3c1.4 15.2 1.8 30.6 1.3 45.9 0 0-18.2 3.8-29.9-7.4-9.1-8.8-15.2-19.8-4-40.2s6.9-32.6 6.9-32.6zm27.9 80c17.5-3.6 17.3-14.5 17.7-35.6.5-23.3 11.7-29.1 11.7-29.1s-19.8-.7-33.6 10.7m-12.7 53.9l-27.8 103.9m55.2-72.8s-12.4-6.7-23.2-2.8S1355 465 1355 465s12.4 6.7 23.2 2.8 15.7-17.2 15.7-17.2zm-69.3 33.7c7.3 8.8 21.5 9.2 21.5 9.2s2.2-13.9-5.1-22.8-21.5-9.2-21.5-9.2-2.3 14 5.1 22.8zm68.9-126.6c-1.6-10.1-22.6-20-26.7-21.1.5 2.3.3 10.9.3 10.9m30.2 8s3.2-7.8 2.7-10c-6-2.8-12.8-3.5-19.3-2.1" id="Layer_5"/>
    </g>

  <g>
    <path class="bg-c2-st0" d="M617.9 728.9c11.2 20.4 5.1 31.5-4 40.2-11.7 11.2-29.9 7.4-29.9 7.4-.5-15.3 0-30.6 1.3-45.9 2.3-21.9 25.7-34.3 25.7-34.3s-4.3 12.2 6.9 32.6zm-30.6-6.5c-13.7-11.4-33.6-10.7-33.6-10.7s11.3 5.8 11.7 29.1c.4 21.1.2 32 17.7 35.6m44.7 103.8L600 776.3m-11.6 48.2c10.8 4 23.2-2.8 23.2-2.8s-5-13.2-15.8-17.2-23.2 2.8-23.2 2.8 5 13.3 15.8 17.2zm58.7-6.2s-14.1.4-21.5 9.2-5.1 22.8-5.1 22.8 14.1-.4 21.5-9.2 5.1-22.8 5.1-22.8zm-47.7-114.1s-.1-8.6.3-10.9c-4 1.1-25.1 11-26.7 21.1m12.8-14.3c-6.5-1.4-13.3-.7-19.3 2.1-.5 2.3 2.7 10 2.7 10" id="Layer_3"/>
    </g>
</svg>