<svg id="svg-bg-c3-1" preserveAspectRatio="xMidYMax slice" xmlns="http://www.w3.org/2000/svg" viewBox="0 0 1440 900">
  <defs>
    <style>
      .bg-c3-st0 {
        fill: none;
        stroke: #36568a;
        stroke-linecap: round;
        stroke-linejoin: round;
        stroke-width: 5px;
      }
    </style>
  </defs>


    <g>
      <path class="bg-c3-st0" d="M182.228,300.075V290c0-16.278-15-16.519-15-16.519h-5.681"/>
      <path class="bg-c3-st0" d="M80.568,262.1a45.474,45.474,0,0,0,42.153-.438"/>
      <path class="bg-c3-st0" d="M101.377,163c-18,0-30.895,6.753-39.664,17.724"/>
      <path class="bg-c3-st0" d="M84.018,198.7c23.827,30.777,53.763,28.948,62.259,28.532"/>
      <path class="bg-c3-st0" d="M101.377,163c-67.49,0-63.144,94.894-39.057,151.2l-.371,0c2.817.022,17.923,0,17.923,0V261.655c-6.182-3.764-21.259-15.156-21.259-39.973,0-11.322,10.259-17.752,25.553-22.987,23.828,30.777,53.764,28.948,62.26,28.532-1.18,16.074-14.77,30.664-23.545,34.428V314.2h17.552C164.52,257.891,168.867,163,101.377,163Z"/>
      <path class="bg-c3-st0" d="M50.013,273.719H35.232s-15,.255-15,16.533v22.937"/>
      <polyline class="bg-c3-st0" points="122.881 283.154 102.378 303.146 79.872 281.369"/>
      <path class="bg-c3-st0" d="M182.228,313.19V290c0-16.278-15-16.519-15-16.519H152.788"/>
    </g>

    <g>
      <path class="bg-c3-st0" d="M1222.186,694.616q0,1.806-.1,3.613-.1,1.342-.206,2.684c-1.332,17.213-7.47,39.93-12.695,56.808a50.792,50.792,0,0,1-29.679,32.2h0a50.71,50.71,0,0,1-35.831.661l-.561-.2a50.682,50.682,0,0,1-32.378-36.394c-4-17.426-8.561-39.232-9.771-52.727-.069-.723-.138-1.445-.172-2.2-.1-1.445-.172-2.959-.172-4.439a51.353,51.353,0,0,1,.344-6.125,54.659,54.659,0,0,1,1.686-9.532,30.318,30.318,0,0,0,2.2,9.532c3.957,10.874,13.42,26.461,28.766,35.717l3.785-4.129a13.611,13.611,0,0,1,10.082-4.473h27.838a13.685,13.685,0,0,1,10.116,4.473l3.751,4.129c15.346-9.29,24.843-24.878,28.8-35.717a31.367,31.367,0,0,0,2.168-9.428,60.552,60.552,0,0,1,1.686,9.428A51.758,51.758,0,0,1,1222.186,694.616Z"/>
      <path class="bg-c3-st0" d="M1135.768,736.224h50.073s-3.682,22.091-25.037,22.091S1135.768,736.224,1135.768,736.224Z"/>
    </g>

    <g>
      <path class="bg-c3-st0" d="M179.457,436.791q0,1.806-.1,3.613l-.207,2.683c-1.331,17.213-7.47,39.931-12.694,56.808a50.8,50.8,0,0,1-29.679,32.2h0a50.71,50.71,0,0,1-35.831.661l-.561-.2A50.682,50.682,0,0,1,68,496.159c-4-17.427-8.561-39.232-9.771-52.728-.069-.722-.137-1.445-.172-2.2-.1-1.445-.172-2.959-.172-4.439a51.365,51.365,0,0,1,.344-6.125,54.836,54.836,0,0,1,1.686-9.531,30.32,30.32,0,0,0,2.2,9.531c3.957,10.874,13.419,26.461,28.766,35.718l3.785-4.13a13.61,13.61,0,0,1,10.082-4.473h27.837a13.687,13.687,0,0,1,10.117,4.473l3.75,4.13c15.347-9.291,24.844-24.878,28.8-35.717a31.441,31.441,0,0,0,2.168-9.429,60.8,60.8,0,0,1,1.686,9.429A51.758,51.758,0,0,1,179.457,436.791Z"/>
      <path class="bg-c3-st0" d="M93.039,478.4h50.072s-3.682,22.091-25.036,22.091S93.039,478.4,93.039,478.4Z"/>
    </g>

    <g>
        <line class="bg-c3-st0" x1="1290.771" y1="194.559" x2="1353.232" y2="158.497"/>
        <line class="bg-c3-st0" x1="1295.083" y1="202.027" x2="1357.544" y2="165.965"/>
      <polyline class="bg-c3-st0" points="1346.27 185.243 1351.757 194.748 1322.903 211.407 1317.415 201.902"/>
      <path class="bg-c3-st0" d="M1401.294,335.425l-70.345-128.664,12.845-7.415,76.51,125.1,6.664,11.541c2.156,3.735,1.607,8.124-1.218,9.756l-8.735,5.043c-2.825,1.631-6.9-.089-9.057-3.823Z"/>
      <rect class="bg-c3-st0" x="1275.945" y="165.872" width="96.426" height="28.779" rx="5" transform="translate(87.273 686.229) rotate(-30)"/>
    </g>

    <g>
        <line class="bg-c3-st0" x1="29.827" y1="699.428" x2="92.288" y2="663.367"/>
        <line class="bg-c3-st0" x1="34.139" y1="706.896" x2="96.599" y2="670.835"/>
      <polyline class="bg-c3-st0" points="85.325 690.113 90.813 699.617 61.958 716.276 56.471 706.771"/>
      <path class="bg-c3-st0" d="M140.35,840.3,70.005,711.631l12.844-7.416,76.51,125.1,6.664,11.542c2.156,3.734,1.608,8.124-1.218,9.756l-8.734,5.042c-2.826,1.632-6.9-.089-9.058-3.823Z"/>
      <rect class="bg-c3-st0" x="15" y="670.742" width="96.426" height="28.779" rx="5" transform="translate(-334.097 123.397) rotate(-30)"/>
    </g>
</svg>
