<svg id="svg-bg-c4-1" preserveAspectRatio="xMidYMax slice" xmlns="http://www.w3.org/2000/svg" viewBox="0 0 1440 900">
  <style>
    .st0{fill:none;stroke:#3D7A44;stroke-width:5;stroke-linecap:round;stroke-linejoin:round}.st1{fill:#3D7A44}
  </style>

  <g>
    <path class="st0" d="M1073.1 867.3v-36.2c-.2-10.7 8.4-19.6 19.1-19.8h2.6c8.3 8.2 23.6 8 31.1 0h2.9c10.8.1 19.5 8.9 19.4 19.6V867.2M1089.9 842.6v23.8M1131.4 842.6v23.8M1107.9 763h5.5c8.4 0 15.2 6.8 15.2 15.2v10.1c0 8.4-6.8 15.2-15.2 15.2h-5.5c-8.4 0-15.2-6.8-15.2-15.2v-10.1c0-8.4 6.8-15.2 15.2-15.2z"/>
    <path class="st0" d="M1164 750.6v117.6h-106.7V750.6M1054.9 724.9h111.6c2.5 0 4.5 2 4.5 4.5v15.7c0 2.5-2 4.5-4.5 4.5h-111.6c-2.5 0-4.5-2-4.5-4.5v-15.7c0-2.4 2-4.5 4.5-4.5z"/>
      <path class="st0" d="M1075.6 733.8v-20.7M1145.8 733.8v-20.7"/>
    <path class="st1" d="M1108.7 787.6v-1c0-.9.2-1.9.6-2.7.5-.9 1.2-1.7 2.1-2.3.9-.6 1.6-1.4 2.3-2.2.4-.6.5-1.2.5-1.9s-.3-1.5-.8-1.9c-.7-.5-1.5-.7-2.4-.7-.9 0-1.8.1-2.6.4-.8.3-1.6.6-2.4 1l-1.3-2.6c2-1.1 4.2-1.7 6.5-1.7 1.7-.1 3.3.4 4.6 1.4 1.2 1 1.8 2.4 1.7 4 0 .7-.1 1.4-.3 2-.2.6-.6 1.2-1 1.7-.7.8-1.5 1.4-2.3 2.1-.7.5-1.3 1.1-1.9 1.8-.3.6-.5 1.3-.5 1.9v.7h-2.8zm-.6 4.7c-.2-1.1.6-2.1 1.6-2.2h.6c.6 0 1.2.2 1.6.6.4.5.6 1.1.6 1.7 0 .6-.2 1.2-.6 1.7-.9.8-2.3.8-3.3 0-.3-.6-.5-1.2-.5-1.8z"/>
  </g>

  <g>
    <path class="st0" d="M163.9 762.6c-.8-22.1-17.5-38.8-38.8-38.8-13.6 0-26.3 7.1-33.3 18.8-7.1-11.6-19.7-18.7-33.3-18.8-21.6 0-38.2 16.7-38.8 38.8-.8 22.1 16.4 41.5 71 79.8.2.2.5.3.8.3h1.1c.3 0 .6-.1.8-.3 54.1-38.3 71.3-57.7 70.5-79.8z"/>
    <path class="st1" d="M86.5 797.8v-2.1c-.1-2.1.4-4.1 1.3-6 1.2-1.9 2.7-3.6 4.6-4.9 1.9-1.4 3.6-3 5-4.8.8-1.2 1.2-2.6 1.1-4.1.1-1.6-.6-3.2-1.8-4.2-1.5-1.1-3.4-1.6-5.3-1.5-2 0-3.9.3-5.8.9-1.8.6-3.5 1.3-5.2 2.1l-2.7-5.8c4.3-2.4 9.2-3.7 14.2-3.7 4.3 0 7.7 1 10.2 3.1 2.5 2.1 3.9 5.3 3.8 8.7 0 1.5-.2 3-.7 4.4-.5 1.3-1.2 2.6-2.2 3.6-1.5 1.7-3.2 3.2-5 4.5-1.5 1.1-2.9 2.4-4.1 4-.7 1.3-1.1 2.7-1 4.2v1.5l-6.4.1zm-1.4 10.5c0-3.3 1.6-4.9 4.8-4.9 1.3-.1 2.6.4 3.6 1.3.9 1 1.3 2.3 1.2 3.6.1 1.3-.4 2.7-1.3 3.7-2 1.8-5.1 1.8-7.1 0-.8-1-1.3-2.4-1.2-3.7z"/>
  </g>

  <g>
    <path class="st0" d="M560.1 808.4c-.8-22.1-17.5-38.8-38.8-38.8-13.6 0-26.3 7.1-33.3 18.8-7.1-11.6-19.7-18.7-33.3-18.8-21.6 0-38.2 16.7-38.8 38.8-.8 22.1 16.4 41.5 71 79.8.2.2.5.3.8.3h1.1c.3 0 .6-.1.8-.3 54.1-38.3 71.3-57.7 70.5-79.8z"/>
    <path class="st1" d="M482.6 843.6v-2.1c-.1-2.1.4-4.1 1.3-6 1.2-1.9 2.7-3.6 4.6-4.9 1.9-1.4 3.6-3 5-4.8.8-1.2 1.2-2.6 1.1-4.1.1-1.6-.6-3.2-1.8-4.2-1.5-1.1-3.4-1.6-5.3-1.5-2 0-3.9.3-5.8.9-1.8.6-3.5 1.3-5.2 2.1l-2.7-5.8c4.3-2.4 9.2-3.7 14.2-3.7 4.3 0 7.7 1 10.2 3.1 2.5 2.1 3.9 5.3 3.8 8.7.1 2.9-1 5.8-2.9 8-1.5 1.7-3.2 3.2-5 4.5-1.5 1.1-2.9 2.4-4.1 4-.7 1.3-1.1 2.7-1 4.2v1.5h-6.4zm-1.3 10.4c0-3.3 1.6-4.9 4.8-4.9 1.3-.1 2.6.4 3.6 1.3.9 1 1.3 2.3 1.2 3.6.1 1.3-.4 2.7-1.3 3.7-2 1.8-5.1 1.8-7.1 0-.8-1-1.3-2.3-1.2-3.7z"/>
  </g>



  <g>
    <path class="st0" d="M815.2 836.8V825c0-19.1-17.6-19.4-17.6-19.4h-6.7M695.7 792.1c15.6 8 34.1 7.8 49.6-.5M720.2 675.6c-21.2 0-36.3 7.9-46.6 20.8"/>
    <path class="st0" d="M720.2 675.6c-79.3 0-74.2 111.6-45.9 177.8h-.4H695v-61.8c-7.3-4.4-25-17.8-25-47 0-13.3 12.1-20.9 30-27 7.6 17.5 58.4 11.9 73.2 33.5-4.5 23.5-17.4 36-27.7 40.5v61.8h20.6c28.3-66.2 33.4-177.8-45.9-177.8z"/>
    <path class="st0" d="M659.8 805.8h-17.4s-17.6.3-17.6 19.4v27M745.5 816.9l-24.1 23.5-26.5-25.6M815.2 852.2v-27.3c0-19.1-17.6-19.4-17.6-19.4h-17"/>
    <path class="st1" d="M714.7 771.1v-1.9c-.1-1.9.3-3.8 1.2-5.5 1.1-1.8 2.5-3.3 4.2-4.5 1.7-1.2 3.3-2.7 4.6-4.4.7-1.1 1.1-2.4 1-3.7.1-1.5-.5-2.9-1.7-3.8-1.4-1-3.1-1.5-4.8-1.3-1.8 0-3.6.3-5.2.8s-3.2 1.2-4.7 1.9l-2.5-5.2c4-2.2 8.4-3.4 13-3.4 3.9 0 7 1 9.3 2.9 2.3 2 3.6 4.9 3.4 7.9 0 1.4-.2 2.7-.7 4-.5 1.2-1.1 2.3-2 3.3-1.4 1.5-2.9 2.9-4.6 4.1-1.4 1-2.7 2.2-3.7 3.6-.7 1.2-1 2.5-.9 3.8v1.3l-5.9.1zm-1.2 9.5c0-3 1.5-4.5 4.4-4.5 1.2-.1 2.4.3 3.3 1.2.8.9 1.2 2.1 1.1 3.3.1 1.2-.3 2.4-1.1 3.4-1.9 1.6-4.6 1.7-6.5 0-.9-1-1.3-2.2-1.2-3.4z"/>
  </g>

</svg>