<?xml version="1.0" encoding="utf-8"?>
<svg id="svg-bg-c5-2" preserveAspectRatio="xMidYMax slice"  version="1.1" xmlns="http://www.w3.org/2000/svg" xmlns:xlink="http://www.w3.org/1999/xlink" x="0px" y="0px"
	 viewBox="0 0 1440 900" style="enable-background:new 0 0 1440 900;">
<style type="text/css">
	.bg-c5-st0{fill:none;stroke:#36568A;stroke-width:5;stroke-linecap:round;stroke-linejoin:round;}
	.bg-c5-st1{clip-path:url(#bg-c5-SVGID_2_);}
	.bg-c5-st2{fill:none;stroke:#36568A;stroke-width:5;stroke-linejoin:round;}
	.bg-c5-st3{clip-path:url(#bg-c5-SVGID_4_);}
	.bg-c5-st4{clip-path:url(#bg-c5-SVGID_6_);}
	.bg-c5-st5{clip-path:url(#bg-c5-SVGID_8_);}
</style>

<g>
    <path class="bg-c5-st0" d="M324.7,698.7c-17.8,0-32.2,14.4-32.2,32.2s14.4,32.2,32.2,32.2c17.8,0,32.2-14.4,32.2-32.2h-32.2V698.7z"/>
    <path class="bg-c5-st0" d="M324.8,698.6v32.2H357C357,713.1,342.5,698.6,324.8,698.6C324.8,698.6,324.8,698.6,324.8,698.6z"/>
    <defs>
    <path id="SVGID_3_" d="M324.7,698.7c-17.8,0-32.2,14.4-32.2,32.2s14.4,32.2,32.2,32.2c17.8,0,32.2-14.4,32.2-32.2h-32.2V698.7z
    "/>
    </defs>
    <clipPath id="bg-c5-SVGID_4_">
    <use xlink:href="#SVGID_3_"  style="overflow:visible;"/>
    </clipPath>
    <line class="bg-c5-st0 bg-c5-st3" x1="354.3" y1="744.1" x2="311.6" y2="701.5"/>
    <line class="bg-c5-st0 bg-c5-st3" x1="347.3" y1="753.8" x2="301.8" y2="708.3"/>
    <line class="bg-c5-st0 bg-c5-st3" x1="337.5" y1="760.5" x2="295.1" y2="718.1"/>
    <line class="bg-c5-st0 bg-c5-st3" x1="323.5" y1="763.1" x2="292.5" y2="732.1"/>
    <path class="bg-c5-st2" d="M324.7,698.7c-17.8,0-32.2,14.4-32.2,32.2s14.4,32.2,32.2,32.2c17.8,0,32.2-14.4,32.2-32.2h-32.2V698.7z"/>
    <path class="bg-c5-st0" d="M405,705.7c-0.9-24.6-19.5-43.2-43.2-43.2c-15.2,0-29.3,8-37.1,21c-7.9-12.9-21.9-20.9-37.1-21
    c-24,0-42.6,18.6-43.2,43.2c-0.9,24.6,19.8,46.7,80.6,89.3l0,0C385.3,752.5,405.9,730.4,405,705.7z"/>
</g>

<g>
    <line class="bg-c5-st0" x1="63.1" y1="809.2" x2="161.1" y2="809.2"/>
    <polyline class="bg-c5-st0" points="91.1,808.3 91.1,774.7 73.4,774.7 73.4,808.3 			"/>
    <polyline class="bg-c5-st0" points="121,808.3 121,762.5 103.3,762.5 103.3,808.3 			"/>
    <polyline class="bg-c5-st0" points="150.9,808.3 150.9,737.3 133.1,737.3 133.1,808.3 			"/>
    <path class="bg-c5-st0" d="M214.1,752.2c-1.2-31.3-24.7-54.8-54.8-54.8c-19.3,0-37.2,10.1-47.1,26.6c-10.1-16.4-27.9-26.5-47.1-26.6
    c-30.5,0-54.1,23.6-54.8,54.8C9,783.5,35.3,811.5,112.5,865.6l0,0C189,811.5,215.2,783.5,214.1,752.2z"/>
</g>
<g>
    <line class="bg-c5-st0" x1="672.6" y1="779.5" x2="770.6" y2="779.5"/>
    <polyline class="bg-c5-st0" points="700.6,778.6 700.6,745 682.8,745 682.8,778.6 			"/>
    <polyline class="bg-c5-st0" points="730.4,778.6 730.4,732.9 712.7,732.9 712.7,778.6 			"/>
    <polyline class="bg-c5-st0" points="760.3,778.6 760.3,707.7 742.6,707.7 742.6,778.6 			"/>
    <path class="bg-c5-st0" d="M823.5,722.5c-1.2-31.3-24.7-54.8-54.8-54.8c-19.3,0-37.2,10.1-47.1,26.6c-10.1-16.4-27.9-26.5-47.1-26.6
    c-30.5,0-54.1,23.6-54.8,54.8c-1.2,31.3,25.1,59.4,102.4,113.4l0,0C798.4,781.9,824.7,753.8,823.5,722.5z"/>
</g>

<g>
    <line class="bg-c5-st0" x1="473.8" y1="842.5" x2="536.5" y2="842.5"/>
    <line class="bg-c5-st0" x1="478.8" y1="847.5" x2="478.8" y2="800.5"/>
    <polyline class="bg-c5-st0" points="487.2,832.9 494.6,823.7 507.5,823.7 515.5,812 530.2,812 537.9,799.4 		"/>
    <path class="bg-c5-st0" d="M572.5,805.4c-0.8-20.9-16.5-36.6-36.6-36.6c-12.9,0-24.8,6.7-31.4,17.8c-6.7-10.9-18.6-17.7-31.4-17.8
c-20.3,0-36,15.7-36.6,36.6c-0.8,20.9,16.7,39.6,68.2,75.6l0,0C555.8,845,573.3,826.3,572.5,805.4z"/>
</g>
<g>
    <line class="bg-c5-st0" x1="1085.3" y1="799" x2="1147.9" y2="799"/>
    <line class="bg-c5-st0" x1="1090.2" y1="803.9" x2="1090.2" y2="757"/>
    <polyline class="bg-c5-st0" points="1098.6,789.4 1106,780.2 1118.9,780.2 1126.9,768.5 1141.7,768.5 1149.3,755.9 		"/>
    <path class="bg-c5-st0" d="M1183.9,761.9c-0.8-20.9-16.5-36.6-36.6-36.6c-12.9,0-24.8,6.7-31.4,17.8c-6.7-10.9-18.6-17.7-31.4-17.8
    c-20.3,0-36,15.7-36.6,36.6c-0.8,20.9,16.7,39.6,68.2,75.6l0,0C1167.2,801.5,1184.7,782.8,1183.9,761.9z"/>
</g>

</svg>
