<svg id="svg-bg-c3-2" preserveAspectRatio="xMidYMax slice" xmlns="http://www.w3.org/2000/svg" viewBox="0 0 1440 900">
  <defs>
    <style>
      .bg-c3-st0 {
        fill: none;
        stroke: #36568a;
        stroke-linecap: round;
        stroke-linejoin: round;
        stroke-width: 5px;
      }
    </style>
  </defs>

   <g>
      <path class="bg-c3-st0" d="M1420,539.893V529.816C1420,513.538,1405,513.3,1405,513.3h-5.681"/>
      <path class="bg-c3-st0" d="M1318.341,501.921a45.472,45.472,0,0,0,42.152-.438"/>
      <path class="bg-c3-st0" d="M1339.149,402.815c-18,0-30.895,6.753-39.663,17.724"/>
      <path class="bg-c3-st0" d="M1321.79,438.513c23.828,30.777,53.763,28.948,62.259,28.532"/>
      <path class="bg-c3-st0" d="M1339.149,402.815c-67.49,0-63.143,94.894-39.057,151.2l-.37,0c2.817.022,17.922,0,17.922,0V501.473c-6.182-3.764-21.259-15.156-21.259-39.973,0-11.322,10.259-17.752,25.554-22.987,23.828,30.777,53.763,28.948,62.259,28.532-1.18,16.074-14.769,30.664-23.544,34.428v52.542h17.552C1402.293,497.709,1406.64,402.815,1339.149,402.815Z"/>
      <path class="bg-c3-st0" d="M1287.785,513.537h-14.78S1258,513.792,1258,530.07v22.937"/>
      <polyline class="bg-c3-st0" points="1360.654 522.972 1340.15 542.964 1317.644 521.187"/>
      <path class="bg-c3-st0" d="M1420,553.008V529.816C1420,513.538,1405,513.3,1405,513.3H1390.56"/>
    </g>

    <g>
      <path class="bg-c3-st0" d="M376.5,766.635V756.558c0-16.279-15-16.52-15-16.52h-5.682"/>
      <path class="bg-c3-st0" d="M274.842,728.662a45.468,45.468,0,0,0,42.152-.437"/>
      <path class="bg-c3-st0" d="M295.651,629.557c-18,0-30.9,6.752-39.664,17.723"/>
      <path class="bg-c3-st0" d="M278.291,665.255c23.828,30.777,53.764,28.948,62.259,28.532"/>
      <path class="bg-c3-st0" d="M295.651,629.557c-67.491,0-63.144,94.894-39.058,151.2l-.37,0c2.817.021,17.922,0,17.922,0V728.215c-6.182-3.764-21.259-15.156-21.259-39.973,0-11.322,10.258-17.752,25.553-22.987C302.268,696.032,332.2,694.2,340.7,693.787c-1.18,16.074-14.769,30.664-23.544,34.428v52.542h17.552C358.794,724.451,363.141,629.557,295.651,629.557Z"/>
      <path class="bg-c3-st0" d="M244.286,740.279h-14.78s-15,.254-15,16.533v22.936"/>
      <polyline class="bg-c3-st0" points="317.155 749.713 296.652 769.706 274.146 747.929"/>
      <path class="bg-c3-st0" d="M376.5,779.75V756.558c0-16.279-15-16.52-15-16.52H347.061"/>
    </g>

    <g>
      <path class="bg-c3-st0" d="M1030.822,877.335V867.258c0-16.279-15-16.519-15-16.519h-5.681"/>
      <path class="bg-c3-st0" d="M929.163,839.363a45.472,45.472,0,0,0,42.152-.438"/>
      <path class="bg-c3-st0" d="M949.972,740.257c-18,0-30.895,6.752-39.664,17.724"/>
      <path class="bg-c3-st0" d="M932.612,775.955c23.828,30.777,53.764,28.948,62.259,28.532"/>
      <path class="bg-c3-st0" d="M949.972,740.257c-67.491,0-63.144,94.894-39.057,151.2l-.371,0c2.817.021,17.923,0,17.923,0V838.915c-6.182-3.764-21.259-15.156-21.259-39.973,0-11.322,10.258-17.752,25.553-22.987,23.828,30.777,53.764,28.948,62.259,28.532-1.18,16.074-14.769,30.664-23.544,34.428v52.542h17.552C1013.115,835.151,1017.462,740.257,949.972,740.257Z"/>
      <path class="bg-c3-st0" d="M898.608,850.979H883.827s-15,.254-15,16.533v22.936"/>
      <polyline class="bg-c3-st0" points="971.476 860.413 950.973 880.406 928.467 858.629"/>
      <path class="bg-c3-st0" d="M1030.822,890.45V867.258c0-16.279-15-16.519-15-16.519h-14.435"/>
    </g>

    <g>
      <path class="bg-c3-st0" d="M586.078,774.232q0,1.808-.1,3.613-.1,1.342-.206,2.684c-1.332,17.213-7.47,39.931-12.7,56.808a50.8,50.8,0,0,1-29.679,32.2h0a50.71,50.71,0,0,1-35.831.661l-.561-.2A50.68,50.68,0,0,1,474.624,833.6c-4-17.426-8.561-39.231-9.771-52.727-.069-.722-.138-1.445-.172-2.2-.1-1.445-.172-2.959-.172-4.439a51.365,51.365,0,0,1,.344-6.125,54.648,54.648,0,0,1,1.686-9.531,30.341,30.341,0,0,0,2.2,9.531c3.957,10.874,13.42,26.461,28.766,35.717l3.786-4.129a13.608,13.608,0,0,1,10.082-4.473h27.837a13.683,13.683,0,0,1,10.116,4.473l3.751,4.13c15.346-9.291,24.843-24.879,28.8-35.718a31.429,31.429,0,0,0,2.168-9.428,60.809,60.809,0,0,1,1.686,9.428A52,52,0,0,1,586.078,774.232Z"/>
      <path class="bg-c3-st0" d="M499.659,815.84h50.073s-3.682,22.091-25.036,22.091S499.659,815.84,499.659,815.84Z"/>
    </g>

    <g>
        <line class="bg-c3-st0" x1="652.248" y1="693.572" x2="714.709" y2="657.51"/>
        <line class="bg-c3-st0" x1="656.56" y1="701.04" x2="719.02" y2="664.978"/>
      <polyline class="bg-c3-st0" points="707.746 684.256 713.234 693.761 684.38 710.42 678.892 700.915"/>
      <path class="bg-c3-st0" d="M762.771,834.438,692.426,705.774l12.844-7.416,76.511,125.105L788.444,835c2.156,3.734,1.608,8.124-1.218,9.756l-8.734,5.043c-2.826,1.631-6.9-.089-9.058-3.823Z"/>
      <rect class="bg-c3-st0" x="637.421" y="664.885" width="96.426" height="28.779" rx="5" transform="translate(-247.78 433.823) rotate(-30)"/>
    </g>

    <g>
        <line class="bg-c3-st0" x1="1407.833" y1="699.428" x2="1345.373" y2="663.367"/>
        <line class="bg-c3-st0" x1="1403.522" y1="706.896" x2="1341.061" y2="670.835"/>
      <polyline class="bg-c3-st0" points="1352.335 690.113 1346.848 699.617 1375.702 716.276 1381.189 706.771"/>
      <path class="bg-c3-st0" d="M1297.311,840.3l70.345-128.664-12.845-7.416-76.51,125.1-6.664,11.542c-2.156,3.734-1.608,8.124,1.218,9.756l8.734,5.042c2.826,1.632,6.9-.089,9.058-3.823Z"/>
      <rect class="bg-c3-st0" x="1326.234" y="670.742" width="96.426" height="28.779" rx="5" transform="translate(2222.188 1965.696) rotate(-150)"/>
    </g>

</svg>
