<?xml version="1.0" encoding="utf-8"?>
<svg id="svg-bg-c5-1" preserveAspectRatio="xMidYMax slice"  version="1.1" xmlns="http://www.w3.org/2000/svg" xmlns:xlink="http://www.w3.org/1999/xlink" x="0px" y="0px"
	 viewBox="0 0 1440 900" style="enable-background:new 0 0 1440 900;">
<style type="text/css">
	.bg-c5-st0{fill:none;stroke:#36568A;stroke-width:5;stroke-linecap:round;stroke-linejoin:round;}
	.bg-c5-st1{clip-path:url(#bg-c5-SVGID_2_);}
	.bg-c5-st2{fill:none;stroke:#36568A;stroke-width:5;stroke-linejoin:round;}
	.bg-c5-st3{clip-path:url(#bg-c5-SVGID_4_);}
	.bg-c5-st4{clip-path:url(#bg-c5-SVGID_6_);}
	.bg-c5-st5{clip-path:url(#bg-c5-SVGID_8_);}
</style>
<g>
    <path class="bg-c5-st0" d="M90.3,141.9c-17.8,0-32.2,14.4-32.2,32.2s14.4,32.2,32.2,32.2s32.2-14.4,32.2-32.2l0,0H90.3V141.9z"/>
    <path class="bg-c5-st0" d="M90.4,141.8V174h32.2C122.6,156.2,108.1,141.8,90.4,141.8z"/>
    <defs>
    <path id="bg-c5-SVGID_1_" d="M90.3,141.9c-17.8,0-32.2,14.4-32.2,32.2s14.4,32.2,32.2,32.2s32.2-14.4,32.2-32.2l0,0H90.3V141.9z"/>
    </defs>
    <clipPath id="bg-c5-SVGID_2_">
    <use xlink:href="#bg-c5-SVGID_1_"  style="overflow:visible;"/>
    </clipPath>
    <line class="bg-c5-st0 bg-c5-st1" x1="119.9" y1="187.3" x2="77.2" y2="144.7"/>
    <line class="bg-c5-st0 bg-c5-st1" x1="112.9" y1="197" x2="67.4" y2="151.4"/>
    <line class="bg-c5-st0 bg-c5-st1" x1="103.1" y1="203.7" x2="60.7" y2="161.3"/>
    <line class="bg-c5-st0 bg-c5-st1" x1="89.1" y1="206.3" x2="58.1" y2="175.3"/>
    <path class="bg-c5-st2" d="M90.3,141.9c-17.8,0-32.2,14.4-32.2,32.2s14.4,32.2,32.2,32.2s32.2-14.4,32.2-32.2l0,0H90.3V141.9z"/>
    <path class="bg-c5-st0" d="M170.6,148.9c-0.9-24.6-19.5-43.2-43.2-43.2c-15.2,0-29.3,8-37.1,21c-7.9-12.9-21.9-20.9-37.1-21
    c-24,0-42.6,18.6-43.2,43.2c-0.9,24.6,19.8,46.7,80.6,89.3l0,0C150.9,195.7,171.5,173.6,170.6,148.9z"/>
</g>
<g>
    <path class="bg-c5-st0" d="M936.2,792.8c-17.8,0-32.2,14.4-32.2,32.2s14.4,32.2,32.2,32.2s32.2-14.4,32.2-32.2h-32.2V792.8z"/>
    <path class="bg-c5-st0" d="M936.2,792.7v32.2h32.2C968.4,807.2,954,792.7,936.2,792.7L936.2,792.7z"/>
    <defs>
    <path id="SVGID_5_" d="M936.2,792.8c-17.8,0-32.2,14.4-32.2,32.2s14.4,32.2,32.2,32.2s32.2-14.4,32.2-32.2h-32.2V792.8z"/>
    </defs>
    <clipPath id="bg-c5-SVGID_6_">
    <use xlink:href="#SVGID_5_"  style="overflow:visible;"/>
    </clipPath>
    <line class="bg-c5-st0 bg-c5-st4" x1="965.8" y1="838.2" x2="923.1" y2="795.6"/>
    <line class="bg-c5-st0 bg-c5-st4" x1="958.8" y1="847.9" x2="913.3" y2="802.4"/>
    <line class="bg-c5-st0 bg-c5-st4" x1="948.9" y1="854.6" x2="906.6" y2="812.2"/>
    <line class="bg-c5-st0 bg-c5-st4" x1="935" y1="857.2" x2="904" y2="826.2"/>
    <path class="bg-c5-st2" d="M936.2,792.8c-17.8,0-32.2,14.4-32.2,32.2s14.4,32.2,32.2,32.2s32.2-14.4,32.2-32.2h-32.2V792.8z"/>
    <path class="bg-c5-st0" d="M1016.5,799.8c-0.9-24.6-19.5-43.2-43.2-43.2c-15.2,0-29.3,8-37.1,21c-7.9-12.9-21.9-20.9-37.1-21
    c-24,0-42.6,18.6-43.2,43.2c-0.9,24.6,19.8,46.7,80.6,89.3l0,0C996.8,846.6,1017.4,824.5,1016.5,799.8z"/>
</g>
<g>
    <path class="bg-c5-st0" d="M1337.6,467.6c-17.8,0-32.2,14.4-32.2,32.2c0,17.8,14.4,32.2,32.2,32.2c17.8,0,32.2-14.4,32.2-32.2v0h-32.2
    V467.6z"/>
    <path class="bg-c5-st0" d="M1337.7,467.6v32.2h32.2C1369.9,482,1355.5,467.6,1337.7,467.6z"/>
    <defs>
    <path id="SVGID_7_" d="M1337.6,467.6c-17.8,0-32.2,14.4-32.2,32.2c0,17.8,14.4,32.2,32.2,32.2c17.8,0,32.2-14.4,32.2-32.2v0
    h-32.2V467.6z"/>
    </defs>
    <clipPath id="bg-c5-SVGID_8_">
    <use xlink:href="#SVGID_7_"  style="overflow:visible;"/>
    </clipPath>
    <line class="bg-c5-st0 bg-c5-st5" x1="1367.2" y1="513.1" x2="1324.5" y2="470.4"/>
    <line class="bg-c5-st0 bg-c5-st5" x1="1360.3" y1="522.7" x2="1314.7" y2="477.2"/>
    <line class="bg-c5-st0 bg-c5-st5" x1="1350.4" y1="529.4" x2="1308.1" y2="487.1"/>
    <line class="bg-c5-st0 bg-c5-st5" x1="1336.4" y1="532" x2="1305.4" y2="501"/>
    <path class="bg-c5-st2" d="M1337.6,467.6c-17.8,0-32.2,14.4-32.2,32.2c0,17.8,14.4,32.2,32.2,32.2c17.8,0,32.2-14.4,32.2-32.2v0h-32.2
    V467.6z"/>
    <path class="bg-c5-st0" d="M1418,474.6c-0.9-24.6-19.5-43.2-43.2-43.2c-15.2,0-29.3,8-37.1,21c-7.9-12.9-21.9-20.9-37.1-21
    c-24,0-42.6,18.6-43.2,43.2c-0.9,24.6,19.8,46.7,80.6,89.3l0,0C1398.2,521.4,1418.9,499.3,1418,474.6z"/>
</g>

<g>
    <line class="bg-c5-st0" x1="1275.3" y1="798.5" x2="1373.3" y2="798.5"/>
    <polyline class="bg-c5-st0" points="1303.3,797.6 1303.3,764 1285.6,764 1285.6,797.6 			"/>
    <polyline class="bg-c5-st0" points="1333.2,797.6 1333.2,751.9 1315.5,751.9 1315.5,797.6 			"/>
    <polyline class="bg-c5-st0" points="1363.1,797.6 1363.1,726.7 1345.3,726.7 1345.3,797.6 			"/>
    <path class="bg-c5-st0" d="M1426.3,741.5c-1.2-31.3-24.7-54.8-54.8-54.8c-19.3,0-37.2,10.1-47.1,26.6c-10.1-16.4-27.9-26.5-47.1-26.6
    c-30.5,0-54.1,23.6-54.8,54.8c-1.2,31.3,25.1,59.4,102.4,113.4l0,0C1401.2,800.9,1427.5,772.8,1426.3,741.5z"/>
</g>
<g>
    <line class="bg-c5-st0" x1="1258.7" y1="278.9" x2="1356.7" y2="278.9"/>
    <polyline class="bg-c5-st0" points="1286.7,277.9 1286.7,244.3 1269,244.3 1269,277.9 			"/>
    <polyline class="bg-c5-st0" points="1316.6,277.9 1316.6,232.2 1298.8,232.2 1298.8,277.9 			"/>
    <polyline class="bg-c5-st0" points="1346.4,277.9 1346.4,207 1328.7,207 1328.7,277.9 			"/>
    <path class="bg-c5-st0" d="M1409.7,221.8c-1.2-31.3-24.7-54.8-54.8-54.8c-19.3,0-37.2,10.1-47.1,26.6c-10.1-16.4-27.9-26.5-47.1-26.6
    c-30.5,0-54.1,23.6-54.8,54.8c-1.2,31.3,25.1,59.4,102.4,113.4l0,0C1384.6,281.2,1410.8,253.1,1409.7,221.8z"/>
</g>

<g>
    <line class="bg-c5-st0" x1="70.8" y1="489.2" x2="133.5" y2="489.2"/>
    <line class="bg-c5-st0" x1="75.7" y1="494.1" x2="75.7" y2="447.1"/>
    <polyline class="bg-c5-st0" points="84.2,479.5 91.5,470.3 104.4,470.3 112.4,458.6 127.2,458.6 134.8,446.1 		"/>
    <path class="bg-c5-st0" d="M169.4,452.1c-0.8-20.9-16.5-36.6-36.6-36.6c-12.9,0-24.8,6.7-31.4,17.8c-6.7-10.9-18.6-17.7-31.4-17.8
c-20.3,0-36,15.7-36.6,36.6c-0.8,20.9,16.7,39.6,68.2,75.6l0,0C152.7,491.7,170.2,472.9,169.4,452.1z"/>
</g>
</svg>
