<svg id="svg-bg-home-mobile" xmlns="http://www.w3.org/2000/svg" preserveAspectRatio="xMaxYMax meet"  viewBox="0 0 384.8 343.6">
  <style>
    .svg-bg-home-mobile-st0{fill:#007d39}.svg-bg-home-mobile-st1{fill:none}
  </style>
  <path class="svg-bg-home-mobile-st0" d="M341.4 281.4h-26.9c-.7 0-1.3.3-1.7.7l-3.6 3.5v-11.8c1.8-1.2 3.5-2.5 5.1-4 .4 0 .9-.2 1.3-.5s1.3-.5 2.1-.7c1.5-.3 3.3-.7 4.7-2.1 1.4-1.4 1.8-3.2 2.2-4.8.2-.9.4-1.9.8-2.3.3-.4 1.1-.9 1.9-1.3 1.3-.8 3-1.7 3.9-3.5.9-1.7.7-3.6.6-5.2-.1-1-.1-1.9 0-2.5.2-.5.8-1.2 1.4-1.9 1-1.2 2.3-2.6 2.6-4.6.3-1.9-.4-3.6-1-5.1-.4-.9-.7-1.8-.7-2.4s.4-1.5.7-2.4c.6-1.5 1.3-3.2 1-5.1-.3-2-1.6-3.4-2.6-4.6-.6-.7-1.2-1.4-1.4-1.9-.2-.6-.1-1.5 0-2.5.1-1.6.2-3.5-.6-5.2-.9-1.7-2.5-2.7-3.9-3.5-.8-.4-1.6-.9-1.9-1.3-.3-.4-.5-1.4-.8-2.3-.4-1.6-.8-3.4-2.2-4.8-1.4-1.4-3.2-1.8-4.7-2.1-.9-.2-1.7-.4-2.1-.7-.4-.3-.9-1.2-1.4-1.9-.8-1.4-1.8-3-3.5-3.9-1.7-.9-3.6-.7-5.1-.5-.8.1-1.8.2-2.2.1-.4-.1-1.2-.8-1.8-1.4-1.2-1-2.6-2.4-4.5-2.7-1.9-.3-3.5.5-5 1.1-.8.4-1.6.8-2.1.8-.1 0-.3 0-.4-.1-.5-.1-1.1-.4-1.7-.7-.4-.2-.7-.3-1.1-.5-.8-.3-1.6-.6-2.5-.7h-1.4c-1.9.3-3.4 1.6-4.5 2.7-.6.6-1.3 1.2-1.8 1.4-.5.2-1.4 0-2.2-.1-1.5-.2-3.4-.4-5.1.5-1.7.9-2.7 2.5-3.5 3.9-.2.4-.5.8-.7 1.1-.2.3-.5.6-.7.8-.2.1-.5.3-.9.4l-1.2.3c-.2 0-.4.1-.6.1-1.4.3-2.9.7-4.2 1.9-1.4 1.4-1.8 3.2-2.2 4.8-.2.9-.4 1.9-.8 2.3-.3.4-1.1.9-1.9 1.3-1.3.8-3 1.7-3.9 3.5-.9 1.7-.7 3.6-.6 5.2.1 1 .1 1.9 0 2.5-.2.5-.8 1.2-1.4 1.9-1 1.2-2.3 2.6-2.6 4.6-.3 1.9.4 3.6 1 5.1.4.9.7 1.8.7 2.4 0 .6-.4 1.5-.7 2.4-.6 1.5-1.3 3.2-1 5.1.3 2 1.6 3.4 2.6 4.6.6.7 1.2 1.4 1.4 1.9.2.6.1 1.5 0 2.5-.1 1.6-.2 3.5.6 5.2.9 1.7 2.5 2.7 3.9 3.5.8.4 1.6.9 1.9 1.3.3.4.5 1.4.8 2.3.4 1.6.8 3.4 2.2 4.8 1.4 1.4 3.2 1.8 4.7 2.1.9.2 1.7.4 2.1.7.1.1.2.1.3.2 1.8 1.8 3.8 3.3 6 4.7v9.8l-1.8-1.8c-.5-.5-1.1-.7-1.7-.7h-28.7c-.1 0-14.2.4-14.2 15.4v17.9c0 1.4 1.1 2.5 2.5 2.5s2.5-1.1 2.5-2.5V297c0-9.9 8.3-10.4 9.2-10.4h27.7l23 22.3c.1.1.3.2.4.3.1 0 .1.1.2.1s.2.1.3.1h.2c.1 0 .2.1.3.1h1c.1 0 .2-.1.3-.1h.1c.1 0 .2-.1.4-.2h.1c.1-.1.3-.2.4-.3l23-22.4h25.7c.9 0 9.3.5 9.3 10.4V315c0 1.4 1.1 2.5 2.5 2.5s2.5-1.1 2.5-2.5v-18.1c-.2-15.1-14.2-15.5-14.4-15.5zm-88.2-28.9c-.2-.5-.2-1.6-.1-2.6.1-1.4.2-2.9-.3-4.4-.5-1.5-1.5-2.6-2.3-3.6-.6-.7-1.3-1.6-1.4-2.1-.1-.5.3-1.5.7-2.4.5-1.3 1.1-2.7 1.1-4.3s-.6-3-1.1-4.3c-.4-.9-.8-1.9-.7-2.4.1-.5.8-1.4 1.4-2.1.9-1 1.9-2.2 2.3-3.6.5-1.5.4-3 .3-4.4-.1-1-.2-2.1.1-2.6.2-.4 1.1-1 1.9-1.5 1.2-.7 2.5-1.4 3.4-2.7.9-1.3 1.3-2.8 1.6-4.1.2-.9.5-2 .8-2.4.3-.3 1.4-.5 2.2-.7 1.3-.3 2.8-.6 4.1-1.5 1.3-.9 2-2.2 2.7-3.4.5-.8 1-1.8 1.5-2 .4-.2 1.4-.1 2.2 0 1.3.2 2.9.3 4.4-.1 1.5-.5 2.6-1.5 3.6-2.4.6-.6 1.5-1.3 1.9-1.4.4-.1 1.4.4 2.1.7 1.2.6 2.6 1.2 4.2 1.2s3-.7 4.2-1.2c.7-.3 1.7-.8 2.1-.7.4.1 1.3.8 1.9 1.4 1 .9 2.1 1.9 3.6 2.4s3 .3 4.4.1c.8-.1 1.9-.2 2.2 0 .4.2 1 1.2 1.5 2 .7 1.2 1.5 2.5 2.7 3.4 1.3.9 2.8 1.2 4.1 1.5.8.2 1.9.4 2.2.7.4.4.6 1.5.8 2.4.3 1.3.7 2.8 1.6 4.1.9 1.3 2.2 2 3.4 2.7.8.5 1.7 1 1.9 1.5.2.5.2 1.6.1 2.6-.1 1.4-.2 2.9.3 4.4.5 1.5 1.5 2.6 2.3 3.6.6.7 1.3 1.6 1.4 2.1.1.5-.3 1.5-.7 2.4-.5 1.3-1.1 2.7-1.1 4.3s.6 3 1.1 4.3c.4.9.8 1.9.7 2.4-.1.5-.8 1.4-1.4 2.1-.9 1-1.9 2.2-2.3 3.6-.5 1.5-.4 3-.3 4.4.1 1 .2 2.1-.1 2.6-.2.4-1.1 1-1.9 1.5-.2.1-.5.3-.7.4 1-3.4 1.6-6.9 1.6-10.6 0-6.1-1.6-12.2-4.6-17.5 0-.1-.1-.2-.2-.2 0-.1-.1-.1-.1-.2s-.1-.1-.2-.1l-.2-.2c-.3-.2-.7-.8-1-1.5-.7-1.1-1.5-2.6-3.1-3.5-1.5-.8-3.2-.9-4.7-1-.9-.1-1.9-.1-2.5-.3-.5-.2-1.1-.7-1.7-1.3-1-.9-2.3-2-4-2.5-1.6-.4-3.3-.1-4.7.1-.9.2-1.8.3-2.4.2-.6-.1-1.4-.5-2.3-.9l-.2-.1c-1.1-.6-2.5-.2-3.2.8-.9 1-1.3 2.1-1.6 3.1-.2.5-.4 1.2-.6 1.4-.4.3-1.5.4-2.4.6-1.3.2-2.7.4-3.9 1-1.3.7-2.1 1.7-2.8 2.6-.5.6-1 1.2-1.4 1.4-.5.2-1.6.1-2.6 0-1.3-.1-2.7-.2-4.1.1-1.4.3-2.5 1.1-3.5 1.7-.8.5-1.5 1-2.1 1.1-.6.1-1.5-.3-2.5-.6-1.1-.4-2.3-.7-3.6-.8h-.3-.1c-1.3 0-2.3 1-2.5 2.2-2 4.6-3 9.4-3 14.4 0 3.5.5 6.9 1.5 10.2-.5-.6-1.3-1.1-1.6-1.5zm5.4-8.8c0-3.9.7-7.7 2.2-11.3.2.1.5.2.8.2 1.2.4 2.5.8 3.9.8h.7c1.8-.2 3.2-1.1 4.3-1.9.7-.5 1.4-.9 1.9-1 .6-.1 1.6-.1 2.5 0 1.5.1 3.2.3 4.8-.3 1.7-.6 2.7-1.9 3.6-2.9.5-.6.9-1.1 1.3-1.3.5-.2 1.4-.4 2.3-.5 1.5-.2 3.2-.5 4.6-1.5 1.5-1.1 2-2.6 2.4-3.8.6.2 1.1.4 1.8.5 1.4.2 2.8 0 4.1-.3 1-.2 1.9-.4 2.5-.2.6.2 1.2.7 1.9 1.4.9.8 1.9 1.7 3.2 2.2 1.3.5 2.8.6 4 .7 1 .1 2.1.1 2.6.4.4.2.7.9 1.1 1.5.5.8 1 1.7 1.9 2.5 2.5 4.5 3.8 9.6 3.8 14.7 0 17.1-13.9 31-31 31-17.3.1-31.2-13.8-31.2-30.9zm31 36c5.2 0 10.1-1.1 14.6-3.1v14l-13.4 13.1-15.2-14.7v-12.1c4.3 1.8 9 2.8 14 2.8zM117.2 307.6H95.8c0-.1.1-.3.1-.4 3-9.6 6.7-23.3 7.5-33.7l.1-1.6v-.2c0-.7.1-1.4.1-2.1 0-10.1-3.9-19.7-11.1-26.8-7.2-7.2-16.7-11.1-26.8-11.1-17.5 0-32.2 11.9-36.6 27.9 0 .1-.1.1-.1.2-.3 1.3-.6 2.6-.8 3.8 0 .1 0 .3-.1.4 0 .2-.1.4-.1.6-.2 1.6-.3 3.3-.3 5v1.5c0 .3 0 .7.1 1v.1c0 .5.1.9.1 1.4.7 8.2 3.5 21.4 5.7 31.1.2 1 .5 2 .8 3H14.2c-.2.1-14.2.6-14.2 15.5v17.9c0 1.4 1.1 2.5 2.5 2.5s2.5-1.1 2.5-2.5v-17.9c0-9.9 8.3-10.4 9.2-10.4h22.5c3.7 6.9 9.9 12.3 17.5 15l.3.1c3.5 1.2 7.1 1.9 10.8 1.9 4 0 8.1-.8 11.9-2.3 7.2-2.9 13-8.2 16.5-14.9h23.5c.9 0 9.3.5 9.3 10.4v18.1c0 1.4 1.1 2.5 2.5 2.5s2.5-1.1 2.5-2.5V323c0-15-14.1-15.3-14.3-15.4zm-61 15.7l-.3-.1a27.1 27.1 0 0 1-17.3-19.4c-2.2-9.5-4.9-22.5-5.6-30.4 0-.3-.1-.5-.1-.8 3.2 5.9 8.3 12.4 15.3 16.6 1 .6 2.3.4 3.1-.5l2.2-2.4c1-1.1 2.5-1.8 4-1.8h16.2c1.6 0 3 .6 4 1.8l2.2 2.4c.8.9 2.1 1.1 3.1.5 7-4.2 12.1-10.6 15.3-16.6v.6c-.8 9.9-4.4 23.2-7.3 32.6-2.4 7.9-8.2 14.1-15.8 17.2-6 2.4-12.8 2.5-19 .3zm9.5-86.5c8.8 0 17.1 3.4 23.3 9.6 4.1 4.1 6.9 9 8.4 14.5 0 .6-.3 2.1-1.1 4.4-2.1 5.8-6.8 13.4-14 18.4l-.8-.8c-2-2.2-4.8-3.4-7.7-3.4H57.6c-2.9 0-5.8 1.3-7.7 3.4l-.8.8c-7.2-5-11.9-12.6-14-18.4-.7-2-1-3.5-1.1-4.3 3.8-14 16.6-24.2 31.7-24.2zM197.3 154.4H189c1.1-6.3 1.9-12.5 2.2-18.6.8-14.5-.3-34.8-10.1-49.7-7.9-11.9-19.7-18-35.2-18-.9 0-1.8 0-2.7.1-.3 0-.7 0-1 .1-.5 0-1.1.1-1.6.1-.4 0-.8.1-1.2.1-.4.1-.9.1-1.3.2-.5.1-.9.2-1.4.2-.4.1-.7.1-1.1.2l-1.5.3c-.3.1-.6.1-.9.2-.5.1-1 .3-1.5.4-.2.1-.5.1-.7.2-.5.2-1.1.4-1.6.6-.2.1-.3.1-.5.2-.6.2-1.2.5-1.7.7-.1 0-.1.1-.2.1-3.3 1.5-6.4 3.5-9.1 5.9-.1.1-.1.1-.2.1-.4.4-.9.8-1.3 1.2l-.4.4c-.4.4-.7.8-1.1 1.2-.2.2-.4.4-.6.7-.3.3-.6.7-.9 1.1-.1.1-.2.3-.4.4l-.1.1c-.8 1-1.5 2-2.2 3.1-9.8 14.9-10.9 35.2-10.1 49.7.3 6.1 1.1 12.4 2.2 18.8h-8.6c-.2.1-14.2.5-14.2 15.5v17.9c0 1.4 1.1 2.5 2.5 2.5s2.5-1.1 2.5-2.5V170c0-9.9 8.3-10.4 9.2-10.4h9.5c2.1 9.8 5 19.5 8.6 28.3l.3.6v.1c0 1.4 1.1 2.5 2.5 2.5h14c1.4 0 2.5-1.1 2.5-2.5V169l13.3 12.9c1 .9 2.5.9 3.5 0l11.8-11.5v18.3c0 1.4 1.1 2.5 2.5 2.5h13.7c1 0 1.9-.6 2.3-1.5.2-.6.5-1.2.7-1.8 3.6-8.9 6.6-18.6 8.6-28.5h9.2c.4 0 9.3.3 9.3 10.4v18.1c0 1.4 1.1 2.5 2.5 2.5s2.5-1.1 2.5-2.5v-18.1c0-15-14.1-15.4-14.2-15.4zm-50.7 22.2l-15-14.6v-10.4c4.4 1.8 9.2 2.8 14.2 2.8 5.1 0 9.9-1 14.3-2.8v11.9l-13.5 13.1zm-15.1-75.1c9.8 12 21.9 19.1 36.3 21.2h.3c1 .1 2 .3 2.9.4.3 0 .6 0 .8.1.8.1 1.6.1 2.5.2H177.9c-3.2 14.8-16.4 26-32.2 26-5.5 0-10.7-1.4-15.2-3.7l-.1-.1c-11.6-7-17.4-16.8-17.4-29.1-.1-5.8 5.5-10.3 18.5-15zm33.6 84.7v-37c7.4-4.1 17.4-15.5 18.4-28.2.1-.7-.2-1.4-.7-1.9-.5-.5-1.2-.8-1.9-.8h-.1H180.5c-1.1.1-2.5.1-4.3.1h-.6c-8.8-.1-24.3-2.2-38.1-17.5l.2.1c-1.1-1.3-2.3-2.6-3.4-4-.5-.7-1.3-1-2.1-1-.4 0-.8.1-1.2.3-11.6 4-23.2 9.5-23.2 20.1 0 13.7 6.3 24.6 18.6 32.6v37.1h-9.5c-12.5-30.3-17.5-74.2-2.2-97.3.8-1.2 1.6-2.3 2.5-3.3.2-.2.4-.4.6-.7.3-.3.6-.7.9-1l.6-.6c.3-.3.6-.6 1-.9.2-.2.4-.4.6-.5.4-.3.7-.6 1.1-.9.2-.1.4-.3.5-.4.4-.3.9-.7 1.3-1 .1-.1.2-.2.4-.3.6-.4 1.1-.8 1.7-1.1.2-.1.4-.2.5-.3.4-.2.8-.5 1.3-.7.3-.1.5-.3.8-.4.4-.2.7-.4 1.1-.5.3-.1.6-.2.9-.4.4-.1.7-.3 1.1-.4l.9-.3c.4-.1.7-.2 1.1-.3.3-.1.6-.2 1-.3.4-.1.8-.2 1.1-.3.3-.1.7-.2 1-.2.4-.1.8-.2 1.2-.2.3-.1.7-.1 1-.2.4-.1.9-.1 1.3-.2.3 0 .6-.1 1-.1.5 0 1-.1 1.5-.1.3 0 .5 0 .8-.1.8 0 1.6-.1 2.4-.1 13.7 0 24.2 5.3 31.1 15.7 15.3 23.1 10.3 67-2.2 97.3h-9.7z"/>
  <path class="svg-bg-home-mobile-st1" d="M319 11.9c9.6-.1 16.5 1.2 24 3.7-2-3.4-3.1-3.6-3.1-3.6h-.3l-26.3-3.8c-2.3-.1-6-1-9.6-1.9-1.4-.4-2.9-.8-4.1-1L294.8 16c7.7-2.6 14.8-4.1 24.2-4.1zM294.9 84.7c-.7-.2-1.4-.5-2.1-.8l-3 6.8c3 1.2 6 2.2 9.1 3 5.1 1.3 10.3 2.2 15.6 2.5l-4.6-7.9c-5-.7-10.1-1.9-15-3.6zM350.6 51.9c.2-.6.3-1.2.5-1.8.6-2.4.9-5 .9-7.6 0-2.8-.4-5.7-1.1-8.4-.1-.2-.1-.4-.1-.6h-.1c-1.4-4.7-3.7-9-6.9-12.6-8-2.8-14.9-4.3-24.8-4.2-9.8.1-16.8 1.7-25.2 4.8-2.9 3.5-5.1 7.5-6.4 12h-.1c0 .2 0 .4-.1.6-.7 2.7-1.1 5.6-1.1 8.5 0 3.2.5 6.3 1.3 9.4 4.1 13.9 17.1 23.6 31.6 23.6 14.5-.1 27.5-9.8 31.6-23.7zM346.4 86.6l-.4-.9-.8-1.9c-.1 0-.2.1-.2.1-.6.2-1.2.4-1.8.7l-.9.3c-.4.1-.8.3-1.2.4-.3.1-.6.2-1 .3-.4.1-.7.2-1.1.3-.3.1-.7.2-1 .3-.4.1-.7.2-1.1.3-.3.1-.7.2-1 .3-.4.1-.7.2-1.1.3-.3.1-.7.2-1 .2-.4.1-.7.2-1.1.2-.3.1-.7.1-1 .2-.4.1-.7.1-1.1.2-.3.1-.7.1-1 .2-.2 0-.4.1-.6.1h-.1c-.3 0-.7.1-1 .1l-4.6 7.9c2.1-.1 4.2-.3 6.3-.6 6.3-.9 12.4-2.5 18.4-4.8l-1.6-4.2z"/>
  <path class="svg-bg-home-mobile-st0" d="M370.5 89.8h-17.4l-2.2-5.2-.4-.9-1.8-4.1-1-2.3-2.3 1c-.7.3-1.5.6-2.2.9-.2.1-.5.2-.8.3-.5.2-1 .4-1.5.5l-.9.3c-.4.1-.9.3-1.3.4-.2.1-.4.1-.5.2v-5.8c4.1-2.5 7.8-5.7 10.7-9.5l.2-.2c.2-.2.4-.5.5-.7.2-.2.3-.5.5-.7.1-.2.2-.4.4-.5.2-.4.5-.7.7-1.1.1-.1.1-.2.2-.3 1.6-2.7 3-5.7 3.9-8.8.2-.6.4-1.3.5-2 .1-.3.1-.6.2-.9 0-.1.1-.3.1-.4.1-.5.2-1 .3-1.4 0-.2.1-.5.1-.7.1-.4.1-.8.2-1.2 0-.4.1-.8.1-1.1 0-.3 0-.6.1-.9 0-.7.1-1.4.1-2.1 0-.8 0-1.5-.1-2.3v-.5c0-.6-.1-1.2-.2-1.8 0-.2 0-.3-.1-.5-.1-.7-.2-1.5-.4-2.2-.8-4-2.2-7.8-4.2-11.3l.2.1-2.3-5.2c-3.5-7.9-6.5-11.5-9.9-11.6l-26.4-3.8h-.3c-1.6 0-5.5-1-8.6-1.8-2.7-.7-5-1.3-6.5-1.4l-1.5-.3-10.8 24.1c-1.5 2.7-2.7 5.5-3.5 8.5 0 .1-.1.1-.1.2-.3 1.1-.5 2.2-.7 3.4-.1.3-.1.6-.1.9-.1.4-.1.7-.1 1.1 0 .4-.1.8-.1 1.3 0 .3-.1.6-.1.9 0 .7-.1 1.4-.1 2.2 0 .8 0 1.6.1 2.5v.6c.1.8.1 1.5.2 2.2v.2c.1.8.3 1.6.4 2.4 0 .1.1.3.1.4.2.8.4 1.5.6 2.3v.1c.1.4.2.8.4 1.2 0 .1.1.3.1.4.1.4.3.8.4 1.2 0 .1.1.2.1.2 1.2 3.2 2.9 6.2 5 8.9 0 0 0 .1.1.1.4.5.7.9 1.1 1.4l.2.2c.4.4.7.8 1.1 1.3l.2.2c.3.3.6.7.9 1l.3.3c2.2 2.2 4.6 4 7.2 5.6V81c-2.4-.7-4.8-1.6-7.2-2.6l-2.3-1-1 2.3-4.3 10.3h-17.3c-.1 0-14.2.4-14.2 15.4V118c0 1.4 1.1 2.5 2.5 2.5s2.5-1.1 2.5-2.5v-12.6c0-9.9 8.3-10.4 9.2-10.4h19.6c.7.3 1.5.6 2.3.9.4.2.8.3 1.2.4.9.3 1.7.6 2.6.9.5.2 1 .3 1.5.5.8.2 1.6.5 2.4.7.5.1 1.1.3 1.6.4l2.4.6c.5.1 1.1.2 1.6.3.8.2 1.6.3 2.4.4l1.5.3 2.7.3c.4.1.9.1 1.3.2 1.2.1 2.5.2 3.7.3h.3l-.1.1h8.6l-.1-.1h.3c1.2-.1 2.5-.2 3.7-.3.5 0 .9-.1 1.4-.2l2.7-.3c.5-.1 1-.2 1.6-.3.8-.1 1.6-.3 2.4-.4.5-.1 1.1-.2 1.6-.3l2.4-.6c.5-.1 1.1-.3 1.6-.4.8-.2 1.6-.5 2.4-.7.5-.2 1-.3 1.5-.5.9-.3 1.7-.6 2.6-.9.4-.1.8-.3 1.3-.4.9-.3 1.8-.7 2.7-1.1h19.1c.4 0 9.3.3 9.3 10.4V118c0 1.4 1.1 2.5 2.5 2.5s2.5-1.1 2.5-2.5v-12.8c.2-15-13.9-15.4-14.1-15.4zM299.6 5.2c1.2.3 2.6.6 4.1 1 3.6.9 7.3 1.9 9.6 1.9l26.3 3.8h.3s1.1.2 3.1 3.6c-7.5-2.4-14.4-3.7-24-3.7-9.4.1-16.5 1.5-24.2 4.1l4.8-10.7zm-12.2 46.7c-.9-3-1.3-6.2-1.3-9.4 0-2.9.4-5.8 1.1-8.5.1-.2.1-.4.1-.6h.1c1.3-4.5 3.5-8.5 6.4-12 8.4-3 15.4-4.7 25.2-4.8 9.9-.1 16.8 1.4 24.8 4.2 3.1 3.6 5.5 7.9 6.9 12.6h.1c0 .2 0 .4.1.6.7 2.8 1.1 5.6 1.1 8.4 0 2.6-.3 5.2-.9 7.6-.2.6-.3 1.2-.5 1.8-4.1 13.9-17.1 23.6-31.6 23.6-14.5.1-27.5-9.6-31.6-23.5zM299 93.7c-3.1-.8-6.1-1.8-9.1-3l3-6.8c.7.3 1.4.5 2.1.8 4.9 1.7 9.9 2.9 15.1 3.6l4.6 7.9c-5.4-.4-10.6-1.2-15.7-2.5zm20 .1l-5.3-9.1-.6-1.1-1.3-.1c-2.4-.3-4.8-.7-7.1-1.2v-4.6c1.9.8 3.9 1.4 6 1.9h.2c2.6.6 5.3.9 8.1.9 5 0 9.8-1 14.3-2.8v4.6h-.1c-.5.1-.9.2-1.4.3-.3.1-.6.1-.9.2-.5.1-1.1.2-1.6.3-.3 0-.5.1-.8.1l-2.4.3-1.3.1-.6 1.1-5.2 9.1zm10.8 1.7c-2.1.3-4.2.5-6.3.6l4.6-7.9c.3 0 .7-.1 1-.1h.1c.2 0 .4-.1.6-.1.3 0 .7-.1 1-.2.4-.1.7-.1 1.1-.2.3-.1.7-.1 1-.2.4-.1.7-.1 1.1-.2.3-.1.7-.1 1-.2.4-.1.7-.2 1.1-.3.3-.1.7-.2 1-.3.4-.1.7-.2 1.1-.3.3-.1.7-.2 1-.3.4-.1.7-.2 1.1-.3.3-.1.6-.2 1-.3.4-.1.8-.3 1.2-.4l.9-.3c.6-.2 1.2-.4 1.8-.7.1 0 .2-.1.2-.1l.8 1.9.4.9 1.8 4.1c-6.2 2.5-12.4 4.1-18.6 4.9z"/>
</svg>