<svg preserveAspectRatio="xMaxYMin slice" xmlns="http://www.w3.org/2000/svg" viewBox="0 0 1440 65">
  <defs>
    <style>
      .c-footer-blue-cls-3{fill:#599cf4}
    </style>
    <clipPath id="c-footer-blue-clip-path">
      <path fill="none" d="M0 0h1440v65H0z"/>
    </clipPath>
  </defs>
  <g clip-path="url(#c-footer-blue-clip-path)">
    <path id="Fill-1" class="c-footer-blue-cls-3" d="M30.72 53.69a2.89 2.89 0 0 0-3.93 0L13.83 66a2.54 2.54 0 0 0 0 3.73 2.89 2.89 0 0 0 3.93 0l13-12.32a2.55 2.55 0 0 0 0-3.73"/>
    <path id="Fill-3" class="c-footer-blue-cls-3" d="M271.15 36.17a2.54 2.54 0 0 1 0-3.73l-21.9 20.8a2.43 2.43 0 0 0-.39.47 2.53 2.53 0 0 0 .36 3.26 2.86 2.86 0 0 0 3.43.34 2.23 2.23 0 0 0 .5-.37l22.13-21-.23.22a2.89 2.89 0 0 1-3.93 0"/>
    <path id="Fill-51" class="c-footer-blue-cls-3" d="M61.89 66.05l12.83-12.2a2.54 2.54 0 0 0 0-3.73 2.89 2.89 0 0 0-3.93 0L58 62.34a2.54 2.54 0 0 0 0 3.73 2.89 2.89 0 0 0 3.93 0"/>
    <path id="Fill-53" class="c-footer-blue-cls-3" d="M103.47 19.14l-18.3 17.38a2.55 2.55 0 0 0 0 3.74 2.89 2.89 0 0 0 3.93 0l17.69-16.8.61-.58a2.55 2.55 0 0 0 0-3.73 2.89 2.89 0 0 0-3.93 0"/>
    <path id="Fill-59" class="c-footer-blue-cls-3" d="M17.92 31.2a2.55 2.55 0 0 0 0-3.73 2.89 2.89 0 0 0-3.93 0L-5.75 46.28a2.87 2.87 0 0 1 3.92 0 2.54 2.54 0 0 1 0 3.73z"/>
    <path id="Fill-65" class="c-footer-blue-cls-3" d="M60.74 48.23l22.18-21.07a2.89 2.89 0 0 1-3.93 0 2.56 2.56 0 0 1 0-3.74l-22.15 21.1a2.55 2.55 0 0 0 0 3.73 2.89 2.89 0 0 0 3.93 0"/>
    <path id="Fill-67" class="c-footer-blue-cls-3" d="M24.39 2.18a2.89 2.89 0 0 0-3.93 0L.91 20.77a2.88 2.88 0 0 1 3.92 0 2.54 2.54 0 0 1 0 3.73L24.36 5.91a2.55 2.55 0 0 0 0-3.73"/>
    <path id="Fill-94" class="c-footer-blue-cls-3" d="M143.67 38.5L141 41.08a2.55 2.55 0 0 0 0 3.74 2.89 2.89 0 0 0 3.93 0l2.72-2.58a2.56 2.56 0 0 0 0-3.74 2.89 2.89 0 0 0-3.93 0"/>
    <path id="Fill-96" class="c-footer-blue-cls-3" d="M153 29.61l-.2.19a2.54 2.54 0 0 0 0 3.73 2.89 2.89 0 0 0 3.93 0l.2-.2a2.54 2.54 0 0 0 0-3.73 2.88 2.88 0 0 0-3.92 0"/>
    <path id="Fill-98" class="c-footer-blue-cls-3" d="M284.32.79l-.21.19a2.54 2.54 0 0 0 0 3.73 2.89 2.89 0 0 0 3.93 0l.2-.2a2.54 2.54 0 0 0 0-3.73 2.87 2.87 0 0 0-3.92 0"/>
    <path id="Fill-100" class="c-footer-blue-cls-3" d="M274.28 14a2.88 2.88 0 0 0-3.92 0l-30.1 28.63-.2.19-3.75 3.56L213.66 68a2.89 2.89 0 0 1 3.93 0 2.54 2.54 0 0 1 .33 3.32l22.29-21.17.86-.82 2.93-2.8.21-.19 30.09-28.59a2.54 2.54 0 0 0 0-3.73"/>
    <path id="Fill-102" class="c-footer-blue-cls-3" d="M307.56 36.23l-.61.58a2.55 2.55 0 0 0 0 3.73 2.89 2.89 0 0 0 3.93 0l.61-.57 11.19-10.62V21.9l-15.12 14.33"/>
    <path id="Fill-104" class="c-footer-blue-cls-3" d="M313.43 53.54a2.54 2.54 0 0 1 0-3.73l-17.2 16.33-35.13 33.4L235.45 124l-1.19 1.12a2.89 2.89 0 0 1 3.93 0 2.54 2.54 0 0 1 .33 3.32 2.71 2.71 0 0 1-.36.41L265 103.24l52.35-49.73a2.87 2.87 0 0 1-3.92 0"/>
    <path id="Fill-119" class="c-footer-blue-cls-3" d="M189.9 40.35a2.53 2.53 0 0 0-.33-3.31 2.89 2.89 0 0 0-3.93 0l-.16.16-14.9 14.14a2.53 2.53 0 0 0 .34 3.31 2.86 2.86 0 0 0 3.92 0l13.43-12.75 1.63-1.55"/>
    <path id="Fill-125" class="c-footer-blue-cls-3" d="M187.69 80.87l-.6.58 20.38-19.36a3.62 3.62 0 0 0 .36-.42l6.7-6.36 35.15-33.39.24-.22 17.2-16.33-.24.21a2.86 2.86 0 0 1-3.92 0 2.54 2.54 0 0 1 0-3.73l.24-.22L246 18l-.23.22-35.14 33.38-7.06 6.78-19.77 18.78a2.87 2.87 0 0 1 3.92 0 2.53 2.53 0 0 1 .33 3.31 2.36 2.36 0 0 1-.36.42"/>
    <path id="Fill-181" class="c-footer-blue-cls-3" d="M68.14 21.75l-.23.22A2.89 2.89 0 0 1 64 22a2.55 2.55 0 0 1 0-3.73l.23-.22a2.89 2.89 0 0 1 3.93 0 2.54 2.54 0 0 1 0 3.73"/>
    <path id="Fill-183" class="c-footer-blue-cls-3" d="M101.48 9.26l-.23.22a2.89 2.89 0 0 1-3.93 0 2.55 2.55 0 0 1 0-3.73l.23-.22a2.89 2.89 0 0 1 3.93 0 2.54 2.54 0 0 1 0 3.73"/>
    <path id="Fill-185" class="c-footer-blue-cls-3" d="M74.72 53.85l-.6.58a2.89 2.89 0 0 1-3.93 0 2.54 2.54 0 0 1 0-3.73l.61-.58a2.89 2.89 0 0 1 3.93 0 2.54 2.54 0 0 1 0 3.73"/>
    <path id="Fill-187" class="c-footer-blue-cls-3" d="M95.23 53.55L47 99.32a2.86 2.86 0 0 1-3.92 0 2.54 2.54 0 0 1 0-3.73l48.25-45.74a2.87 2.87 0 0 1 3.92 0 2.54 2.54 0 0 1 0 3.73"/>
    <path id="Fill-189" class="c-footer-blue-cls-3" d="M95.23 53.55L77.47 70.42a2.89 2.89 0 0 1-3.93 0 2.55 2.55 0 0 1 0-3.73l17.79-16.84a2.87 2.87 0 0 1 3.92 0 2.54 2.54 0 0 1 0 3.73"/>
    <path id="Fill-191" class="c-footer-blue-cls-3" d="M111.67 37.94l-7.79 7.39a2.89 2.89 0 0 1-3.93 0 2.55 2.55 0 0 1 0-3.73l7.79-7.4a2.89 2.89 0 0 1 3.93 0 2.56 2.56 0 0 1 0 3.74"/>
    <path id="Fill-193" class="c-footer-blue-cls-3" d="M121.05 29l-.23.23a2.9 2.9 0 0 1-3.93 0 2.55 2.55 0 0 1 0-3.73l.23-.22a2.89 2.89 0 0 1 3.93 0 2.54 2.54 0 0 1 0 3.73"/>
    <path id="Fill-195" class="c-footer-blue-cls-3" d="M103.45 64.92l-53.91 51.2a2.89 2.89 0 0 1-3.93 0 2.54 2.54 0 0 1 0-3.73l53.94-51.18a2.89 2.89 0 0 1 3.93 0 2.55 2.55 0 0 1 0 3.73"/>
    <path id="Fill-197" class="c-footer-blue-cls-3" d="M103.45 64.92l-22.13 21a2.89 2.89 0 0 1-3.93 0 2.55 2.55 0 0 1 0-3.74l22.13-21a2.89 2.89 0 0 1 3.93 0 2.55 2.55 0 0 1 0 3.73"/>
    <path id="Fill-199" class="c-footer-blue-cls-3" d="M103.45 64.92l-.23.22a2.89 2.89 0 0 1-3.93 0 2.55 2.55 0 0 1 0-3.74l.23-.22a2.89 2.89 0 0 1 3.93 0 2.55 2.55 0 0 1 0 3.73"/>
    <path id="Fill-203" class="c-footer-blue-cls-3" d="M138.07 32l-22.13 21a2.88 2.88 0 0 1-3.93 0 2.54 2.54 0 0 1 0-3.73l22.13-21a2.89 2.89 0 0 1 3.93 0 2.56 2.56 0 0 1 0 3.74"/>
    <path id="Fill-205" class="c-footer-blue-cls-3" d="M161.09 10.17L139 31.19a2.89 2.89 0 0 1-3.93 0 2.54 2.54 0 0 1 0-3.73l22.13-21a2.89 2.89 0 0 1 3.93 0 2.55 2.55 0 0 1 0 3.73"/>
    <path id="Fill-207" class="c-footer-blue-cls-3" d="M116.17 52.84l-.23.22a2.88 2.88 0 0 1-3.93 0 2.54 2.54 0 0 1 0-3.73l.23-.22a2.88 2.88 0 0 1 3.93 0 2.55 2.55 0 0 1 0 3.73"/>
    <path id="Fill-209" class="c-footer-blue-cls-3" d="M161.09 10.17l-.23.22a2.89 2.89 0 0 1-3.93 0 2.54 2.54 0 0 1 0-3.73l.23-.22a2.89 2.89 0 0 1 3.93 0 2.55 2.55 0 0 1 0 3.73"/>
    <path id="Fill-233" class="c-footer-blue-cls-3" d="M-27 51a2.87 2.87 0 0 0 3.92 0L4.58 24.7a2.89 2.89 0 0 1-3.93 0A2.54 2.54 0 0 1 .68 21L-27 47.27A2.54 2.54 0 0 0-27 51"/>
    <path id="Fill-256" class="c-footer-blue-cls-3" d="M17.85 46.74a2.54 2.54 0 0 1 0 3.73L.07 67.33l45.46-43.18a2.54 2.54 0 0 0 0-3.73 2.88 2.88 0 0 0-3.93 0L13.93 46.76a2.88 2.88 0 0 1 3.92 0"/>
    <path id="Fill-258" class="c-footer-blue-cls-3" d="M13.92 46.76L-3.83 63.63l17.76-16.87"/>
    <path id="Fill-260" class="c-footer-blue-cls-3" d="M.07 67.33l17.75-16.86a2.54 2.54 0 0 0 0-3.73 2.88 2.88 0 0 0-3.92 0L-3.83 63.63a2.54 2.54 0 0 0 0 3.73 2.89 2.89 0 0 0 3.93 0"/>
    <path id="Fill-268" class="c-footer-blue-cls-3" d="M89.34 17.36a2.89 2.89 0 0 0-3.93 0L79 23.46a2.55 2.55 0 0 0 0 3.73 2.89 2.89 0 0 0 3.93 0l6.39-6.07a2.55 2.55 0 0 0 0-3.73"/>
    <path id="Fill-270" class="c-footer-blue-cls-3" d="M-.23 6.39a2.9 2.9 0 0 0-3.93 0l-.23.22a2.6 2.6 0 0 0-.4.49 2.53 2.53 0 0 0 .37 3.25 2.89 2.89 0 0 0 3.42.37 3.07 3.07 0 0 0 .51-.38l.23-.22a2.54 2.54 0 0 0 0-3.73"/>
    <path id="Fill-272" class="c-footer-blue-cls-3" d="M4.83 20.75a2.88 2.88 0 0 0-3.92 0L.67 21a2.54 2.54 0 0 0 0 3.73 2.89 2.89 0 0 0 3.93 0l.23-.22a2.54 2.54 0 0 0 0-3.73"/>
    <path id="Fill-274" class="c-footer-blue-cls-3" d="M30.33 19.41l-3.46 3.29z"/>
    <path id="Fill-276" class="c-footer-blue-cls-3" d="M30.36 15.68a2.89 2.89 0 0 0-3.93 0L23 19a2.54 2.54 0 0 0 0 3.73 2.89 2.89 0 0 0 3.93 0l3.46-3.29a2.55 2.55 0 0 0 0-3.73"/>
    <path id="Fill-280" class="c-footer-blue-cls-3" d="M51.43 11.14l-.23.22z"/>
    <path id="Fill-282" class="c-footer-blue-cls-3" d="M51.43 11.14l-.23.22z"/>
    <path id="Fill-284" class="c-footer-blue-cls-3" d="M55.36 11.11a2.89 2.89 0 0 0-3.93 0l-.23.22a2.54 2.54 0 0 0 0 3.73 2.89 2.89 0 0 0 3.93 0l.23-.22a2.56 2.56 0 0 0 0-3.74"/>
    <path id="Fill-286" class="c-footer-blue-cls-3" d="M30.72 53.69a2.55 2.55 0 0 1 0 3.73l25.8-24.53a2.55 2.55 0 0 0 0-3.73 2.89 2.89 0 0 0-3.93 0l-25.8 24.56a2.89 2.89 0 0 1 3.93 0"/>
    <path id="Fill-292" class="c-footer-blue-cls-3" d="M17.32 85.59a2.54 2.54 0 0 1 0 3.73l31.75-30.18a2.54 2.54 0 0 0 0-3.73 2.87 2.87 0 0 0-3.92 0L13.39 85.62a2.89 2.89 0 0 1 3.93 0"/>
    <path id="Fill-323" class="c-footer-blue-cls-3" d="M148.12 56.87a2.89 2.89 0 0 0-3.93 0l-.23.22a2.56 2.56 0 0 0 0 3.74 2.89 2.89 0 0 0 3.93 0l.23-.22a2.54 2.54 0 0 0 0-3.73"/>
    <path id="Fill-367" class="c-footer-blue-cls-3" d="M136.38 49.12a2.87 2.87 0 0 0-3.92 0L95.28 84.46l27.2-25.84a2.88 2.88 0 0 1 3.93 0 2.54 2.54 0 0 1 0 3.73l10-9.48a2.54 2.54 0 0 0 0-3.73"/>
    <path id="Fill-369" class="c-footer-blue-cls-3" d="M126.41 58.6a2.88 2.88 0 0 0-3.93 0l-27.2 25.86a2.55 2.55 0 0 0 0 3.73 2.89 2.89 0 0 0 3.93 0l27.2-25.83a2.54 2.54 0 0 0 0-3.73"/>
    <path id="Fill-375" class="c-footer-blue-cls-3" d="M179.69 30.87l.13-.12z"/>
    <path id="Fill-377" class="c-footer-blue-cls-3" d="M201.82 29l-2.4 2.29z"/>
    <path id="Fill-379" class="c-footer-blue-cls-3" d="M201.85 25.29a2.89 2.89 0 0 0-3.93 0l-2.4 2.28a2.54 2.54 0 0 0 0 3.73 2.9 2.9 0 0 0 3.93 0l2.38-2.3a2.55 2.55 0 0 0 0-3.73"/>
    <path id="Fill-381" class="c-footer-blue-cls-3" d="M215.9 27.41l-.4.39a2.55 2.55 0 0 0 0 3.73 2.9 2.9 0 0 0 3.93 0l.4-.39a2.54 2.54 0 0 0 0-3.73 2.89 2.89 0 0 0-3.93 0"/>
    <path id="Fill-385" class="c-footer-blue-cls-3" d="M263 5.6a2.87 2.87 0 0 0 3.92 0l.24-.22a2.56 2.56 0 0 0 0-3.74 2.87 2.87 0 0 0-3.92 0l-.24.22a2.54 2.54 0 0 0 0 3.73"/>
    <path id="Fill-387" class="c-footer-blue-cls-3" d="M284.08 4.71a2.54 2.54 0 0 1 0-3.73L270.36 14a2.88 2.88 0 0 1 3.92 0 2.54 2.54 0 0 1 0 3.73L288 4.69a2.89 2.89 0 0 1-3.93 0"/>
    <path id="Fill-389" class="c-footer-blue-cls-3" d="M288.06 20.11a2.9 2.9 0 0 0-3.93 0l-.23.23a2.54 2.54 0 0 0 0 3.73 2.89 2.89 0 0 0 3.93 0l.23-.22a2.54 2.54 0 0 0 0-3.73"/>
    <path id="Fill-391" class="c-footer-blue-cls-3" d="M271.18 32.44l.23-.22z"/>
    <path id="Fill-393" class="c-footer-blue-cls-3" d="M271.41 32.22l-.23.22z"/>
    <path id="Fill-395" class="c-footer-blue-cls-3" d="M271.15 36.17a2.89 2.89 0 0 0 3.93 0l.23-.22a2.54 2.54 0 0 0 0-3.73 2.89 2.89 0 0 0-3.93 0l-.23.22a2.54 2.54 0 0 0 0 3.73"/>
    <path id="Fill-397" class="c-footer-blue-cls-3" d="M255.32 70.38a2.55 2.55 0 0 1 0 3.73l19.35-18.38a2.88 2.88 0 0 1-3.92 0 2.54 2.54 0 0 1 0-3.73l22.13-21-41.49 39.41a2.89 2.89 0 0 1 3.93 0"/>
    <path id="Fill-399" class="c-footer-blue-cls-3" d="M308.66 19.71a2.89 2.89 0 0 0-3.93 0l-.23.22a2.55 2.55 0 0 0 0 3.73 2.89 2.89 0 0 0 3.93 0l.23-.22a2.54 2.54 0 0 0 0-3.73"/>
    <path id="Fill-401" class="c-footer-blue-cls-3" d="M274.65 55.73l22.13-21-22.14 21"/>
    <path id="Fill-403" class="c-footer-blue-cls-3" d="M270.72 55.75a2.88 2.88 0 0 0 3.92 0l22.14-21-.23.22a2.89 2.89 0 0 1-3.93 0 2.54 2.54 0 0 1 0-3.73l.23-.22L270.75 52a2.54 2.54 0 0 0 0 3.73"/>
    <path id="Fill-405" class="c-footer-blue-cls-3" d="M292.62 35a2.9 2.9 0 0 0 3.93 0l.23-.23a2.54 2.54 0 0 0 0-3.73 2.89 2.89 0 0 0-3.93 0l-.23.22a2.54 2.54 0 0 0 0 3.73"/>
    <path id="Fill-409" class="c-footer-blue-cls-3" d="M276 69.92a2.89 2.89 0 0 0 3.93 0l30.93-29.38a2.89 2.89 0 0 1-3.93 0 2.54 2.54 0 0 1 0-3.73L276 66.19a2.54 2.54 0 0 0 0 3.73"/>
    <path id="Fill-411" class="c-footer-blue-cls-3" d="M322.65 44.45v-3.34a2.53 2.53 0 0 0 0 3.34"/>
    <path id="Fill-413" class="c-footer-blue-cls-3" d="M317.36 53.51l.23-.22-.24.22"/>
    <path id="Fill-415" class="c-footer-blue-cls-3" d="M313.45 49.81l.23-.22z"/>
    <path id="Fill-417" class="c-footer-blue-cls-3" d="M317.35 53.51l.24-.22z"/>
    <path id="Fill-419" class="c-footer-blue-cls-3" d="M313.69 49.59l-.24.22z"/>
    <path id="Fill-421" class="c-footer-blue-cls-3" d="M313.43 53.54a2.87 2.87 0 0 0 3.92 0l.24-.22a2.54 2.54 0 0 0 0-3.73 2.87 2.87 0 0 0-3.92 0l-.24.22a2.54 2.54 0 0 0 0 3.73"/>
    <path id="Fill-449" class="c-footer-blue-cls-3" d="M128.16 91.66a2.87 2.87 0 0 1 3.92 0 2.53 2.53 0 0 1 .34 3.31l33.93-32.23a2.54 2.54 0 0 0 0-3.73 2.88 2.88 0 0 0-3.48-.32L128 91.77z"/>
    <path id="Fill-483" class="c-footer-blue-cls-3" d="M211 35.89a2.84 2.84 0 0 0-2-.76 2.92 2.92 0 0 0-2 .79l-34.25 32.56a2.54 2.54 0 0 0 0 3.73 2.89 2.89 0 0 0 3.93 0s34.54-32.84 34.64-33a2.61 2.61 0 0 0 .46-1.53 2.52 2.52 0 0 0-.79-1.79"/>
    <path id="Fill-553" class="c-footer-blue-cls-3" d="M240.26 62.73a2.85 2.85 0 0 0-1.69.76L224 77.32a2.87 2.87 0 0 1 3.92 0 2.54 2.54 0 0 1 .33 3.32 3.31 3.31 0 0 1-.35.41l14.56-13.83a4.59 4.59 0 0 0 .36-.41 2.67 2.67 0 0 0 .45-1.28 2.53 2.53 0 0 0-.79-2 2.83 2.83 0 0 0-2.23-.73"/>
    <path id="Fill-967" class="c-footer-blue-cls-3" d="M414.2 53.69a2.89 2.89 0 0 0-3.93 0L397.31 66a2.55 2.55 0 0 0 0 3.73 2.89 2.89 0 0 0 3.93 0l13-12.32a2.54 2.54 0 0 0 0-3.73"/>
    <path id="Fill-969" class="c-footer-blue-cls-3" d="M654.64 36.17a2.54 2.54 0 0 1 0-3.73l-21.9 20.8a2.8 2.8 0 0 0-.38.47 2.52 2.52 0 0 0 .36 3.26 2.86 2.86 0 0 0 3.43.34 2.48 2.48 0 0 0 .5-.37l22.13-21-.23.22a2.89 2.89 0 0 1-3.93 0"/>
    <path id="Fill-1016" class="c-footer-blue-cls-3" d="M445.37 66.05l12.84-12.2a2.54 2.54 0 0 0 0-3.73 2.89 2.89 0 0 0-3.93 0l-12.81 12.22a2.55 2.55 0 0 0 0 3.73 2.89 2.89 0 0 0 3.93 0"/>
    <path id="Fill-1018" class="c-footer-blue-cls-3" d="M487 19.14l-18.3 17.38a2.56 2.56 0 0 0 0 3.74 2.89 2.89 0 0 0 3.93 0l17.68-16.8.6-.58a2.54 2.54 0 0 0 0-3.73 2.89 2.89 0 0 0-3.93 0"/>
    <path id="Fill-1020" class="c-footer-blue-cls-3" d="M367.56 17.51l-11.3 10.73a2.88 2.88 0 0 1 3.93 0 2.55 2.55 0 0 1 0 3.73l11.3-10.74a2.55 2.55 0 0 0 0-3.73 2.89 2.89 0 0 0-3.93 0"/>
    <path id="Fill-1022" class="c-footer-blue-cls-3" d="M329.18 19.4a2.89 2.89 0 0 0-3.93 0l-2.6 2.47v7.41l6.5-6.18a2.54 2.54 0 0 0 0-3.73"/>
    <path id="Fill-1024" class="c-footer-blue-cls-3" d="M401.41 31.2a2.54 2.54 0 0 0 0-3.73 2.87 2.87 0 0 0-3.92 0l-19.76 18.81a2.89 2.89 0 0 1 3.93 0 2.54 2.54 0 0 1 0 3.73z"/>
    <path id="Fill-1026" class="c-footer-blue-cls-3" d="M351.23 78.86l.61-.57 17.69-16.81a2.54 2.54 0 0 0 0-3.73 2.87 2.87 0 0 0-3.92 0l-17.69 16.8-.61.58a2.54 2.54 0 0 0 0 3.73 2.89 2.89 0 0 0 3.93 0"/>
    <path id="Fill-1030" class="c-footer-blue-cls-3" d="M444.23 48.23l22.18-21.07a2.89 2.89 0 0 1-3.93 0 2.56 2.56 0 0 1 0-3.74l-22.15 21.1a2.54 2.54 0 0 0 0 3.73 2.89 2.89 0 0 0 3.93 0"/>
    <path id="Fill-1032" class="c-footer-blue-cls-3" d="M407.87 2.18a2.89 2.89 0 0 0-3.93 0L384.4 20.77a2.88 2.88 0 0 1 3.92 0 2.54 2.54 0 0 1 0 3.73l19.53-18.59a2.54 2.54 0 0 0 0-3.73"/>
    <path id="Fill-1057" class="c-footer-blue-cls-3" d="M527.15 38.5l-2.72 2.58a2.56 2.56 0 0 0 0 3.74 2.87 2.87 0 0 0 3.92 0l2.72-2.58a2.55 2.55 0 0 0 0-3.74 2.89 2.89 0 0 0-3.93 0"/>
    <path id="Fill-1059" class="c-footer-blue-cls-3" d="M536.51 29.61l-.21.19a2.54 2.54 0 0 0 0 3.73 2.87 2.87 0 0 0 3.92 0l.21-.2a2.54 2.54 0 0 0 0-3.73 2.9 2.9 0 0 0-3.93 0"/>
    <path id="Fill-1061" class="c-footer-blue-cls-3" d="M667.8.79l-.2.19a2.54 2.54 0 0 0 0 3.73 2.89 2.89 0 0 0 3.93 0l.2-.2a2.54 2.54 0 0 0 0-3.73 2.89 2.89 0 0 0-3.93 0"/>
    <path id="Fill-1063" class="c-footer-blue-cls-3" d="M657.77 14a2.88 2.88 0 0 0-3.92 0l-30.1 28.63-.19.19-3.75 3.56L597.15 68a2.89 2.89 0 0 1 3.93 0 2.54 2.54 0 0 1 .33 3.32l22.29-21.23.86-.82 2.88-2.74.2-.19 30.1-28.59a2.54 2.54 0 0 0 0-3.73"/>
    <path id="Fill-1065" class="c-footer-blue-cls-3" d="M691.05 36.23l-.61.58a2.54 2.54 0 0 0 0 3.73 2.89 2.89 0 0 0 3.93 0l.61-.57 11.19-10.62V21.9l-15.12 14.33z"/>
    <path id="Fill-1067" class="c-footer-blue-cls-3" d="M696.91 53.54a2.55 2.55 0 0 1 0-3.73l-17.2 16.33-35.13 33.4L618.93 124l-1.18 1.12a2.89 2.89 0 0 1 3.93 0 2.54 2.54 0 0 1 .33 3.32 2.71 2.71 0 0 1-.36.41l26.83-25.56 52.36-49.73a2.89 2.89 0 0 1-3.93 0"/>
    <path id="Fill-1082" class="c-footer-blue-cls-3" d="M573.39 40.35a2.54 2.54 0 0 0-.34-3.31 2.89 2.89 0 0 0-3.93 0l-.16.16-14.89 14.16a2.53 2.53 0 0 0 .33 3.31 2.88 2.88 0 0 0 3.93 0l13.42-12.77 1.64-1.55"/>
    <path id="Fill-1088" class="c-footer-blue-cls-3" d="M571.18 80.87l-.61.58L591 62.09a2.36 2.36 0 0 0 .36-.42l6.7-6.36 35.15-33.39.23-.22L650.6 5.36l-.23.21a2.88 2.88 0 0 1-3.93 0 2.55 2.55 0 0 1 0-3.73l.23-.22L629.5 18l-.23.22-35.16 33.38-7.06 6.78-19.77 18.78a2.89 2.89 0 0 1 3.93 0 2.53 2.53 0 0 1 .33 3.31 2.36 2.36 0 0 1-.36.42"/>
    <path id="Fill-1144" class="c-footer-blue-cls-3" d="M485 9.26l-.23.22a2.89 2.89 0 0 1-3.93 0 2.54 2.54 0 0 1 0-3.73l.23-.22a2.89 2.89 0 0 1 3.93 0 2.54 2.54 0 0 1 0 3.73"/>
    <path id="Fill-1146" class="c-footer-blue-cls-3" d="M458.21 53.85l-.61.58a2.89 2.89 0 0 1-3.93 0 2.55 2.55 0 0 1 0-3.73l.61-.58a2.89 2.89 0 0 1 3.93 0 2.54 2.54 0 0 1 0 3.73"/>
    <path id="Fill-1148" class="c-footer-blue-cls-3" d="M478.71 53.55l-48.18 45.77a2.88 2.88 0 0 1-3.93 0 2.55 2.55 0 0 1 0-3.73l48.18-45.76a2.89 2.89 0 0 1 3.93 0 2.54 2.54 0 0 1 0 3.73"/>
    <path id="Fill-1150" class="c-footer-blue-cls-3" d="M478.71 53.55L461 70.42a2.89 2.89 0 0 1-3.93 0 2.54 2.54 0 0 1 0-3.73l17.75-16.86a2.89 2.89 0 0 1 3.93 0 2.54 2.54 0 0 1 0 3.73"/>
    <path id="Fill-1152" class="c-footer-blue-cls-3" d="M495.16 37.94l-7.79 7.39a2.89 2.89 0 0 1-3.93 0 2.54 2.54 0 0 1 0-3.73l7.79-7.4a2.89 2.89 0 0 1 3.93 0 2.56 2.56 0 0 1 0 3.74"/>
    <path id="Fill-1154" class="c-footer-blue-cls-3" d="M504.54 29l-.23.23a2.9 2.9 0 0 1-3.93 0 2.54 2.54 0 0 1 0-3.73l.23-.22a2.89 2.89 0 0 1 3.93 0 2.55 2.55 0 0 1 0 3.73"/>
    <path id="Fill-1156" class="c-footer-blue-cls-3" d="M486.94 64.92L433 116.12a2.89 2.89 0 0 1-3.93 0 2.54 2.54 0 0 1 0-3.73L483 61.21a2.87 2.87 0 0 1 3.92 0 2.54 2.54 0 0 1 0 3.73"/>
    <path id="Fill-1158" class="c-footer-blue-cls-3" d="M486.94 64.92l-22.14 21a2.87 2.87 0 0 1-3.92 0 2.56 2.56 0 0 1 0-3.74l22.14-21a2.87 2.87 0 0 1 3.92 0 2.54 2.54 0 0 1 0 3.73"/>
    <path id="Fill-1160" class="c-footer-blue-cls-3" d="M486.94 64.92l-.23.22a2.89 2.89 0 0 1-3.93 0 2.56 2.56 0 0 1 0-3.74l.24-.22a2.87 2.87 0 0 1 3.92 0 2.54 2.54 0 0 1 0 3.73"/>
    <path id="Fill-1164" class="c-footer-blue-cls-3" d="M521.56 32l-22.14 21a2.86 2.86 0 0 1-3.92 0 2.54 2.54 0 0 1 0-3.73l22.14-21a2.87 2.87 0 0 1 3.92 0 2.56 2.56 0 0 1 0 3.74"/>
    <path id="Fill-1166" class="c-footer-blue-cls-3" d="M544.57 10.17l-22.13 21a2.89 2.89 0 0 1-3.93 0 2.55 2.55 0 0 1 0-3.73l22.13-21a2.89 2.89 0 0 1 3.93 0 2.54 2.54 0 0 1 0 3.73"/>
    <path id="Fill-1168" class="c-footer-blue-cls-3" d="M499.66 52.84l-.24.22a2.86 2.86 0 0 1-3.92 0 2.54 2.54 0 0 1 0-3.73l.24-.22a2.86 2.86 0 0 1 3.92 0 2.54 2.54 0 0 1 0 3.73"/>
    <path id="Fill-1170" class="c-footer-blue-cls-3" d="M544.57 10.17l-.23.22a2.89 2.89 0 0 1-3.93 0 2.55 2.55 0 0 1 0-3.73l.23-.22a2.89 2.89 0 0 1 3.93 0 2.54 2.54 0 0 1 0 3.73"/>
    <path id="Fill-1172" class="c-footer-blue-cls-3" d="M340.65 12.21l.61-.58a2.55 2.55 0 0 0 0-3.73 2.89 2.89 0 0 0-3.93 0l-.61.58a2.54 2.54 0 0 0 0 3.73 2.89 2.89 0 0 0 3.93 0"/>
    <path id="Fill-1174" class="c-footer-blue-cls-3" d="M359.55 32.53l.61-.58a2.55 2.55 0 0 0 0-3.73 2.89 2.89 0 0 0-3.93 0l-.61.58a2.55 2.55 0 0 0 0 3.73 2.9 2.9 0 0 0 3.93 0"/>
    <path id="Fill-1176" class="c-footer-blue-cls-3" d="M361 8.39a2.89 2.89 0 0 0-3.93 0l-17.79 16.89a2.55 2.55 0 0 0 0 3.73 2.89 2.89 0 0 0 3.93 0l17.76-16.86a2.54 2.54 0 0 0 0-3.73"/>
    <path id="Fill-1182" class="c-footer-blue-cls-3" d="M326.74 44.6l7.79-7.4a2.54 2.54 0 0 0 0-3.73 2.87 2.87 0 0 0-3.92 0l-7.79 7.4a1.9 1.9 0 0 0-.19.21v3.34l.16.18a2.89 2.89 0 0 0 3.93 0"/>
    <path id="Fill-1184" class="c-footer-blue-cls-3" d="M346.15 41.63a2.54 2.54 0 0 1 0-3.73l-21.64 20.58a2.89 2.89 0 0 1 3.93 0 2.55 2.55 0 0 1 0 3.73l21.67-20.58a2.88 2.88 0 0 1-3.93 0"/>
    <path id="Fill-1186" class="c-footer-blue-cls-3" d="M328.44 58.46a2.89 2.89 0 0 0-3.93 0l-.24.22a2.56 2.56 0 0 0 0 3.74 2.89 2.89 0 0 0 3.93 0l.23-.22a2.55 2.55 0 0 0 0-3.73"/>
    <path id="Fill-1188" class="c-footer-blue-cls-3" d="M346.15 41.63a2.88 2.88 0 0 0 3.93 0l.23-.22a2.55 2.55 0 0 0 0-3.73 2.88 2.88 0 0 0-3.93 0l-.23.22a2.54 2.54 0 0 0 0 3.73"/>
    <path id="Fill-1190" class="c-footer-blue-cls-3" d="M360.4 51a2.89 2.89 0 0 1-3.93 0 2.55 2.55 0 0 1 0-3.73l-11.36 10.82a2.89 2.89 0 0 1 3.93 0 2.54 2.54 0 0 1 0 3.73l-.23.22z"/>
    <path id="Fill-1194" class="c-footer-blue-cls-3" d="M356.47 51a2.89 2.89 0 0 0 3.93 0l27.66-26.3a2.89 2.89 0 0 1-3.93 0 2.55 2.55 0 0 1 0-3.73l-27.63 26.3a2.55 2.55 0 0 0 0 3.73"/>
    <path id="Fill-1200" class="c-footer-blue-cls-3" d="M345.11 58.09l-.23.22z"/>
    <path id="Fill-1202" class="c-footer-blue-cls-3" d="M349 58.06a2.89 2.89 0 0 0-3.93 0l-.23.22a2.54 2.54 0 0 0 0 3.73 2.89 2.89 0 0 0 3.93 0l.23-.22a2.54 2.54 0 0 0 0-3.73"/>
    <path id="Fill-1210" class="c-footer-blue-cls-3" d="M381.63 49.98l-.6.58.6-.58z"/>
    <path id="Fill-1212" class="c-footer-blue-cls-3" d="M381 50.56l.6-.58a2.54 2.54 0 0 0 0-3.73 2.89 2.89 0 0 0-3.93 0l-.6.57a2.55 2.55 0 0 0 0 3.74 2.89 2.89 0 0 0 3.93 0"/>
    <path id="Fill-1216" class="c-footer-blue-cls-3" d="M401.34 46.74a2.55 2.55 0 0 1 0 3.73l-17.78 16.86L429 24.15a2.54 2.54 0 0 0 0-3.73 2.88 2.88 0 0 0-3.93 0l-27.66 26.34a2.9 2.9 0 0 1 3.93 0"/>
    <path id="Fill-1218" class="c-footer-blue-cls-3" d="M397.41 46.76l-17.75 16.87 17.75-16.87z"/>
    <path id="Fill-1220" class="c-footer-blue-cls-3" d="M383.56 67.33l17.75-16.86a2.55 2.55 0 0 0 0-3.73 2.9 2.9 0 0 0-3.93 0l-17.72 16.89a2.54 2.54 0 0 0 0 3.73 2.89 2.89 0 0 0 3.93 0"/>
    <path id="Fill-1228" class="c-footer-blue-cls-3" d="M472.82 17.36a2.89 2.89 0 0 0-3.93 0l-6.38 6.07a2.54 2.54 0 0 0 0 3.73 2.89 2.89 0 0 0 3.93 0l6.39-6.07a2.54 2.54 0 0 0 0-3.73"/>
    <path id="Fill-1230" class="c-footer-blue-cls-3" d="M383.26 6.39a2.9 2.9 0 0 0-3.93 0l-.23.22a2.6 2.6 0 0 0-.4.49 2.53 2.53 0 0 0 .37 3.25 2.88 2.88 0 0 0 3.41.35 3.14 3.14 0 0 0 .52-.38l.23-.22a2.55 2.55 0 0 0 0-3.73"/>
    <path id="Fill-1232" class="c-footer-blue-cls-3" d="M388.32 20.75a2.88 2.88 0 0 0-3.92 0l-.24.23a2.55 2.55 0 0 0 0 3.73 2.89 2.89 0 0 0 3.93 0l.24-.22a2.54 2.54 0 0 0 0-3.73"/>
    <path id="Fill-1234" class="c-footer-blue-cls-3" d="M413.82 19.41l-3.46 3.29z"/>
    <path id="Fill-1236" class="c-footer-blue-cls-3" d="M413.85 15.68a2.89 2.89 0 0 0-3.93 0L406.46 19a2.54 2.54 0 0 0 0 3.73 2.89 2.89 0 0 0 3.93 0l3.46-3.29a2.55 2.55 0 0 0 0-3.73"/>
    <path id="Fill-1240" class="c-footer-blue-cls-3" d="M434.92 11.14l-.24.22z"/>
    <path id="Fill-1242" class="c-footer-blue-cls-3" d="M434.92 11.14l-.24.22z"/>
    <path id="Fill-1244" class="c-footer-blue-cls-3" d="M438.84 11.11a2.87 2.87 0 0 0-3.92 0l-.24.22a2.54 2.54 0 0 0 0 3.73 2.87 2.87 0 0 0 3.92 0l.24-.22a2.56 2.56 0 0 0 0-3.74"/>
    <path id="Fill-1246" class="c-footer-blue-cls-3" d="M414.2 53.69a2.54 2.54 0 0 1 0 3.73L440 32.89a2.54 2.54 0 0 0 0-3.73 2.87 2.87 0 0 0-3.92 0l-25.81 24.56a2.89 2.89 0 0 1 3.93 0"/>
    <path id="Fill-1252" class="c-footer-blue-cls-3" d="M400.8 85.59a2.54 2.54 0 0 1 0 3.73l31.77-30.18a2.54 2.54 0 0 0 0-3.73 2.89 2.89 0 0 0-3.93 0l-31.76 30.21a2.87 2.87 0 0 1 3.92 0"/>
    <path id="Fill-1282" class="c-footer-blue-cls-3" d="M531.61 56.87a2.89 2.89 0 0 0-3.93 0l-.23.22a2.55 2.55 0 0 0 0 3.74 2.89 2.89 0 0 0 3.93 0l.23-.22a2.55 2.55 0 0 0 0-3.73"/>
    <path id="Fill-1324" class="c-footer-blue-cls-3" d="M519.87 49.12a2.89 2.89 0 0 0-3.93 0l-37.17 35.34L506 58.62a2.88 2.88 0 0 1 3.93 0 2.54 2.54 0 0 1 0 3.73l10-9.48a2.54 2.54 0 0 0 0-3.73"/>
    <path id="Fill-1326" class="c-footer-blue-cls-3" d="M509.9 58.6a2.88 2.88 0 0 0-3.93 0l-27.2 25.84a2.54 2.54 0 0 0 0 3.73 2.89 2.89 0 0 0 3.93 0l27.2-25.83a2.54 2.54 0 0 0 0-3.73"/>
    <path id="Fill-1332" class="c-footer-blue-cls-3" d="M559.51 27l-.23.22.24-.23"/>
    <path id="Fill-1334" class="c-footer-blue-cls-3" d="M563.18 30.87l.12-.12z"/>
    <path id="Fill-1336" class="c-footer-blue-cls-3" d="M585.31 29l-2.4 2.29z"/>
    <path id="Fill-1338" class="c-footer-blue-cls-3" d="M585.34 25.29a2.89 2.89 0 0 0-3.93 0L579 27.6a2.54 2.54 0 0 0 0 3.73 2.9 2.9 0 0 0 3.93 0l2.4-2.29a2.55 2.55 0 0 0 0-3.73"/>
    <path id="Fill-1340" class="c-footer-blue-cls-3" d="M599.39 27.41l-.41.39a2.55 2.55 0 0 0 0 3.73 2.88 2.88 0 0 0 3.92 0l.41-.39a2.54 2.54 0 0 0 0-3.73 2.89 2.89 0 0 0-3.93 0"/>
    <path id="Fill-1344" class="c-footer-blue-cls-3" d="M646.44 5.6a2.89 2.89 0 0 0 3.93 0l.23-.22a2.55 2.55 0 0 0 0-3.74 2.89 2.89 0 0 0-3.93 0l-.23.22a2.55 2.55 0 0 0 0 3.73"/>
    <path id="Fill-1346" class="c-footer-blue-cls-3" d="M667.57 4.71a2.54 2.54 0 0 1 0-3.73L653.85 14a2.88 2.88 0 0 1 3.92 0 2.54 2.54 0 0 1 0 3.73L671.5 4.69a2.89 2.89 0 0 1-3.93 0"/>
    <path id="Fill-1348" class="c-footer-blue-cls-3" d="M671.55 20.11a2.9 2.9 0 0 0-3.93 0l-.23.23a2.54 2.54 0 0 0 0 3.73 2.89 2.89 0 0 0 3.93 0l.23-.22a2.55 2.55 0 0 0 0-3.73"/>
    <path id="Fill-1350" class="c-footer-blue-cls-3" d="M654.67 32.44l.24-.22z"/>
    <path id="Fill-1352" class="c-footer-blue-cls-3" d="M654.9 32.22l-.24.22z"/>
    <path id="Fill-1354" class="c-footer-blue-cls-3" d="M654.64 36.17a2.89 2.89 0 0 0 3.93 0l.23-.22a2.55 2.55 0 0 0 0-3.73 2.89 2.89 0 0 0-3.93 0l-.24.22a2.54 2.54 0 0 0 0 3.73"/>
    <path id="Fill-1362" class="c-footer-blue-cls-3" d="M638.8 70.38a2.54 2.54 0 0 1 0 3.73l19.35-18.38a2.88 2.88 0 0 1-3.92 0 2.54 2.54 0 0 1 0-3.73l22.14-21-41.49 39.41a2.87 2.87 0 0 1 3.92 0"/>
    <path id="Fill-1366" class="c-footer-blue-cls-3" d="M658.14 55.73l22.13-21-22.14 21"/>
    <path id="Fill-1368" class="c-footer-blue-cls-3" d="M654.21 55.75a2.88 2.88 0 0 0 3.92 0l22.14-21-.23.22a2.89 2.89 0 0 1-3.93 0 2.54 2.54 0 0 1 0-3.73l.23-.22L654.23 52a2.54 2.54 0 0 0 0 3.73"/>
    <path id="Fill-1370" class="c-footer-blue-cls-3" d="M676.11 35a2.9 2.9 0 0 0 3.93 0l.23-.23a2.55 2.55 0 0 0 0-3.73 2.89 2.89 0 0 0-3.93 0l-.23.22a2.54 2.54 0 0 0 0 3.73"/>
    <path id="Fill-1374" class="c-footer-blue-cls-3" d="M659.48 69.92a2.89 2.89 0 0 0 3.93 0l30.93-29.38a2.89 2.89 0 0 1-3.93 0 2.54 2.54 0 0 1 0-3.73l-30.9 29.38a2.54 2.54 0 0 0 0 3.73"/>
    <path id="Fill-1376" class="c-footer-blue-cls-3" d="M706.14 44.45v-3.34a2.53 2.53 0 0 0 0 3.34"/>
    <path id="Fill-1378" class="c-footer-blue-cls-3" d="M700.84 53.51l.23-.22-.23.22"/>
    <path id="Fill-1380" class="c-footer-blue-cls-3" d="M696.94 49.81l.23-.22z"/>
    <path id="Fill-1382" class="c-footer-blue-cls-3" d="M700.84 53.51l.23-.22z"/>
    <path id="Fill-1384" class="c-footer-blue-cls-3" d="M697.17 49.59l-.23.22z"/>
    <path id="Fill-1386" class="c-footer-blue-cls-3" d="M696.91 53.54a2.89 2.89 0 0 0 3.93 0l.23-.22a2.54 2.54 0 0 0 0-3.73 2.89 2.89 0 0 0-3.93 0l-.23.22a2.55 2.55 0 0 0 0 3.73"/>
    <path id="Fill-1414" class="c-footer-blue-cls-3" d="M511.64 91.66a2.89 2.89 0 0 1 3.93 0 2.54 2.54 0 0 1 .34 3.31l33.93-32.23a2.54 2.54 0 0 0 0-3.73 2.89 2.89 0 0 0-3.49-.32l-34.82 33.08z"/>
    <path id="Fill-1448" class="c-footer-blue-cls-3" d="M594.45 35.89a2.84 2.84 0 0 0-2-.76 2.9 2.9 0 0 0-2 .79l-34.22 32.56a2.55 2.55 0 0 0 0 3.73 2.89 2.89 0 0 0 3.93 0s34.54-32.84 34.65-33a2.57 2.57 0 0 0-.33-3.32"/>
    <path id="Fill-1518" class="c-footer-blue-cls-3" d="M623.75 62.73a2.87 2.87 0 0 0-1.7.76l-14.56 13.83a2.89 2.89 0 0 1 3.93 0 2.54 2.54 0 0 1 .33 3.32 2.71 2.71 0 0 1-.36.41L626 67.19a2.71 2.71 0 0 0 .36-.41 2.58 2.58 0 0 0-.33-3.32 2.84 2.84 0 0 0-2.23-.73"/>
    <path id="Fill-1932" class="c-footer-blue-cls-3" d="M797.69 53.69a2.89 2.89 0 0 0-3.93 0L780.8 66a2.55 2.55 0 0 0 0 3.73 2.89 2.89 0 0 0 3.93 0l13-12.32a2.54 2.54 0 0 0 0-3.73"/>
    <path id="Fill-1934" class="c-footer-blue-cls-3" d="M1038.13 36.17a2.54 2.54 0 0 1 0-3.73l-21.9 20.8a2.86 2.86 0 0 0-.39.47 2.52 2.52 0 0 0 .37 3.26 2.86 2.86 0 0 0 3.43.34 2.43 2.43 0 0 0 .49-.37l22.14-21-.24.22a2.87 2.87 0 0 1-3.92 0"/>
    <path id="Fill-1981" class="c-footer-blue-cls-3" d="M828.86 66.05l12.84-12.2a2.55 2.55 0 0 0 0-3.73 2.89 2.89 0 0 0-3.93 0L825 62.34a2.55 2.55 0 0 0 0 3.73 2.89 2.89 0 0 0 3.93 0"/>
    <path id="Fill-1983" class="c-footer-blue-cls-3" d="M870.44 19.14l-18.3 17.38a2.56 2.56 0 0 0 0 3.74 2.89 2.89 0 0 0 3.93 0l17.69-16.8.6-.58a2.54 2.54 0 0 0 0-3.73 2.89 2.89 0 0 0-3.93 0"/>
    <path id="Fill-1985" class="c-footer-blue-cls-3" d="M751.05 17.51l-11.3 10.73a2.88 2.88 0 0 1 3.93 0 2.55 2.55 0 0 1 0 3.73L755 21.21a2.55 2.55 0 0 0 0-3.73 2.89 2.89 0 0 0-3.93 0"/>
    <path id="Fill-1987" class="c-footer-blue-cls-3" d="M712.67 19.4a2.89 2.89 0 0 0-3.93 0l-2.6 2.47v7.41l6.5-6.18a2.55 2.55 0 0 0 0-3.73"/>
    <path id="Fill-1989" class="c-footer-blue-cls-3" d="M784.9 31.2a2.54 2.54 0 0 0 0-3.73 2.87 2.87 0 0 0-3.92 0l-19.76 18.81a2.89 2.89 0 0 1 3.93 0 2.54 2.54 0 0 1 0 3.73z"/>
    <path id="Fill-1991" class="c-footer-blue-cls-3" d="M734.72 78.86l.6-.57L753 61.48a2.54 2.54 0 0 0 0-3.73 2.89 2.89 0 0 0-3.93 0l-17.69 16.8-.6.58a2.54 2.54 0 0 0 0 3.73 2.89 2.89 0 0 0 3.93 0"/>
    <path id="Fill-1995" class="c-footer-blue-cls-3" d="M827.72 48.23l22.18-21.07a2.89 2.89 0 0 1-3.93 0 2.56 2.56 0 0 1 0-3.74l-22.15 21.1a2.54 2.54 0 0 0 0 3.73 2.89 2.89 0 0 0 3.93 0"/>
    <path id="Fill-1997" class="c-footer-blue-cls-3" d="M791.36 2.18a2.89 2.89 0 0 0-3.93 0l-19.55 18.59a2.9 2.9 0 0 1 3.93 0 2.54 2.54 0 0 1 0 3.73l19.52-18.59a2.54 2.54 0 0 0 0-3.73"/>
    <path id="Fill-2022" class="c-footer-blue-cls-3" d="M910.64 38.5l-2.72 2.58a2.56 2.56 0 0 0 0 3.74 2.89 2.89 0 0 0 3.93 0l2.72-2.58a2.55 2.55 0 0 0 0-3.74 2.89 2.89 0 0 0-3.93 0"/>
    <path id="Fill-2024" class="c-footer-blue-cls-3" d="M920 29.61l-.21.19a2.55 2.55 0 0 0 0 3.73 2.89 2.89 0 0 0 3.93 0l.21-.2a2.55 2.55 0 0 0 0-3.73 2.9 2.9 0 0 0-3.93 0"/>
    <path id="Fill-2026" class="c-footer-blue-cls-3" d="M1051.29.79l-.21.19a2.54 2.54 0 0 0 0 3.73 2.87 2.87 0 0 0 3.92 0l.21-.2a2.54 2.54 0 0 0 0-3.73 2.89 2.89 0 0 0-3.93 0"/>
    <path id="Fill-2028" class="c-footer-blue-cls-3" d="M1041.26 14a2.88 2.88 0 0 0-3.92 0l-30.1 28.58-.2.19-3.74 3.56L980.63 68a2.89 2.89 0 0 1 3.93 0 2.55 2.55 0 0 1 .34 3.32l22.29-21.17.86-.82 2.89-2.74.2-.19 30.1-28.59a2.55 2.55 0 0 0 0-3.73"/>
    <path id="Fill-2030" class="c-footer-blue-cls-3" d="M1074.53 36.23l-.6.58a2.54 2.54 0 0 0 0 3.73 2.89 2.89 0 0 0 3.93 0l.6-.57 11.19-10.62V21.9l-15.1 14.33"/>
    <path id="Fill-2032" class="c-footer-blue-cls-3" d="M1080.4 53.54a2.55 2.55 0 0 1 0-3.73l-17.2 16.33-35.16 33.39-25.62 24.47-1.18 1.12a2.89 2.89 0 0 1 3.93 0 2.54 2.54 0 0 1 .33 3.32 2.71 2.71 0 0 1-.36.41l26.86-25.61 52.36-49.73a2.89 2.89 0 0 1-3.93 0"/>
    <path id="Fill-2047" class="c-footer-blue-cls-3" d="M956.87 40.35a2.53 2.53 0 0 0-.33-3.31 2.89 2.89 0 0 0-3.93 0l-.16.16-14.89 14.16a2.53 2.53 0 0 0 .33 3.31 2.88 2.88 0 0 0 3.93 0l13.42-12.77 1.63-1.55"/>
    <path id="Fill-2053" class="c-footer-blue-cls-3" d="M954.67 80.87l-.61.58 20.38-19.36a2.36 2.36 0 0 0 .36-.42l6.7-6.36 35.16-33.39.23-.22 17.2-16.33-.23.21a2.88 2.88 0 0 1-3.93 0 2.54 2.54 0 0 1 0-3.73l.23-.22L1013 18l-.23.22L977.6 51.6l-7.06 6.78-19.77 18.78a2.89 2.89 0 0 1 3.93 0 2.53 2.53 0 0 1 .33 3.31 2.86 2.86 0 0 1-.36.42"/>
    <path id="Fill-2109" class="c-footer-blue-cls-3" d="M835.12 21.75l-.23.22A2.89 2.89 0 0 1 831 22a2.54 2.54 0 0 1 0-3.73l.23-.22a2.89 2.89 0 0 1 3.93 0 2.55 2.55 0 0 1 0 3.73"/>
    <path id="Fill-2111" class="c-footer-blue-cls-3" d="M868.46 9.26l-.23.22a2.89 2.89 0 0 1-3.93 0 2.54 2.54 0 0 1 0-3.73l.23-.22a2.89 2.89 0 0 1 3.93 0 2.55 2.55 0 0 1 0 3.73"/>
    <path id="Fill-2113" class="c-footer-blue-cls-3" d="M841.7 53.85l-.61.58a2.89 2.89 0 0 1-3.93 0 2.54 2.54 0 0 1 0-3.73l.61-.58a2.87 2.87 0 0 1 3.92 0 2.54 2.54 0 0 1 0 3.73"/>
    <path id="Fill-2115" class="c-footer-blue-cls-3" d="M862.2 53.55L814 99.32a2.88 2.88 0 0 1-3.93 0 2.54 2.54 0 0 1 0-3.73l48.23-45.74a2.89 2.89 0 0 1 3.93 0 2.54 2.54 0 0 1 0 3.73"/>
    <path id="Fill-2117" class="c-footer-blue-cls-3" d="M862.2 53.55l-17.75 16.87a2.89 2.89 0 0 1-3.93 0 2.54 2.54 0 0 1 0-3.73l17.78-16.84a2.89 2.89 0 0 1 3.93 0 2.54 2.54 0 0 1 0 3.73"/>
    <path id="Fill-2119" class="c-footer-blue-cls-3" d="M878.65 37.94l-7.79 7.39a2.89 2.89 0 0 1-3.93 0 2.54 2.54 0 0 1 0-3.73l7.79-7.4a2.87 2.87 0 0 1 3.92 0 2.56 2.56 0 0 1 0 3.74"/>
    <path id="Fill-2121" class="c-footer-blue-cls-3" d="M888 29l-.23.23a2.9 2.9 0 0 1-3.93 0 2.54 2.54 0 0 1 0-3.73l.23-.22a2.89 2.89 0 0 1 3.93 0 2.55 2.55 0 0 1 0 3.72"/>
    <path id="Fill-2123" class="c-footer-blue-cls-3" d="M870.42 64.92l-53.9 51.2a2.89 2.89 0 0 1-3.93 0 2.54 2.54 0 0 1 0-3.73l53.91-51.21a2.89 2.89 0 0 1 3.93 0 2.54 2.54 0 0 1 0 3.73"/>
    <path id="Fill-2125" class="c-footer-blue-cls-3" d="M870.42 64.92l-22.13 21a2.89 2.89 0 0 1-3.93 0 2.56 2.56 0 0 1 0-3.74l22.13-21a2.89 2.89 0 0 1 3.93 0 2.54 2.54 0 0 1 0 3.73"/>
    <path id="Fill-2127" class="c-footer-blue-cls-3" d="M870.42 64.92l-.23.22a2.89 2.89 0 0 1-3.93 0 2.56 2.56 0 0 1 0-3.74l.23-.22a2.89 2.89 0 0 1 3.93 0 2.54 2.54 0 0 1 0 3.73"/>
    <path id="Fill-2131" class="c-footer-blue-cls-3" d="M905.05 32l-22.14 21a2.88 2.88 0 0 1-3.93 0 2.55 2.55 0 0 1 0-3.73l22.13-21a2.89 2.89 0 0 1 3.93 0 2.56 2.56 0 0 1 0 3.74"/>
    <path id="Fill-2133" class="c-footer-blue-cls-3" d="M928.06 10.17l-22.13 21a2.89 2.89 0 0 1-3.93 0 2.55 2.55 0 0 1 0-3.73l22.13-21a2.89 2.89 0 0 1 3.93 0 2.54 2.54 0 0 1 0 3.73"/>
    <path id="Fill-2135" class="c-footer-blue-cls-3" d="M883.14 52.84l-.23.22a2.88 2.88 0 0 1-3.93 0 2.55 2.55 0 0 1 0-3.73l.23-.22a2.88 2.88 0 0 1 3.93 0 2.54 2.54 0 0 1 0 3.73"/>
    <path id="Fill-2137" class="c-footer-blue-cls-3" d="M928.06 10.17l-.23.22a2.89 2.89 0 0 1-3.93 0 2.55 2.55 0 0 1 0-3.73l.23-.22a2.89 2.89 0 0 1 3.93 0 2.54 2.54 0 0 1 0 3.73"/>
    <path id="Fill-2139" class="c-footer-blue-cls-3" d="M724.14 12.21l.61-.58a2.54 2.54 0 0 0 0-3.73 2.87 2.87 0 0 0-3.92 0l-.61.58a2.54 2.54 0 0 0 0 3.73 2.89 2.89 0 0 0 3.93 0"/>
    <path id="Fill-2141" class="c-footer-blue-cls-3" d="M743 32.53l.61-.58a2.55 2.55 0 0 0 0-3.73 2.89 2.89 0 0 0-3.93 0l-.61.58a2.54 2.54 0 0 0 0 3.73 2.9 2.9 0 0 0 3.93 0"/>
    <path id="Fill-2143" class="c-footer-blue-cls-3" d="M744.45 8.39a2.89 2.89 0 0 0-3.93 0l-17.75 16.89a2.54 2.54 0 0 0 0 3.73 2.89 2.89 0 0 0 3.93 0l17.75-16.86a2.54 2.54 0 0 0 0-3.73"/>
    <path id="Fill-2149" class="c-footer-blue-cls-3" d="M710.22 44.6l7.78-7.4a2.54 2.54 0 0 0 0-3.73 2.89 2.89 0 0 0-3.93 0l-7.79 7.4a1.81 1.81 0 0 0-.18.21v3.34l.15.18a2.89 2.89 0 0 0 3.93 0"/>
    <path id="Fill-2151" class="c-footer-blue-cls-3" d="M729.63 41.63a2.55 2.55 0 0 1 0-3.73L708 58.48a2.89 2.89 0 0 1 3.93 0 2.54 2.54 0 0 1 0 3.73l21.67-20.58a2.88 2.88 0 0 1-3.93 0"/>
    <path id="Fill-2153" class="c-footer-blue-cls-3" d="M711.92 58.46a2.89 2.89 0 0 0-3.93 0l-.23.22a2.56 2.56 0 0 0 0 3.74 2.87 2.87 0 0 0 3.92 0l.23-.22a2.54 2.54 0 0 0 0-3.73"/>
    <path id="Fill-2155" class="c-footer-blue-cls-3" d="M729.63 41.63a2.88 2.88 0 0 0 3.93 0l.24-.22a2.54 2.54 0 0 0 0-3.73 2.88 2.88 0 0 0-3.93 0l-.23.22a2.55 2.55 0 0 0 0 3.73"/>
    <path id="Fill-2157" class="c-footer-blue-cls-3" d="M743.89 51a2.89 2.89 0 0 1-3.89 0 2.54 2.54 0 0 1 0-3.73l-11.4 10.82a2.89 2.89 0 0 1 3.93 0 2.55 2.55 0 0 1 0 3.73l-.23.22z"/>
    <path id="Fill-2161" class="c-footer-blue-cls-3" d="M740 51a2.89 2.89 0 0 0 3.93 0l27.62-26.3a2.89 2.89 0 0 1-3.93 0 2.55 2.55 0 0 1 0-3.73L740 47.27a2.54 2.54 0 0 0 0 3.73"/>
    <path id="Fill-2167" class="c-footer-blue-cls-3" d="M728.6 58.09l-.23.22z"/>
    <path id="Fill-2169" class="c-footer-blue-cls-3" d="M732.53 58.06a2.89 2.89 0 0 0-3.93 0l-.23.22a2.54 2.54 0 0 0 0 3.73 2.89 2.89 0 0 0 3.93 0l.23-.22a2.55 2.55 0 0 0 0-3.73"/>
    <path id="Fill-2177" class="c-footer-blue-cls-3" d="M765.12 49.98l-.61.58.61-.58z"/>
    <path id="Fill-2179" class="c-footer-blue-cls-3" d="M764.51 50.56l.61-.58a2.54 2.54 0 0 0 0-3.73 2.89 2.89 0 0 0-3.93 0l-.61.57a2.56 2.56 0 0 0 0 3.74 2.89 2.89 0 0 0 3.93 0"/>
    <path id="Fill-2183" class="c-footer-blue-cls-3" d="M784.83 46.74a2.55 2.55 0 0 1 0 3.73l-17.78 16.86 45.46-43.18a2.55 2.55 0 0 0 0-3.73 2.88 2.88 0 0 0-3.93 0L780.9 46.76a2.9 2.9 0 0 1 3.93 0"/>
    <path id="Fill-2185" class="c-footer-blue-cls-3" d="M780.9 46.76l-17.76 16.87 17.76-16.87"/>
    <path id="Fill-2187" class="c-footer-blue-cls-3" d="M767.05 67.33l17.75-16.86a2.55 2.55 0 0 0 0-3.73 2.9 2.9 0 0 0-3.93 0l-17.73 16.89a2.54 2.54 0 0 0 0 3.73 2.89 2.89 0 0 0 3.93 0"/>
    <path id="Fill-2195" class="c-footer-blue-cls-3" d="M856.31 17.36a2.89 2.89 0 0 0-3.93 0l-6.38 6.1a2.54 2.54 0 0 0 0 3.73 2.89 2.89 0 0 0 3.93 0l6.39-6.07a2.54 2.54 0 0 0 0-3.73"/>
    <path id="Fill-2197" class="c-footer-blue-cls-3" d="M766.74 6.39a2.88 2.88 0 0 0-3.92 0l-.24.22a3.72 3.72 0 0 0-.4.49 2.54 2.54 0 0 0 .38 3.25 2.88 2.88 0 0 0 3.41.35 2.71 2.71 0 0 0 .51-.38l.24-.22a2.54 2.54 0 0 0 0-3.73"/>
    <path id="Fill-2199" class="c-footer-blue-cls-3" d="M771.81 20.75a2.88 2.88 0 0 0-3.92 0l-.24.23a2.55 2.55 0 0 0 0 3.73 2.89 2.89 0 0 0 3.93 0l.23-.22a2.54 2.54 0 0 0 0-3.73"/>
    <path id="Fill-2201" class="c-footer-blue-cls-3" d="M797.31 19.41l-3.47 3.29z"/>
    <path id="Fill-2203" class="c-footer-blue-cls-3" d="M797.33 15.68a2.87 2.87 0 0 0-3.92 0L789.94 19a2.55 2.55 0 0 0 0 3.73 2.89 2.89 0 0 0 3.93 0l3.47-3.29a2.54 2.54 0 0 0 0-3.73"/>
    <path id="Fill-2207" class="c-footer-blue-cls-3" d="M818.4 11.14l-.23.22z"/>
    <path id="Fill-2209" class="c-footer-blue-cls-3" d="M818.4 11.14l-.23.22z"/>
    <path id="Fill-2211" class="c-footer-blue-cls-3" d="M822.33 11.11a2.89 2.89 0 0 0-3.93 0l-.23.22a2.55 2.55 0 0 0 0 3.73 2.89 2.89 0 0 0 3.93 0l.23-.22a2.55 2.55 0 0 0 0-3.74"/>
    <path id="Fill-2213" class="c-footer-blue-cls-3" d="M797.69 53.69a2.54 2.54 0 0 1 0 3.73l25.81-24.53a2.54 2.54 0 0 0 0-3.73 2.89 2.89 0 0 0-3.93 0l-25.81 24.56a2.89 2.89 0 0 1 3.93 0"/>
    <path id="Fill-2219" class="c-footer-blue-cls-3" d="M784.29 85.59a2.54 2.54 0 0 1 0 3.73L816 59.14a2.54 2.54 0 0 0 0-3.73 2.89 2.89 0 0 0-3.93 0l-31.71 30.21a2.89 2.89 0 0 1 3.93 0"/>
    <path id="Fill-2249" class="c-footer-blue-cls-3" d="M915.09 56.87a2.87 2.87 0 0 0-3.92 0l-.24.22a2.56 2.56 0 0 0 0 3.74 2.87 2.87 0 0 0 3.92 0l.24-.22a2.54 2.54 0 0 0 0-3.73"/>
    <path id="Fill-2291" class="c-footer-blue-cls-3" d="M903.36 49.12a2.89 2.89 0 0 0-3.93 0l-37.17 35.34 27.2-25.84a2.88 2.88 0 0 1 3.93 0 2.55 2.55 0 0 1 0 3.73l10-9.48a2.54 2.54 0 0 0 0-3.73"/>
    <path id="Fill-2293" class="c-footer-blue-cls-3" d="M893.39 58.6a2.88 2.88 0 0 0-3.93 0l-27.2 25.84a2.54 2.54 0 0 0 0 3.73 2.89 2.89 0 0 0 3.93 0l27.2-25.83a2.55 2.55 0 0 0 0-3.73"/>
    <path id="Fill-2299" class="c-footer-blue-cls-3" d="M946.66 30.87l.12-.12z"/>
    <path id="Fill-2301" class="c-footer-blue-cls-3" d="M968.8 29l-2.4 2.29z"/>
    <path id="Fill-2303" class="c-footer-blue-cls-3" d="M968.82 25.29a2.87 2.87 0 0 0-3.92 0l-2.41 2.28a2.54 2.54 0 0 0 0 3.73 2.88 2.88 0 0 0 3.92 0l2.39-2.3a2.54 2.54 0 0 0 0-3.73"/>
    <path id="Fill-2305" class="c-footer-blue-cls-3" d="M982.88 27.41l-.41.39a2.54 2.54 0 0 0 0 3.73 2.88 2.88 0 0 0 3.92 0l.41-.39a2.55 2.55 0 0 0 0-3.73 2.89 2.89 0 0 0-3.93 0"/>
    <path id="Fill-2309" class="c-footer-blue-cls-3" d="M1029.93 5.6a2.89 2.89 0 0 0 3.93 0l.23-.22a2.56 2.56 0 0 0 0-3.74 2.89 2.89 0 0 0-3.93 0l-.23.22a2.54 2.54 0 0 0 0 3.73"/>
    <path id="Fill-2311" class="c-footer-blue-cls-3" d="M1051.06 4.71a2.54 2.54 0 0 1 0-3.73L1037.34 14a2.88 2.88 0 0 1 3.92 0 2.55 2.55 0 0 1 0 3.73L1055 4.69a2.87 2.87 0 0 1-3.92 0"/>
    <path id="Fill-2313" class="c-footer-blue-cls-3" d="M1055 20.11a2.9 2.9 0 0 0-3.93 0l-.23.23a2.54 2.54 0 0 0 0 3.73 2.87 2.87 0 0 0 3.92 0l.24-.22a2.54 2.54 0 0 0 0-3.73"/>
    <path id="Fill-2315" class="c-footer-blue-cls-3" d="M1038.15 32.44l.24-.22z"/>
    <path id="Fill-2317" class="c-footer-blue-cls-3" d="M1038.39 32.22l-.24.22z"/>
    <path id="Fill-2319" class="c-footer-blue-cls-3" d="M1038.13 36.17a2.87 2.87 0 0 0 3.92 0l.24-.22a2.54 2.54 0 0 0 0-3.73 2.87 2.87 0 0 0-3.92 0l-.24.22a2.54 2.54 0 0 0 0 3.73"/>
    <path id="Fill-2321" class="c-footer-blue-cls-3" d="M1022.29 70.38a2.54 2.54 0 0 1 0 3.73l19.36-18.38a2.9 2.9 0 0 1-3.93 0 2.55 2.55 0 0 1 0-3.73l22.13-21-41.49 39.41a2.89 2.89 0 0 1 3.93 0"/>
    <path id="Fill-2323" class="c-footer-blue-cls-3" d="M1075.64 19.71a2.89 2.89 0 0 0-3.93 0l-.23.22a2.54 2.54 0 0 0 0 3.73 2.89 2.89 0 0 0 3.93 0l.23-.22a2.55 2.55 0 0 0 0-3.73"/>
    <path id="Fill-2325" class="c-footer-blue-cls-3" d="M1041.62 55.73l22.14-21-22.14 21"/>
    <path id="Fill-2327" class="c-footer-blue-cls-3" d="M1037.69 55.75a2.9 2.9 0 0 0 3.93 0l22.14-21-.24.22a2.89 2.89 0 0 1-3.93 0 2.55 2.55 0 0 1 0-3.73l.23-.22-22.13 21a2.55 2.55 0 0 0 0 3.73"/>
    <path id="Fill-2329" class="c-footer-blue-cls-3" d="M1059.59 35a2.9 2.9 0 0 0 3.93 0l.24-.23a2.54 2.54 0 0 0 0-3.73 2.89 2.89 0 0 0-3.93 0l-.23.22a2.55 2.55 0 0 0 0 3.73"/>
    <path id="Fill-2333" class="c-footer-blue-cls-3" d="M1043 69.92a2.89 2.89 0 0 0 3.93 0l30.93-29.38a2.89 2.89 0 0 1-3.93 0 2.54 2.54 0 0 1 0-3.73L1043 66.19a2.54 2.54 0 0 0 0 3.73"/>
    <path id="Fill-2335" class="c-footer-blue-cls-3" d="M1089.63 44.45v-3.34a2.52 2.52 0 0 0 0 3.34"/>
    <path id="Fill-2337" class="c-footer-blue-cls-3" d="M1084.33 53.51l.23-.22-.23.22"/>
    <path id="Fill-2339" class="c-footer-blue-cls-3" d="M1080.43 49.81l.23-.22z"/>
    <path id="Fill-2341" class="c-footer-blue-cls-3" d="M1084.33 53.51l.23-.22z"/>
    <path id="Fill-2343" class="c-footer-blue-cls-3" d="M1080.66 49.59l-.23.22z"/>
    <path id="Fill-2345" class="c-footer-blue-cls-3" d="M1080.4 53.54a2.89 2.89 0 0 0 3.93 0l.23-.22a2.54 2.54 0 0 0 0-3.73 2.89 2.89 0 0 0-3.93 0l-.23.22a2.55 2.55 0 0 0 0 3.73"/>
    <path id="Fill-2373" class="c-footer-blue-cls-3" d="M895.13 91.66a2.89 2.89 0 0 1 3.93 0 2.53 2.53 0 0 1 .33 3.31l33.94-32.23a2.55 2.55 0 0 0 0-3.73 2.89 2.89 0 0 0-3.49-.32L895 91.77z"/>
    <path id="Fill-2407" class="c-footer-blue-cls-3" d="M977.93 35.89a2.8 2.8 0 0 0-1.95-.76 2.94 2.94 0 0 0-2 .79l-34.26 32.56a2.55 2.55 0 0 0 0 3.73 2.89 2.89 0 0 0 3.93 0s34.54-32.84 34.65-33a2.61 2.61 0 0 0 .46-1.53 2.57 2.57 0 0 0-.8-1.79"/>
    <path id="Fill-2477" class="c-footer-blue-cls-3" d="M1007.24 62.73a2.87 2.87 0 0 0-1.7.76L991 77.32a2.87 2.87 0 0 1 3.92 0 2.53 2.53 0 0 1 .34 3.32 2.71 2.71 0 0 1-.36.41l14.56-13.83a2.71 2.71 0 0 0 .36-.41 2.57 2.57 0 0 0 .45-1.28 2.52 2.52 0 0 0-.78-2 2.84 2.84 0 0 0-2.23-.73"/>
    <path id="Fill-2891" class="c-footer-blue-cls-3" d="M1181.18 53.69a2.89 2.89 0 0 0-3.93 0l-13 12.31a2.54 2.54 0 0 0 0 3.73 2.89 2.89 0 0 0 3.93 0l13-12.32a2.54 2.54 0 0 0 0-3.73"/>
    <path id="Fill-2893" class="c-footer-blue-cls-3" d="M1421.61 36.17a2.55 2.55 0 0 1 0-3.73l-21.9 20.8a2.86 2.86 0 0 0-.39.47 2.53 2.53 0 0 0 .36 3.26 2.87 2.87 0 0 0 3.43.34 2.23 2.23 0 0 0 .5-.37l22.13-21-.23.22a2.89 2.89 0 0 1-3.93 0"/>
    <path id="Fill-2940" class="c-footer-blue-cls-3" d="M1212.35 66.05l12.84-12.2a2.54 2.54 0 0 0 0-3.73 2.87 2.87 0 0 0-3.92 0l-12.84 12.19a2.54 2.54 0 0 0 0 3.73 2.89 2.89 0 0 0 3.93 0"/>
    <path id="Fill-2942" class="c-footer-blue-cls-3" d="M1253.93 19.14l-18.3 17.38a2.56 2.56 0 0 0 0 3.74 2.89 2.89 0 0 0 3.93 0l17.69-16.8.61-.58a2.54 2.54 0 0 0 0-3.73 2.89 2.89 0 0 0-3.93 0"/>
    <path id="Fill-2944" class="c-footer-blue-cls-3" d="M1134.53 17.51l-11.3 10.73a2.88 2.88 0 0 1 3.93 0 2.54 2.54 0 0 1 0 3.73l11.31-10.74a2.54 2.54 0 0 0 0-3.73 2.89 2.89 0 0 0-3.93 0"/>
    <path id="Fill-2946" class="c-footer-blue-cls-3" d="M1096.15 19.4a2.87 2.87 0 0 0-3.92 0l-2.6 2.47v7.41l6.5-6.18a2.54 2.54 0 0 0 0-3.73"/>
    <path id="Fill-2948" class="c-footer-blue-cls-3" d="M1168.38 31.2a2.54 2.54 0 0 0 0-3.73 2.89 2.89 0 0 0-3.93 0l-19.77 18.78a2.89 2.89 0 0 1 3.93 0 2.55 2.55 0 0 1 0 3.73z"/>
    <path id="Fill-2950" class="c-footer-blue-cls-3" d="M1118.2 78.86l.61-.57 17.69-16.81a2.54 2.54 0 0 0 0-3.73 2.89 2.89 0 0 0-3.93 0l-17.69 16.8-.61.58a2.55 2.55 0 0 0 0 3.73 2.89 2.89 0 0 0 3.93 0"/>
    <path id="Fill-2954" class="c-footer-blue-cls-3" d="M1211.21 48.23l22.17-21.07a2.87 2.87 0 0 1-3.92 0 2.56 2.56 0 0 1 0-3.74l-22.16 21.1a2.54 2.54 0 0 0 0 3.73 2.89 2.89 0 0 0 3.93 0"/>
    <path id="Fill-2956" class="c-footer-blue-cls-3" d="M1174.85 2.18a2.89 2.89 0 0 0-3.93 0l-19.55 18.56a2.9 2.9 0 0 1 3.93 0 2.54 2.54 0 0 1 0 3.73l19.55-18.57a2.54 2.54 0 0 0 0-3.73"/>
    <path id="Fill-2981" class="c-footer-blue-cls-3" d="M1294.13 38.5l-2.72 2.58a2.56 2.56 0 0 0 0 3.74 2.89 2.89 0 0 0 3.93 0l2.72-2.58a2.56 2.56 0 0 0 0-3.74 2.89 2.89 0 0 0-3.93 0"/>
    <path id="Fill-2983" class="c-footer-blue-cls-3" d="M1303.49 29.61l-.2.19a2.54 2.54 0 0 0 0 3.73 2.89 2.89 0 0 0 3.93 0l.21-.2a2.54 2.54 0 0 0 0-3.73 2.88 2.88 0 0 0-3.92 0"/>
    <path id="Fill-2987" class="c-footer-blue-cls-3" d="M1424.74 14a2.88 2.88 0 0 0-3.92 0l-30.09 28.58-.2.19-3.75 3.56L1364.12 68a2.89 2.89 0 0 1 3.93 0 2.54 2.54 0 0 1 .33 3.32l22.29-21.17.86-.82 2.88-2.74.21-.19 30.1-28.59a2.54 2.54 0 0 0 0-3.73"/>
    <path id="Fill-2992" class="c-footer-blue-cls-3" d="M1463.89 53.54a2.55 2.55 0 0 1 0-3.73l-17.2 16.33-35.15 33.39-25.63 24.47-1.19 1.12a2.89 2.89 0 0 1 3.93 0 2.54 2.54 0 0 1 .34 3.32 4.59 4.59 0 0 1-.36.41l26.83-25.56 52.35-49.73a2.87 2.87 0 0 1-3.92 0"/>
    <path id="Fill-3007" class="c-footer-blue-cls-3" d="M1340.36 40.35A2.53 2.53 0 0 0 1340 37a2.89 2.89 0 0 0-3.93 0l-.16.16-14.89 14.14a2.53 2.53 0 0 0 .33 3.31 2.88 2.88 0 0 0 3.93 0l13.42-12.75 1.63-1.55"/>
    <path id="Fill-3013" class="c-footer-blue-cls-3" d="M1338.15 80.87l-.6.58 20.38-19.36a2.36 2.36 0 0 0 .36-.42l6.7-6.36 35.16-33.39.23-.22 17.2-16.33-.23.21a2.88 2.88 0 0 1-3.93 0 2.54 2.54 0 0 1 0-3.73l.23-.22L1396.48 18l-.24.22-35.15 33.38-7.09 6.78-19.77 18.78a2.87 2.87 0 0 1 3.92 0 2.53 2.53 0 0 1 .33 3.31 2.36 2.36 0 0 1-.36.42"/>
    <path id="Fill-3071" class="c-footer-blue-cls-3" d="M1252 9.26l-.24.22a2.87 2.87 0 0 1-3.92 0 2.54 2.54 0 0 1 0-3.73l.23-.22a2.89 2.89 0 0 1 3.93 0 2.54 2.54 0 0 1 0 3.73"/>
    <path id="Fill-3073" class="c-footer-blue-cls-3" d="M1225.19 53.85l-.61.58a2.89 2.89 0 0 1-3.93 0 2.54 2.54 0 0 1 0-3.73l.61-.58a2.87 2.87 0 0 1 3.92 0 2.54 2.54 0 0 1 0 3.73"/>
    <path id="Fill-3075" class="c-footer-blue-cls-3" d="M1245.69 53.55l-48.18 45.77a2.88 2.88 0 0 1-3.93 0 2.54 2.54 0 0 1 0-3.73l48.18-45.76a2.89 2.89 0 0 1 3.93 0 2.55 2.55 0 0 1 0 3.73"/>
    <path id="Fill-3077" class="c-footer-blue-cls-3" d="M1245.69 53.55l-17.75 16.87a2.89 2.89 0 0 1-3.93 0 2.54 2.54 0 0 1 0-3.73l17.75-16.86a2.89 2.89 0 0 1 3.93 0 2.55 2.55 0 0 1 0 3.73"/>
    <path id="Fill-3079" class="c-footer-blue-cls-3" d="M1262.13 37.94l-7.79 7.39a2.87 2.87 0 0 1-3.92 0 2.54 2.54 0 0 1 0-3.73l7.79-7.4a2.89 2.89 0 0 1 3.93 0 2.55 2.55 0 0 1 0 3.74"/>
    <path id="Fill-3081" class="c-footer-blue-cls-3" d="M1271.52 29l-.24.23a2.88 2.88 0 0 1-3.92 0 2.54 2.54 0 0 1 0-3.73l.24-.22a2.87 2.87 0 0 1 3.92 0 2.54 2.54 0 0 1 0 3.73"/>
    <path id="Fill-3083" class="c-footer-blue-cls-3" d="M1253.91 64.92l-53.91 51.2a2.89 2.89 0 0 1-3.93 0 2.55 2.55 0 0 1 0-3.73L1250 61.21a2.89 2.89 0 0 1 3.93 0 2.54 2.54 0 0 1 0 3.73"/>
    <path id="Fill-3085" class="c-footer-blue-cls-3" d="M1253.91 64.92l-22.13 21a2.89 2.89 0 0 1-3.93 0 2.56 2.56 0 0 1 0-3.74l22.13-21a2.89 2.89 0 0 1 3.93 0 2.54 2.54 0 0 1 0 3.73"/>
    <path id="Fill-3087" class="c-footer-blue-cls-3" d="M1253.91 64.92l-.23.22a2.89 2.89 0 0 1-3.93 0 2.56 2.56 0 0 1 0-3.74l.23-.22a2.89 2.89 0 0 1 3.93 0 2.54 2.54 0 0 1 0 3.73"/>
    <path id="Fill-3091" class="c-footer-blue-cls-3" d="M1288.53 32l-22.13 21a2.88 2.88 0 0 1-3.93 0 2.54 2.54 0 0 1 0-3.73l22.13-21a2.89 2.89 0 0 1 3.93 0 2.56 2.56 0 0 1 0 3.74"/>
    <path id="Fill-3093" class="c-footer-blue-cls-3" d="M1311.55 10.17l-22.13 21a2.89 2.89 0 0 1-3.93 0 2.54 2.54 0 0 1 0-3.73l22.13-21a2.89 2.89 0 0 1 3.93 0 2.55 2.55 0 0 1 0 3.73"/>
    <path id="Fill-3095" class="c-footer-blue-cls-3" d="M1266.63 52.84l-.23.22a2.88 2.88 0 0 1-3.93 0 2.54 2.54 0 0 1 0-3.73l.23-.22a2.88 2.88 0 0 1 3.93 0 2.54 2.54 0 0 1 0 3.73"/>
    <path id="Fill-3097" class="c-footer-blue-cls-3" d="M1311.55 10.17l-.23.22a2.89 2.89 0 0 1-3.93 0 2.54 2.54 0 0 1 0-3.73l.23-.22a2.89 2.89 0 0 1 3.93 0 2.55 2.55 0 0 1 0 3.73"/>
    <path id="Fill-3099" class="c-footer-blue-cls-3" d="M1107.63 12.21l.6-.58a2.54 2.54 0 0 0 0-3.73 2.89 2.89 0 0 0-3.93 0l-.61.58a2.54 2.54 0 0 0 0 3.73 2.89 2.89 0 0 0 3.93 0"/>
    <path id="Fill-3101" class="c-footer-blue-cls-3" d="M1126.53 32.53l.6-.58a2.54 2.54 0 0 0 0-3.73 2.87 2.87 0 0 0-3.92 0l-.61.58a2.54 2.54 0 0 0 0 3.73 2.9 2.9 0 0 0 3.93 0"/>
    <path id="Fill-3103" class="c-footer-blue-cls-3" d="M1127.94 8.39a2.89 2.89 0 0 0-3.93 0l-17.75 16.86a2.54 2.54 0 0 0 0 3.73 2.89 2.89 0 0 0 3.93 0l17.75-16.86a2.54 2.54 0 0 0 0-3.73"/>
    <path id="Fill-3109" class="c-footer-blue-cls-3" d="M1093.71 44.6l7.79-7.4a2.54 2.54 0 0 0 0-3.73 2.89 2.89 0 0 0-3.93 0l-7.79 7.4a1.81 1.81 0 0 0-.18.21v3.34c0 .06.09.12.15.18a2.89 2.89 0 0 0 3.93 0"/>
    <path id="Fill-3111" class="c-footer-blue-cls-3" d="M1113.12 41.63a2.55 2.55 0 0 1 0-3.73l-21.67 20.58a2.89 2.89 0 0 1 3.93 0 2.54 2.54 0 0 1 0 3.73l21.67-20.58a2.88 2.88 0 0 1-3.93 0"/>
    <path id="Fill-3113" class="c-footer-blue-cls-3" d="M1095.41 58.46a2.89 2.89 0 0 0-3.93 0l-.23.22a2.56 2.56 0 0 0 0 3.74 2.89 2.89 0 0 0 3.93 0l.23-.22a2.54 2.54 0 0 0 0-3.73"/>
    <path id="Fill-3115" class="c-footer-blue-cls-3" d="M1113.12 41.63a2.88 2.88 0 0 0 3.93 0l.23-.22a2.54 2.54 0 0 0 0-3.73 2.88 2.88 0 0 0-3.93 0l-.23.22a2.55 2.55 0 0 0 0 3.73"/>
    <path id="Fill-3117" class="c-footer-blue-cls-3" d="M1127.38 51a2.89 2.89 0 0 1-3.93 0 2.54 2.54 0 0 1 0-3.73l-11.39 10.82a2.87 2.87 0 0 1 3.92 0 2.54 2.54 0 0 1 0 3.73l-.24.22z"/>
    <path id="Fill-3121" class="c-footer-blue-cls-3" d="M1123.45 51a2.89 2.89 0 0 0 3.93 0L1155 24.7a2.89 2.89 0 0 1-3.93 0 2.54 2.54 0 0 1 0-3.73l-27.68 26.29a2.54 2.54 0 0 0 0 3.73"/>
    <path id="Fill-3127" class="c-footer-blue-cls-3" d="M1112.09 58.09l-.24.22z"/>
    <path id="Fill-3129" class="c-footer-blue-cls-3" d="M1116 58.06a2.87 2.87 0 0 0-3.92 0l-.24.22a2.54 2.54 0 0 0 0 3.73 2.87 2.87 0 0 0 3.92 0l.24-.22a2.54 2.54 0 0 0 0-3.73"/>
    <path id="Fill-3137" class="c-footer-blue-cls-3" d="M1148.61 49.98l-.61.58.61-.58z"/>
    <path id="Fill-3139" class="c-footer-blue-cls-3" d="M1148 50.56l.61-.58a2.55 2.55 0 0 0 0-3.73 2.89 2.89 0 0 0-3.93 0l-.61.57a2.56 2.56 0 0 0 0 3.74 2.89 2.89 0 0 0 3.93 0"/>
    <path id="Fill-3143" class="c-footer-blue-cls-3" d="M1168.31 46.74a2.54 2.54 0 0 1 0 3.73l-17.76 16.86L1196 24.15a2.55 2.55 0 0 0 0-3.73 2.88 2.88 0 0 0-3.93 0l-27.71 26.32a2.88 2.88 0 0 1 3.92 0"/>
    <path id="Fill-3145" class="c-footer-blue-cls-3" d="M1164.39 46.76l-17.76 16.87 17.76-16.87"/>
    <path id="Fill-3147" class="c-footer-blue-cls-3" d="M1150.53 67.33l17.75-16.86a2.54 2.54 0 0 0 0-3.73 2.88 2.88 0 0 0-3.92 0l-17.76 16.87a2.55 2.55 0 0 0 0 3.73 2.89 2.89 0 0 0 3.93 0"/>
    <path id="Fill-3155" class="c-footer-blue-cls-3" d="M1239.8 17.36a2.89 2.89 0 0 0-3.93 0l-6.39 6.07a2.54 2.54 0 0 0 0 3.73 2.87 2.87 0 0 0 3.92 0l6.39-6.07a2.54 2.54 0 0 0 0-3.73"/>
    <path id="Fill-3157" class="c-footer-blue-cls-3" d="M1150.23 6.39a2.9 2.9 0 0 0-3.93 0l-.23.22a3.06 3.06 0 0 0-.4.49 2.53 2.53 0 0 0 .37 3.25 2.9 2.9 0 0 0 3.42.35 3.07 3.07 0 0 0 .51-.38l.23-.22a2.54 2.54 0 0 0 0-3.73"/>
    <path id="Fill-3159" class="c-footer-blue-cls-3" d="M1155.3 20.75a2.9 2.9 0 0 0-3.93 0l-.23.23a2.54 2.54 0 0 0 0 3.73 2.89 2.89 0 0 0 3.93 0l.23-.22a2.54 2.54 0 0 0 0-3.73"/>
    <path id="Fill-3161" class="c-footer-blue-cls-3" d="M1180.79 19.41l-3.47 3.29z"/>
    <path id="Fill-3163" class="c-footer-blue-cls-3" d="M1180.82 15.68a2.89 2.89 0 0 0-3.93 0l-3.46 3.32a2.55 2.55 0 0 0 0 3.73 2.89 2.89 0 0 0 3.93 0l3.47-3.29a2.55 2.55 0 0 0 0-3.73"/>
    <path id="Fill-3167" class="c-footer-blue-cls-3" d="M1201.89 11.14l-.23.22z"/>
    <path id="Fill-3169" class="c-footer-blue-cls-3" d="M1201.89 11.14l-.23.22z"/>
    <path id="Fill-3171" class="c-footer-blue-cls-3" d="M1205.82 11.11a2.89 2.89 0 0 0-3.93 0l-.23.22a2.54 2.54 0 0 0 0 3.73 2.89 2.89 0 0 0 3.93 0l.23-.22a2.56 2.56 0 0 0 0-3.74"/>
    <path id="Fill-3173" class="c-footer-blue-cls-3" d="M1181.18 53.69a2.54 2.54 0 0 1 0 3.73L1207 32.89a2.54 2.54 0 0 0 0-3.73 2.89 2.89 0 0 0-3.93 0l-25.83 24.54a2.89 2.89 0 0 1 3.93 0"/>
    <path id="Fill-3179" class="c-footer-blue-cls-3" d="M1167.78 85.59a2.54 2.54 0 0 1 0 3.73l31.78-30.18a2.55 2.55 0 0 0 0-3.73 2.89 2.89 0 0 0-3.93 0l-31.78 30.18a2.89 2.89 0 0 1 3.93 0"/>
    <path id="Fill-3209" class="c-footer-blue-cls-3" d="M1298.58 56.87a2.89 2.89 0 0 0-3.93 0l-.23.22a2.56 2.56 0 0 0 0 3.74 2.89 2.89 0 0 0 3.93 0l.23-.22a2.54 2.54 0 0 0 0-3.73"/>
    <path id="Fill-3251" class="c-footer-blue-cls-3" d="M1286.85 49.12a2.89 2.89 0 0 0-3.93 0l-37.18 35.31L1273 58.62a2.86 2.86 0 0 1 3.92 0 2.54 2.54 0 0 1 0 3.73l10-9.48a2.55 2.55 0 0 0 0-3.73"/>
    <path id="Fill-3253" class="c-footer-blue-cls-3" d="M1276.87 58.6a2.86 2.86 0 0 0-3.92 0l-27.21 25.84a2.54 2.54 0 0 0 0 3.73 2.87 2.87 0 0 0 3.92 0l27.21-25.83a2.54 2.54 0 0 0 0-3.73"/>
    <path id="Fill-3259" class="c-footer-blue-cls-3" d="M1326.48 27l-.23.22.24-.23"/>
    <path id="Fill-3261" class="c-footer-blue-cls-3" d="M1330.15 30.87l.13-.12z"/>
    <path id="Fill-3263" class="c-footer-blue-cls-3" d="M1352.29 29.02l-2.41 2.29 2.41-2.29z"/>
    <path id="Fill-3265" class="c-footer-blue-cls-3" d="M1352.31 25.29a2.89 2.89 0 0 0-3.93 0L1346 27.6a2.55 2.55 0 0 0 0 3.73 2.9 2.9 0 0 0 3.93 0l2.41-2.29a2.54 2.54 0 0 0 0-3.73"/>
    <path id="Fill-3267" class="c-footer-blue-cls-3" d="M1366.37 27.41l-.41.39a2.55 2.55 0 0 0 0 3.73 2.9 2.9 0 0 0 3.93 0l.41-.39a2.54 2.54 0 0 0 0-3.73 2.87 2.87 0 0 0-3.92 0"/>
    <path id="Fill-3271" class="c-footer-blue-cls-3" d="M1413.42 5.6a2.89 2.89 0 0 0 3.93 0l.23-.22a2.56 2.56 0 0 0 0-3.74 2.89 2.89 0 0 0-3.93 0l-.23.22a2.54 2.54 0 0 0 0 3.73"/>
    <path id="Fill-3273" class="c-footer-blue-cls-3" d="M1434.54 4.71a2.55 2.55 0 0 1 0-3.73L1420.82 14a2.88 2.88 0 0 1 3.92 0 2.54 2.54 0 0 1 0 3.73l13.75-13.06a2.89 2.89 0 0 1-3.93 0"/>
    <path id="Fill-3277" class="c-footer-blue-cls-3" d="M1421.64 32.44l.23-.22z"/>
    <path id="Fill-3279" class="c-footer-blue-cls-3" d="M1421.87 32.22l-.23.22z"/>
    <path id="Fill-3281" class="c-footer-blue-cls-3" d="M1421.61 36.17a2.89 2.89 0 0 0 3.93 0l.23-.22a2.54 2.54 0 0 0 0-3.73 2.89 2.89 0 0 0-3.93 0l-.23.22a2.55 2.55 0 0 0 0 3.73"/>
    <path id="Fill-3289" class="c-footer-blue-cls-3" d="M1405.78 70.38a2.54 2.54 0 0 1 0 3.73l19.36-18.38a2.9 2.9 0 0 1-3.93 0 2.54 2.54 0 0 1 0-3.73l22.13-21-41.49 39.41a2.89 2.89 0 0 1 3.93 0"/>
    <path id="Fill-3293" class="c-footer-blue-cls-3" d="M1425.11 55.73l22.13-21-22.13 21"/>
    <path id="Fill-3295" class="c-footer-blue-cls-3" d="M1421.18 55.75a2.9 2.9 0 0 0 3.93 0l22.13-21-.23.22a2.89 2.89 0 0 1-3.93 0 2.55 2.55 0 0 1 0-3.73l.23-.22-22.13 21a2.54 2.54 0 0 0 0 3.73"/>
    <path id="Fill-3301" class="c-footer-blue-cls-3" d="M1426.45 69.92a2.89 2.89 0 0 0 3.93 0l30.93-29.38a2.87 2.87 0 0 1-3.92 0 2.54 2.54 0 0 1 0-3.73l-30.93 29.38a2.55 2.55 0 0 0 0 3.73"/>
    <path id="Fill-3346" class="c-footer-blue-cls-3" d="M1278.62 91.66a2.89 2.89 0 0 1 3.93 0 2.53 2.53 0 0 1 .33 3.31l33.94-32.23a2.54 2.54 0 0 0 0-3.73 2.88 2.88 0 0 0-3.48-.32l-34.84 33.08z"/>
    <path id="Fill-3380" class="c-footer-blue-cls-3" d="M1361.42 35.89a2.82 2.82 0 0 0-2-.76 2.92 2.92 0 0 0-2 .79l-34.28 32.56a2.54 2.54 0 0 0 0 3.73 2.89 2.89 0 0 0 3.93 0s34.54-32.84 34.64-33a2.48 2.48 0 0 0 .46-1.53 2.52 2.52 0 0 0-.79-1.79"/>
    <path id="Fill-3450" class="c-footer-blue-cls-3" d="M1390.73 62.73a2.87 2.87 0 0 0-1.7.76l-14.56 13.83a2.87 2.87 0 0 1 3.92 0 2.54 2.54 0 0 1 .34 3.32 3.41 3.41 0 0 1-.36.41l14.56-13.83a2.71 2.71 0 0 0 .36-.41 2.58 2.58 0 0 0-.33-3.32 2.84 2.84 0 0 0-2.23-.73"/>
  </g>
</svg>