<svg id="svg-c1-s4" xmlns="http://www.w3.org/2000/svg" viewBox="0 0 914 333.4">
  <style>
    .c1-s4-st0,.c1-s4-st1,.c1-s4-st2{fill:none;stroke:#599cf4;stroke-width:5;stroke-linecap:round;stroke-linejoin:round}.c1-s4-st1,.c1-s4-st2{stroke:#7fa0b5}.c1-s4-st2{stroke:#55555a}.c1-s4-st3{fill:#d5e3ec}.c1-s4-st4{fill:#36568a}.c1-s4-st6{fill:#eef4fc}
  </style>
  <g id="pestle">
    <path class="c1-s4-st0" d="M788.2 273.5l18.6-27.2c2.5-4.3 1.1-9.8-3.2-12.3-3.9-2.3-8.8-1.3-11.6 2.2l-25.6 37.3"/>
    <path class="c1-s4-st1" d="M799.5 274.1c-.4 31.1-25.9 55.9-57 55.5-30.5-.4-55.1-25-55.5-55.5h112.5z"/>
    <path class="c1-s4-st2" d="M717.8 324.3c-18.9-9.6-30.8-29-30.8-50.2h37.8"/>
    <circle cx="724.7" cy="274.1" r="2.5"/>
    <circle cx="717.8" cy="324.3" r="2.5"/>
  </g>
  <g id="vial">
    <path class="c1-s4-st1" d="M635 266.1v-21.8c2.7 0 4.9-2.2 4.9-4.9v-.1c0-2.8-2.2-5-5-5h-15.8c-2.8 0-5 2.2-5 5 0 2.7 2.1 5 4.8 5h.1v21.8c-16 3-27.6 16.1-27.6 31.5 0 17.8 15.9 32.3 35.6 32.3s35.5-14.5 35.5-32.3c.1-15.4-11.7-28.2-27.5-31.5z"/>
    <path class="c1-s4-st3" d="M598.2 297.7c0 14.5 12.9 26.2 28.8 26.2s28.8-11.7 28.8-26.2c0-2.8-.5-5.6-1.5-8.3h-54.7c-.9 2.7-1.4 5.5-1.4 8.3z"/>
    <path class="c1-s4-st0" d="M595.1 283.1c-2.4 4.4-3.6 9.4-3.7 14.4 0 17.8 15.9 32.3 35.6 32.3"/>
    <circle class="c1-s4-st4" cx="595.2" cy="283.1" r="2.5"/>
    <circle class="c1-s4-st4" cx="627" cy="329.9" r="2.5"/>
    <path d="M641.9 313.1c-9.8 2.5-20 2.5-29.8 0v-31.5s8.8-1.9 14.9-1.9 15 1.9 15 1.9l-.1 31.5z" fill="#fff" stroke="#599cf4" stroke-width="5" stroke-linecap="round" stroke-linejoin="round"/>
    <path class="c1-s4-st3" d="M637.5 295.2c0-3.1-2.5-5.6-5.7-5.6-2 0-3.8 1-4.8 2.7-1-1.7-2.9-2.7-4.8-2.7-3.1 0-5.6 2.5-5.6 5.6v.1c-.1 3.2 2.4 6 10.3 11.6h.4c7.8-5.7 10.3-8.5 10.2-11.7z"/>
  </g>
  <g id="caldron">
    <path class="c1-s4-st3 liquid-pour" d="M504.9 72.8s.5.7 1.8 2.1c-3.9 5.4-6.3 7.2-22.3 23.2-18.5 18.4-15.8 100-15.8 100h6.9s-1-81.4 14-96.4C501.2 90 501.2 90 512 80.3l2.3 1.8c11.2 7.6 36.4-4.1 45.4-13.1 3.8-3.8.8-11.6-5.1-19.5L503 59.1c-.8 5.3-.3 10.2 1.9 13.7z"/>

    <path class="c1-s4-st3 steam" d="M394.8,17.5c-27.5,12.6-44.5,44.5-31.9,73.7c6.8,15.7,19.8,28,28.6,42.6c8.9,14.9,22.3,38.3,2.9,51
	c-1.6,1-0.1,3.6,1.5,2.6c12.8-8.4,13.7-22.7,8.1-35.8c-6.9-16.4-17.2-30.3-27.8-44.5c-11.2-14.9-17.7-31.4-12.7-50
	c4.5-16.8,17.2-29.8,32.8-36.9C398.1,19.3,396.5,16.7,394.8,17.5L394.8,17.5z"></path>
    <path class="c1-s4-st3 steam" d="M422.3,9.5c6.9,11.9,16.8,28.6,13,43c-1.9,7.3-8.3,12.6-13.8,17.4c-6,5.3-12.2,10.6-16.3,17.5
	c-4.8,8.1-5.8,17.2-4.3,26.5c0.3,1.9,3.2,1.1,2.9-0.8c-1.7-10.8,0.6-20.8,7.6-29.2c5.3-6.4,12.1-11.3,18.1-17.2
	c4.8-4.8,8.9-10.4,9.3-17.3c1-14.7-6.8-29.2-14-41.5c-0.4-0.7-1.3-1-2.1-0.5S421.8,8.8,422.3,9.5L422.3,9.5z"></path>
    <path class="c1-s4-st3 steam" d="M437.8,78.9c-13.2,11.5-9.3,30.3-2.5,44.1c4.7,9.5,10.8,18.4,13.8,28.6c3.4,10.9,1.3,22.8-5.6,31.9
	c-1.2,1.5,1.4,3,2.6,1.5c11.9-15.7,7.8-33.6-0.8-49.7c-8.3-15.6-22.7-39.2-5.4-54.3C441.3,79.8,439.2,77.7,437.8,78.9z"></path>

    <path class="c1-s4-st3 heart" d="M389.9,79.9c0-2-1.6-3.6-3.7-3.6c-1.3,0-2.5,0.7-3.1,1.8c-0.7-1.1-1.9-1.8-3.2-1.8c-2,0-3.6,1.6-3.6,3.6
	c0,0,0,0,0,0.1c-0.1,2.1,1.5,3.9,6.7,7.5h0.1h0.1h0.1C388.4,83.8,390,82,389.9,79.9z"></path>
    <path class="c1-s4-st3 heart" d="M365,118.2c0-2-1.6-3.7-3.6-3.7c-1.3,0-2.5,0.7-3.1,1.8c-0.7-1.1-1.9-1.8-3.1-1.8c-2,0-3.6,1.6-3.6,3.6l0,0
	c-0.1,2.1,1.5,3.9,6.7,7.5h0.1h0.1h0.1C363.4,122.1,365,120.2,365,118.2z"></path>
    <path class="c1-s4-st3 heart" d="M376.4,18.4c0-2-1.6-3.7-3.6-3.7c-1.3,0-2.5,0.7-3.1,1.8c-0.7-1.1-1.9-1.8-3.1-1.8c-2,0-3.6,1.6-3.6,3.6
	c0,0,0,0,0,0.1c-0.1,2.1,1.5,3.9,6.7,7.5h0.1h0.1h0.1C374.8,22.3,376.5,20.5,376.4,18.4z"></path>
    <path class="c1-s4-st3 heart" d="M419.7,37c0-2-1.6-3.7-3.6-3.7c-1.3,0-2.5,0.7-3.1,1.8c-0.7-1.1-1.8-1.8-3.1-1.8c-2,0-3.6,1.6-3.6,3.6l0,0
	c-0.1,2.1,1.5,3.9,6.7,7.5h0.1h0.1h0.1C418.2,40.9,419.8,39,419.7,37z"></path>
    <path class="c1-s4-st3 heart" d="M459.7,110.5c0-2-1.6-3.7-3.6-3.7c-1.3,0-2.5,0.7-3.1,1.8c-0.7-1.1-1.9-1.8-3.1-1.8c-2,0-3.6,1.6-3.6,3.6
	c0,0,0,0,0,0.1c-0.1,2.1,1.5,3.9,6.7,7.5h0.1h0.1h0.1C458.2,114.4,459.8,112.6,459.7,110.5z"></path>
    <path class="c1-s4-st3 heart" d="M463.8,49c0-2-1.7-3.6-3.7-3.6c-1.3,0-2.4,0.7-3.1,1.7c-0.7-1.1-1.9-1.8-3.1-1.8c-2,0-3.7,1.6-3.7,3.6V49
	c-0.1,2.1,1.5,3.9,6.7,7.5h0.1h0.1h0.1C462.2,52.9,463.8,51.1,463.8,49z"></path>

    <path class="c1-s4-st1" d="M497.3 155.6c4.1.2 7.5-3.1 7.7-7.2.2-4.1-3.1-7.5-7.2-7.7H358.6c-4.1-.2-7.5 3.1-7.7 7.2-.2 4.1 3.1 7.5 7.2 7.7h.5c-8.5 14.3-13 30.6-12.9 47.2 0 48.4 36.8 77.2 82.2 77.2s82.2-28.8 82.2-77.2c.2-16.6-4.3-32.9-12.8-47.2z"/>
    <path class="c1-s4-st0" d="M440.4 140.8h-81.7c-4.1-.2-7.5 3.1-7.7 7.2-.2 4.1 3.1 7.5 7.2 7.7h.5a91.29 91.29 0 0 0-12.6 39.7"/>
    <path class="c1-s4-st3" d="M354.5 201.8c0 43.2 32.9 68.9 73.4 68.9s73.4-25.7 73.4-68.9c0-2.2-.1-4.3-.2-6.5H354.8c-.2 2.1-.3 4.3-.3 6.5z"/>
    <path class="c1-s4-st2" d="M514.1 213.9s-50 8.7-86.1 8.7-86.1-8.7-86.1-8.7M346.2 214.8l-24 115.6h-14.4M509 214.8l23.9 115.6h14.4"/>
    <path class="c1-s4-st6 fire" d="M425.9 330.4c-4.6 0-13.3-5.5-13.3-15.1 0-14 3.9-15.8 3.9-15.8 2.1 4.7 7.2 8.4 7.2 8.4s5.7-13.7 5.3-21.4c9.6 2.9 12.4 11.3 13.3 21.9.8 11.6-4.9 22-16.4 22z"/>
    <path class="c1-s4-st3 fire" d="M426.6 330.4c-2.4 0-6.9-2.8-6.9-7.8.1-2 .3-3.9.7-5.8 2 .6 3.9 1.7 5.5 3 0 0 6-9.6 6.8-13.8 2.4 1.7 2.5 5.7 2.9 11.1.5 6-3.1 13.3-9 13.3z"/>
    <circle class="c1-s4-st6 bubbles" cx="377.6" cy="209.2" r="3.2"/>
    <circle class="c1-s4-st6 bubbles" cx="413.9" cy="209.2" r="3.2"/>
    <circle class="c1-s4-st6 bubbles" cx="447.6" cy="259" r="3.2"/>
    <circle class="c1-s4-st6 bubbles" cx="446" cy="210.4" r="3.2"/>
    <circle class="c1-s4-st6 bubbles" cx="424.3" cy="233.3" r="3.2"/>
    <circle class="c1-s4-st6 bubbles" cx="392.1" cy="236.2" r="3.2"/>
    <circle class="c1-s4-st6 bubbles" cx="461.8" cy="238.1" r="3.2"/>
    <circle class="c1-s4-st6 bubbles" cx="479.6" cy="231.6" r="3.2"/>
    <circle class="c1-s4-st6 bubbles" cx="410.7" cy="250.5" r="3.2"/>
    <circle class="c1-s4-st6 bubbles" cx="427.6" cy="247.3" r="3.2"/>
    <circle class="c1-s4-st6 bubbles" cx="479.6" cy="207.1" r="3.2"/>
    <circle class="c1-s4-st4 bubbles" cx="440.4" cy="140.8" r="2.5"/>
    <circle class="c1-s4-st4 bubbles" cx="346" cy="195.3" r="2.5"/>
    <g class="" id="bottle-pour">
        <path class="c1-s4-st1" d="M500.2 75.5L484.8 91v.1c-2.2-1.7-5.3-1.2-7 1-1.3 1.8-1.3 4.2 0 6l11.2 11.2c2.2 1.7 5.3 1.2 7-1 1.3-1.8 1.3-4.2 0-6v.1L511.4 87c13.5 9.2 44-5 54.8-15.8 12.7-12.6-37.6-62.9-50.2-50.3-10.8 10.6-24.6 41.1-15.8 54.6z"/>
        <path class="c1-s4-st2" d="M537.8 25.5c-9-6.2-17.5-9.1-21.7-4.8-4.8 4.9-10.3 13.6-14 23.1"/>
        <circle cx="537.8" cy="25.5" r="2.5"/>
        <circle cx="502" cy="43.8" r="2.5"/>
    </g>

  <g id="tubes">
    <path class="c1-s4-st1" d="M136.9 235.9V319c0 4.4 3.6 8 8 8s8-3.6 8-8v-83.1c2.7 0 4.9-2.2 4.9-4.9v-.1c0-2.8-2.2-5-5-5H137c-2.8 0-5 2.2-5 5 0 2.7 2.1 4.9 4.9 5-.1-.1 0-.1 0 0"/>
    <path class="c1-s4-st3" d="M141.6 266.2v52.7c-.1 1.8 1.3 3.4 3.1 3.5s3.4-1.3 3.5-3.1v-53.1h-6.6"/>
    <path class="c1-s4-st0" d="M136.9 319c0 4.4 3.6 8 8 8M136.9 252.8v66.6"/>
    <circle class="c1-s4-st4" cx="136.9" cy="252.8" r="1.5"/>
    <circle class="c1-s4-st4" cx="144.9" cy="327" r="2.5"/>
    <g>
      <path class="c1-s4-st1" d="M184 235.9V319c0 4.4 3.6 8 8 8s8-3.6 8-8v-83.1c2.7 0 4.9-2.2 4.9-4.9v-.1c0-2.8-2.2-5-5-5H184c-2.8 0-5 2.2-5 5 0 2.7 2.1 4.9 4.8 5h.1"/>
      <path class="c1-s4-st3" d="M188.7 253.8v65.1c-.1 1.8 1.3 3.4 3.1 3.5 1.8.1 3.4-1.3 3.5-3.1v-65.5h-6.6"/>
      <path class="c1-s4-st0" d="M184 319c0 4.4 3.6 8 8 8"/>
      <circle class="c1-s4-st4" cx="184" cy="319" r="2.5"/>
      <circle class="c1-s4-st4" cx="191.9" cy="327" r="2.5"/>
      <path class="c1-s4-st0" d="M199.9 281.3V246"/>
      <circle class="c1-s4-st4" cx="199.9" cy="246" r="2.5"/>
      <circle class="c1-s4-st4" cx="199.9" cy="281.3" r="2.5"/>
    </g>
    <g>
      <path class="c1-s4-st1" d="M246.2 235.9V319c0 4.4-3.6 8-8 8s-8-3.6-8-8v-83.1c-2.7 0-4.9-2.2-4.9-4.9v-.1c0-2.8 2.2-5 5-5h15.8c2.8 0 5 2.2 5 5 0 2.7-2.1 4.9-4.8 5 0-.1-.1-.1-.1 0"/>
      <path class="c1-s4-st3" d="M241.5 282.3v36.6c0 1.8-1.5 3.3-3.3 3.3s-3.3-1.5-3.3-3.3v-36.6h6.6"/>
      <path class="c1-s4-st0" d="M230.2 306v-35.3"/>
      <circle class="c1-s4-st4" cx="230.2" cy="270.7" r="1.5"/>
      <circle class="c1-s4-st4" cx="230.2" cy="306" r="2.5"/>
      <path class="c1-s4-st0" d="M246.1 225.9c2.8 0 5 2.2 5 5M230.3 225.9h15.8"/>
      <circle class="c1-s4-st4" cx="230.3" cy="225.9" r="2.5"/>
      <circle class="c1-s4-st4" cx="251.1" cy="230.9" r="2.5"/>
    </g>
    <path fill="#fff" stroke="#55555a" stroke-width="5" stroke-linecap="round" stroke-linejoin="round" d="M115.7 252.3h152.4v18.2H115.7z"/>
    <path class="c1-s4-st2" d="M115.7 270.6v59.8h152.5v-59.8"/>
  </g>
</svg>