<svg id="svg-c1-s6" xmlns="http://www.w3.org/2000/svg" viewBox="0 0 999 330">
  <style>
    .c1-s7-st0{fill:none}.c1-s7-st1{fill:#7fa0b5}.c1-s7-st2{fill:#599cf4}.c1-s7-st3{fill:#55555a}.c1-s7-st4{fill:#36568a}.c1-s7-st5{fill:#eef4fc}.c1-s7-st6{fill:#d6e1e9}.c1-s7-st2a,.c1-s7-st3a,.c1-s7-st4a{fill:none;stroke:#7e9fb4;stroke-width:5;stroke-linecap:round;stroke-linejoin:round;stroke-miterlimit:10}.c1-s7-st3a,.c1-s7-st4a{stroke:#55555a}.c1-s7-st4a{stroke:#599cf4}.c1-s7-st7a{fill:#36568a}
  </style>
    <g id="cloud">
        <path class="c1-s7-st5" d="M201 194.5c-1.8 0-3.5.2-5.1.6-4.8-11.8-16.3-20.1-29.8-20.1-5.4 0-10.6 1.4-15.1 3.8-5.1-21.8-24.6-38.1-48-38.1-27.2 0-49.3 22.1-49.3 49.3 0 1.5.1 3.1.2 4.6h-.4c-12.4 0-22.4 10-22.4 22.4 0 12.4 10 22.4 22.4 22.4h149.4v-.1c11.5-1 20.5-10.6 20.5-22.3 0-12.5-10-22.5-22.4-22.5zM155 224c-1.4 0-2.5-1.1-2.5-2.5 0-9.4-7.7-17.1-17.1-17.1-1.4 0-2.5-1.1-2.5-2.5 0-9.4-7.7-17.1-17.1-17.1-5.7 0-11 2.8-14.2 7.5-.8 1.1-2.3 1.4-3.5.7s-1.4-2.3-.7-3.5c4.1-6.1 11-9.7 18.3-9.7 11.4 0 20.8 8.7 22 19.7 11.1 1.2 19.7 10.6 19.7 22 .1 1.4-1 2.5-2.4 2.5z"/>
        <path class="c1-s7-st6" d="M137.8 199.5c-1.2-11.1-10.6-19.7-22-19.7-7.4 0-14.2 3.6-18.3 9.7-.8 1.1-.5 2.7.7 3.5s2.7.5 3.5-.7c3.2-4.7 8.5-7.5 14.2-7.5 9.4 0 17.1 7.7 17.1 17.1 0 1.4 1.1 2.5 2.5 2.5 9.4 0 17.1 7.7 17.1 17.1 0 1.4 1.1 2.5 2.5 2.5s2.5-1.1 2.5-2.5c-.1-11.4-8.8-20.8-19.8-22z"/>
    </g>
    <g id="cloud-2">
        <path class="c1-s7-st5" d="M282.5 70c-2.1 0-4.1.2-6.1.7-5.5-14.4-19.5-24.7-35.9-24.7-16.2 0-30.1 10-35.7 24.2-1.1-.1-2.2-.2-3.3-.2-14.6 0-26.5 11.9-26.5 26.5s11.9 26.5 26.5 26.5h81c14.6 0 26.5-11.9 26.5-26.5S297.1 70 282.5 70zm-35.8 17.1c-1 .9-2.6.9-3.5-.1-6.6-7.1-17.8-7.5-24.9-.9-4.3 4-6.3 9.8-5.4 15.6.2 1.4-.7 2.6-2.1 2.9h-.4c-1.2 0-2.3-.9-2.5-2.1-1.2-7.4 1.4-14.9 6.9-20.1 9.1-8.5 23.4-8 31.9 1.1 1.1 1.1 1 2.6 0 3.6z"/>
        <path class="c1-s7-st6" d="M214.9 82.4c-5.5 5.1-8.1 12.6-6.9 20.1.2 1.2 1.3 2.1 2.5 2.1h.4c1.4-.2 2.3-1.5 2.1-2.9-.9-5.8 1.1-11.6 5.4-15.6 7.1-6.6 18.3-6.2 24.9.9.9 1 2.5 1.1 3.5.1 1-.9 1.1-2.5.1-3.5-8.5-9.2-22.9-9.7-32-1.2z"/>
    </g>
    <g id="cloud-3">
        <path class="c1-s7-st5" d="M946.9 168.1c-.5 0-1 0-1.5.1.5-3.1.8-6.3.8-9.6 0-31.2-25.3-56.5-56.5-56.5-5.3 0-10.5.8-15.4 2.1-9.4-28.3-36-48.6-67.4-48.6-30.5 0-56.6 19.3-66.6 46.4-2.2-.4-4.4-.6-6.6-.6-18 0-33 12.5-37 29.3-6.9-4.2-15-6.6-23.7-6.6-24.6 0-44.6 19.4-45.7 43.8h-1.2c-13.2 0-23.8 10.7-23.8 23.8 0 12.9 10.2 23.3 23 23.8v.3H946.9c13.2 0 23.8-10.7 23.8-23.8s-10.6-23.9-23.8-23.9zM733 157.3c-.5 1.3-2 1.9-3.3 1.3-1.9-.8-3.9-1.2-6-1.2-8.5 0-15.3 6.9-15.3 15.3 0 1-.6 1.9-1.5 2.3-.9.4-1.9.3-2.7-.4-2.8-2.4-6.4-3.7-10-3.7-8.5 0-15.3 6.9-15.3 15.3 0 1.4-1.1 2.5-2.5 2.5s-2.5-1.1-2.5-2.5c0-11.2 9.1-20.3 20.3-20.3 3.4 0 6.7.8 9.7 2.4 2-9.1 10.2-15.9 19.9-15.9 2.8 0 5.5.6 8 1.6 1.1.6 1.7 2.1 1.2 3.3zm57.2-43.6c-.3.1-.6.2-.9.2-1 0-1.9-.6-2.3-1.6-2.3-5.9-7.9-9.7-14.3-9.7-6.2 0-11.7 3.7-14.1 9.4-.5 1.3-2 1.9-3.3 1.3-1.3-.5-1.9-2-1.3-3.3 3.2-7.5 10.6-12.4 18.8-12.4 8.4 0 15.8 5 18.9 12.8.4 1.4-.2 2.8-1.5 3.3zm46.2 75.4c-.3.1-.6.2-.9.2-1 0-1.9-.6-2.3-1.6-2.3-5.9-7.9-9.7-14.3-9.7-6.2 0-11.7 3.7-14.1 9.4-.5 1.3-2 1.9-3.3 1.3-1.3-.5-1.9-2-1.3-3.3 3.2-7.5 10.6-12.4 18.8-12.4 8.4 0 15.8 5 18.9 12.8.4 1.3-.2 2.8-1.5 3.3zm67.3-22c-1.4 0-2.5-1.1-2.5-2.5 0-8.5-6.9-15.3-15.3-15.3-1.4 0-2.5-1.1-2.5-2.5 0-8.5-6.9-15.3-15.3-15.3-5.1 0-9.9 2.5-12.7 6.8-.8 1.1-2.3 1.4-3.5.7-1.1-.8-1.4-2.3-.7-3.5 3.8-5.6 10.1-9 16.9-9 10.4 0 19 7.9 20.2 18 10.1 1.2 18 9.8 18 20.2-.1 1.3-1.2 2.4-2.6 2.4z"/>
        <path class="c1-s7-st6" d="M818.9 173c-8.2 0-15.6 4.9-18.8 12.4-.5 1.3.1 2.7 1.3 3.3 1.3.5 2.7-.1 3.3-1.3 2.4-5.7 8-9.4 14.1-9.4 6.3 0 11.9 3.8 14.3 9.7.4 1 1.3 1.6 2.3 1.6.3 0 .6-.1.9-.2 1.3-.5 1.9-2 1.4-3.2-3-7.8-10.4-12.9-18.8-12.9zM772.7 97.7c-8.2 0-15.6 4.9-18.8 12.4-.5 1.3.1 2.7 1.3 3.3 1.3.5 2.7-.1 3.3-1.3 2.4-5.7 8-9.4 14.1-9.4 6.3 0 11.9 3.8 14.3 9.7.4 1 1.3 1.6 2.3 1.6.3 0 .6-.1.9-.2 1.3-.5 1.9-2 1.4-3.2-3-7.9-10.4-12.9-18.8-12.9zM888.2 144.4c-1.2-10.1-9.8-18-20.2-18-6.8 0-13.1 3.4-16.9 9-.8 1.1-.5 2.7.7 3.5 1.1.8 2.7.5 3.5-.7 2.9-4.2 7.6-6.8 12.7-6.8 8.5 0 15.3 6.9 15.3 15.3 0 1.4 1.1 2.5 2.5 2.5 8.5 0 15.3 6.9 15.3 15.3 0 1.4 1.1 2.5 2.5 2.5s2.5-1.1 2.5-2.5c.1-10.3-7.8-18.9-17.9-20.1zM731.7 154.1c-2.5-1.1-5.2-1.6-8-1.6-9.7 0-17.8 6.8-19.9 15.9-2.9-1.6-6.3-2.4-9.7-2.4-11.2 0-20.3 9.1-20.3 20.3 0 1.4 1.1 2.5 2.5 2.5s2.5-1.1 2.5-2.5c0-8.5 6.9-15.3 15.3-15.3 3.7 0 7.3 1.3 10 3.7.7.6 1.8.8 2.7.4.9-.4 1.5-1.3 1.5-2.3 0-8.5 6.9-15.3 15.3-15.3 2.1 0 4.1.4 6 1.2 1.3.5 2.7 0 3.3-1.3.6-1.3 0-2.8-1.2-3.3z"/>
    </g>
    <g id="angel">
        <g id="arrow-angel">
        <path class="c1-s7-st2a" d="M387.9 157.1l-31 11.7"/>
        <path class="c1-s7-st3a" d="M356.9 168.8l-7.3 2.8M348.5 184.6c3.3-1.4 4.9-4.9 3.7-8.1-.8-2.1-2.6-3.6-4.8-4 1.3-1.7 1.7-4.1.9-6.2-1.2-3.3-4.7-4.9-8.1-3.7-3.4 1.2-5.4 4.9-8.1 15.4v.1l.1.2s0 .1.1.1c8.9 6.1 12.9 7.6 16.2 6.2z"/>
        <circle cx="356.9" cy="168.8" r="2.5"/>
        </g>
      <path class="c1-s7-st2a" d="M482.5 237.6l40.9 6.4c.5.1 1.1.1 1.6.1 5.5 0 10-4.5 10-10 0-4.6-3.2-8.5-7.4-9.6l-37.6-9.7M465.3 88.1c.7 2.4 1.1 4.9 1.1 7.5 0 14.6-11.8 26.4-26.4 26.4s-26.4-11.8-26.4-26.4c0-12 8-22.1 18.9-25.4M442.6 135.4L427.8 157s-28.7-6.5-32.1-6.6c-3.7 0-6.6 3-6.6 6.6 0 3.7 1.5 5.4 6.6 6.8 5 1.4 28 7.8 35.6 8.6 7.5.8 21.1-18.5 21.1-18.5"/>
      <path class="c1-s7-st2a" d="M411.4 201.1c-12.1-11.1-20.4-25.7-22.8-42.4-2.4-16.7 1.6-33 10.1-47.1"/>
      <path class="c1-s7-st2a" d="M398.7 111.6c-8.6 14.1-12.5 30.4-10.1 47.1 2.4 16.7 10.6 31.3 22.8 42.4l8.4-23.3M475.2 134s18.6-50.6 30.1-58.2c11.6-7.6 46.3-5.2 63.9-4.8M569.2 71c6.6 0 11.9 4.8 11.9 10.6 0 5.9-5.3 10.6-11.9 10.6H538M510.4 134.9c6.6 0 11.9 4.8 11.9 10.6s-5.3 10.6-11.9 10.6h-23.3"/>
      <path class="c1-s7-st4a" d="M432.4 70.3c14-4.1 28.7 3.9 32.8 17.9"/>
      <path class="c1-s7-st2a" d="M492.8 172.5c-4.2-13.5-13.6-32.1-13.6-32.1-3.1-7.9-10.7-13.4-19.7-13.4-7.6 0-14.3 4-18 10.1M446.3 161.5l15.8 33.7-5.3 49.8M563.6 102.9c0-5.9-5.3-10.6-11.9-10.6M502.8 134.9H534"/>
      <path class="c1-s7-st4a" d="M534 134.9c6.6 0 11.9-4.8 11.9-10.6 0-5.9-5.3-10.6-11.9-10.6h-13.5 31.2c6.6 0 11.9-4.8 11.9-10.6"/>
      <path class="c1-s7-st2a" d="M420.7 78.7s16.3 18.8 45.6 19M414.8 104s33.4 8.8 49.9.9M467.3 95.6c3.2.8 5.2 4.1 4.4 7.3-.8 3.2-4.1 5.2-7.3 4.4"/>
      <path class="c1-s7-st2a" d="M468.1 107s-3.9 7.4-.9 11.9 4.6 4.4 4.6 4.4-1.5-4.8 0-9.7c1.5-4.9-.2-10.7-.2-10.7"/>
      <circle class="c1-s7-st7a" cx="432.4" cy="70.3" r="2.5"/>
      <circle class="c1-s7-st7a" cx="465.3" cy="88.1" r="2.5"/>
      <circle class="c1-s7-st7a" cx="534" cy="134.9" r="2.5"/>
      <circle class="c1-s7-st7a" cx="563.6" cy="102.9" r="2.5"/>
      <path class="c1-s7-st3a" d="M456.8 245l-2.6 24.8c0 .4-.1.7-.1 1.1 0 5.5 4.5 10 10 10 4.7 0 8.6-3.2 9.7-7.6 0 0 19.7-80.1 20.9-90 .3-2.5-.5-6.4-1.9-10.9"/>
      <circle cx="456.8" cy="245" r="2.5"/>
      <circle cx="492.8" cy="172.5" r="2.5"/>
    </g>

</svg>