<svg id="svg-c2-s6" xmlns="http://www.w3.org/2000/svg" viewBox="0 0 145 232.91">
  <defs>
    <style>
      .c2-s6-cls-6,.c2-s6-cls-8{fill:none}.c2-s6-cls-3{fill:#e6f4df}.c2-s6-cls-4{fill:#daead3}.c2-s6-cls-5{fill:#d5e3ec}.c2-s6-cls-6,.c2-s6-cls-8{stroke:#7e9fb4;stroke-linecap:round;stroke-linejoin:round;stroke-width:5px}.c2-s6-cls-8{stroke:#55555a}.c2-s6-cls-9{fill:#007d39}
    </style>
    <clipPath id="c2-s6-clip-path">
      <path fill="none" d="M-10.21-6.12h156.14v65.31H-10.21z"/>
    </clipPath>
  </defs>
  <g>
    <g id="c2-s6-dollars" clip-path="url(#c2-s6-clip-path)">
      <path id="c2-s6-dollar-1" class="c2-s6-cls-3" d="M45.41.29h37.25v63.27H45.41z"/>
      <path id="c2-s6-dollar-2" class="c2-s6-cls-4" transform="rotate(1.8 97.438 41.767)" d="M78.58 10.21h37.25v63.27H78.58z"/>
      <path id="c2-s6-dollar-3" class="c2-s6-cls-4" transform="matrix(1 -.09 .09 1 -3.53 3.35)" d="M14.79 7.14h37.25v63.27H14.79z"/>
      <path id="c2-s6-dollar-4" class="c2-s6-cls-3" transform="rotate(28.37 103.083 56.38)" d="M84.44 24.75h37.25v63.27H84.44z"/>
      <path id="c2-s6-dollar-5" class="c2-s6-cls-3" transform="rotate(-21.12 28.808 54.632)" d="M10.17 22.98h37.25v63.27H10.17z"/>
      <path id="c2-s6-dollar-6" class="c2-s6-cls-5" d="M112.87 59.37c-.58-1.66-2.13-3.69-4.59-6l4.8-9.74a21.16 21.16 0 0 1 5.58 4.58l.22.27 2.11-2-.21-.23a25 25 0 0 0-6.47-5.09l2-4-2.31-1.22-2 4.06a11.09 11.09 0 0 0-6.39-.36 6.7 6.7 0 0 0-4.36 3.59 7.48 7.48 0 0 0-.88 3.57 7 7 0 0 0 1.12 3.41 21.59 21.59 0 0 0 3.5 4l-5 10.22a19.58 19.58 0 0 1-3.47-2.36A20.67 20.67 0 0 1 93.36 59l-.31-.4-1.39 2.81.12.16A18 18 0 0 0 95 64.49a30.51 30.51 0 0 0 3.76 2.44l-2.46 4.91L98.59 73l2.47-5a12.33 12.33 0 0 0 6.81.53 7.21 7.21 0 0 0 5-9.11zm-3.3 3.87a4.42 4.42 0 0 1-2.95 2.48 7.48 7.48 0 0 1-4.31-.29l4.55-9.23a11.67 11.67 0 0 1 2.83 3.69 3.86 3.86 0 0 1-.12 3.35zM103.86 48a4.09 4.09 0 0 1 .25-3.32 4.27 4.27 0 0 1 2.58-2.23 6.69 6.69 0 0 1 4 .15l-4.36 8.84a10 10 0 0 1-2.47-3.44zM71.69 29.4a15.1 15.1 0 0 0-5.92-2.65l-.39-9.27a18 18 0 0 1 6.06 1.15l.27.11.76-2.37-.25-.09a21.15 21.15 0 0 0-6.94-1.16l-.16-3.83-2.18.09.16 3.89a9.46 9.46 0 0 0-4.93 2.35 5.7 5.7 0 0 0-1.8 4.48 6.49 6.49 0 0 0 .8 3 5.92 5.92 0 0 0 2.24 2.1 18.74 18.74 0 0 0 4.27 1.57l.41 9.72a17 17 0 0 1-3.57-.34 17.78 17.78 0 0 1-3.6-1.06l-.41-.09.12 2.68.16.07a15.07 15.07 0 0 0 3.57.88 25.3 25.3 0 0 0 3.83.29l.19 4.67 2.18-.09-.2-4.78a10.31 10.31 0 0 0 5.31-2.39 5.72 5.72 0 0 0 1.9-4.65 5.8 5.8 0 0 0-1.88-4.28zm-.88 4.26a3.79 3.79 0 0 1-1.2 3.07 6.42 6.42 0 0 1-3.35 1.55l-.37-8.79a9.73 9.73 0 0 1 3.63 1.61 3.32 3.32 0 0 1 1.29 2.56zm-10.53-9.09A3.45 3.45 0 0 1 59.11 22a3.59 3.59 0 0 1 1-2.72 5.65 5.65 0 0 1 3.08-1.54l.35 8.41a8.28 8.28 0 0 1-3.26-1.58zM33.42 50.59a14.26 14.26 0 0 0-6.11-.45L24 42a16.83 16.83 0 0 1 5.75-.92H30l-.09-2.34h-.25A20 20 0 0 0 23.14 40l-1.38-3.34-1.9.78 1.4 3.4a8.76 8.76 0 0 0-3.62 3.66 5.34 5.34 0 0 0-.16 4.5 6 6 0 0 0 1.69 2.44 5.58 5.58 0 0 0 2.66 1.14 17.06 17.06 0 0 0 4.28 0l3.49 8.5a16.08 16.08 0 0 1-3.27.84 16.65 16.65 0 0 1-3.54.22h-.41l1 2.34h.17a14.76 14.76 0 0 0 3.45-.33 24.27 24.27 0 0 0 3.49-1l1.67 4.08 1.9-.78-1.75-4.15a9.93 9.93 0 0 0 3.95-3.83 5.82 5.82 0 0 0-2.84-7.88zm.58 4.06a3.58 3.58 0 0 1-.08 3.1 5.94 5.94 0 0 1-2.47 2.45l-3.16-7.67a9.42 9.42 0 0 1 3.75.26A3.12 3.12 0 0 1 34 54.65zM21.74 50a3.25 3.25 0 0 1-1.87-1.92 3.38 3.38 0 0 1 0-2.75A5.35 5.35 0 0 1 22.14 43l3 7.35a7.83 7.83 0 0 1-3.4-.35z"/>
    </g>
    <g>
        <circle class="c2-s6-cls-6" cx="117.44" cy="205.64" r="24.36"/>
        <circle class="c2-s6-cls-6" cx="117.44" cy="205.64" r="10.1"/>
        <path id="c2-s6-bin-bg" class="c2-s6-cls-6" d="M24.74 72.53h78.44M110.31 181.87V86.79c0-7.13 3.73-10.7 10.1-10.7h11.64c4.95 0 4.75-2.37 4.75-5.94V59.46H5.73v11.88h7.13v130.73c0 10.1 5.35 23.77 26.14 23.77h63.59"/>
        <path d="M39 225.84c-20.79 0-26.14-13.67-26.14-23.77V71.34h-3" stroke="#73c06b" stroke-linecap="round" stroke-linejoin="round" stroke-width="5" fill="none"/>
        <path class="c2-s6-cls-8" d="M110.31 124.33V86.79c0-7.13 3.73-10.7 10.1-10.7h11.64c4.95 0 4.75-2.37 4.75-5.94V59.46M134.67 222.86a24.36 24.36 0 0 1-34.46-34.45"/>
        <circle class="c2-s6-cls-9" cx="39.03" cy="225.79" r="2.5"/>
        <circle class="c2-s6-cls-9" cx="9.46" cy="71.33" r="2.5"/>
        <circle cx="110.31" cy="124.36" r="2.5"/>
        <circle cx="136.81" cy="59.45" r="2.5"/>
        <circle cx="100.21" cy="188.41" r="2.5"/>
        <circle cx="134.69" cy="222.84" r="2.5"/>
    </g>
  </g>
</svg>