<?xml version="1.0" encoding="utf-8"?>
<svg id="svg-c2-s3" version="1.1" xmlns="http://www.w3.org/2000/svg" xmlns:xlink="http://www.w3.org/1999/xlink" x="0px" y="0px"
	 viewBox="0 0 684 392" style="enable-background:new 0 0 684 392;" xml:space="preserve">
<style type="text/css">
	.c2-s3-st0{fill:#DAEAD3;}
	.c2-s3-st1{clip-path:url(#c2-s3-SVGID_2_);}
	.c2-s3-st2{fill:#FFFFFF;stroke:#7E9FB4;stroke-width:5;stroke-linecap:round;stroke-linejoin:round;}
	.c2-s3-st3{fill:none;stroke:#7E9FB4;stroke-width:5;stroke-linecap:round;stroke-linejoin:round;}
	.c2-s3-st4{fill:#FFFFFF;stroke:#7E9FB4;stroke-width:5;stroke-miterlimit:10;}
	.c2-s3-st5{fill:none;stroke:#55555A;stroke-width:5;stroke-miterlimit:10;}
	.c2-s3-st6{fill:#E6F4DF;}
	.c2-s3-st7{clip-path:url(#c2-s3-SVGID_4_);}
	.c2-s3-st8{fill:#FFFFFF;stroke:#55555A;stroke-width:5;stroke-linecap:round;stroke-linejoin:round;}
	.c2-s3-st9{fill:none;stroke:#55555A;stroke-width:5;stroke-linecap:round;stroke-linejoin:round;}
	.c2-s3-st10{fill:#FFFFFF;stroke:#73C06B;stroke-width:5;stroke-linecap:round;stroke-linejoin:round;}
	.c2-s3-st11{fill:none;stroke:#73C06B;stroke-width:5;stroke-linecap:round;stroke-linejoin:round;}
</style>
<g id="c2-s3-target">
	<title>illustrations_AW</title>
	<g>
		<circle class="c2-s3-st0" cx="320.9" cy="-338.7" r="134"/>
		<g>
			<defs>
				<circle id="c2-s3-SVGID_1_" cx="320.9" cy="-338.7" r="134"/>
			</defs>
			<clipPath id="c2-s3-SVGID_2_">
				<use xlink:href="#c2-s3-SVGID_1_"  style="overflow:visible;"/>
			</clipPath>
			<g class="c2-s3-st1">
				<g>
					<circle class="c2-s3-st2" cx="325.1" cy="129.7" r="32.8"/>
					<rect x="309.6" y="155.9" class="c2-s3-st2" width="31.1" height="35.3"/>
					<path class="c2-s3-st2" d="M356.9,121.3c1.4,5.2,1.5,10.7,0.2,16c-0.1,0.6-0.3,1.2-0.5,1.7c-5.2,17.4-23.5,27.3-40.8,22.1
						c-17-5.1-26.9-22.7-22.4-39.9"/>
					<path class="c2-s3-st3" d="M317.9,161.8c-8.7-2-16.3-7.4-20.9-15.1"/>
					<path class="c2-s3-st2" d="M318.4,199.6h-51.9v-11.6c0-11.8,10.9-12,10.9-12H304c12.5,5.8,25.4,6.8,43.9-0.1l0.1-0.1h24.9
						c0,0,10.9,0.2,10.9,11.9v11.8L318.4,199.6L318.4,199.6z"/>
					<g>
						<path class="c2-s3-st4" d="M299.7,165c-1.5,3.5-3.1,7.1-4.6,10.6c9.5,4.1,19.7,6.2,30,6.2l-6.9-11.9
							C311.8,169.2,305.6,167.6,299.7,165z M350.6,165c-5.9,2.6-12.2,4.2-18.6,4.9l-6.9,11.9c10.3,0,20.6-2.1,30-6.2
							C353.6,172.1,352.1,168.5,350.6,165z"/>
						<path class="c2-s3-st3" d="M299.7,165c-1.5,3.5-3.1,7.1-4.6,10.6c9.5,4.1,19.7,6.2,30,6.2l-6.9-11.9
							C311.8,169.2,305.6,167.6,299.7,165z M350.6,165c-5.9,2.6-12.2,4.2-18.6,4.9l-6.9,11.9c10.3,0,20.6-2.1,30-6.2
							C353.6,172.1,352.1,168.5,350.6,165z"/>
					</g>
					<path class="c2-s3-st3" d="M352.6,169.6c-0.7-1.5-1.3-3.1-2-4.6c-5.2,2.3-10.8,3.8-16.4,4.6"/>
					<path class="c2-s3-st4" d="M324.7,101.6c10.3-0.1,16.8,2,25.1,5.5c-2.6-6.8-4.9-10.2-6.8-10.2l-23.1-3.8c-3,0-10.8-3-13.3-3.2
						l-6.9,17.6C307.8,104,314.6,101.7,324.7,101.6z"/>
				</g>
			</g>
		</g>
		<circle class="c2-s3-st5" cx="320.9" cy="-338.7" r="134"/>
	</g>
	<g>
		<circle class="c2-s3-st6" cx="342" cy="183.5" r="156.9"/>
		<circle class="c2-s3-st0" cx="342" cy="183.5" r="141"/>
		<g>
			<circle class="c2-s3-st6" cx="342" cy="184.7" r="120.7"/>
			<g>
				<defs>
					<circle id="c2-s3-SVGID_3_" cx="342" cy="184.7" r="120.7"/>
				</defs>
				<clipPath id="c2-s3-SVGID_4_">
					<use xlink:href="#c2-s3-SVGID_3_"  style="overflow:visible;"/>
				</clipPath>
				<g class="c2-s3-st7">
					<g>
						<circle class="c2-s3-st2" cx="344.3" cy="109.8" r="29.6"/>
						<rect x="330.2" y="133.4" class="c2-s3-st2" width="28" height="31.8"/>
						<path class="c2-s3-st2" d="M372.8,102.2c1.2,4.7,1.3,9.7,0.2,14.4c-0.1,0.5-0.3,1-0.4,1.6c-4.6,15.7-21.1,24.6-36.8,20
							c-15.4-4.6-24.3-20.5-20.2-36"/>
						<path class="c2-s3-st3" d="M337.8,138.6c-7.9-1.8-14.7-6.7-18.9-13.6"/>
						<path class="c2-s3-st2" d="M338.2,172.7h-46.8v-10.5c0-10.6,9.8-10.8,9.8-10.8h23.9c11.3,5.3,22.9,6.1,39.6-0.1l0.1-0.1h22.4
							c0,0,9.8,0.2,9.8,10.8v10.6H338.2z"/>
						<g>
							<path class="c2-s3-st4" d="M321.3,141.6l-4.1,9.5c8.5,3.7,17.8,5.6,27.1,5.6l-6.2-10.7C332.3,145.4,326.6,143.9,321.3,141.6z
								 M367.2,141.6c-5.3,2.3-11,3.8-16.7,4.4l-6.2,10.7c9.3,0,18.5-1.9,27.1-5.6C369.9,147.9,368.6,144.7,367.2,141.6L367.2,141.6
								z"/>
							<path class="c2-s3-st3" d="M321.3,141.6l-4.1,9.5c8.5,3.7,17.8,5.6,27.1,5.6l-6.2-10.7C332.3,145.4,326.6,143.9,321.3,141.6z
								 M367.2,141.6c-5.3,2.3-11,3.8-16.7,4.4l-6.2,10.7c9.3,0,18.5-1.9,27.1-5.6C369.9,147.9,368.6,144.7,367.2,141.6L367.2,141.6
								z"/>
						</g>
						<path class="c2-s3-st3" d="M369,145.7c-0.6-1.4-1.2-2.8-1.8-4.2c-4.7,2-9.7,3.4-14.8,4.2"/>
						<path class="c2-s3-st4" d="M343.9,84.5c9.3-0.1,15.2,1.8,22.6,5c-2.3-6.1-4.4-9.2-6.2-9.2l-20.8-3.4c-2.7,0-9.7-2.7-12-2.9
							l-6.2,15.9C328.6,86.6,334.8,84.5,343.9,84.5z"/>
					</g>
					<g>
						<rect x="259.2" y="206.8" class="c2-s3-st2" width="26.7" height="30.3"/>
						<path class="c2-s3-st2" d="M322.9,241.1v-14.4c0-10.1-9.3-10.3-9.3-10.3h-21.4l-18.9,18.4l-18.9-18.3h-22.8c0,0-9.3,0.2-9.3,10.3
							v14.2h99.2"/>
						<path class="c2-s3-st2" d="M322.9,233v-6.3c0-10.1-9.3-10.3-9.3-10.3H310"/>

							<ellipse transform="matrix(0.3778 -0.9259 0.9259 0.3778 -1.0305 367.0815)" class="c2-s3-st2" cx="272.6" cy="184.3" rx="28.2" ry="28.2"/>
						<path class="c2-s3-st2" d="M272.7,147.9c-41.9,0-39.2,61.9-24.2,96.8h10.9v-35.6c-3.8-2.3-14.8-9.4-14.8-24.8c0-7,8-11,17.5-14.3
							c14.8,19.1,33.4,18,38.6,17.7c-0.7,10-9.2,19-14.6,21.4v35.6h10.9C311.9,209.8,314.6,147.9,272.7,147.9z"/>
						<path class="c2-s3-st3" d="M272.7,147.9c-11.2,0-19.2,4.2-24.6,11"/>
					</g>
					<g>
						<rect x="399.4" y="183.6" class="c2-s3-st2" width="26.7" height="30.3"/>
						<path class="c2-s3-st2" d="M463,217.9v-14.4c0-10.1-9.3-10.3-9.3-10.3h-21.4l-18.9,18.4l-18.9-18.3h-22.8c0,0-9.3,0.2-9.3,10.3v14.2
							L463,217.9z"/>
						<polyline class="c2-s3-st3" points="436.3,193.2 432.3,193.2 413.5,211.6 394.6,193.4 389.2,193.4 						"/>
						<path class="c2-s3-st2" d="M431.9,180c1.4-1,4-0.7,5.2-2s1.1-3.9,2.1-5.4s3.6-1.9,4.4-3.6s-0.2-4.1,0.4-5.8c0.6-1.7,2.8-3,3.1-4.9
							c0.3-1.8-1.4-3.8-1.4-5.7s1.7-3.9,1.4-5.7c-0.3-1.8-2.5-3.1-3.1-4.9c-0.6-1.8,0.4-4.2-0.4-5.8s-3.3-2.1-4.4-3.6
							s-0.9-4.1-2.1-5.4c-1.3-1.3-3.8-0.9-5.2-2s-2-3.7-3.6-4.5c-1.6-0.8-3.9,0.3-5.5-0.2c-1.6-0.5-2.9-2.8-4.7-3.1
							c-1.7-0.3-3.6,1.5-5.4,1.5s-3.7-1.8-5.4-1.5c-1.7,0.3-3,2.6-4.7,3.1c-1.7,0.5-4-0.6-5.5,0.2c-1.6,0.8-2.2,3.4-3.6,4.5
							s-4,0.7-5.2,2c-1.3,1.3-1.1,3.9-2.1,5.4s-3.6,1.9-4.4,3.6s0.2,4.1-0.4,5.8c-0.6,1.7-2.8,3-3.1,4.9c-0.3,1.8,1.4,3.8,1.4,5.7
							s-1.7,3.9-1.4,5.7c0.3,1.8,2.5,3.1,3.1,4.9c0.6,1.8-0.4,4.2,0.4,5.8s3.3,2.1,4.4,3.6s0.9,4.1,2.1,5.4s3.8,0.9,5.2,2"/>
						<path class="c2-s3-st3" d="M418.1,117.6c-1.7-0.3-3.6,1.5-5.4,1.5s-3.7-1.8-5.4-1.5c-1.7,0.3-3,2.6-4.7,3.1c-1.7,0.5-4-0.6-5.5,0.2
							c-1.6,0.8-2.2,3.4-3.6,4.5s-4,0.7-5.2,2c-1.3,1.3-1.1,3.9-2.1,5.4s-3.6,1.9-4.4,3.6"/>
						<path class="c2-s3-st2" d="M388.4,150c-6.2,13.3-0.5,29.2,12.8,35.4s29.2,0.5,35.4-12.8c3.6-7.8,3.3-16.8-0.9-24.3"/>
						<path class="c2-s3-st3" d="M388.3,150c1.8,0,3.7,1.3,5.4,1.1c1.7-0.2,3-1.9,4.7-2.3c1.7-0.4,4,0.4,5.5-0.1c1.6-0.6,2.2-2.5,3.6-3.2
							s4-0.5,5.2-1.4s1.1-2.9,2.1-3.9"/>
						<path class="c2-s3-st3" d="M435.7,148.3c-1.3-1-1.6-3-3-3.8c-1.5-0.8-3.9-0.3-5.5-0.9c-1.6-0.6-2.6-2.5-4.3-2.9
							c-1.7-0.4-3.7,0.6-5.5,0.3c-0.9-0.2-1.8-0.5-2.6-1"/>
					</g>
					<g>
						<path class="c2-s3-st3" d="M372.8,213c0,4-4.9,15.8-15.1,22l-1.8-2c-1.3-1.4-3-2.2-4.9-2.2h-13.5c-1.9,0-3.7,0.8-4.9,2.2l-1.8,2
							c-10.2-6.2-15.1-18.1-15.1-22c-0.7,2.5-1,5-1,7.6"/>
						<polyline class="c2-s3-st2" points="330.2,247 330.2,276 358.3,276 358.3,247 						"/>
						<path class="c2-s3-st2" d="M352.3,280.2h-60.8v-14.9c0-10.6,9.8-10.8,9.8-10.8h23.9l19.8,19.2l19.8-19.3h22.4c0,0,9.8,0.2,9.8,10.8
							v15.1L352.3,280.2z"/>
						<path class="c2-s3-st2" d="M315.9,229c-0.8-2.7-1.2-5.6-1.2-8.4c0-2.6,0.3-5.1,1-7.6c4.2-15.8,20.5-25.2,36.3-20.9
							c3.4,0.9,6.7,2.4,9.5,4.5c1.3,0.9,2.6,2,3.7,3.1c5.5,5.6,8.7,13.1,8.7,20.9c0,2.3-0.3,4.6-0.8,6.8c-0.1,0.5-0.3,1-0.4,1.6
							c-4.7,15.7-21.1,24.6-36.8,20c-0.1,0-0.2-0.1-0.3-0.1"/>
						<path class="c2-s3-st2" d="M315.9,229c2.8,9.5,10.2,16.9,19.6,19.9"/>
						<path class="c2-s3-st2" d="M355.4,200.5c0,0,3.5-2.5,2.9-5.9s-1.7-7.5-14-7.5c-20.1,0-32.7,20.5-31.9,30.6c2.2-3.2,8.7-8.3,9.3-8.8
							c0.1,1.6,0.6,3.2,1.4,4.6c1.1-1.5,2.3-2.9,3.6-4.2C335.5,201.3,355.4,200.5,355.4,200.5z"/>
					</g>
				</g>
			</g>
		</g>
	</g>
	<!-- <path class="c2-s3-st6" d="M302.7,207.5l-17.4-2.6l-8.8-11.8v0l-35-47.3c1.7-0.3,3.3-1,4.7-2l0,0c4.9-3.6,6-10.5,2.4-15.4
		c0,0,0,0-0.1-0.1c-0.2-0.3-0.5-0.7-0.8-1c-1.8-2.1-4.4-3.4-8-4.2c-0.1,0-0.1,0-0.2,0c-0.4-0.1-0.8-0.2-1.3-0.2
		c-0.1,0-0.2,0-0.3-0.1c-0.4-0.1-0.8-0.1-1.3-0.2c-0.2,0-0.3,0-0.5-0.1c-0.4,0-0.7-0.1-1.1-0.1c-0.2,0-0.5,0-0.7-0.1
		c-0.3,0-0.7,0-1-0.1s-0.6,0-1-0.1c-0.3,0-0.6,0-0.9,0c-0.4,0-0.8,0-1.2,0c-0.3,0-0.6,0-0.9,0c-0.5,0-0.9,0-1.4,0
		c-0.3,0-0.6,0-0.8,0c-0.5,0-1,0-1.6,0c-0.3,0-0.5,0-0.8,0c-0.6,0-1.1,0-1.7,0h-0.1c-0.6,0-1.2,0.2-1.7,0.6l-0.1,0.1l-0.1,0.1
		c-0.2,0.1-0.3,0.3-0.4,0.4c-0.2,0.2-0.4,0.5-0.5,0.8c0,0,0,0.1,0,0.1l0,0.1v0c-0.2,0.6-0.4,1.3-0.6,1.9c0,0.2-0.1,0.3-0.1,0.5
		c-0.2,0.5-0.3,1.1-0.5,1.6c-0.1,0.2-0.1,0.5-0.2,0.7c-0.1,0.5-0.3,0.9-0.4,1.4c-0.1,0.3-0.2,0.5-0.2,0.8c-0.1,0.4-0.2,0.8-0.3,1.2
		c-0.1,0.3-0.2,0.6-0.2,0.8c-0.1,0.4-0.2,0.7-0.3,1.1c-0.1,0.3-0.1,0.6-0.2,0.8c-0.1,0.4-0.2,0.7-0.2,1.1c0,0.2-0.1,0.5-0.1,0.7
		c-0.1,0.4-0.1,0.7-0.2,1.1c0,0.2-0.1,0.4-0.1,0.7c-0.1,0.4-0.1,0.7-0.1,1c0,0.2-0.1,0.4-0.1,0.6c0,0.4,0,0.7-0.1,1
		c0,0.2,0,0.3,0,0.5c0,0.4,0,0.7,0,1c0,0.1,0,0.3,0,0.4c0,0.4,0.1,0.7,0.1,1c0,0.1,0,0.2,0,0.3c0,0.3,0.1,0.7,0.2,1
		c0,0.1,0,0.2,0.1,0.3c0.1,0.3,0.2,0.7,0.3,1c0,0.1,0,0.2,0.1,0.2c0.1,0.4,0.3,0.7,0.4,1.1c0,0,0,0,0,0.1c0.2,0.3,0.4,0.7,0.6,1
		c0,0,0,0,0,0.1c0.2,0.3,0.5,0.7,0.7,1l0,0c3.7,4.9,10.6,5.9,15.5,2.3l0,0c1.4-1,2.5-2.3,3.3-3.9l43.8,59.1l-2.6,17.5
		c-0.1,0.7,0.1,1.3,0.5,1.9l9.3,12.6l0,0l9.3,12.6c0.8,1.1,2.4,1.3,3.5,0.5c0.5-0.4,0.9-1,1-1.6l2.4-16l16,2.4
		c1.4,0.2,2.6-0.7,2.8-2.1c0.1-0.7-0.1-1.3-0.5-1.9l-18.7-25.2C304,207.9,303.4,207.6,302.7,207.5z"/> -->
	<!-- <path class="c2-s3-st6" d="M515.8,165.1l-17.4-2.6l-8.8-11.8v0l-35-47.3c1.7-0.3,3.3-1,4.7-2l0,0c4.9-3.6,6-10.5,2.4-15.5
		c0,0,0,0-0.1-0.1c-0.2-0.3-0.5-0.7-0.8-1c-1.8-2.1-4.4-3.4-8-4.2c-0.1,0-0.1,0-0.2,0c-0.4-0.1-0.8-0.2-1.3-0.2
		c-0.1,0-0.2,0-0.3-0.1c-0.4-0.1-0.8-0.1-1.3-0.2c-0.2,0-0.3,0-0.5-0.1c-0.4,0-0.7-0.1-1.1-0.1c-0.2,0-0.5,0-0.7-0.1
		c-0.3,0-0.7,0-1-0.1s-0.6,0-1-0.1c-0.3,0-0.6,0-0.9,0c-0.4,0-0.8,0-1.2,0c-0.3,0-0.6,0-0.9,0c-0.5,0-0.9,0-1.4,0
		c-0.3,0-0.6,0-0.8,0c-0.5,0-1,0-1.6,0c-0.3,0-0.5,0-0.8,0c-0.6,0-1.1,0-1.7,0h-0.1c-0.6,0-1.2,0.2-1.7,0.6l-0.1,0.1l-0.1,0.1
		c-0.2,0.1-0.3,0.3-0.4,0.4c-0.2,0.2-0.4,0.5-0.5,0.8c0,0,0,0.1,0,0.1l0,0.1v0c-0.2,0.6-0.4,1.3-0.6,1.9c0,0.2-0.1,0.3-0.1,0.5
		c-0.2,0.5-0.3,1.1-0.5,1.6c-0.1,0.2-0.1,0.5-0.2,0.7c-0.1,0.5-0.3,0.9-0.4,1.4c-0.1,0.3-0.2,0.5-0.2,0.8c-0.1,0.4-0.2,0.8-0.3,1.2
		c-0.1,0.3-0.2,0.6-0.2,0.8c-0.1,0.4-0.2,0.7-0.3,1.1c-0.1,0.3-0.1,0.6-0.2,0.8c-0.1,0.4-0.2,0.7-0.2,1.1c0,0.2-0.1,0.5-0.1,0.7
		c-0.1,0.4-0.1,0.7-0.2,1.1c0,0.2-0.1,0.4-0.1,0.7c-0.1,0.4-0.1,0.7-0.1,1c0,0.2-0.1,0.4-0.1,0.6c0,0.4,0,0.7-0.1,1
		c0,0.2,0,0.3,0,0.5c0,0.4,0,0.7,0,1c0,0.1,0,0.3,0,0.4c0,0.4,0.1,0.7,0.1,1c0,0.1,0,0.2,0,0.3c0,0.3,0.1,0.7,0.2,1
		c0,0.1,0,0.2,0,0.3c0.1,0.3,0.2,0.7,0.3,1c0,0.1,0,0.2,0.1,0.2c0.1,0.4,0.3,0.7,0.4,1.1c0,0,0,0,0,0.1c0.2,0.3,0.4,0.7,0.6,1
		c0,0,0,0,0,0.1c0.2,0.3,0.5,0.7,0.7,1l0,0c3.7,4.9,10.6,5.9,15.5,2.3l0,0c1.4-1,2.5-2.3,3.3-3.8l43.8,59.1l-2.6,17.5
		c-0.1,0.7,0.1,1.3,0.5,1.9l9.3,12.6l0,0L511,210c0.8,1.1,2.4,1.3,3.5,0.5c0.5-0.4,0.9-1,1-1.6l2.4-16l16,2.4
		c1.4,0.2,2.6-0.7,2.8-2.1c0.1-0.7-0.1-1.3-0.5-1.9l-18.7-25.2C517.1,165.6,516.5,165.2,515.8,165.1z"/> -->
	<g>
		<path class="c2-s3-st8" d="M221.7,122.8c0.5-14.8-0.7-20.4-4.7-23.3c-3.8-2.9-9.2-2.1-12.1,1.7c-1.8,2.4-2.3,5.6-1.1,8.4
			c-3-0.3-6,1-7.8,3.4c-2.9,3.8-2.2,9.2,1.6,12.1c0,0,0,0,0.1,0.1c3.8,3.1,9.6,2.7,23.7-1.9c0.1,0,0.1-0.1,0.2-0.1l0.1-0.2"/>
		<polyline class="c2-s3-st9" points="139.9,61.3 137.3,42.9 112.3,23.9 114.8,42.4 		"/>
		<line class="c2-s3-st9" x1="124.8" y1="33.4" x2="127.3" y2="51.8"/>
		<polyline class="c2-s3-st9" points="139.8,61.3 121.4,63.9 96.4,45 114.8,42.4 		"/>
		<line class="c2-s3-st9" x1="108.9" y1="54.4" x2="127.3" y2="51.8"/>
		<line class="c2-s3-st9" x1="203.1" y1="109.1" x2="114.4" y2="42.1"/>
		<path class="c2-s3-st10" d="M217,99.5c-3.8-2.9-9.2-2.1-12.1,1.7c-1.8,2.4-2.3,5.6-1.1,8.4c-3-0.3-6,1-7.8,3.4
			c-2.9,3.8-2.2,9.2,1.6,12.1c0,0,0,0,0.1,0.1c3.8,3.1,9.6,2.7,23.7-1.9c0.1,0,0.2-0.2,0.2-0.2s0.2-0.2,0.1-0.3
			C222.2,108,221.1,102.3,217,99.5z"/>
		<line class="c2-s3-st11" x1="203.1" y1="109.1" x2="152.4" y2="70.8"/>
		<circle cx="152.4" cy="70.8" r="2.5"/>
	</g>
	<g>
		<path class="c2-s3-st8" d="M435.5,82.1c13.1,6.8,18.7,8.3,23,5.8c4.3-2.2,5.9-7.4,3.7-11.7c-1.4-2.7-4.1-4.5-7.1-4.7
			c1.6-2.6,1.7-5.8,0.3-8.5c-2.2-4.2-7.3-5.9-11.6-3.8c0,0-0.1,0-0.1,0c-4.5,2.1-6.6,7.5-8.6,22.2c0,0.1,0,0.1,0,0.2l0.1,0.2"/>
		<polyline class="c2-s3-st9" points="526.4,35 544.1,40.7 572,26.3 554.3,20.6 		"/>
		<line class="c2-s3-st9" x1="558.1" y1="33.5" x2="540.3" y2="27.8"/>
		<polyline class="c2-s3-st9" points="526.3,35 532,17.3 560,2.9 554.3,20.6 		"/>
		<line class="c2-s3-st9" x1="546" y1="10.1" x2="540.3" y2="27.8"/>
		<line class="c2-s3-st9" x1="455.9" y1="71.2" x2="554.7" y2="20.4"/>
		<path class="c2-s3-st10" d="M458.5,88c4.3-2.2,5.9-7.4,3.7-11.7c-1.4-2.7-4.1-4.5-7.1-4.7c1.6-2.6,1.7-5.8,0.3-8.5
			c-2.2-4.2-7.3-5.9-11.6-3.8c0,0-0.1,0-0.1,0c-4.5,2.1-6.6,7.5-8.6,22.2c0,0.1,0.1,0.3,0.1,0.3s0.1,0.2,0.2,0.2
			C448.6,89,454.2,90.4,458.5,88z"/>
		<line class="c2-s3-st11" x1="455.9" y1="71.2" x2="512.3" y2="42.2"/>
		<circle cx="512.3" cy="42.2" r="2.5"/>
	</g>
</g>
<!-- <g id="c2-s3-arrow-1-s" >
	<path class="c2-s3-st6" d="M232.7,284.2l-17.4-2.3l-8.9-11.7l0,0l-35.8-46.7c1.7-0.3,3.3-1,4.6-2.1l0,0c4.9-3.7,5.9-10.6,2.2-15.5
		c0,0,0,0-0.1-0.1c-0.2-0.3-0.5-0.7-0.8-1c-1.9-2.1-4.5-3.3-8-4c-0.1,0-0.1,0-0.2,0c-0.4-0.1-0.8-0.1-1.3-0.2c-0.1,0-0.2,0-0.3-0.1
		c-0.4-0.1-0.8-0.1-1.3-0.1c-0.2,0-0.3,0-0.5-0.1c-0.4,0-0.7-0.1-1.1-0.1c-0.2,0-0.5,0-0.7-0.1c-0.3,0-0.7,0-1,0s-0.6,0-1,0
		c-0.3,0-0.6,0-0.9,0c-0.4,0-0.8,0-1.2,0c-0.3,0-0.6,0-0.9,0c-0.5,0-0.9,0-1.4,0c-0.3,0-0.6,0-0.8,0c-0.5,0-1,0-1.6,0
		c-0.3,0-0.5,0-0.8,0c-0.6,0-1.1,0-1.7,0.1h-0.1c-0.6,0-1.2,0.2-1.7,0.6l-0.1,0.1L150,201c-0.2,0.1-0.3,0.3-0.4,0.4
		c-0.2,0.2-0.4,0.5-0.5,0.8c0,0,0,0.1,0,0.1l0,0.1v0c-0.2,0.6-0.4,1.3-0.6,1.9c0,0.2-0.1,0.3-0.1,0.5c-0.2,0.5-0.3,1.1-0.5,1.6
		c-0.1,0.2-0.1,0.5-0.2,0.7c-0.1,0.5-0.3,0.9-0.4,1.4c-0.1,0.3-0.1,0.5-0.2,0.8c-0.1,0.4-0.2,0.8-0.3,1.2c-0.1,0.3-0.1,0.6-0.2,0.8
		c-0.1,0.4-0.2,0.7-0.3,1.1c-0.1,0.3-0.1,0.6-0.2,0.8c-0.1,0.4-0.1,0.7-0.2,1.1c0,0.2-0.1,0.5-0.1,0.7c-0.1,0.4-0.1,0.7-0.2,1.1
		c0,0.2-0.1,0.4-0.1,0.7c0,0.4-0.1,0.7-0.1,1c0,0.2,0,0.4-0.1,0.6c0,0.4,0,0.7,0,1c0,0.2,0,0.3,0,0.5c0,0.4,0,0.7,0,1
		c0,0.1,0,0.3,0,0.4c0,0.4,0.1,0.7,0.1,1c0,0.1,0,0.2,0,0.3c0.1,0.3,0.1,0.7,0.2,1c0,0.1,0,0.2,0.1,0.3c0.1,0.3,0.2,0.7,0.3,1
		c0,0.1,0,0.2,0.1,0.2c0.1,0.4,0.3,0.7,0.5,1.1c0,0,0,0,0,0.1c0.2,0.3,0.4,0.7,0.6,1c0,0,0,0,0,0.1c0.2,0.3,0.5,0.7,0.7,1l0,0
		c3.8,4.8,10.7,5.7,15.6,2l0,0c1.4-1,2.5-2.4,3.2-3.9l44.7,58.4l-2.3,17.5c-0.1,0.7,0.1,1.3,0.5,1.9l9.5,12.5v0l9.5,12.5
		c0.8,1.1,2.4,1.3,3.5,0.5c0.5-0.4,0.9-1,1-1.7l2.1-16l16,2.1c1.4,0.2,2.6-0.8,2.8-2.1c0.1-0.7-0.1-1.3-0.5-1.9l-19.1-24.9
		C233.9,284.6,233.3,284.3,232.7,284.2z"/>
</g> -->
<g id="c2-s3-arrow-1">
	<g>
		<path class="c2-s3-st8" d="M149.6,199.8c-11.1-9.7-16.2-12.4-21-11.1c-4.6,1.1-7.5,5.8-6.4,10.5c0.7,3,2.9,5.3,5.8,6.2
			c-2.1,2.2-3,5.3-2.3,8.2c1.1,4.6,5.7,7.5,10.4,6.4c0,0,0.1,0,0.1,0c4.8-1,8.1-5.7,13.6-19.6c0-0.1,0-0.1,0-0.2l-0.1-0.2"/>
		<polyline class="c2-s3-st9" points="50.2,224.3 34.3,214.6 3.8,222 19.7,231.7 		"/>
		<line class="c2-s3-st9" x1="19.1" y1="218.3" x2="35" y2="228"/>
		<polyline class="c2-s3-st9" points="50.2,224.3 40.5,240.2 10,247.6 19.7,231.7 		"/>
		<line class="c2-s3-st9" x1="25.3" y1="243.9" x2="35" y2="228"/>
		<line class="c2-s3-st9" x1="127.2" y1="205.6" x2="19.2" y2="231.8"/>
		<path class="c2-s3-st10" d="M128.7,188.7c-4.6,1.1-7.5,5.8-6.4,10.5c0.7,3,2.9,5.3,5.8,6.2c-2.1,2.2-3,5.3-2.3,8.2
			c1.1,4.6,5.7,7.5,10.4,6.4c0,0,0.1,0,0.1,0c4.8-1,8.1-5.7,13.6-19.6c0-0.1,0-0.3,0-0.3s-0.1-0.2-0.1-0.3
			C138.5,190.1,133.4,187.4,128.7,188.7z"/>
		<line class="c2-s3-st11" x1="127.2" y1="205.6" x2="65.6" y2="220.6"/>
		<circle cx="65.6" cy="220.6" r="2.5"/>
	</g>
</g>
<!-- <g id="c2-s3-arrow-2-s">
	<path class="c2-s3-st6" d="M233.7,343.7l-17.4-2.3l-8.9-11.7l0,0l-35.8-46.7c1.7-0.3,3.3-1,4.6-2.1l0,0c4.9-3.7,5.9-10.6,2.2-15.5
		c0,0,0,0-0.1-0.1c-0.2-0.3-0.5-0.7-0.8-1c-1.9-2.1-4.5-3.3-8-4c-0.1,0-0.1,0-0.2,0c-0.4-0.1-0.8-0.1-1.3-0.2c-0.1,0-0.2,0-0.3-0.1
		c-0.4-0.1-0.8-0.1-1.3-0.1c-0.2,0-0.3,0-0.5-0.1c-0.4,0-0.7-0.1-1.1-0.1c-0.2,0-0.5,0-0.7-0.1c-0.3,0-0.7,0-1,0s-0.6,0-1,0
		c-0.3,0-0.6,0-0.9,0c-0.4,0-0.8,0-1.2,0c-0.3,0-0.6,0-0.9,0c-0.5,0-0.9,0-1.4,0c-0.3,0-0.6,0-0.8,0c-0.5,0-1,0-1.6,0
		c-0.3,0-0.5,0-0.8,0c-0.6,0-1.1,0-1.7,0.1h0h0c-0.6,0-1.2,0.2-1.7,0.6l-0.1,0.1l-0.1,0.1c-0.2,0.1-0.3,0.3-0.4,0.4
		c-0.2,0.2-0.4,0.5-0.5,0.8c0,0,0,0.1,0,0.1l0,0.1v0c-0.2,0.6-0.4,1.3-0.6,1.9c0,0.2-0.1,0.3-0.1,0.5c-0.2,0.5-0.3,1.1-0.5,1.6
		c-0.1,0.2-0.1,0.5-0.2,0.7c-0.1,0.5-0.3,0.9-0.4,1.4c-0.1,0.3-0.1,0.5-0.2,0.8c-0.1,0.4-0.2,0.8-0.3,1.2c-0.1,0.3-0.1,0.6-0.2,0.8
		c-0.1,0.4-0.2,0.7-0.3,1.1c-0.1,0.3-0.1,0.6-0.2,0.8c-0.1,0.4-0.1,0.7-0.2,1.1c0,0.2-0.1,0.5-0.1,0.7c-0.1,0.4-0.1,0.7-0.2,1.1
		c0,0.2-0.1,0.4-0.1,0.7c0,0.4-0.1,0.7-0.1,1c0,0.2,0,0.4-0.1,0.6c0,0.4,0,0.7,0,1c0,0.2,0,0.3,0,0.5c0,0.4,0,0.7,0,1
		c0,0.1,0,0.3,0,0.4c0,0.4,0.1,0.7,0.1,1c0,0.1,0,0.2,0,0.3c0.1,0.3,0.1,0.7,0.2,1c0,0.1,0,0.2,0.1,0.3c0.1,0.3,0.2,0.7,0.3,1
		c0,0.1,0,0.2,0.1,0.2c0.1,0.4,0.3,0.7,0.5,1.1c0,0,0,0,0,0.1c0.2,0.3,0.4,0.7,0.6,1c0,0,0,0,0,0.1c0.2,0.3,0.5,0.7,0.7,1l0,0
		c3.8,4.8,10.7,5.7,15.6,2l0,0c1.4-1,2.5-2.4,3.2-3.9l44.7,58.4l-2.3,17.5c-0.1,0.7,0.1,1.3,0.5,1.8l9.5,12.5l0,0l9.5,12.5
		c0.8,1.1,2.4,1.3,3.5,0.5c0.5-0.4,0.9-1,1-1.7l2.1-16l16,2.1c1.4,0.2,2.6-0.8,2.8-2.1c0.1-0.7-0.1-1.3-0.5-1.9l-19.1-24.9
		C234.9,344.1,234.3,343.8,233.7,343.7z"/>
</g> -->
<g id="c2-s3-arrow-2">
	<g>
		<path class="c2-s3-st8" d="M151.1,260.4c-14.6-2-20.4-1.4-23.6,2.3c-3.2,3.5-3,9,0.5,12.2c2.2,2.1,5.4,2.8,8.3,2c-0.6,3,0.4,6.1,2.6,8.1
			c3.5,3.3,8.9,3.1,12.2-0.4c0,0,0,0,0.1-0.1c3.5-3.5,3.6-9.3,0.5-23.8c0-0.1,0-0.1-0.1-0.2l-0.2-0.2"/>
		<polyline class="c2-s3-st9" points="81.7,335.7 63.1,336.4 41.7,359.4 60.4,358.7 		"/>
		<line class="c2-s3-st9" x1="52.4" y1="347.9" x2="71.1" y2="347.2"/>
		<polyline class="c2-s3-st9" points="81.8,335.7 82.4,354.3 61.1,377.3 60.4,358.7 		"/>
		<line class="c2-s3-st9" x1="71.8" y1="365.8" x2="71.1" y2="347.2"/>
		<line class="c2-s3-st9" x1="135.7" y1="277.6" x2="60.1" y2="359.1"/>
		<path class="c2-s3-st10" d="M127.5,262.8c-3.2,3.5-3,9,0.5,12.2c2.2,2.1,5.4,2.8,8.3,2c-0.6,3,0.4,6.1,2.6,8.1c3.5,3.3,8.9,3.1,12.2-0.4
			c0,0,0,0,0.1-0.1c3.5-3.5,3.6-9.3,0.5-23.8c0-0.1-0.2-0.2-0.2-0.2s-0.2-0.2-0.3-0.2C136.5,258.5,130.7,259,127.5,262.8z"/>
		<line class="c2-s3-st11" x1="135.7" y1="277.6" x2="92.5" y2="324.2"/>
		<circle cx="92.5" cy="324.2" r="2.5"/>
	</g>
</g>
<!-- <g id="c2-s3-arrow-3-s" >
	<path class="c2-s3-st6" d="M617.3,328.1l-17.4-2.3l-8.9-11.7v0l-35.8-46.7c1.7-0.3,3.3-1,4.6-2.1l0,0c4.9-4,5.7-11.2,1.7-16.1
		c-0.1-0.1-0.2-0.3-0.3-0.4c-1.9-2.1-4.5-3.3-8-4c-0.1,0-0.1,0-0.2,0c-0.4-0.1-0.8-0.1-1.3-0.2c-0.1,0-0.2,0-0.3-0.1
		c-0.4-0.1-0.8-0.1-1.3-0.1c-0.2,0-0.3,0-0.5-0.1c-0.4,0-0.7-0.1-1.1-0.1c-0.2,0-0.5,0-0.7-0.1c-0.3,0-0.7,0-1,0s-0.6,0-1,0
		c-0.3,0-0.6,0-1,0c-0.4,0-0.8,0-1.2,0c-0.3,0-0.6,0-0.9,0c-0.5,0-0.9,0-1.4,0c-0.3,0-0.6,0-0.8,0c-0.5,0-1,0-1.6,0
		c-0.3,0-0.5,0-0.8,0c-0.6,0-1.1,0-1.7,0.1h-0.1c-0.6,0-1.2,0.2-1.7,0.6l-0.1,0.1l-0.1,0.1c-0.2,0.1-0.3,0.3-0.4,0.4
		c-0.2,0.2-0.4,0.5-0.5,0.8c0,0,0,0.1,0,0.1l0,0.1v0c-0.2,0.6-0.4,1.3-0.6,1.9c0,0.1-0.1,0.3-0.1,0.5c-0.2,0.5-0.3,1.1-0.5,1.6
		c-0.1,0.2-0.1,0.5-0.2,0.7c-0.1,0.5-0.3,0.9-0.4,1.4c-0.1,0.3-0.1,0.5-0.2,0.8c-0.1,0.4-0.2,0.8-0.3,1.2c-0.1,0.3-0.1,0.6-0.2,0.8
		c-0.1,0.4-0.2,0.7-0.3,1.1c-0.1,0.3-0.1,0.6-0.2,0.8c-0.1,0.4-0.1,0.7-0.2,1.1c0,0.2-0.1,0.5-0.1,0.7c-0.1,0.4-0.1,0.7-0.2,1.1
		c0,0.2-0.1,0.4-0.1,0.7c0,0.4-0.1,0.7-0.1,1c0,0.2,0,0.4-0.1,0.6c0,0.4,0,0.7,0,1c0,0.2,0,0.3,0,0.5c0,0.4,0,0.7,0,1
		c0,0.1,0,0.3,0,0.4c0,0.4,0.1,0.7,0.1,1c0,0.1,0,0.2,0,0.3c0,0.3,0.1,0.7,0.2,1c0,0.1,0,0.2,0.1,0.3c0.1,0.3,0.2,0.7,0.3,1
		c0,0.1,0,0.2,0.1,0.2c0.1,0.4,0.3,0.7,0.5,1.1c0,0,0,0,0,0.1c0.2,0.3,0.4,0.7,0.6,1c0,0,0,0,0,0.1c0.2,0.3,0.5,0.7,0.7,1l0,0
		c3.8,4.8,10.7,5.7,15.6,2l0,0c1.4-1,2.5-2.4,3.2-3.9l44.7,58.4l-2.3,17.5c-0.1,0.7,0.1,1.3,0.5,1.8l9.5,12.5l0,0l9.5,12.5
		c0.8,1.1,2.4,1.3,3.5,0.5c0.5-0.4,0.9-1,1-1.7l2.1-16l16,2.1c1.4,0.2,2.6-0.8,2.8-2.1c0.1-0.7-0.1-1.3-0.5-1.9L619,329.1
		C618.6,328.6,618,328.2,617.3,328.1z"/>
</g> -->
<g id="c2-s3-arrow-3">
	<g>
		<path class="c2-s3-st8" d="M536.7,245.9c4.1,14.2,6.9,19.2,11.7,20.7c4.5,1.6,9.5-0.8,11-5.4c1-2.9,0.4-6.1-1.5-8.4
			c3-0.6,5.4-2.8,6.4-5.6c1.6-4.5-0.8-9.4-5.3-11c0,0-0.1,0-0.1,0c-4.6-1.8-9.9,0.4-22,9.1c-0.1,0-0.1,0.1-0.1,0.2l-0.1,0.2"/>
		<polyline class="c2-s3-st9" points="633.6,279.1 641.7,295.9 671.4,306.2 663.2,289.4 		"/>
		<line class="c2-s3-st9" x1="656.5" y1="301" x2="648.4" y2="284.3"/>
		<polyline class="c2-s3-st9" points="633.6,279.1 650.3,271 680,281.3 663.2,289.4 		"/>
		<line class="c2-s3-st9" x1="665.2" y1="276.1" x2="648.4" y2="284.3"/>
		<line class="c2-s3-st9" x1="558.7" y1="253.1" x2="663.7" y2="289.5"/>
		<path class="c2-s3-st10" d="M548.4,266.6c4.5,1.6,9.5-0.8,11-5.4c1-2.9,0.4-6.1-1.5-8.4c3-0.6,5.4-2.8,6.4-5.6c1.6-4.5-0.8-9.4-5.3-11
			c0,0-0.1,0-0.1,0c-4.6-1.8-9.9,0.4-22,9.1c-0.1,0-0.2,0.3-0.2,0.3s-0.1,0.2,0,0.3C540.8,260.1,543.7,265.1,548.4,266.6z"/>
		<line class="c2-s3-st11" x1="558.7" y1="253.1" x2="618.7" y2="273.9"/>
		<circle cx="618.7" cy="273.9" r="2.5"/>
	</g>
</g>
</svg>
