<?xml version="1.0" encoding="utf-8"?>
<svg id="svg-c2-s2" version="1.1" xmlns="http://www.w3.org/2000/svg" xmlns:xlink="http://www.w3.org/1999/xlink" x="0px" y="0px"
	 viewBox="0 0 1440 274" style="enable-background:new 0 0 1440 274;" xml:space="preserve">
<style type="text/css">
	.c2-s2-st0{fill:#E6F4DF;}
	.c2-s2-st1{fill:#DAEAD3;}
	.c2-s2-st2{clip-path:url(#c2-s2-SVGID_2_);}
	.c2-s2-st3{fill:#FFFFFF;stroke:#7E9FB4;stroke-width:5;stroke-linecap:round;stroke-linejoin:round;}
	.c2-s2-st4{fill:none;stroke:#7E9FB4;stroke-width:5;stroke-linecap:round;stroke-linejoin:round;}
	.c2-s2-st5{fill:none;stroke:#7E9FB4;stroke-width:5;stroke-miterlimit:10;}
	.c2-s2-st6{fill:none;stroke:#73C06B;stroke-width:5;stroke-miterlimit:10;}
	.c2-s2-st7{fill:#007D39;}
	.c2-s2-st8{clip-path:url(#c2-s2-SVGID_4_);}
	.c2-s2-st9{fill:#FFFFFF;stroke:#7E9FB4;stroke-width:5;stroke-miterlimit:10;}
	.c2-s2-st10{clip-path:url(#c2-s2-SVGID_6_);}
	.c2-s2-st11{fill:none;stroke:#55555A;stroke-width:5;stroke-miterlimit:10;}
</style>
<g id="c2-s2-c1">
	<ellipse transform="matrix(0.7071 -0.7071 0.7071 0.7071 168.1437 678.4248)" class="c2-s2-st0" cx="903" cy="136.2" rx="134" ry="134"/>
</g>
<g id="c2-s2-c2">
	<circle class="c2-s2-st0" cx="537" cy="137.5" r="134"/>
</g>
<g id="c2-s2-c3">
	<g>
		<g>
			<circle class="c2-s2-st1" cx="354" cy="137.5" r="134"/>
			<g>
				<defs>
					<circle id="c2-s2-SVGID_1_" cx="354" cy="137.5" r="134"/>
				</defs>
				<clipPath id="c2-s2-SVGID_2_">
					<use xlink:href="#c2-s2-SVGID_1_"  style="overflow:visible;"/>
				</clipPath>
				<g class="c2-s2-st2">
					<g>
						<circle class="c2-s2-st3" cx="353.1" cy="30.1" r="16.5"/>
						<g>
							<rect x="339" y="92.2" class="c2-s2-st3" width="29.6" height="33.7"/>
							<path class="c2-s2-st3" d="M409.6,130.3v-16c0-11.2-10.3-11.4-10.3-11.4h-23.7l-21,20.4l-21-20.3h-25.3c0,0-10.3,0.2-10.3,11.4
								v15.8L409.6,130.3z"/>
							<path class="c2-s2-st3" d="M409.6,121.3v-6.9c0-11.2-10.3-11.4-10.3-11.4h-3.9"/>

								<ellipse transform="matrix(0.2246 -0.9745 0.9745 0.2246 208.7439 396.9221)" class="c2-s2-st3" cx="353.8" cy="67.3" rx="31.3" ry="31.3"/>
							<path class="c2-s2-st3" d="M353.9,26.9c-24.3,0-37.5,17.7-37.5,40.3c0,20.1,22.6,27.8,22.6,27.8v-0.2c-4.3-2.6-16.5-10.4-16.5-27.5
								c0-7.8,7.8-18.2,18.4-21.8c28.7-24.7,40.7,17.6,43.9,25.6c-0.8,11.1-10.2,21.1-16.2,23.7V95c0,0,22.8-6.6,22.8-26
								C391.5,45.6,378.8,26.9,353.9,26.9z"/>
						</g>
					</g>
					<g>
						<rect x="416.2" y="134" class="c2-s2-st3" width="29.6" height="33.7"/>
						<path class="c2-s2-st3" d="M486.8,172.1v-16c0-11.2-10.3-11.4-10.3-11.4h-23.7l-21,20.4l-21-20.3h-25.3c0,0-10.3,0.2-10.3,11.4v15.8
							h110.1"/>
						<path class="c2-s2-st3" d="M486.8,163.1v-6.9c0-11.2-10.3-11.4-10.3-11.4h-3.9"/>

							<ellipse transform="matrix(0.2246 -0.9745 0.9745 0.2246 227.8766 504.5637)" class="c2-s2-st3" cx="431" cy="109.1" rx="31.3" ry="31.3"/>
						<path class="c2-s2-st3" d="M431.1,68.7c-46.5,0-43.5,68.7-26.9,107.5h12.1v-39.5c-4.3-2.6-16.5-10.4-16.5-27.5
							c0-7.8,8.9-12.2,19.4-15.8c16.4,21.2,37,19.9,42.9,19.7c-0.8,11.1-10.2,21.1-16.2,23.7v39.5H458
							C474.6,137.3,477.6,68.7,431.1,68.7z"/>
						<path class="c2-s2-st4" d="M431.1,68.7c-12.4,0-21.3,4.7-27.3,12.2"/>
					</g>
					<g>
						<rect x="257.7" y="165.3" class="c2-s2-st3" width="29.6" height="33.7"/>
						<path class="c2-s2-st3" d="M328.3,203.4v-16c0-11.2-10.3-11.4-10.3-11.4h-23.7l-21,20.4l-21-20.3h-25.3c0,0-10.3,0.2-10.3,11.4v15.8
							L328.3,203.4z"/>
						<polyline class="c2-s2-st4" points="298.7,176 294.3,176 273.3,196.4 252.4,176.2 246.4,176.2 						"/>
						<path class="c2-s2-st3" d="M293.8,161.4c1.6-1.2,4.4-0.8,5.8-2.2s1.2-4.4,2.4-6s4-2.2,4.9-4s-0.2-4.5,0.5-6.5
							c0.6-1.9,3.1-3.4,3.4-5.4c0.3-2-1.6-4.2-1.6-6.3s1.9-4.3,1.6-6.3c-0.3-2-2.8-3.5-3.4-5.4c-0.6-1.9,0.5-4.7-0.5-6.5
							s-3.7-2.3-4.9-4s-1-4.6-2.4-6s-4.2-1-5.8-2.2c-1.6-1.2-2.2-4.1-4-4.9c-1.7-0.9-4.3,0.4-6.1-0.2c-1.8-0.6-3.3-3.2-5.2-3.5
							c-1.9-0.3-4,1.7-5.9,1.7s-4.1-2-5.9-1.7c-1.9,0.3-3.4,2.9-5.2,3.5c-1.9,0.6-4.4-0.7-6.1,0.2c-1.8,0.9-2.4,3.8-4,4.9
							c-1.6,1.2-4.4,0.8-5.8,2.2s-1.2,4.4-2.4,6s-4,2.2-4.9,4s0.2,4.5-0.5,6.5c-0.6,1.9-3.1,3.4-3.4,5.4c-0.3,2,1.6,4.2,1.6,6.3
							s-1.9,4.3-1.6,6.3c0.3,2,2.8,3.5,3.4,5.4c0.6,1.9-0.5,4.7,0.5,6.5s3.7,2.3,4.9,4s1,4.6,2.4,6s4.2,1,5.8,2.2"/>
						<path class="c2-s2-st4" d="M278.5,92.1c-1.9-0.3-4,1.7-5.9,1.7s-4.1-2-5.9-1.7c-1.9,0.3-3.4,2.9-5.2,3.5c-1.9,0.6-4.4-0.7-6.1,0.2
							c-1.8,0.9-2.4,3.8-4,4.9c-1.6,1.2-4.4,0.8-5.8,2.2s-1.2,4.4-2.4,6s-4,2.2-4.9,4"/>
						<path class="c2-s2-st3" d="M245.5,128c-6.9,14.8-0.6,32.4,14.2,39.3c14.8,6.9,32.4,0.6,39.3-14.2c4-8.6,3.7-18.6-0.9-26.9"/>
						<path class="c2-s2-st4" d="M245.4,128c2,0,4.1,1.5,5.9,1.2c1.9-0.2,3.4-2.1,5.2-2.5c1.9-0.4,4.4,0.5,6.1-0.2c1.8-0.7,2.4-2.8,4-3.6
							c1.6-0.8,4.4-0.6,5.8-1.6s1.2-3.2,2.4-4.4"/>
						<path class="c2-s2-st4" d="M298,126.2c-1.4-1.1-1.7-3.3-3.4-4.2c-1.6-0.9-4.3-0.3-6.1-1.1c-1.7-0.7-2.9-2.7-4.8-3.2
							c-1.8-0.5-4.1,0.7-6.1,0.4c-1-0.2-2-0.6-2.9-1.1"/>
					</g>
					<g>
						<rect x="339" y="211" class="c2-s2-st3" width="29.6" height="33.7"/>
						<path class="c2-s2-st3" d="M409.6,249.1v-16c0-11.2-10.3-11.4-10.3-11.4h-23.7l-21,20.4l-21-20.3h-25.3c0,0-10.3,0.2-10.3,11.4v15.8
							h110.1"/>
						<path class="c2-s2-st3" d="M409.6,240.1v-6.9c0-11.2-10.3-11.4-10.3-11.4h-3.9"/>

							<ellipse transform="matrix(0.2246 -0.9745 0.9745 0.2246 92.98 489.0442)" class="c2-s2-st3" cx="353.8" cy="186.1" rx="31.3" ry="31.3"/>
						<path class="c2-s2-st3" d="M353.9,145.7c-35.5,0-42.2,29.1-35.9,65.3c1.1,6.6,18.3,7.1,21.1,2.7c-4.3-2.6-16.5-10.4-16.5-27.5
							c0-7.8,8.9-12.2,19.4-15.8c16.4,21.2,37,19.9,42.9,19.7c-0.8,11.1-10.2,21.1-16.2,23.7c0,0.6,19.8,5.2,21.1-2.9
							C396,174.6,389.3,145.7,353.9,145.7z"/>
					</g>
				</g>
			</g>
			<circle class="c2-s2-st5" cx="354" cy="137.5" r="134"/>
		</g>
		<path class="c2-s2-st6" d="M354,3.5c-74,0-134,60-134,134c0,74,60,134,134,134c24.3,0,48.1-6.6,68.9-19.1"/>
		<circle class="c2-s2-st7" cx="423" cy="252.3" r="2.5"/>
		<circle class="c2-s2-st7" cx="354" cy="3.5" r="2.5"/>
	</g>
</g>
<g id="c2-s2-c4">
	<g>
		<g>
			<circle class="c2-s2-st1" cx="1086" cy="137.5" r="134"/>
			<g>
				<defs>
					<circle id="SVGID_3_" cx="1086" cy="137.5" r="134"/>
				</defs>
				<clipPath id="c2-s2-SVGID_4_">
					<use xlink:href="#SVGID_3_"  style="overflow:visible;"/>
				</clipPath>
				<g class="c2-s2-st8">
					<g>
						<rect x="1069.9" y="82.9" class="c2-s2-st3" width="31.1" height="35.3"/>
						<path class="c2-s2-st3" d="M1118.3,56.7c0,2.6-0.3,5.1-0.9,7.6c-0.1,0.6-0.3,1.2-0.5,1.7c-5.1,17.4-23.4,27.3-40.8,22.2
							c-17.4-5.1-27.3-23.4-22.2-40.8c5.1-17.4,23.4-27.3,40.8-22.2c3.5,1,6.8,2.6,9.8,4.8c1.5,1,2.9,2.2,4.1,3.5
							C1114.8,39.7,1118.3,48,1118.3,56.7L1118.3,56.7z"/>
						<path class="c2-s2-st3" d="M1107.9,80.7c4.3-4,7.4-9.1,9.1-14.7c0.2-0.6,0.3-1.2,0.5-1.7c0.3-1.4,0.6-2.8,0.7-4.2
							c0.1-1.1,0.2-2.3,0.2-3.4c0-2.8-0.4-5.7-1.1-8.4c0,4.4-5.4,17.6-16.7,24.4l-2-2.2c-1.4-1.5-3.4-2.4-5.5-2.4h-15
							c-2.1,0-4.1,0.9-5.4,2.4l-2,2.2c-11.3-6.8-16.7-20.1-16.7-24.4c-4.7,17.5,5.8,35.5,23.3,40.2
							C1087.9,91.4,1099.6,88.4,1107.9,80.7L1107.9,80.7z"/>
						<path class="c2-s2-st3" d="M1144,122.9v-16.8c0-11.8-10.9-11.9-10.9-11.9h-24.9l-22,21.5l-22-21.3h-26.6c0,0-10.9,0.2-10.9,12v16.6
							L1144,122.9z"/>
						<polyline class="c2-s2-st3" points="1127.1,94.2 1108.3,94.2 1086.3,115.7 						"/>
						<path class="c2-s2-st3" d="M1054,66.1c3.1,10.5,11.3,18.8,21.8,22.1"/>
						<path class="c2-s2-st3" d="M1097.8,34.4c3.3,2.2,16.4,9.2,21.8,13.9c0-7.1-8.6-25.9-18.8-21.8"/>
						<path class="c2-s2-st3" d="M1097.8,34.4c0,0,3.8-2.7,3.2-6.6s-1.9-8.3-15.6-8.3c-22.3,0-36.3,22.7-35.4,34c2.4-3.5,9.6-9.2,10.3-9.8
							c0.1,1.8,0.6,3.6,1.5,5.1c1.2-1.7,2.5-3.2,4-4.6C1075.8,35.3,1097.8,34.4,1097.8,34.4z"/>
						<path class="c2-s2-st3" d="M1091.7,19.9c-2.1-0.3-4.1-0.4-6.2-0.4c-13.1,0-23.3,7.8-29.3,16.6"/>
					</g>
					<g>
						<path class="c2-s2-st4" d="M1042.4,123c0,4.4-5.4,17.6-16.7,24.4l-2-2.2c-1.4-1.5-3.4-2.4-5.5-2.4h-15c-2.1,0-4.1,0.9-5.4,2.4
							l-2,2.2c-11.3-6.8-16.7-20.1-16.7-24.4c-0.7,2.8-1.1,5.6-1.1,8.5"/>
						<polyline class="c2-s2-st3" points="995.1,160.6 995.1,192.9 1026.2,192.9 1026.2,160.6 						"/>
						<path class="c2-s2-st3" d="M1019.6,197.6h-67.5V181c0-11.8,10.9-12,10.9-12h26.6l22,21.3l22-21.5h24.9c0,0,10.9,0.2,10.9,11.9v16.8
							L1019.6,197.6z"/>
						<path class="c2-s2-st3" d="M979.2,140.7c-5.1-17.4,4.8-35.7,22.2-40.8c9.7-2.9,20.2-1.1,28.4,4.8c1.5,1,2.9,2.2,4.1,3.5
							c6.1,6.2,9.6,14.5,9.6,23.2c0,2.6-0.3,5.1-0.9,7.6c-0.1,0.6-0.3,1.2-0.5,1.7c-5.2,17.4-23.5,27.3-40.9,22.2
							c-0.1,0-0.2-0.1-0.3-0.1"/>
						<path class="c2-s2-st3" d="M979.2,140.7c3.1,10.5,11.3,18.8,21.8,22.1"/>
						<path class="c2-s2-st3" d="M1023,109c0,0,3.8-2.7,3.2-6.6s-1.9-8.3-15.6-8.3c-22.3,0-36.3,22.7-35.4,34c2.4-3.5,9.6-9.2,10.3-9.8
							c0.1,1.8,0.6,3.6,1.5,5.1c1.2-1.7,2.5-3.2,4-4.6C1001,110,1023,109,1023,109z"/>
					</g>
					<g>
						<path class="c2-s2-st3" d="M1106.6,169.4v-16.6c0-11.8,10.9-12,10.9-12h26.6l44-0.2h24.9c0,0,10.9,0.2,10.9,11.9v16.8L1106.6,169.4
							L1106.6,169.4z"/>
						<g>

								<ellipse transform="matrix(0.2233 -0.9747 0.9747 0.2233 804.4333 1215.884)" class="c2-s2-st3" cx="1165.2" cy="103.2" rx="32.8" ry="32.8"/>
							<path class="c2-s2-st3" d="M1198,103.2c0,0.7,0,1.3-0.1,2c0,0.5-0.1,1-0.1,1.4c-0.7,9.3-4,21.6-6.9,30.7c-2.4,7.9-8.3,14.3-16,17.4
								l0,0c-6.2,2.5-13.1,2.6-19.4,0.4l-0.3-0.1c-8.8-3.1-15.4-10.5-17.5-19.7c-2.2-9.4-4.6-21.2-5.3-28.5c0-0.4-0.1-0.8-0.1-1.2
								c-0.1-0.8-0.1-1.6-0.1-2.4c0-1.1,0.1-2.2,0.2-3.3c0.2-1.7,0.5-3.5,0.9-5.1c0.1,1.8,0.5,3.5,1.2,5.1
								c2.1,5.9,7.2,14.3,15.5,19.3l2-2.2c1.4-1.5,3.4-2.4,5.4-2.4h15c2.1,0,4.1,0.9,5.5,2.4l2,2.2c8.3-5,13.4-13.4,15.6-19.3
								c0.7-1.6,1-3.3,1.2-5.1c0.4,1.7,0.7,3.4,0.9,5.1C1197.9,100.9,1198,102,1198,103.2z"/>
						</g>
					</g>
					<g>

							<ellipse transform="matrix(0.2233 -0.9747 0.9747 0.2233 668.9326 1198.0876)" class="c2-s2-st3" cx="1086.3" cy="179.3" rx="32.8" ry="32.8"/>
						<rect x="1070.7" y="205.5" class="c2-s2-st3" width="31.1" height="35.3"/>
						<path class="c2-s2-st3" d="M1118,170.9c1.4,5.2,1.5,10.7,0.2,16c-0.1,0.6-0.3,1.2-0.5,1.7c-5.2,17.4-23.4,27.3-40.8,22.1
							c-17-5.1-27-22.8-22.4-39.9"/>
						<path class="c2-s2-st4" d="M1079.1,211.3c-8.7-2-16.3-7.4-20.9-15.1"/>
						<path class="c2-s2-st3" d="M1079.6,249.1h-51.9v-11.6c0-11.8,10.9-12,10.9-12h26.6c12.5,5.8,25.4,6.8,43.9-0.1l0.1-0.1h24.9
							c0,0,10.9,0.2,10.9,11.9v11.8L1079.6,249.1L1079.6,249.1z"/>
						<g>
							<path class="c2-s2-st9" d="M1060.8,214.6c-1.5,3.5-3.1,7.1-4.6,10.6c9.5,4.1,19.7,6.2,30,6.2l-6.9-11.9
								C1073,218.8,1066.7,217.1,1060.8,214.6z M1111.7,214.6c-5.9,2.6-12.2,4.2-18.6,4.9l-6.9,11.9c10.3,0,20.6-2.1,30-6.2
								L1111.7,214.6z"/>
							<path class="c2-s2-st4" d="M1060.8,214.6c-1.5,3.5-3.1,7.1-4.6,10.6c9.5,4.1,19.7,6.2,30,6.2l-6.9-11.9
								C1073,218.8,1066.7,217.1,1060.8,214.6z M1111.7,214.6c-5.9,2.6-12.2,4.2-18.6,4.9l-6.9,11.9c10.3,0,20.6-2.1,30-6.2
								L1111.7,214.6z"/>
						</g>
						<path class="c2-s2-st4" d="M1113.7,219.2c-0.7-1.5-1.3-3.1-2-4.6c-5.2,2.3-10.8,3.8-16.4,4.6"/>
						<path class="c2-s2-st9" d="M1085.8,151.2c10.3-0.1,16.8,2,25.1,5.5c-2.6-6.8-4.9-10.2-6.8-10.2l-23.1-3.8c-3,0-10.8-3-13.3-3.2
							l-6.9,17.6C1068.9,153.6,1075.7,151.3,1085.8,151.2z"/>
					</g>
				</g>
			</g>
			<circle class="c2-s2-st5" cx="1086" cy="137.5" r="134"/>
		</g>
		<path class="c2-s2-st6" d="M1086,3.5c-74,0-134,60-134,134s60,134,134,134c24.3,0,48.1-6.6,68.9-19.1"/>
		<circle class="c2-s2-st7" cx="1155" cy="252.3" r="2.5"/>
		<circle class="c2-s2-st7" cx="1086" cy="3.5" r="2.5"/>
	</g>
</g>
<g id="c2-s2-c5">
	<g>
		<g>
			<circle class="c2-s2-st1" cx="720" cy="137.5" r="134"/>
			<g>
				<defs>
					<circle id="SVGID_5_" cx="720" cy="137.5" r="134"/>
				</defs>
				<clipPath id="c2-s2-SVGID_6_">
					<use xlink:href="#SVGID_5_"  style="overflow:visible;"/>
				</clipPath>
				<g class="c2-s2-st10">
					<g>
						<circle class="c2-s2-st3" cx="720.2" cy="61.6" r="32.8"/>
						<rect x="704.7" y="87.8" class="c2-s2-st3" width="31.1" height="35.3"/>
						<path class="c2-s2-st3" d="M751.9,53.2c1.4,5.2,1.5,10.7,0.2,16c-0.1,0.6-0.3,1.2-0.5,1.7c-5.2,17.4-23.4,27.3-40.8,22.1
							c-17-5.1-27-22.8-22.4-39.9"/>
						<path class="c2-s2-st4" d="M713,93.7c-8.7-2-16.3-7.4-20.9-15.1"/>
						<path class="c2-s2-st3" d="M713.5,131.5h-51.9v-11.6c0-11.8,10.9-12,10.9-12H699c12.5,5.8,25.4,6.8,43.9-0.1l0.1-0.1H768
							c0,0,10.9,0.2,10.9,11.9v11.8L713.5,131.5L713.5,131.5z"/>
						<g>
							<path class="c2-s2-st9" d="M694.8,96.9c-1.5,3.5-3.1,7.1-4.6,10.6c9.5,4.1,19.7,6.2,30,6.2l-6.9-11.9
								C706.9,101.1,700.7,99.5,694.8,96.9z M745.7,96.9c-5.9,2.6-12.2,4.2-18.6,4.9l-6.9,11.9c10.3,0,20.6-2.1,30-6.2L745.7,96.9z"
								/>
							<path class="c2-s2-st4" d="M694.8,96.9c-1.5,3.5-3.1,7.1-4.6,10.6c9.5,4.1,19.7,6.2,30,6.2l-6.9-11.9
								C706.9,101.1,700.7,99.5,694.8,96.9z M745.7,96.9c-5.9,2.6-12.2,4.2-18.6,4.9l-6.9,11.9c10.3,0,20.6-2.1,30-6.2L745.7,96.9z"
								/>
						</g>
						<path class="c2-s2-st4" d="M747.7,101.6c-0.7-1.5-1.3-3.1-2-4.6c-5.2,2.3-10.8,3.8-16.4,4.6"/>
						<path class="c2-s2-st9" d="M719.8,33.6c10.3-0.1,16.8,2,25.1,5.5c-2.6-6.8-4.9-10.2-6.8-10.2l-23.1-3.8c-2.9-0.5-10.8-2.7-13.3-3.2
							l-6.9,17.6C702.9,35.9,709.7,33.6,719.8,33.6z"/>
					</g>
					<g>
						<rect x="628.2" y="162" class="c2-s2-st3" width="29.6" height="33.7"/>
						<path class="c2-s2-st3" d="M698.8,200.1v-16c0-11.2-10.3-11.4-10.3-11.4h-23.7l-21,20.4l-21-20.3h-25.3c0,0-10.3,0.2-10.3,11.4v15.8
							h110.1"/>
						<path class="c2-s2-st3" d="M698.8,191.1v-6.9c0-11.2-10.3-11.4-10.3-11.4h-3.9"/>

							<ellipse transform="matrix(0.2246 -0.9745 0.9745 0.2246 364.9874 732.8574)" class="c2-s2-st3" cx="643" cy="137.1" rx="31.3" ry="31.3"/>
						<path class="c2-s2-st3" d="M643.1,96.7c-46.5,0-43.5,68.7-26.9,107.5h12.1v-39.5c-4.3-2.6-16.5-10.4-16.5-27.5
							c0-7.8,8.9-12.2,19.4-15.8c16.4,21.2,37,19.9,42.9,19.7c-0.8,11.1-10.2,21.1-16.2,23.7v39.5H670
							C686.6,165.3,689.6,96.7,643.1,96.7z"/>
						<path class="c2-s2-st4" d="M643.1,96.7c-12.4,0-21.3,4.7-27.3,12.2"/>
					</g>
					<g>
						<rect x="783.7" y="136.3" class="c2-s2-st3" width="29.6" height="33.7"/>
						<path class="c2-s2-st3" d="M854.3,174.4v-16c0-11.2-10.3-11.4-10.3-11.4h-23.7l-21,20.4l-21-20.3h-25.3c0,0-10.3,0.2-10.3,11.4v15.8
							L854.3,174.4z"/>
						<polyline class="c2-s2-st4" points="824.7,147 820.3,147 799.3,167.4 778.4,147.2 772.4,147.2 						"/>
						<path class="c2-s2-st3" d="M819.8,132.4c1.6-1.2,4.4-0.8,5.8-2.2s1.2-4.4,2.4-6s4-2.2,4.9-4s-0.2-4.5,0.5-6.5
							c0.6-1.9,3.1-3.4,3.4-5.4c0.3-2-1.6-4.2-1.6-6.3s1.9-4.3,1.6-6.3c-0.3-2-2.8-3.5-3.4-5.4c-0.6-1.9,0.5-4.7-0.5-6.5
							s-3.7-2.3-4.9-4s-1-4.6-2.4-6s-4.2-1-5.8-2.2c-1.6-1.2-2.2-4.1-4-4.9c-1.7-0.9-4.3,0.4-6.1-0.2c-1.8-0.6-3.3-3.2-5.2-3.5
							c-1.9-0.3-4,1.7-5.9,1.7s-4.1-2-5.9-1.7c-1.9,0.3-3.4,2.9-5.2,3.5c-1.9,0.6-4.4-0.7-6.2,0.2c-1.8,0.9-2.4,3.8-4,4.9
							c-1.6,1.2-4.4,0.8-5.8,2.2s-1.2,4.4-2.4,6s-4,2.2-4.9,4s0.2,4.5-0.5,6.5c-0.6,1.9-3.1,3.4-3.4,5.4c-0.3,2,1.6,4.2,1.6,6.3
							s-1.9,4.3-1.6,6.3c0.3,2,2.8,3.5,3.4,5.4c0.6,1.9-0.5,4.7,0.5,6.5s3.7,2.3,4.9,4s1,4.6,2.4,6s4.2,1,5.8,2.2"/>
						<path class="c2-s2-st4" d="M804.5,63.1c-1.9-0.3-4,1.7-5.9,1.7s-4.1-2-5.9-1.7c-1.9,0.3-3.4,2.9-5.2,3.5c-1.9,0.6-4.4-0.7-6.2,0.2
							c-1.8,0.9-2.4,3.8-4,4.9c-1.6,1.2-4.4,0.8-5.8,2.2s-1.2,4.4-2.4,6s-4,2.2-4.9,4"/>
						<path class="c2-s2-st3" d="M771.5,99c-6.9,14.8-0.6,32.4,14.2,39.3s32.4,0.6,39.3-14.2c4-8.6,3.7-18.6-0.9-26.9"/>
						<path class="c2-s2-st4" d="M771.4,99c2,0,4.1,1.5,5.9,1.2c1.9-0.2,3.4-2.1,5.2-2.5c1.9-0.4,4.4,0.5,6.2-0.2c1.8-0.7,2.4-2.8,4-3.6
							c1.6-0.8,4.4-0.6,5.8-1.6s1.2-3.2,2.4-4.4"/>
						<path class="c2-s2-st4" d="M824,97.2c-1.4-1.1-1.7-3.3-3.4-4.2c-1.6-0.9-4.3-0.3-6.1-1.1c-1.7-0.7-2.9-2.7-4.8-3.2
							c-1.8-0.5-4.1,0.7-6.1,0.4c-1-0.2-2-0.6-2.9-1.1"/>
					</g>
					<g>
						<path class="c2-s2-st4" d="M751.6,173.6c0,4.4-5.4,17.6-16.7,24.4l-2-2.2c-1.4-1.5-3.4-2.4-5.5-2.4h-15c-2.1,0-4.1,0.9-5.4,2.4
							l-2,2.2c-11.3-6.8-16.7-20.1-16.7-24.4c-0.7,2.8-1.1,5.6-1.1,8.5"/>
						<polyline class="c2-s2-st3" points="704.3,211.2 704.3,243.5 735.4,243.5 735.4,211.2 						"/>
						<path class="c2-s2-st3" d="M728.8,248.2h-67.5v-16.6c0-11.8,10.9-12,10.9-12h26.6l22,21.3l22-21.5h24.9c0,0,10.9,0.2,10.9,11.9v16.8
							L728.8,248.2z"/>
						<path class="c2-s2-st3" d="M688.4,191.3c-5.1-17.4,4.8-35.7,22.2-40.8c9.7-2.9,20.2-1.1,28.4,4.8c1.5,1,2.9,2.2,4.1,3.5
							c6.1,6.2,9.6,14.5,9.6,23.2c0,2.6-0.3,5.1-0.9,7.6c-0.1,0.6-0.3,1.2-0.5,1.7c-5.2,17.4-23.5,27.3-40.9,22.2
							c-0.1,0-0.2-0.1-0.3-0.1"/>
						<path class="c2-s2-st3" d="M688.4,191.3c3.1,10.5,11.3,18.8,21.8,22.1"/>
						<path class="c2-s2-st3" d="M732.2,159.6c0,0,3.8-2.7,3.2-6.6s-1.9-8.3-15.6-8.3c-22.3,0-36.3,22.7-35.4,34c2.4-3.5,9.6-9.2,10.3-9.8
							c0.1,1.8,0.6,3.6,1.5,5.1c1.2-1.7,2.5-3.2,4-4.6C710.2,160.6,732.2,159.6,732.2,159.6z"/>
					</g>
				</g>
			</g>
			<circle class="c2-s2-st11" cx="720" cy="137.5" r="134"/>
		</g>
		<path class="c2-s2-st6" d="M720,3.5c-74,0-134,60-134,134s60,134,134,134c24.3,0,48.1-6.6,68.9-19.1"/>
		<circle cx="789" cy="252.3" r="2.5"/>
		<circle cx="720.2" cy="3.2" r="2.5"/>
	</g>
</g>
</svg>
