<svg  id="svg-c3-s3" xmlns="http://www.w3.org/2000/svg" xmlns:xlink="http://www.w3.org/1999/xlink" viewBox="0 0 488 344">
  <style>
    .c3-s3-st2{fill:#fff;stroke-linecap:round;stroke-linejoin:round}.c3-s3-st2,.c3-s3-st3,.c3-s3-st4{stroke:#7e9fb4;stroke-width:5}.c3-s3-st3{stroke-linecap:round;stroke-linejoin:round;fill:none}.c3-s3-st4{fill:#fff}.c3-s3-st4,.c3-s3-st7,.c3-s3-st8{stroke-miterlimit:10}.c3-s3-st7{fill:none;stroke-width:5;stroke-linecap:round;stroke:#55555a}.c3-s3-st8{stroke:#599cf4}.c3-s3-st10,.c3-s3-st8,.c3-s3-st9{fill:none;stroke-width:5;stroke-linecap:round}.c3-s3-st9{stroke-linejoin:round;stroke:#55555a}.c3-s3-st10{stroke:#7e9fb4;stroke-miterlimit:10}
  </style>
  <g id="c3-s3-mainC">
    <circle cx="244.4" cy="172" r="93.4" fill="#d5e3ec"/>
    <defs>
      <circle id="c3-s3-SVGID_1_" cx="244.4" cy="172" r="93.4"/>
    </defs>
    <clipPath id="c3-s3-SVGID_2_">
      <use xlink:href="#c3-s3-SVGID_1_" overflow="visible"/>
    </clipPath>
    <g clip-path="url(#c3-s3-SVGID_2_)">
      <circle class="c3-s3-st2" cx="242.4" cy="120.1" r="22.9"/>
      <path class="c3-s3-st2" d="M231.6 138.4h21.7V163h-21.7z"/>
      <path class="c3-s3-st2" d="M264.5 114.2c1 3.7 1 7.5.2 11.2l-.3 1.2c-3.4 12.2-16.1 19.3-28.2 15.8-12.2-3.4-19.3-16.1-15.8-28.2"/>
      <path class="c3-s3-st3" d="M237.4 142.4c-6.1-1.4-11.4-5.2-14.6-10.5"/>
      <path class="c3-s3-st2" d="M237.8 168.8h-36.2v-8.1c-.3-4.3 2.9-8 7.2-8.3h18.9c8.7 4.1 17.7 4.7 30.6-.1l.1-.1h17.4s7.6.1 7.6 8.3v8.2h-45.6z"/>
      <path class="c3-s3-st4" d="M224.7 144.7l-3.2 7.4c6.6 2.9 13.7 4.3 20.9 4.3l-4.8-8.3c-4.5-.5-8.8-1.6-12.9-3.4zm35.5 0c-4.1 1.8-8.5 2.9-13 3.4l-4.8 8.3c7.2 0 14.3-1.5 20.9-4.3l-3.1-7.4z"/>
      <path class="c3-s3-st3" d="M224.7 144.7l-3.2 7.4c6.6 2.9 13.7 4.3 20.9 4.3l-4.8-8.3c-4.5-.5-8.8-1.6-12.9-3.4zm35.5 0c-4.1 1.8-8.5 2.9-13 3.4l-4.8 8.3c7.2 0 14.3-1.5 20.9-4.3l-3.1-7.4z"/>
      <path class="c3-s3-st3" d="M261.6 147.9c-.5-1.1-.9-2.1-1.4-3.2-3.7 1.6-7.5 2.7-11.5 3.2"/>
      <path class="c3-s3-st4" d="M242.1 100.5c7.2 0 11.7 1.4 17.5 3.8-1.8-4.7-3.4-7.1-4.8-7.1l-16.1-2.6c-2.1 0-7.5-2.1-9.3-2.3l-4.8 12.3c5.7-2.4 10.5-4 17.5-4.1z"/>
      <g>
        <path class="c3-s3-st2" d="M180.4 189.2h20.7v23.5h-20.7z"/>
        <path class="c3-s3-st2" d="M229.6 215.7v-11.1c.3-4.1-2.8-7.6-6.8-7.9h-16.9L191.3 211l-14.6-14.1H159c-4.1.1-7.3 3.5-7.2 7.6v11.4h76.8"/>
        <path class="c3-s3-st2" d="M229.6 209.4v-4.8c.3-4.1-2.8-7.6-6.8-7.9h-3.1"/>
        <circle class="c3-s3-st2" cx="190.7" cy="171.8" r="21.8"/>
        <path class="c3-s3-st2" d="M190.8 143.6c-32.4 0-30.3 47.9-18.8 74.9h8.4V191c-3-1.8-11.5-7.3-11.5-19.2 0-5.4 6.2-8.5 13.5-11 11.4 14.8 25.8 13.9 29.9 13.7-.6 7.7-7.1 14.7-11.3 16.5v27.5h8.4c11.7-27 13.8-74.9-18.6-74.9z"/>
        <path class="c3-s3-st3" d="M190.8 143.6c-8.6 0-14.8 3.2-19.1 8.5"/>
      </g>
      <g>
        <path class="c3-s3-st2" d="M288.8 171.2h20.7v23.5h-20.7z"/>
        <path class="c3-s3-st2" d="M338.1 197.7v-11.1c.3-4.1-2.8-7.6-6.8-7.9h-16.9L299.8 193l-14.6-14.1h-17.6c-4.1.1-7.3 3.5-7.2 7.6v11.4l77.7-.2z"/>
        <path class="c3-s3-st3" d="M317.4 178.7h-3.1l-14.6 14.2-14.6-14.1h-4.2"/>
        <path class="c3-s3-st2" d="M314 168.5c1.1-.8 3.1-.5 4-1.5s.8-3.1 1.7-4.2 2.8-1.5 3.4-2.8-.1-3.2.3-4.5c.4-1.3 2.2-2.4 2.4-3.8.2-1.4-1.1-2.9-1.1-4.4s1.3-3 1.1-4.4c-.2-1.4-1.9-2.4-2.4-3.8-.4-1.4.3-3.3-.3-4.5s-2.6-1.6-3.4-2.8-.7-3.2-1.7-4.2-2.9-.7-4-1.5-1.6-2.8-2.8-3.4c-1.2-.6-3 .3-4.3-.2-1.3-.4-2.3-2.2-3.6-2.4-1.3-.2-2.8 1.2-4.1 1.2s-2.8-1.4-4.1-1.2c-1.4.2-2.4 2-3.6 2.4-1.3.4-3.1-.5-4.3.2-1.2.6-1.7 2.6-2.8 3.4s-3.1.5-4 1.5c-1 1-.8 3.1-1.7 4.2s-2.8 1.5-3.4 2.8.1 3.2-.3 4.5c-.4 1.3-2.2 2.4-2.4 3.8-.2 1.4 1.1 2.9 1.1 4.4s-1.3 3-1.1 4.4c.2 1.4 1.9 2.4 2.4 3.8.4 1.4-.3 3.3.3 4.5s2.6 1.6 3.4 2.8.7 3.2 1.7 4.2 2.9.7 4 1.5"/>
        <path class="c3-s3-st3" d="M303.3 120.2c-1.3-.2-2.8 1.2-4.1 1.2s-2.8-1.4-4.1-1.2c-1.4.2-2.4 2-3.6 2.4-1.3.4-3.1-.5-4.3.2-1.2.6-1.7 2.6-2.8 3.4s-3.1.5-4 1.5-.8 3.1-1.7 4.2-2.8 1.5-3.4 2.8"/>
        <path class="c3-s3-st2" d="M280.3 145.2c-4.8 10.3-.4 22.6 9.9 27.4 10.3 4.8 22.6.4 27.4-9.9 2.8-6 2.6-13-.7-18.8"/>
        <path class="c3-s3-st3" d="M280.2 145.2c1.4 0 2.8 1 4.1.9 1.4-.2 2.4-1.5 3.6-1.8 1.3-.3 3.1.3 4.3-.1 1.2-.5 1.7-1.9 2.8-2.5s3.1-.4 4-1.1.8-2.2 1.7-3M316.9 143.9c-1-.7-1.2-2.3-2.4-2.9-1.1-.6-3-.2-4.2-.7-1.2-.5-2-1.9-3.3-2.3-1.3-.3-2.9.5-4.2.3-.7-.2-1.4-.4-2-.8"/>
      </g>
      <g>
        <path class="c3-s3-st3" d="M267.1 194c0 3.1-3.8 12.2-11.7 17l-1.4-1.6c-1-1.1-2.4-1.7-3.8-1.7h-10.5c-1.4 0-2.8.6-3.8 1.7l-1.4 1.6c-7.9-4.8-11.7-14-11.7-17-.5 1.9-.8 3.9-.8 5.9"/>
        <path class="c3-s3-st2" d="M234.1 220.3v22.5h21.7v-22.5"/>
        <path class="c3-s3-st2" d="M251.2 246h-47.1v-11.6c0-8.2 7.6-8.3 7.6-8.3h18.5l15.3 14.8 15.3-15h17.4s7.6.1 7.6 8.3V246h-34.6zM223 206.4c-.6-2.1-.9-4.3-.9-6.5 0-2 .3-4 .8-5.9 3.3-12.2 15.8-19.5 28.1-16.2 2.7.7 5.2 1.9 7.4 3.5 1 .7 2 1.5 2.9 2.4 4.3 4.3 6.7 10.1 6.7 16.2 0 1.8-.2 3.6-.6 5.3l-.3 1.2c-3.6 12.1-16.4 19.1-28.5 15.4-.1 0-.1 0-.2-.1M223 206.4c2.2 7.3 7.9 13.1 15.2 15.4"/>
        <path class="c3-s3-st2" d="M253.6 184.3s2.7-1.9 2.2-4.6-1.3-5.8-10.8-5.8c-15.5 0-25.3 15.9-24.7 23.7 1.7-2.5 6.7-6.4 7.2-6.8.1 1.3.4 2.5 1.1 3.6.8-1.2 1.7-2.2 2.8-3.2 6.8-6.3 22.2-6.9 22.2-6.9z"/>
      </g>
    </g>
    <circle cx="244.4" cy="172" r="93.4" fill="none" stroke="#55555a" stroke-width="5" stroke-miterlimit="10"/>
    <path d="M244.4 78.6c-51.6 0-93.4 41.9-93.4 93.5s41.9 93.4 93.5 93.4c16.9 0 33.5-4.6 48.1-13.3" fill="none" stroke="#599cf4" stroke-width="5" stroke-miterlimit="10"/>
    <circle cx="292.5" cy="252.1" r="2.5"/>
    <circle cx="244.4" cy="78.6" r="2.5"/>
  </g>
  <g id="c3-s3-brC">
    <path class="c3-s3-st3" d="M454.3 269.1c0 3.1-3.8 12.2-11.7 17l-1.4-1.6c-1-1.1-2.4-1.7-3.8-1.7H427c-1.4 0-2.8.6-3.8 1.7l-1.4 1.6c-7.9-4.8-11.7-14-11.7-17-.5 1.9-.8 3.9-.8 5.9"/>
    <path class="c3-s3-st2" d="M421.4 295.4v22.5h21.7v-22.5"/>
    <path class="c3-s3-st2" d="M391.4 321.1v-11.6c-.3-4.3 2.9-8 7.2-8.3h18.9l15.3 14.8 15.3-15h17.4s7.6.1 7.6 8.3V321M410.3 281.5c-.6-2.1-.9-4.3-.9-6.5 0-2 .3-4 .8-5.9 3.3-12.2 15.8-19.5 28.1-16.2 2.7.7 5.2 1.9 7.4 3.5 1 .7 2 1.5 2.9 2.4 4.3 4.3 6.7 10.1 6.7 16.2 0 1.8-.2 3.6-.6 5.3l-.3 1.2c-3.6 12.1-16.4 19.1-28.5 15.4-.1 0-.1 0-.2-.1M410.3 281.5c2.2 7.3 7.9 13.1 15.2 15.4"/>
    <path class="c3-s3-st2" d="M440.8 259.4s2.7-1.9 2.2-4.6-1.3-5.8-10.8-5.8c-15.5 0-25.3 15.9-24.7 23.7 1.7-2.5 6.7-6.4 7.2-6.8.1 1.3.4 2.5 1.1 3.6.8-1.2 1.7-2.2 2.8-3.2 6.9-6.3 22.2-6.9 22.2-6.9z"/>
    <circle class="c3-s3-st7" cx="432.2" cy="287.4" r="53.3"/>
    <path class="c3-s3-st8" d="M379 287.4c0-29.4 23.9-53.3 53.3-53.3M432.2 340.7c-29.4 0-53.3-23.9-53.3-53.3"/>
    <circle cx="432.4" cy="234.1" r="2.5"/>
    <circle cx="432.4" cy="340.7" r="2.5"/>
  </g>
  <g id="c3-s3-brA">
    <path class="c3-s3-st9" d="M382.3 265.3L337 239.2M343.1 261.7l-6.1-22.5 22.6-6.1"/>
    <path class="c3-s3-st10" d="M345.3 236.9l14.3-3.8"/>
    <circle cx="345.1" cy="237" r="2.5"/>
    <path class="c3-s3-st8" d="M382.3 265.3l-7.2-4.2"/>
    <circle cx="375.1" cy="261.1" r="2.5"/>
  </g>
  <g id="c3-s3-trC">
    <ellipse transform="rotate(-77.096 432.367 42.33)" class="c3-s3-st2" cx="432.3" cy="42.3" rx="22.9" ry="22.9"/>
    <path class="c3-s3-st2" d="M421.5 60.6h21.7v24.6h-21.7z"/>
    <path class="c3-s3-st2" d="M454.5 36.5c1 3.7 1 7.5.2 11.2l-.3 1.2c-3.4 12.2-16.1 19.3-28.2 15.8-12.2-3.4-19.3-16.1-15.8-28.2"/>
    <path class="c3-s3-st3" d="M427.3 64.7c-6.1-1.4-11.4-5.2-14.6-10.5"/>
    <path class="c3-s3-st2" d="M391.5 91v-8.1c0-8.2 7.6-8.3 7.6-8.3h18.5c8.7 4.1 17.7 4.7 30.6-.1l.1-.1h17.4s7.6.1 7.6 8.3V91"/>
    <path class="c3-s3-st4" d="M414.6 66.9c-1.1 2.5-2.1 4.9-3.2 7.4 6.6 2.9 13.7 4.3 20.9 4.3l-4.8-8.3c-4.4-.4-8.8-1.6-12.9-3.4zm35.5 0c-4.1 1.8-8.5 2.9-13 3.4l-4.8 8.3c7.2 0 14.3-1.5 21-4.3l-3.2-7.4z"/>
    <path class="c3-s3-st3" d="M414.6 66.9c-1.1 2.5-2.1 4.9-3.2 7.4 6.6 2.9 13.7 4.3 20.9 4.3l-4.8-8.3c-4.4-.4-8.8-1.6-12.9-3.4zm35.5 0c-4.1 1.8-8.5 2.9-13 3.4l-4.8 8.3c7.2 0 14.3-1.5 21-4.3l-3.2-7.4z"/>
    <path class="c3-s3-st3" d="M451.5 70.2c-.5-1.1-.9-2.1-1.4-3.2-3.7 1.6-7.5 2.7-11.5 3.2"/>
    <path class="c3-s3-st4" d="M432 22.7c7.2 0 11.7 1.4 17.5 3.8-1.8-4.7-3.4-7.1-4.8-7.1l-16.1-2.6c-2.1 0-7.5-2.1-9.3-2.3l-4.8 12.3c5.8-2.4 10.5-4 17.5-4.1z"/>
    <circle class="c3-s3-st7" cx="432.2" cy="56.6" r="53.3"/>
    <path class="c3-s3-st8" d="M432.2 109.9c-29.4 0-53.3-23.9-53.3-53.3"/>
    <circle cx="432.2" cy="109.9" r="2.5"/>
    <path class="c3-s3-st8" d="M379 56.6c0-29.4 23.9-53.3 53.3-53.3"/>
    <circle cx="432.2" cy="3.3" r="2.5"/>
  </g>
  <g id="c3-s3-trA">
    <path class="c3-s3-st9" d="M383.5 78.2l-23.6 13.6-21.7 12.5"/>
    <path class="c3-s3-st9" d="M360.8 110.3l-22.6-6 6.1-22.5"/>
    <path class="c3-s3-st8" d="M383.5 78.2l-23.6 13.6"/>
    <ellipse transform="rotate(-73.351 359.913 91.771)" cx="359.9" cy="91.8" rx="2.5" ry="2.5"/>
  </g>
  <g id="c3-s3-blC">
    <path class="c3-s3-st2" d="M45.1 297h20.7v23.5H45.1z"/>
    <path class="c3-s3-st2" d="M94.3 323.5v-11.1c.3-4.1-2.8-7.6-6.8-7.9H70.6L56 318.7l-14.6-14.1H23.7c-4.1.1-7.3 3.5-7.2 7.6v11.3"/>
    <path class="c3-s3-st3" d="M73.6 304.5h-3L56 318.7l-14.6-14.1h-4.2"/>
    <path class="c3-s3-st2" d="M70.3 294.3c1.1-.8 3.1-.5 4-1.5s.8-3.1 1.7-4.2 2.8-1.5 3.4-2.8-.1-3.2.3-4.5c.4-1.3 2.2-2.4 2.4-3.8.2-1.4-1.1-2.9-1.1-4.4s1.3-3 1.1-4.4c-.2-1.4-1.9-2.4-2.4-3.8-.4-1.4.3-3.3-.3-4.5s-2.6-1.6-3.4-2.8-.7-3.2-1.7-4.2-2.9-.7-4-1.5-1.6-2.8-2.8-3.4c-1.2-.6-3 .3-4.3-.2-1.3-.4-2.3-2.2-3.6-2.4-1.3-.2-2.8 1.2-4.1 1.2s-2.8-1.4-4.1-1.2c-1.4.2-2.4 2-3.6 2.4-1.3.4-3.1-.5-4.3.2-1.2.6-1.7 2.6-2.8 3.4s-3.1.5-4 1.5-.8 3.1-1.7 4.2-2.8 1.5-3.4 2.8.1 3.2-.3 4.5c-.4 1.3-2.2 2.4-2.4 3.8-.2 1.4 1.1 2.9 1.1 4.4s-1.3 3-1.1 4.4c.2 1.4 1.9 2.4 2.4 3.8.4 1.4-.3 3.3.3 4.5.6 1.2 2.6 1.6 3.4 2.8s.7 3.2 1.7 4.2 2.9.7 4 1.5"/>
    <path class="c3-s3-st3" d="M59.6 246c-1.3-.2-2.8 1.2-4.1 1.2s-2.8-1.4-4.1-1.2c-1.4.2-2.4 2-3.6 2.4-1.3.4-3.1-.5-4.3.2-1.2.6-1.7 2.6-2.8 3.4s-3.1.5-4 1.5-.8 3.1-1.7 4.2-2.8 1.5-3.4 2.8"/>
    <path class="c3-s3-st2" d="M36.6 271c-4.8 10.3-.4 22.6 9.9 27.4 10.3 4.8 22.6.4 27.4-9.9 2.8-6 2.6-13-.7-18.8"/>
    <path class="c3-s3-st3" d="M36.5 271c1.4 0 2.8 1 4.1.9 1.4-.2 2.4-1.5 3.6-1.8 1.3-.3 3.1.3 4.3-.1 1.2-.5 1.7-1.9 2.8-2.5s3.1-.4 4-1.1.8-2.2 1.7-3M73.2 269.7c-1-.7-1.2-2.3-2.4-2.9-1.1-.6-3-.2-4.2-.7-1.2-.5-2-1.9-3.3-2.3-1.3-.3-2.9.5-4.2.3-.7-.2-1.4-.4-2-.8"/>
    <circle class="c3-s3-st7" cx="55.8" cy="286.8" r="53.3"/>
    <path class="c3-s3-st10" d="M55.8 233.5c29.4 0 53.3 23.9 53.3 53.3M2.5 286.8c0-29.4 23.9-53.3 53.3-53.3"/>
    <circle cx="2.5" cy="286.8" r="2.5"/>
    <circle cx="109.2" cy="286.8" r="2.5"/>
  </g>
  <g id="c3-s3-blA">
    <path class="c3-s3-st9" d="M104.4 264.5l45.3-26.1M127.1 232.3l22.6 6.1-6.1 22.5"/>
    <path class="c3-s3-st10" d="M104.4 264.5l27.3-15.7"/>
    <circle cx="131.9" cy="248.7" r="2.5"/>
  </g>
  <g id="c3-s3-tlC">
    <path class="c3-s3-st2" d="M45.6 64.2h20.7v23.5H45.6z"/>
    <path class="c3-s3-st2" d="M94.8 90.7V79.6c.3-4.1-2.8-7.6-6.8-7.9H71.1L56.5 85.9 41.8 71.8H24.2c-4.1.1-7.3 3.5-7.2 7.6v11.4"/>
    <path class="c3-s3-st2" d="M94.8 84.4v-4.8c.3-4.1-2.8-7.6-6.8-7.9h-3.1"/>
    <circle class="c3-s3-st2" cx="55.9" cy="46.8" r="21.8"/>
    <path class="c3-s3-st2" d="M56 18.6c-32.4 0-30.3 47.9-18.8 74.9h8.4V66c-3-1.8-11.5-7.3-11.5-19.2 0-5.4 6.2-8.5 13.5-11C59 50.6 73.4 49.7 77.5 49.5c-.6 7.7-7.1 14.7-11.3 16.5v27.5h8.4c11.7-27 13.8-74.9-18.6-74.9z"/>
    <path class="c3-s3-st3" d="M56 18.6c-8.6 0-14.8 3.2-19.1 8.5"/>
    <circle class="c3-s3-st7" cx="55.8" cy="56.6" r="53.3"/>
    <path class="c3-s3-st8" d="M2.5 56.6c0-29.4 23.9-53.3 53.3-53.3"/>
    <circle cx="2.5" cy="56.9" r="2.5"/>
    <circle cx="55.8" cy="3.3" r="2.5"/>
  </g>
  <g id="c3-s3-tlA">
    <path class="c3-s3-st7" d="M105.8 77.4l45.3 26.2"/>
    <path class="c3-s3-st10" d="M118.8 84.9l32.3 18.7M151.1 103.6l-22.6 6M145 81l6.1 22.6"/>
    <circle cx="118.6" cy="84.8" r="2.5"/>
  </g>
</svg>