<svg id="svg-c3-s2" xmlns="http://www.w3.org/2000/svg" xmlns:xlink="http://www.w3.org/1999/xlink" viewBox="0 0 657 285">
  <style>
    .c3-s2-st0,.c3-s2-st1,.c3-s2-st2{fill:#fff;stroke:#7e9fb4;stroke-width:5;stroke-linecap:round;stroke-linejoin:round}.c3-s2-st1,.c3-s2-st2{fill:none}.c3-s2-st2{stroke:#599cf4}.c3-s2-st3{fill:#36568a}.c3-s2-st4{fill:none;stroke:#55555a;stroke-width:5;stroke-linecap:round;stroke-linejoin:round}.c3-s2-st5{fill:#d5e3ec}.c3-s2-st7{fill:#fff;stroke:#7e9fb4;stroke-width:5;stroke-miterlimit:10}
  </style>
  <g id="c3-s2-cl">
    <path class="c3-s2-st0" d="M164.4 91.5V80h86.1v119.7H239"/>
    <path class="c3-s2-st0" d="M152.4 103.4V92h86.1v119.7H227"/>
    <path class="c3-s2-st0" d="M141 103.4h86.1v119.7H141z"/>
    <path class="c3-s2-st1" d="M155 123.4h58M155 135h58M169.9 163h41.4M156.8 163h2.3M169.9 182.3h41.4M156.8 182.3h2.3M169.9 201.7h41.4M156.8 201.7h2.3"/>
    <path class="c3-s2-st2" d="M141 223.1v-96.5M186.4 223.1H141"/>
    <circle class="c3-s2-st3" cx="141" cy="126.6" r="2.5"/>
    <circle class="c3-s2-st3" cx="186.4" cy="223.1" r="2.5"/>
    <path class="c3-s2-st4" d="M238.5 92v59.8M207.5 92h31"/>
    <circle cx="238.5" cy="151.8" r="2.5"/>
    <circle cx="207.5" cy="92" r="2.5"/>
    <ellipse class="c3-s2-st5" cx="148.2" cy="142.5" rx="148.2" ry="142.2"/>
  </g>
  <g id="c3-s2-cr">
    <circle class="c3-s2-st5" cx="526.8" cy="136.7" r="127.2"/>
    <defs>
      <circle id="c3-s2-SVGID_1_" cx="526.8" cy="136.7" r="127.2"/>
    </defs>
    <clipPath id="c3-s2-SVGID_2_">
      <use xlink:href="#c3-s2-SVGID_1_" overflow="visible"/>
    </clipPath>
    <g clip-path="url(#c3-s2-SVGID_2_)">
      <ellipse transform="rotate(-77.096 523.944 65.547)" class="c3-s2-st0" cx="523.9" cy="65.5" rx="32.4" ry="32.4"/>
      <path class="c3-s2-st0" d="M508.5 91.4h30.7v34.9h-30.7z"/>
      <path class="c3-s2-st0" d="M555.3 57.2c1.4 5.2 1.4 10.6.2 15.8-.1.6-.3 1.1-.5 1.7-5.1 17.2-23.2 27-40.4 21.8-16.8-5-26.6-22.5-22.1-39.4"/>
      <path class="c3-s2-st1" d="M516.8 97.2c-8.6-1.9-16.1-7.3-20.7-14.9"/>
      <path class="c3-s2-st0" d="M517.3 134.6H466v-11.5c0-11.6 10.7-11.8 10.7-11.8H503c12.4 5.8 25.1 6.7 43.4-.1l.1-.1h24.6s10.7.2 10.7 11.8v11.7h-64.5z"/>
      <path class="c3-s2-st7" d="M498.8 100.4l-4.5 10.5c9.4 4.1 19.5 6.1 29.7 6.1l-6.8-11.8c-6.4-.6-12.6-2.3-18.4-4.8zm50.3 0c-5.8 2.5-12 4.2-18.4 4.8l-6.8 11.8c10.2 0 20.3-2.1 29.7-6.1l-4.5-10.5z"/>
      <path class="c3-s2-st1" d="M498.8 100.4l-4.5 10.5c9.4 4.1 19.5 6.1 29.7 6.1l-6.8-11.8c-6.4-.6-12.6-2.3-18.4-4.8zm50.3 0c-5.8 2.5-12 4.2-18.4 4.8l-6.8 11.8c10.2 0 20.3-2.1 29.7-6.1l-4.5-10.5z"/>
      <path class="c3-s2-st1" d="M551.1 105c-.7-1.5-1.3-3-2-4.6-5.2 2.2-10.6 3.8-16.2 4.6"/>
      <path class="c3-s2-st7" d="M523.5 37.8c10.2-.1 16.6 2 24.8 5.4-2.6-6.7-4.8-10.1-6.8-10.1l-22.8-3.7c-2.9 0-10.6-2.9-13.1-3.2l-6.8 17.4c8-3.5 14.7-5.7 24.7-5.8z"/>
      <g>
        <path class="c3-s2-st0" d="M439.7 160h28.1v31.9h-28.1z"/>
        <path class="c3-s2-st0" d="M506.7 196.2V181c0-10.6-9.8-10.8-9.8-10.8h-22.5l-19.9 19.4-19.9-19.2h-24s-9.8.2-9.8 10.8v15h104.5"/>
        <path class="c3-s2-st0" d="M506.7 187.6V181c0-10.6-9.8-10.8-9.8-10.8h-3.7"/>
        <ellipse transform="rotate(-77.021 453.703 136.36)" class="c3-s2-st0" cx="453.7" cy="136.4" rx="29.7" ry="29.7"/>
        <path class="c3-s2-st0" d="M453.8 98c-44.1 0-41.3 65.2-25.5 102h11.5v-37.5c-4-2.5-15.6-9.9-15.6-26.1 0-7.4 8.4-11.6 18.4-15 15.6 20.1 35.2 18.9 40.7 18.7-.8 10.5-9.7 20.1-15.4 22.5V200h11.5c15.7-36.8 18.5-102-25.6-102z"/>
        <path class="c3-s2-st1" d="M453.8 98c-11.8 0-20.2 4.4-25.9 11.6"/>
      </g>
      <g>
        <path class="c3-s2-st0" d="M587.3 135.6h28.1v31.9h-28.1z"/>
        <path class="c3-s2-st0" d="M654.3 171.7v-15.2c0-10.6-9.8-10.8-9.8-10.8H622l-19.9 19.4-19.9-19.2h-24s-9.8.2-9.8 10.8v15h105.9z"/>
        <path class="c3-s2-st1" d="M626.2 145.8H622l-19.9 19.4-19.9-19.3h-5.6"/>
        <path class="c3-s2-st0" d="M621.6 131.9c1.5-1.1 4.2-.7 5.5-2.1s1.1-4.2 2.3-5.7 3.8-2.1 4.6-3.8-.2-4.3.4-6.2c.6-1.8 2.9-3.2 3.2-5.1.3-1.9-1.5-4-1.5-6s1.8-4.1 1.5-6c-.3-1.9-2.6-3.3-3.2-5.1-.6-1.8.4-4.4-.4-6.2s-3.5-2.2-4.6-3.8-.9-4.4-2.3-5.7-4-1-5.5-2.1-2.1-3.8-3.8-4.7c-1.6-.8-4.1.4-5.8-.2-1.7-.6-3.1-3-4.9-3.3-1.8-.3-3.8 1.6-5.6 1.6s-3.8-1.9-5.6-1.6c-1.8.3-3.2 2.7-4.9 3.3-1.8.6-4.2-.6-5.8.2-1.7.8-2.3 3.6-3.8 4.7s-4.2.7-5.5 2.1-1.1 4.2-2.3 5.7-3.8 2.1-4.6 3.8.2 4.3-.4 6.2c-.6 1.8-2.9 3.2-3.2 5.1-.3 1.9 1.5 4 1.5 6s-1.8 4.1-1.5 6c.3 1.9 2.6 3.3 3.2 5.1.6 1.8-.4 4.4.4 6.2s3.5 2.2 4.6 3.8.9 4.4 2.3 5.7 4 1 5.5 2.1"/>
        <path class="c3-s2-st1" d="M607 66.1c-1.8-.3-3.8 1.6-5.6 1.6s-3.8-1.9-5.6-1.6c-1.8.3-3.2 2.7-4.9 3.3-1.8.6-4.2-.6-5.8.2-1.7.8-2.3 3.6-3.8 4.7s-4.2.7-5.5 2.1-1.1 4.2-2.3 5.7-3.8 2.1-4.6 3.8"/>
        <path class="c3-s2-st0" d="M575.7 100.2c-6.6 14-.5 30.7 13.5 37.3s30.7.5 37.3-13.5c3.8-8.2 3.5-17.7-.9-25.6"/>
        <path class="c3-s2-st1" d="M575.6 100.2c1.9 0 3.8 1.4 5.6 1.2 1.8-.2 3.2-2 4.9-2.4 1.8-.4 4.2.5 5.8-.2 1.7-.6 2.3-2.6 3.8-3.4 1.5-.8 4.2-.5 5.5-1.5s1.1-3 2.3-4.1M625.6 98.5c-1.4-1-1.6-3.1-3.2-4-1.5-.8-4.1-.3-5.8-1-1.7-.7-2.8-2.6-4.5-3.1-1.7-.5-3.9.6-5.7.4-1-.2-1.9-.6-2.7-1.1"/>
      </g>
      <g>
        <path class="c3-s2-st1" d="M557.4 166.6c0 4.2-5.2 16.7-15.9 23.1l-1.9-2.1c-1.3-1.5-3.2-2.3-5.2-2.3h-14.3c-2 0-3.8.8-5.2 2.3l-1.9 2.1c-10.8-6.5-15.9-19.1-15.9-23.2-.7 2.6-1 5.3-1 8"/>
        <path class="c3-s2-st0" d="M512.5 202.4V233H542v-30.6"/>
        <path class="c3-s2-st0" d="M535.7 237.4h-64.1v-15.7c0-11.2 10.3-11.4 10.3-11.4h25.2l20.9 20.2 20.9-20.4h23.6s10.3.2 10.3 11.3v15.9l-47.1.1zM497.4 183.4c-.8-2.9-1.3-5.9-1.3-8.9 0-2.7.3-5.4 1-8 4.5-16.6 21.6-26.5 38.2-22.1 3.6 1 7 2.6 10.1 4.7 1.4 1 2.7 2.1 3.9 3.3 5.8 5.8 9.1 13.8 9.1 22 0 2.4-.3 4.9-.8 7.2-.1.5-.3 1.1-.4 1.6-4.9 16.5-22.3 25.9-38.8 21-.1 0-.2-.1-.3-.1M497.4 183.4c3 10 10.7 17.8 20.7 20.9"/>
        <path class="c3-s2-st0" d="M539 153.4s3.6-2.6 3-6.2-1.8-7.9-14.8-7.9c-21.1 0-34.4 21.6-33.6 32.3 2.3-3.3 9.1-8.8 9.8-9.3.1 1.7.6 3.4 1.4 4.9 1.1-1.6 2.4-3 3.8-4.4 9.5-8.5 30.4-9.4 30.4-9.4z"/>
      </g>
    </g>
    <circle cx="526.8" cy="136.7" r="127.2" fill="none" stroke="#55555a" stroke-width="5" stroke-miterlimit="10"/>
    <path d="M526.8 9.6c-70.2 0-127.2 57-127.2 127.2S456.6 264 526.8 264c23 0 45.6-6.3 65.4-18.1" fill="none" stroke="#599cf4" stroke-width="4.981" stroke-miterlimit="10"/>
    <ellipse transform="matrix(.02878 -.9996 .9996 .02878 329.642 830.709)" cx="592.3" cy="245.7" rx="2.5" ry="2.5"/>
    <ellipse transform="matrix(.02878 -.9996 .9996 .02878 502.12 535.898)" cx="526.8" cy="9.6" rx="2.5" ry="2.5"/>
  </g>
  <g id="c3-s2-arrow">
    <path class="c3-s2-st4" d="M317 143.7h57.3M350.9 120.3l23.4 23.4-23.4 23.4"/>
  </g>
  <g id="c3-s2-doc">
    <path class="c3-s2-st0" d="M164.4 91.5V80h86.1v119.7H239"/>
    <path class="c3-s2-st0" d="M152.4 103.4V92h86.1v119.7H227"/>
    <path class="c3-s2-st0" d="M141 103.4h86.1v119.7H141z"/>
    <path class="c3-s2-st1" d="M155 123.4h58M155 135h58M169.9 163h41.4M156.8 163h2.3M169.9 182.3h41.4M156.8 182.3h2.3M169.9 201.7h41.4M156.8 201.7h2.3"/>
    <path class="c3-s2-st2" d="M141 223.1v-96.5M186.4 223.1H141"/>
    <circle class="c3-s2-st3" cx="141" cy="126.6" r="2.5"/>
    <circle class="c3-s2-st3" cx="186.4" cy="223.1" r="2.5"/>
    <path class="c3-s2-st4" d="M238.5 92v59.8M207.5 92h31"/>
    <circle cx="238.5" cy="151.8" r="2.5"/>
    <circle cx="207.5" cy="92" r="2.5"/>
  </g>
  <g id="c3-s2-razor">
    <path class="c3-s2-st0" d="M96.3 90.9v8.8H69.7v-8.8M74.4 216.8l2.7-117.1h11.8l3 117.1v10.6c0 3.4-2.1 6.3-4.7 6.3h-8.1c-2.6 0-4.7-2.8-4.7-6.3v-10.6zM49 67.2h67.9c2.5 0 4.6 2 4.6 4.6v13.8c0 2.5-2 4.6-4.6 4.6H49c-2.5 0-4.6-2-4.6-4.6V71.7c.1-2.5 2.1-4.5 4.6-4.5z"/>
    <path class="c3-s2-st1" d="M54.2 75.2h57.6M54.2 82.1h57.6"/>
    <path class="c3-s2-st2" d="M74.4 227.4v-10.6"/>
    <path d="M79.1 233.7c-2.6 0-4.7-2.8-4.7-6.3" fill="#fff" stroke="#599cf4" stroke-width="5" stroke-linecap="round" stroke-linejoin="round"/>
    <path class="c3-s2-st2" d="M87.1 233.7h-8M74.4 216.8l1.4-61.7"/>
    <path class="c3-s2-st4" d="M121.5 71.7v6.2"/>
    <path d="M116.9 67.2c2.5 0 4.6 2 4.6 4.6" fill="#fff" stroke="#55555a" stroke-width="5" stroke-linecap="round" stroke-linejoin="round"/>
    <path class="c3-s2-st4" d="M60.2 67.2h56.7"/>
    <circle class="c3-s2-st3" cx="75.8" cy="155.1" r="2.5"/>
    <circle class="c3-s2-st3" cx="87.1" cy="233.7" r="2.5"/>
    <circle cx="121.5" cy="77.9" r="2.5"/>
    <circle cx="60.2" cy="67.2" r="2.5"/>
  </g>
</svg>