<svg id="svg-c3-s7" xmlns="http://www.w3.org/2000/svg" viewBox="0 0 317 332">
  <defs>
    <style>
      .c3-s7-cls-6{stroke:#55555a}.c3-s7-cls-5{stroke-width:5px}.c3-s7-cls-5,.c3-s7-cls-6{fill:none;stroke-linecap:round;stroke-linejoin:round}.c3-s7-cls-5{stroke:#599cf4}.c3-s7-cls-6{stroke-width:4.71px}.c3-s7-cls-7{fill:#55555a}
    </style>
  </defs>
    <rect id="c3-s7-card1" x="67.64" y="24.57" width="181.73" height="282.86" rx="4.91" transform="rotate(40 158.504 165.991)" fill="#eef4fc"/>
    <rect id="c3-s7-card2" x="67.64" y="24.57" width="181.73" height="282.86" rx="4.91" transform="rotate(20 158.5 165.988)" fill="#d5e3ec"/>
    <rect id="c3-s7-card3" x="61.21" y="29.33" width="181.73" height="282.86" rx="4.91" stroke-width="5" stroke="#55555a" fill="#fff" stroke-miterlimit="10"/>
  <g id="c3-s7-card4">
    <path d="M120.34 105.89c6-5.52 22.44-13.59 36.13-13.59q19 0 29.62 9.38t10.57 26.43a38.77 38.77 0 0 1-1.94 12.81 37.62 37.62 0 0 1-5.72 10.47q-3.78 4.94-16.35 15.91-10.08 8.58-13.32 14.26t-3.24 15.16V200m-8.2 29.61q0-10.16 9-10.15a8.51 8.51 0 0 1 6.68 2.61q2.36 2.61 2.36 7.54 0 4.77-2.39 7.43a8.53 8.53 0 0 1-6.65 2.65 9.07 9.07 0 0 1-6.42-2.36c-1.75-1.55-2.6-4.13-2.6-7.71z" fill="none" stroke-linecap="round" stroke-linejoin="round" stroke-width="5" stroke="#55555a"/>
    <path class="c3-s7-cls-5" d="M194.72 140.92a37.62 37.62 0 0 1-5.72 10.47M196.66 128.11a38.77 38.77 0 0 1-1.94 12.81M186.09 101.68q10.57 9.38 10.57 26.43M156.47 92.3q19 0 29.62 9.38M150.41 237.34c-1.69-1.56-2.54-4.14-2.54-7.72M156.83 239.7a9.07 9.07 0 0 1-6.42-2.36M163.48 237.05a8.53 8.53 0 0 1-6.65 2.65"/>
    <circle cx="156.47" cy="92.3" r="2.5" transform="rotate(-88.35 156.47 92.303)"/>
    <circle cx="188.98" cy="151.39" r="2.5"/>
    <circle cx="147.87" cy="229.58" r="2.5" transform="rotate(-88.35 147.877 229.585)"/>
    <circle cx="163.48" cy="237.05" r="2.5"/>
    <path class="c3-s7-cls-6" d="M212.53 47.21a14.42 14.42 0 0 1 8.2-3.09 9.79 9.79 0 0 1 6.73 2.13 7.6 7.6 0 0 1 2.4 6 8.82 8.82 0 0 1-.44 2.91 8.66 8.66 0 0 1-1.3 2.38 31.94 31.94 0 0 1-3.72 3.61 14.08 14.08 0 0 0-3 3.24 7 7 0 0 0-.74 3.45v.74"/>
    <path class="c3-s7-cls-7" d="M220.64 79.12a2.66 2.66 0 0 1-1.81-.7 2.62 2.62 0 0 1-.81-2 2.64 2.64 0 0 1 4.57-1.87 2.77 2.77 0 0 1 .67 1.87 2.68 2.68 0 0 1-.68 1.85 2.56 2.56 0 0 1-1.94.85z"/>
    <path class="c3-s7-cls-6" d="M105.53 284.82a14.55 14.55 0 0 1-8.21 3.08 9.81 9.81 0 0 1-6.73-2.13 7.6 7.6 0 0 1-2.4-6 8.9 8.9 0 0 1 .44-2.91 8.57 8.57 0 0 1 1.31-2.38 30.78 30.78 0 0 1 3.71-3.61 13.85 13.85 0 0 0 3-3.24 6.94 6.94 0 0 0 .74-3.44v-.75"/>
    <path class="c3-s7-cls-7" d="M97.42 252.91a2.61 2.61 0 0 1 1.8.69 2.65 2.65 0 0 1 .82 2 2.58 2.58 0 0 1-2.62 2.71 2.55 2.55 0 0 1-2-.85 2.88 2.88 0 0 1 0-3.72 2.55 2.55 0 0 1 2-.83z"/>
  </g>
</svg>