<svg id="svg-c3-s1" xmlns="http://www.w3.org/2000/svg" viewBox="0 0 537 507">
  <defs>
    <style>
      .c3-s1-st0{fill:none;stroke:#599CF4;opacity:0.2;stroke-linecap:round;stroke-linejoin:round;stroke-width:9.987px}
    </style>
  </defs>
  <g>
    <path class="c3-s1-st0" d="M532 73.047q0 7.832-.447 15.663l-.895 11.634c-5.772 74.619-32.383 173.1-55.031 246.263a220.2 220.2 0 0 1-128.659 139.567 219.815 219.815 0 0 1-155.327 2.867l-2.432-.868A219.706 219.706 0 0 1 48.848 330.408c-17.333-75.544-37.111-170.07-42.357-228.572-.3-3.133-.6-6.266-.745-9.547C5.3 86.024 5 79.461 5 73.047A222.773 222.773 0 0 1 6.491 46.5 237.253 237.253 0 0 1 13.8 5.176c0 9.4 3.133 24.016 9.547 41.319C40.5 93.632 81.522 161.2 148.049 201.329l16.408-17.9a59 59 0 0 1 43.706-19.391h120.674a59.321 59.321 0 0 1 43.854 19.391l16.26 17.9C455.478 161.055 496.648 93.483 513.8 46.5c6.265-17.154 9.249-31.473 9.4-40.871a263.315 263.315 0 0 1 7.309 40.871A224.574 224.574 0 0 1 532 73.047z"/>
    <path class="c3-s1-st0" d="M157.377 253.417h217.065s-15.961 95.764-108.533 95.764-108.532-95.764-108.532-95.764z"/>
  </g>
</svg>