<svg xmlns="http://www.w3.org/2000/svg" viewBox="0 0 325 250">
  <defs>
    <style>
      .c4-c2-younger-man-cls-3,.c4-c2-younger-man-cls-4{fill:none;stroke:#7e9fb4;stroke-linecap:round;stroke-linejoin:round}.c4-c2-younger-man-cls-3{stroke-width:5px}.c4-c2-younger-man-cls-4{stroke-width:3px}
    </style>
    <clipPath id="c4-c2-younger-man-clip-path">
      <path fill="none" d="M-.49 0h325v250h-325z"/>
    </clipPath>
  </defs>
  <g clip-path="url(#c4-c2-younger-man-clip-path)">
    <path class="c4-c2-younger-man-cls-3" d="M256.55 255.94c-3.07-50.55-66.4-53.6-66.4-53.6V181.6M135.58 181.84v20.5s-10.65-.07-27.36 6c-8.35 3-18 7.32-25 13.42s-12.56 14-14.67 24.22c-.44 2.14-.74 10.41-.87 30v33.52"/>
    <path class="c4-c2-younger-man-cls-3" d="M112.66 143.59a12.56 12.56 0 0 1-12.5-12.7c0-7.3 5.41-13.23 12.07-13.23V94.89c0-16.86 8.09-29.4 20.75-36.43 7.59-4.22 16.82-6.46 26.94-6.46a60.42 60.42 0 0 1 17.82 2.66c18.95 5.87 33.32 21.08 33.32 41.88l-.42 12-.33 9.07a9 9 0 0 1 3.58-.74c5.91 0 10.7 5.75 10.7 12.85s-4.79 12.84-10.7 12.84a9 9 0 0 1-3.68-.78l-.15.35c-9.48 35.48-27.06 49-48.79 49-14.6.03-40.94-12.29-48.61-47.54z"/>
    <path class="c4-c2-younger-man-cls-4" d="M176.38 166.2a47.34 47.34 0 0 0-14-2.5 46.28 46.28 0 0 0-14 2.5"/>
    <path d="M109.85 309.49v-31.72c0-53.24-16.34-63-16.34-63a180.84 180.84 0 0 1 21-8.93l47.88 32.32 48-32.32s13 3.77 20.82 9c0 0-19 10.72-19 64v31.72" stroke="#fa8d28" stroke-width="5" stroke-linecap="round" stroke-linejoin="round" fill="none"/>
    <path d="M203 195a102 102 0 0 1-29.65 7.81l-11 19-11-19A102 102 0 0 1 121.8 195c-1.47.82-11 11.92-11 11.92l26.54 31.28 11-29 14 16 12-15.66 11.34 28.71 27.25-32z" fill="#fff" stroke-width="3" stroke-linecap="round" stroke-linejoin="round" stroke="#7e9fb4"/>
    <path class="c4-c2-younger-man-cls-4" d="M193.84 62.77s-28.43-18.49-58.26 16.84M183 57.11s-31.5-15.58-60.5 22.5"/>
  </g>
</svg>