<svg xmlns="http://www.w3.org/2000/svg" viewBox="0 0 325 250">
  <defs>
    <style>
      .c4-c1-older-man-cls-3,.c4-c1-older-man-cls-4,.c4-c1-older-man-cls-5,.c4-c1-older-man-cls-6{fill:none}.c4-c1-older-man-cls-3,.c4-c1-older-man-cls-4{stroke:#7e9fb4}.c4-c1-older-man-cls-3,.c4-c1-older-man-cls-4,.c4-c1-older-man-cls-5,.c4-c1-older-man-cls-6{stroke-linecap:round;stroke-linejoin:round}.c4-c1-older-man-cls-3{stroke-width:5px}.c4-c1-older-man-cls-4,.c4-c1-older-man-cls-5{stroke-width:3px}.c4-c1-older-man-cls-5,.c4-c1-older-man-cls-6{stroke:#fa8d28}.c4-c1-older-man-cls-6{stroke-width:3.2px}
    </style>
    <clipPath id="c4-c1-older-man-clip-path">
      <path fill="none" d="M0 0h325v250H0z"/>
    </clipPath>
  </defs>
  <g clip-path="url(#c4-c1-older-man-clip-path)">
    <path class="c4-c1-older-man-cls-3" d="M262.18 248.94c-3.07-50.55-72.4-53.6-72.4-53.6V178.6M135.21 178.84v16.5a129.33 129.33 0 0 0-32.36 7c-8.35 3-18 7.32-25 13.42s-12.56 14-14.67 24.22c-.44 2.14-.74 10.41-.87 30v53.52"/>
    <path class="c4-c1-older-man-cls-3" d="M128.77 197.08c0 14.25 16 28.49 33.24 28.49s33.23-17.26 33.23-28.49"/>
    <path class="c4-c1-older-man-cls-4" d="M111.86 107.43c8.25-8 16.91-39.65 16.91-39.65s17.07 4.5 31.13 4.5 27.88-5.5 27.88-5.5 14.8 38.5 21.71 38.93"/>
    <rect class="c4-c1-older-man-cls-5" x="125.18" y="106.43" width="29.35" height="18.99" rx="7.6"/>
    <rect class="c4-c1-older-man-cls-5" x="167.48" y="106.43" width="29.35" height="18.99" rx="7.6"/>
    <path class="c4-c1-older-man-cls-6" d="M112.41 110.75h12.77M196.83 110.75h14.25"/>
    <path class="c4-c1-older-man-cls-5" d="M154.53 115.93h12.74"/>
    <path class="c4-c1-older-man-cls-3" d="M112.29 137.59a12.57 12.57 0 0 1-12.5-12.7c0-7.3 5.41-13.23 12.07-13.23V88.89c0-16.86 8.09-29.4 20.75-36.43 7.59-4.22 16.83-6.46 26.94-6.46a60.42 60.42 0 0 1 17.82 2.66c18.95 5.87 33.32 21.08 33.32 41.88l-.42 12-.33 9.07a9 9 0 0 1 3.58-.74c5.91 0 10.7 5.75 10.7 12.85s-4.79 12.84-10.7 12.84a9 9 0 0 1-3.68-.78l-.15.35c-9.48 35.48-14.1 49-48.79 49-24.02.03-40.9-12.29-48.61-47.54z"/>
    <path d="M262.76 323.49c0-16.17-.27-72.63-.58-74.55" fill="#edf3fb" stroke-width="5" stroke-linecap="round" stroke-linejoin="round" stroke="#7e9fb4"/>
    <path class="c4-c1-older-man-cls-4" d="M181 140.77h-12.48a8.56 8.56 0 0 1-13 0H143l-10 15 29-4 29 4zM176 161a47.34 47.34 0 0 0-14-2.5 46.28 46.28 0 0 0-14 2.5"/>
  </g>
</svg>