<svg xmlns="http://www.w3.org/2000/svg" viewBox="0 0 325 250">
  <defs>
    <style>
      .c4-c2-default-cls-3{fill:none;stroke:#7e9fb4;stroke-linecap:round;stroke-linejoin:round;stroke-width:5px}
    </style>
    <clipPath id="c4-c2-default-clip-path">
      <path fill="none" d="M-.49 0h325v250h-325z"/>
    </clipPath>
  </defs>
  <g clip-path="url(#c4-c2-default-clip-path)">
    <path class="c4-c2-default-cls-3" d="M268.43 297.22H61.68V198a54 54 0 0 1 53.84-53.84h6.62c22.59 22.33 64.16 21.79 84.66 0h7.79a53.27 53.27 0 0 1 17.16 2.84M107.6 229.11v65.97M223.41 229.94v64.59"/>
    <rect class="c4-c2-default-cls-3" x="118.5" y="20" width="93.1" height="105.22" rx="45.41"/>
    <path d="M231.75 147c21.26 7.2 37.4 27.4 37.41 51v98.1" stroke="#fa8d28" stroke-linecap="round" stroke-linejoin="round" stroke-width="5" fill="none"/>
    <path d="M231.75 144.5a2.5 2.5 0 0 0 0 5 2.5 2.5 0 0 0 2.5-2.5 1.77 1.77 0 0 0 0-.23 2.49 2.49 0 0 0-2.49-2.27" fill="#b35c17"/>
  </g>
</svg>