<svg xmlns="http://www.w3.org/2000/svg" viewBox="0 0 325 250">
  <defs>
    <style>
      .c4-c3-default-cls-3{fill:none;stroke:#7e9fb4;stroke-linecap:round;stroke-linejoin:round;stroke-width:5px}
    </style>
    <clipPath id="c4-c3-default-clip-path">
      <path fill="none" d="M0 0h325v250H0z"/>
    </clipPath>
  </defs>
  <g clip-path="url(#c4-c3-default-clip-path)" id="Layer_1" data-name="Layer 1">
    <path class="c4-c3-default-cls-3" d="M60 298v-99.41c0-29.65 24.89-53.9 54.53-53.9h6.64c22.61 22.36 64.22 21.81 84.75 0h7.81a53.91 53.91 0 0 1 53.73 53.9V298zM105.84 230.66v64.66M221.69 229.7v66.04"/>
    <rect class="c4-c3-default-cls-3" x="117.56" y="20.34" width="93.21" height="105.34" rx="45.46"/>
    <path d="M91.47 298H60v-93" stroke="#fa8d28" stroke-linejoin="round" stroke-width="5" fill="none"/>
    <path d="M60 201.31a2.5 2.5 0 0 0 0 5 2.5 2.5 0 0 0 2.5-2.5 1.62 1.62 0 0 0 0-.22 2.49 2.49 0 0 0-2.5-2.28" fill="#b35c17"/>
  </g>
</svg>