<svg xmlns="http://www.w3.org/2000/svg" viewBox="0 0 325 250">
  <defs>
    <style>
      .c4-c4-little-girl-cls-3,.c4-c4-little-girl-cls-4{fill:none;stroke:#7e9fb4;stroke-width:5px;stroke-linecap:round;stroke-linejoin:round}.c4-c4-little-girl-cls-4{stroke:#fa8d28;stroke-width:3px}.c4-c4-little-girl-cls-5{fill:#fa8d28}
    </style>
    <clipPath id="c4-c4-little-girl-clip-path">
      <path fill="none" d="M.51 1h325v250H.51z"/>
    </clipPath>
  </defs>
  <g clip-path="url(#c4-c4-little-girl-clip-path)" id="Layer_1" data-name="Layer 1">
    <path class="c4-c4-little-girl-cls-3" d="M217.32 125.41s14.85-.27 16.94 15c.88 6.43.17 30 4.32 46s24.81 19.5 24.81 19.5-5-10.84-2.28-21.8 2.21-42.86-14.69-65.56-29.61-6.35-29.61-6.35"/>
    <path class="c4-c4-little-girl-cls-4" d="M208.64 130.2a10.54 10.54 0 0 0-2.77-20.9"/>
    <path class="c4-c4-little-girl-cls-3" d="M104.37 125.41s-14.85-.27-16.94 15c-.88 6.43-.17 30-4.31 46s-24.82 19.5-24.82 19.5 5-10.84 2.29-21.8-2.21-42.91 14.68-65.61 29.61-6.35 29.61-6.35"/>
    <path class="c4-c4-little-girl-cls-4" d="M113.05 130.2a10.54 10.54 0 0 1 2.77-20.9"/>
    <path class="c4-c4-little-girl-cls-3" d="M232.34 294.72c0-7.84-.21-24.68-.43-33.81-.14-5.75-.28-10-.37-10.61M199.23 165.14a38.94 38.94 0 0 1-38.6 34.86 39.28 39.28 0 0 1-38.8-33.68s-3.13-16.1-1.45-27.05 10.57-16.85 22.1-22.48 37.38 20 49.75 7.09c12.15 9.45 7 41.26 7 41.26z"/>
    <path class="c4-c4-little-girl-cls-3" d="M140.3 194.2V212a102.4 102.4 0 0 0-25.6 5.52M183.48 194.2V212M114.7 217.52c-13.22 4.78-18.84 13.6-22.19 29.77-.35 1.7-.58 31.92-.69 47.43M140.3 212l19.9 30.22L183.47 212M231.54 250.3c-2-13.11-10.77-23.48-20.8-29.21-16.18-9.23-27.26-9.09-27.26-9.09v-18.79M123.71 174s-17.71-16.77-7.46-60.27c9-38.16 80-34.92 87.57-2.86 7.28 30.87 5 48.59-9.29 69.1"/>
    <path class="c4-c4-little-girl-cls-5" d="M137.05 162.51a2 2 0 1 0 2 2 2 2 0 0 0-2-2zM145.47 164.51a2 2 0 1 0 2 2 2 2 0 0 0-2-2zM139.05 169.6a2 2 0 1 0 2 2 2 2 0 0 0-2-2zM173.48 164.1a2 2 0 1 0 2 2 2 2 0 0 0-2-2zM181.48 162.1a2 2 0 1 0 2 2 2 2 0 0 0-2-2zM177.48 169.6a2 2 0 1 0 2 2 2 2 0 0 0-2-2z"/>
  </g>
</svg>