<svg xmlns="http://www.w3.org/2000/svg" viewBox="0 0 325 250">
  <defs>
    <style>
      .c4-card1-cls-3{fill:none;stroke:#7e9fb4;stroke-linecap:round;stroke-linejoin:round;stroke-width:5px}
    </style>
    <clipPath id="c4-card1-clip-path">
      <path fill="none" d="M-.49 0h325v250h-325z"/>
    </clipPath>
  </defs>
  <g clip-path="url(#c4-card1-clip-path)" >
    <path class="c4-card1-cls-3" d="M57.5 297.08l.2-98.82a54.05 54.05 0 0 1 53.9-53.9h6.63c12.88 12.73 31.92 18 49.71 16.22 13.46-1.38 26.22-6.83 35.06-16.22h7.8a54.51 54.51 0 0 1 54.2 53.9v98.82zM103.31 229.72v64.67M219.17 229.72v64.67"/>
    <rect class="c4-card1-cls-3" x="114.59" y="20" width="93.22" height="105.35" rx="45.46"/>
    <path stroke="#ff8e12" stroke-linecap="round" stroke-linejoin="round" stroke-width="5" fill="none" d="M264.98 198.52v58.26"/>
    <path d="M264.9 201a2.5 2.5 0 1 0 .16-5 2.49 2.49 0 0 0-2.58 2.41v.22a2.5 2.5 0 0 0 2.42 2.37" fill="#cb5c02"/>
  </g>
</svg>