<svg id="svg-c4-s1" xmlns="http://www.w3.org/2000/svg" viewBox="0 0 537 507">
    <defs>
        <style>
            .c4-s1-cls-1{fill:none;stroke:#000;stroke-linecap:round;stroke-linejoin:round;stroke-width:9.87px}
        </style>
    </defs>
    <path class="c4-s1-cls-1" d="M532 453.78V421c0-52.95-48.81-53.73-48.81-53.73h-18.48M201.29 330.25a147.88 147.88 0 0 0 137.13-1.43M269 7.85c-58.57 0-100.51 22-129 57.66"/>
    <path class="c4-s1-cls-1" d="M269 7.85c-219.56 0-205.42 308.7-127.06 491.87h57.1V328.79c-20.11-12.24-69.16-49.3-69.16-130 0-36.84 33.37-57.75 83.13-74.78 20.95 48.5 161.52 32.88 202.53 92.82-12.38 65-48 99.75-76.59 112v170.89H396C474.4 316.55 488.54 7.85 269 7.85z"/>
    <path class="c4-s1-cls-1" d="M101.89 368H53.81S5 368.87 5 421.82v74.62M338.94 398.73l-66.7 65.04-73.21-70.85M532 496.44V421c0-52.95-48.81-53.73-48.81-53.73h-47"/>
    <g>
        <path d="M253.81 271.91v-5.28q0-9.08 3.3-15.09t11.54-12.46q9.83-7.74 12.66-12a18 18 0 0 0 2.84-10.22q0-6.93-4.61-10.64t-13.28-3.71a45.41 45.41 0 0 0-14.51 2.23 101.67 101.67 0 0 0-13 5.36l-6.93-14.52a72.62 72.62 0 0 1 35.87-9.32q16.17 0 25.65 7.92t9.45 21.82a31.08 31.08 0 0 1-1.79 11 31.48 31.48 0 0 1-5.49 9.2q-3.66 4.37-12.65 11.38-7.68 6-10.27 10T270 268.2v3.71zm-3.38 26.3q0-12.45 12.12-12.45 5.94 0 9.07 3.26t3.13 9.19q0 5.87-3.17 9.28t-9 3.42q-5.87 0-9-3.34t-3.15-9.36z"/>
    </g>
</svg>