<svg id="svg-c5-s1" xmlns="http://www.w3.org/2000/svg" xmlns:xlink="http://www.w3.org/1999/xlink" viewBox="0 0 573 388.7">
  <style>
    .c5-s1-st1,.c5-s1-st2{fill:#fff;stroke:#599cf4;stroke-width:5;stroke-linecap:round;stroke-linejoin:round}.c5-s1-st2{fill:none}.c5-s1-st3{fill:#eef4fc}.c5-s1-st4{fill:#d5e3ec}.c5-s1-st6,.c5-s1-st7{fill:#fff;stroke:#55555a;stroke-width:5;stroke-linecap:round;stroke-linejoin:round}.c5-s1-st7{fill:none;stroke:#599cf4;stroke-width:5.021}
  </style>
  <g id="c5-s1-people-card">
    <path fill="#eef4fc" stroke="#55555a" stroke-width="5" stroke-linecap="round" stroke-linejoin="round" d="M200.8 2.6h369.6v268.6H200.8z"/>
    <path class="c5-s1-st1" d="M226.1 91.5V68.3c.1-7 5.8-12.6 12.7-12.6h1.6c5.3 5.2 15 5.1 19.8 0h1.8c6.9 0 12.5 5.7 12.5 12.6v23.2h-48.4z"/>
    <path class="c5-s1-st2" d="M236.8 75.8v15.1M263.8 75.6V91"/>
    <path class="c5-s1-st1" d="M250.1 26.7h.5c5.9 0 10.6 4.8 10.6 10.6v3.4c0 5.9-4.8 10.6-10.6 10.6h-.5c-5.9 0-10.6-4.8-10.6-10.6v-3.4c0-5.9 4.8-10.6 10.6-10.6zM293.8 91.5V68.3c.1-7 5.8-12.6 12.7-12.6h1.5c5.3 5.2 15 5.1 19.8 0h1.8c6.9 0 12.6 5.7 12.6 12.6v23.2h-48.4z"/>
    <path class="c5-s1-st2" d="M304.4 75.8v15.1M331.5 75.6V91"/>
    <path class="c5-s1-st1" d="M317.8 26.7h.5c5.9 0 10.6 4.8 10.6 10.6v3.4c0 5.9-4.8 10.6-10.6 10.6h-.5c-5.9 0-10.6-4.8-10.6-10.6v-3.4c0-5.9 4.7-10.6 10.6-10.6z"/>
    <g>
      <path class="c5-s1-st1" d="M361.4 91.5V68.3c.1-7 5.8-12.6 12.7-12.6h1.6c5.3 5.2 15 5.1 19.8 0h1.8c6.9 0 12.5 5.7 12.5 12.6v23.2h-48.4z"/>
      <path class="c5-s1-st2" d="M372.1 75.8v15.1M399.2 75.6V91"/>
      <path class="c5-s1-st1" d="M385.5 26.7h.5c5.9 0 10.6 4.8 10.6 10.6v3.4c0 5.9-4.8 10.6-10.6 10.6h-.5c-5.9 0-10.6-4.8-10.6-10.6v-3.4c-.1-5.9 4.7-10.6 10.6-10.6z"/>
    </g>
    <g>
      <path class="c5-s1-st1" d="M429.1 91.5V68.3c.1-7 5.8-12.6 12.7-12.6h1.5c5.3 5.2 15 5.1 19.8 0h1.8c6.9 0 12.5 5.7 12.5 12.6v23.2h-48.3z"/>
      <path class="c5-s1-st2" d="M439.8 75.8v15.1M466.8 75.6V91"/>
      <path class="c5-s1-st1" d="M453.1 26.7h.5c5.9 0 10.6 4.8 10.6 10.6v3.4c0 5.9-4.8 10.6-10.6 10.6h-.5c-5.9 0-10.6-4.8-10.6-10.6v-3.4c0-5.9 4.8-10.6 10.6-10.6z"/>
    </g>
    <g>
      <path class="c5-s1-st1" d="M496.7 91.5V68.3c.1-7 5.8-12.6 12.7-12.6h1.5c5.3 5.2 15 5.1 19.8 0h1.8c6.9 0 12.5 5.7 12.5 12.6v23.2h-48.3z"/>
      <path class="c5-s1-st2" d="M507.4 75.8v15.1M534.5 75.6V91"/>
      <path class="c5-s1-st1" d="M520.8 26.7h.5c5.9 0 10.6 4.8 10.6 10.6v3.4c0 5.9-4.8 10.6-10.6 10.6h-.5c-5.9 0-10.6-4.8-10.6-10.6v-3.4c0-5.9 4.7-10.6 10.6-10.6z"/>
    </g>
    <g>
      <path class="c5-s1-st1" d="M226.1 169.5v-23.2c.1-7 5.8-12.6 12.7-12.6h1.6c5.3 5.2 15 5.1 19.8 0h1.8c6.9 0 12.5 5.7 12.5 12.6v23.2h-48.4z"/>
      <path class="c5-s1-st2" d="M236.8 153.8v15.1M263.8 153.6V169"/>
      <path class="c5-s1-st1" d="M250.1 104.7h.5c5.9 0 10.6 4.8 10.6 10.6v3.4c0 5.9-4.8 10.6-10.6 10.6h-.5c-5.9 0-10.6-4.8-10.6-10.6v-3.4c0-5.9 4.8-10.6 10.6-10.6zM293.8 169.5v-23.2c.1-7 5.8-12.6 12.7-12.6h1.5c5.3 5.2 15 5.1 19.8 0h1.8c6.9 0 12.5 5.6 12.6 12.6v23.2h-48.4z"/>
      <path class="c5-s1-st2" d="M304.4 153.8v15.1M331.5 153.6V169"/>
      <path class="c5-s1-st1" d="M317.8 104.7h.5c5.9 0 10.6 4.8 10.6 10.6v3.4c0 5.9-4.8 10.6-10.6 10.6h-.5c-5.9 0-10.6-4.8-10.6-10.6v-3.4c0-5.9 4.7-10.6 10.6-10.6z"/>
      <g>
        <path class="c5-s1-st1" d="M361.4 169.5v-23.2c.1-7 5.8-12.6 12.7-12.6h1.6c5.3 5.2 15 5.1 19.8 0h1.8c6.9 0 12.5 5.7 12.5 12.6v23.2h-48.4z"/>
        <path class="c5-s1-st2" d="M372.1 153.8v15.1M399.2 153.6V169"/>
        <path class="c5-s1-st1" d="M385.5 104.7h.5c5.9 0 10.6 4.8 10.6 10.6v3.4c0 5.9-4.8 10.6-10.6 10.6h-.5c-5.9 0-10.6-4.8-10.6-10.6v-3.4c-.1-5.9 4.7-10.6 10.6-10.6z"/>
      </g>
      <g>
        <path class="c5-s1-st1" d="M429.1 169.5v-23.2c.1-7 5.8-12.6 12.7-12.6h1.5c5.3 5.2 15 5.1 19.8 0h1.8c6.9 0 12.5 5.7 12.5 12.6v23.2h-48.3z"/>
        <path class="c5-s1-st2" d="M439.8 153.8v15.1M466.8 153.6V169"/>
        <path class="c5-s1-st1" d="M453.1 104.7h.5c5.9 0 10.6 4.8 10.6 10.6v3.4c0 5.9-4.8 10.6-10.6 10.6h-.5c-5.9 0-10.6-4.8-10.6-10.6v-3.4c0-5.9 4.8-10.6 10.6-10.6z"/>
      </g>
      <g>
        <path class="c5-s1-st1" d="M496.7 169.5v-23.2c.1-7 5.8-12.6 12.7-12.6h1.5c5.3 5.2 15 5.1 19.8 0h1.8c6.9 0 12.5 5.7 12.5 12.6v23.2h-48.3z"/>
        <path class="c5-s1-st2" d="M507.4 153.8v15.1M534.5 153.6V169"/>
        <path class="c5-s1-st1" d="M520.8 104.7h.5c5.9 0 10.6 4.8 10.6 10.6v3.4c0 5.9-4.8 10.6-10.6 10.6h-.5c-5.9 0-10.6-4.8-10.6-10.6v-3.4c0-5.9 4.7-10.6 10.6-10.6z"/>
      </g>
    </g>
    <g>
      <path class="c5-s1-st1" d="M226.1 247.5v-23.2c.1-7 5.8-12.6 12.7-12.6h1.6c5.3 5.2 15 5.1 19.8 0h1.8c6.9 0 12.5 5.7 12.5 12.6v23.2h-48.4z"/>
      <path class="c5-s1-st2" d="M236.8 231.8v15.1M263.8 231.6V247"/>
      <path class="c5-s1-st1" d="M250.1 182.7h.5c5.9 0 10.6 4.8 10.6 10.6v3.4c0 5.9-4.8 10.6-10.6 10.6h-.5c-5.9 0-10.6-4.8-10.6-10.6v-3.4c0-5.9 4.8-10.6 10.6-10.6zM293.8 247.5v-23.2c.1-7 5.8-12.6 12.7-12.6h1.5c5.3 5.2 15 5.1 19.8 0h1.8c6.9 0 12.5 5.6 12.6 12.6v23.2h-48.4z"/>
      <path class="c5-s1-st2" d="M304.4 231.8v15.1M331.5 231.6V247"/>
      <path class="c5-s1-st1" d="M317.8 182.7h.5c5.9 0 10.6 4.8 10.6 10.6v3.4c0 5.9-4.8 10.6-10.6 10.6h-.5c-5.9 0-10.6-4.8-10.6-10.6v-3.4c0-5.9 4.7-10.6 10.6-10.6z"/>
      <g>
        <path class="c5-s1-st1" d="M361.4 247.5v-23.2c.1-7 5.8-12.6 12.7-12.6h1.6c5.3 5.2 15 5.1 19.8 0h1.8c6.9 0 12.5 5.7 12.5 12.6v23.2h-48.4z"/>
        <path class="c5-s1-st2" d="M372.1 231.8v15.1M399.2 231.6V247"/>
        <path class="c5-s1-st1" d="M385.5 182.7h.5c5.9 0 10.6 4.8 10.6 10.6v3.4c0 5.9-4.8 10.6-10.6 10.6h-.5c-5.9 0-10.6-4.8-10.6-10.6v-3.4c-.1-5.9 4.7-10.6 10.6-10.6z"/>
      </g>
      <g>
        <path class="c5-s1-st1" d="M429.1 247.5v-23.2c.1-7 5.8-12.6 12.7-12.6h1.5c5.3 5.2 15 5.1 19.8 0h1.8c6.9 0 12.5 5.7 12.5 12.6v23.2h-48.3z"/>
        <path class="c5-s1-st2" d="M439.8 231.8v15.1M466.8 231.6V247"/>
        <path class="c5-s1-st1" d="M453.1 182.7h.5c5.9 0 10.6 4.8 10.6 10.6v3.4c0 5.9-4.8 10.6-10.6 10.6h-.5c-5.9 0-10.6-4.8-10.6-10.6v-3.4c0-5.9 4.8-10.6 10.6-10.6z"/>
      </g>
      <g>
        <path class="c5-s1-st1" d="M496.7 247.5v-23.2c.1-7 5.8-12.6 12.7-12.6h1.5c5.3 5.2 15 5.1 19.8 0h1.8c6.9 0 12.5 5.7 12.5 12.6v23.2h-48.3z"/>
        <path class="c5-s1-st2" d="M507.4 231.8v15.1M534.5 231.6V247"/>
        <path class="c5-s1-st1" d="M520.8 182.7h.5c5.9 0 10.6 4.8 10.6 10.6v3.4c0 5.9-4.8 10.6-10.6 10.6h-.5c-5.9 0-10.6-4.8-10.6-10.6v-3.4c0-5.9 4.7-10.6 10.6-10.6z"/>
      </g>
    </g>
  </g>
  <g id="c5-s1-magnifier">
    <path class="c5-s1-st3" d="M50.9 376.3l-22.3-43.7L179.2 260l22.3 43.7z"/>
    <path class="c5-s1-st4" d="M35.7 384.1c-12.1 6.2-26.8 1.4-33-10.7-6.2-12.1-1.4-26.8 10.7-33l15.3-7.8L51 376.2l-15.3 7.9z"/>
    <g>
      <path class="c5-s1-st4" d="M283.6 103.8c-72 0-130.3 58.3-130.3 130.3s58.3 130.3 130.3 130.3 130.3-58.3 130.3-130.3-58.3-130.3-130.3-130.3zm0 222.5c-50.9 0-92.2-41.3-92.2-92.2 0-50.9 41.3-92.2 92.2-92.2 50.9 0 92.2 41.3 92.2 92.2 0 50.9-41.3 92.2-92.2 92.2z"/>
      <path class="c5-s1-st3" d="M283.6 111.5c-67.7 0-122.6 54.9-122.6 122.6s54.9 122.6 122.6 122.6 122.6-54.9 122.6-122.6-54.9-122.6-122.6-122.6zm0 223.4c-55.7 0-100.8-45.1-100.8-100.8 0-55.7 45.1-100.8 100.8-100.8 55.7 0 100.8 45.1 100.8 100.8 0 55.6-45.1 100.8-100.8 100.8z"/>
      <path class="c5-s1-st4" d="M283.6 133.3c-55.7 0-100.8 45.1-100.8 100.8 0 55.7 45.1 100.8 100.8 100.8 55.7 0 100.8-45.1 100.8-100.8 0-55.7-45.1-100.8-100.8-100.8zm0 193c-50.9 0-92.2-41.3-92.2-92.2 0-50.9 41.3-92.2 92.2-92.2 50.9 0 92.2 41.3 92.2 92.2 0 50.9-41.3 92.2-92.2 92.2z"/>
    </g>
  </g>
  <g id="c5-s1-magnifier-inner">
    <defs>
      <circle id="c5-s1-SVGID_1_" cx="283.6" cy="234.1" r="92.2"/>
    </defs>
    <use xlink:href="#c5-s1-SVGID_1_" overflow="visible" fill="#fff"/>
    <clipPath id="c5-s1-SVGID_2_">
      <use xlink:href="#c5-s1-SVGID_1_" overflow="visible"/>
    </clipPath>
    <g clip-path="url(#c5-s1-SVGID_2_)">
      <path transform="matrix(.01595 -.9999 .9999 .01595 -34.94 498.988)" class="c5-s1-st6" d="M220.1 253.2h31.8v28h-31.8z"/>
      <path class="c5-s1-st6" d="M266.2 228.2c0 2.3-.3 4.6-.9 6.8-.1.5-.3 1-.4 1.6-4.9 15.6-21.5 24.3-37.1 19.4-15.6-4.9-24.3-21.5-19.4-37.1s21.5-24.3 37.1-19.4c3.1 1 6.1 2.5 8.7 4.4 1.3 1 2.5 2 3.7 3.2 3.6 3.7 6.2 8.4 7.5 13.5.6 2.5.9 5.1.8 7.6z"/>
      <path class="c5-s1-st6" d="M256.5 249.7c3.9-3.5 6.8-8.1 8.4-13.1.2-.5.3-1 .4-1.6.3-1.2.5-2.5.7-3.7.1-1 .2-2.1.2-3.1 0-2.6-.3-5.1-.9-7.6-.1 4-5.1 15.7-15.4 21.7l-1.8-2c-1.2-1.4-3-2.2-4.9-2.3l-13.5-.2c-1.9 0-3.7.7-4.9 2.1l-1.9 2c-10.1-6.3-14.8-18.3-14.7-22.3-4.5 15.7 4.7 32.1 20.4 36.5 9.8 2.9 20.3.4 27.9-6.4zM187.6 296.3l.4-24.6c.2-10.7 10-10.7 10-10.7l19.1.3 19.5 19.5 20.1-19 17.6.3s9.8.3 9.6 10.9l-.4 24.8-95.9-1.5z"/>
      <path class="c5-s1-st6" d="M273.6 262.1l-16.9-.3-20.1 19M208.2 235.7c2.7 9.5 9.9 17.1 19.3 20.2M248.1 207.8c2.9 2 14.6 8.5 19.4 12.8.1-6.4-7.3-23.4-16.6-19.9"/>
      <path class="c5-s1-st6" d="M248.1 207.8s3.5-2.4 3-5.9-1.6-7.5-13.9-7.7c-20.1-.3-33 20-32.4 30.1 2.3-3.1 8.8-8.2 9.4-8.6.1 1.6.5 3.2 1.3 4.7 1.1-1.5 2.3-2.8 3.6-4.1 9.2-8 29-8.5 29-8.5z"/>
      <path class="c5-s1-st6" d="M242.8 194.7c-1.9-.3-3.7-.4-5.6-.5-11.8-.2-21.1 6.7-26.7 14.5"/>
      <g>
        <path class="c5-s1-st7" d="M324.4 222.2c-14.6-.2-26.6 11.4-26.9 26-.2 14.6 11.4 26.6 26 26.9 14.6.2 26.6-11.4 26.9-26l-26.4-.4.4-26.5z"/>
        <path class="c5-s1-st7" d="M324.4 222.1l-.4 26.4 26.4.4c.3-14.5-11.4-26.6-26-26.8z"/>
        <defs>
          <path id="c5-s1-SVGID_3_" d="M324.4 222.2c-14.6-.2-26.6 11.4-26.9 26-.2 14.6 11.4 26.6 26 26.9 14.6.2 26.6-11.4 26.9-26l-26.4-.4.4-26.5z"/>
        </defs>
        <clipPath id="c5-s1-SVGID_4_">
          <use xlink:href="#c5-s1-SVGID_3_" overflow="visible"/>
        </clipPath>
        <g clip-path="url(#c5-s1-SVGID_4_)">
          <path class="c5-s1-st7" d="M360.4 272.6l-61.8-63.8M353.5 279.3l-61.8-63.9M346.6 286l-61.9-63.9M339.7 292.7l-61.9-63.9M332.8 299.4l-61.9-63.9"/>
        </g>
        <path d="M324.4 222.2c-14.6-.2-26.6 11.4-26.9 26-.2 14.6 11.4 26.6 26 26.9 14.6.2 26.6-11.4 26.9-26l-26.4-.4.4-26.5z" fill="none" stroke="#599cf4" stroke-width="5.021" stroke-linejoin="round"/>
      </g>
      <path class="c5-s1-st2" d="M287.1 178l57.2.9M286.9 190.4l58.5 1M286.7 202.2l38.5.7"/>
    </g>
  </g>
</svg>