<svg id="svg-c5-s7" xmlns="http://www.w3.org/2000/svg" viewBox="0 0 171 190">
  <defs>
    <style>
      .c5-s7-cls-3{fill:#fff}.c5-s7-cls-4,.c5-s7-cls-5{fill:none;stroke-linecap:round;stroke-linejoin:round;stroke-width:5px}.c5-s7-cls-4{stroke:#55555a}.c5-s7-cls-5{stroke:#599cf4}
    </style>
  </defs>
  <g >
    <path fill="#d6e1e9" d="M108.95 112.2H62.94v20.37l22.56 4.93 23.45-4.93V112.2z"/>
    <circle cx="85.5" cy="85.75" r="44.7" fill="#eef4fc"/>
    <circle class="c5-s7-cls-3" cx="68.89" cy="63.73" r="10.52"/>
    <circle class="c5-s7-cls-3" cx="57.97" cy="78.98" r="4.24"/>
    <path class="c5-s7-cls-4" d="M109 129.83c0 3.63-10.3 6.58-23 6.58s-23-2.95-23-6.58M109 139.39c0 3.63-10.3 6.57-23 6.57s-23-2.94-23-6.57M109 148.94c0 3.63-10.3 6.57-23 6.57s-23-2.94-23-6.57M109 158.49c0 3.63-10.3 6.57-23 6.57s-23-2.94-23-6.57M62.94 162.48v-32.13M108.95 130.35v32.13M109 162.48a23 23 0 1 1-46 0"/>
    <path class="c5-s7-cls-5" d="M85.5 24.22V2.75M54.74 32.47L44 13.87M32.22 54.99l-18.6-10.74M23.98 85.75H2.5M32.22 116.52l-18.6 10.73M138.79 116.52l18.59 10.73M147.03 85.75h21.47M138.79 54.99l18.59-10.74M116.27 32.47L127 13.87"/>
  </g>
</svg>