<svg id="svg-c5-s10" xmlns="http://www.w3.org/2000/svg" xmlns:xlink="http://www.w3.org/1999/xlink" viewBox="0 0 999 414.5">
  <style>
    .c5-s10-st2{fill:#fff}.c5-s10-st11,.c5-s10-st12,.c5-s10-st13,.c5-s10-st15,.c5-s10-st3,.c5-s10-st6,.c5-s10-st7{fill:none;stroke:#55555a;stroke-width:5;stroke-linecap:round;stroke-linejoin:round}.c5-s10-st11,.c5-s10-st12,.c5-s10-st13,.c5-s10-st15,.c5-s10-st6,.c5-s10-st7{stroke-width:3}.c5-s10-st11,.c5-s10-st12,.c5-s10-st13,.c5-s10-st15,.c5-s10-st7{stroke:#599cf4;stroke-width:5}.c5-s10-st11,.c5-s10-st12,.c5-s10-st13,.c5-s10-st15{stroke:#55555a;stroke-width:5.011}.c5-s10-st12,.c5-s10-st13,.c5-s10-st15{stroke:#599cf4;stroke-width:3}.c5-s10-st13,.c5-s10-st15{stroke-width:3.007}.c5-s10-st15{fill:#fff}
  </style>
  <g id="c5-s10-boy">
    <path d="M225.2 92.5l223.5-66.7c5.3-1.6 10.9 1.4 12.5 6.7l82.5 276.2c1.6 5.3-1.4 10.9-6.7 12.5L313.4 388c-5.3 1.6-10.9-1.4-12.5-6.7L218.5 105c-1.6-5.3 1.4-10.9 6.7-12.5z" fill="#d5e3ec"/>
    <defs>
      <path id="c5-s10-SVGID_1_" d="M225.2 92.5l223.5-66.7c5.3-1.6 10.9 1.4 12.5 6.7l82.5 276.2c1.6 5.3-1.4 10.9-6.7 12.5L313.4 388c-5.3 1.6-10.9-1.4-12.5-6.7L218.5 105c-1.6-5.3 1.4-10.9 6.7-12.5z"/>
    </defs>
    <clipPath id="c5-s10-SVGID_2_">
      <use xlink:href="#c5-s10-SVGID_1_" overflow="visible"/>
    </clipPath>
    <g clip-path="url(#c5-s10-SVGID_2_)">
      <path class="c5-s10-st2" d="M499.8 276.3c-10.5-28.6-37-34.6-56.4-34.7l.2-.6-12.7-7.9c-3.5 2.9-7.2 5.6-11.1 8.1l-5.1-17.2-1.7.5c6.6-10 10.1-24.4 9.5-44.1v-.4c1.3.2 2.5.1 3.8-.3 5.7-1.7 8.6-8.6 6.6-15.4s-8.3-11-14-9.3c-1.2.4-2.3.9-3.2 1.7l-2.3-8.8-3-11.6c-4.1-13.7-14-23-26.2-27.5-5.7-2.1-11.7-3.1-17.8-3.2-6.1 0-12.1.8-17.9 2.6-9.7 2.9-17.9 7.7-24 13.9-10.1 10.4-14.3 24.7-9.5 40.9l2.4 8.1 4.1 13.7c-6.4 1.9-9.9 9.1-7.8 16.2 1.9 6.7 8.9 10.5 15.6 8.6h.1c9.2 16.7 21.6 25.8 33.4 30l-.4.1 5.1 17.2c-4.9.1-9.8-.1-14.6-.7-1.2 1.2-7.2 14.6-7.2 14.6l.5.3c-.8.6-1.7 1.2-2.5 1.8-7.2 5.3-15.2 12.2-20.2 20.1s-8 17-7.1 27.5c.2 2.2 2.3 10.2 7.8 29.1.6 2.1 9.1 30.6 9.6 32.2L516 328.6c-4.6-15.6-15.3-50.5-16.2-52.3z"/>
      <path class="c5-s10-st3" d="M500.1 276.3c-17.4-47.7-79.1-32.4-79.1-32.4l-5.9-19.9M362.7 239.8l5.9 19.7s-10.2 3-24.6 13.6c-7.2 5.3-15.2 12.2-20.2 20.1s-8 17-7.1 27.5c.2 2.2 2.3 10.2 7.8 29.1.6 2.1 9.1 30.6 9.6 32.2"/>
      <path d="M329.7 209.6c-6.7 2-13.7-1.9-15.6-8.5v-.1c-2.1-7 1.4-14.3 7.8-16.2l-4.1-13.7-2.4-8.1c-4.8-16.2-.7-30.6 9.5-40.9 6.1-6.2 14.3-11 24-13.9 5.8-1.7 11.8-2.6 17.9-2.6 19.9.2 38 10.7 44 30.7l3 11.6 2.3 8.8c.9-.8 2-1.4 3.2-1.7 5.7-1.7 11.9 2.5 14 9.3s-.9 13.7-6.6 15.4c-1.2.4-2.5.5-3.8.3v.4c1.1 36.8-11.9 54.9-32.8 61.1-14.1 4.1-42.9-.2-60.4-31.9z" fill="#fff" stroke="#55555a" stroke-width="5" stroke-linecap="round" stroke-linejoin="round"/>
      <path d="M516.3 328.5c-4.6-15.5-15.3-50.5-16.2-52.2" fill="#edf3fb" stroke="#55555a" stroke-width="5" stroke-linecap="round" stroke-linejoin="round"/>
      <path class="c5-s10-st7" d="M374.6 369.7l-9.1-30.5c-15.3-51.1-33.7-55.8-33.7-55.8 5.5-5.4 11.6-10.3 18-14.4l54.8 17.2 36.8-44.8s13.5 0 22.6 2.6c0 0-15.1 15.7.1 66.9l9.1 30.5"/>
      <path d="M431.2 233.1c-7.9 6.6-16.7 12-26.2 16l-5.1 21.4-16-15.1c-10.1 1.9-20.5 2.2-30.7 1-1.2 1.2-7.2 14.6-7.2 14.6l34.5 22.4 2.3-31.1 18 11.4 7-18.5 19.1 24.3 17-38.6-12.7-7.8z" fill="#fff" stroke="#55555a" stroke-width="3" stroke-linecap="round" stroke-linejoin="round"/>
      <path class="c5-s10-st6" d="M384.5 108.7s-32.6-9.6-51.1 32.9M372.5 106.4s-34.7-5.9-51.6 39"/>
    </g>
  </g>
  <g id="c5-s10-girl">
    <path d="M543.5 71.2l230.2 37.9c5.5.9 9.2 6.1 8.3 11.5l-46.8 284.5c-.9 5.5-6.1 9.2-11.5 8.3l-230.2-37.9c-5.5-.9-9.2-6.1-8.3-11.5L532 79.5c.9-5.5 6.1-9.2 11.5-8.3z" fill="#eef4fc"/>
    <defs>
      <path id="c5-s10-SVGID_3_" d="M543.5 71.2l230.2 37.9c5.5.9 9.2 6.1 8.3 11.5l-46.8 284.5c-.9 5.5-6.1 9.2-11.5 8.3l-230.2-37.9c-5.5-.9-9.2-6.1-8.3-11.5L532 79.5c.9-5.5 6.1-9.2 11.5-8.3z"/>
    </defs>
    <clipPath id="c5-s10-SVGID_4_">
      <use xlink:href="#c5-s10-SVGID_3_" overflow="visible"/>
    </clipPath>
    <g clip-path="url(#c5-s10-SVGID_4_)">
      <path class="c5-s10-st2" d="M703.4 345.3c1.8-17.7-6.9-30.1-17.8-38.6l4.5.6c7.7-26.1-4.6-63.4-.5-89.8 3.2 4.3 8.1 6.2 10.9 4.2 2.9-2.1 2.6-7.4-.7-11.9-1.2-1.7-2.7-3.1-4.5-4.1.3-1 .4-2 .4-3 2-.4 4-1.2 5.7-2.5 4.5-3.2 6.5-8.2 4.4-11.1-1.6-2.2-5-2.5-8.6-1.2 0-6.2-1.7-12.2-5-17.5-12.6-18.7-32.1-22-42.6-23.7l-.5-.1c-15.7-2.5-70.3-6.4-61.2 42.7.1.5.1.9.2 1.4-1.2.3-2.1.6-2.5.7l2.7.4c3.7 30.5-27.7 66.7-29 97.1l2 .3c-2.2 1-4.4 2.1-6.5 3.4-7.1 4.2-12.6 10.6-15.6 18.3-.7 1.7-2 8.6-4.8 25.1-.3 1.8-8.7 53.1-8.9 54.5l165.9 27.3 12-72.5z"/>
      <path class="c5-s10-st11" d="M654.3 271.2l-3.2 19.9s56.9 11.8 52.6 54.6l-11.8 72.5"/>
      <path class="c5-s10-st3" d="M608.8 262.2l-3.5 21.5c-9.4-.7-18.8-.2-28.1 1.5-7.4 1.4-15.2 3.8-22 8-7.1 4.2-12.6 10.6-15.6 18.3-.7 1.7-2 8.6-4.8 25.1-.3 1.8-8.7 53.1-8.9 54.5"/>
      <path class="c5-s10-st11" d="M607.7 404.4l8.6-52.9-13.7-66.8M616.6 351.6l36.1-60.1"/>
      <path class="c5-s10-st3" d="M681.6 223.9l-3.4 17.8c-5.7 21-26.3 34.3-47.8 30.9-21.2-3.4-36.6-22.3-36-43.2l3.3-20.3s17.8-63.6 50.2-36.7c31.7-16.9 33.7 51.5 33.7 51.5z"/>
      <path class="c5-s10-st3" d="M559.7 289.5c1.3-31.3 34.4-68.7 28.6-99.7-9.2-49.1 45.4-45.2 61.2-42.7l.5.1c10.5 1.7 30.1 5 42.6 23.7 0 0 10.6 14.7.9 34.8-12.4 25.9 5.9 71.6-3.1 102.1"/>
      <path class="c5-s10-st12" d="M586 191.9c5.1-1.6 60.2-17.1 108.8 17.9"/>
      <path class="c5-s10-st13" d="M601.8 280.4s-19.3 68.1 15.4 73.8 38.2-65 38.2-65"/>
      <ellipse transform="rotate(-35.659 697.943 195.343)" cx="698" cy="195.4" rx="10.1" ry="6.4" fill="#fff" stroke="#599cf4" stroke-width="3" stroke-linecap="round" stroke-linejoin="round"/>
      <ellipse transform="rotate(-35.659 676.348 210.839)" class="c5-s10-st15" cx="676.4" cy="210.9" rx="10.1" ry="6.4"/>
      <ellipse transform="rotate(-35.679 694.593 213.82)" class="c5-s10-st15" cx="694.6" cy="213.8" rx="6.4" ry="10.1"/>
      <ellipse transform="rotate(-35.659 679.399 192.295)" class="c5-s10-st15" cx="679.4" cy="192.3" rx="6.4" ry="10.1"/>
      <circle class="c5-s10-st15" cx="686.7" cy="203.4" r="9.3"/>
      <path class="c5-s10-st12" d="M601.8 280.4s-18.2 61.2 16.5 66.9 37.1-58.1 37.1-58.1"/>
      <path class="c5-s10-st13" d="M601.8 280.4s-20.6 76 14.1 81.7 39.5-72.9 39.5-72.9"/>
      <path class="c5-s10-st13" d="M601.8 280.4s-22.5 87.9 12.1 93.6 41.5-84.8 41.5-84.8"/>
    </g>
  </g>
  <g id="c5-s10-heart">
    <path class="c5-s10-st7" d="M928.9 35.7c-.7-19-15-33.2-33.2-33.2-11.7 0-22.5 6.1-28.6 16.2-6.1-10-16.9-16.1-28.6-16.2-18.5 0-32.8 14.3-33.2 33.2-.7 19 15.2 36 62 68.8 46.4-32.8 62.3-49.8 61.6-68.8z" id="Layer_2"/>
  </g>
</svg>