<?xml version="1.0" encoding="utf-8"?>
<!-- Generator: Adobe Illustrator 22.0.1, SVG Export Plug-In . SVG Version: 6.00 Build 0)  -->
<svg version="1.1" id="Layer_1" xmlns="http://www.w3.org/2000/svg" xmlns:xlink="http://www.w3.org/1999/xlink" x="0px" y="0px"
	 viewBox="0 0 914 333.4" style="enable-background:new 0 0 914 333.4;" xml:space="preserve">
<style type="text/css">
	.st0{fill:#EEF4FC;}
	.st1{fill:#D5E3EC;}
	.st2{fill:none;stroke:#7FA0B5;stroke-width:5;stroke-linecap:round;stroke-linejoin:round;}
	.st3{fill:none;stroke:#599CF4;stroke-width:5;stroke-linecap:round;stroke-linejoin:round;}
	.st4{fill:none;stroke:#55555A;stroke-width:5;stroke-linecap:round;stroke-linejoin:round;}
	.st5{fill:#36568A;}
	.st6{fill:#FFFFFF;stroke:#599CF4;stroke-width:5;stroke-linecap:round;stroke-linejoin:round;}
	.st7{fill:#FFFFFF;stroke:#55555A;stroke-width:5;stroke-linecap:round;stroke-linejoin:round;}
</style>
<path class="st0" d="M394.8,17.5c-27.5,12.6-44.5,44.5-31.9,73.7c6.8,15.7,19.8,28,28.6,42.6c8.9,14.9,22.3,38.3,2.9,51
	c-1.6,1-0.1,3.6,1.5,2.6c12.8-8.4,13.7-22.7,8.1-35.8c-6.9-16.4-17.2-30.3-27.8-44.5c-11.2-14.9-17.7-31.4-12.7-50
	c4.5-16.8,17.2-29.8,32.8-36.9C398.1,19.3,396.5,16.7,394.8,17.5L394.8,17.5z"/>
<path class="st0" d="M437.8,78.9c-13.2,11.5-9.3,30.3-2.5,44.1c4.7,9.5,10.8,18.4,13.8,28.6c3.4,10.9,1.3,22.8-5.6,31.9
	c-1.2,1.5,1.4,3,2.6,1.5c11.9-15.7,7.8-33.6-0.8-49.7c-8.3-15.6-22.7-39.2-5.4-54.3C441.3,79.8,439.2,77.7,437.8,78.9z"/>
<g>
	<path class="st1" d="M504.9,72.8c0,0,0.5,0.7,1.8,2.1c-3.9,5.4-6.3,7.2-22.3,23.2c-18.5,18.4-15.8,100-15.8,100h6.9
		c0,0-1-81.4,14-96.4C501.2,90,501.2,90,512,80.3l2.3,1.8c11.2,7.6,36.4-4.1,45.4-13.1c3.8-3.8,0.8-11.6-5.1-19.5L503,59.1
		C502.2,64.4,502.7,69.3,504.9,72.8z"/>
	<path class="st2" d="M497.3,155.6L497.3,155.6c4.1,0.2,7.5-3.1,7.7-7.2c0.2-4.1-3.1-7.5-7.2-7.7c-0.2,0-0.4,0-0.5,0H358.6
		c-4.1-0.2-7.5,3.1-7.7,7.2c-0.2,4.1,3.1,7.5,7.2,7.7c0.2,0,0.4,0,0.5,0c-8.5,14.3-13,30.6-12.9,47.2c0,48.4,36.8,77.2,82.2,77.2
		s82.2-28.8,82.2-77.2C510.3,186.2,505.8,169.9,497.3,155.6z"/>
	<path class="st3" d="M440.4,140.8h-81.7c-4.1-0.2-7.5,3.1-7.7,7.2c-0.2,4.1,3.1,7.5,7.2,7.7c0.2,0,0.4,0,0.5,0
		c-7.2,12.1-11.5,25.6-12.6,39.7"/>
	<path class="st1" d="M354.5,201.8c0,43.2,32.9,68.9,73.4,68.9s73.4-25.7,73.4-68.9c0-2.2-0.1-4.3-0.2-6.5H354.8
		C354.6,197.4,354.5,199.6,354.5,201.8z"/>
	<path class="st4" d="M514.1,213.9c0,0-50,8.7-86.1,8.7s-86.1-8.7-86.1-8.7"/>
	<polyline class="st4" points="346.2,214.8 322.2,330.4 307.8,330.4 	"/>
	<polyline class="st4" points="509,214.8 532.9,330.4 547.3,330.4 	"/>
	<path class="st0" d="M425.9,330.4c-4.6,0-13.3-5.5-13.3-15.1c0-14,3.9-15.8,3.9-15.8c2.1,4.7,7.2,8.4,7.2,8.4s5.7-13.7,5.3-21.4
		c9.6,2.9,12.4,11.3,13.3,21.9C443.1,320,437.4,330.4,425.9,330.4z"/>
	<path class="st1" d="M426.6,330.4c-2.4,0-6.9-2.8-6.9-7.8c0.1-2,0.3-3.9,0.7-5.8c2,0.6,3.9,1.7,5.5,3c0,0,6-9.6,6.8-13.8
		c2.4,1.7,2.5,5.7,2.9,11.1C436.1,323.1,432.5,330.4,426.6,330.4z"/>
	<circle class="st5" cx="440.4" cy="140.8" r="2.5"/>
	<circle class="st5" cx="346" cy="195.3" r="2.5"/>
	<path class="st2" d="M500.2,75.5L484.8,91v0.1c-2.2-1.7-5.3-1.2-7,1c-1.3,1.8-1.3,4.2,0,6l11.2,11.2c2.2,1.7,5.3,1.2,7-1
		c1.3-1.8,1.3-4.2,0-6v0.1L511.4,87c13.5,9.2,44-5,54.8-15.8c12.7-12.6-37.6-62.9-50.2-50.3C505.2,31.5,491.4,62,500.2,75.5z"/>
	<path class="st4" d="M537.8,25.5c-9-6.2-17.5-9.1-21.7-4.8c-4.8,4.9-10.3,13.6-14,23.1"/>
	<circle cx="537.8" cy="25.5" r="2.5"/>
	<circle cx="502" cy="43.8" r="2.5"/>
</g>
<g id="Pestle">
	<title>ch1_pg4</title>
	<g>
		<path class="st3" d="M788.2,273.5l18.6-27.2c2.5-4.3,1.1-9.8-3.2-12.3c-3.9-2.3-8.8-1.3-11.6,2.2l-25.6,37.3"/>
		<path class="st2" d="M799.5,274.1c-0.4,31.1-25.9,55.9-57,55.5c-30.5-0.4-55.1-25-55.5-55.5H799.5z"/>
		<path class="st4" d="M717.8,324.3c-18.9-9.6-30.8-29-30.8-50.2h37.8"/>
		<circle cx="724.7" cy="274.1" r="2.5"/>
		<circle cx="717.8" cy="324.3" r="2.5"/>
	</g>
</g>
<g id="vial">
	<g>
		<path class="st2" d="M635,266.1v-21.8l0,0c2.7,0,4.9-2.2,4.9-4.9v-0.1c0-2.8-2.2-5-5-5h-15.8c-2.8,0-5,2.2-5,5c0,2.7,2.1,5,4.8,5
			c0,0,0,0,0.1,0l0,0v21.8c-16,3-27.6,16.1-27.6,31.5c0,17.8,15.9,32.3,35.6,32.3s35.5-14.5,35.5-32.3
			C662.6,282.2,650.8,269.4,635,266.1z"/>
		<path class="st1" d="M598.2,297.7c0,14.5,12.9,26.2,28.8,26.2s28.8-11.7,28.8-26.2c0-2.8-0.5-5.6-1.5-8.3h-54.7
			C598.7,292.1,598.2,294.9,598.2,297.7z"/>
		<path class="st3" d="M595.1,283.1c-2.4,4.4-3.6,9.4-3.7,14.4c0,17.8,15.9,32.3,35.6,32.3"/>
		<circle class="st5" cx="595.2" cy="283.1" r="2.5"/>
		<circle class="st5" cx="627" cy="329.9" r="2.5"/>
		<path class="st6" d="M641.9,313.1c-9.8,2.5-20,2.5-29.8,0v-31.5c0,0,8.8-1.9,14.9-1.9s15,1.9,15,1.9L641.9,313.1z"/>
		<path class="st1" d="M637.5,295.2c0-3.1-2.5-5.6-5.7-5.6c-2,0-3.8,1-4.8,2.7c-1-1.7-2.9-2.7-4.8-2.7c-3.1,0-5.6,2.5-5.6,5.6
			c0,0,0,0,0,0.1c-0.1,3.2,2.4,6,10.3,11.6h0.1h0.2h0.1C635.1,301.2,637.6,298.4,637.5,295.2z"/>
	</g>
</g>
<path class="st0" d="M422.3,9.5c6.9,11.9,16.8,28.6,13,43c-1.9,7.3-8.3,12.6-13.8,17.4c-6,5.3-12.2,10.6-16.3,17.5
	c-4.8,8.1-5.8,17.2-4.3,26.5c0.3,1.9,3.2,1.1,2.9-0.8c-1.7-10.8,0.6-20.8,7.6-29.2c5.3-6.4,12.1-11.3,18.1-17.2
	c4.8-4.8,8.9-10.4,9.3-17.3c1-14.7-6.8-29.2-14-41.5c-0.4-0.7-1.3-1-2.1-0.5S421.8,8.8,422.3,9.5L422.3,9.5z"/>
<circle class="st0" cx="377.6" cy="209.2" r="3.2"/>
<circle class="st0" cx="413.9" cy="209.2" r="3.2"/>
<circle class="st0" cx="447.6" cy="259" r="3.2"/>
<circle class="st0" cx="446" cy="210.4" r="3.2"/>
<circle class="st0" cx="424.3" cy="233.3" r="3.2"/>
<circle class="st0" cx="392.1" cy="236.2" r="3.2"/>
<circle class="st0" cx="461.8" cy="238.1" r="3.2"/>
<circle class="st0" cx="479.6" cy="231.6" r="3.2"/>
<circle class="st0" cx="410.7" cy="250.5" r="3.2"/>
<circle class="st0" cx="427.6" cy="247.3" r="3.2"/>
<circle class="st0" cx="479.6" cy="207.1" r="3.2"/>
<path class="st0" d="M389.9,79.9c0-2-1.6-3.6-3.7-3.6c-1.3,0-2.5,0.7-3.1,1.8c-0.7-1.1-1.9-1.8-3.2-1.8c-2,0-3.6,1.6-3.6,3.6
	c0,0,0,0,0,0.1c-0.1,2.1,1.5,3.9,6.7,7.5h0.1h0.1h0.1C388.4,83.8,390,82,389.9,79.9z"/>
<path class="st0" d="M365,118.2c0-2-1.6-3.7-3.6-3.7c-1.3,0-2.5,0.7-3.1,1.8c-0.7-1.1-1.9-1.8-3.1-1.8c-2,0-3.6,1.6-3.6,3.6l0,0
	c-0.1,2.1,1.5,3.9,6.7,7.5h0.1h0.1h0.1C363.4,122.1,365,120.2,365,118.2z"/>
<path class="st0" d="M376.4,18.4c0-2-1.6-3.7-3.6-3.7c-1.3,0-2.5,0.7-3.1,1.8c-0.7-1.1-1.9-1.8-3.1-1.8c-2,0-3.6,1.6-3.6,3.6
	c0,0,0,0,0,0.1c-0.1,2.1,1.5,3.9,6.7,7.5h0.1h0.1h0.1C374.8,22.3,376.5,20.5,376.4,18.4z"/>
<path class="st0" d="M419.7,37c0-2-1.6-3.7-3.6-3.7c-1.3,0-2.5,0.7-3.1,1.8c-0.7-1.1-1.8-1.8-3.1-1.8c-2,0-3.6,1.6-3.6,3.6l0,0
	c-0.1,2.1,1.5,3.9,6.7,7.5h0.1h0.1h0.1C418.2,40.9,419.8,39,419.7,37z"/>
<path class="st0" d="M459.7,110.5c0-2-1.6-3.7-3.6-3.7c-1.3,0-2.5,0.7-3.1,1.8c-0.7-1.1-1.9-1.8-3.1-1.8c-2,0-3.6,1.6-3.6,3.6
	c0,0,0,0,0,0.1c-0.1,2.1,1.5,3.9,6.7,7.5h0.1h0.1h0.1C458.2,114.4,459.8,112.6,459.7,110.5z"/>
<path class="st0" d="M463.8,49c0-2-1.7-3.6-3.7-3.6c-1.3,0-2.4,0.7-3.1,1.7c-0.7-1.1-1.9-1.8-3.1-1.8c-2,0-3.7,1.6-3.7,3.6V49
	c-0.1,2.1,1.5,3.9,6.7,7.5h0.1h0.1h0.1C462.2,52.9,463.8,51.1,463.8,49z"/>
<g id="tubes">
	<g>
		<g>
			<path class="st2" d="M136.9,235.9V319c0,4.4,3.6,8,8,8s8-3.6,8-8v-83.1l0,0c2.7,0,4.9-2.2,4.9-4.9v-0.1c0-2.8-2.2-5-5-5H137
				c-2.8,0-5,2.2-5,5C132,233.6,134.1,235.8,136.9,235.9C136.8,235.8,136.9,235.8,136.9,235.9"/>
			<path class="st1" d="M141.6,266.2v52.7c-0.1,1.8,1.3,3.4,3.1,3.5s3.4-1.3,3.5-3.1c0-0.1,0-0.2,0-0.4v-52.7H141.6"/>
			<path class="st3" d="M136.9,319c0,4.4,3.6,8,8,8"/>
			<line class="st3" x1="136.9" y1="252.8" x2="136.9" y2="319.4"/>
			<circle class="st5" cx="136.9" cy="252.8" r="1.5"/>
			<circle class="st5" cx="144.9" cy="327" r="2.5"/>
		</g>
		<g>
			<path class="st2" d="M184,235.9V319c0,4.4,3.6,8,8,8s8-3.6,8-8v-83.1l0,0c2.7,0,4.9-2.2,4.9-4.9c0,0,0,0,0-0.1c0-2.8-2.2-5-5-5
				H184c-2.8,0-5,2.2-5,5c0,2.7,2.1,4.9,4.8,5H184"/>
			<path class="st1" d="M188.7,253.8v65.1c-0.1,1.8,1.3,3.4,3.1,3.5s3.4-1.3,3.5-3.1c0-0.1,0-0.2,0-0.4v-65.1L188.7,253.8"/>
			<path class="st3" d="M184,319c0,4.4,3.6,8,8,8"/>
			<circle class="st5" cx="184" cy="319" r="2.5"/>
			<circle class="st5" cx="191.9" cy="327" r="2.5"/>
			<line class="st3" x1="199.9" y1="281.3" x2="199.9" y2="246"/>
			<circle class="st5" cx="199.9" cy="246" r="2.5"/>
			<circle class="st5" cx="199.9" cy="281.3" r="2.5"/>
		</g>
		<g>
			<path class="st2" d="M246.2,235.9V319c0,4.4-3.6,8-8,8s-8-3.6-8-8v-83.1l0,0c-2.7,0-4.9-2.2-4.9-4.9c0,0,0,0,0-0.1
				c0-2.8,2.2-5,5-5h15.8c2.8,0,5,2.2,5,5c0,2.7-2.1,4.9-4.8,5C246.3,235.8,246.2,235.8,246.2,235.9"/>
			<path class="st1" d="M241.5,282.3v36.6c0,1.8-1.5,3.3-3.3,3.3s-3.3-1.5-3.3-3.3v-36.6H241.5"/>
			<line class="st3" x1="230.2" y1="306" x2="230.2" y2="270.7"/>
			<circle class="st5" cx="230.2" cy="270.7" r="1.5"/>
			<circle class="st5" cx="230.2" cy="306" r="2.5"/>
			<path class="st3" d="M246.1,225.9c2.8,0,5,2.2,5,5"/>
			<line class="st3" x1="230.3" y1="225.9" x2="246.1" y2="225.9"/>
			<circle class="st5" cx="230.3" cy="225.9" r="2.5"/>
			<circle class="st5" cx="251.1" cy="230.9" r="2.5"/>
		</g>
		<rect x="115.7" y="252.3" class="st7" width="152.4" height="18.2"/>
		<polyline class="st4" points="115.7,270.6 115.7,330.4 268.2,330.4 268.2,270.6 		"/>
	</g>
</g>
</svg>
