<?xml version="1.0" encoding="UTF-8"?>
<svg width="184px" height="35px" viewBox="0 0 184 35" version="1.1" xmlns="http://www.w3.org/2000/svg" xmlns:xlink="http://www.w3.org/1999/xlink">
    <!-- Generator: Sketch 52.2 (67145) - http://www.bohemiancoding.com/sketch -->
    <title>Group 15</title>
    <desc>Created with Sketch.</desc>
    <defs>
        <polygon id="path-1" points="0 34.9310294 183.943011 34.9310294 183.943011 0 0 0"></polygon>
    </defs>
    <g id="Symbols" stroke="none" stroke-width="1" fill="none" fill-rule="evenodd">
        <g id="Menu-/-Start" transform="translate(-30.000000, -27.000000)">
            <g id="Group-15" transform="translate(30.000000, 27.000000)">
                <path d="M51.5143267,25.4140147 C49.5071933,25.4899338 47.5642044,25.5115515 45.8144156,25.5115515 C41.5742378,25.5115515 37.5919156,25.2951176 37.5919156,19.9550441 L37.5919156,0.259566176 L40.3506378,0.259566176 L40.3506378,18.3983162 C40.3506378,22.3548603 41.1019711,23.1873971 45.7178156,23.1873971 L51.5143267,23.1873971 L51.5143267,25.4140147 Z" id="Fill-1" fill="#7F9FB4"></path>
                <mask id="mask-2" fill="white">
                    <use xlink:href="#path-1"></use>
                </mask>
                <g id="Clip-4"></g>
                <path d="M54.0349222,25.4465441 L56.6433778,25.4465441 L56.6433778,6.19397059 L54.0349222,6.19397059 L54.0349222,25.4465441 Z M53.7663333,2.22867647 C53.7663333,0.812720588 54.1207889,0.304448529 55.3336556,0.304448529 C56.5467778,0.304448529 56.9119667,0.812720588 56.9119667,2.22867647 C56.9119667,3.64488971 56.5789778,4.13102941 55.3336556,4.13102941 C54.0885889,4.13102941 53.7663333,3.64488971 53.7663333,2.22867647 Z" id="Fill-3" fill="#7F9FB4" mask="url(#mask-2)"></path>
                <path d="M69.9595089,23.8357206 C69.4762533,25.0898015 68.8861756,25.7061618 67.91992,25.7061618 C66.9214644,25.7061618 66.2881978,25.0898015 65.8159311,23.8357206 L59.0853644,6.19391912 L61.8655533,6.19391912 L67.9523756,22.5818971 L74.1245533,6.19391912 L76.78642,6.19391912 L69.9595089,23.8357206 Z" id="Fill-5" fill="#7F9FB4" mask="url(#mask-2)"></path>
                <path d="M84.93946,15.2960551 C86.6146267,15.2203934 89.49116,14.9931507 91.2511711,14.7664228 C91.2836267,14.3773051 91.29436,13.814989 91.29436,13.4150625 C91.29436,10.1505404 89.8770489,8.07473162 85.7017822,8.07473162 C80.8927378,8.07473162 79.8838044,10.5612757 79.8838044,15.5338493 L84.93946,15.2960551 Z M77.3397489,15.8148787 C77.3397489,8.83160662 79.4222711,5.93458456 85.7017822,5.93458456 C92.1747489,5.93458456 93.9242822,9.33962132 93.9242822,14.6042904 C93.9242822,15.1447316 93.9028156,15.8583713 93.87036,16.4309816 C91.6805044,16.798739 87.1510378,17.2310919 84.4781822,17.3389228 L79.9482044,17.5226728 C80.2702044,21.4681507 81.4511267,23.4899154 86.2706489,23.4899154 C88.7610378,23.4899154 91.0577156,23.2196949 93.0226822,22.9492169 L93.25856,25.068261 C91.0687044,25.4030772 88.8686267,25.7059816 85.2509822,25.7059816 C78.9929378,25.7059816 77.3397489,21.5224522 77.3397489,15.8148787 Z" id="Fill-6" fill="#7F9FB4" mask="url(#mask-2)"></path>
                <path d="M103.201434,11.9341507 C104.23209,12.0530478 105.251501,12.064114 106.293146,12.064114 C109.438012,12.064114 111.29539,11.2531949 111.29539,8.05352574 C111.29539,5.26459191 110.050323,4.15102574 106.400479,4.15102574 C105.402023,4.15102574 104.23209,4.2266875 103.201434,4.36720221 L103.201434,11.9341507 Z M103.201434,25.6088566 L98.13479,25.6088566 L98.13479,0.853819853 C100.303179,0.454150735 103.276568,0.1623125 106.271423,0.1623125 C111.799857,0.1623125 116.318846,1.2648125 116.318846,8.07514338 C116.318846,12.5288934 114.461979,14.6258051 111.52079,15.5229375 L117.231434,25.6088566 L111.391734,25.6088566 L106.26069,16.1068713 C105.241023,16.1068713 104.081568,16.0528272 103.201434,15.9987831 L103.201434,25.6088566 Z" id="Fill-7" fill="#7F9FB4" mask="url(#mask-2)"></path>
                <path d="M130.137603,16.0957794 C128.709814,16.1716985 127.056626,16.2149338 125.725692,16.5286471 C124.051037,16.9283162 123.407037,17.4795662 123.407037,19.5010735 C123.407037,21.5333897 124.566237,22.0630221 126.649014,22.0630221 C127.711614,22.0630221 128.988881,21.9873603 130.019537,21.5441985 C130.105148,20.7657059 130.137603,19.8253382 130.137603,18.9606324 L130.137603,16.0957794 Z M118.727048,19.5659265 C118.727048,16.1608897 120.208248,14.0529118 124.019092,13.4476176 C126.015492,13.1230956 128.03387,13.0474338 130.137603,12.9609632 C130.137603,10.7451544 129.117681,9.73967647 126.627292,9.73967647 C124.31937,9.73967647 121.807514,9.98853676 119.875259,10.2368824 L119.488859,6.66971324 C121.496248,6.32383088 124.179837,5.93471324 126.992226,5.93471324 C131.25387,5.93471324 134.796126,7.13449265 134.796126,12.1289412 L134.796126,20.2687574 C134.796126,21.576625 134.742714,22.6901912 134.635381,23.9221397 C132.423803,25.2194559 129.546759,25.7061103 126.090626,25.7061103 C120.809059,25.7061103 118.727048,23.6411103 118.727048,19.5659265 Z" id="Fill-8" fill="#7F9FB4" mask="url(#mask-2)"></path>
                <path d="M142.613902,25.4464412 L137.869258,25.4464412 L137.869258,11.3723235 C137.869258,10.0641985 137.922924,8.95063235 138.030513,7.71816912 C140.155969,6.57243382 143.161302,5.93471324 146.123958,5.93471324 C148.227947,5.93471324 149.709658,6.34519118 150.739802,7.03721324 C152.457647,6.37761765 154.550647,5.93471324 156.579502,5.93471324 C162.698269,5.93471324 163.599613,9.25327941 163.599613,13.1882059 L163.599613,25.4464412 L158.844236,25.4464412 L158.844236,13.6205588 C158.844236,11.1234632 158.253902,9.78291176 155.570313,9.78291176 C154.829969,9.78291176 153.713191,9.97772794 152.843536,10.4206324 C153.036991,11.2855956 153.101391,12.2154118 153.101391,13.1882059 L153.101391,25.4464412 L148.346013,25.4464412 L148.346013,13.6205588 C148.346013,11.1666985 147.777402,9.78291176 145.168691,9.78291176 C144.352702,9.78291176 143.322302,9.99934559 142.731969,10.2909265 C142.646358,11.0694191 142.613902,12.0097868 142.613902,12.8744926 L142.613902,25.4464412 Z" id="Fill-9" fill="#7F9FB4" mask="url(#mask-2)"></path>
                <path d="M174.475496,21.9224044 C179.037673,21.9224044 179.155484,19.3282868 179.155484,15.8259706 C179.155484,12.6800882 178.973273,9.69659559 174.894096,9.69659559 C173.841973,9.69659559 172.628851,9.86927941 171.909973,10.2046103 C171.823851,10.9828456 171.791907,11.9232132 171.791907,12.7881765 L171.791907,21.5008603 C172.575184,21.7497206 173.63804,21.9224044 174.475496,21.9224044 Z M171.791907,34.4753088 L167.036529,34.4753088 L167.036529,11.3722206 C167.036529,10.0640956 167.079207,8.95078676 167.197273,7.71832353 C169.344451,6.45369118 172.296373,5.93461029 174.894096,5.93461029 C181.259473,5.93461029 183.943062,8.25876471 183.943062,15.8259706 C183.943062,23.2845735 181.323873,25.7060074 175.44124,25.7060074 C174.28204,25.7060074 172.940118,25.543875 171.791907,25.2950147 L171.791907,34.4753088 Z" id="Fill-10" fill="#7F9FB4" mask="url(#mask-2)"></path>
                <polygon id="Fill-11" fill="#7F9FB4" mask="url(#mask-2)" points="7.93638 26.5582831 -0.000153333339 34.9310037 10.2657689 34.9310037"></polygon>
                <polygon id="Fill-12" fill="#3A7D3D" mask="url(#mask-2)" points="9.49217667 26.2845882 11.8977211 34.9311324 32.9989433 34.9311324 32.9989433 31.9774926"></polygon>
                <polygon id="Fill-13" fill="#73BF69" mask="url(#mask-2)" points="10.42728 24.8997978 32.9675356 30.349761 32.9675356 16.9970037"></polygon>
                <polygon id="Fill-14" fill="#A2D296" mask="url(#mask-2)" points="11.3022767 22.9173824 32.96751 15.3213529 32.96751 -0.000154411765"></polygon>
            </g>
        </g>
    </g>
</svg>