<svg xmlns="http://www.w3.org/2000/svg" viewBox="0 0 98.248 125">
  <defs>
    <style>
      .svg-nav-identity{fill:#6BB364}
    </style>
  </defs>
  <g>
    <path class="svg-nav-identity" d="M49.084 38.608A16.373 16.373 0 0 0 32.73 54.963v3.6a16.354 16.354 0 1 0 32.708 0v-3.6a16.373 16.373 0 0 0-16.354-16.355zm11.354 19.96a11.354 11.354 0 1 1-22.708 0v-3.6a11.354 11.354 0 1 1 22.708 0z"/>
    <path class="svg-nav-identity" d="M90.748 9.172h-11.99V2.5a2.5 2.5 0 0 0-5 0v6.672H24.49V2.5a2.5 2.5 0 0 0-5 0v6.672H7.5a7.508 7.508 0 0 0-7.5 7.5v9.108a7.512 7.512 0 0 0 5.351 7.183V122.5a2.5 2.5 0 0 0 2.5 2.5H90.4a2.5 2.5 0 0 0 2.5-2.5V32.963a7.511 7.511 0 0 0 5.35-7.183v-9.108a7.508 7.508 0 0 0-7.502-7.5zM75.669 120h-7.994v-17.3a2.5 2.5 0 0 0-5 0V120h-27.1v-17.3a2.5 2.5 0 0 0-5 0V120H22.58V93.425A12.448 12.448 0 0 1 35.014 80.99h.9a20.057 20.057 0 0 0 13.532 4.7 19.022 19.022 0 0 0 12.516-4.7h1.19a12.529 12.529 0 0 1 12.517 12.515zm5 0V93.5a17.535 17.535 0 0 0-17.515-17.51H60.94a2.5 2.5 0 0 0-1.82.787 13.7 13.7 0 0 1-9.762 3.909 14.834 14.834 0 0 1-10.7-3.974 2.506 2.506 0 0 0-1.758-.722h-1.886A17.453 17.453 0 0 0 17.58 93.425V120h-7.229V33.28H87.9V120zm12.579-94.22a2.5 2.5 0 0 1-2.5 2.5H7.5a2.5 2.5 0 0 1-2.5-2.5v-9.108a2.5 2.5 0 0 1 2.5-2.5h11.99v4.379a2.5 2.5 0 0 0 5 0v-4.379h49.268v4.379a2.5 2.5 0 1 0 5 0v-4.379h11.99a2.5 2.5 0 0 1 2.5 2.5z"/>
    <path class="svg-nav-identity" d="M49.564 48.1a10.168 10.168 0 0 0-5.024 1.3l.97 2.033a14.377 14.377 0 0 1 1.825-.751 6.385 6.385 0 0 1 2.033-.312 2.9 2.9 0 0 1 1.859.52 1.8 1.8 0 0 1 .646 1.49 2.529 2.529 0 0 1-.4 1.432 8.939 8.939 0 0 1-1.773 1.693 6.034 6.034 0 0 0-1.618 1.744 4.367 4.367 0 0 0-.462 2.113v.738h2.264v-.519a2.686 2.686 0 0 1 .364-1.49 6.826 6.826 0 0 1 1.438-1.4 12.345 12.345 0 0 0 1.775-1.591 4.414 4.414 0 0 0 .768-1.288 4.343 4.343 0 0 0 .255-1.542 3.771 3.771 0 0 0-1.328-3.06 5.432 5.432 0 0 0-3.592-1.11zM48.848 62.042a1.521 1.521 0 0 0-1.7 1.743 1.839 1.839 0 0 0 .439 1.311 1.917 1.917 0 0 0 2.523-.011 1.835 1.835 0 0 0 .445-1.3 1.779 1.779 0 0 0-.439-1.287 1.681 1.681 0 0 0-1.268-.456z"/>
  </g>
</svg>