<svg xmlns="http://www.w3.org/2000/svg" width="138" height="114.7" viewBox="0 0 138 114.7">
  <g fill="none" stroke="#6BB364" stroke-linecap="round" stroke-linejoin="round" stroke-width="5" data-name="Layer 1">
    <path d="M135.47 38.26c-.75-20.4-16.11-35.76-35.75-35.76A35.81 35.81 0 0 0 69 19.87 36.38 36.38 0 0 0 38.28 2.5C18.39 2.5 3 17.86 2.52 38.26 1.77 58.65 18.9 77 69.26 112.2c49.85-35.2 66.97-53.55 66.21-73.94zM37.05 75.34h63.89"/>
    <path d="M55.31 74.73v-21.9H43.75v21.9m31.03 0V44.92H63.22v29.81m31.03 0V28.49H82.69v46.24"/>
  </g>
</svg>