<svg xmlns="http://www.w3.org/2000/svg" viewBox="0 0 125 115.506">
  <path d="M80.006 115.474c-9.232 0-29.176-2.363-36.334-21.884-5.507-15.02-12.234-20.72-15.98-22.831v42a2.5 2.5 0 0 1-2.5 2.5H14.778a2.5 2.5 0 0 1-2.5-2.5V67.9c-.534-.712-1.19-1.5-1.924-2.383C3.541 57.325-9.142 42.08 10.6 6.991 13.66 1.3 17.8.045 20.726 0 29.24-.125 45.258 10 73.56 58.988l.257.445C78.95 68.3 85.408 75.1 91.093 77.628l.251.111c12.971 5.763 28.445 13.549 33.013 22.684a5.416 5.416 0 0 1-.127 5.336c-4.478 7.561-31.283 9.174-39.567 9.491a43.215 43.215 0 0 1-4.657.224zM25.192 64.6a2.625 2.625 0 0 1 .33.022c.552.074 13.619 2.091 22.844 27.252 8.028 21.892 35.493 18.446 35.77 18.409.079-.01.16-.017.24-.02 19.827-.751 33.891-4.243 35.552-7.047.079-.133.126-.213-.043-.552-3.885-7.772-20.026-15.593-28.06-19.232a7.409 7.409 0 0 1-.462 3.534c-1.088 2.741-3.864 4.587-7.618 5.065-7.442.946-18.776-3.34-27.328-15.05a2.537 2.537 0 0 1-.117-.175c-4.639-7.621-9.377-15.027-13.96-22.188-6.5-10.152-12.631-19.741-17.723-28.749-5.607-9.921-7.163-15.993-7.089-19.7A10.04 10.04 0 0 0 14.976 9.4C-3.095 41.53 7.73 54.543 14.2 62.318c.986 1.186 1.918 2.306 2.643 3.366a2.5 2.5 0 0 1 .437 1.411v43.161h5.414V67.1a2.5 2.5 0 0 1 2.5-2.5zm35.324 9.521c7.3 9.946 16.823 13.689 22.6 12.955 1.893-.241 3.2-.951 3.6-1.949.485-1.224-.263-3.236-2-5.417-7.392-5.174-12.946-13.832-15.226-17.771l-.26-.449C50.293 28.714 32.811 7.647 22.738 5.232c-.329 1.307-.626 6.042 6.232 18.176C33.994 32.3 40.094 41.83 46.552 51.923c4.579 7.156 9.313 14.556 13.964 22.193z" fill="#6BB364" />
</svg>