<?xml version="1.0" encoding="utf-8"?>
<!-- Generator: Adobe Illustrator 22.1.0, SVG Export Plug-In . SVG Version: 6.00 Build 0)  -->
<svg version="1.1" id="Layer_1" xmlns="http://www.w3.org/2000/svg" xmlns:xlink="http://www.w3.org/1999/xlink" x="0px" y="0px"
	 viewBox="0 0 1443.5 826.4" style="enable-background:new 0 0 1443.5 826.4;" xml:space="preserve">
<style type="text/css">
	.st0{fill:none;stroke:#333232;stroke-width:3.5;stroke-linecap:round;stroke-miterlimit:10;}
	.st1{fill:none;stroke:#FFF6C9;stroke-width:3.5;stroke-linecap:round;stroke-miterlimit:10;}
	.st2{fill:none;stroke:#9DB6CB;stroke-width:3.5;stroke-linecap:round;stroke-miterlimit:10;}
	.st3{fill:none;stroke:#FAE164;stroke-width:3.5;stroke-linecap:round;stroke-miterlimit:10;}
	.st4{fill:none;stroke:#0AA7E0;stroke-width:3.5;stroke-linecap:round;stroke-miterlimit:10;}
	.st5{fill:none;stroke:#0AA8E0;stroke-width:3.5;stroke-linecap:round;stroke-miterlimit:10;}
	.st6{fill:#FAE164;}
</style>
<title>Untitled-2</title>
<g id="c5">
	<line id="Line_5570" class="st0" x1="1407.2" y1="401" x2="1441.8" y2="392.5"/>
	<line id="Line_5528" class="st0" x1="1.8" y1="742.6" x2="164.5" y2="702.7"/>
	<line id="Line_5536" class="st0" x1="545.7" y1="664.1" x2="857.2" y2="587.8"/>
	<line id="Line_5544" class="st0" x1="1289" y1="564.1" x2="1441.8" y2="526.7"/>
	<line id="Line_5530" class="st0" x1="1013.2" y1="522.2" x2="1294.3" y2="453.3"/>
	<line id="Line_5546" class="st0" x1="619" y1="728.2" x2="854.5" y2="670.5"/>
</g>
<g id="c4">
	<line id="Line_5527" class="st1" x1="236.3" y1="685.2" x2="554.7" y2="607.2"/>
	<line id="Line_5531" class="st1" x1="734.6" y1="590.4" x2="965.1" y2="534"/>
	<line id="Line_5539" class="st1" x1="1088.1" y1="588.4" x2="1394.8" y2="513.3"/>
	<line id="Line_5559" class="st1" x1="456.8" y1="795.3" x2="701.5" y2="735.3"/>
</g>
<g id="c3">
	<line id="Line_5556" class="st2" x1="651.7" y1="665.5" x2="1118.4" y2="551.2"/>
	<line id="Line_5525" class="st2" x1="1030.2" y1="493" x2="1381.8" y2="406.9"/>
	<line id="Line_5571" class="st2" x1="1416.2" y1="509" x2="1441.8" y2="502.7"/>
	<line id="Line_5526" class="st2" x1="621.7" y1="590.7" x2="726.7" y2="565"/>
	<line id="Line_5534" class="st2" x1="1167" y1="513" x2="1441.8" y2="445.7"/>
	<line id="Line_5537" class="st2" x1="203.8" y1="747.8" x2="496.4" y2="676.1"/>
	<line id="Line_5549" class="st2" x1="951.8" y1="674" x2="1199.3" y2="613.4"/>
	<line id="Line_5555" class="st2" x1="1.8" y1="824.7" x2="323.4" y2="745.9"/>
</g>
<g id="c2">
	<line id="Line_5529" class="st3" x1="1337.4" y1="442.8" x2="1441.8" y2="417.2"/>
	<line id="Line_5533" class="st3" x1="1.8" y1="770" x2="314.1" y2="693.4"/>
	<line id="Line_5540" class="st3" x1="896.5" y1="632.8" x2="1051.1" y2="595"/>
	<line id="Line_5548" class="st3" x1="1241" y1="603.2" x2="1441.8" y2="554"/>
	<line id="Line_5554" class="st3" x1="372.9" y1="733.8" x2="651.7" y2="665.5"/>
	<line id="Line_5535" class="st3" x1="930.9" y1="569.7" x2="1144.1" y2="517.5"/>
</g>
<g id="c1">
	<line id="Line_5532" class="st4" x1="364.2" y1="681.2" x2="678.7" y2="604.1"/>
	<line id="Line_5538" class="st4" x1="1.8" y1="797.3" x2="158.7" y2="758.9"/>
	<line id="Line_5541" class="st4" x1="448.1" y1="742.7" x2="775.1" y2="662.6"/>
	<line id="Line_5553" class="st4" x1="1213.7" y1="527.8" x2="1441.8" y2="471.9"/>
	<line id="Line_5558" class="st4" x1="726.7" y1="565" x2="992.2" y2="500"/>
	<line id="Line_5545" class="st5" x1="917" y1="655.2" x2="1241.6" y2="575.7"/>
</g>
<polygon class="st6" points="1443.5,364.8 0,716.8 0,0 1443.5,0 "/>
</svg>
