<svg id="Layer_1" data-name="Layer 1" xmlns="http://www.w3.org/2000/svg" viewBox="0 0 576.7 533.4">
  <defs>
    <style>
      .cls-1, .cls-2, .cls-3, .cls-4, .cls-5, .cls-6 {
        fill: none;
        stroke-linecap: round;
        stroke-miterlimit: 10;
        stroke-width: 3px;
      }

      .cls-1 {
        stroke: #fff7d1;
      }

      .cls-2 {
        stroke: #fff;
      }

      .cls-3 {
        stroke: #333232;
      }

      .cls-4 {
        stroke: #1d3564;
      }

      .cls-5 {
        stroke: #93cae5;
      }

      .cls-6 {
        stroke: #fae164;
      }
    </style>
  </defs>
  <title>diagonal-lines-core-blue</title>
  <g id="Color_-_6" data-name="Color - 6">
    <line id="Line_5467" data-name="Line 5467" class="cls-1" x1="222.6" y1="87.6" x2="266.9" y2="43.5"/>
    <line id="Line_5471" data-name="Line 5471" class="cls-1" x1="211.4" y1="139.2" x2="263.4" y2="87.4"/>
    <line id="Line_5478" data-name="Line 5478" class="cls-1" x1="134.3" y1="333" x2="443.2" y2="24.9"/>
    <line id="Line_5496" data-name="Line 5496" class="cls-1" x1="521.7" y1="228.7" x2="575.2" y2="175.4"/>
    <line id="Line_5502" data-name="Line 5502" class="cls-1" x1="456.4" y1="374.5" x2="550" y2="281.2"/>
    <line id="Line_5505" data-name="Line 5505" class="cls-1" x1="334.9" y1="531.9" x2="422.1" y2="444.9"/>
  </g>
  <g id="Color_-_5" data-name="Color - 5">
    <line id="Line_5461" data-name="Line 5461" class="cls-2" x1="157.6" y1="74.9" x2="217.2" y2="15.4"/>
    <line id="Line_5465" data-name="Line 5465" class="cls-2" x1="92.9" y1="175.7" x2="135.3" y2="133.4"/>
    <line id="Line_5472" data-name="Line 5472" class="cls-2" x1="116.7" y1="233.6" x2="186.8" y2="163.8"/>
    <line id="Line_5476" data-name="Line 5476" class="cls-2" x1="337" y1="94.6" x2="401.3" y2="30.4"/>
    <line id="Line_5483" data-name="Line 5483" class="cls-2" x1="201.6" y1="346.3" x2="500.8" y2="47.9"/>
    <line id="Line_5484" data-name="Line 5484" class="cls-2" x1="75.7" y1="471.8" x2="181.1" y2="366.7"/>
    <line id="Line_5490" data-name="Line 5490" class="cls-2" x1="121.5" y1="506.8" x2="263.9" y2="364.7"/>
    <line id="Line_5493" data-name="Line 5493" class="cls-2" x1="167.1" y1="497.5" x2="193.7" y2="471.1"/>
    <line id="Line_5501" data-name="Line 5501" class="cls-2" x1="276" y1="512.8" x2="361.7" y2="427.4"/>
  </g>
  <g id="Color_-_4" data-name="Color - 4">
    <line id="Line_5477" data-name="Line 5477" class="cls-3" x1="35.4" y1="395.4" x2="316.5" y2="115"/>
    <line id="Line_5485" data-name="Line 5485" class="cls-3" x1="387.6" y1="199.9" x2="503" y2="84.8"/>
    <line id="Line_5492" data-name="Line 5492" class="cls-3" x1="202" y1="462.7" x2="355.5" y2="309.7"/>
    <line id="Line_5503" data-name="Line 5503" class="cls-3" x1="343" y1="487.5" x2="432.2" y2="398.6"/>
    <line id="Line_5506" data-name="Line 5506" class="cls-3" x1="483.9" y1="424.7" x2="546.8" y2="361.9"/>
  </g>
  <g id="Color_-_3" data-name="Color - 3">
    <line id="Line_5470" data-name="Line 5470" class="cls-4" x1="296.7" y1="54.2" x2="349.4" y2="1.6"/>
    <line id="Line_5488" data-name="Line 5488" class="cls-4" x1="515.5" y1="113.8" x2="541.1" y2="88.3"/>
    <line id="Line_5494" data-name="Line 5494" class="cls-4" x1="276.3" y1="429.9" x2="530.1" y2="176.9"/>
    <line id="Line_5497" data-name="Line 5497" class="cls-4" x1="449.5" y1="300.8" x2="513.1" y2="237.3"/>
    <line id="Line_5500" data-name="Line 5500" class="cls-4" x1="387.1" y1="402" x2="506.1" y2="283.3"/>
    <line id="Line_5508" data-name="Line 5508" class="cls-4" x1="469.7" y1="484" x2="536.3" y2="417.6"/>
  </g>
  <g id="Color_-_2" data-name="Color - 2">
    <line id="Line_5460" data-name="Line 5460" class="cls-5" x1="78.7" y1="123.1" x2="142.3" y2="59.6"/>
    <line id="Line_5466" data-name="Line 5466" class="cls-5" x1="1.5" y1="277.8" x2="60.6" y2="218.9"/>
    <line id="Line_5468" data-name="Line 5468" class="cls-5" x1="124.5" y1="196.5" x2="184.7" y2="136.5"/>
    <line id="Line_5469" data-name="Line 5469" class="cls-5" x1="49.7" y1="271.1" x2="111.2" y2="209.8"/>
    <line id="Line_5473" data-name="Line 5473" class="cls-5" x1="13.3" y1="347.8" x2="87" y2="274.4"/>
    <line id="Line_5475" data-name="Line 5475" class="cls-5" x1="48.5" y1="351.8" x2="114.7" y2="285.8"/>
    <line id="Line_5479" data-name="Line 5479" class="cls-5" x1="44.1" y1="433.9" x2="90.4" y2="387.8"/>
    <line id="Line_5486" data-name="Line 5486" class="cls-5" x1="114.9" y1="482.8" x2="340.3" y2="258.1"/>
    <line id="Line_5491" data-name="Line 5491" class="cls-5" x1="383.8" y1="281.5" x2="546.5" y2="119.3"/>
    <line id="Line_5504" data-name="Line 5504" class="cls-5" x1="432.9" y1="434.2" x2="506.2" y2="361.1"/>
  </g>
  <g id="Color_-_1" data-name="Color - 1">
    <line id="Line_5462" data-name="Line 5462" class="cls-6" x1="55.6" y1="176.6" x2="146.6" y2="85.9"/>
    <line id="Line_5463" data-name="Line 5463" class="cls-6" x1="228.6" y1="40.4" x2="267.6" y2="1.5"/>
    <line id="Line_5464" data-name="Line 5464" class="cls-6" x1="147.9" y1="120.9" x2="214.3" y2="54.6"/>
    <line id="Line_5474" data-name="Line 5474" class="cls-6" x1="166.3" y1="223.2" x2="341.8" y2="48.3"/>
    <line id="Line_5480" data-name="Line 5480" class="cls-6" x1="447.7" y1="61.7" x2="505.4" y2="4.3"/>
    <line id="Line_5481" data-name="Line 5481" class="cls-6" x1="369.9" y1="139.3" x2="420.6" y2="88.8"/>
    <line id="Line_5482" data-name="Line 5482" class="cls-6" x1="39.8" y1="468.5" x2="347.3" y2="161.9"/>
    <line id="Line_5487" data-name="Line 5487" class="cls-6" x1="68.3" y1="518.3" x2="119.9" y2="466.8"/>
    <line id="Line_5489" data-name="Line 5489" class="cls-6" x1="293.9" y1="334.9" x2="491.3" y2="138"/>
    <line id="Line_5495" data-name="Line 5495" class="cls-6" x1="180.7" y1="525.3" x2="249.9" y2="456.3"/>
    <line id="Line_5498" data-name="Line 5498" class="cls-6" x1="283.9" y1="465.9" x2="429.8" y2="320.4"/>
    <line id="Line_5507" data-name="Line 5507" class="cls-6" x1="398.3" y1="510" x2="459.1" y2="449.3"/>
  </g>
</svg>
