<?xml version="1.0" encoding="utf-8"?>
<!-- Generator: Adobe Illustrator 23.0.3, SVG Export Plug-In . SVG Version: 6.00 Build 0)  -->
<svg version="1.1" id="Layer_1" xmlns="http://www.w3.org/2000/svg" xmlns:xlink="http://www.w3.org/1999/xlink" x="0px" y="0px"
	 viewBox="0 0 576.7 533.4" style="enable-background:new 0 0 576.7 533.4;" xml:space="preserve">
<style type="text/css">
	.st0{fill:none;stroke:#9DB6CB;stroke-width:3.5;stroke-linecap:round;stroke-miterlimit:10;}
	.st1{fill:none;stroke:#00A8E1;stroke-width:3.5;stroke-linecap:round;stroke-miterlimit:10;}
	.st2{fill:none;stroke:#9CB6CB;stroke-width:3.5;stroke-linecap:round;stroke-miterlimit:10;}
	.st3{fill:none;stroke:#333232;stroke-width:3.5;stroke-linecap:round;stroke-miterlimit:10;}
	.st4{fill:none;stroke:#FFFFFF;stroke-width:3.5;stroke-linecap:round;stroke-miterlimit:10;}
</style>
<g>
	<g id="Color_-_6">
		<line id="Line_5467" class="st0" x1="222.6" y1="87.6" x2="266.9" y2="43.5"/>
		<line id="Line_5471" class="st0" x1="211.4" y1="139.2" x2="263.4" y2="87.4"/>
		<line id="Line_5478" class="st0" x1="134.3" y1="333" x2="443.2" y2="24.9"/>
		<line id="Line_5496" class="st0" x1="521.7" y1="228.7" x2="575.2" y2="175.4"/>
		<line id="Line_5502" class="st0" x1="456.4" y1="374.5" x2="550" y2="281.2"/>
		<line id="Line_5505" class="st0" x1="334.9" y1="531.9" x2="422.1" y2="444.9"/>
	</g>
	<g id="Color_-_5">
		<line id="Line_5461" class="st1" x1="157.6" y1="74.9" x2="217.2" y2="15.4"/>
		<line id="Line_5465" class="st1" x1="92.9" y1="175.7" x2="135.3" y2="133.4"/>
		<line id="Line_5472" class="st1" x1="116.7" y1="233.6" x2="186.8" y2="163.8"/>
		<line id="Line_5476" class="st1" x1="337" y1="94.6" x2="401.3" y2="30.4"/>
		<line id="Line_5483" class="st1" x1="201.6" y1="346.3" x2="500.8" y2="47.9"/>
		<line id="Line_5484" class="st1" x1="75.7" y1="471.8" x2="181.1" y2="366.7"/>
		<line id="Line_5490" class="st1" x1="121.5" y1="506.8" x2="263.9" y2="364.7"/>
		<line id="Line_5493" class="st1" x1="167.1" y1="497.5" x2="193.7" y2="471.1"/>
		<line id="Line_5501" class="st1" x1="276" y1="512.8" x2="361.7" y2="427.4"/>
	</g>
	<g id="Color_-_4">
		<line id="Line_5477" class="st1" x1="35.4" y1="395.4" x2="316.5" y2="115"/>
		<line id="Line_5485" class="st1" x1="387.6" y1="199.9" x2="503" y2="84.8"/>
		<line id="Line_5492" class="st1" x1="202" y1="462.7" x2="355.5" y2="309.7"/>
		<line id="Line_5503" class="st1" x1="343" y1="487.5" x2="432.2" y2="398.6"/>
		<line id="Line_5506" class="st1" x1="483.9" y1="424.7" x2="546.8" y2="361.9"/>
	</g>
	<g id="Color_-_3">
		<line id="Line_5470" class="st2" x1="296.7" y1="54.2" x2="349.4" y2="1.6"/>
		<line id="Line_5488" class="st2" x1="515.5" y1="113.8" x2="541.1" y2="88.3"/>
		<line id="Line_5494" class="st2" x1="276.3" y1="429.9" x2="530.1" y2="176.9"/>
		<line id="Line_5497" class="st2" x1="449.5" y1="300.8" x2="513.1" y2="237.3"/>
		<line id="Line_5500" class="st2" x1="387.1" y1="402" x2="506.1" y2="283.3"/>
		<line id="Line_5508" class="st2" x1="469.7" y1="484" x2="536.3" y2="417.6"/>
	</g>
	<g id="Color_-_2">
		<line id="Line_5460" class="st3" x1="78.7" y1="123.1" x2="142.3" y2="59.6"/>
		<line id="Line_5466" class="st3" x1="1.5" y1="277.8" x2="60.6" y2="218.9"/>
		<line id="Line_5468" class="st3" x1="124.5" y1="196.5" x2="184.7" y2="136.5"/>
		<line id="Line_5469" class="st3" x1="49.7" y1="271.1" x2="111.2" y2="209.8"/>
		<line id="Line_5473" class="st3" x1="13.3" y1="347.8" x2="87" y2="274.4"/>
		<line id="Line_5475" class="st3" x1="48.5" y1="351.8" x2="114.7" y2="285.8"/>
		<line id="Line_5479" class="st3" x1="44.1" y1="433.9" x2="90.4" y2="387.8"/>
		<line id="Line_5486" class="st3" x1="119.2" y1="467.8" x2="344.6" y2="243.1"/>
		<line id="Line_5491" class="st3" x1="383.8" y1="281.5" x2="546.5" y2="119.3"/>
		<line id="Line_5504" class="st3" x1="432.9" y1="434.2" x2="506.2" y2="361.1"/>
	</g>
	<g id="Color_-_1">
		<line id="Line_5462" class="st4" x1="55.6" y1="176.6" x2="146.6" y2="85.9"/>
		<line id="Line_5463" class="st4" x1="228.6" y1="40.4" x2="267.6" y2="1.5"/>
		<line id="Line_5464" class="st4" x1="147.9" y1="120.9" x2="214.3" y2="54.6"/>
		<line id="Line_5474" class="st4" x1="166.3" y1="223.2" x2="341.8" y2="48.3"/>
		<line id="Line_5480" class="st4" x1="447.7" y1="61.7" x2="505.4" y2="4.3"/>
		<line id="Line_5481" class="st4" x1="369.9" y1="139.3" x2="420.6" y2="88.8"/>
		<line id="Line_5482" class="st4" x1="39.8" y1="468.5" x2="347.3" y2="161.9"/>
		<line id="Line_5489" class="st4" x1="293.9" y1="334.9" x2="491.3" y2="138"/>
		<line id="Line_5495" class="st4" x1="180.7" y1="525.3" x2="249.9" y2="456.3"/>
		<line id="Line_5498" class="st4" x1="283.9" y1="465.9" x2="429.8" y2="320.4"/>
		<line id="Line_5507" class="st4" x1="398.3" y1="510" x2="459.1" y2="449.3"/>
	</g>
</g>
</svg>
