<?xml version="1.0" encoding="utf-8"?>
<!-- Generator: Adobe Illustrator 23.0.3, SVG Export Plug-In . SVG Version: 6.00 Build 0)  -->
<svg version="1.1" id="Layer_1" xmlns="http://www.w3.org/2000/svg" xmlns:xlink="http://www.w3.org/1999/xlink" x="0px" y="0px"
	 viewBox="0 0 132.5 465.5" style="enable-background:new 0 0 132.5 465.5;" xml:space="preserve">
<style type="text/css">
	.st0{fill:none;stroke:#FA8D28;stroke-width:3.5;stroke-linecap:round;stroke-miterlimit:10;}
	.st1{fill:none;stroke:#9DB6CB;stroke-width:3.5;stroke-linecap:round;stroke-miterlimit:10;}
	.st2{fill:none;stroke:#00A8E1;stroke-width:3.5;stroke-linecap:round;stroke-miterlimit:10;}
	.st3{fill:none;stroke:#fff;stroke-width:3.5;stroke-linecap:round;stroke-miterlimit:10;}
</style>
<title>leadership-wave</title>
<g id="c4">
	<path id="Stroke_1_Copy" class="st0" d="M126.8,161.8c2.4-12.4,3.7-25,3.9-37.6c0.4-18.6-1.1-34.1-3.9-47.4"/>
	<path id="Stroke_19_Copy" class="st0" d="M54.6,110.8c0.1,4.3,0.2,8.7,0,13.4c-0.5,22.7-3.9,40.6-8.9,55.6"/>
	<path id="Stroke_1_Copy-2" class="st0" d="M126.8,161.8c2.4-12.4,3.7-25,3.9-37.6c0.4-18.6-1.1-34.1-3.9-47.4"/>
	<path id="Stroke_19_Copy-2" class="st0" d="M54.6,110.8c0.1,4.3,0.2,8.7,0,13.4c-0.5,22.7-3.9,40.6-8.9,55.6"/>
</g>
<g id="c3">
	<path id="Stroke_3_Copy_2" class="st1" d="M73.8,269.8c14-33.5,35.9-53.3,48-90"/>
	<path id="Stroke_9_Copy_2" class="st1" d="M92.8,119.8c0,1.5,0,3-0.1,4.5c-0.4,18.3-2.6,33.5-5.9,46.5"/>
	<path id="Stroke_11_Copy" class="st1" d="M87.8,76.8c2,8.2,3.3,16.6,4,25"/>
	<path id="Stroke_17_Copy" class="st1" d="M1.8,260.8c11.3-23.2,26-40.4,37-64"/>
	<path id="Stroke_3_Copy_2-2" class="st1" d="M73.8,269.8c14-33.5,35.9-53.3,48-90"/>
	<path id="Stroke_9_Copy_2-2" class="st1" d="M92.8,119.8c0,1.5,0,3-0.1,4.5c-0.4,18.3-2.6,33.5-5.9,46.5"/>
	<path id="Stroke_11_Copy-2" class="st1" d="M87.8,76.8c2,8.2,3.3,16.6,4,25"/>
	<path id="Stroke_17_Copy-2" class="st1" d="M1.8,260.8c11.3-23.2,26-40.4,37-64"/>
</g>
<g id="c2">
	<path id="Stroke_13_Copy" class="st2" d="M26.5,375.8c-2.2-13.3-3.1-26.9-2.7-40.4c1.9-79.4,37.7-98.8,56.9-147.6"/>
	<path id="Stroke_15_Copy_2" class="st2" d="M52.8,92.8c-4.9-41.6-21.8-64.2-36-91"/>
	<path id="Stroke_13_Copy-2" class="st2" d="M26.5,375.8c-2.2-13.3-3.1-26.9-2.7-40.4c1.9-79.4,37.7-98.8,56.9-147.6"/>
	<path id="Stroke_15_Copy_2-2" class="st2" d="M52.8,92.8c-4.9-41.6-21.8-64.2-36-91"/>
</g>
<g id="c1">
	<path id="Stroke_5_Copy" class="st3" d="M68.6,286.8c-3.8,13.5-6.3,29.3-6.8,48.7c-1.6,66.8,23,92.3,40.9,128.3"/>
	<path id="Stroke_7_Copy" class="st3" d="M54.8,1.8c10,18.5,21.3,35,29,57"/>
	<path id="Stroke_5_Copy-2" class="st3" d="M68.6,286.8c-3.8,13.5-6.3,29.3-6.8,48.7c-1.6,66.8,23,92.3,40.9,128.3"/>
	<path id="Stroke_7_Copy-2" class="st3" d="M54.8,1.8c10,18.5,21.3,35,29,57"/>
</g>
</svg>
