<?xml version="1.0" encoding="utf-8"?>
<svg id="Layer_1" data-name="Layer 1" xmlns="http://www.w3.org/2000/svg" viewBox="0 0 7.99 8.01">
  <defs>
    <style>
      .cls-1 {
        fill: #9a9897;
      }
    </style>
  </defs>
  <title>nav-magnifying-glass</title>
  <path id="Fill_1" data-name="Fill 1" class="cls-1" d="M-11.76,400.94a.32.32,0,0,1-.26-.1l-1.92-2c-.13-.15-.19-.32-.11-.39a.16.16,0,0,0,0-.09.47.47,0,0,0-.14-.3h0a2.91,2.91,0,0,1-1.8.62,2.87,2.87,0,0,1-2.87-2.88A2.89,2.89,0,0,1-16,392.94a2.87,2.87,0,0,1,2.87,2.88,2.88,2.88,0,0,1-.59,1.74l0,0a.47.47,0,0,0,.3.16.14.14,0,0,0,.09,0,.14.14,0,0,1,.09,0,.47.47,0,0,1,.3.16l1.91,2a.35.35,0,0,1,0,.5h0l-.54.52A.31.31,0,0,1-11.76,400.94Zm-4.22-7.1a2,2,0,0,0-2,2,2,2,0,0,0,2,2,2,2,0,0,0,1.39-.58,2,2,0,0,0,0-2.8A2,2,0,0,0-16,393.84Z" transform="translate(18.85 -392.94)"/>
</svg>
