<svg xmlns="http://www.w3.org/2000/svg" width="756.792" height="761.749" viewBox="0 0 756.792 761.749">
  <g id="Group_12835" data-name="Group 12835" transform="translate(-7849.023 6080.75)">
    <circle id="Ellipse_738" data-name="Ellipse 738" cx="91.1" cy="91.1" r="91.1" transform="translate(8134.5 -5760)" fill="none" stroke="#73b86b" stroke-linecap="round" stroke-linejoin="round" stroke-width="3.5"/>
    <path id="Path_25411" data-name="Path 25411" d="M628.2,570.2a91.6,91.6,0,0,0-3.2-24.1,93.406,93.406,0,0,0-5-13.7,90.5,90.5,0,0,0-10.6-17.6,91.6,91.6,0,0,0-31.9-26.3,90.1,90.1,0,0,0-31.1-8.9c-3.1-.3-6.2-.5-9.3-.5a91.818,91.818,0,0,0-28.41,4.5,88.6,88.6,0,0,0-16.89,7.5,91.1,91.1,0,0,0-45,66.6,86.6,86.6,0,0,0-.9,12.5,90.1,90.1,0,0,0,9.4,40.2,86.2,86.2,0,0,0,10.3,16.3,90.866,90.866,0,0,0,102.2,29.4,90.5,90.5,0,0,0,37.7-25.7,87.7,87.7,0,0,0,7.5-9.8,90.5,90.5,0,0,0,15.2-50.4Z" transform="translate(7688.5 -6239.1)" fill="none" stroke="#b8dfb5" stroke-linecap="round" stroke-linejoin="round" stroke-width="3.5"/>
    <path id="Path_25413" data-name="Path 25413" d="M494.2,675.8a106.483,106.483,0,0,0,14.8,4.8A113.853,113.853,0,0,0,601.8,664a119.088,119.088,0,0,0,14.1-11.4" transform="translate(7688.5 -6239.1)" fill="none" stroke="#f2d964" stroke-linecap="round" stroke-linejoin="round" stroke-width="3.5"/>
    <path id="Path_25414" data-name="Path 25414" d="M429.5,607.8a114.9,114.9,0,0,0,18.9,34" transform="translate(7688.5 -6239.1)" fill="none" stroke="#9cb6cb" stroke-linecap="round" stroke-linejoin="round" stroke-width="3.5"/>
    <path id="Path_25415" data-name="Path 25415" d="M514.7,458.5a104.1,104.1,0,0,0-15.2,4.2,113.5,113.5,0,0,0-70.7,72.1" transform="translate(7688.5 -6239.1)" fill="none" stroke="#b8dfb5" stroke-linecap="round" stroke-linejoin="round" stroke-width="3.5"/>
    <path id="Path_25416" data-name="Path 25416" d="M429.7,688.2a154.5,154.5,0,0,0,29.2,21A159.4,159.4,0,0,0,642.5,690" transform="translate(7688.5 -6239.1)" fill="none" stroke="#94aec3" stroke-linecap="round" stroke-linejoin="round" stroke-width="3.5"/>
    <path id="Path_25417" data-name="Path 25417" d="M428.5,453.3A158.3,158.3,0,0,0,403,483.9a156.6,156.6,0,0,0-17.5,36.7,169.8,169.8,0,0,0-5.3,21,158.4,158.4,0,0,0-.9,51.9" transform="translate(7688.5 -6239.1)" fill="none" stroke="#94aec3" stroke-linecap="round" stroke-linejoin="round" stroke-width="3.5"/>
    <path id="Path_25418" data-name="Path 25418" d="M664.5,666.2a159.441,159.441,0,0,0-51.3-236.1" transform="translate(7688.5 -6239.1)" fill="none" stroke="#73b86b" stroke-linecap="round" stroke-linejoin="round" stroke-width="3.5"/>
    <path id="Path_25420" data-name="Path 25420" d="M664.5,666.2a159.441,159.441,0,0,0-51.3-236.1" transform="translate(7688.5 -6239.1)" fill="none" stroke="#9cb6cb" stroke-linecap="round" stroke-linejoin="round" stroke-width="3.5"/>
    <path id="Path_25421" data-name="Path 25421" d="M537.1,378.6A191.317,191.317,0,0,0,392.9,444" transform="translate(7688.5 -6239.1)" fill="none" stroke="#9cb6cb" stroke-linecap="round" stroke-linejoin="round" stroke-width="3.5"/>
    <path id="Path_25422" data-name="Path 25422" d="M689.2,453.7a192.4,192.4,0,0,0-67.1-55.2" transform="translate(7688.5 -6239.1)" fill="none" stroke="#b8dfb5" stroke-linecap="round" stroke-linejoin="round" stroke-width="3.5"/>
    <path id="Path_25423" data-name="Path 25423" d="M347.2,543.9a207.409,207.409,0,0,0-1.8,26.3,190.4,190.4,0,0,0,19.7,84.6A186.3,186.3,0,0,0,386.7,689a192.5,192.5,0,0,0,34,33.5" transform="translate(7688.5 -6239.1)" fill="none" stroke="#fae164" stroke-linecap="round" stroke-linejoin="round" stroke-width="3.5"/>
    <path id="Path_25425" data-name="Path 25425" d="M534.7,747.7a178.6,178.6,0,0,0,89.5-22.8,189.2,189.2,0,0,0,23.5-15.8,179.7,179.7,0,0,0,28.2-28.3" transform="translate(7688.5 -6239.1)" fill="none" stroke="#73c06b" stroke-linecap="round" stroke-linejoin="round" stroke-width="3.5"/>
    <path id="Path_25426" data-name="Path 25426" d="M351.8,364.3A276.6,276.6,0,0,0,264,523.6" transform="translate(7688.5 -6239.1)" fill="none" stroke="#73b86b" stroke-linecap="round" stroke-linejoin="round" stroke-width="3.5"/>
    <path id="Path_25427" data-name="Path 25427" d="M675,329.9a275.9,275.9,0,0,0-51.3-22.8,278.8,278.8,0,0,0-90.4-13.8,275.7,275.7,0,0,0-95.1,18.1" transform="translate(7688.5 -6239.1)" fill="none" stroke="#9cb6cb" stroke-linecap="round" stroke-linejoin="round" stroke-width="3.5"/>
    <path id="Path_25428" data-name="Path 25428" d="M533.3,293.3a275.7,275.7,0,0,0-95.1,18.1" transform="translate(7688.5 -6239.1)" fill="none" stroke="#b8dfb5" stroke-linecap="round" stroke-linejoin="round" stroke-width="3.5"/>
    <path id="Path_25430" data-name="Path 25430" d="M540.2,847.2a263.506,263.506,0,0,0,37.6-3,275.5,275.5,0,0,0,85.9-27.5,279,279,0,0,0,58.7-40.6,282.3,282.3,0,0,0,47.9-56.3" transform="translate(7688.5 -6239.1)" fill="none" stroke="#b8dfb5" stroke-linecap="round" stroke-linejoin="round" stroke-width="3.5"/>
    <path id="Path_25431" data-name="Path 25431" d="M261,592.4A277.5,277.5,0,0,0,405.6,814.1" transform="translate(7688.5 -6239.1)" fill="none" stroke="#9cb6cb" stroke-linecap="round" stroke-linejoin="round" stroke-width="3.5"/>
    <path id="Path_25432" data-name="Path 25432" d="M261,592.4a274.9,274.9,0,0,0,70.2,163.1" transform="translate(7688.5 -6239.1)" fill="none" stroke="#fae164" stroke-linecap="round" stroke-linejoin="round" stroke-width="3.5"/>
    <path id="Path_25433" data-name="Path 25433" d="M261,592.4A275.9,275.9,0,0,0,278.2,669" transform="translate(7688.5 -6239.1)" fill="none" stroke="#004b9d" stroke-linecap="round" stroke-linejoin="round" stroke-width="3.5"/>
    <path id="Path_25434" data-name="Path 25434" d="M261,592.4A275.9,275.9,0,0,0,278.2,669" transform="translate(7688.5 -6239.1)" fill="none" stroke="#b8dfb5" stroke-linecap="round" stroke-linejoin="round" stroke-width="3.5"/>
    <path id="Path_25435" data-name="Path 25435" d="M723.2,453.1a225.1,225.1,0,0,0-48.3-54.2,222.5,222.5,0,0,0-67.4-37,217.3,217.3,0,0,0-49.3-10.5" transform="translate(7688.5 -6239.1)" fill="none" stroke="#9cb6cb" stroke-linecap="round" stroke-linejoin="round" stroke-width="3.5"/>
    <path id="Path_25436" data-name="Path 25436" d="M674.9,398.9a222.5,222.5,0,0,0-67.4-37,217.3,217.3,0,0,0-49.3-10.5" transform="translate(7688.5 -6239.1)" fill="none" stroke="#fae164" stroke-linecap="round" stroke-linejoin="round" stroke-width="3.5"/>
    <path id="Path_25438" data-name="Path 25438" d="M333.3,652.9A220.557,220.557,0,0,0,489.8,785" transform="translate(7688.5 -6239.1)" fill="none" stroke="#00a0d9" stroke-linecap="round" stroke-linejoin="round" stroke-width="3.5"/>
    <path id="Path_25440" data-name="Path 25440" d="M687.5,777.4a248.133,248.133,0,0,0,20.4-16.5,256.3,256.3,0,0,0,50.9-62.7,248.407,248.407,0,0,0,21.3-47.4,257.9,257.9,0,0,0-3.6-171.4,253.292,253.292,0,0,0-27.1-52.1,248.9,248.9,0,0,0-21.7-27.9" transform="translate(7688.5 -6239.1)" fill="none" stroke="#9cb6cb" stroke-linecap="round" stroke-linejoin="round" stroke-width="3.5"/>
    <path id="Path_25441" data-name="Path 25441" d="M793,567.3a255.9,255.9,0,0,0-16.5-87.9,253.3,253.3,0,0,0-27.1-52.1,248.894,248.894,0,0,0-21.7-27.9" transform="translate(7688.5 -6239.1)" fill="none" stroke="#73c06b" stroke-linecap="round" stroke-linejoin="round" stroke-width="3.5"/>
    <path id="Path_25442" data-name="Path 25442" d="M489.5,821.8a257.2,257.2,0,0,0,116-4.9" transform="translate(7688.5 -6239.1)" fill="none" stroke="#73c06b" stroke-linecap="round" stroke-linejoin="round" stroke-width="3.5"/>
    <path id="Path_25443" data-name="Path 25443" d="M431.4,840.3a290.1,290.1,0,0,0,97.2,19.8" transform="translate(7688.5 -6239.1)" fill="none" stroke="#b8dfb5" stroke-linecap="round" stroke-linejoin="round" stroke-width="3.5"/>
    <path id="Path_25445" data-name="Path 25445" d="M351.8,364.3a276.8,276.8,0,0,0-71.9,102.9" transform="translate(7688.5 -6239.1)" fill="none" stroke="#73c06b" stroke-linecap="round" stroke-linejoin="round" stroke-width="3.5"/>
    <path id="Path_25446" data-name="Path 25446" d="M642.7,300.2a289.6,289.6,0,0,0-89.3-19.6" transform="translate(7688.5 -6239.1)" fill="none" stroke="#73c06b" stroke-linecap="round" stroke-linejoin="round" stroke-width="3.5"/>
    <path id="Path_25447" data-name="Path 25447" d="M845.2,473.6A323.751,323.751,0,0,0,698,290.2" transform="translate(7688.5 -6239.1)" fill="none" stroke="#b8dfb5" stroke-linecap="round" stroke-linejoin="round" stroke-width="3.5"/>
    <path id="Path_25448" data-name="Path 25448" d="M770,346.6a324.6,324.6,0,0,0-72-56.4" transform="translate(7688.5 -6239.1)" fill="none" stroke="#73c06b" stroke-linecap="round" stroke-linejoin="round" stroke-width="3.5"/>
    <path id="Path_25449" data-name="Path 25449" d="M652.9,871.6A322.5,322.5,0,0,0,846.4,662.9a310.4,310.4,0,0,0,9.7-43.4" transform="translate(7688.5 -6239.1)" fill="none" stroke="#73c06b" stroke-linecap="round" stroke-linejoin="round" stroke-width="3.5"/>
    <path id="Path_25450" data-name="Path 25450" d="M351.3,834.4a321.5,321.5,0,0,0,104.2,48.2,307.975,307.975,0,0,0,32.3,6.7" transform="translate(7688.5 -6239.1)" fill="none" stroke="#73c06b" stroke-linecap="round" stroke-linejoin="round" stroke-width="3.5"/>
    <path id="Path_25451" data-name="Path 25451" d="M241.1,441.1A320.3,320.3,0,0,0,218,521a324.2,324.2,0,0,0-1.7,86.2" transform="translate(7688.5 -6239.1)" fill="none" stroke="#b8dfb5" stroke-linecap="round" stroke-linejoin="round" stroke-width="3.5"/>
    <path id="Path_25452" data-name="Path 25452" d="M475.9,253.1A325.1,325.1,0,0,0,330,322.5" transform="translate(7688.5 -6239.1)" fill="none" stroke="#9db6cb" stroke-linecap="round" stroke-linejoin="round" stroke-width="3.5"/>
    <path id="Path_25453" data-name="Path 25453" d="M475.9,253.1a325.2,325.2,0,0,0-76.5,25.1" transform="translate(7688.5 -6239.1)" fill="none" stroke="#b8dfb5" stroke-linecap="round" stroke-linejoin="round" stroke-width="3.5"/>
    <path id="Path_25455" data-name="Path 25455" d="M414.2,227a367.3,367.3,0,0,0-91.4,48.2" transform="translate(7688.5 -6239.1)" fill="none" stroke="#73c06b" stroke-linecap="round" stroke-linejoin="round" stroke-width="3.5"/>
    <path id="Path_25456" data-name="Path 25456" d="M901.1,590A365.2,365.2,0,0,0,832,355.8" transform="translate(7688.5 -6239.1)" fill="none" stroke="#9cb6cb" stroke-linecap="round" stroke-linejoin="round" stroke-width="3.5"/>
    <path id="Path_25457" data-name="Path 25457" d="M821.3,798.5a368.28,368.28,0,0,0,21.8-30.2,363.1,363.1,0,0,0,46.6-105.2" transform="translate(7688.5 -6239.1)" fill="none" stroke="#b8dfb5" stroke-linecap="round" stroke-linejoin="round" stroke-width="3.5"/>
    <path id="Path_25458" data-name="Path 25458" d="M271.9,300.2A376.7,376.7,0,0,0,162.5,516.7" transform="translate(7688.5 -6239.1)" fill="none" stroke="#73c06b" stroke-linecap="round" stroke-linejoin="round" stroke-width="3.5"/>
    <path id="Path_25459" data-name="Path 25459" d="M271.9,300.2a377.6,377.6,0,0,0-65.1,85.1" transform="translate(7688.5 -6239.1)" fill="none" stroke="#73c06b" stroke-linecap="round" stroke-linejoin="round" stroke-width="3.5"/>
    <path id="Path_25462" data-name="Path 25462" d="M249.5,816.2a366.714,366.714,0,0,0,36,36.7" transform="translate(7688.5 -6239.1)" fill="none" stroke="#fae164" stroke-linecap="round" stroke-linejoin="round" stroke-width="3.5"/>
    <path id="Path_25412" data-name="Path 25412" d="M494.2,675.8a106.483,106.483,0,0,0,14.8,4.8A113.853,113.853,0,0,0,601.8,664a110.3,110.3,0,0,0,30.5-31.2,114.2,114.2,0,0,0,15.6-88.9,110.412,110.412,0,0,0-3.3-11.2,116.3,116.3,0,0,0-17-31.7" transform="translate(7688.5 -6239.1)" fill="none" stroke="#9db6cb" stroke-linecap="round" stroke-linejoin="round" stroke-width="3.5"/>
    <path id="Path_25419" data-name="Path 25419" d="M632.3,632.8a114.2,114.2,0,0,0,15.6-88.9,110.412,110.412,0,0,0-3.3-11.2,116.3,116.3,0,0,0-17-31.7" transform="translate(7688.5 -6239.1)" fill="none" stroke="#fae164" stroke-linecap="round" stroke-linejoin="round" stroke-width="3.5"/>
    <path id="Path_25424" data-name="Path 25424" d="M710.5,608.1a177.7,177.7,0,0,0,2.3-63.1c-.9-5.9-2.1-11.9-3.6-17.8" transform="translate(7688.5 -6239.1)" fill="none" stroke="#fae164" stroke-linecap="round" stroke-linejoin="round" stroke-width="3.5"/>
    <path id="Path_25429" data-name="Path 25429" d="M803.9,495.5a275.9,275.9,0,0,0-43.1-88.6,280.782,280.782,0,0,0-17.8-22" transform="translate(7688.5 -6239.1)" fill="none" stroke="#9db6cb" stroke-linecap="round" stroke-linejoin="round" stroke-width="3.5"/>
    <path id="Path_25437" data-name="Path 25437" d="M333.3,652.9a220.17,220.17,0,0,0,212.9,137,225.194,225.194,0,0,0,57.9-10.2A220.079,220.079,0,0,0,738,659.5" transform="translate(7688.5 -6239.1)" fill="none" stroke="#9db6cb" stroke-linecap="round" stroke-linejoin="round" stroke-width="3.5"/>
    <path id="Path_25439" data-name="Path 25439" d="M432,377.1a217.6,217.6,0,0,0-38.3,26.5,220.3,220.3,0,0,0-64.9,96" transform="translate(7688.5 -6239.1)" fill="none" stroke="#fae164" stroke-linecap="round" stroke-linejoin="round" stroke-width="3.5"/>
    <path id="Path_25444" data-name="Path 25444" d="M284.1,428.4a292.4,292.4,0,0,0-17,36.2" transform="translate(7688.5 -6239.1)" fill="none" stroke="#fae164" stroke-linecap="round" stroke-linejoin="round" stroke-width="3.5"/>
    <path id="Path_25454" data-name="Path 25454" d="M267.4,815.6A366.1,366.1,0,0,0,427.1,917.9" transform="translate(7688.5 -6239.1)" fill="none" stroke="#9db6cb" stroke-linecap="round" stroke-linejoin="round" stroke-width="3.5"/>
    <path id="Path_25460" data-name="Path 25460" d="M911.7,623.7a377.9,377.9,0,0,0-1.9-119.3" transform="translate(7688.5 -6239.1)" fill="none" stroke="#fae164" stroke-linecap="round" stroke-linejoin="round" stroke-width="3.5"/>
    <path id="Path_25461" data-name="Path 25461" d="M722.3,900.2A379.6,379.6,0,0,0,849.1,784.5" transform="translate(7688.5 -6239.1)" fill="none" stroke="#9db6cb" stroke-linecap="round" stroke-linejoin="round" stroke-width="3.5"/>
    <path id="Path_25463" data-name="Path 25463" d="M537.1,160.1a408.7,408.7,0,0,0-127.8,20.3,416,416,0,0,0-76.1,33.9" transform="translate(7688.5 -6239.1)" fill="none" stroke="#9db6cb" stroke-linecap="round" stroke-linejoin="round" stroke-width="3.5"/>
    <path id="Path_25464" data-name="Path 25464" d="M862.7,320.9A412.2,412.2,0,0,0,719.1,202.6" transform="translate(7688.5 -6239.1)" fill="none" stroke="#73c06b" stroke-linecap="round" stroke-linejoin="round" stroke-width="3.5"/>
  </g>
</svg>
