<svg id="Layer_1" data-name="Layer 1" xmlns="http://www.w3.org/2000/svg" viewBox="0 0 294.3 1164.5">
  <defs>
    <style>
      .cls-1, .cls-2, .cls-3, .cls-4, .cls-5 {
        fill: none;
        stroke-linecap: round;
        stroke-miterlimit: 10;
        stroke-width: 3.5px;
      }

      .cls-1 {
        stroke: #fa8d28;
      }

      .cls-2 {
        stroke: #9db6cb;
      }

      .cls-3 {
        stroke: #e4ebf1;
      }

      .cls-4 {
        stroke: #00a8e1;
      }

      .cls-5 {
        stroke: #004ba5;
      }
    </style>
  </defs>
  <title>wavelines-mb-vertical</title>
  <g id="Color_5" data-name="Color 5">
    <path class="cls-1" d="M441.1-301.1c5.4-9.9,14.2-15.1,14.2-32.3,0-24.8-18.4-24.8-18.4-49.6s18.4-24.8,18.4-49.6" transform="translate(-435.15 435.15)"/>
    <path id="Master" class="cls-1" d="M471.3,185.2a33.86,33.86,0,0,0,8.3-22.7c0-24.8-18.4-24.8-18.4-49.6s18.4-24.8,18.4-49.6a35,35,0,0,0-3.4-15.9c-.1-.3-.3-.5-.4-.8" transform="translate(-435.15 435.15)"/>
    <path id="Master-2" class="cls-1" d="M511.5,117c-.1-1.3-.2-2.7-.2-4.1,0-24.8,18.4-24.8,18.4-49.6s-18.4-24.8-18.4-49.6,18.4-24.8,18.4-49.6-18.4-24.8-18.4-49.6V-86" transform="translate(-435.15 435.15)"/>
    <path id="Master-3" class="cls-1" d="M521.5,185.1a33.86,33.86,0,0,0,8.3-22.7c0-24.8-18.4-24.8-18.4-49.6v-.7" transform="translate(-435.15 435.15)"/>
    <path id="Master-4" class="cls-1" d="M539.8,95.6c5.4-9.9,14.2-15.2,14.2-32.3,0-24.8-18.4-24.8-18.4-49.6A34,34,0,0,1,542-7.2" transform="translate(-435.15 435.15)"/>
    <path id="Master-5" class="cls-1" d="M591-263.8c0-.1-.1-.1-.1-.2a34.8,34.8,0,0,1-5.6-19.8c0-24.8,18.4-24.8,18.4-49.6s-18.4-24.8-18.4-49.6,18.4-24.8,18.4-49.6" transform="translate(-435.15 435.15)"/>
    <path id="Master-6" class="cls-1" d="M669.8,185.2a33.86,33.86,0,0,0,8.3-22.7c0-24.8-18.4-24.8-18.4-49.6s18.4-24.8,18.4-49.6-18.4-24.8-18.4-49.6a34.49,34.49,0,0,1,6.5-21.1" transform="translate(-435.15 435.15)"/>
    <path id="Master-7" class="cls-1" d="M687.8-168a35.19,35.19,0,0,1-3.8-16.6c0-24.8,18.4-24.8,18.4-49.6S684-259,684-283.8s18.4-24.8,18.4-49.6S684-358.2,684-383s18.4-24.8,18.4-49.6" transform="translate(-435.15 435.15)"/>
    <path id="Master-8" class="cls-1" d="M539.2,426.2c-2.2-4.2-3.7-9.3-3.7-16.5,0-24.8,18.4-24.8,18.4-49.6,0-24.5-17.8-24.8-18.3-48.6v-.2" transform="translate(-435.15 435.15)"/>
    <path id="Master-9" class="cls-1" d="M585.7,608c0-24.8,18.4-24.8,18.4-49.6s-18.4-24.8-18.4-49.6,18.4-24.8,18.4-49.6-18.4-24.8-18.4-49.6,18.4-24.8,18.4-49.6a38.35,38.35,0,0,0-1.7-11.6c-.1-.4-.2-.7-.3-1" transform="translate(-435.15 435.15)"/>
    <path id="Master-10" class="cls-1" d="M628.8,656.7" transform="translate(-435.15 435.15)"/>
    <path id="Master-11" class="cls-1" d="M641,727.6c-3.4-5.1-6.1-10.9-6.1-20.5,0-24.8,18.4-24.8,18.4-49.6s-18.4-24.8-18.4-49.6,18.4-24.8,18.4-49.6-18.4-24.8-18.4-49.6,18.4-24.8,18.4-49.6a34.19,34.19,0,0,0-4-17.1" transform="translate(-435.15 435.15)"/>
  </g>
  <g id="Color_4" data-name="Color 4">
    <path id="Master-12" class="cls-2" d="M466.7-165.1c-3.1-4.8-5.5-10.5-5.5-19.5,0-24.8,18.5-24.8,18.5-49.6s-18.4-24.8-18.4-49.6c0-17.7,9.3-22.7,14.7-33.2" transform="translate(-435.15 435.15)"/>
    <path id="Master-13" class="cls-2" d="M468.5-63.1l-1.8-2.7a34.27,34.27,0,0,1-5.6-19.7c0-24.8,18.4-24.8,18.4-49.6,0-17.9-9.7-22.9-15-33.7-.1-.1-.1-.1-.1-.2" transform="translate(-435.15 435.15)"/>
    <path id="Master-14" class="cls-2" d="M464.6,29.8l-.3-.6a36.22,36.22,0,0,1-3.2-15.5c0-24.8,18.4-24.8,18.4-49.6,0-15.2-7-21.1-12.3-29.1" transform="translate(-435.15 435.15)"/>
    <path id="Master-15" class="cls-2" d="M570.6,185.2a33.86,33.86,0,0,0,8.3-22.7c0-24.8-18.4-24.8-18.4-49.6s18.4-24.8,18.4-49.6-18.4-24.8-18.4-49.6,18.4-24.8,18.4-49.6a34.58,34.58,0,0,0-2.1-12.7" transform="translate(-435.15 435.15)"/>
    <path id="Master-16" class="cls-2" d="M622.8-114.4c.1-.1.2-.3.3-.4,3.3-4.9,5.9-10.7,5.9-20.1,0-24.8-18.4-24.8-18.4-49.6S629-209.3,629-234.1s-18.4-24.8-18.4-49.6S629-308.5,629-333.3a35.87,35.87,0,0,0-3.8-16.7" transform="translate(-435.15 435.15)"/>
    <path id="Master-17" class="cls-2" d="M665.6-263.5c-.3-.5-.6-.9-.9-1.4-2.9-4.7-5.1-10.3-5.1-18.9,0-24.8,18.4-24.8,18.4-49.6s-18.4-24.8-18.4-49.6S678-407.8,678-432.6" transform="translate(-435.15 435.15)"/>
    <path id="Master-18" class="cls-2" d="M640.7,133.5c-3.4-5.1-6.1-10.9-6.1-20.5,0-24.8,18.4-24.8,18.4-49.6s-18.4-24.8-18.4-49.6S653-11,653-35.8s-18.4-24.8-18.4-49.6S653-110.2,653-135a34.19,34.19,0,0,0-4-17.1" transform="translate(-435.15 435.15)"/>
    <path id="Master-19" class="cls-2" d="M723.5-317.2a33.58,33.58,0,0,0,4-17c0-24.8-18.4-24.8-18.4-49.6s18.4-24.8,18.4-49.6" transform="translate(-435.15 435.15)"/>
    <path id="Master-20" class="cls-2" d="M504.7,558.3c0-24.8-18.4-24.8-18.4-49.6s18.4-24.8,18.4-49.6-18.4-24.8-18.4-49.6,18.4-24.8,18.4-49.6" transform="translate(-435.15 435.15)"/>
    <path id="Master-21" class="cls-2" d="M515.3,492c5.4-10.2,14.5-15.4,14.5-32.8,0-24.8-18.4-24.8-18.4-49.6s18.4-24.8,18.4-49.6-18.4-24.8-18.4-49.6,18.4-24.8,18.4-49.6-18.4-24.8-18.4-49.6,18.4-24.8,18.4-49.6" transform="translate(-435.15 435.15)"/>
    <path id="Master-22" class="cls-2" d="M674.7,574.4a34.9,34.9,0,0,0,3.6-16.2c0-24.8-18.4-24.8-18.4-49.6s18.4-24.8,18.4-49.6-18.4-24.8-18.4-49.6,18.4-24.8,18.4-49.6a40.61,40.61,0,0,0-1.3-10.4,13.09,13.09,0,0,0-.9-2.8" transform="translate(-435.15 435.15)"/>
    <path id="Master-23" class="cls-2" d="M702.5,657.5c0-24.8-18.4-24.8-18.4-49.6s18.4-24.8,18.4-49.6-18.4-24.8-18.4-49.6,18.4-24.8,18.4-49.6a34.19,34.19,0,0,0-4-17.1" transform="translate(-435.15 435.15)"/>
    <path id="Master-24" class="cls-2" d="M709.2,409.5v-1.3c0-24.8,18.4-24.8,18.4-49.6s-18.4-24.8-18.4-49.6a35,35,0,0,1,3.3-15.6" transform="translate(-435.15 435.15)"/>
  </g>
  <g id="Color_3" data-name="Color 3">
    <path class="cls-3" d="M452-19.8a35,35,0,0,0,3.4-15.9c0-24.8-18.4-24.8-18.4-49.6s18.4-24.9,18.4-49.7S437-159.8,437-184.6s18.4-24.8,18.4-49.6S437-259,437-283.8" transform="translate(-435.15 435.15)"/>
    <path id="Master-25" class="cls-3" d="M515.2-102.2c5.4-10.2,14.5-15.4,14.5-32.8,0-24.8-18.4-24.8-18.4-49.6s18.4-24.8,18.4-49.6-18.4-24.8-18.4-49.6,18.4-24.8,18.4-49.6-18.4-24.8-18.4-49.6,18.4-24.8,18.4-49.6" transform="translate(-435.15 435.15)"/>
    <path id="Master-26" class="cls-3" d="M550-416.5a35.69,35.69,0,0,0,3.5-16.1" transform="translate(-435.15 435.15)"/>
    <path id="Master-27" class="cls-3" d="M575.6-218.5a35.46,35.46,0,0,0,3.3-15.7c0-24.8-18.4-24.8-18.4-49.6" transform="translate(-435.15 435.15)"/>
    <path id="Master-28" class="cls-3" d="M564.1-300.8c.1-.2.2-.3.3-.5,3.1-5.6,7.4-9.8,10.4-15.6" transform="translate(-435.15 435.15)"/>
    <path id="Master-29" class="cls-3" d="M595.5,185.1a33.86,33.86,0,0,0,8.3-22.7c0-15.3-7-21.2-12.4-29.3" transform="translate(-435.15 435.15)"/>
    <path id="Master-30" class="cls-3" d="M613.8-366.9a35.69,35.69,0,0,1-3.5-16.1c0-24.8,18.4-24.8,18.4-49.6" transform="translate(-435.15 435.15)"/>
    <path id="Master-31" class="cls-3" d="M620.8,185.1a33.86,33.86,0,0,0,8.3-22.7c0-24.8-18.4-24.8-18.4-49.6S629.1,88,629.1,63.2s-18.4-24.8-18.4-49.6S629.1-11.2,629.1-36s-18.4-24.8-18.4-49.6c0-7.2,1.5-12.3,3.7-16.5" transform="translate(-435.15 435.15)"/>
    <path id="Master-32" class="cls-3" d="M674.4-19.7A34.9,34.9,0,0,0,678-35.9c0-24.8-18.4-24.8-18.4-49.6S678-110.3,678-135.1" transform="translate(-435.15 435.15)"/>
    <path id="Master-33" class="cls-3" d="M638-168.8a34.36,34.36,0,0,1-3.4-15.8c0-24.8,18.4-24.8,18.4-49.6s-18.4-24.8-18.4-49.6S653-308.6,653-333.4s-18.4-24.8-18.4-49.6S653-407.8,653-432.6" transform="translate(-435.15 435.15)"/>
    <path id="Master-34" class="cls-3" d="M719.2,184.3a33.86,33.86,0,0,0,8.3-22.7c0-24.8-18.4-24.8-18.4-49.6s18.4-24.8,18.4-49.6-18.4-24.8-18.4-49.6S727.5-12,727.5-36.8c0-14.8-6.5-20.7-11.8-28.4" transform="translate(-435.15 435.15)"/>
    <path id="Master-35" class="cls-3" d="M709.1-184.6v-1.3c0-24.8,18.4-24.8,18.4-49.6s-18.4-24.8-18.4-49.6a35,35,0,0,1,3.3-15.6" transform="translate(-435.15 435.15)"/>
    <path id="Master-36" class="cls-3" d="M502.4,346.9c-4.8-12.9-16.1-17.1-16.1-36.5,0-24.8,18.4-24.8,18.4-49.6s-18.4-24.8-18.4-49.6,18.4-24.8,18.4-49.6" transform="translate(-435.15 435.15)"/>
    <path id="Master-37" class="cls-3" d="M511.4,607.9c0-24.8,18.4-24.8,18.4-49.6s-18.4-24.8-18.4-49.6v-.5" transform="translate(-435.15 435.15)"/>
    <path id="Master-38" class="cls-3" d="M566.6,529a34.92,34.92,0,0,1-5.9-20.3c0-24.8,18.4-24.8,18.4-49.6s-18.4-24.8-18.4-49.6c0-7.2,1.5-12.3,3.7-16.5" transform="translate(-435.15 435.15)"/>
    <path id="Master-39" class="cls-3" d="M579,259.9v-.7c-.8-23.2-18.3-23.8-18.3-48,0-24.8,18.4-24.8,18.4-49.6" transform="translate(-435.15 435.15)"/>
    <path id="Master-40" class="cls-3" d="M614.2,226.6a35.69,35.69,0,0,1-3.5-16.1c0-24.8,18.4-24.8,18.4-49.6" transform="translate(-435.15 435.15)"/>
    <path id="Master-41" class="cls-3" d="M629.2,657.4c0-24.8-18.4-24.8-18.4-49.6s18.4-24.8,18.4-49.6-18.4-24.8-18.4-49.6c0-7.2,1.5-12.3,3.7-16.5" transform="translate(-435.15 435.15)"/>
    <path id="Master-42" class="cls-3" d="M638.3,425.4a34.36,34.36,0,0,1-3.4-15.8c0-24.8,18.4-24.8,18.4-49.6s-18.4-24.8-18.4-49.6,18.4-24.8,18.4-49.6-18.4-24.8-18.4-49.6,18.4-24.8,18.4-49.6" transform="translate(-435.15 435.15)"/>
    <path id="Master-43" class="cls-3" d="M687.9,426.2a35.19,35.19,0,0,1-3.8-16.6c0-24.8,18.4-24.8,18.4-49.6s-18.4-24.8-18.4-49.6,18.4-24.8,18.4-49.6-18.4-24.8-18.4-49.6,18.4-24.8,18.4-49.6" transform="translate(-435.15 435.15)"/>
    <path id="Master-44" class="cls-3" d="M709.3,507.7v-.3c0-24.8,18.4-24.8,18.4-49.6s-18.4-24.8-18.4-49.6a35.4,35.4,0,0,1,.2-4.6" transform="translate(-435.15 435.15)"/>
    <path id="Master-45" class="cls-3" d="M496.4,185.1a36.34,36.34,0,0,0,4.3-39.7" transform="translate(-435.15 435.15)"/>
    <path id="Master-46" class="cls-3" d="M625,178.8a33.45,33.45,0,0,0,4-16.4c0-24.8-18.4-24.8-18.4-49.6S629,88,629,63.2" transform="translate(-435.15 435.15)"/>
  </g>
  <g id="Color_2" data-name="Color 2">
    <path id="Master-47" class="cls-4" d="M479.4-334.1v-.5c-.5-23.6-18.3-24-18.3-48.4,0-24.8,18.4-24.8,18.4-49.6" transform="translate(-435.15 435.15)"/>
    <path id="Master-48" class="cls-4" d="M492.1,133.2c-3.3-4.9-5.9-10.8-5.9-20.2,0-24.8,18.4-24.8,18.4-49.6s-18.4-24.8-18.4-49.6S504.6-11,504.6-35.8s-18.4-24.8-18.4-49.6,18.4-24.8,18.4-49.6-18.4-24.8-18.4-49.6,18.4-24.8,18.4-49.6" transform="translate(-435.15 435.15)"/>
    <path id="Master-49" class="cls-4" d="M550.5-20a34.36,34.36,0,0,0,3.4-15.8c0-24.8-18.4-24.8-18.4-49.6s18.4-24.8,18.4-49.6a34,34,0,0,0-3.9-16.8" transform="translate(-435.15 435.15)"/>
    <path id="Master-50" class="cls-4" d="M566.5-65.1a34.92,34.92,0,0,1-5.9-20.3c0-24.8,18.4-24.8,18.4-49.6s-18.4-24.8-18.4-49.6c0-7.2,1.5-12.3,3.7-16.5" transform="translate(-435.15 435.15)"/>
    <path id="Master-51" class="cls-4" d="M578.9-334.3v-.7c-.8-23.2-18.3-23.8-18.3-48,0-24.8,18.4-24.8,18.4-49.6" transform="translate(-435.15 435.15)"/>
    <path class="cls-4" d="M441.2,293.2c5.4-9.9,14.2-15.1,14.2-32.3,0-24.8-18.4-24.8-18.4-49.6s18.4-24.8,18.4-49.6" transform="translate(-435.15 435.15)"/>
    <path id="Master-52" class="cls-4" d="M479.5,260.2v-.6c-.5-23.6-18.3-24-18.3-48.4,0-24.8,18.4-24.8,18.4-49.6" transform="translate(-435.15 435.15)"/>
    <path id="Master-53" class="cls-4" d="M575.7,375.6a35.46,35.46,0,0,0,3.3-15.7c0-24.8-18.4-24.8-18.4-49.6" transform="translate(-435.15 435.15)"/>
    <path id="Master-54" class="cls-4" d="M564.5,293.4c.1-.2.2-.3.3-.5,3.1-5.6,7.4-9.8,10.4-15.6" transform="translate(-435.15 435.15)"/>
    <path id="Master-55" class="cls-4" d="M591.4,330.4c0-.1-.1-.1-.1-.2a34.8,34.8,0,0,1-5.6-19.8c0-24.8,18.4-24.8,18.4-49.6s-18.4-24.8-18.4-49.6,18.4-24.8,18.4-49.6" transform="translate(-435.15 435.15)"/>
    <path id="Master-56" class="cls-4" d="M674.8,574.5a34.9,34.9,0,0,0,3.6-16.2c0-24.8-18.4-24.8-18.4-49.6s18.4-24.8,18.4-49.6" transform="translate(-435.15 435.15)"/>
    <path id="Master-57" class="cls-4" d="M723.6,276.9a33.58,33.58,0,0,0,4-17c0-24.8-18.4-24.8-18.4-49.6s18.4-24.8,18.4-49.6" transform="translate(-435.15 435.15)"/>
    <path id="Master-58" class="cls-4" d="M644.8,185.1a36.34,36.34,0,0,0,4.3-39.7" transform="translate(-435.15 435.15)"/>
  </g>
  <g id="Color_1" data-name="Color 1">
    <path class="cls-5" d="M447.1,185.3a33.86,33.86,0,0,0,8.3-22.7c0-24.8-18.4-24.8-18.4-49.6s18.4-24.8,18.4-49.6S437,38.6,437,13.8A34.49,34.49,0,0,1,443.3-7" transform="translate(-435.15 435.15)"/>
    <path id="Master-59" class="cls-5" d="M502.3-247.2c-4.8-12.9-16.1-17.1-16.1-36.5,0-24.8,18.4-24.9,18.4-49.7s-18.4-24.8-18.4-49.6,18.4-24.8,18.4-49.6" transform="translate(-435.15 435.15)"/>
    <path id="Master-60" class="cls-5" d="M539.1-168.1c-2.2-4.2-3.7-9.3-3.7-16.5,0-24.8,18.4-24.8,18.4-49.6,0-24.5-17.8-24.8-18.3-48.6v-.2" transform="translate(-435.15 435.15)"/>
    <path id="Master-61" class="cls-5" d="M535.5-283.1v-.8c0-24.8,18.4-24.8,18.4-49.6s-18.4-24.8-18.4-49.6a35.46,35.46,0,0,1,3.3-15.7c.2-.5.5-.9.7-1.4" transform="translate(-435.15 435.15)"/>
    <path id="Master-62" class="cls-5" d="M545.7,185a33.86,33.86,0,0,0,8.3-22.7c0-24.6-18.2-24.8-18.4-49.1v-1.1" transform="translate(-435.15 435.15)"/>
    <path id="Master-63" class="cls-5" d="M585.4,113.1v-1.7c.8-23.1,18.3-23.7,18.3-47.9,0-24.8-18.4-24.8-18.4-49.6s18.4-24.8,18.4-49.6-18.4-24.8-18.4-49.6,18.4-24.8,18.4-49.6-18.4-24.8-18.4-49.6,18.4-24.8,18.4-49.6a38.35,38.35,0,0,0-1.7-11.6c-.1-.4-.2-.7-.3-1" transform="translate(-435.15 435.15)"/>
    <path id="Master-64" class="cls-5" d="M674.3-19.8A34.9,34.9,0,0,0,677.9-36c0-24.8-18.4-24.8-18.4-49.6s18.4-24.8,18.4-49.6-18.4-24.8-18.4-49.6,18.4-24.8,18.4-49.6a40.61,40.61,0,0,0-1.3-10.4,13.09,13.09,0,0,0-.9-2.8" transform="translate(-435.15 435.15)"/>
    <path id="Master-65" class="cls-5" d="M702.4,162.6c0-24.8-18.4-24.8-18.4-49.6s18.4-24.8,18.4-49.6S684,38.6,684,13.8,702.4-11,702.4-35.8,684-60.6,684-85.4s18.4-24.8,18.4-49.6a34.19,34.19,0,0,0-4-17.1" transform="translate(-435.15 435.15)"/>
    <path id="Master-66" class="cls-5" d="M709.2-86.5v-.3c0-24.8,18.4-24.8,18.4-49.6s-18.4-24.8-18.4-49.6a35.4,35.4,0,0,1,.2-4.6" transform="translate(-435.15 435.15)"/>
    <path id="Master-67" class="cls-5" d="M466.8,429.1c-3.1-4.8-5.5-10.5-5.5-19.5,0-24.8,18.5-24.8,18.5-49.6s-18.4-24.8-18.4-49.6c0-17.7,9.3-22.7,14.7-33.2" transform="translate(-435.15 435.15)"/>
    <path id="Master-68" class="cls-5" d="M535.6,311.1v-.8c0-24.8,18.4-24.8,18.4-49.6s-18.4-24.8-18.4-49.6a35.46,35.46,0,0,1,3.3-15.7c.2-.5.5-.9.7-1.4" transform="translate(-435.15 435.15)"/>
    <path id="Master-69" class="cls-5" d="M550.6,574.1a34.36,34.36,0,0,0,3.4-15.8c0-24.8-18.4-24.8-18.4-49.6S554,483.9,554,459.1a34,34,0,0,0-3.9-16.8" transform="translate(-435.15 435.15)"/>
    <path id="Master-70" class="cls-5" d="M622.9,479.7c.1-.1.2-.3.3-.4,3.3-4.9,5.9-10.7,5.9-20.1,0-24.8-18.4-24.8-18.4-49.6s18.4-24.8,18.4-49.6-18.4-24.8-18.4-49.6,18.4-24.8,18.4-49.6a35.87,35.87,0,0,0-3.8-16.7" transform="translate(-435.15 435.15)"/>
    <path id="Master-71" class="cls-5" d="M666,330.7c-.3-.5-.6-.9-.9-1.4-2.9-4.7-5.1-10.3-5.1-18.9,0-24.8,18.4-24.8,18.4-49.6S660,236,660,211.2s18.4-24.8,18.4-49.6" transform="translate(-435.15 435.15)"/>
  </g>
</svg>
