<?xml version="1.0" encoding="utf-8"?>
<!-- Generator: Adobe Illustrator 23.0.3, SVG Export Plug-In . SVG Version: 6.00 Build 0)  -->
<svg version="1.1" id="Layer_1" xmlns="http://www.w3.org/2000/svg" xmlns:xlink="http://www.w3.org/1999/xlink" x="0px" y="0px"
	 viewBox="0 0 498.7 269" style="enable-background:new 0 0 498.7 269;" xml:space="preserve">
<style type="text/css">
	.st0{fill:none;stroke:#FA8D28;stroke-width:3.5;stroke-linecap:round;stroke-miterlimit:10;}
	.st1{fill:none;stroke:#0C4E9F;stroke-width:3.5;stroke-linecap:round;stroke-miterlimit:10;}
	.st2{fill:none;stroke:#00A8E1;stroke-width:3.5;stroke-linecap:round;stroke-miterlimit:10;}
	.st3{fill:none;stroke:#E4EBF1;stroke-width:3.5;stroke-linecap:round;stroke-miterlimit:10;}
	.st4{fill:none;stroke:#9DB6CB;stroke-width:3.5;stroke-linecap:round;stroke-miterlimit:10;}
</style>
<g id="Layer_1-2">
	<g id="Color_5">
		<path id="Master_1_" class="st0" d="M1.8,44.4C26.5,44.4,26.5,26,51.4,26S76.1,44.4,101,44.4"/>
		<path id="Master-2" class="st0" d="M1.8,94.6c24.8,0,24.8-18.4,49.6-18.4c1.4,0,2.8,0.1,4.1,0.2"/>
		<path id="Master-3_1_" class="st0" d="M50.6,76.2h0.7c24.8,0,24.8,18.4,49.6,18.4"/>
		<path id="Master-4" class="st1" d="M1.8,118.8c17.1,0,22.4-8.8,32.3-14.2"/>
		<path id="Master-5" class="st0" d="M1.8,242.9c24.8,0,24.8-18.4,49.6-18.4s24.8,18.4,49.6,18.4c8.3,0.1,16.4-2.8,22.7-8.3"/>
		<path id="Master-6" class="st2" d="M249.8,100.4h0.2c23.8,0.5,24.1,18.3,48.6,18.3c24.8,0,24.8-18.4,49.6-18.4
			c7.2,0,12.3,1.5,16.5,3.7"/>
		<path id="Master-7" class="st2" d="M286,166.9c0.3,0.1,0.6,0.2,1,0.3c3.8,1.2,7.7,1.7,11.6,1.7c24.8,0,24.8-18.4,49.6-18.4
			s24.8,18.4,49.6,18.4s24.8-18.4,49.6-18.4s24.8,18.4,49.6,18.4"/>
	</g>
	<g id="Color_4">
		<path id="Master-8_1_" class="st3" d="M1.8,143.8c24.8,0,24.8-18.4,49.6-18.4s24.8,18.4,49.6,18.4"/>
		<path id="Master-9" class="st3" d="M1.9,217.8c24.8,0,24.8-18.4,49.6-18.4c9.6,0,15.4,2.7,20.5,6.1"/>
		<path id="Master-10" class="st0" d="M298.5,69.5c24.8,0,24.8-18.4,49.6-18.4s24.8,18.4,49.6,18.4s24.8-18.4,49.6-18.4"/>
		<path id="Master-17" class="st3" d="M99.5,193.9c24.8,0,24.8-18.4,49.6-18.4c5.6-0.1,11.1,1.1,16.1,3.5"/>
		<path id="Master-11" class="st3" d="M100.2,94.6c24.8,0,24.8-18.4,49.6-18.4s24.8,18.4,49.6,18.4s24.8-18.4,49.6-18.4
			s24.8,18.4,49.6,18.4s24.8-18.4,49.6-18.4s24.8,18.4,49.6,18.4"/>
	</g>
	<g id="Color_3">
		<path id="Master-12_1_" class="st1" d="M71.6,156.4c8.1,5.4,14,12.4,29.3,12.4"/>
		<path id="Master-13_1_" class="st1" d="M1.8,194c24.8,0,24.8-18.4,49.6-18.4S76.1,194,101,194"/>
		<path id="Master-14" class="st1" d="M100.2,69.5c24.8,0,24.8-18.4,49.6-18.4s24.8,18.4,49.6,18.4s24.8-18.4,49.6-18.4
			c19.4,0,23.6,11.3,36.5,16.1"/>
		<path id="Master-15" class="st1" d="M331.5,129.2c4.2-2.2,9.3-3.7,16.5-3.7c24.8,0,24.8,18.4,49.6,18.4s24.8-18.4,49.6-18.4
			c7.2-0.2,14.3,1.9,20.3,5.9"/>
		<path id="Master-16" class="st1" d="M100.2,143.8c24.8,0,24.8-18.4,49.6-18.4c24.2,0,24.8,17.5,48,18.3h0.7"/>
		<path id="Master-18" class="st1" d="M100.2,218c24.8,0,24.8-18.4,49.6-18.4s24.8,18.4,49.6,18.4s24.8-18.4,49.6-18.4
			s24.8,18.4,49.6,18.4s24.8-18.4,49.6-18.4c5.5-0.1,10.9,1,15.8,3.4"/>
		<path id="Master-19" class="st1" d="M100.2,267.2c24.8,0,24.8-18.4,49.6-18.4s24.8,18.4,49.6,18.4s24.8-18.4,49.6-18.4
			s24.8,18.4,49.6,18.4s24.8-18.4,49.6-18.4c5.8-0.1,11.5,1.2,16.6,3.8"/>
		<path id="Master-20" class="st1" d="M84,65.5c5.2,2.8,11.1,4.2,17,4c8.3,0.1,16.4-2.8,22.7-8.3"/>
	</g>
	<g id="Color_2">
		<path id="Master-22" class="st4" d="M1.9,69.5c24.8,0,24.8-18.4,49.6-18.4c9.4,0,15.3,2.6,20.2,5.9"/>
		<path class="st4" d="M100.2,20.2c24.8,0,24.8-18.4,49.6-18.4s24.8,18.4,49.6,18.4c17.2,0,22.4-8.8,32.3-14.2"/>
		<path id="Master-23" class="st3" d="M100.2,44.4C125,44.4,125,26,149.8,26c24.4,0,24.8,17.8,48.4,18.3h0.5"/>
		<path id="Master-24" class="st3" d="M248.8,125.4c24.8,0,24.8,18.4,49.6,18.4c5.4,0.1,10.8-1,15.7-3.3"/>
		<path id="Master-25" class="st3" d="M215.8,140c5.8-3,10-7.3,15.6-10.4c0.2-0.1,0.3-0.2,0.5-0.3"/>
		<path id="Master-26" class="st4" d="M100.2,168.9c24.8,0,24.8-18.4,49.6-18.4s24.8,18.4,49.6,18.4s24.8-18.4,49.6-18.4
			c7-0.2,13.9,1.8,19.8,5.6c0.1,0,0.1,0.1,0.2,0.1"/>
		<path id="Master-27_1_" class="st4" d="M84,214c5.2,2.8,11.1,4.2,17,4"/>
	</g>
	<g id="Color_1">
		<path class="st1" d="M1.8,20.2c24.8,0,24.8-18.4,49.6-18.4S76.1,20.2,101,20.2"/>
		<path id="Master-28" class="st2" d="M50.6,100.4h1.1c24.3,0.2,24.5,18.4,49.1,18.4c8.3,0.1,16.4-2.8,22.7-8.3"/>
		<path id="Master-29" class="st2" d="M2,168.5c24.2,0,24.8-17.5,47.9-18.3h1.7"/>
		<path id="Master-30" class="st2" d="M1.9,267.2c24.8,0,24.8-18.4,49.6-18.4s24.8,18.4,49.6,18.4"/>
		<path id="Master-31" class="st2" d="M215.7,40.8c10.5-5.4,15.5-14.7,33.2-14.7c24.8,0,24.8,18.4,49.6,18.4S323.2,26,348,26
			c9,0,14.7,2.4,19.5,5.5"/>
		<path id="Master-32" class="st0" d="M132.5,104.4c0.5-0.2,0.9-0.5,1.4-0.7c4.9-2.3,10.3-3.4,15.7-3.3c24.8,0,24.8,18.4,49.6,18.4
			s24.8-18.4,49.6-18.4h0.8"/>
		<path id="Master-33" class="st0" d="M182.7,190c5.2,2.6,10.9,3.9,16.7,3.8c24.8,0,24.8-18.4,49.6-18.4s24.8,18.4,49.6,18.4
			s24.8-18.4,49.6-18.4s24.8,18.4,49.6,18.4c9.4,0,15.2-2.6,20.1-5.9c0.1-0.1,0.3-0.2,0.4-0.3"/>
		<path id="Master-34" class="st2" d="M100.2,243.2c24.8,0,24.8-18.4,49.6-18.4s24.8,18.4,49.6,18.4s24.8-18.4,49.6-18.4
			c8.6,0,14.2,2.2,18.9,5.1c0.5,0.3,0.9,0.6,1.4,0.9"/>
	</g>
</g>
</svg>
