<svg id="Layer_1" data-name="Layer 1" xmlns="http://www.w3.org/2000/svg" viewBox="0 0 498.7 269">
  <defs>
    <style>
      .cls-1, .cls-2, .cls-3, .cls-4, .cls-5 {
        fill: none;
        stroke-linecap: round;
        stroke-miterlimit: 10;
        stroke-width: 3.5px;
      }

      .cls-1 {
        stroke: #9DB6CB;
      }

      .cls-2 {
        stroke: #FA8D28;
      }

      .cls-3 {
        stroke: #fff;
      }

      .cls-4 {
        stroke: #9DB6CB;
      }

      .cls-5 {
        stroke: #00A8E1;
      }
    </style>
  </defs>
  <title>wavelines-ctastrip-blue</title>
  <g id="Layer_1-2" data-name="Layer 1">
    <g id="Color_5" data-name="Color 5">
      <path id="Master" class="cls-1" d="M420,400.4c24.8,0,24.8-18.4,49.6-18.4s24.8,18.4,49.6,18.4a33.92,33.92,0,0,0,22.7-8.3" transform="translate(-418.25 -356.05)"/>
      <path id="Master-2" data-name="Master" class="cls-1" d="M420,450.6c24.8,0,24.8-18.4,49.6-18.4,1.4,0,2.8.1,4.1.2" transform="translate(-418.25 -356.05)"/>
      <path id="Master-3" data-name="Master" class="cls-1" d="M468.9,432.2h.7c24.8,0,24.8,18.4,49.6,18.4a33.92,33.92,0,0,0,22.7-8.3" transform="translate(-418.25 -356.05)"/>
      <path id="Master-4" data-name="Master" class="cls-1" d="M420,474.8c17.1,0,22.4-8.8,32.3-14.2" transform="translate(-418.25 -356.05)"/>
      <path id="Master-5" data-name="Master" class="cls-1" d="M420,598.9c24.8,0,24.8-18.4,49.6-18.4s24.8,18.4,49.6,18.4a33.92,33.92,0,0,0,22.7-8.3" transform="translate(-418.25 -356.05)"/>
      <path id="Master-6" data-name="Master" class="cls-1" d="M668,456.4h.2c23.8.5,24.1,18.3,48.6,18.3,24.8,0,24.8-18.4,49.6-18.4,7.2,0,12.3,1.5,16.5,3.7" transform="translate(-418.25 -356.05)"/>
      <path id="Master-7" data-name="Master" class="cls-1" d="M704.2,522.9c.3.1.6.2,1,.3a38.41,38.41,0,0,0,11.6,1.7c24.8,0,24.8-18.4,49.6-18.4s24.8,18.4,49.6,18.4,24.8-18.4,49.6-18.4,24.8,18.4,49.6,18.4" transform="translate(-418.25 -356.05)"/>
    </g>
    <g id="Color_4" data-name="Color 4">
      <path id="Master-8" data-name="Master" class="cls-2" d="M420,499.8c24.8,0,24.8-18.4,49.6-18.4s24.8,18.4,49.6,18.4a33.92,33.92,0,0,0,22.7-8.3" transform="translate(-418.25 -356.05)"/>
      <path id="Master-9" data-name="Master" class="cls-2" d="M420.1,573.8c24.8,0,24.8-18.4,49.6-18.4,9.6,0,15.4,2.7,20.5,6.1" transform="translate(-418.25 -356.05)"/>
      <path id="Master-10" data-name="Master" class="cls-2" d="M716.7,425.5c24.8,0,24.8-18.4,49.6-18.4s24.8,18.4,49.6,18.4,24.8-18.4,49.6-18.4" transform="translate(-418.25 -356.05)"/>
      <path id="Master-11" data-name="Master" class="cls-2" d="M518.4,450.6c24.8,0,24.8-18.4,49.6-18.4s24.8,18.4,49.6,18.4,24.8-18.4,49.6-18.4,24.8,18.4,49.6,18.4,24.8-18.4,49.6-18.4,24.8,18.4,49.6,18.4" transform="translate(-418.25 -356.05)"/>
    </g>
    <g id="Color_3" data-name="Color 3">
      <path id="Master-12" data-name="Master" class="cls-3" d="M489.9,512.2c8.1,5.4,14,12.4,29.3,12.4a33.92,33.92,0,0,0,22.7-8.3" transform="translate(-418.25 -356.05)"/>
      <path id="Master-13" data-name="Master" class="cls-3" d="M420,550c24.8,0,24.8-18.4,49.6-18.4S494.4,550,519.2,550a33.92,33.92,0,0,0,22.7-8.3" transform="translate(-418.25 -356.05)"/>
      <path id="Master-14" data-name="Master" class="cls-3" d="M518.4,425.5c24.8,0,24.8-18.4,49.6-18.4s24.8,18.4,49.6,18.4,24.8-18.4,49.6-18.4c19.4,0,23.6,11.3,36.5,16.1" transform="translate(-418.25 -356.05)"/>
      <path id="Master-15" data-name="Master" class="cls-3" d="M749.8,485.2c4.2-2.2,9.3-3.7,16.5-3.7,24.8,0,24.8,18.4,49.6,18.4s24.8-18.4,49.6-18.4a35,35,0,0,1,20.3,5.9" transform="translate(-418.25 -356.05)"/>
      <path id="Master-16" data-name="Master" class="cls-3" d="M518.4,499.8c24.8,0,24.8-18.4,49.6-18.4,24.2,0,24.8,17.5,48,18.3h.7" transform="translate(-418.25 -356.05)"/>
      <path id="Master-17" data-name="Master" class="cls-3" d="M517.7,549.9c24.8,0,24.8-18.4,49.6-18.4a35.27,35.27,0,0,1,16.1,3.5" transform="translate(-418.25 -356.05)"/>
      <path id="Master-18" data-name="Master" class="cls-3" d="M518.4,574.1c24.8,0,24.8-18.4,49.6-18.4s24.8,18.4,49.6,18.4,24.8-18.4,49.6-18.4,24.8,18.4,49.6,18.4,24.8-18.4,49.6-18.4a34.62,34.62,0,0,1,15.8,3.4" transform="translate(-418.25 -356.05)"/>
      <path id="Master-19" data-name="Master" class="cls-3" d="M518.4,623.3c24.8,0,24.8-18.4,49.6-18.4s24.8,18.4,49.6,18.4,24.8-18.4,49.6-18.4,24.8,18.4,49.6,18.4,24.8-18.4,49.6-18.4a34.8,34.8,0,0,1,16.6,3.8" transform="translate(-418.25 -356.05)"/>
      <path id="Master-20" data-name="Master" class="cls-3" d="M502.2,421.5a34.36,34.36,0,0,0,17,4,33.92,33.92,0,0,0,22.7-8.3" transform="translate(-418.25 -356.05)"/>
      <path id="Master-21" data-name="Master" class="cls-3" d="M420,549.9c24.8,0,24.8-18.4,49.6-18.4s24.8,18.4,49.6,18.4a32.84,32.84,0,0,0,16.4-4" transform="translate(-418.25 -356.05)"/>
    </g>
    <g id="Color_2" data-name="Color 2">
      <path id="Master-22" data-name="Master" class="cls-4" d="M420.1,425.5c24.8,0,24.8-18.4,49.6-18.4,9.4,0,15.3,2.6,20.2,5.9" transform="translate(-418.25 -356.05)"/>
      <path class="cls-4" d="M518.4,376.2c24.8,0,24.8-18.4,49.6-18.4s24.8,18.4,49.6,18.4c17.2,0,22.4-8.8,32.3-14.2" transform="translate(-418.25 -356.05)"/>
      <path id="Master-23" data-name="Master" class="cls-4" d="M518.4,400.4c24.8,0,24.8-18.4,49.6-18.4,24.4,0,24.8,17.8,48.4,18.3h.5" transform="translate(-418.25 -356.05)"/>
      <path id="Master-24" data-name="Master" class="cls-4" d="M667.1,481.4c24.8,0,24.8,18.4,49.6,18.4a35.27,35.27,0,0,0,15.7-3.3" transform="translate(-418.25 -356.05)"/>
      <path id="Master-25" data-name="Master" class="cls-4" d="M634.1,496c5.8-3,10-7.3,15.6-10.4a2.19,2.19,0,0,0,.5-.3" transform="translate(-418.25 -356.05)"/>
      <path id="Master-26" data-name="Master" class="cls-4" d="M518.4,524.9c24.8,0,24.8-18.4,49.6-18.4s24.8,18.4,49.6,18.4,24.8-18.4,49.6-18.4a34.54,34.54,0,0,1,19.8,5.6c.1,0,.1.1.2.1" transform="translate(-418.25 -356.05)"/>
      <path id="Master-27" data-name="Master" class="cls-4" d="M502.2,569.8a34.36,34.36,0,0,0,17,4,33.92,33.92,0,0,0,22.7-8.3" transform="translate(-418.25 -356.05)"/>
    </g>
    <g id="Color_1" data-name="Color 1">
      <path class="cls-5" d="M420,376.3c24.8,0,24.8-18.4,49.6-18.4s24.8,18.4,49.6,18.4a33.92,33.92,0,0,0,22.7-8.3" transform="translate(-418.25 -356.05)"/>
      <path id="Master-28" data-name="Master" class="cls-5" d="M468.9,456.4H470c24.3.2,24.5,18.4,49.1,18.4a33.92,33.92,0,0,0,22.7-8.3" transform="translate(-418.25 -356.05)"/>
      <path id="Master-29" data-name="Master" class="cls-5" d="M420.2,524.6c24.2,0,24.8-17.5,47.9-18.3h1.7" transform="translate(-418.25 -356.05)"/>
      <path id="Master-30" data-name="Master" class="cls-5" d="M420.1,623.3c24.8,0,24.8-18.4,49.6-18.4s24.8,18.4,49.6,18.4" transform="translate(-418.25 -356.05)"/>
      <path id="Master-31" data-name="Master" class="cls-5" d="M633.9,396.8c10.5-5.4,15.5-14.7,33.2-14.7,24.8,0,24.8,18.4,49.6,18.4s24.8-18.4,49.6-18.4c9,0,14.7,2.4,19.5,5.5" transform="translate(-418.25 -356.05)"/>
      <path id="Master-32" data-name="Master" class="cls-5" d="M550.8,460.4c.5-.2.9-.5,1.4-.7a34.56,34.56,0,0,1,15.7-3.3c24.8,0,24.8,18.4,49.6,18.4s24.8-18.4,49.6-18.4h.8" transform="translate(-418.25 -356.05)"/>
      <path id="Master-33" data-name="Master" class="cls-5" d="M600.9,546.1a34.93,34.93,0,0,0,16.7,3.8c24.8,0,24.8-18.4,49.6-18.4s24.8,18.4,49.6,18.4,24.8-18.4,49.6-18.4,24.8,18.4,49.6,18.4c9.4,0,15.2-2.6,20.1-5.9.1-.1.3-.2.4-.3" transform="translate(-418.25 -356.05)"/>
      <path id="Master-34" data-name="Master" class="cls-5" d="M518.4,599.2c24.8,0,24.8-18.4,49.6-18.4s24.8,18.4,49.6,18.4,24.8-18.4,49.6-18.4c8.6,0,14.2,2.2,18.9,5.1.5.3.9.6,1.4.9" transform="translate(-418.25 -356.05)"/>
    </g>
  </g>
</svg>
