<?xml version="1.0" encoding="utf-8"?>
<!-- Generator: Adobe Illustrator 23.0.3, SVG Export Plug-In . SVG Version: 6.00 Build 0)  -->
<svg version="1.1" id="Layer_1" xmlns="http://www.w3.org/2000/svg" xmlns:xlink="http://www.w3.org/1999/xlink" x="0px" y="0px"
	 viewBox="0 0 1164.6 294.2" style="enable-background:new 0 0 1164.6 294.2;" xml:space="preserve">
<style type="text/css">
	.st0{fill:none;stroke:#FAE164;stroke-width:3.5;stroke-linecap:round;stroke-miterlimit:10;}
	.st1{fill:none;stroke:#9DB6CB;stroke-width:3.5;stroke-linecap:round;stroke-miterlimit:10;}
	.st2{fill:none;stroke:#FEF6D1;stroke-width:3.5;stroke-linecap:round;stroke-miterlimit:10;}
	.st3{fill:none;stroke:#00A8E1;stroke-width:3.5;stroke-linecap:round;stroke-miterlimit:10;}
	.st4{fill:none;stroke:#004BA5;stroke-width:3.5;stroke-linecap:round;stroke-miterlimit:10;}
</style>
<g id="Color_5">
	<path class="st0" d="M441.2-301.3c5.4-9.9,14.2-15.1,14.2-32.3c0-24.8-18.4-24.8-18.4-49.6s18.4-24.8,18.4-49.6"/>
	<path id="Master" class="st0" d="M471.3,185c5.5-6.3,8.4-14.4,8.3-22.7c0-24.8-18.4-24.8-18.4-49.6s18.4-24.8,18.4-49.6
		c0.1-5.5-1-10.9-3.4-15.9c-0.1-0.3-0.3-0.5-0.4-0.8"/>
	<path id="Master-2" class="st0" d="M511.6,116.8c-0.1-1.3-0.2-2.7-0.2-4.1c0-24.8,18.4-24.8,18.4-49.6s-18.4-24.8-18.4-49.6
		s18.4-24.8,18.4-49.6s-18.4-24.8-18.4-49.6v-0.5"/>
	<path id="Master-3" class="st0" d="M521.5,184.9c5.5-6.3,8.4-14.4,8.3-22.7c0-24.8-18.4-24.8-18.4-49.6v-0.7"/>
	<path id="Master-4" class="st0" d="M539.9,95.4c5.4-9.9,14.2-15.2,14.2-32.3c0-24.8-18.4-24.8-18.4-49.6c-0.2-7.5,2-14.8,6.4-20.9"
		/>
	<path id="Master-5" class="st0" d="M591.1-264c0-0.1-0.1-0.1-0.1-0.2c-3.8-5.9-5.8-12.8-5.6-19.8c0-24.8,18.4-24.8,18.4-49.6
		s-18.4-24.8-18.4-49.6s18.4-24.8,18.4-49.6"/>
	<path id="Master-6" class="st0" d="M669.9,185c5.5-6.3,8.4-14.4,8.3-22.7c0-24.8-18.4-24.8-18.4-49.6s18.4-24.8,18.4-49.6
		s-18.4-24.8-18.4-49.6c-0.2-7.6,2.1-15,6.5-21.1"/>
	<path id="Master-7" class="st0" d="M687.9-168.2c-2.6-5.1-3.9-10.8-3.8-16.6c0-24.8,18.4-24.8,18.4-49.6s-18.4-24.8-18.4-49.6
		s18.4-24.8,18.4-49.6s-18.4-24.8-18.4-49.6s18.4-24.8,18.4-49.6"/>
	<path id="Master-8" class="st0" d="M539.2,426c-2.2-4.2-3.7-9.3-3.7-16.5c0-24.8,18.4-24.8,18.4-49.6c0-24.5-17.8-24.8-18.3-48.6
		v-0.2"/>
	<path id="Master-9" class="st0" d="M585.7,607.8c0-24.8,18.4-24.8,18.4-49.6s-18.4-24.8-18.4-49.6c0-24.8,18.4-24.8,18.4-49.6
		c0-24.8-18.4-24.8-18.4-49.6s18.4-24.8,18.4-49.6c0-3.9-0.5-7.8-1.7-11.6c-0.1-0.4-0.2-0.7-0.3-1"/>
	<path id="Master-10" class="st0" d="M628.8,656.6"/>
	<path id="Master-11" class="st0" d="M641,727.5c-3.4-5.1-6.1-10.9-6.1-20.5c0-24.8,18.4-24.8,18.4-49.6s-18.4-24.8-18.4-49.6
		s18.4-24.8,18.4-49.6s-18.4-24.8-18.4-49.6c0-24.8,18.4-24.8,18.4-49.6c0.2-5.9-1.2-11.8-4-17.1"/>
</g>
<g id="Color_4">
	<path id="Master-12" class="st1" d="M466.8-165.3c-3.1-4.8-5.5-10.5-5.5-19.5c0-24.8,18.5-24.8,18.5-49.6s-18.4-24.8-18.4-49.6
		c0-17.7,9.3-22.7,14.7-33.2"/>
	<path id="Master-13" class="st1" d="M468.6-63.3l-1.8-2.7c-3.8-5.8-5.8-12.7-5.6-19.7c0-24.8,18.4-24.8,18.4-49.6
		c0-17.9-9.7-22.9-15-33.7c-0.1-0.1-0.1-0.1-0.1-0.2"/>
	<path id="Master-14" class="st1" d="M464.7,29.6l-0.3-0.6c-2.2-4.9-3.3-10.2-3.2-15.5c0-24.8,18.4-24.8,18.4-49.6
		c0-15.2-7-21.1-12.3-29.1"/>
	<path id="Master-15" class="st1" d="M570.7,185c5.5-6.3,8.4-14.4,8.3-22.7c0-24.8-18.4-24.8-18.4-49.6S579,87.9,579,63.1
		s-18.4-24.8-18.4-49.6S579-11.3,579-36.1c0.1-4.3-0.6-8.6-2.1-12.7"/>
	<path id="Master-16" class="st1" d="M622.9-114.6c0.1-0.1,0.2-0.3,0.3-0.4c3.3-4.9,5.9-10.7,5.9-20.1c0-24.8-18.4-24.8-18.4-49.6
		s18.4-24.8,18.4-49.6s-18.4-24.8-18.4-49.6s18.4-24.8,18.4-49.6c0.1-5.8-1.2-11.5-3.8-16.7"/>
	<path id="Master-17" class="st1" d="M665.7-263.7c-0.3-0.5-0.6-0.9-0.9-1.4c-2.9-4.7-5.1-10.3-5.1-18.9c0-24.8,18.4-24.8,18.4-49.6
		s-18.4-24.8-18.4-49.6s18.4-24.8,18.4-49.6"/>
	<path id="Master-18" class="st1" d="M640.8,133.4c-3.4-5.1-6.1-10.9-6.1-20.5c0-24.8,18.4-24.8,18.4-49.6s-18.4-24.8-18.4-49.6
		s18.4-24.8,18.4-49.6s-18.4-24.8-18.4-49.6s18.4-24.8,18.4-49.6c0.2-5.9-1.2-11.8-4-17.1"/>
	<path id="Master-19" class="st1" d="M723.6-317.3c2.8-5.2,4.2-11.1,4-17c0-24.8-18.4-24.8-18.4-49.6s18.4-24.8,18.4-49.6"/>
	<path id="Master-20" class="st1" d="M504.7,558.1c0-24.8-18.4-24.8-18.4-49.6s18.4-24.8,18.4-49.6c0-24.8-18.4-24.8-18.4-49.6
		s18.4-24.8,18.4-49.6"/>
	<path id="Master-21" class="st1" d="M515.3,491.8c5.4-10.2,14.5-15.4,14.5-32.8c0-24.8-18.4-24.8-18.4-49.6
		c0-24.8,18.4-24.8,18.4-49.6c0-24.8-18.4-24.8-18.4-49.6c0-24.8,18.4-24.8,18.4-49.6s-18.4-24.8-18.4-49.6s18.4-24.8,18.4-49.6"/>
	<path id="Master-22" class="st1" d="M674.7,574.2c2.5-5,3.7-10.6,3.6-16.2c0-24.8-18.4-24.8-18.4-49.6c0-24.8,18.4-24.8,18.4-49.6
		s-18.4-24.8-18.4-49.6c0-24.8,18.4-24.8,18.4-49.6c0-3.5-0.4-7-1.3-10.4c-0.2-1-0.5-1.9-0.9-2.8"/>
	<path id="Master-23" class="st1" d="M702.5,657.4c0-24.8-18.4-24.8-18.4-49.6s18.4-24.8,18.4-49.6s-18.4-24.8-18.4-49.6
		c0-24.8,18.4-24.8,18.4-49.6c0.2-5.9-1.2-11.8-4-17.1"/>
	<path id="Master-24" class="st1" d="M709.2,409.3V408c0-24.8,18.4-24.8,18.4-49.6c0-24.8-18.4-24.8-18.4-49.6
		c-0.1-5.4,1-10.7,3.3-15.6"/>
</g>
<g id="Color_3">
	<path class="st2" d="M452.1-20.1c2.4-5,3.5-10.4,3.4-15.9c0-24.8-18.4-24.8-18.4-49.6s18.4-24.8,18.4-49.6s-18.4-24.8-18.4-49.6
		s18.4-24.8,18.4-49.6s-18.4-24.8-18.4-49.6"/>
	<path id="Master-25" class="st2" d="M515.3-102.4c5.4-10.2,14.5-15.4,14.5-32.8c0-24.8-18.4-24.8-18.4-49.6s18.4-24.8,18.4-49.6
		s-18.4-24.8-18.4-49.6s18.4-24.8,18.4-49.6s-18.4-24.8-18.4-49.6s18.4-24.8,18.4-49.6"/>
	<path id="Master-26" class="st2" d="M550.1-416.7c2.4-5,3.6-10.5,3.5-16.1"/>
	<path id="Master-27" class="st2" d="M575.7-218.7c2.3-4.9,3.4-10.3,3.3-15.7c0-24.8-18.4-24.8-18.4-49.6"/>
	<path id="Master-28" class="st2" d="M564.2-300.9c0.1-0.2,0.2-0.3,0.3-0.5c3.1-5.6,7.4-9.8,10.4-15.6"/>
	<path id="Master-29" class="st2" d="M595.5,184.9c5.5-6.3,8.4-14.4,8.3-22.7c0-15.3-7-21.2-12.4-29.3"/>
	<path id="Master-30" class="st2" d="M613.9-367.1c-2.4-5-3.6-10.5-3.5-16.1c0-24.8,18.4-24.8,18.4-49.6"/>
	<path id="Master-31" class="st2" d="M620.9,185c5.5-6.3,8.4-14.4,8.3-22.7c0-24.8-18.4-24.8-18.4-49.6s18.4-24.8,18.4-49.6
		s-18.4-24.8-18.4-49.6s18.4-24.8,18.4-49.6s-18.4-24.8-18.4-49.6c0-7.2,1.5-12.3,3.7-16.5"/>
	<path id="Master-32" class="st2" d="M674.5-19.8c2.5-5,3.7-10.6,3.6-16.2c0-24.8-18.4-24.8-18.4-49.6s18.4-24.8,18.4-49.6"/>
	<path id="Master-33" class="st2" d="M638.1-169c-2.4-4.9-3.5-10.3-3.4-15.8c0-24.8,18.4-24.8,18.4-49.6s-18.4-24.8-18.4-49.6
		s18.4-24.8,18.4-49.6s-18.4-24.8-18.4-49.6s18.4-24.8,18.4-49.6"/>
	<path id="Master-34" class="st2" d="M719.3,184.1c5.5-6.3,8.4-14.4,8.3-22.7c0-24.8-18.4-24.8-18.4-49.6s18.4-24.8,18.4-49.6
		s-18.4-24.8-18.4-49.6s18.4-24.8,18.4-49.6c0-14.8-6.5-20.7-11.8-28.4"/>
	<path id="Master-35" class="st2" d="M709.2-184.7v-1.3c0-24.8,18.4-24.8,18.4-49.6s-18.4-24.8-18.4-49.6c-0.1-5.4,1-10.7,3.3-15.6"
		/>
	<path id="Master-36" class="st2" d="M502.4,346.7c-4.8-12.9-16.1-17.1-16.1-36.5c0-24.8,18.4-24.8,18.4-49.6s-18.4-24.8-18.4-49.6
		s18.4-24.8,18.4-49.6"/>
	<path id="Master-37" class="st2" d="M511.4,607.6c0-24.8,18.4-24.8,18.4-49.6s-18.4-24.8-18.4-49.6v-0.5"/>
	<path id="Master-38" class="st2" d="M566.6,528.9c-4-6-6.1-13.1-5.9-20.3c0-24.8,18.4-24.8,18.4-49.6c0-24.8-18.4-24.8-18.4-49.6
		c0-7.2,1.5-12.3,3.7-16.5"/>
	<path id="Master-39" class="st2" d="M579,259.7V259c-0.8-23.2-18.3-23.8-18.3-48c0-24.8,18.4-24.8,18.4-49.6"/>
	<path id="Master-40" class="st2" d="M614.2,226.4c-2.4-5-3.6-10.5-3.5-16.1c0-24.8,18.4-24.8,18.4-49.6"/>
	<path id="Master-41" class="st2" d="M629.2,657.2c0-24.8-18.4-24.8-18.4-49.6s18.4-24.8,18.4-49.6s-18.4-24.8-18.4-49.6
		c0-7.2,1.5-12.3,3.7-16.5"/>
	<path id="Master-42" class="st2" d="M638.3,425.2c-2.4-4.9-3.5-10.3-3.4-15.8c0-24.8,18.4-24.8,18.4-49.6
		c0-24.8-18.4-24.8-18.4-49.6c0-24.8,18.4-24.8,18.4-49.6s-18.4-24.8-18.4-49.6s18.4-24.8,18.4-49.6"/>
	<path id="Master-43" class="st2" d="M687.9,426c-2.6-5.1-3.9-10.8-3.8-16.6c0-24.8,18.4-24.8,18.4-49.6c0-24.8-18.4-24.8-18.4-49.6
		c0-24.8,18.4-24.8,18.4-49.6s-18.4-24.8-18.4-49.6s18.4-24.8,18.4-49.6"/>
	<path id="Master-44" class="st2" d="M709.3,507.5v-0.3c0-24.8,18.4-24.8,18.4-49.6c0-24.8-18.4-24.8-18.4-49.6c0-1.5,0-3.1,0.2-4.6
		"/>
	<path id="Master-45" class="st2" d="M496.4,184.9c5.5-6.3,8.4-14.4,8.3-22.7c0.2-5.9-1.2-11.8-4-17"/>
	<path id="Master-46" class="st2" d="M625.1,178.7c2.7-5,4.1-10.7,4-16.4c0-24.8-18.4-24.8-18.4-49.6s18.4-24.8,18.4-49.6"/>
</g>
<g id="Color_2">
	<path id="Master-47" class="st3" d="M479.5-334.3v-0.5c-0.5-23.6-18.3-24-18.3-48.4c0-24.8,18.4-24.8,18.4-49.6"/>
	<path id="Master-48" class="st3" d="M492.2,133.1c-3.3-4.9-5.9-10.8-5.9-20.2c0-24.8,18.4-24.8,18.4-49.6s-18.4-24.8-18.4-49.6
		s18.4-24.8,18.4-49.6s-18.4-24.8-18.4-49.6s18.4-24.8,18.4-49.6s-18.4-24.8-18.4-49.6s18.4-24.8,18.4-49.6"/>
	<path id="Master-49" class="st3" d="M550.6-20.2c2.4-4.9,3.5-10.3,3.4-15.8c0-24.8-18.4-24.8-18.4-49.6s18.4-24.8,18.4-49.6
		c0.2-5.8-1.2-11.6-3.9-16.8"/>
	<path id="Master-50" class="st3" d="M566.6-65.2c-4-6-6.1-13.1-5.9-20.3c0-24.8,18.4-24.8,18.4-49.6s-18.4-24.8-18.4-49.6
		c0-7.2,1.5-12.3,3.7-16.5"/>
	<path id="Master-51" class="st3" d="M579-334.5v-0.7c-0.8-23.2-18.3-23.8-18.3-48c0-24.8,18.4-24.8,18.4-49.6"/>
	<path class="st3" d="M441.2,292.9c5.4-9.9,14.2-15.1,14.2-32.3c0-24.8-18.4-24.8-18.4-49.6s18.4-24.8,18.4-49.6"/>
	<path id="Master-52" class="st3" d="M479.5,259.9v-0.5c-0.5-23.6-18.3-24-18.3-48.4c0-24.8,18.4-24.8,18.4-49.6"/>
	<path id="Master-53" class="st3" d="M575.7,375.5c2.3-4.9,3.4-10.3,3.3-15.7c0-24.8-18.4-24.8-18.4-49.6"/>
	<path id="Master-54" class="st3" d="M564.5,293.3c0.1-0.2,0.2-0.3,0.3-0.5c3.1-5.6,7.4-9.8,10.4-15.6"/>
	<path id="Master-55" class="st3" d="M591.4,330.2c0-0.1-0.1-0.1-0.1-0.2c-3.8-5.9-5.8-12.8-5.6-19.8c0-24.8,18.4-24.8,18.4-49.6
		s-18.4-24.8-18.4-49.6s18.4-24.8,18.4-49.6"/>
	<path id="Master-56" class="st3" d="M674.8,574.3c2.5-5,3.7-10.6,3.6-16.2c0-24.8-18.4-24.8-18.4-49.6s18.4-24.8,18.4-49.6"/>
	<path id="Master-57" class="st3" d="M723.6,276.8c2.8-5.2,4.2-11.1,4-17c0-24.8-18.4-24.8-18.4-49.6s18.4-24.8,18.4-49.6"/>
	<path id="Master-58" class="st3" d="M644.8,184.9c5.5-6.3,8.4-14.4,8.3-22.7c0.2-5.9-1.2-11.8-4-17"/>
</g>
<g id="Color_1">
	<path class="st4" d="M447.2,185.1c5.5-6.3,8.4-14.4,8.3-22.7c0-24.8-18.4-24.8-18.4-49.6s18.4-24.8,18.4-49.6s-18.4-24.8-18.4-49.6
		c-0.2-7.4,2-14.7,6.3-20.8"/>
	<path id="Master-59" class="st4" d="M502.4-247.4c-4.8-12.9-16.1-17.1-16.1-36.5c0-24.8,18.4-24.9,18.4-49.7s-18.4-24.8-18.4-49.6
		s18.4-24.8,18.4-49.6"/>
	<path id="Master-60" class="st4" d="M539.2-168.3c-2.2-4.2-3.7-9.3-3.7-16.5c0-24.8,18.4-24.8,18.4-49.6
		c0-24.5-17.8-24.8-18.3-48.6v-0.2"/>
	<path id="Master-61" class="st4" d="M535.6-283.2v-0.8c0-24.8,18.4-24.8,18.4-49.6s-18.4-24.8-18.4-49.6c-0.1-5.4,1-10.8,3.3-15.7
		c0.2-0.5,0.5-0.9,0.7-1.4"/>
	<path id="Master-62" class="st4" d="M545.7,184.8c5.5-6.3,8.4-14.4,8.3-22.7c0-24.6-18.2-24.8-18.4-49.1v-1.1"/>
	<path id="Master-63" class="st4" d="M585.5,113v-1.7c0.8-23.1,18.3-23.7,18.3-47.9c0-24.8-18.4-24.8-18.4-49.6s18.4-24.8,18.4-49.6
		s-18.4-24.8-18.4-49.6s18.4-24.8,18.4-49.6s-18.4-24.8-18.4-49.6s18.4-24.8,18.4-49.6c0-3.9-0.5-7.8-1.7-11.6
		c-0.1-0.4-0.2-0.7-0.3-1"/>
	<path id="Master-64" class="st4" d="M674.4-19.9c2.5-5,3.7-10.6,3.6-16.2c0-24.9-18.4-24.9-18.4-49.7s18.4-24.8,18.4-49.6
		s-18.4-24.8-18.4-49.6s18.4-24.8,18.4-49.6c0-3.5-0.4-7-1.3-10.4c-0.2-1-0.5-1.9-0.9-2.8"/>
	<path id="Master-65" class="st4" d="M702.5,162.5c0-24.8-18.4-24.8-18.4-49.6s18.4-24.8,18.4-49.6s-18.4-24.8-18.4-49.6
		s18.4-24.8,18.4-49.6s-18.4-24.8-18.4-49.6s18.4-24.8,18.4-49.6c0.2-5.9-1.2-11.8-4-17.1"/>
	<path id="Master-66" class="st4" d="M709.3-86.7V-87c0-24.8,18.4-24.8,18.4-49.6s-18.4-24.8-18.4-49.6c0-1.5,0-3.1,0.2-4.6"/>
	<path id="Master-67" class="st4" d="M466.8,428.8c-3.1-4.8-5.5-10.5-5.5-19.5c0-24.8,18.5-24.8,18.5-49.6s-18.4-24.8-18.4-49.6
		c0-17.7,9.3-22.7,14.7-33.2"/>
	<path id="Master-68" class="st4" d="M535.6,311v-0.8c0-24.8,18.4-24.8,18.4-49.6s-18.4-24.8-18.4-49.6c-0.1-5.4,1-10.8,3.3-15.7
		c0.2-0.5,0.5-0.9,0.7-1.4"/>
	<path id="Master-69" class="st4" d="M550.6,574c2.4-4.9,3.5-10.3,3.4-15.8c0-24.8-18.4-24.8-18.4-49.6c0-24.8,18.4-24.8,18.4-49.6
		c0.2-5.8-1.2-11.6-3.9-16.8"/>
	<path id="Master-70" class="st4" d="M622.9,479.5c0.1-0.1,0.2-0.3,0.3-0.4c3.3-4.9,5.9-10.7,5.9-20.1c0-24.8-18.4-24.8-18.4-49.6
		s18.4-24.8,18.4-49.6c0-24.8-18.4-24.8-18.4-49.6c0-24.8,18.4-24.8,18.4-49.6c0.1-5.8-1.2-11.5-3.8-16.7"/>
	<path id="Master-71" class="st4" d="M666,330.5c-0.3-0.5-0.6-0.9-0.9-1.4c-2.9-4.7-5.1-10.3-5.1-18.9c0-24.8,18.4-24.8,18.4-49.6
		S660,235.8,660,211s18.4-24.8,18.4-49.6"/>
</g>
</svg>
