<?xml version="1.0" encoding="utf-8"?>
<!-- Generator: Adobe Illustrator 23.0.3, SVG Export Plug-In . SVG Version: 6.00 Build 0)  -->
<svg version="1.1" id="Layer_1" xmlns="http://www.w3.org/2000/svg" xmlns:xlink="http://www.w3.org/1999/xlink" x="0px" y="0px"
	 viewBox="0 0 737.4 232.4" style="enable-background:new 0 0 737.4 232.4;" xml:space="preserve">
<style type="text/css">
	.st0{fill:none;stroke:#FA8D28;stroke-width:3.5;stroke-linecap:round;stroke-miterlimit:10;}
	.st1{fill:none;stroke:#00A8E1;stroke-width:3.5;stroke-linecap:round;stroke-miterlimit:10;}
	
		.st2{opacity:0.3;fill:none;stroke:#9DB6CB;stroke-width:3.5;stroke-linecap:round;stroke-miterlimit:10;enable-background:new    ;}
	.st3{fill:none;stroke:#E4EBF1;stroke-width:3.5;stroke-linecap:round;stroke-miterlimit:10;}
	.st4{fill:none;stroke:#004BA5;stroke-width:3.5;stroke-linecap:round;stroke-miterlimit:10;}
</style>
<g id="c4">
	<path id="Path_20473" class="st0" d="M406.9-131.7c3.6,13,5.9,26.3,7.1,39.7"/>
	<path id="Path_20469" class="st0" d="M382,175.1c24.9-53.2,63.8-84.7,85.4-143.1"/>
</g>
<g id="c3">
	<path id="Path_20468" class="st1" d="M476.3,3.4c4.3-19.6,6.6-39.6,7-59.7c0.8-29.6-2-54.2-7-75.4"/>
	<path id="Path_20477" class="st1" d="M348-77.6c0.2,6.8,0.3,13.9,0.1,21.3c-1,36.1-7,64.5-15.9,88.4"/>
</g>
<g id="c2">
	<path id="Path_20470" class="st2" d="M372.8,202.1c-6.7,21.5-11.2,46.6-12,77.4c-2.8,106.2,40.9,146.7,72.8,203.9"/>
	<path id="Path_20471" class="st2" d="M348.2-250.9c17.8,29.4,37.8,55.6,51.6,90.6"/>
	<path id="Path_20476" class="st2" d="M254,160.8c20.1-36.9,46.2-64.2,65.8-101.7"/>
	<path id="Path_20472" class="st3" d="M415.8-63.3c0,2.4-0.1,4.7-0.1,7.2c-0.8,29.1-4.6,53.2-10.6,73.9"/>
</g>
<g id="c1">
	<path id="Path_20474" class="st4" d="M298,343.6c-3.6-18.6-5.4-39.6-4.8-64.2c3.4-126.2,67.1-157.1,101.2-234.7"/>
	<path id="Path_20475" class="st4" d="M344.7-106.3c-8.7-66.2-38.7-102-64-144.7"/>
</g>
</svg>
