<?xml version="1.0" encoding="utf-8"?>
<!-- Generator: Adobe Illustrator 23.0.4, SVG Export Plug-In . SVG Version: 6.00 Build 0)  -->
<svg version="1.1" id="a523c36a-3d89-43d5-b5b2-cb4ed0e1f0d8"
	 xmlns="http://www.w3.org/2000/svg" xmlns:xlink="http://www.w3.org/1999/xlink" x="0px" y="0px" viewBox="0 0 400 600"
	 style="enable-background:new 0 0 400 600;" xml:space="preserve">
<style type="text/css">
	.st0{fill:#91CAE6;}
	.st1{fill:none;stroke:#73C06B;stroke-width:2;stroke-linecap:round;stroke-linejoin:round;}
	.st2{fill:none;stroke:#00A8E1;stroke-width:2;stroke-linecap:round;stroke-linejoin:round;}
	.st3{fill:none;stroke:#73C06B;stroke-width:2;stroke-linecap:round;stroke-miterlimit:10;}
	.st4{fill:none;stroke:#00A8E1;stroke-width:2;stroke-linecap:round;stroke-miterlimit:10;}
	.st5{fill:#FFFFFF;}
</style>
<title>important-outcomes-1</title>
<path class="st0" d="M260.5,191.3H136.3c-12.2,0-22.1-9.9-22.1-22.1l0,0c0-12.2,9.9-22.1,22.1-22.1h124.3c12.2,0,22.1,9.9,22.1,22.1
	l0,0C282.7,181.4,272.8,191.3,260.5,191.3z"/>
<path class="st0" d="M260.5,363.6H136.3c-12.2,0-22.1-9.9-22.1-22.1l0,0c0-12.2,9.9-22.1,22.1-22.1h124.3c12.2,0,22.1,9.9,22.1,22.1
	l0,0C282.7,353.7,272.8,363.6,260.5,363.6z"/>
<g>
	<path class="st1" d="M176.3,499.7c-0.1-4.4,3.5-8,7.9-8.1s8,3.5,8.1,7.9s-3.5,8-7.9,8.1h-0.1C179.9,507.6,176.4,504,176.3,499.7z"
		/>
	<path class="st2" d="M203.3,499.7c-0.1-4.4,3.5-8,7.9-8.1s8,3.5,8.1,7.9s-3.5,8-7.9,8.1h-0.1C206.9,507.6,203.3,504,203.3,499.7z"
		/>
	<line class="st1" x1="211.1" y1="499.5" x2="192.3" y2="499.5"/>
	<line class="st2" x1="211.1" y1="507.5" x2="211.1" y2="514.3"/>
	<path class="st1" d="M203,526.1c-0.1-4.4,3.5-8,7.9-8.1s8,3.5,8.1,7.9s-3.5,8-7.9,8.1H211C206.6,534,203,530.5,203,526.1z"/>
	<path class="st2" d="M176.3,526.1c-0.1-4.4,3.5-8,7.9-8.1s8,3.5,8.1,7.9s-3.5,8-7.9,8.1h-0.1C179.9,534,176.4,530.5,176.3,526.1z"
		/>
	<line class="st2" x1="184.5" y1="510.7" x2="184.5" y2="500"/>
	<line class="st2" x1="184.5" y1="518.2" x2="184.5" y2="501.9"/>
	<line class="st1" x1="202.8" y1="526.3" x2="184.5" y2="526.3"/>
	<line class="st2" x1="211.1" y1="512" x2="211.1" y2="526.1"/>
</g>
<g>
	<polyline class="st2" points="208.7,18.2 217.7,25.8 217.7,49.1 	"/>
	<line class="st2" x1="198.4" y1="9.4" x2="206" y2="15.9"/>
	<line class="st2" x1="190.7" y1="16" x2="198.4" y2="9.4"/>
	<polyline class="st1" points="217.7,49.1 179.1,49.1 179.1,25.8 187.7,18.5 	"/>
	<polyline class="st1" points="208.6,32.9 208.6,16.1 188.2,16.1 188.2,32.9 	"/>
	<line class="st1" x1="193.9" y1="30.9" x2="202.9" y2="30.9"/>
	<line class="st1" x1="193.9" y1="26.8" x2="202.9" y2="26.8"/>
	<line class="st1" x1="193.9" y1="22.6" x2="202.9" y2="22.6"/>
	<polyline class="st2" points="217.7,25.8 198.4,42.1 183.9,29.3 	"/>
</g>
<g>
	<path class="st1" d="M254.9,109.6c0,1.8-1.4,3.2-3.2,3.2s-3.2-1.4-3.2-3.2c0-1.8,1.4-3.2,3.2-3.2l0,0
		C253.5,106.4,254.9,107.8,254.9,109.6L254.9,109.6z"/>
	<path class="st2" d="M280.1,109.6c0,1.8-1.4,3.2-3.2,3.2c-1.8,0-3.2-1.4-3.2-3.2c0-1.8,1.4-3.2,3.2-3.2l0,0
		C278.6,106.4,280.1,107.8,280.1,109.6L280.1,109.6z"/>
	<line class="st2" x1="273.4" y1="76.5" x2="273.4" y2="101.7"/>
	<line class="st1" x1="261" y1="76.5" x2="261" y2="101.8"/>
	<line class="st2" x1="285.9" y1="76.2" x2="283.7" y2="101.9"/>
	<line class="st2" x1="266.8" y1="76.2" x2="285.9" y2="76.2"/>
	<line class="st2" x1="283.7" y1="101.9" x2="267.3" y2="101.9"/>
	<line class="st2" x1="284" y1="89.1" x2="267.3" y2="89.1"/>
	<path class="st1" d="M267.3,101.9h-16.6l-2.3-26c-0.3-3-2.8-5.3-5.8-5.3"/>
	<line class="st1" x1="254" y1="76.2" x2="266.8" y2="76.2"/>
	<line class="st1" x1="266.8" y1="89.1" x2="249.5" y2="89.1"/>
</g>
<g>
	<polyline class="st2" points="134.9,72.8 118.7,72.8 118.7,108.8 145.1,108.8 145.1,88.3 	"/>
	<polyline class="st1" points="118.7,72.8 118.7,108.8 145.1,108.8 	"/>
	<polygon class="st2" points="145,83 134.9,83 134.9,72.8 	"/>
	<line class="st1" x1="124.2" y1="90.6" x2="140.1" y2="90.6"/>
	<line class="st1" x1="124.2" y1="95.4" x2="140.1" y2="95.4"/>
	<line class="st1" x1="124.2" y1="100.1" x2="140.1" y2="100.1"/>
</g>
<path class="st0" d="M260.5,590.6H136.3c-12.2,0-22.1-9.9-22.1-22.1l0,0c0-12.2,9.9-22.1,22.1-22.1h124.3c12.2,0,22.1,9.9,22.1,22.1
	l0,0C282.7,580.6,272.8,590.6,260.5,590.6z"/>
<g>
	<line class="st3" x1="197.8" y1="298.2" x2="197.8" y2="252.7"/>
	<line class="st4" x1="203.9" y1="272.6" x2="203.9" y2="244.9"/>
	<line class="st4" x1="192.9" y1="248.5" x2="192.9" y2="221"/>
	<line class="st3" x1="197.8" y1="241.3" x2="197.8" y2="199.2"/>
</g>
<g>
	<line class="st3" x1="197.8" y1="479.5" x2="197.8" y2="434"/>
	<line class="st4" x1="203.9" y1="454" x2="203.9" y2="426.3"/>
	<line class="st4" x1="192.9" y1="429.9" x2="192.9" y2="402.3"/>
	<line class="st3" x1="197.8" y1="422.7" x2="197.8" y2="380.5"/>
</g>
<g>
	<path class="st2" d="M193.7,71.8h8.4c5,0,9,4,9,9l0,0v4.7"/>
	<path class="st2" d="M205.3,104.5v4.7l14.2,1.5c3,0.7,5.1,3.4,5.1,6.4v14.4"/>
	<polyline class="st2" points="224.6,131.7 220.7,131.7 198.4,131.7 	"/>
	<path class="st1" d="M211.1,80.4v11.2c0,7.8-5.7,14.1-12.7,14.1s-12.7-6.3-12.7-14.1v-7.1"/>
	<line class="st1" x1="185.7" y1="86.1" x2="193" y2="79.2"/>
	<path class="st1" d="M198.4,71.8h-4.7c-4.4,0-8,3.6-8,8v6.4"/>
	<path class="st1" d="M191.5,104.5v4.7l-14.2,1.5c-3,0.7-5.1,3.4-5.1,6.4v14.4h26.2"/>
	<path class="st2" d="M211.1,80.4v11.2c0,7.8-5.7,14.1-12.7,14.1"/>
	<path class="st1" d="M198.4,105.7c-7,0-12.7-6.3-12.7-14.1v-7.1"/>
	<path class="st1" d="M211.1,86.1c-11.7,0-18.1-6.9-18.1-6.9l-7.3,6.9v-6.4c0-4.4,3.6-8,8-8l0,0"/>
</g>
<g>
	<path class="st5" d="M141.7,175v-8.5c0-2.6,2-2.7,4.3-2.7c0.9,0,2.5,0,3.3,0.1v1.8h-3.4c-1.5,0-1.7,0.3-1.7,1.5v1.3h4.9v1.8h-4.9
		v4.8H141.7z"/>
	<path class="st5" d="M150.3,164.2c0-0.9,0.3-1.2,1.4-1.2c1,0,1.4,0.3,1.4,1.2s-0.3,1.2-1.4,1.2
		C150.6,165.4,150.3,165.1,150.3,164.2z M150.5,166.4h2.3v8.6h-2.3V166.4z"/>
	<path class="st5" d="M154.6,175v-6.3c0-0.6,0-1.1,0.1-1.6c1-0.6,2.5-0.8,3.8-0.8c0.3,0,0.7,0,0.9,0l-0.2,1.7c-0.2,0-0.4,0-0.7,0
		c-0.5,0-1.2,0.1-1.6,0.3c0,0.3-0.1,0.8-0.1,1.1v5.5H154.6z"/>
	<path class="st5" d="M162.3,168.7c0,0.8,1,0.9,1.7,1.1c1.6,0.5,2.9,0.8,2.9,2.7c0,2-1.6,2.6-3.7,2.6c-1.1,0-2.4-0.1-3.3-0.4
		l0.2-1.6c0.7,0.1,1.8,0.3,2.5,0.3c0.7,0,1.9,0,1.9-0.8c0-0.8-0.8-0.9-1.6-1.1c-1.5-0.4-2.9-0.8-2.9-2.7c0-1.9,1.5-2.5,3.3-2.5
		c1.3,0,2.3,0.1,3.4,0.4l-0.2,1.6c-0.7-0.1-1.5-0.2-2.4-0.2C163.5,168,162.3,168,162.3,168.7z"/>
	<path class="st5" d="M171.5,164v2.4h1.9v1.6h-1.9v4.4c0,0.7,0.3,1,1.1,1c0.3,0,0.5,0,0.8,0l0.2,1.5c-0.5,0.1-1.1,0.1-1.6,0.1
		c-2,0-2.8-0.8-2.8-2.4v-4.6h-1.5v-1.6h1.5v-2.1L171.5,164z"/>
	<path class="st5" d="M173.8,169.9h4.6v1.7h-4.6V169.9z"/>
	<path class="st5" d="M182.3,178.1H180v-9.4c0-0.6,0-1.1,0.1-1.6c1-0.6,2.5-0.8,3.8-0.8c3.1,0,4.4,1,4.4,4.4c0,3.3-1.3,4.4-4.2,4.4
		c-0.6,0-1.2-0.1-1.8-0.2V178.1z M183.6,173.4c2.2,0,2.3-1.2,2.3-2.7c0-1.4-0.1-2.7-2.1-2.7c-0.5,0-1.1,0.1-1.5,0.2
		c0,0.3-0.1,0.8-0.1,1.1v3.9C182.7,173.3,183.2,173.4,183.6,173.4z"/>
	<path class="st5" d="M189.1,172.4c0-1.5,0.7-2.5,2.6-2.7c1-0.1,2-0.2,3-0.2c0-1-0.5-1.4-1.7-1.4c-1.1,0-2.4,0.1-3.3,0.2l-0.2-1.6
		c1-0.2,2.3-0.3,3.7-0.3c2.1,0,3.8,0.5,3.8,2.8v3.6c0,0.6,0,1.1-0.1,1.6c-1.1,0.6-2.5,0.8-4.2,0.8
		C190.2,175.1,189.1,174.2,189.1,172.4z M194.7,170.8c-0.7,0-1.5,0.1-2.2,0.2c-0.8,0.2-1.1,0.4-1.1,1.3c0,0.9,0.6,1.1,1.6,1.1
		c0.5,0,1.1,0,1.6-0.2c0-0.3,0.1-0.8,0.1-1.1V170.8z"/>
	<path class="st5" d="M198.6,175v-6.3c0-0.6,0-1.1,0.1-1.6c1-0.6,2.5-0.8,3.8-0.8c0.3,0,0.7,0,1,0l-0.2,1.7c-0.2,0-0.4,0-0.7,0
		c-0.5,0-1.2,0.1-1.6,0.3c0,0.3-0.1,0.8-0.1,1.1v5.5H198.6z"/>
	<path class="st5" d="M207.8,164v2.4h1.9v1.6h-1.9v4.4c0,0.7,0.3,1,1.1,1c0.3,0,0.5,0,0.8,0l0.2,1.5c-0.5,0.1-1.1,0.1-1.6,0.1
		c-2,0-2.8-0.8-2.8-2.4v-4.6h-1.5v-1.6h1.5v-2.1L207.8,164z"/>
	<path class="st5" d="M216.9,166.4h2.4l-4.4,11.7h-2.4l1.5-3.8l-3.8-8h2.5l2.3,5.3L216.9,166.4z"/>
	<path class="st5" d="M229.4,163.1h2.3v9.6c0,0.6,0,1.1-0.1,1.6c-1.1,0.6-2.5,0.8-3.8,0.8c-3.1,0-4.4-1-4.4-4.4
		c0-3.3,1.3-4.4,4.2-4.4c0.6,0,1.2,0.1,1.8,0.2V163.1z M228.1,168c-2.2,0-2.3,1.2-2.3,2.7c0,1.4,0.1,2.7,2.1,2.7
		c0.5,0,1.1-0.1,1.5-0.2c0-0.3,0.1-0.8,0.1-1.1v-3.9C229,168.1,228.5,168,228.1,168z"/>
	<path class="st5" d="M232.9,172.4c0-1.5,0.7-2.5,2.6-2.7c1-0.1,2-0.2,3-0.2c0-1-0.5-1.4-1.7-1.4c-1.1,0-2.4,0.1-3.3,0.2l-0.2-1.6
		c1-0.2,2.3-0.3,3.7-0.3c2.1,0,3.8,0.5,3.8,2.8v3.6c0,0.6,0,1.1-0.1,1.6c-1.1,0.6-2.5,0.8-4.2,0.8
		C233.9,175.1,232.9,174.2,232.9,172.4z M238.5,170.8c-0.7,0-1.5,0.1-2.2,0.2c-0.8,0.2-1.1,0.4-1.1,1.3c0,0.9,0.6,1.1,1.6,1.1
		c0.5,0,1.1,0,1.6-0.2c0-0.3,0.1-0.8,0.1-1.1V170.8z"/>
	<path class="st5" d="M245.5,164v2.4h1.9v1.6h-1.9v4.4c0,0.7,0.3,1,1.1,1c0.3,0,0.5,0,0.8,0l0.2,1.5c-0.5,0.1-1.1,0.1-1.6,0.1
		c-2,0-2.8-0.8-2.8-2.4v-4.6h-1.5v-1.6h1.5v-2.1L245.5,164z"/>
	<path class="st5" d="M248.2,172.4c0-1.5,0.7-2.5,2.6-2.7c1-0.1,2-0.2,3-0.2c0-1-0.5-1.4-1.7-1.4c-1.1,0-2.4,0.1-3.3,0.2l-0.2-1.6
		c1-0.2,2.3-0.3,3.7-0.3c2.1,0,3.8,0.5,3.8,2.8v3.6c0,0.6,0,1.1-0.1,1.6c-1.1,0.6-2.5,0.8-4.2,0.8
		C249.2,175.1,248.2,174.2,248.2,172.4z M253.8,170.8c-0.7,0-1.5,0.1-2.2,0.2c-0.8,0.2-1.1,0.4-1.1,1.3c0,0.9,0.6,1.1,1.6,1.1
		c0.5,0,1.1,0,1.6-0.2c0-0.3,0.1-0.8,0.1-1.1V170.8z"/>
</g>
<g>
	<path class="st5" d="M152.8,568.5c0-4.1,1.1-5.7,4.9-5.7c3.8,0,4.9,1.7,4.9,5.7s-1.1,5.7-4.9,5.7
		C153.9,574.2,152.8,572.5,152.8,568.5z M160,568.5c0-2.3-0.1-3.8-2.4-3.8c-2.3,0-2.4,1.6-2.4,3.8s0.1,3.8,2.4,3.8
		C160,572.3,160,570.8,160,568.5z"/>
	<path class="st5" d="M164,565.5h2.3v5.3c0,1.2,0.2,1.7,1.8,1.7c0.5,0,1.1-0.1,1.4-0.2c0-0.3,0.1-0.8,0.1-1.1v-5.6h2.3v6.3
		c0,0.6,0,1.1-0.1,1.6c-1.1,0.5-2.5,0.8-4.2,0.8c-3.4,0-3.7-1.4-3.7-3.2V565.5z"/>
	<path class="st5" d="M173.6,574.1v-6.3c0-0.6,0-1.1,0.1-1.6c1-0.6,2.5-0.8,3.8-0.8c0.3,0,0.7,0,0.9,0l-0.2,1.7c-0.2,0-0.4,0-0.7,0
		c-0.5,0-1.2,0.1-1.6,0.3c0,0.3-0.1,0.8-0.1,1.1v5.5H173.6z"/>
	<path class="st5" d="M185.3,577.2H183v-9.4c0-0.6,0-1.1,0.1-1.6c1-0.6,2.5-0.8,3.8-0.8c3.1,0,4.4,1,4.4,4.4c0,3.3-1.3,4.4-4.2,4.4
		c-0.6,0-1.2-0.1-1.8-0.2V577.2z M186.6,572.5c2.2,0,2.3-1.2,2.3-2.7c0-1.4-0.1-2.7-2.1-2.7c-0.5,0-1.1,0.1-1.5,0.2
		c0,0.3-0.1,0.8-0.1,1.1v3.9C185.7,572.4,186.2,572.5,186.6,572.5z"/>
	<path class="st5" d="M192.1,571.5c0-1.5,0.7-2.5,2.6-2.7c1-0.1,2-0.2,3-0.2c0-1-0.5-1.4-1.7-1.4c-1.1,0-2.4,0.1-3.3,0.2l-0.2-1.6
		c1-0.2,2.3-0.3,3.7-0.3c2.1,0,3.8,0.5,3.8,2.8v3.6c0,0.6,0,1.1-0.1,1.6c-1.1,0.6-2.5,0.8-4.2,0.8
		C193.2,574.2,192.1,573.3,192.1,571.5z M197.7,569.9c-0.7,0-1.5,0.1-2.2,0.2c-0.8,0.2-1.1,0.4-1.1,1.3c0,0.9,0.6,1.1,1.6,1.1
		c0.5,0,1.1,0,1.6-0.2c0-0.3,0.1-0.8,0.1-1.1V569.9z"/>
	<path class="st5" d="M201.6,574.1v-6.3c0-0.6,0-1.1,0.1-1.6c1-0.6,2.5-0.8,3.8-0.8c0.3,0,0.7,0,1,0l-0.2,1.7c-0.2,0-0.4,0-0.7,0
		c-0.5,0-1.2,0.1-1.6,0.3c0,0.3-0.1,0.8-0.1,1.1v5.5H201.6z"/>
	<path class="st5" d="M210.8,563.1v2.4h1.9v1.6h-1.9v4.4c0,0.7,0.3,1,1.1,1c0.3,0,0.5,0,0.8,0l0.2,1.5c-0.5,0.1-1.1,0.1-1.6,0.1
		c-2,0-2.8-0.8-2.8-2.4v-4.6h-1.5v-1.6h1.5v-2.1L210.8,563.1z"/>
	<path class="st5" d="M216.1,574.1h-2.3v-6.3c0-0.6,0-1.1,0.1-1.6c1.1-0.5,2.5-0.8,4.2-0.8c3.4,0,3.7,1.4,3.7,3.2v5.5h-2.3v-5.3
		c0-1.2-0.2-1.7-1.9-1.7c-0.5,0-1.1,0.1-1.4,0.2c0,0.3-0.1,0.8-0.1,1.1V574.1z"/>
	<path class="st5" d="M223.1,569.8c0-3.1,1.1-4.4,4.2-4.4c3.4,0,4.1,1.6,4.1,4.2c0,0.2,0,0.5,0,0.7c-1.1,0.2-3.1,0.4-4.4,0.4
		l-1.5,0.1c0.1,1.3,0.9,1.7,2.2,1.7c1.3,0,2.4-0.1,3.4-0.2l0.2,1.6c-1,0.1-2.3,0.3-4.1,0.3C223.9,574.2,223.1,572.3,223.1,569.8z
		 M226.9,569.3c0.6,0,1.6-0.1,2.1-0.2c0-0.1,0-0.2,0-0.3c0-1.1-0.5-1.7-1.8-1.7c-1.7,0-1.9,1-1.9,2.3L226.9,569.3z"/>
	<path class="st5" d="M232.7,574.1v-6.3c0-0.6,0-1.1,0.1-1.6c1-0.6,2.5-0.8,3.8-0.8c0.3,0,0.7,0,1,0l-0.2,1.7c-0.2,0-0.4,0-0.7,0
		c-0.5,0-1.2,0.1-1.6,0.3c0,0.3-0.1,0.8-0.1,1.1v5.5H232.7z"/>
	<path class="st5" d="M240.5,567.8c0,0.8,1,0.9,1.7,1.1c1.6,0.5,2.9,0.8,2.9,2.7c0,2-1.6,2.6-3.7,2.6c-1.1,0-2.4-0.1-3.3-0.4
		l0.2-1.6c0.7,0.1,1.8,0.3,2.5,0.3c0.7,0,1.9,0,1.9-0.8c0-0.8-0.8-0.9-1.6-1.1c-1.5-0.4-2.9-0.8-2.9-2.7c0-1.9,1.5-2.5,3.3-2.5
		c1.3,0,2.3,0.1,3.4,0.4l-0.2,1.6c-0.7-0.1-1.5-0.2-2.4-0.2C241.6,567.1,240.5,567.1,240.5,567.8z"/>
</g>
<g>
	<g>
		<path class="st5" d="M136.2,346.9c-0.9,0-2.4,0.1-3.1,0.1c-2.2,0-4.2-0.1-4.2-2.7v-8.5h2.5v7.9c0,1.2,0.2,1.5,1.7,1.5h3.2V346.9z"
			/>
		<path class="st5" d="M136.9,336.2c0-0.9,0.3-1.2,1.4-1.2c1,0,1.4,0.3,1.4,1.2c0,0.9-0.3,1.2-1.4,1.2
			C137.2,337.4,136.9,337.1,136.9,336.2z M137.1,338.4h2.3v8.6h-2.3V338.4z"/>
		<path class="st5" d="M146.7,345.8c-0.4,0.9-0.9,1.3-1.8,1.3c-0.8,0-1.4-0.4-1.8-1.3l-2.9-7.4h2.5l2.2,6.4l2.2-6.4h2.4L146.7,345.8
			z"/>
		<path class="st5" d="M149.9,342.7c0-3.1,1.1-4.4,4.2-4.4c3.4,0,4.1,1.6,4.1,4.2c0,0.2,0,0.5,0,0.7c-1.1,0.2-3.1,0.4-4.4,0.4
			l-1.5,0.1c0.1,1.3,0.9,1.7,2.2,1.7c1.3,0,2.4-0.1,3.4-0.2l0.2,1.6c-1,0.1-2.3,0.3-4.1,0.3C150.7,347.1,149.9,345.2,149.9,342.7z
			 M153.7,342.2c0.6,0,1.6-0.1,2.1-0.2c0-0.1,0-0.2,0-0.3c0-1.1-0.5-1.7-1.8-1.7c-1.7,0-1.9,1-1.9,2.3L153.7,342.2z"/>
		<path class="st5" d="M162.1,347h-2.5v-11c1.1-0.2,2.5-0.3,4-0.3c2.7,0,4.9,0.5,4.9,3.5c0,2-0.9,2.9-2.3,3.3l2.8,4.5h-2.9l-2.5-4.2
			c-0.5,0-1.1,0-1.5,0V347z M162.1,340.9c0.5,0.1,1,0.1,1.5,0.1c1.5,0,2.4-0.4,2.4-1.8c0-1.2-0.6-1.7-2.4-1.7c-0.5,0-1.1,0-1.6,0.1
			V340.9z"/>
		<path class="st5" d="M169.5,344.4c0-1.5,0.7-2.5,2.6-2.7c1-0.1,2-0.2,3-0.2c0-1-0.5-1.4-1.7-1.4c-1.1,0-2.4,0.1-3.3,0.2l-0.2-1.6
			c1-0.2,2.3-0.3,3.7-0.3c2.1,0,3.8,0.5,3.8,2.8v3.6c0,0.6,0,1.1-0.1,1.6c-1.1,0.6-2.5,0.8-4.2,0.8
			C170.5,347.1,169.5,346.2,169.5,344.4z M175.1,342.8c-0.7,0-1.5,0.1-2.2,0.2c-0.8,0.2-1.1,0.4-1.1,1.3c0,0.9,0.6,1.1,1.6,1.1
			c0.5,0,1.1,0,1.6-0.2c0-0.3,0.1-0.8,0.1-1.1V342.8z"/>
		<path class="st5" d="M181.2,347h-2.3v-6.3c0-0.6,0-1.1,0.1-1.6c1-0.5,2.5-0.8,4-0.8c1,0,1.8,0.2,2.3,0.5c0.8-0.3,1.9-0.5,2.9-0.5
			c3,0,3.4,1.5,3.4,3.2v5.5h-2.3v-5.3c0-1.1-0.3-1.7-1.6-1.7c-0.4,0-0.9,0.1-1.3,0.3c0.1,0.4,0.1,0.8,0.1,1.2v5.5H184v-5.3
			c0-1.1-0.3-1.7-1.6-1.7c-0.4,0-0.9,0.1-1.2,0.2c0,0.3-0.1,0.8-0.1,1.1V347z"/>
		<path class="st5" d="M195.5,350.1h-2.3v-9.4c0-0.6,0-1.1,0.1-1.6c1-0.6,2.5-0.8,3.8-0.8c3.1,0,4.4,1,4.4,4.4
			c0,3.3-1.3,4.4-4.2,4.4c-0.6,0-1.2-0.1-1.8-0.2V350.1z M196.8,345.4c2.2,0,2.3-1.2,2.3-2.7c0-1.4-0.1-2.7-2.1-2.7
			c-0.5,0-1.1,0.1-1.5,0.2c0,0.3-0.1,0.8-0.1,1.1v3.9C195.9,345.3,196.4,345.4,196.8,345.4z"/>
		<path class="st5" d="M208.8,350.1h-2.3v-9.4c0-0.6,0-1.1,0.1-1.6c1-0.6,2.5-0.8,3.8-0.8c3.1,0,4.4,1,4.4,4.4
			c0,3.3-1.3,4.4-4.2,4.4c-0.6,0-1.2-0.1-1.8-0.2V350.1z M210.1,345.4c2.2,0,2.3-1.2,2.3-2.7c0-1.4-0.1-2.7-2.1-2.7
			c-0.5,0-1.1,0.1-1.5,0.2c0,0.3-0.1,0.8-0.1,1.1v3.9C209.2,345.3,209.7,345.4,210.1,345.4z"/>
		<path class="st5" d="M216,335.1h2.3v9.5c0,0.8,0.2,1.3,0.7,1.9l-2.1,0.9c-0.6-0.6-0.9-1.4-0.9-2.6V335.1z"/>
		<path class="st5" d="M219.5,344.4c0-1.5,0.7-2.5,2.6-2.7c1-0.1,2-0.2,3-0.2c0-1-0.5-1.4-1.7-1.4c-1.1,0-2.4,0.1-3.3,0.2l-0.2-1.6
			c1-0.2,2.3-0.3,3.7-0.3c2.1,0,3.8,0.5,3.8,2.8v3.6c0,0.6,0,1.1-0.1,1.6c-1.1,0.6-2.5,0.8-4.2,0.8
			C220.5,347.1,219.5,346.2,219.5,344.4z M225.1,342.8c-0.7,0-1.5,0.1-2.2,0.2c-0.8,0.2-1.1,0.4-1.1,1.3c0,0.9,0.6,1.1,1.6,1.1
			c0.5,0,1.1,0,1.6-0.2c0-0.3,0.1-0.8,0.1-1.1V342.8z"/>
		<path class="st5" d="M232.1,336v2.4h1.9v1.6h-1.9v4.4c0,0.7,0.3,1,1.1,1c0.3,0,0.5,0,0.8,0l0.2,1.5c-0.5,0.1-1.1,0.1-1.6,0.1
			c-2,0-2.8-0.8-2.8-2.4v-4.6h-1.5v-1.6h1.5v-2.1L232.1,336z"/>
		<path class="st5" d="M238.5,338.4h1.9v1.6h-1.9v6.9h-2.3v-6.9h-1.5v-1.6h1.5v-0.7c0-1.7,1-2.7,3-2.7c0.4,0,1,0,1.4,0.1l-0.2,1.5
			h-0.7c-0.8,0-1.2,0.3-1.2,1.1V338.4z"/>
		<path class="st5" d="M241,342.7c0-3.2,1.1-4.4,4.2-4.4c3.1,0,4.2,1.2,4.2,4.4c0,3.2-1.1,4.4-4.2,4.4
			C242.1,347.1,241,345.9,241,342.7z M247,342.7c0-2.1-0.4-2.7-1.9-2.7c-1.5,0-1.8,0.5-1.8,2.7c0,2.1,0.4,2.7,1.8,2.7
			C246.7,345.4,247,344.8,247,342.7z"/>
		<path class="st5" d="M250.7,347v-6.3c0-0.6,0-1.1,0.1-1.6c1-0.6,2.5-0.8,3.8-0.8c0.3,0,0.7,0,1,0l-0.2,1.7c-0.2,0-0.4,0-0.7,0
			c-0.5,0-1.2,0.1-1.6,0.3c0,0.3-0.1,0.8-0.1,1.1v5.5H250.7z"/>
		<path class="st5" d="M258.6,347h-2.3v-6.3c0-0.6,0-1.1,0.1-1.6c1-0.5,2.5-0.8,4-0.8c1,0,1.8,0.2,2.3,0.5c0.8-0.3,1.9-0.5,2.9-0.5
			c3,0,3.4,1.5,3.4,3.2v5.5h-2.3v-5.3c0-1.1-0.3-1.7-1.6-1.7c-0.4,0-0.9,0.1-1.3,0.3c0.1,0.4,0.1,0.8,0.1,1.2v5.5h-2.3v-5.3
			c0-1.1-0.3-1.7-1.6-1.7c-0.4,0-0.9,0.1-1.2,0.2c0,0.3-0.1,0.8-0.1,1.1V347z"/>
	</g>
</g>
</svg>
