<?xml version="1.0" encoding="utf-8"?>
<!-- Generator: Adobe Illustrator 23.0.4, SVG Export Plug-In . SVG Version: 6.00 Build 0)  -->
<svg version="1.1" id="bb02d55b-c30e-441c-9c45-c85c61f1c1d1"
	 xmlns="http://www.w3.org/2000/svg" xmlns:xlink="http://www.w3.org/1999/xlink" x="0px" y="0px" viewBox="0 0 420 600"
	 style="enable-background:new 0 0 420 600;" xml:space="preserve">
<style type="text/css">
	.st0{fill:none;stroke:#73C06B;stroke-width:2;stroke-linecap:square;stroke-miterlimit:10;}
	.st1{fill:none;stroke:#73C06B;stroke-width:2;stroke-linecap:round;stroke-miterlimit:10;stroke-dasharray:0,4;}
	.st2{fill:#91CAE6;}
	.st3{fill:none;stroke:#73C06B;stroke-width:2;stroke-linecap:round;stroke-miterlimit:10;}
	.st4{fill:none;stroke:#00A8E1;stroke-width:2;stroke-linecap:round;stroke-miterlimit:10;}
	.st5{fill:none;stroke:#73C06B;stroke-width:2;stroke-linecap:round;stroke-linejoin:round;}
	.st6{fill:none;stroke:#00A8E1;stroke-width:2;stroke-linecap:round;stroke-linejoin:round;}
	.st7{fill:none;stroke:#00A8E1;stroke-width:2;stroke-miterlimit:10;}
	.st8{fill:#FFFFFF;}
</style>
<title>important-outcomes-4</title>
<line class="st0" x1="326.2" y1="503.8" x2="326.2" y2="527"/>
<line class="st1" x1="46.4" y1="77" x2="46.4" y2="308.4"/>
<path class="st2" d="M304.2,590.3H198.5c-12.2,0-22.1-9.9-22.1-22.1l0,0c0-12.2,9.9-22.1,22.1-22.1h105.7c12.2,0,22.1,9.9,22.1,22.1
	l0,0C326.4,580.4,316.5,590.3,304.2,590.3z"/>
<g>
	<g>
		<line class="st3" x1="295.1" y1="380.1" x2="315.3" y2="426.2"/>
		<line class="st3" x1="316.7" y1="429.5" x2="333.6" y2="468"/>
	</g>
	<line class="st4" x1="310.8" y1="426.3" x2="322" y2="452"/>
	<line class="st4" x1="308.8" y1="401.2" x2="320.1" y2="426.9"/>
	<g>
		<line class="st3" x1="207.7" y1="380.1" x2="187.5" y2="426.2"/>
		<line class="st3" x1="186.1" y1="429.5" x2="169.2" y2="468"/>
	</g>
	<line class="st4" x1="192" y1="426.3" x2="180.8" y2="452"/>
	<line class="st4" x1="193.9" y1="401.2" x2="182.7" y2="426.9"/>
</g>
<path class="st2" d="M216.6,179.6H110.9c-12.2,0-22.1-9.9-22.1-22.1l0,0c0-12.2,9.9-22.1,22.1-22.1h105.7c12.2,0,22.1,9.9,22.1,22.1
	l0,0C238.7,169.7,228.8,179.6,216.6,179.6z"/>
<path class="st2" d="M388.1,179.6H282.4c-12.2,0-22.1-9.9-22.1-22.1l0,0c0-12.2,9.9-22.1,22.1-22.1h105.7c12.2,0,22.1,9.9,22.1,22.1
	l0,0C410.2,169.7,400.3,179.6,388.1,179.6z"/>
<g>
	<g>
		<line class="st3" x1="206.7" y1="280.8" x2="186.5" y2="234.6"/>
		<line class="st3" x1="185.1" y1="231.4" x2="168.2" y2="192.8"/>
	</g>
	<line class="st4" x1="191" y1="234.6" x2="179.8" y2="208.9"/>
	<line class="st4" x1="192.9" y1="259.7" x2="181.7" y2="234"/>
	<g>
		<line class="st3" x1="294.1" y1="280.8" x2="314.3" y2="234.6"/>
		<line class="st3" x1="315.7" y1="231.4" x2="332.6" y2="192.8"/>
	</g>
	<line class="st4" x1="309.8" y1="234.6" x2="321" y2="208.9"/>
	<line class="st4" x1="307.8" y1="259.7" x2="319.1" y2="234"/>
</g>
<g>
	<circle class="st5" cx="38" cy="45.1" r="3"/>
	<circle class="st5" cx="49.4" cy="53.1" r="3"/>
	<circle class="st5" cx="59.2" cy="39.5" r="3"/>
	<line class="st5" x1="36" y1="47.3" x2="30.7" y2="53.8"/>
	<line class="st5" x1="40.6" y1="46.6" x2="47.1" y2="51.1"/>
	<line class="st5" x1="51.4" y1="50.8" x2="57.2" y2="41.8"/>
	<polyline class="st6" points="30.6,32 30.6,61.8 62.2,61.8 	"/>
</g>
<g>
	<rect x="120.6" y="92.6" class="st5" width="71.8" height="32.9"/>
	<polyline class="st6" points="120.6,92.6 120.6,125.5 144.5,125.5 	"/>
	<line class="st0" x1="172.1" y1="94.7" x2="172.1" y2="123.5"/>
	<g>
		<ellipse class="st7" cx="141.7" cy="104.4" rx="3.3" ry="3.4"/>
		<ellipse class="st7" cx="153.2" cy="113.7" rx="3.3" ry="3.4"/>
		<line class="st4" x1="140" y1="116.6" x2="154.3" y2="101.9"/>
	</g>
</g>
<g>
	<path class="st6" d="M345.7,476h3c1.7-0.1,3.1,1.3,3.2,3v1.6"/>
	<path class="st6" d="M349.8,487.2v1.7l5.3,0.5c1,0.3,1.7,1.2,1.5,2.3v5.1"/>
	<line class="st6" x1="356.6" y1="497.2" x2="347.2" y2="497.2"/>
	<path class="st5" d="M351.9,478.6v4.1c0.2,2.6-1.6,4.8-4.2,5.1s-4.8-1.6-5.1-4.2c0-0.3,0-0.6,0-0.9v-2.6"/>
	<line class="st5" x1="342.6" y1="481.1" x2="345.2" y2="478.6"/>
	<path class="st5" d="M347.2,476h-1.7c-1.6,0-2.9,1.2-2.9,2.8v2.3"/>
	<path class="st5" d="M344.6,487.2v1.7l-5.3,0.5c-1.1,0.2-1.9,1.2-1.9,2.3v5.5h9.8"/>
	<path class="st6" d="M351.9,478.6v4.1c0.1,2.7-2,5-4.6,5.1"/>
	<path class="st5" d="M347.2,487.7c-2.7-0.1-4.8-2.4-4.6-5.1V480"/>
	<path class="st5" d="M351.9,481.1c-2.4,0.1-4.8-0.8-6.6-2.4l-2.7,2.4v-2.3c0-1.6,1.3-2.9,2.9-2.8"/>
</g>
<g>
	<path class="st6" d="M365.8,481.9h4.8c2.7-0.1,5,2.1,5.1,4.8v2.5"/>
	<path class="st6" d="M372.4,499.8v2.7l8.5,0.9c1.8,0.4,2.5,1.9,2.5,3.7v8.2"/>
	<line class="st6" x1="383.4" y1="515.8" x2="368.3" y2="515.8"/>
	<path class="st5" d="M375.7,486v6.5c0,4.5-3.3,8.2-7.4,8.2s-7.4-3.7-7.4-8.2v-4.1"/>
	<line class="st5" x1="360.8" y1="490.1" x2="364.9" y2="486"/>
	<path class="st5" d="M368.3,481.9h-2.8c-2.5,0-4.6,2-4.7,4.5v3.6"/>
	<path class="st5" d="M364.1,499.8v2.7l-8.5,0.9c-1.8,0.4-3,1.9-3.1,3.7v8.8h15.7"/>
	<path class="st6" d="M375.7,486v6.5c0,4.5-3.3,8.2-7.4,8.2"/>
	<path class="st5" d="M368.3,500.7c-4.1,0-7.4-3.6-7.4-8.1v-4.1"/>
	<path class="st5" d="M375.7,490.1c-3.9,0.1-7.7-1.3-10.6-3.9l-4.3,3.9v-3.6c0-2.5,2.1-4.6,4.7-4.5"/>
</g>
<g>
	<rect x="293.7" y="503.7" class="st6" width="52.4" height="23.5"/>
	<polyline class="st5" points="293.7,503.7 293.7,527.2 311.1,527.2 	"/>
	<line class="st5" x1="299.8" y1="515.2" x2="310.7" y2="515.2"/>
	<line class="st5" x1="299.8" y1="519" x2="310.7" y2="519"/>
	<line class="st5" x1="299.8" y1="522.9" x2="310.7" y2="522.9"/>
</g>
<g>
	<path class="st7" d="M332.7,511.7c1,0,1.9,0.9,1.9,1.9s-0.9,1.9-1.9,1.9s-1.9-0.9-1.9-1.9S331.7,511.7,332.7,511.7z"/>
	<ellipse class="st7" cx="339.2" cy="518.9" rx="1.9" ry="1.9"/>
	<line class="st4" x1="331.8" y1="520.5" x2="339.8" y2="512.2"/>
</g>
<line class="st0" x1="336.2" y1="92.6" x2="336.2" y2="125.3"/>
<g>
	<rect x="290.7" y="92.6" class="st6" width="73.5" height="32.9"/>
	<polyline class="st5" points="290.7,92.6 290.7,125.5 315.1,125.5 	"/>
	<line class="st5" x1="299.3" y1="108.6" x2="314.5" y2="108.6"/>
	<line class="st5" x1="299.3" y1="114" x2="314.5" y2="114"/>
	<line class="st5" x1="299.3" y1="119.4" x2="314.5" y2="119.4"/>
</g>
<g>
	<ellipse class="st7" cx="345.4" cy="106.5" rx="2.6" ry="2.7"/>
	<ellipse class="st7" cx="354.5" cy="113.8" rx="2.6" ry="2.7"/>
	<line class="st4" x1="344.1" y1="116.1" x2="355.3" y2="104.4"/>
</g>
<g>
	<path class="st6" d="M157.7,478h3c1.7-0.1,3.1,1.3,3.2,3v1.6"/>
	<path class="st6" d="M161.8,489.2v1.7l5.3,0.5c1,0.3,1.7,1.2,1.5,2.3v5.1"/>
	<line class="st6" x1="168.7" y1="499.2" x2="159.2" y2="499.2"/>
	<path class="st5" d="M163.9,480.6v4.1c0.2,2.6-1.6,4.8-4.2,5.1c-2.6,0.2-4.8-1.6-5.1-4.2c0-0.3,0-0.6,0-0.9v-2.6"/>
	<line class="st5" x1="154.6" y1="483.1" x2="157.2" y2="480.6"/>
	<path class="st5" d="M159.2,478h-1.7c-1.6,0-2.9,1.2-2.9,2.8v2.3"/>
	<path class="st5" d="M156.7,489.2v1.7l-5.3,0.5c-1.1,0.2-1.9,1.2-1.9,2.3v5.5h9.8"/>
	<path class="st6" d="M163.9,480.6v4.1c0.1,2.7-2,5-4.6,5.1"/>
	<path class="st5" d="M159.2,489.7c-2.7-0.1-4.8-2.4-4.6-5.1V482"/>
	<path class="st5" d="M163.9,483.1c-2.4,0.1-4.8-0.8-6.6-2.4l-2.7,2.4v-2.3c0-1.6,1.3-2.9,2.9-2.8"/>
</g>
<g>
	<path class="st6" d="M177.8,483.9h4.8c2.7-0.1,5,2.1,5.1,4.8v2.5"/>
	<path class="st6" d="M184.4,501.8v2.7l8.5,0.9c1.8,0.4,2.5,1.9,2.5,3.7v8.2"/>
	<line class="st6" x1="195.4" y1="517.8" x2="180.3" y2="517.8"/>
	<path class="st5" d="M187.7,488v6.5c0,4.5-3.3,8.2-7.4,8.2s-7.4-3.7-7.4-8.2v-4.1"/>
	<line class="st5" x1="172.8" y1="492.1" x2="177" y2="488"/>
	<path class="st5" d="M180.3,483.9h-2.8c-2.5,0-4.6,2-4.7,4.5v3.6"/>
	<path class="st5" d="M176.1,501.8v2.7l-8.5,0.9c-1.8,0.4-3,1.9-3.1,3.7v8.8h15.7"/>
	<path class="st6" d="M187.7,488v6.5c0,4.5-3.3,8.2-7.4,8.2"/>
	<path class="st5" d="M180.3,502.7c-4.1,0-7.4-3.6-7.4-8.1v-4.1"/>
	<path class="st5" d="M187.7,492.1c-3.9,0.1-7.7-1.3-10.6-3.9l-4.3,3.9v-3.6c0-2.5,2.1-4.6,4.7-4.5"/>
</g>
<g>
	<rect x="118.3" y="504.6" class="st5" width="40.5" height="18.6"/>
	<polyline class="st6" points="118.3,504.6 118.3,523.2 131.8,523.2 	"/>
	<line class="st0" x1="147.4" y1="505.8" x2="147.4" y2="522"/>
	<g>
		<path class="st7" d="M130.2,509.4c1,0,1.9,0.9,1.9,1.9c0,1.1-0.8,1.9-1.9,1.9s-1.9-0.9-1.9-1.9
			C128.3,510.2,129.2,509.4,130.2,509.4z"/>
		<ellipse class="st7" cx="136.7" cy="516.5" rx="1.9" ry="1.9"/>
		<line class="st4" x1="129.3" y1="518.1" x2="137.3" y2="509.8"/>
	</g>
</g>
<line class="st1" x1="102.9" y1="332.3" x2="161.3" y2="332.3"/>
<path class="st2" d="M314.5,352.6H190.2c-12.2,0-22.1-9.9-22.1-22.1l0,0c0-12.2,9.9-22.1,22.1-22.1h124.3c12.2,0,22.1,9.9,22.1,22.1
	l0,0C336.6,342.7,326.7,352.6,314.5,352.6z"/>
<g>
	<path class="st2" d="M22.4,330.9v-12.6h2.4v12.6H22.4z"/>
	<path class="st2" d="M33.3,317.6h2.2v10.9c0,0.6,0,1.2-0.1,1.8c-1.2,0.6-2.8,0.8-4.1,0.8c-3.5,0-4.9-1.2-4.9-4.9
		c0-3.7,1.4-4.9,4.6-4.9c0.7,0,1.6,0.1,2.3,0.3V317.6z M31.5,322.8c-2.8,0-2.9,1.4-2.9,3.3c0,1.8,0.1,3.4,2.6,3.4
		c0.7,0,1.5-0.1,1.9-0.3c0-0.4,0.1-0.9,0.1-1.3V323C32.8,322.9,32.1,322.8,31.5,322.8z"/>
	<path class="st2" d="M39.4,327.1c0.1,1.9,1.2,2.3,2.8,2.3c1.4,0,2.7-0.1,3.8-0.2l0.2,1.5c-1.1,0.2-2.5,0.4-4.5,0.4
		c-3.5,0-4.5-2.1-4.5-4.9c0-3.5,1.2-4.9,4.7-4.9c3.8,0,4.6,1.8,4.6,4.7c0,0.2,0,0.5,0,0.7c-1.2,0.2-3.7,0.4-5.2,0.5L39.4,327.1z
		 M41.4,325.7c0.8,0,2-0.1,2.7-0.2c0-0.1,0-0.3,0-0.4c0-1.5-0.6-2.3-2.3-2.3c-2.2,0-2.5,1.3-2.5,3L41.4,325.7z"/>
	<path class="st2" d="M57,330.9h-2.2V325c0-1.5-0.3-2.2-2.5-2.2c-0.7,0-1.5,0.1-1.9,0.3c0,0.4-0.1,0.9-0.1,1.3v6.5h-2.2v-7.1
		c0-0.6,0-1.2,0.1-1.8c1.2-0.5,2.8-0.8,4.7-0.8c3.7,0,4.1,1.6,4.1,3.6V330.9z"/>
	<path class="st2" d="M64.5,330.9c-0.5,0.1-1.1,0.1-1.6,0.1c-2.1,0-3-0.8-3-2.6v-5.6h-1.8v-1.5h1.8v-2.4l2.2-0.3v2.7h2.2v1.5h-2.2
		v5.4c0,0.9,0.4,1.2,1.4,1.2c0.3,0,0.5,0,0.8,0L64.5,330.9z"/>
	<path class="st2" d="M66.8,320c-1.1,0-1.4-0.3-1.4-1.2c0-0.9,0.3-1.2,1.4-1.2c1,0,1.4,0.3,1.4,1.2C68.2,319.7,67.9,320,66.8,320z
		 M65.7,330.9v-9.6H68v9.6H65.7z"/>
	<path class="st2" d="M75.5,330.9c-0.5,0.1-1.1,0.1-1.6,0.1c-2.1,0-3-0.8-3-2.6v-5.6h-1.8v-1.5h1.8v-2.4l2.2-0.3v2.7h2.2v1.5h-2.2
		v5.4c0,0.9,0.4,1.2,1.4,1.2c0.3,0,0.5,0,0.8,0L75.5,330.9z"/>
	<path class="st2" d="M81.4,327.7l2.2-6.4h2.3L81,334.5h-2.3l1.6-4.2l-4.2-9h2.4L81.4,327.7z"/>
	<path class="st2" d="M24.5,350.5h-2.2v-7.1c0-0.6,0-1.2,0.1-1.8c1.2-0.6,2.8-0.8,4.1-0.8c0.3,0,0.7,0,1,0l-0.2,1.6
		c-0.2,0-0.5,0-0.8,0c-0.7,0-1.5,0.1-1.9,0.3c0,0.4-0.1,0.9-0.1,1.3V350.5z"/>
	<path class="st2" d="M30.4,346.7c0.1,1.9,1.2,2.3,2.8,2.3c1.4,0,2.7-0.1,3.8-0.2l0.2,1.5c-1.1,0.2-2.5,0.4-4.5,0.4
		c-3.5,0-4.5-2.1-4.5-4.9c0-3.5,1.2-4.9,4.7-4.9c3.8,0,4.6,1.8,4.6,4.7c0,0.2,0,0.5,0,0.7c-1.2,0.2-3.7,0.4-5.2,0.5L30.4,346.7z
		 M32.4,345.3c0.8,0,2-0.1,2.7-0.2c0-0.1,0-0.3,0-0.4c0-1.5-0.6-2.3-2.3-2.3c-2.2,0-2.5,1.3-2.5,3L32.4,345.3z"/>
	<path class="st2" d="M44.1,347.9c0-1.1-1.1-1.2-2.1-1.5c-1.7-0.5-3.3-0.9-3.3-2.9c0-2.1,1.6-2.7,3.7-2.7c1.5,0,2.5,0.1,3.7,0.4
		l-0.2,1.5c-0.8-0.1-1.7-0.3-2.6-0.3c-0.9,0-2.4,0-2.4,1c0,1,1.3,1.2,2.1,1.5c1.8,0.6,3.2,0.9,3.2,3c0,2.2-1.8,2.8-4.1,2.8
		c-1.1,0-2.5-0.1-3.6-0.4l0.2-1.5c0.8,0.1,2,0.3,2.8,0.3C42.4,349,44.1,349,44.1,347.9z"/>
	<path class="st2" d="M52.2,350.7c-3.4,0-4.7-1.3-4.7-4.9c0-3.6,1.2-4.9,4.7-4.9c3.4,0,4.7,1.4,4.7,4.9
		C56.9,349.3,55.6,350.7,52.2,350.7z M52.2,349c1.9,0,2.4-0.8,2.4-3.3c0-2.5-0.5-3.3-2.4-3.3c-1.9,0-2.4,0.7-2.4,3.3
		C49.8,348.4,50.3,349,52.2,349z"/>
	<path class="st2" d="M58.4,337.2h2.2v10.8c0,0.9,0.2,1.5,0.8,2.2l-2,0.8c-0.7-0.7-1.1-1.6-1.1-2.9V337.2z"/>
	<path class="st2" d="M69.3,340.9h2.2v7.1c0,0.6,0,1.2-0.1,1.8c-1.2,0.5-2.7,0.8-4.7,0.8c-3.7,0-4.1-1.6-4.1-3.6v-6.2h2.2v5.9
		c0,1.5,0.3,2.2,2.4,2.2c0.7,0,1.4-0.1,1.9-0.3c0-0.4,0.1-0.9,0.1-1.3V340.9z"/>
	<path class="st2" d="M79.1,350.5c-0.5,0.1-1.1,0.1-1.6,0.1c-2.1,0-3-0.8-3-2.6v-5.6h-1.8v-1.5h1.8v-2.4l2.2-0.3v2.7h2.2v1.5h-2.2
		v5.4c0,0.9,0.4,1.2,1.4,1.2c0.3,0,0.5,0,0.8,0L79.1,350.5z"/>
	<path class="st2" d="M81.5,339.6c-1.1,0-1.4-0.3-1.4-1.2c0-0.9,0.3-1.2,1.4-1.2c1,0,1.4,0.3,1.4,1.2
		C82.8,339.2,82.5,339.6,81.5,339.6z M80.3,350.5v-9.6h2.3v9.6H80.3z"/>
	<path class="st2" d="M89,350.7c-3.4,0-4.7-1.3-4.7-4.9c0-3.6,1.2-4.9,4.7-4.9c3.4,0,4.7,1.4,4.7,4.9
		C93.7,349.3,92.4,350.7,89,350.7z M89,349c1.9,0,2.4-0.8,2.4-3.3c0-2.5-0.5-3.3-2.4-3.3c-1.9,0-2.4,0.7-2.4,3.3
		C86.6,348.4,87.1,349,89,349z"/>
	<path class="st2" d="M104.2,350.5H102v-5.9c0-1.5-0.3-2.2-2.5-2.2c-0.7,0-1.5,0.1-1.9,0.3c0,0.4-0.1,0.9-0.1,1.3v6.5h-2.2v-7.1
		c0-0.6,0-1.2,0.1-1.8c1.2-0.5,2.8-0.8,4.7-0.8c3.7,0,4.1,1.6,4.1,3.6V350.5z"/>
</g>
<g>
	<path class="st8" d="M190.1,335.7c-0.9,0-2.4,0.1-3.1,0.1c-2.2,0-4.2-0.1-4.2-2.7v-8.5h2.5v7.9c0,1.2,0.2,1.5,1.7,1.5h3.2V335.7z"
		/>
	<path class="st8" d="M190.8,325c0-0.9,0.3-1.2,1.4-1.2c1,0,1.4,0.3,1.4,1.2c0,0.9-0.3,1.2-1.4,1.2
		C191.1,326.2,190.8,325.9,190.8,325z M191,327.2h2.3v8.6H191V327.2z"/>
	<path class="st8" d="M200.6,334.6c-0.4,0.9-0.9,1.3-1.8,1.3c-0.8,0-1.4-0.4-1.8-1.3l-2.9-7.4h2.5l2.2,6.4l2.2-6.4h2.4L200.6,334.6z
		"/>
	<path class="st8" d="M203.8,331.5c0-3.1,1.1-4.4,4.2-4.4c3.4,0,4.1,1.6,4.1,4.2c0,0.2,0,0.5,0,0.7c-1.1,0.2-3.1,0.4-4.4,0.4
		l-1.5,0.1c0.1,1.3,0.9,1.7,2.2,1.7c1.3,0,2.4-0.1,3.4-0.2l0.2,1.6c-1,0.1-2.3,0.3-4.1,0.3C204.6,335.9,203.8,334,203.8,331.5z
		 M207.6,331c0.6,0,1.6-0.1,2.1-0.2c0-0.1,0-0.2,0-0.3c0-1.1-0.5-1.7-1.8-1.7c-1.7,0-1.9,1-1.9,2.3L207.6,331z"/>
	<path class="st8" d="M216,335.8h-2.5v-11c1.1-0.2,2.5-0.3,4-0.3c2.7,0,4.9,0.5,4.9,3.5c0,2-0.9,2.9-2.3,3.3l2.8,4.5H220l-2.5-4.2
		c-0.5,0-1.1,0-1.5,0V335.8z M216,329.7c0.5,0.1,1,0.1,1.5,0.1c1.5,0,2.4-0.4,2.4-1.8c0-1.2-0.6-1.7-2.4-1.7c-0.5,0-1.1,0-1.6,0.1
		V329.7z"/>
	<path class="st8" d="M223.4,333.2c0-1.5,0.7-2.5,2.6-2.7c1-0.1,2-0.2,3-0.2c0-1-0.5-1.4-1.7-1.4c-1.1,0-2.4,0.1-3.3,0.2l-0.2-1.6
		c1-0.2,2.3-0.3,3.7-0.3c2.1,0,3.8,0.5,3.8,2.8v3.6c0,0.6,0,1.1-0.1,1.6c-1.1,0.6-2.5,0.8-4.2,0.8
		C224.4,335.9,223.4,335,223.4,333.2z M229,331.6c-0.7,0-1.5,0.1-2.2,0.2c-0.8,0.2-1.1,0.4-1.1,1.3c0,0.9,0.6,1.1,1.6,1.1
		c0.5,0,1.1,0,1.6-0.2c0-0.3,0.1-0.8,0.1-1.1V331.6z"/>
	<path class="st8" d="M235.1,335.8h-2.3v-6.3c0-0.6,0-1.1,0.1-1.6c1-0.5,2.5-0.8,4-0.8c1,0,1.8,0.2,2.3,0.5c0.8-0.3,1.9-0.5,2.9-0.5
		c3,0,3.4,1.5,3.4,3.2v5.5h-2.3v-5.3c0-1.1-0.3-1.7-1.6-1.7c-0.4,0-0.9,0.1-1.3,0.3c0.1,0.4,0.1,0.8,0.1,1.2v5.5H238v-5.3
		c0-1.1-0.3-1.7-1.6-1.7c-0.4,0-0.9,0.1-1.2,0.2c0,0.3-0.1,0.8-0.1,1.1V335.8z"/>
	<path class="st8" d="M249.4,338.9h-2.3v-9.4c0-0.6,0-1.1,0.1-1.6c1-0.6,2.5-0.8,3.8-0.8c3.1,0,4.4,1,4.4,4.4c0,3.3-1.3,4.4-4.2,4.4
		c-0.6,0-1.2-0.1-1.8-0.2V338.9z M250.7,334.2c2.2,0,2.3-1.2,2.3-2.7c0-1.4-0.1-2.7-2.1-2.7c-0.5,0-1.1,0.1-1.5,0.2
		c0,0.3-0.1,0.8-0.1,1.1v3.9C249.8,334.1,250.3,334.2,250.7,334.2z"/>
	<path class="st8" d="M262.7,338.9h-2.3v-9.4c0-0.6,0-1.1,0.1-1.6c1-0.6,2.5-0.8,3.8-0.8c3.1,0,4.4,1,4.4,4.4c0,3.3-1.3,4.4-4.2,4.4
		c-0.6,0-1.2-0.1-1.8-0.2V338.9z M264,334.2c2.2,0,2.3-1.2,2.3-2.7c0-1.4-0.1-2.7-2.1-2.7c-0.5,0-1.1,0.1-1.5,0.2
		c0,0.3-0.1,0.8-0.1,1.1v3.9C263.1,334.1,263.6,334.2,264,334.2z"/>
	<path class="st8" d="M269.9,323.9h2.3v9.5c0,0.8,0.2,1.3,0.7,1.9l-2.1,0.9c-0.6-0.6-0.9-1.4-0.9-2.6V323.9z"/>
	<path class="st8" d="M273.4,333.2c0-1.5,0.7-2.5,2.6-2.7c1-0.1,2-0.2,3-0.2c0-1-0.5-1.4-1.7-1.4c-1.1,0-2.4,0.1-3.3,0.2l-0.2-1.6
		c1-0.2,2.3-0.3,3.7-0.3c2.1,0,3.8,0.5,3.8,2.8v3.6c0,0.6,0,1.1-0.1,1.6c-1.1,0.6-2.5,0.8-4.2,0.8
		C274.4,335.9,273.4,335,273.4,333.2z M279,331.6c-0.7,0-1.5,0.1-2.2,0.2c-0.8,0.2-1.1,0.4-1.1,1.3c0,0.9,0.6,1.1,1.6,1.1
		c0.5,0,1.1,0,1.6-0.2c0-0.3,0.1-0.8,0.1-1.1V331.6z"/>
	<path class="st8" d="M286,324.8v2.4h1.9v1.6H286v4.4c0,0.7,0.3,1,1.1,1c0.3,0,0.5,0,0.8,0l0.2,1.5c-0.5,0.1-1.1,0.1-1.6,0.1
		c-2,0-2.8-0.8-2.8-2.4v-4.6h-1.5v-1.6h1.5v-2.1L286,324.8z"/>
	<path class="st8" d="M292.4,327.2h1.9v1.6h-1.9v6.9h-2.3v-6.9h-1.5v-1.6h1.5v-0.7c0-1.7,1-2.7,3-2.7c0.4,0,1,0,1.4,0.1l-0.2,1.5
		h-0.7c-0.8,0-1.2,0.3-1.2,1.1V327.2z"/>
	<path class="st8" d="M294.9,331.5c0-3.2,1.1-4.4,4.2-4.4c3.1,0,4.2,1.2,4.2,4.4c0,3.2-1.1,4.4-4.2,4.4
		C296,335.9,294.9,334.7,294.9,331.5z M300.9,331.5c0-2.1-0.4-2.7-1.9-2.7c-1.5,0-1.8,0.5-1.8,2.7c0,2.1,0.4,2.7,1.8,2.7
		C300.6,334.2,300.9,333.6,300.9,331.5z"/>
	<path class="st8" d="M304.6,335.8v-6.3c0-0.6,0-1.1,0.1-1.6c1-0.6,2.5-0.8,3.8-0.8c0.3,0,0.7,0,1,0l-0.2,1.7c-0.2,0-0.4,0-0.7,0
		c-0.5,0-1.2,0.1-1.6,0.3c0,0.3-0.1,0.8-0.1,1.1v5.5H304.6z"/>
	<path class="st8" d="M312.5,335.8h-2.3v-6.3c0-0.6,0-1.1,0.1-1.6c1-0.5,2.5-0.8,4-0.8c1,0,1.8,0.2,2.3,0.5c0.8-0.3,1.9-0.5,2.9-0.5
		c3,0,3.4,1.5,3.4,3.2v5.5h-2.3v-5.3c0-1.1-0.3-1.7-1.6-1.7c-0.4,0-0.9,0.1-1.3,0.3c0.1,0.4,0.1,0.8,0.1,1.2v5.5h-2.3v-5.3
		c0-1.1-0.3-1.7-1.6-1.7c-0.4,0-0.9,0.1-1.2,0.2c0,0.3-0.1,0.8-0.1,1.1V335.8z"/>
</g>
<g>
	<path class="st8" d="M215.2,572.6c-0.8,0.2-1.9,0.3-3.2,0.3c-4.1,0-5.1-1.7-5.1-5.7c0-4,1-5.7,5.1-5.7c1.3,0,2.4,0.1,3.2,0.3
		l-0.2,1.8c-0.8-0.1-1.6-0.2-2.5-0.2c-2.9,0-3,1.6-3,3.8c0,2.2,0,3.8,3,3.8c0.9,0,1.7-0.1,2.5-0.2L215.2,572.6z"/>
	<path class="st8" d="M215.9,568.5c0-3.2,1.1-4.4,4.2-4.4c3.1,0,4.2,1.2,4.2,4.4c0,3.2-1.1,4.4-4.2,4.4
		C217,572.9,215.9,571.7,215.9,568.5z M221.9,568.5c0-2.1-0.4-2.7-1.9-2.7c-1.5,0-1.8,0.5-1.8,2.7c0,2.1,0.4,2.7,1.8,2.7
		C221.6,571.2,221.9,570.6,221.9,568.5z"/>
	<path class="st8" d="M227.9,572.8h-2.3v-6.3c0-0.6,0-1.1,0.1-1.6c1.1-0.5,2.5-0.8,4.2-0.8c3.4,0,3.7,1.4,3.7,3.2v5.5h-2.3v-5.3
		c0-1.2-0.2-1.7-1.9-1.7c-0.5,0-1.1,0.1-1.4,0.2c0,0.3-0.1,0.8-0.1,1.1V572.8z"/>
	<path class="st8" d="M240.6,571.6c-0.4,0.9-0.9,1.3-1.8,1.3c-0.8,0-1.4-0.4-1.8-1.3l-2.9-7.4h2.5l2.2,6.4l2.2-6.4h2.4L240.6,571.6z
		"/>
	<path class="st8" d="M243.7,568.5c0-3.1,1.1-4.4,4.2-4.4c3.4,0,4.1,1.6,4.1,4.2c0,0.2,0,0.5,0,0.7c-1.1,0.2-3.1,0.4-4.4,0.4
		l-1.5,0.1c0.1,1.3,0.9,1.7,2.2,1.7c1.3,0,2.4-0.1,3.4-0.2l0.2,1.6c-1,0.1-2.3,0.3-4.1,0.3C244.6,572.9,243.7,571,243.7,568.5z
		 M247.6,568c0.6,0,1.6-0.1,2.1-0.2c0-0.1,0-0.2,0-0.3c0-1.1-0.5-1.7-1.8-1.7c-1.7,0-1.9,1-1.9,2.3L247.6,568z"/>
	<path class="st8" d="M253.4,572.8v-6.3c0-0.6,0-1.1,0.1-1.6c1-0.6,2.5-0.8,3.8-0.8c0.3,0,0.7,0,1,0l-0.2,1.7c-0.2,0-0.4,0-0.7,0
		c-0.5,0-1.2,0.1-1.6,0.3c0,0.3-0.1,0.8-0.1,1.1v5.5H253.4z"/>
	<path class="st8" d="M261.1,566.5c0,0.8,1,0.9,1.7,1.1c1.6,0.5,2.9,0.8,2.9,2.7c0,2-1.6,2.6-3.7,2.6c-1.1,0-2.4-0.1-3.3-0.4
		l0.2-1.6c0.7,0.1,1.8,0.3,2.5,0.3c0.7,0,1.9,0,1.9-0.8c0-0.8-0.8-0.9-1.6-1.1c-1.5-0.4-2.9-0.8-2.9-2.7c0-1.9,1.5-2.5,3.3-2.5
		c1.3,0,2.3,0.1,3.4,0.4l-0.2,1.6c-0.7-0.1-1.5-0.2-2.4-0.2C262.2,565.8,261.1,565.8,261.1,566.5z"/>
	<path class="st8" d="M266.8,562c0-0.9,0.3-1.2,1.4-1.2c1,0,1.4,0.3,1.4,1.2c0,0.9-0.3,1.2-1.4,1.2
		C267.1,563.2,266.8,562.9,266.8,562z M267,564.2h2.3v8.6H267V564.2z"/>
	<path class="st8" d="M270.7,568.5c0-3.2,1.1-4.4,4.2-4.4c3.1,0,4.2,1.2,4.2,4.4c0,3.2-1.1,4.4-4.2,4.4
		C271.8,572.9,270.7,571.7,270.7,568.5z M276.8,568.5c0-2.1-0.4-2.7-1.9-2.7c-1.5,0-1.8,0.5-1.8,2.7c0,2.1,0.4,2.7,1.8,2.7
		C276.4,571.2,276.8,570.6,276.8,568.5z"/>
	<path class="st8" d="M282.8,572.8h-2.3v-6.3c0-0.6,0-1.1,0.1-1.6c1.1-0.5,2.5-0.8,4.2-0.8c3.4,0,3.7,1.4,3.7,3.2v5.5h-2.3v-5.3
		c0-1.2-0.2-1.7-1.9-1.7c-0.5,0-1.1,0.1-1.4,0.2c0,0.3-0.1,0.8-0.1,1.1V572.8z"/>
	<path class="st8" d="M292.1,566.5c0,0.8,1,0.9,1.7,1.1c1.6,0.5,2.9,0.8,2.9,2.7c0,2-1.6,2.6-3.7,2.6c-1.1,0-2.4-0.1-3.3-0.4
		l0.2-1.6c0.7,0.1,1.8,0.3,2.5,0.3c0.7,0,1.9,0,1.9-0.8c0-0.8-0.8-0.9-1.6-1.1c-1.5-0.4-2.9-0.8-2.9-2.7c0-1.9,1.5-2.5,3.3-2.5
		c1.3,0,2.3,0.1,3.4,0.4l-0.2,1.6c-0.7-0.1-1.5-0.2-2.4-0.2C293.2,565.8,292.1,565.8,292.1,566.5z"/>
</g>
<g>
	<path class="st8" d="M144.7,163.6c-0.8,0.2-1.9,0.3-3.2,0.3c-4.1,0-5.1-1.7-5.1-5.7c0-4,1-5.7,5.1-5.7c1.3,0,2.4,0.1,3.2,0.3
		l-0.2,1.8c-0.8-0.1-1.6-0.2-2.5-0.2c-2.9,0-3,1.6-3,3.8c0,2.2,0,3.8,3,3.8c0.9,0,1.7-0.1,2.5-0.2L144.7,163.6z"/>
	<path class="st8" d="M145.4,159.5c0-3.2,1.1-4.4,4.2-4.4c3.1,0,4.2,1.2,4.2,4.4c0,3.2-1.1,4.4-4.2,4.4
		C146.5,163.9,145.4,162.7,145.4,159.5z M151.4,159.5c0-2.1-0.4-2.7-1.9-2.7c-1.5,0-1.8,0.5-1.8,2.7c0,2.1,0.4,2.7,1.8,2.7
		C151,162.2,151.4,161.6,151.4,159.5z"/>
	<path class="st8" d="M155.1,155.2h2.3v5.3c0,1.2,0.2,1.7,1.8,1.7c0.5,0,1.1-0.1,1.4-0.2c0-0.3,0.1-0.8,0.1-1.1v-5.6h2.3v6.3
		c0,0.6,0,1.1-0.1,1.6c-1.1,0.5-2.5,0.8-4.2,0.8c-3.4,0-3.7-1.4-3.7-3.2V155.2z"/>
	<path class="st8" d="M167,166.9h-2.3v-9.4c0-0.6,0-1.1,0.1-1.6c1-0.6,2.5-0.8,3.8-0.8c3.1,0,4.4,1,4.4,4.4c0,3.3-1.3,4.4-4.2,4.4
		c-0.6,0-1.2-0.1-1.8-0.2V166.9z M168.3,162.2c2.2,0,2.3-1.2,2.3-2.7c0-1.4-0.1-2.7-2.1-2.7c-0.5,0-1.1,0.1-1.5,0.2
		c0,0.3-0.1,0.8-0.1,1.1v3.9C167.4,162.1,167.9,162.2,168.3,162.2z"/>
	<path class="st8" d="M173.9,159.5c0-3.2,1.1-4.4,4.2-4.4c3.1,0,4.2,1.2,4.2,4.4c0,3.2-1.1,4.4-4.2,4.4
		C175,163.9,173.9,162.7,173.9,159.5z M179.9,159.5c0-2.1-0.4-2.7-1.9-2.7c-1.5,0-1.8,0.5-1.8,2.7c0,2.1,0.4,2.7,1.8,2.7
		C179.6,162.2,179.9,161.6,179.9,159.5z"/>
	<path class="st8" d="M185.9,163.8h-2.3v-6.3c0-0.6,0-1.1,0.1-1.6c1.1-0.5,2.5-0.8,4.2-0.8c3.4,0,3.7,1.4,3.7,3.2v5.5h-2.3v-5.3
		c0-1.2-0.2-1.7-1.9-1.7c-0.5,0-1.1,0.1-1.4,0.2c0,0.3-0.1,0.8-0.1,1.1V163.8z"/>
</g>
<g>
	<g>
		<path class="st2" d="M13.8,25h-2.4V12.6c1.1-0.2,2.8-0.3,4.4-0.3c3,0,5.5,0.5,5.5,3.9c0,2.3-1.1,3.3-2.9,3.7l3.2,5.1h-2.8
			l-2.9-4.9c-0.7,0-1.5,0-2.1-0.1V25z M13.8,18.3c0.7,0.1,1.3,0.1,2,0.1c1.9,0,3.1-0.4,3.1-2.2c0-1.6-0.8-2.2-3-2.2
			c-0.6,0-1.4,0-2.1,0.1V18.3z"/>
		<path class="st2" d="M24.7,21.2c0.1,1.9,1.2,2.3,2.8,2.3c1.4,0,2.7-0.1,3.8-0.2l0.2,1.5c-1.1,0.2-2.5,0.4-4.5,0.4
			c-3.5,0-4.5-2.1-4.5-4.9c0-3.5,1.2-4.9,4.7-4.9c3.8,0,4.6,1.8,4.6,4.7c0,0.2,0,0.5,0,0.7c-1.2,0.2-3.7,0.4-5.2,0.5L24.7,21.2z
			 M26.7,19.7c0.8,0,2-0.1,2.7-0.2c0-0.1,0-0.3,0-0.4c0-1.5-0.6-2.3-2.3-2.3c-2.2,0-2.5,1.3-2.5,3L26.7,19.7z"/>
		<path class="st2" d="M35.5,28.5h-2.2V17.9c0-0.6,0-1.2,0.1-1.8c1.2-0.6,2.8-0.8,4.1-0.8c3.5,0,4.9,1.2,4.9,4.9
			c0,3.7-1.4,4.9-4.6,4.9c-0.7,0-1.6-0.1-2.3-0.3V28.5z M37.3,23.5c2.8,0,2.9-1.4,2.9-3.3c0-1.8-0.1-3.4-2.6-3.4
			c-0.7,0-1.5,0.1-1.9,0.3c0,0.4-0.1,0.9-0.1,1.3v4.8C36.1,23.4,36.8,23.5,37.3,23.5z"/>
		<path class="st2" d="M48.3,25.1c-3.4,0-4.7-1.3-4.7-4.9c0-3.6,1.2-4.9,4.7-4.9c3.4,0,4.7,1.4,4.7,4.9C53,23.7,51.8,25.1,48.3,25.1
			z M48.3,23.5c1.9,0,2.4-0.8,2.4-3.3c0-2.5-0.5-3.3-2.4-3.3c-1.9,0-2.4,0.7-2.4,3.3C45.9,22.8,46.4,23.5,48.3,23.5z"/>
		<path class="st2" d="M56.9,25h-2.2v-7.1c0-0.6,0-1.2,0.1-1.8c1.2-0.6,2.8-0.8,4.1-0.8c0.3,0,0.7,0,1,0l-0.2,1.6
			c-0.2,0-0.5,0-0.8,0c-0.7,0-1.5,0.1-1.9,0.3c0,0.4-0.1,0.9-0.1,1.3V25z"/>
		<path class="st2" d="M66.9,25c-0.5,0.1-1.1,0.1-1.6,0.1c-2.1,0-3-0.8-3-2.6v-5.6h-1.8v-1.5h1.8V13l2.2-0.3v2.7h2.2v1.5h-2.2v5.4
			c0,0.9,0.4,1.2,1.4,1.2c0.3,0,0.5,0,0.8,0L66.9,25z"/>
		<path class="st2" d="M69.3,14c-1.1,0-1.4-0.3-1.4-1.2s0.3-1.2,1.4-1.2c1,0,1.4,0.3,1.4,1.2S70.4,14,69.3,14z M68.2,25v-9.6h2.3V25
			H68.2z"/>
		<path class="st2" d="M81.4,25h-2.2V19c0-1.5-0.3-2.2-2.5-2.2c-0.7,0-1.5,0.1-1.9,0.3c0,0.4-0.1,0.9-0.1,1.3V25h-2.2v-7.1
			c0-0.6,0-1.2,0.1-1.8c1.2-0.5,2.8-0.8,4.7-0.8c3.7,0,4.1,1.6,4.1,3.6V25z"/>
		<path class="st2" d="M87.6,24.9c-3.1,0-4.6-1.2-4.6-4.8c0-3.7,1.5-4.8,4.9-4.8c1.4,0,3,0.2,4.1,0.8c0.1,0.6,0.1,1.1,0.1,1.8v7.8
			c0,2.5-1.9,3-4.2,3c-1.5,0-3.1-0.2-4.2-0.4l0.2-1.5c1.1,0.1,2.6,0.3,3.8,0.3c1.6,0,2.2-0.7,2.2-2v-0.4
			C89.2,24.8,88.3,24.9,87.6,24.9z M89.9,18.4c0-0.4,0-0.9-0.1-1.3c-0.5-0.2-1.2-0.3-1.9-0.3c-2.5,0-2.6,1.5-2.6,3.3
			c0,1.9,0.1,3.2,2.9,3.2c0.5,0,1.3-0.1,1.8-0.3V18.4z"/>
	</g>
</g>
<g>
	<g>
		<path class="st2" d="M217.9,239.4c-1.9,0-2.2,0.4-2.2,2v1.7h5.7v1.7h-5.7v1.9c0,1.6,0.3,1.9,2.2,1.9h3.7v1.7c-1,0-2.7,0.1-3.6,0.1
			c-2.4,0-4.7-0.1-4.7-3v-6.7c0-2.9,2.3-3,4.7-3c1,0,2.6,0,3.6,0.1v1.7H217.9z"/>
		<path class="st2" d="M232.9,250.3h-2.6l-2.5-3.5l-2.5,3.5h-2.5l3.8-5l-3.5-4.6h2.6l2.3,3.1l2.3-3.1h2.4l-3.5,4.6L232.9,250.3z"/>
		<path class="st2" d="M236.5,253.8h-2.2v-10.7c0-0.6,0-1.2,0.1-1.8c1.2-0.6,2.8-0.8,4.1-0.8c3.5,0,4.9,1.2,4.9,4.9
			c0,3.7-1.4,4.9-4.6,4.9c-0.7,0-1.6-0.1-2.3-0.3V253.8z M238.3,248.8c2.8,0,2.9-1.4,2.9-3.3c0-1.8-0.1-3.4-2.6-3.4
			c-0.7,0-1.5,0.1-1.9,0.3c0,0.4-0.1,0.9-0.1,1.3v4.8C237,248.7,237.7,248.8,238.3,248.8z"/>
		<path class="st2" d="M249.3,250.4c-3.4,0-4.7-1.3-4.7-4.9c0-3.6,1.2-4.9,4.7-4.9c3.4,0,4.7,1.4,4.7,4.9
			C254,249,252.7,250.4,249.3,250.4z M249.3,248.8c1.9,0,2.4-0.8,2.4-3.3c0-2.5-0.5-3.3-2.4-3.3c-1.9,0-2.4,0.7-2.4,3.3
			C246.9,248.1,247.4,248.8,249.3,248.8z"/>
		<path class="st2" d="M260.6,247.7c0-1.1-1.1-1.2-2.1-1.5c-1.7-0.5-3.3-0.9-3.3-2.9c0-2.1,1.6-2.7,3.7-2.7c1.5,0,2.5,0.1,3.7,0.4
			l-0.2,1.5c-0.8-0.1-1.7-0.3-2.6-0.3c-0.9,0-2.4,0-2.4,1c0,1,1.3,1.2,2.1,1.5c1.8,0.6,3.2,0.9,3.2,3c0,2.2-1.8,2.8-4.1,2.8
			c-1.1,0-2.5-0.1-3.6-0.4l0.2-1.5c0.8,0.1,2,0.3,2.8,0.3C259,248.8,260.6,248.8,260.6,247.7z"/>
		<path class="st2" d="M271,240.7h2.2v7.1c0,0.6,0,1.2-0.1,1.8c-1.2,0.5-2.7,0.8-4.7,0.8c-3.7,0-4.1-1.6-4.1-3.6v-6.2h2.2v5.9
			c0,1.5,0.3,2.2,2.4,2.2c0.7,0,1.4-0.1,1.9-0.3c0-0.4,0.1-0.9,0.1-1.3V240.7z"/>
		<path class="st2" d="M277.5,250.3h-2.2v-7.1c0-0.6,0-1.2,0.1-1.8c1.2-0.6,2.8-0.8,4.1-0.8c0.3,0,0.7,0,1,0l-0.2,1.6
			c-0.2,0-0.5,0-0.8,0c-0.7,0-1.5,0.1-1.9,0.3c0,0.4-0.1,0.9-0.1,1.3V250.3z"/>
		<path class="st2" d="M283.3,246.5c0.1,1.9,1.2,2.3,2.8,2.3c1.4,0,2.7-0.1,3.8-0.2l0.2,1.5c-1.1,0.2-2.5,0.4-4.5,0.4
			c-3.5,0-4.5-2.1-4.5-4.9c0-3.5,1.2-4.9,4.7-4.9c3.8,0,4.6,1.8,4.6,4.7c0,0.2,0,0.5,0,0.7c-1.2,0.2-3.7,0.4-5.2,0.5L283.3,246.5z
			 M285.4,245c0.8,0,2-0.1,2.7-0.2c0-0.1,0-0.3,0-0.4c0-1.5-0.6-2.3-2.3-2.3c-2.2,0-2.5,1.3-2.5,3L285.4,245z"/>
		<path class="st2" d="M240.1,256.6h2.2v10.9c0,0.6,0,1.2-0.1,1.8c-1.2,0.6-2.8,0.8-4.1,0.8c-3.5,0-4.9-1.2-4.9-4.9
			c0-3.7,1.4-4.9,4.6-4.9c0.7,0,1.6,0.1,2.3,0.3V256.6z M238.3,261.7c-2.8,0-2.9,1.4-2.9,3.3c0,1.8,0.1,3.4,2.6,3.4
			c0.7,0,1.5-0.1,1.9-0.3c0-0.4,0.1-0.9,0.1-1.3V262C239.5,261.8,238.8,261.7,238.3,261.7z"/>
		<path class="st2" d="M243.7,267c0-1.7,0.8-2.7,2.8-3c1.2-0.2,2.4-0.2,3.7-0.3c0-1.3-0.6-2-2.2-2c-1.3,0-2.6,0.1-3.7,0.2l-0.2-1.5
			c1.1-0.2,2.5-0.4,4.1-0.4c2.3,0,4.2,0.6,4.2,3v4.2c0,0.6,0,1.2-0.1,1.8c-1.2,0.6-2.7,0.8-4.7,0.8C244.9,270,243.7,269,243.7,267z
			 M250.3,265.1c-0.9,0-2,0-2.9,0.2c-1.1,0.2-1.5,0.5-1.5,1.7c0,1.2,0.7,1.5,2.1,1.5c0.7,0,1.5,0,2.2-0.3c0-0.4,0.1-0.9,0.1-1.3
			V265.1z"/>
		<path class="st2" d="M260,269.9c-0.5,0.1-1.1,0.1-1.6,0.1c-2.1,0-3-0.8-3-2.6v-5.6h-1.8v-1.5h1.8v-2.4l2.2-0.3v2.7h2.2v1.5h-2.2
			v5.4c0,0.9,0.4,1.2,1.4,1.2c0.3,0,0.5,0,0.8,0L260,269.9z"/>
		<path class="st2" d="M260.8,267c0-1.7,0.8-2.7,2.8-3c1.2-0.2,2.4-0.2,3.7-0.3c0-1.3-0.6-2-2.2-2c-1.3,0-2.6,0.1-3.7,0.2l-0.2-1.5
			c1.1-0.2,2.5-0.4,4.1-0.4c2.3,0,4.2,0.6,4.2,3v4.2c0,0.6,0,1.2-0.1,1.8c-1.2,0.6-2.7,0.8-4.7,0.8C261.9,270,260.8,269,260.8,267z
			 M267.4,265.1c-0.9,0-2,0-2.9,0.2c-1.1,0.2-1.5,0.5-1.5,1.7c0,1.2,0.7,1.5,2.1,1.5c0.7,0,1.5,0,2.2-0.3c0-0.4,0.1-0.9,0.1-1.3
			V265.1z"/>
	</g>
</g>
<g>
	<path class="st8" d="M298.4,163.6c-0.8,0.2-1.9,0.3-3.2,0.3c-4.1,0-5.1-1.7-5.1-5.7c0-4,1-5.7,5.1-5.7c1.3,0,2.4,0.1,3.2,0.3
		l-0.2,1.8c-0.8-0.1-1.6-0.2-2.5-0.2c-2.9,0-3,1.6-3,3.8c0,2.2,0,3.8,3,3.8c0.9,0,1.7-0.1,2.5-0.2L298.4,163.6z"/>
	<path class="st8" d="M299.2,159.5c0-3.2,1.1-4.4,4.2-4.4c3.1,0,4.2,1.2,4.2,4.4c0,3.2-1.1,4.4-4.2,4.4
		C300.3,163.9,299.2,162.7,299.2,159.5z M305.2,159.5c0-2.1-0.4-2.7-1.9-2.7c-1.5,0-1.8,0.5-1.8,2.7c0,2.1,0.4,2.7,1.8,2.7
		C304.8,162.2,305.2,161.6,305.2,159.5z"/>
	<path class="st8" d="M308.8,155.2h2.3v5.3c0,1.2,0.2,1.7,1.8,1.7c0.5,0,1.1-0.1,1.4-0.2c0-0.3,0.1-0.8,0.1-1.1v-5.6h2.3v6.3
		c0,0.6,0,1.1-0.1,1.6c-1.1,0.5-2.5,0.8-4.2,0.8c-3.4,0-3.7-1.4-3.7-3.2V155.2z"/>
	<path class="st8" d="M320.7,166.9h-2.3v-9.4c0-0.6,0-1.1,0.1-1.6c1-0.6,2.5-0.8,3.8-0.8c3.1,0,4.4,1,4.4,4.4c0,3.3-1.3,4.4-4.2,4.4
		c-0.6,0-1.2-0.1-1.8-0.2V166.9z M322.1,162.2c2.2,0,2.3-1.2,2.3-2.7c0-1.4-0.1-2.7-2.1-2.7c-0.5,0-1.1,0.1-1.5,0.2
		c0,0.3-0.1,0.8-0.1,1.1v3.9C321.1,162.1,321.6,162.2,322.1,162.2z"/>
	<path class="st8" d="M327.7,159.5c0-3.2,1.1-4.4,4.2-4.4c3.1,0,4.2,1.2,4.2,4.4c0,3.2-1.1,4.4-4.2,4.4
		C328.8,163.9,327.7,162.7,327.7,159.5z M333.7,159.5c0-2.1-0.4-2.7-1.9-2.7c-1.5,0-1.8,0.5-1.8,2.7c0,2.1,0.4,2.7,1.8,2.7
		C333.3,162.2,333.7,161.6,333.7,159.5z"/>
	<path class="st8" d="M339.7,163.8h-2.3v-6.3c0-0.6,0-1.1,0.1-1.6c1.1-0.5,2.5-0.8,4.2-0.8c3.4,0,3.7,1.4,3.7,3.2v5.5h-2.3v-5.3
		c0-1.2-0.2-1.7-1.9-1.7c-0.5,0-1.1,0.1-1.4,0.2c0,0.3-0.1,0.8-0.1,1.1V163.8z"/>
	<path class="st8" d="M353.6,155.1h2v3.1h3.3v1.8h-3.3v3.1h-2V160h-3.3v-1.8h3.3V155.1z"/>
	<path class="st8" d="M363.5,161.2c0-1.5,0.7-2.5,2.6-2.7c1-0.1,2-0.2,3-0.2c0-1-0.5-1.4-1.7-1.4c-1.1,0-2.4,0.1-3.3,0.2l-0.2-1.6
		c1-0.2,2.3-0.3,3.7-0.3c2.1,0,3.8,0.5,3.8,2.8v3.6c0,0.6,0,1.1-0.1,1.6c-1.1,0.6-2.5,0.8-4.2,0.8
		C364.5,163.9,363.5,163,363.5,161.2z M369,159.6c-0.7,0-1.5,0.1-2.2,0.2c-0.8,0.2-1.1,0.4-1.1,1.3c0,0.9,0.6,1.1,1.6,1.1
		c0.5,0,1.1,0,1.6-0.2c0-0.3,0.1-0.8,0.1-1.1V159.6z"/>
	<path class="st8" d="M378.5,151.9h2.3v9.6c0,0.6,0,1.1-0.1,1.6c-1.1,0.6-2.5,0.8-3.8,0.8c-3.1,0-4.4-1-4.4-4.4
		c0-3.3,1.3-4.4,4.2-4.4c0.6,0,1.2,0.1,1.8,0.2V151.9z M377.2,156.8c-2.2,0-2.3,1.2-2.3,2.7c0,1.4,0.1,2.7,2.1,2.7
		c0.5,0,1.1-0.1,1.5-0.2c0-0.3,0.1-0.8,0.1-1.1V157C378.1,156.9,377.6,156.8,377.2,156.8z"/>
</g>
</svg>
