<svg id="b93c4044-1888-4eda-b2c7-e2ec90295299" data-name="Layer 1" xmlns="http://www.w3.org/2000/svg" viewBox="0 0 330 300">
  <defs>
    <style>
      .a5d1e85b-3b38-4d7d-9574-604ee3c06df7, .a840d056-fd88-42a3-a5b2-e4cf2016a79f, .ac4e9eac-486a-4452-83f8-59d83b6f6c6c, .b7c79a72-ebb2-4a80-bedb-aec2bc2533ee {
        fill: none;
        stroke-width: 2px;
      }

      .a5d1e85b-3b38-4d7d-9574-604ee3c06df7 {
        stroke: #73c06b;
      }

      .a5d1e85b-3b38-4d7d-9574-604ee3c06df7, .ac4e9eac-486a-4452-83f8-59d83b6f6c6c, .b7c79a72-ebb2-4a80-bedb-aec2bc2533ee {
        stroke-linecap: round;
      }

      .a5d1e85b-3b38-4d7d-9574-604ee3c06df7, .ac4e9eac-486a-4452-83f8-59d83b6f6c6c {
        stroke-linejoin: round;
      }

      .a840d056-fd88-42a3-a5b2-e4cf2016a79f, .ac4e9eac-486a-4452-83f8-59d83b6f6c6c, .b7c79a72-ebb2-4a80-bedb-aec2bc2533ee {
        stroke: #00a8e1;
      }

      .a840d056-fd88-42a3-a5b2-e4cf2016a79f, .b7c79a72-ebb2-4a80-bedb-aec2bc2533ee {
        stroke-miterlimit: 10;
      }

      .b850df2a-1fce-4f31-abd5-eec0632df765 {
        fill: #55555a;
      }

      .b7c79a72-ebb2-4a80-bedb-aec2bc2533ee {
        stroke-dasharray: 5 5;
      }
    </style>
  </defs>
  <title>integration-matters-b</title>
  <path class="a5d1e85b-3b38-4d7d-9574-604ee3c06df7" d="M272.052,6.269V194.294c0,10.135-8.888,18.428-19.752,18.428s-19.75-8.293-19.75-18.428V116.977c0-10.134-9.145-18.425-20.322-18.425s-20.322,8.291-20.322,18.425v131.18c0,10.134-9.006,18.428-20.01,18.428s-20.013-8.294-20.013-18.428V226.952c0-10.134-9.133-18.428-20.3-18.428s-20.3,8.294-20.3,18.428V246c0,10.134-9.943,18.425-22.1,18.425H65.942"/>
  <polyline class="a5d1e85b-3b38-4d7d-9574-604ee3c06df7" points="253.362 21.803 272.052 5 290.743 21.803"/>
  <path class="ac4e9eac-486a-4452-83f8-59d83b6f6c6c" d="M65.1,269V239.04c0-12.173-9.294-22.04-20.758-22.04C32.609,217,23.1,227.1,23.1,239.554V269"/>
  <path class="ac4e9eac-486a-4452-83f8-59d83b6f6c6c" d="M35.309,257.247v10.177l-17.035,3.192a8.2,8.2,0,0,0-6.175,8.012V295h63V278.628a8.2,8.2,0,0,0-6.176-8.012l-17.035-3.192v-9.361"/>
  <path class="ac4e9eac-486a-4452-83f8-59d83b6f6c6c" d="M57.1,240.14v5.644c0,8.4-5.821,15.216-13,15.216s-13-6.812-13-15.216v-6.352L38.528,231s5,6.466,16.582,8.736Z"/>
  <circle class="a840d056-fd88-42a3-a5b2-e4cf2016a79f" cx="133.099" cy="208.5" r="8"/>
  <circle class="a840d056-fd88-42a3-a5b2-e4cf2016a79f" cx="191.099" cy="237.052" r="8"/>
  <circle class="a840d056-fd88-42a3-a5b2-e4cf2016a79f" cx="191.099" cy="138.385" r="8"/>
  <g>
    <path class="b850df2a-1fce-4f31-abd5-eec0632df765" d="M27.36,139.663c0,3.327-1.794,4.2-4.543,4.2s-4.537-.87-4.537-4.2v-8.518h1.372V139.8c0,1.95.9,2.868,3.165,2.868,2.29,0,3.165-.918,3.165-2.868v-8.659H27.36Z"/>
    <path class="b850df2a-1fce-4f31-abd5-eec0632df765" d="M31.146,134.126c0,1.659.719,1.945,2.89,2.566,2.042.583,3.5,1.405,3.5,3.624,0,2.593-1.6,3.544-4.468,3.544a15.269,15.269,0,0,1-3.219-.3l.134-1.134a22.266,22.266,0,0,0,3.032.237c1.8,0,3.078-.41,3.078-2.284,0-1.567-1.07-1.993-2.787-2.512-2.231-.67-3.549-1.254-3.549-3.5,0-2.527,1.539-3.354,4.295-3.354a19.162,19.162,0,0,1,3.181.287l-.125,1.112A17.642,17.642,0,0,0,34.6,132.2C32.771,132.2,31.146,132.441,31.146,134.126Z"/>
    <path class="b850df2a-1fce-4f31-abd5-eec0632df765" d="M39,143.73l4.359-11.77c.233-.632.589-.945,1.1-.945s.881.308,1.113.945l4.3,11.77H48.39l-1.3-3.619H41.713l-1.3,3.619ZM46.7,139l-2.291-6.4-2.3,6.4Z"/>
  </g>
  <circle class="a840d056-fd88-42a3-a5b2-e4cf2016a79f" cx="232.309" cy="191.385" r="8"/>
  <circle class="a840d056-fd88-42a3-a5b2-e4cf2016a79f" cx="272.099" cy="77.718" r="8"/>
  <line class="b7c79a72-ebb2-4a80-bedb-aec2bc2533ee" x1="271.451" y1="77.718" x2="105.567" y2="77.718"/>
  <line class="b7c79a72-ebb2-4a80-bedb-aec2bc2533ee" x1="191.906" y1="138.385" x2="55.077" y2="138.385"/>
  <line class="b7c79a72-ebb2-4a80-bedb-aec2bc2533ee" x1="133.46" y1="208.5" x2="89.077" y2="208.5"/>
  <line class="b7c79a72-ebb2-4a80-bedb-aec2bc2533ee" x1="264.099" y1="237.052" x2="191.906" y2="237.052"/>
  <line class="b7c79a72-ebb2-4a80-bedb-aec2bc2533ee" x1="288.939" y1="191.385" x2="233.939" y2="191.385"/>
  <g>
    <path class="b850df2a-1fce-4f31-abd5-eec0632df765" d="M68.6,83.063H67.072l5.256-11.035H65.56V70.855h7.2c.676,0,1,.276,1,.7a1.346,1.346,0,0,1-.147.562Z"/>
    <path class="b850df2a-1fce-4f31-abd5-eec0632df765" d="M76.941,75.75c.276-.017,1.053-.044,1.286-.044,2.981,0,5.121.438,5.121,3.63,0,2.793-1.573,3.857-4.447,3.857a18.5,18.5,0,0,1-3.565-.34l.152-1.1a18.116,18.116,0,0,0,2.922.259c2.528,0,3.538-.53,3.538-2.83,0-2.085-1.766-2.361-4.122-2.361-.809,0-1.458.016-2.224.06l.41-6.024h7v1.184H77.2Z"/>
    <path class="b850df2a-1fce-4f31-abd5-eec0632df765" d="M85.171,74.118c0-2.484.448-3.7,2.641-3.7s2.647,1.221,2.647,3.7-.453,3.706-2.647,3.706S85.171,76.6,85.171,74.118Zm4.31,0c0-1.722-.07-2.906-1.669-2.906s-1.658,1.184-1.658,2.906.059,2.9,1.658,2.9S89.481,75.842,89.481,74.118Zm5.316-3.9h1.086l-7.395,13.1H87.407Zm-1.945,9.2c0-2.485.449-3.7,2.636-3.7s2.647,1.22,2.647,3.7-.448,3.7-2.647,3.7S92.852,81.907,92.852,79.423Zm4.3,0c0-1.724-.07-2.906-1.669-2.906S93.83,77.7,93.83,79.423s.065,2.906,1.658,2.906S97.157,81.146,97.157,79.423Z"/>
  </g>
  <g>
    <path class="b850df2a-1fce-4f31-abd5-eec0632df765" d="M302.706,187.294a2.943,2.943,0,0,1-1.923,3.009,2.854,2.854,0,0,1,2.134,2.857c0,2.847-1.755,3.7-4.591,3.7a17.615,17.615,0,0,1-3.409-.33l.151-1.1a23.059,23.059,0,0,0,2.873.259c2.405,0,3.572-.5,3.572-2.436a2.112,2.112,0,0,0-2.07-2.242,19.415,19.415,0,0,0-2.036-.086c-.162,0-.329,0-.5,0v-1.042a21.213,21.213,0,0,0,2.533-.211,2.019,2.019,0,0,0,1.891-2.09c0-1.891-1.3-2.042-3.165-2.042a20.8,20.8,0,0,0-2.987.254l-.141-1.075a16.835,16.835,0,0,1,3.371-.329C300.654,184.394,302.706,184.842,302.706,187.294Z"/>
    <path class="b850df2a-1fce-4f31-abd5-eec0632df765" d="M304.988,187.785c0-2.484.45-3.7,2.643-3.7s2.646,1.221,2.646,3.7-.454,3.706-2.646,3.706S304.988,190.271,304.988,187.785Zm4.311,0c0-1.723-.07-2.906-1.668-2.906s-1.658,1.183-1.658,2.906.058,2.9,1.658,2.9S309.3,189.509,309.3,187.785Zm5.316-3.9H315.7l-7.394,13.1h-1.081Zm-1.945,9.2c0-2.485.448-3.705,2.637-3.705s2.646,1.22,2.646,3.705-.449,3.7-2.646,3.7S312.67,195.574,312.67,193.09Zm4.305,0c0-1.724-.071-2.906-1.668-2.906s-1.66,1.182-1.66,2.906.066,2.906,1.66,2.906S316.975,194.812,316.975,193.09Z"/>
  </g>
  <g>
    <path class="b850df2a-1fce-4f31-abd5-eec0632df765" d="M273.48,231.631a25.042,25.042,0,0,1-3.03.659l-.065-1.118a14.161,14.161,0,0,0,3.355-.984h1.08V242.4h-1.34Z"/>
    <path class="b850df2a-1fce-4f31-abd5-eec0632df765" d="M277.607,241.575c0-.707.178-.961.789-.961s.793.254.793.961-.167.951-.793.951S277.607,242.283,277.607,241.575Z"/>
    <path class="b850df2a-1fce-4f31-abd5-eec0632df765" d="M283.012,235.083c.275-.017,1.052-.044,1.285-.044,2.982,0,5.121.438,5.121,3.63,0,2.793-1.572,3.857-4.445,3.857a18.506,18.506,0,0,1-3.566-.34l.152-1.1a18.1,18.1,0,0,0,2.921.259c2.529,0,3.54-.53,3.54-2.83,0-2.085-1.768-2.361-4.123-2.361-.809,0-1.458.016-2.225.06l.41-6.024h7v1.184h-5.807Z"/>
    <path class="b850df2a-1fce-4f31-abd5-eec0632df765" d="M297.659,232.776H299.1l-3.127,4.586L299.4,242.4h-1.55l-2.674-3.986-2.653,3.986h-1.464l3.415-5-3.144-4.619h1.528l2.4,3.587Z"/>
  </g>
  <path class="b850df2a-1fce-4f31-abd5-eec0632df765" d="M84.305,205.628a2.874,2.874,0,0,1-1.945,3.025,3.06,3.06,0,0,1,2.134,3.095c0,2.776-2.01,3.382-4.4,3.382-2.529,0-4.387-.783-4.387-3.4a3.039,3.039,0,0,1,2.117-3.074,2.93,2.93,0,0,1-1.917-3.03c0-2.1,1.68-2.965,4.187-2.965C82.544,202.663,84.305,203.527,84.305,205.628Zm-1.139,6.056c0-1.7-1.1-2.275-3.35-2.442-1.63.205-2.781.762-2.781,2.442,0,1.9,1.377,2.333,3.063,2.333S83.166,213.623,83.166,211.684Zm-.146-5.813c0-1.761-1.356-2.117-2.922-2.117-1.551,0-2.891.34-2.891,2.117,0,1.459,1.075,2.129,3.182,2.264C81.869,207.886,83.02,207.389,83.02,205.871Z"/>
</svg>
