<svg id="aa587e67-c80a-4337-bf8a-087a3ebd8661" data-name="Layer 1" xmlns="http://www.w3.org/2000/svg" viewBox="0 0 330 300">
  <defs>
    <style>
      .a1295f5e-742b-4909-a048-e529a8b04b03, .a63d3965-7560-4bc0-a32d-660cf89ed3e5, .b9ece9f9-a3fa-4171-822f-8da7d64b7d8b, .e13e1752-6add-46d5-9246-7a36ed420332, .eec97952-224a-43b5-b21a-1b62601a32a3, .fbfc789d-ab29-4d68-8d1c-873bc73d7baa {
        fill: none;
        stroke-width: 2px;
      }

      .a63d3965-7560-4bc0-a32d-660cf89ed3e5 {
        stroke: #73c06b;
      }

      .a1295f5e-742b-4909-a048-e529a8b04b03, .a63d3965-7560-4bc0-a32d-660cf89ed3e5, .b9ece9f9-a3fa-4171-822f-8da7d64b7d8b, .fbfc789d-ab29-4d68-8d1c-873bc73d7baa {
        stroke-miterlimit: 10;
      }

      .a1295f5e-742b-4909-a048-e529a8b04b03, .b9ece9f9-a3fa-4171-822f-8da7d64b7d8b, .e13e1752-6add-46d5-9246-7a36ed420332, .eec97952-224a-43b5-b21a-1b62601a32a3, .fbfc789d-ab29-4d68-8d1c-873bc73d7baa {
        stroke: #00a8e1;
      }

      .a1295f5e-742b-4909-a048-e529a8b04b03, .e13e1752-6add-46d5-9246-7a36ed420332, .fbfc789d-ab29-4d68-8d1c-873bc73d7baa {
        stroke-linecap: round;
      }

      .e13e1752-6add-46d5-9246-7a36ed420332, .eec97952-224a-43b5-b21a-1b62601a32a3 {
        stroke-linejoin: round;
      }

      .a1295f5e-742b-4909-a048-e529a8b04b03 {
        stroke-dasharray: 5 5;
      }
    </style>
  </defs>
  <title>integration-matters-a</title>
  <ellipse class="a63d3965-7560-4bc0-a32d-660cf89ed3e5" cx="155.8" cy="216" rx="59.5" ry="60"/>
  <g>
    <path class="e13e1752-6add-46d5-9246-7a36ed420332" d="M147.511,214.6v7.944L130.475,224.4a7.973,7.973,0,0,0-6.175,7.736v17.336h63V232.135a7.934,7.934,0,0,0-6.034-7.736l-16.646-1.856v-7.861"/>
    <path class="e13e1752-6add-46d5-9246-7a36ed420332" d="M172.18,191.089V199.4c0,9.646-7.052,17.464-15.75,17.464s-15.75-7.818-15.75-17.464v-8.807"/>
    <path class="e13e1752-6add-46d5-9246-7a36ed420332" d="M155.8,216.86c-8.351,0-15.12-7.839-15.12-17.509v-8.83"/>
    <path class="e13e1752-6add-46d5-9246-7a36ed420332" d="M172.18,194.284c-14.557,0-22.422-9.052-22.422-9.052l-9.078,9.052v-8.337a10.206,10.206,0,0,1,9.915-10.476h10.4c6.179,0,11.188,5.292,11.188,11.821v6.2"/>
  </g>
  <line class="a1295f5e-742b-4909-a048-e529a8b04b03" x1="102.517" y1="181.151" x2="60.451" y2="140.747"/>
  <line class="a1295f5e-742b-4909-a048-e529a8b04b03" x1="155.8" y1="150.386" x2="155.8" y2="72.239"/>
  <line class="a1295f5e-742b-4909-a048-e529a8b04b03" x1="249.346" y1="252" x2="216" y2="236.542"/>
  <line class="a1295f5e-742b-4909-a048-e529a8b04b03" x1="72" y1="255" x2="98" y2="239.558"/>
  <circle class="a63d3965-7560-4bc0-a32d-660cf89ed3e5" cx="155.8" cy="36.5" r="32.5"/>
  <g>
    <rect class="b9ece9f9-a3fa-4171-822f-8da7d64b7d8b" x="268.606" y="100" width="36.485" height="26.364" rx="2"/>
    <rect class="eec97952-224a-43b5-b21a-1b62601a32a3" x="273" y="106" width="14.333" height="10.545"/>
    <rect class="eec97952-224a-43b5-b21a-1b62601a32a3" x="290.758" y="110.546" width="10.424" height="9.227"/>
    <line class="fbfc789d-ab29-4d68-8d1c-873bc73d7baa" x1="267" y1="130" x2="307" y2="130"/>
  </g>
  <g>
    <path class="e13e1752-6add-46d5-9246-7a36ed420332" d="M151.262,51.391a2.616,2.616,0,1,1-2.616-2.608A2.613,2.613,0,0,1,151.262,51.391Z"/>
    <path class="e13e1752-6add-46d5-9246-7a36ed420332" d="M171.185,51.391a2.616,2.616,0,1,1-2.616-2.608A2.612,2.612,0,0,1,171.185,51.391Z"/>
    <line class="e13e1752-6add-46d5-9246-7a36ed420332" x1="163.646" y1="27" x2="163.646" y2="45.478"/>
    <line class="e13e1752-6add-46d5-9246-7a36ed420332" x1="153.185" y1="27" x2="153.185" y2="45.478"/>
    <path class="e13e1752-6add-46d5-9246-7a36ed420332" d="M147.749,26.141H172.8l-1.715,19.337h-25.54l-2.172-19.485A4.512,4.512,0,0,0,138.8,22"/>
    <line class="e13e1752-6add-46d5-9246-7a36ed420332" x1="171.492" y1="35.043" x2="144.8" y2="35.043"/>
  </g>
  <circle class="a63d3965-7560-4bc0-a32d-660cf89ed3e5" cx="37.5" cy="113.5" r="32.5"/>
  <g>
    <polyline class="e13e1752-6add-46d5-9246-7a36ed420332" points="37.52 123.199 56.671 123.199 56.671 101.2 37.52 101.2"/>
    <polyline class="e13e1752-6add-46d5-9246-7a36ed420332" points="37.52 101.2 18.454 101.2 18.454 123.199 37.52 123.199"/>
    <line class="e13e1752-6add-46d5-9246-7a36ed420332" x1="45.261" y1="127.575" x2="29.865" y2="127.575"/>
    <polyline class="e13e1752-6add-46d5-9246-7a36ed420332" points="34.9 116.7 42.7 112.2 34.9 107.7 34.9 113.455"/>
  </g>
  <line class="a1295f5e-742b-4909-a048-e529a8b04b03" x1="207.846" y1="180.695" x2="264" y2="141"/>
  <circle class="a63d3965-7560-4bc0-a32d-660cf89ed3e5" cx="286.5" cy="114.5" r="32.5"/>
  <circle class="a63d3965-7560-4bc0-a32d-660cf89ed3e5" cx="283.931" cy="262.5" r="32.5"/>
  <g>
    <g>
      <line class="e13e1752-6add-46d5-9246-7a36ed420332" x1="289.781" y1="270.765" x2="289.781" y2="255.235"/>
      <line class="e13e1752-6add-46d5-9246-7a36ed420332" x1="285.881" y1="270.765" x2="285.881" y2="257.824"/>
      <line class="e13e1752-6add-46d5-9246-7a36ed420332" x1="281.981" y1="270.765" x2="281.981" y2="263"/>
      <line class="e13e1752-6add-46d5-9246-7a36ed420332" x1="278.081" y1="270.765" x2="278.081" y2="268.176"/>
    </g>
    <line class="e13e1752-6add-46d5-9246-7a36ed420332" x1="285.881" y1="281.118" x2="281.981" y2="281.118"/>
    <g>
      <line class="e13e1752-6add-46d5-9246-7a36ed420332" x1="276.167" y1="247.471" x2="295.667" y2="247.471"/>
      <path class="e13e1752-6add-46d5-9246-7a36ed420332" d="M283.362,284.57h11.647a1.429,1.429,0,0,0,1.444-1.4V242.841a1.429,1.429,0,0,0-1.444-1.4H275.5"/>
      <path class="e13e1752-6add-46d5-9246-7a36ed420332" d="M283.4,241.436H272.853a1.43,1.43,0,0,0-1.444,1.405v40.325a1.429,1.429,0,0,0,1.444,1.4H283.4"/>
      <line class="e13e1752-6add-46d5-9246-7a36ed420332" x1="276.052" y1="276.451" x2="296.436" y2="276.451"/>
    </g>
  </g>
  <circle class="a63d3965-7560-4bc0-a32d-660cf89ed3e5" cx="40.25" cy="266" r="30"/>
  <g>
    <polyline class="e13e1752-6add-46d5-9246-7a36ed420332" points="31.75 253 23.75 259.512 23.75 280"/>
    <polyline class="e13e1752-6add-46d5-9246-7a36ed420332" points="47.75 252 40.693 245.466 33.597 251.4"/>
    <polyline class="e13e1752-6add-46d5-9246-7a36ed420332" points="23.75 280 56.75 280 56.75 259.512 48.962 253"/>
    <polyline class="e13e1752-6add-46d5-9246-7a36ed420332" points="48.75 265 48.75 252 31.75 252 31.75 265"/>
    <line class="e13e1752-6add-46d5-9246-7a36ed420332" x1="35.75" y1="261.5" x2="43.75" y2="261.5"/>
    <line class="e13e1752-6add-46d5-9246-7a36ed420332" x1="35.75" y1="257.5" x2="43.75" y2="257.5"/>
    <polyline class="e13e1752-6add-46d5-9246-7a36ed420332" points="55.765 259.776 40.25 272 24.203 259.88"/>
  </g>
</svg>
