<svg id="Full_color" data-name="Full color" xmlns="http://www.w3.org/2000/svg" viewBox="0 0 787.09 148.17">
    <defs>
        <style>
        .cls-1 {
            fill: #7f9fb4;
        }

        .cls-2 {
            fill: #3a7d3d;
        }

        .cls-3 {
            fill: #73bf69;
        }

        .cls-4 {
            fill: #a2d296;
        }
        </style>
    </defs>
    <title>LR-Logo-full-color-versions</title>
    <path class="cls-1" d="M217.25,105.94c-8.1.31-15.94.39-23,.39-17.11,0-33.19-.86-33.19-22.27V5.12H172.2v72.7c0,15.86,3,19.2,21.66,19.2h23.39Z" />
    <path class="cls-1" d="M226.34,13c0-5.68,1.43-7.71,6.33-7.71S239,7.34,239,13s-1.34,7.62-6.37,7.62S226.34,18.69,226.34,13Zm1.09,15.89H238v77.16H227.43Z" />
    <path class="cls-1" d="M291.7,99.62c-1.95,5-4.33,7.49-8.23,7.49s-6.59-2.47-8.49-7.49L247.81,28.91H259L283.6,94.59l24.91-65.68h10.74Z" />
    <path class="cls-1" d="M321.49,67.47c0-28,8.4-39.6,33.75-39.6,26.12,0,33.19,13.65,33.19,34.75,0,2.16-.09,5-.22,7.32-8.84,1.47-27.12,3.2-37.91,3.64L332,74.31c1.3,15.82,6.06,23.92,25.51,23.92a198.15,198.15,0,0,0,27.26-2.17l.95,8.5a192.87,192.87,0,0,1-32.32,2.55C328.16,107.11,321.49,90.34,321.49,67.47Zm30.67-2.08c6.76-.3,18.37-1.21,25.48-2.12.13-1.56.17-3.82.17-5.42,0-13.08-5.72-21.4-22.57-21.4-19.41,0-23.48,10-23.48,29.89Z" />
    <path class="cls-1" d="M425.87,106.07H405.42V6.86a191.32,191.32,0,0,1,32.84-2.78c22.31,0,40.55,4.42,40.55,31.72,0,17.85-7.49,26.25-19.36,29.85l23,40.42H458.93L438.22,68c-4.12,0-8.8-.22-12.35-.43Zm0-54.8a110.35,110.35,0,0,0,12.48.52c12.69,0,20.19-3.25,20.19-16.08,0-11.18-5-15.64-19.76-15.64a99.76,99.76,0,0,0-12.91.87Z" />
    <path class="cls-1" d="M488.53,82.5c0-13.64,6-22.09,21.36-24.52,8.06-1.3,16.2-1.6,24.69-1.95,0-8.88-4.11-12.91-14.16-12.91a226.31,226.31,0,0,0-27.25,2l-1.56-14.29a180.9,180.9,0,0,1,30.28-2.95c17.2,0,31.5,4.81,31.5,24.83V85.32c0,5.24-.22,9.7-.65,14.64-8.93,5.2-20.54,7.15-34.49,7.15C496.93,107.11,488.53,98.84,488.53,82.5Zm46.05-13.9c-5.76.3-12.43.47-17.8,1.73-6.76,1.6-9.36,3.81-9.36,11.91s4.68,10.27,13.08,10.27c4.29,0,9.45-.3,13.61-2.08a100.78,100.78,0,0,0,.47-10.35Z" />
    <path class="cls-1" d="M584.94,106.07H565.79V49.66c0-5.24.22-9.7.65-14.64,8.58-4.59,20.71-7.15,32.67-7.15,8.49,0,14.47,1.65,18.63,4.42a68.3,68.3,0,0,1,23.57-4.42c24.69,0,28.33,13.3,28.33,29.07v49.13H650.45V58.67c0-10-2.38-15.38-13.22-15.38a26.52,26.52,0,0,0-11,2.56,50.76,50.76,0,0,1,1,11.09v49.13H608.08V58.67c0-9.83-2.3-15.38-12.83-15.38a25.44,25.44,0,0,0-9.83,2,98,98,0,0,0-.48,10.35Z" />
    <path class="cls-1" d="M702.7,142.26H683.51V49.66A145.31,145.31,0,0,1,684.16,35c8.67-5.07,20.58-7.15,31.07-7.15,25.69,0,36.52,9.32,36.52,39.64,0,29.9-10.57,39.6-34.32,39.6a74.35,74.35,0,0,1-14.73-1.64ZM713.54,92c18.41,0,18.89-10.4,18.89-24.44,0-12.61-.74-24.56-17.2-24.56-4.25,0-9.15.69-12.05,2a98,98,0,0,0-.48,10.36V90.26A39.89,39.89,0,0,0,713.54,92Z" />
    <polygon class="cls-1" points="41.37 110.53 9.34 144.08 50.77 144.08 41.37 110.53" />
    <polygon class="cls-2" points="47.65 109.43 57.36 144.08 142.53 144.08 142.53 132.25 47.65 109.43" />
    <polygon class="cls-3" points="51.42 103.88 142.4 125.72 142.4 72.21 51.42 103.88" />
    <polygon class="cls-4" points="54.95 95.94 142.4 65.49 142.4 4.08 54.95 95.94" />
    <path class="cls-1" d="M771.92,35.93a7.74,7.74,0,0,1-.6,3.09,7.32,7.32,0,0,1-1.62,2.39A7.24,7.24,0,0,1,767.33,43a7.46,7.46,0,0,1-2.82.55,7.71,7.71,0,0,1-3-.58,7,7,0,0,1-2.35-1.59,7.28,7.28,0,0,1-1.54-2.4,8,8,0,0,1-.55-3,7.79,7.79,0,0,1,.59-3.1,7.28,7.28,0,0,1,1.62-2.38,7,7,0,0,1,2.38-1.54,7.42,7.42,0,0,1,2.85-.55,7.27,7.27,0,0,1,2.82.55,7.08,7.08,0,0,1,2.37,1.54,7.28,7.28,0,0,1,1.62,2.38A7.79,7.79,0,0,1,771.92,35.93Zm-1.62,0a6.9,6.9,0,0,0-.45-2.53,5.87,5.87,0,0,0-1.23-2,5.62,5.62,0,0,0-1.84-1.29,5.71,5.71,0,0,0-2.27-.45,5.86,5.86,0,0,0-2.3.45,5.67,5.67,0,0,0-1.85,1.29,6,6,0,0,0-1.23,2,6.9,6.9,0,0,0-.45,2.53,7.21,7.21,0,0,0,.41,2.43,6.12,6.12,0,0,0,1.16,2,5.56,5.56,0,0,0,1.83,1.34,5.62,5.62,0,0,0,2.43.5,5.71,5.71,0,0,0,2.27-.45,5.78,5.78,0,0,0,1.84-1.29,5.93,5.93,0,0,0,1.23-2A6.88,6.88,0,0,0,770.3,35.93ZM763,40.26h-1.37V31.88h3.17a3.81,3.81,0,0,1,2.29.57,2.14,2.14,0,0,1,.77,1.84,2,2,0,0,1-.63,1.66,2.88,2.88,0,0,1-1.56.63L768,40.26h-1.56l-2.16-3.58H763Zm1.54-4.76c.26,0,.5,0,.74,0a1.5,1.5,0,0,0,.62-.17,1.12,1.12,0,0,0,.42-.39,1.33,1.33,0,0,0,.16-.72.94.94,0,0,0-.17-.61,1.1,1.1,0,0,0-.43-.34,1.83,1.83,0,0,0-.59-.15c-.22,0-.42,0-.63,0H763V35.5Z" />
</svg>