<svg id="b4b9d5fd-cffa-41e0-a29b-acdbf680aee2" data-name="Layer 1" xmlns="http://www.w3.org/2000/svg" viewBox="0 0 200 176">
  <defs>
    <style>
      .acafc07e-69c4-4e5a-b883-a7b27cd773bb, .b0843216-ad2b-4538-adb4-b68fa97590b3, .b79694f6-bcc8-442d-9e8b-ea6cc25230b0, .b7e77c8e-2852-402e-b259-e00465452f04, .bb1c622d-b657-42e4-9035-7768d79b2b88 {
        fill: none;
        stroke-width: 2px;
      }

      .b0843216-ad2b-4538-adb4-b68fa97590b3 {
        stroke: #91cae6;
      }

      .acafc07e-69c4-4e5a-b883-a7b27cd773bb, .b0843216-ad2b-4538-adb4-b68fa97590b3, .b79694f6-bcc8-442d-9e8b-ea6cc25230b0, .bb1c622d-b657-42e4-9035-7768d79b2b88 {
        stroke-linecap: round;
      }

      .acafc07e-69c4-4e5a-b883-a7b27cd773bb, .b0843216-ad2b-4538-adb4-b68fa97590b3, .bb1c622d-b657-42e4-9035-7768d79b2b88 {
        stroke-linejoin: round;
      }

      .b7e77c8e-2852-402e-b259-e00465452f04, .bb1c622d-b657-42e4-9035-7768d79b2b88 {
        stroke: #00a8e1;
      }

      .acafc07e-69c4-4e5a-b883-a7b27cd773bb, .b79694f6-bcc8-442d-9e8b-ea6cc25230b0 {
        stroke: #73c06b;
      }

      .b79694f6-bcc8-442d-9e8b-ea6cc25230b0, .b7e77c8e-2852-402e-b259-e00465452f04 {
        stroke-miterlimit: 10;
      }

      .e586c9e3-e545-426f-bf98-ffa2792c06cd {
        isolation: isolate;
      }
    </style>
  </defs>
  <title>rocket</title>
  <g>
    <line class="b0843216-ad2b-4538-adb4-b68fa97590b3" x1="96.284" y1="106.315" x2="50.179" y2="152.268"/>
    <line class="bb1c622d-b657-42e4-9035-7768d79b2b88" x1="103.342" y1="99.28" x2="122.013" y2="80.671"/>
    <line class="bb1c622d-b657-42e4-9035-7768d79b2b88" x1="106.943" y1="122.155" x2="74.623" y2="154.368"/>
    <line class="acafc07e-69c4-4e5a-b883-a7b27cd773bb" x1="74.435" y1="166.947" x2="103.912" y2="137.568"/>
    <line class="b0843216-ad2b-4538-adb4-b68fa97590b3" x1="122.408" y1="133.077" x2="100.445" y2="154.968"/>
    <line class="acafc07e-69c4-4e5a-b883-a7b27cd773bb" x1="98.703" y1="90.168" x2="66.797" y2="121.968"/>
    <line class="acafc07e-69c4-4e5a-b883-a7b27cd773bb" x1="33.688" y1="154.968" x2="59.574" y2="129.168"/>
    <line class="bb1c622d-b657-42e4-9035-7768d79b2b88" x1="43.354" y1="120.734" x2="1.957" y2="161.994"/>
    <line class="acafc07e-69c4-4e5a-b883-a7b27cd773bb" x1="66.948" y1="109.218" x2="2.799" y2="173.155"/>
    <line class="acafc07e-69c4-4e5a-b883-a7b27cd773bb" x1="111.706" y1="104.207" x2="59.988" y2="155.755"/>
    <g>
      <g>
        <path class="b79694f6-bcc8-442d-9e8b-ea6cc25230b0" d="M148.955,39.509a1.742,1.742,0,0,0-.235.112l-5.157,3.693a1.763,1.763,0,0,0-.249.215,1.8,1.8,0,0,0,.048,2.545l13.755,13.25a1.775,1.775,0,0,0,.307.238,1.8,1.8,0,0,0,2.476-.593l3.329-5.426a1.663,1.663,0,0,0,.072-.181"/>
        <path class="b79694f6-bcc8-442d-9e8b-ea6cc25230b0" d="M160.7,23.276l-.01-.014a1.8,1.8,0,0,0-.849-.534L154.166,21.1a1.8,1.8,0,0,0-1.473.22l-9.154,5.924a1.8,1.8,0,0,0,.065,3.062l5.616,3.3"/>
        <path class="b79694f6-bcc8-442d-9e8b-ea6cc25230b0" d="M168.967,54.368l3.615,5.4a1.8,1.8,0,0,0,3.04-.077l5.639-9.418a1.8,1.8,0,0,0,.168-1.481l-2.024-6.222a1.8,1.8,0,0,0-.477-.73"/>
      </g>
      <ellipse class="b7e77c8e-2852-402e-b259-e00465452f04" cx="172.913" cy="29.513" rx="4.921" ry="4.971" transform="translate(31.569 133.396) rotate(-46.001)"/>
      <path class="b79694f6-bcc8-442d-9e8b-ea6cc25230b0" d="M193.257,21.534a13.484,13.484,0,0,1-13.3-13.395"/>
      <g class="e586c9e3-e545-426f-bf98-ffa2792c06cd">
        <path class="b79694f6-bcc8-442d-9e8b-ea6cc25230b0" d="M197.137,3.945c2.346,2.522-.3,10.364-2.982,15.893Q189.87,28.67,168.171,55.35h0a1.8,1.8,0,0,1-2.532.261c-.04-.032-.078-.066-.115-.1L147.33,37.94a1.8,1.8,0,0,1-.044-2.546c.023-.024.048-.048.073-.072Q171.771,12.78,180.148,8.029C186.868,4.217,194.228,1.11,197.137,3.945Z"/>
      </g>
    </g>
  </g>
</svg>
