<?xml version="1.0" encoding="utf-8"?>
<!-- Generator: Adobe Illustrator 23.0.2, SVG Export Plug-In . SVG Version: 6.00 Build 0)  -->
<svg version="1.1" id="Layer_1" xmlns="http://www.w3.org/2000/svg" xmlns:xlink="http://www.w3.org/1999/xlink" x="0px" y="0px"
	 viewBox="0 0 824.6 753.9" style="enable-background:new 0 0 824.6 753.9;" xml:space="preserve">
<style type="text/css">
	.st0{opacity:0.5;fill:#91CAE6;enable-background:new    ;}
	.st1{fill:none;stroke:#00A8E1;stroke-width:4;stroke-linecap:round;stroke-linejoin:round;}
	.st2{fill:none;stroke:#73C06B;stroke-width:5;stroke-linecap:round;stroke-linejoin:round;}
	.st3{fill:none;stroke:#73C06B;stroke-width:5;stroke-linejoin:round;}
</style>
<title>section-7-playful</title>
<g>
	<g id="b3baedcb-1af0-47ba-a5ae-8ffec5475ef8">
		<path class="st0" d="M346.1,286.7v-32.8L191,195V88.5c0-9.9-8-18-17.9-18v0h0h0l0,0v0c-9.9,0.1-17.9,8.1-17.9,18V195L0,253.9v32.8
			l155.1-37.1v120.2l-40.4,29.5v23l58.4-13.4l58.4,13.4v-23L191,369.9V249.6L346.1,286.7z"/>
		<path class="st0" d="M791.9,438.5h-2c-13.4,0-25.5,8.3-30.4,20.8H657.3c-4.9-12.5-17-20.7-30.4-20.8h-2
			c-18,0.1-32.6,14.7-32.7,32.7v106.7c0.1,18,14.7,32.6,32.7,32.7h2c12.7,0,24.2-7.4,29.6-18.9l18.1-52h67.7l7.9,22.8l10.2,29.2
			c5.4,11.5,16.9,18.8,29.6,18.9h2c18-0.1,32.6-14.7,32.7-32.7V471.2C824.5,453.2,809.9,438.6,791.9,438.5z"/>
		<path class="st0" d="M376.3,486.2c-66,0-125.5,39.8-150.7,100.8c34.4,83.3,129.9,122.8,213.1,88.4c40-16.6,71.8-48.4,88.4-88.4
			C501.8,526,442.3,486.2,376.3,486.2z M376.3,657.2c-38.8,0-70.3-31.5-70.3-70.3c0-38.8,31.5-70.3,70.3-70.3
			c38.8,0,70.3,31.5,70.3,70.3S415.1,657.2,376.3,657.2L376.3,657.2z"/>
		<polygon class="st0" points="681.1,49 577.7,49 537.6,89 497.4,49 394,49 345.1,49 345.1,134.3 419.2,134.3 419.2,400.8 
			423.5,400.8 651.7,400.8 655.9,400.8 655.9,134.3 731,134.3 731,49 		"/>
		<path class="st1" d="M427.3,601.5c-2.3,0-4.2,1.9-4.2,4.2l0,0v39.7h0v-39.7c0-2.3-1.9-4.2-4.2-4.2s-4.2,1.9-4.2,4.2v39.7l0,0
			v-39.7c0-2.3-1.9-4.2-4.2-4.2s-4.2,1.9-4.2,4.2v45.8l6.8,4.5v90.1c0,3.2,2.7,5.8,5.9,5.7c3.1,0,5.7-2.6,5.7-5.7V656l6.8-4.5v-45.8
			C431.5,603.4,429.6,601.5,427.3,601.5C427.3,601.5,427.3,601.5,427.3,601.5z"/>
		<path class="st1" d="M442.9,618.6v44.7l5.6,13.6v69.3c0,3.2,2.7,5.8,5.9,5.7c3.1,0,5.7-2.6,5.7-5.7V601.4
			C450.6,601.4,442.9,609.1,442.9,618.6C442.9,618.6,442.9,618.6,442.9,618.6z"/>
		<g>
			<path class="st1" d="M420.4,189.2c11.5-13.1,30.8-20.6,47.7-13.8c13.4,5.5,23.9,21.4,27.5,35.1c5.2,19.7-2.9,36.3-15.7,51.4"/>
			<path class="st1" d="M491.9,173.1c-23.2-21.9-50.5-18.9-72.6-2.5"/>
			<path class="st1" d="M453,262c8.7-6.1,17.1-11.1,22.8-20.3c5.2-8.3,7.7-18.5,4.8-28.1c-4.3-14.5-16.3-26.2-32.1-23.6
				c-6,1-11.5,3.8-15.8,8.1c-3.8,3.9-7.5,8.8-13.5,8.8"/>
			<path class="st1" d="M431.5,263.3c0,0,0.1-10,9.9-13.8s21.3-13.5,24.6-23.7c2.3-7.3-3.4-17-10.2-19.1
				c-9.2-2.9-14.8,5.5-21.3,10.2c-3.6,2.6-9.8,6.1-14.3,6.1"/>
			<path class="st1" d="M451.3,222.2c-3.7,4.1-8,7.7-12.7,10.6c-5.8,3.8-16.3,7.3-17.2,15.5"/>
		</g>
		<g>
			<path class="st1" d="M48.6,472.9c-10,10-7.9,28.5,4.7,41l60.2,60.2c12.6,12.6,31.1,14.7,41,4.7s7.9-28.5-4.7-41l-60.2-60.2
				C77.1,465.1,58.6,463,48.6,472.9z"/>
			<line class="st1" x1="144.1" y1="549.3" x2="144.1" y2="549.3"/>
			<line class="st1" x1="134.6" y1="558.9" x2="134.6" y2="558.9"/>
			<line class="st1" x1="125" y1="568.4" x2="125" y2="568.4"/>
			<line class="st1" x1="137.1" y1="542.3" x2="137.1" y2="542.3"/>
			<line class="st1" x1="127.5" y1="551.8" x2="127.5" y2="551.8"/>
			<line class="st1" x1="118" y1="561.4" x2="118" y2="561.4"/>
			<line class="st1" x1="130" y1="535.2" x2="130" y2="535.2"/>
			<line class="st1" x1="120.4" y1="544.7" x2="120.4" y2="544.7"/>
			<line class="st1" x1="110.9" y1="554.3" x2="110.9" y2="554.3"/>
			<line class="st1" x1="89.9" y1="495.1" x2="89.9" y2="495.1"/>
			<line class="st1" x1="80.3" y1="504.6" x2="80.3" y2="504.6"/>
			<line class="st1" x1="70.8" y1="514.2" x2="70.8" y2="514.2"/>
			<line class="st1" x1="82.8" y1="488" x2="82.8" y2="488"/>
			<line class="st1" x1="73.3" y1="497.6" x2="73.3" y2="497.6"/>
			<line class="st1" x1="63.7" y1="507.1" x2="63.7" y2="507.1"/>
			<line class="st1" x1="75.7" y1="481" x2="75.7" y2="481"/>
			<line class="st1" x1="66.2" y1="490.5" x2="66.2" y2="490.5"/>
			<line class="st1" x1="56.7" y1="500.1" x2="56.7" y2="500.1"/>
			<line class="st1" x1="122.9" y1="528.1" x2="122.9" y2="528.1"/>
			<line class="st1" x1="113.4" y1="537.7" x2="113.4" y2="537.7"/>
			<line class="st1" x1="103.8" y1="547.2" x2="103.8" y2="547.2"/>
			<line class="st1" x1="97" y1="540.4" x2="116.1" y2="521.3"/>
			<line class="st1" x1="106.6" y1="530.9" x2="106.6" y2="530.9"/>
			<line class="st1" x1="97" y1="540.4" x2="97" y2="540.4"/>
			<line class="st1" x1="90.7" y1="534.1" x2="109.8" y2="515"/>
		</g>
		<g>
			<polyline class="st1" points="322.1,25 345.1,2 368.1,25 			"/>
			<polyline class="st1" points="322.1,49.6 345.1,26.6 368.1,49.6 			"/>
			<polyline class="st1" points="322.1,74.1 345.1,51.1 368.1,74.1 			"/>
			<polyline class="st1" points="322.1,98.7 345.1,75.7 368.1,98.7 			"/>
		</g>
		<line class="st1" x1="769.1" y1="349.3" x2="786.6" y2="349.3"/>
		<line class="st1" x1="769.1" y1="358.4" x2="786.6" y2="358.4"/>
		<polygon class="st1" points="820.2,397.8 735.5,397.8 735.5,346.5 777.8,310.5 820.2,346.5 		"/>
		<polyline class="st1" points="796.9,365.3 796.9,339.4 758.8,339.4 758.8,365.3 		"/>
		<polyline class="st1" points="820.2,346.5 777.8,382.4 735.5,346.5 		"/>
		<g>
			<line class="st2" x1="242.2" y1="334.9" x2="318.4" y2="334.9"/>
			<path class="st2" d="M378.2,255v-92.3c0-6.1-5-11.1-11.1-11.1H199.7c-6.1,0-11.1,5-11.1,11.1V255c-63.2,52.4-72,146.1-19.6,209.3
				c5.9,7.1,12.5,13.7,19.6,19.6v92.3c0,6.1,5,11.1,11.1,11.1h167.5c6.1,0,11.1-5,11.1-11.1v-92.3c63.2-52.4,72-146.1,19.7-209.3
				C392,267.5,385.4,260.9,378.2,255L378.2,255z M287.1,482.5c-62.5,2-114.7-46.9-116.8-109.4c-0.1-2.5-0.1-4.9,0-7.4
				c1.9-59.2,50.1-107.5,109.4-109.4c62.5-2,114.7,46.9,116.8,109.4c0.1,2.5,0.1,4.9,0,7.4C394.6,432.4,346.3,480.6,287.1,482.5z"/>
			<path class="st2" d="M342.1,427.8l-23.6-22.4c-1.7-1.6-3.9-2.5-6.3-2.5h-84.9c-5,0-9.1-4.1-9.1-9.1l0,0V316c0-5,4.1-9.1,9.1-9.1
				l0,0h112.2c5,0,9.1,4.1,9.1,9.1V425c0,2.1-1.7,3.9-3.9,3.9C343.7,428.8,342.8,428.4,342.1,427.8z"/>
			<path class="st3" d="M251.4,380.4h241v295.1c0,38.1,30.9,69,69,69l0,0c38.1,0,69-30.9,69-69v-52.1"/>
			<line class="st2" x1="242.2" y1="380.4" x2="318.4" y2="380.4"/>
			<line class="st2" x1="242.2" y1="365.2" x2="318.4" y2="365.2"/>
			<line class="st2" x1="242.2" y1="350.1" x2="318.4" y2="350.1"/>
		</g>
		<g>
			<circle class="st2" cx="630.5" cy="598.4" r="9"/>
			<path class="st2" d="M562.2,343.2H699c5.5,0,10,4.5,10,10v257.7c0,5.5-4.5,10-10,10H562.2c-5.5,0-10-4.5-10-10V353.2
				C552.2,347.7,556.7,343.2,562.2,343.2z"/>
			<rect x="566.7" y="359.4" class="st2" width="127.8" height="210"/>
			<line class="st2" x1="604.7" y1="521.9" x2="604.7" y2="458.1"/>
			<line class="st2" x1="617.6" y1="521.9" x2="617.6" y2="468.9"/>
			<line class="st2" x1="630.5" y1="521.9" x2="630.5" y2="447.6"/>
			<line class="st2" x1="643.4" y1="521.9" x2="643.4" y2="430.7"/>
			<line class="st2" x1="656.3" y1="521.9" x2="656.3" y2="412.8"/>
			<line class="st2" x1="669.2" y1="521.9" x2="669.2" y2="404"/>
			<line class="st2" x1="591.8" y1="521.9" x2="591.8" y2="475.1"/>
			<line class="st2" x1="630.5" y1="343.2" x2="630.5" y2="261.8"/>
			<polyline class="st2" points="592.1,293.8 630.6,255.3 669.2,293.8 			"/>
		</g>
		<g>
			<path class="st2" d="M626.5,164.3c4.5,5.5,12.6,6.4,18.1,1.9c0.8-0.6,1.5-1.4,2.1-2.2"/>
			<path class="st2" d="M676.9,113.3v30.4c0,24.8-18.1,45-40.5,45s-40.5-20.1-40.5-45v-28c0-1.5,0.1-3,0.2-4.5"/>
			<path class="st2" d="M719.9,243.8v-18.5c0-9.8-6.8-18.3-16.4-20.5l-45.1-4.9l0,0v-18.3"/>
			<path class="st2" d="M614.5,182.5v17.3l0,0l-45.1,4.9c-9.6,2.2-16.3,10.7-16.4,20.5v18.5"/>
			<line class="st2" x1="636.4" y1="225.3" x2="658.4" y2="199.9"/>
			<line class="st2" x1="614.5" y1="199.9" x2="636.4" y2="225.3"/>
			<path class="st2" d="M596,77.2v33.7c0,0,4,0.3,9.9,0.1c13.2-0.3,36-2.7,47.5-14.1c0,0,6.8,16.5,23.5,16.5v-11.4
				c0-9.3-6.5-19.4-14.3-22.8c-2.9-1.3-6-2-9.2-2H596L596,77.2z"/>
			<line class="st2" x1="620.8" y1="131.9" x2="620.8" y2="131.9"/>
			<line class="st2" x1="652.3" y1="131.9" x2="652.3" y2="131.9"/>
			<polygon class="st2" points="695.3,102.9 716.2,83.2 778.3,83.2 778.3,22.1 695.3,22.1 			"/>
		</g>
	</g>
</g>
</svg>
