<svg width="400" height="482" xmlns="http://www.w3.org/2000/svg">
 <defs>
  <style>.a0cfa51a-cee2-40e5-964c-2aedcf2f5b77, .afcb01ce-f729-4ad7-b76a-e2e7a5bbde68, .bfac3832-6fa2-40f4-a78f-465b5d598854, .f484034d-5463-486f-b433-31e91436dcc5 {
        fill: none;
        stroke-linecap: round;
        stroke-linejoin: round;
        stroke-width: 20px;
      }

      .f484034d-5463-486f-b433-31e91436dcc5 {
        stroke: #004ba5;
      }

      .afcb01ce-f729-4ad7-b76a-e2e7a5bbde68, .bfac3832-6fa2-40f4-a78f-465b5d598854 {
        stroke: #00a8e1;
      }

      .bfac3832-6fa2-40f4-a78f-465b5d598854 {
        stroke-dasharray: 0 8;
      }

      .a0cfa51a-cee2-40e5-964c-2aedcf2f5b77 {
        stroke: #73c06b;
      }</style>
 </defs>
 <title>stack-integration</title>
 <g>
  <title>background</title>
  <rect fill="none" id="canvas_background" height="484" width="402" y="-1" x="-1"/>
 </g>
 <g>
  <title>Layer 1</title>
  <polyline id="svg_1" points="344.3190002441406,177.55599975585938 360,177.55599975585938 360,79.55599975585938 43,79.55599975585938 43,87.43099975585938 " class="f484034d-5463-486f-b433-31e91436dcc5"/>
  <polyline id="svg_2" points="232,177.55599975585938 43,177.55599975585938 43,139.55599975585938 " class="f484034d-5463-486f-b433-31e91436dcc5"/>
  <path stroke="null" id="svg_3" d="m360.41,129.161005a39.5,19.531965 0 0 0 39.5,-19.531965l0,-107.62904" class="bfac3832-6fa2-40f4-a78f-465b5d598854"/>
  <path id="svg_4" d="m220.91,104.042l0,-24.362c0,-13.4 -10.746,-24.361 -23.879,-24.361s-23.879,10.963 -23.879,24.361l0,24.362" class="afcb01ce-f729-4ad7-b76a-e2e7a5bbde68"/>
  <path id="svg_5" d="m162.552,129.161l0,-22.585a2.541,2.541 0 0 1 2.534,-2.533l63.89,0a2.541,2.541 0 0 1 2.534,2.533l0,54.8a2.542,2.542 0 0 1 -2.534,2.534l-63.89,0a2.542,2.542 0 0 1 -2.534,-2.534l0,-21.657" class="afcb01ce-f729-4ad7-b76a-e2e7a5bbde68"/>
  <path id="svg_6" d="m189.325,149.389l15.413,0l-3.015,-14.784l-0.777,-3.817a6.744,6.744 0 1 0 -7.829,0l-3.792,18.6" class="a0cfa51a-cee2-40e5-964c-2aedcf2f5b77"/>
  <line id="svg_7" y2="111.664" x2="309.408" y1="177.138" x1="309.408" class="f484034d-5463-486f-b433-31e91436dcc5"/>
  <line id="svg_8" y2="102.299" x2="321.018" y1="177.138" x1="321.018" class="f484034d-5463-486f-b433-31e91436dcc5"/>
  <line id="svg_9" y2="125.031" x2="297.121" y1="177.138" x1="297.121" class="f484034d-5463-486f-b433-31e91436dcc5"/>
  <line id="svg_10" y2="136.925" x2="284.833" y1="177.138" x1="284.833" class="f484034d-5463-486f-b433-31e91436dcc5"/>
  <line id="svg_11" y2="147.202" x2="272.546" y1="177.138" x1="272.546" class="f484034d-5463-486f-b433-31e91436dcc5"/>
  <line id="svg_12" y2="224.249" x2="288.467" y1="224.249" x1="305.097" class="afcb01ce-f729-4ad7-b76a-e2e7a5bbde68"/>
  <path id="svg_13" d="m323.638,20.918a40.766,40.766 0 0 0 -50.045,0" class="a0cfa51a-cee2-40e5-964c-2aedcf2f5b77"/>
  <path id="svg_14" d="m317.867,31.2a29.169,29.169 0 0 0 -38.5,0" class="a0cfa51a-cee2-40e5-964c-2aedcf2f5b77"/>
  <path id="svg_15" d="m285.236,41.663a17.623,17.623 0 0 1 26.759,0" class="a0cfa51a-cee2-40e5-964c-2aedcf2f5b77"/>
  <path id="svg_16" d="m342.791,220.238a20.641,20.641 0 0 1 -20.641,20.641l-50.75,0a20.64,20.64 0 0 1 -20.64,-20.624l-0.114,-139.989" class="afcb01ce-f729-4ad7-b76a-e2e7a5bbde68"/>
  <line id="svg_17" y2="255.066" x2="101.209" y1="224.787" x1="113.171" class="afcb01ce-f729-4ad7-b76a-e2e7a5bbde68"/>
  <line id="svg_18" y2="369.786" x2="101.154" y1="347.633" x1="101.154" class="a0cfa51a-cee2-40e5-964c-2aedcf2f5b77"/>
  <rect id="svg_19" height="22.152" width="28.577" y="347.633" x="86.866" class="a0cfa51a-cee2-40e5-964c-2aedcf2f5b77"/>
  <line id="svg_20" y2="414.979" x2="101.154" y1="392.826" x1="101.154" class="f484034d-5463-486f-b433-31e91436dcc5"/>
  <rect id="svg_21" height="22.152" width="28.577" y="392.826" x="86.866" class="f484034d-5463-486f-b433-31e91436dcc5"/>
  <rect id="svg_22" height="22.152" width="12.941" y="347.633" x="133.755" class="f484034d-5463-486f-b433-31e91436dcc5"/>
  <path stroke="null" id="svg_23" d="m4.013,470.999996l0,-69.105439a39.5,20.776551 0 0 1 39.5,-20.776551l172.487,0" class="bfac3832-6fa2-40f4-a78f-465b5d598854"/>
  <rect id="svg_24" height="37.03" width="19.34" y="392.826" x="130.555" class="f484034d-5463-486f-b433-31e91436dcc5"/>
  <polyline id="svg_25" points="128.08799743652344,303.99200439453125 43,303.99200439453125 43,206.28900146484375 360.4100036621094,206.28900146484375 360,244.01400756835938 " class="f484034d-5463-486f-b433-31e91436dcc5"/>
  <path id="svg_26" d="m190.207,451.237l-7.547,0l0,-15.9c0,-26.588 28.175,-26.824 28.175,-26.824l5.55,0c31.041,0.5 51.643,21.44 51.643,36.762l0,5.966l-7.283,0" class="f484034d-5463-486f-b433-31e91436dcc5"/>
  <path id="svg_27" d="m216.385,408.509c31.04,0.5 51.643,21.44 51.643,36.762l0,5.966l-7.284,0" class="f484034d-5463-486f-b433-31e91436dcc5"/>
  <line id="svg_28" y2="451.915" x2="206.396" y1="451.915" x1="244.691" class="f484034d-5463-486f-b433-31e91436dcc5"/>
  <line id="svg_29" y2="451.915" x2="214.807" y1="451.915" x1="244.691" class="f484034d-5463-486f-b433-31e91436dcc5"/>
  <circle id="svg_30" transform="rotate(-89.81999969482422 -381.3580017089844,645.4270019531249) " r="8.144" cy="1224.422002" cx="-184.104002" class="f484034d-5463-486f-b433-31e91436dcc5"/>
  <polyline id="svg_31" points="169.69500732421875,429.85601806640625 252.8990020751953,429.85601806640625 360.4100036621094,429.97198486328125 " class="f484034d-5463-486f-b433-31e91436dcc5"/>
  <circle id="svg_32" transform="rotate(-89.81999969482422 -327.1809997558592,699.7739868164064) " r="8.144" cy="1278.768987" cx="-75.58" class="f484034d-5463-486f-b433-31e91436dcc5"/>
  <line id="svg_33" y2="451.915" x2="214.807" y1="408.509" x1="214.807" class="f484034d-5463-486f-b433-31e91436dcc5"/>
  <polyline id="svg_34" points="169.69200134277344,302.4389953613281 169.6909942626953,254.59799194335938 188.8209991455078,238.36700439453125 " class="f484034d-5463-486f-b433-31e91436dcc5"/>
  <polyline id="svg_35" points="59.30699920654297,332.2669982910156 43,332.2669982910156 43,429.85601806640625 69.33999633789062,429.85601806640625 " class="f484034d-5463-486f-b433-31e91436dcc5"/>
  <line id="svg_36" y2="429.856" x2="169.695" y1="303.992" x1="169.692" class="f484034d-5463-486f-b433-31e91436dcc5"/>
  <line id="svg_37" y2="429.856" x2="69.341" y1="429.856" x1="169.695" class="f484034d-5463-486f-b433-31e91436dcc5"/>
  <polyline id="svg_38" points="226.302001953125,233.85299682617188 210.2209930419922,220.20901489257812 194.13999938964844,233.85299682617188 " class="afcb01ce-f729-4ad7-b76a-e2e7a5bbde68"/>
  <line id="svg_39" y2="258.279" x2="219.674" y1="258.279" x1="200.768" class="a0cfa51a-cee2-40e5-964c-2aedcf2f5b77"/>
  <line id="svg_40" y2="249.067" x2="219.674" y1="249.067" x1="200.768" class="a0cfa51a-cee2-40e5-964c-2aedcf2f5b77"/>
  <path id="svg_41" d="m43,129.161l0,-24.214c0,-5.75 4.171,-10.412 9.921,-10.412a10.411,10.411 0 0 1 10.41,10.412l0,48.553a10.411,10.411 0 0 0 20.822,0l0,-48.553a10.411,10.411 0 1 1 20.822,0l0,15.63l0.036,8.644l0,24.279a10.411,10.411 0 0 0 10.411,10.411" class="a0cfa51a-cee2-40e5-964c-2aedcf2f5b77"/>
  <path id="svg_42" d="m115.268,163.907l0,0a10.411,10.411 0 0 0 10.411,-10.407l0,-24.339l36.873,0" class="a0cfa51a-cee2-40e5-964c-2aedcf2f5b77"/>
  <line id="svg_43" y2="129.161" x2="162.552" y1="129.161" x1="125.679" class="afcb01ce-f729-4ad7-b76a-e2e7a5bbde68"/>
  <path id="svg_44" d="m73.742,163.907a10.411,10.411 0 0 0 10.411,-10.407l0,-48.553a10.411,10.411 0 0 1 10.41,-10.412" class="afcb01ce-f729-4ad7-b76a-e2e7a5bbde68"/>
  <path id="svg_45" d="m73.742,163.907a10.411,10.411 0 0 0 10.411,-10.407l0,-48.553a10.411,10.411 0 1 1 20.822,0l0,15.629l0.036,8.646l0,24.278a10.411,10.411 0 0 0 10.411,10.411" class="a0cfa51a-cee2-40e5-964c-2aedcf2f5b77"/>
  <path id="svg_46" d="m73.742,163.907a10.411,10.411 0 0 0 10.411,-10.407l0,-48.553a10.411,10.411 0 0 1 10.41,-10.412" class="a0cfa51a-cee2-40e5-964c-2aedcf2f5b77"/>
  <path id="svg_47" d="m43,129.161l-0.49,0a39.5,39.5 0 0 0 -39.5,39.5l0,46.983a39.5,39.5 0 0 0 39.5,39.5l25.49,0" class="afcb01ce-f729-4ad7-b76a-e2e7a5bbde68"/>
  <path id="svg_48" d="m15.637,139.712a39.391,39.391 0 0 0 -12.624,28.947l0,46.983a39.5,39.5 0 0 0 39.5,39.5" class="afcb01ce-f729-4ad7-b76a-e2e7a5bbde68"/>
  <line id="svg_49" y2="267.46" x2="288.505" y1="267.46" x1="360" class="f484034d-5463-486f-b433-31e91436dcc5"/>
  <line id="svg_50" y2="279.586" x2="360" y1="279.586" x1="288.505" class="f484034d-5463-486f-b433-31e91436dcc5"/>
  <line id="svg_51" y2="291.797" x2="288.505" y1="291.797" x1="360" class="f484034d-5463-486f-b433-31e91436dcc5"/>
  <line id="svg_52" y2="255.14" x2="265" y1="255.14" x1="360.358" class="a0cfa51a-cee2-40e5-964c-2aedcf2f5b77"/>
  <path id="svg_53" d="m113.171,224.787a32.466,32.466 0 0 0 -11.962,-2.269l0,0a32.548,32.548 0 1 0 32.547,32.548l0,0a32.587,32.587 0 0 0 -1.179,-8.711l-0.7,-2.372" class="afcb01ce-f729-4ad7-b76a-e2e7a5bbde68"/>
  <path id="svg_54" d="m250.751,80.266l0,-4.3a20.642,20.642 0 0 1 20.643,-20.643l45.843,0" class="afcb01ce-f729-4ad7-b76a-e2e7a5bbde68"/>
  <polyline id="svg_55" points="157.12600708007812,335.5989990234375 119.51599884033203,318.2959899902344 69.33999633789062,344.0690002441406 69.33999633789062,429.85601806640625 " class="f484034d-5463-486f-b433-31e91436dcc5"/>
  <polyline id="svg_56" points="293.57000732421875,393.52899169921875 317.59100341796875,376.5270080566406 293.57000732421875,359.5249938964844 293.57000732421875,393.52899169921875 " class="a0cfa51a-cee2-40e5-964c-2aedcf2f5b77"/>
  <polyline id="svg_57" points="344.3190002441406,177.55599975585938 360,177.55599975585938 360,79.55599975585938 242.06199645996094,79.55599975585938 " class="f484034d-5463-486f-b433-31e91436dcc5"/>
  <polygon id="svg_58" points="311.8089904785156,344.5820007324219 360,344.5820007324219 360,407.90301513671875 250.75100708007812,407.90301513671875 250.75100708007812,344.5820007324219 311.8089904785156,344.5820007324219 " class="afcb01ce-f729-4ad7-b76a-e2e7a5bbde68"/>
  <path id="svg_59" d="m276.2,55.319l45.95,0a20.641,20.641 0 0 1 20.641,20.642l0,130.327" class="afcb01ce-f729-4ad7-b76a-e2e7a5bbde68"/>
  <line id="svg_60" y2="416.414" x2="320.119" y1="416.414" x1="291.042" class="afcb01ce-f729-4ad7-b76a-e2e7a5bbde68"/>
  <path id="svg_61" d="m360.358,381.12l0,0a39.5,39.5 0 0 0 39.5,-39.5l0,-46.981a39.5,39.5 0 0 0 -39.5,-39.5" class="a0cfa51a-cee2-40e5-964c-2aedcf2f5b77"/>
  <path id="svg_62" d="m360,332.267l-152.417,0a6.062,6.062 0 0 0 -6.063,6.048l0,0.188a6.062,6.062 0 0 0 6.062,6.079l21.909,0a6.064,6.064 0 0 1 6.063,6.063l0,0.085a6.064,6.064 0 0 1 -6.063,6.063l-21.924,0a6.063,6.063 0 0 0 -0.762,12.079l6.827,0.047l15.859,0a6.064,6.064 0 0 1 6.063,6.064l0,0.084a6.064,6.064 0 0 1 -6.063,6.064l-14.684,0l0,17.31" class="f484034d-5463-486f-b433-31e91436dcc5"/>
  <line id="svg_63" y2="303.992" x2="124.691" y1="303.992" x1="250.642" class="f484034d-5463-486f-b433-31e91436dcc5"/>
  <polyline id="svg_64" points="360,304.00299072265625 250.75100708007812,303.99200439453125 250.75100708007812,254.59799194335938 231.62100219726562,238.36700439453125 " class="afcb01ce-f729-4ad7-b76a-e2e7a5bbde68"/>
  <polyline id="svg_65" points="231.62100219726562,269.65301513671875 231.62100219726562,234.302001953125 188.8209991455078,234.302001953125 188.8209991455078,269.65301513671875 " class="a0cfa51a-cee2-40e5-964c-2aedcf2f5b77"/>
  <path id="svg_66" d="m153.215,236.064l-52.007,19l21.367,-53.94s22.425,13.432 30.64,34.94z" class="a0cfa51a-cee2-40e5-964c-2aedcf2f5b77"/>
  <polyline id="svg_67" points="250.75100708007812,254.59799194335938 210.2209930419922,288.989013671875 169.6909942626953,254.59799194335938 " class="afcb01ce-f729-4ad7-b76a-e2e7a5bbde68"/>
  <line id="svg_68" y2="206.289" x2="360" y1="206.289" x1="300.599" class="f484034d-5463-486f-b433-31e91436dcc5"/>
 </g>
</svg>