<svg id="a7ed51d9-e672-4089-a7eb-c91ca8030f3f" data-name="Layer 1" xmlns="http://www.w3.org/2000/svg" viewBox="0 0 400 684">
  <defs>
    <style>
      .a0cfa51a-cee2-40e5-964c-2aedcf2f5b77, .afcb01ce-f729-4ad7-b76a-e2e7a5bbde68, .bfac3832-6fa2-40f4-a78f-465b5d598854, .f484034d-5463-486f-b433-31e91436dcc5 {
        fill: none;
        stroke-linecap: round;
        stroke-linejoin: round;
        stroke-width: 2px;
      }

      .f484034d-5463-486f-b433-31e91436dcc5 {
        stroke: #004ba5;
      }

      .afcb01ce-f729-4ad7-b76a-e2e7a5bbde68, .bfac3832-6fa2-40f4-a78f-465b5d598854 {
        stroke: #00a8e1;
      }

      .bfac3832-6fa2-40f4-a78f-465b5d598854 {
        stroke-dasharray: 0 8;
      }

      .a0cfa51a-cee2-40e5-964c-2aedcf2f5b77 {
        stroke: #73c06b;
      }
    </style>
  </defs>
  <title>stack-integration</title>
  <polyline class="f484034d-5463-486f-b433-31e91436dcc5" points="343.319 306.556 359 306.556 359 208.556 42 208.556 42 216.431"/>
  <polyline class="f484034d-5463-486f-b433-31e91436dcc5" points="231 306.556 42 306.556 42 268.556"/>
  <path class="bfac3832-6fa2-40f4-a78f-465b5d598854" d="M359.41,258.161a39.5,39.5,0,0,0,39.5-39.5V1"/>
  <path class="afcb01ce-f729-4ad7-b76a-e2e7a5bbde68" d="M219.91,233.042V208.68c0-13.4-10.746-24.361-23.879-24.361s-23.879,10.963-23.879,24.361v24.362"/>
  <path class="afcb01ce-f729-4ad7-b76a-e2e7a5bbde68" d="M161.552,258.161V235.576a2.541,2.541,0,0,1,2.534-2.533h63.89a2.541,2.541,0,0,1,2.534,2.533v54.8a2.542,2.542,0,0,1-2.534,2.534h-63.89a2.542,2.542,0,0,1-2.534-2.534V268.719"/>
  <path class="a0cfa51a-cee2-40e5-964c-2aedcf2f5b77" d="M188.325,278.389h15.413l-3.015-14.784-.777-3.817a6.744,6.744,0,1,0-7.829,0l-3.792,18.6"/>
  <line class="f484034d-5463-486f-b433-31e91436dcc5" x1="308.408" y1="306.138" x2="308.408" y2="240.664"/>
  <line class="f484034d-5463-486f-b433-31e91436dcc5" x1="320.018" y1="306.138" x2="320.018" y2="231.299"/>
  <line class="f484034d-5463-486f-b433-31e91436dcc5" x1="296.121" y1="306.138" x2="296.121" y2="254.031"/>
  <line class="f484034d-5463-486f-b433-31e91436dcc5" x1="283.833" y1="306.138" x2="283.833" y2="265.925"/>
  <line class="f484034d-5463-486f-b433-31e91436dcc5" x1="271.546" y1="306.138" x2="271.546" y2="276.202"/>
  <line class="afcb01ce-f729-4ad7-b76a-e2e7a5bbde68" x1="304.097" y1="353.249" x2="287.467" y2="353.249"/>
  <path class="a0cfa51a-cee2-40e5-964c-2aedcf2f5b77" d="M322.638,149.918a40.766,40.766,0,0,0-50.045,0"/>
  <path class="a0cfa51a-cee2-40e5-964c-2aedcf2f5b77" d="M316.867,160.2a29.169,29.169,0,0,0-38.5,0"/>
  <path class="a0cfa51a-cee2-40e5-964c-2aedcf2f5b77" d="M284.236,170.663a17.623,17.623,0,0,1,26.759,0"/>
  <path class="afcb01ce-f729-4ad7-b76a-e2e7a5bbde68" d="M341.791,349.238a20.641,20.641,0,0,1-20.641,20.641H270.4a20.64,20.64,0,0,1-20.64-20.624l-.114-139.989"/>
  <line class="afcb01ce-f729-4ad7-b76a-e2e7a5bbde68" x1="112.171" y1="353.787" x2="100.209" y2="384.066"/>
  <line class="a0cfa51a-cee2-40e5-964c-2aedcf2f5b77" x1="100.154" y1="476.633" x2="100.154" y2="498.786"/>
  <rect class="a0cfa51a-cee2-40e5-964c-2aedcf2f5b77" x="85.866" y="476.633" width="28.577" height="22.152"/>
  <line class="f484034d-5463-486f-b433-31e91436dcc5" x1="100.154" y1="521.826" x2="100.154" y2="543.979"/>
  <rect class="f484034d-5463-486f-b433-31e91436dcc5" x="85.866" y="521.826" width="28.577" height="22.152"/>
  <rect class="f484034d-5463-486f-b433-31e91436dcc5" x="132.755" y="476.633" width="12.941" height="22.152"/>
  <path class="bfac3832-6fa2-40f4-a78f-465b5d598854" d="M2.013,681V549.618a39.5,39.5,0,0,1,39.5-39.5H214"/>
  <rect class="f484034d-5463-486f-b433-31e91436dcc5" x="129.555" y="521.826" width="19.34" height="37.03"/>
  <polyline class="f484034d-5463-486f-b433-31e91436dcc5" points="127.088 432.992 42 432.992 42 335.289 359.41 335.289 359 373.014"/>
  <path class="f484034d-5463-486f-b433-31e91436dcc5" d="M189.207,580.237H181.66v-15.9c0-26.588,28.175-26.824,28.175-26.824h5.55c31.041.5,51.643,21.44,51.643,36.762v5.966h-7.283"/>
  <path class="f484034d-5463-486f-b433-31e91436dcc5" d="M215.385,537.509c31.04.5,51.643,21.44,51.643,36.762v5.966h-7.284"/>
  <line class="f484034d-5463-486f-b433-31e91436dcc5" x1="243.691" y1="580.915" x2="205.396" y2="580.915"/>
  <line class="f484034d-5463-486f-b433-31e91436dcc5" x1="243.691" y1="580.915" x2="213.807" y2="580.915"/>
  <circle class="f484034d-5463-486f-b433-31e91436dcc5" cx="197.254" cy="578.995" r="8.144" transform="translate(-382.358 774.427) rotate(-89.82)"/>
  <polyline class="f484034d-5463-486f-b433-31e91436dcc5" points="168.695 558.856 251.899 558.856 359.41 558.972"/>
  <circle class="f484034d-5463-486f-b433-31e91436dcc5" cx="251.601" cy="578.995" r="8.144" transform="translate(-328.181 828.774) rotate(-89.82)"/>
  <line class="f484034d-5463-486f-b433-31e91436dcc5" x1="213.807" y1="537.509" x2="213.807" y2="580.915"/>
  <polyline class="f484034d-5463-486f-b433-31e91436dcc5" points="168.692 431.439 168.691 383.598 187.821 367.367"/>
  <polyline class="f484034d-5463-486f-b433-31e91436dcc5" points="58.307 461.267 42 461.267 42 558.856 68.34 558.856"/>
  <line class="f484034d-5463-486f-b433-31e91436dcc5" x1="168.692" y1="432.992" x2="168.695" y2="558.856"/>
  <line class="f484034d-5463-486f-b433-31e91436dcc5" x1="168.695" y1="558.856" x2="68.341" y2="558.856"/>
  <polyline class="afcb01ce-f729-4ad7-b76a-e2e7a5bbde68" points="225.302 362.853 209.221 349.209 193.14 362.853"/>
  <line class="a0cfa51a-cee2-40e5-964c-2aedcf2f5b77" x1="199.768" y1="387.279" x2="218.674" y2="387.279"/>
  <line class="a0cfa51a-cee2-40e5-964c-2aedcf2f5b77" x1="199.768" y1="378.067" x2="218.674" y2="378.067"/>
  <path class="a0cfa51a-cee2-40e5-964c-2aedcf2f5b77" d="M42,258.161V233.947c0-5.75,4.171-10.412,9.921-10.412a10.411,10.411,0,0,1,10.41,10.412V282.5a10.411,10.411,0,0,0,20.822,0V233.947a10.411,10.411,0,1,1,20.822,0v15.63l.036,8.644V282.5a10.411,10.411,0,0,0,10.411,10.411"/>
  <path class="a0cfa51a-cee2-40e5-964c-2aedcf2f5b77" d="M114.268,292.907h0A10.411,10.411,0,0,0,124.679,282.5V258.161h36.873"/>
  <line class="afcb01ce-f729-4ad7-b76a-e2e7a5bbde68" x1="124.679" y1="258.161" x2="161.552" y2="258.161"/>
  <path class="afcb01ce-f729-4ad7-b76a-e2e7a5bbde68" d="M72.742,292.907A10.411,10.411,0,0,0,83.153,282.5V233.947a10.411,10.411,0,0,1,10.41-10.412"/>
  <path class="a0cfa51a-cee2-40e5-964c-2aedcf2f5b77" d="M72.742,292.907A10.411,10.411,0,0,0,83.153,282.5V233.947a10.411,10.411,0,1,1,20.822,0v15.629l.036,8.646V282.5a10.411,10.411,0,0,0,10.411,10.411"/>
  <path class="a0cfa51a-cee2-40e5-964c-2aedcf2f5b77" d="M72.742,292.907A10.411,10.411,0,0,0,83.153,282.5V233.947a10.411,10.411,0,0,1,10.41-10.412"/>
  <path class="afcb01ce-f729-4ad7-b76a-e2e7a5bbde68" d="M42,258.161h-.49a39.5,39.5,0,0,0-39.5,39.5v46.983a39.5,39.5,0,0,0,39.5,39.5H67"/>
  <path class="afcb01ce-f729-4ad7-b76a-e2e7a5bbde68" d="M14.637,268.712A39.391,39.391,0,0,0,2.013,297.659v46.983a39.5,39.5,0,0,0,39.5,39.5"/>
  <line class="f484034d-5463-486f-b433-31e91436dcc5" x1="359" y1="396.46" x2="287.505" y2="396.46"/>
  <line class="f484034d-5463-486f-b433-31e91436dcc5" x1="287.505" y1="408.586" x2="359" y2="408.586"/>
  <line class="f484034d-5463-486f-b433-31e91436dcc5" x1="359" y1="420.797" x2="287.505" y2="420.797"/>
  <line class="a0cfa51a-cee2-40e5-964c-2aedcf2f5b77" x1="359.358" y1="384.14" x2="264" y2="384.14"/>
  <path class="afcb01ce-f729-4ad7-b76a-e2e7a5bbde68" d="M112.171,353.787a32.466,32.466,0,0,0-11.962-2.269h0a32.548,32.548,0,1,0,32.547,32.548h0a32.587,32.587,0,0,0-1.179-8.711l-.7-2.372"/>
  <path class="afcb01ce-f729-4ad7-b76a-e2e7a5bbde68" d="M249.751,209.266v-4.3a20.642,20.642,0,0,1,20.643-20.643h45.843"/>
  <polyline class="f484034d-5463-486f-b433-31e91436dcc5" points="156.126 464.599 118.516 447.296 68.34 473.069 68.34 558.856"/>
  <polyline class="a0cfa51a-cee2-40e5-964c-2aedcf2f5b77" points="292.57 522.529 316.591 505.527 292.57 488.525 292.57 522.529"/>
  <polyline class="f484034d-5463-486f-b433-31e91436dcc5" points="343.319 306.556 359 306.556 359 208.556 241.062 208.556"/>
  <polygon class="afcb01ce-f729-4ad7-b76a-e2e7a5bbde68" points="310.809 473.582 359 473.582 359 536.903 249.751 536.903 249.751 473.582 310.809 473.582"/>
  <path class="afcb01ce-f729-4ad7-b76a-e2e7a5bbde68" d="M275.2,184.319H321.15a20.641,20.641,0,0,1,20.641,20.642V335.288"/>
  <line class="afcb01ce-f729-4ad7-b76a-e2e7a5bbde68" x1="290.042" y1="545.414" x2="319.119" y2="545.414"/>
  <path class="a0cfa51a-cee2-40e5-964c-2aedcf2f5b77" d="M359.358,510.12h0a39.5,39.5,0,0,0,39.5-39.5V423.639a39.5,39.5,0,0,0-39.5-39.5"/>
  <path class="f484034d-5463-486f-b433-31e91436dcc5" d="M359,461.267H206.583a6.062,6.062,0,0,0-6.063,6.048v.188a6.062,6.062,0,0,0,6.062,6.079h21.909a6.064,6.064,0,0,1,6.063,6.063v.085a6.064,6.064,0,0,1-6.063,6.063H206.567a6.063,6.063,0,0,0-.762,12.079l6.827.047h15.859a6.064,6.064,0,0,1,6.063,6.064v.084a6.064,6.064,0,0,1-6.063,6.064H213.807v17.31"/>
  <line class="f484034d-5463-486f-b433-31e91436dcc5" x1="249.642" y1="432.992" x2="123.691" y2="432.992"/>
  <polyline class="afcb01ce-f729-4ad7-b76a-e2e7a5bbde68" points="359 433.003 249.751 432.992 249.751 383.598 230.621 367.367"/>
  <polyline class="a0cfa51a-cee2-40e5-964c-2aedcf2f5b77" points="230.621 398.653 230.621 363.302 187.821 363.302 187.821 398.653"/>
  <path class="a0cfa51a-cee2-40e5-964c-2aedcf2f5b77" d="M152.215,365.064l-52.007,19,21.367-53.94S144,343.556,152.215,365.064Z"/>
  <polyline class="afcb01ce-f729-4ad7-b76a-e2e7a5bbde68" points="249.751 383.598 209.221 417.989 168.691 383.598"/>
  <line class="f484034d-5463-486f-b433-31e91436dcc5" x1="299.599" y1="335.289" x2="359" y2="335.289"/>
</svg>
