<svg id="e838a7ee-7340-426f-a24f-ebfa2723ee41" data-name="Layer 1" xmlns="http://www.w3.org/2000/svg" viewBox="0 0 488 328">
  <defs>
    <style>
      .b3fd70ba-d81a-4382-a47c-89938e21b283 {
        isolation: isolate;
      }

      .a84fc7bf-6bfc-4ad1-85d0-f0a4513b8977, .bc7c37cf-0588-4df5-8124-5658bc143b27, .bf3a2364-7872-4d8a-a5bc-70ce60b116e0, .e1ad7487-ad31-4a2a-b358-c507da0c0c7e {
        fill: none;
        stroke-miterlimit: 10;
        stroke-width: 2px;
      }

      .a84fc7bf-6bfc-4ad1-85d0-f0a4513b8977, .bc7c37cf-0588-4df5-8124-5658bc143b27 {
        stroke: #004ba5;
      }

      .bc7c37cf-0588-4df5-8124-5658bc143b27, .bf3a2364-7872-4d8a-a5bc-70ce60b116e0 {
        stroke-linecap: round;
      }

      .e1ad7487-ad31-4a2a-b358-c507da0c0c7e {
        stroke: #73c06b;
      }

      .bf3a2364-7872-4d8a-a5bc-70ce60b116e0 {
        stroke: #00a8e1;
      }
    </style>
  </defs>
  <title>how-1-illo</title>
  <g class="b3fd70ba-d81a-4382-a47c-89938e21b283">
    <rect class="a84fc7bf-6bfc-4ad1-85d0-f0a4513b8977" x="253.5" y="89" width="192" height="150" rx="3"/>
  </g>
  <line class="bc7c37cf-0588-4df5-8124-5658bc143b27" x1="277.083" y1="112.571" x2="292.242" y2="112.571"/>
  <line class="bc7c37cf-0588-4df5-8124-5658bc143b27" x1="302.737" y1="112.571" x2="317.897" y2="112.571"/>
  <line class="bc7c37cf-0588-4df5-8124-5658bc143b27" x1="328.391" y1="112.571" x2="343.551" y2="112.571"/>
  <line class="bc7c37cf-0588-4df5-8124-5658bc143b27" x1="355.212" y1="112.571" x2="370.371" y2="112.571"/>
  <line class="bc7c37cf-0588-4df5-8124-5658bc143b27" x1="380.866" y1="112.571" x2="396.025" y2="112.571"/>
  <line class="bc7c37cf-0588-4df5-8124-5658bc143b27" x1="406.52" y1="112.571" x2="421.679" y2="112.571"/>
  <line class="bc7c37cf-0588-4df5-8124-5658bc143b27" x1="277.083" y1="123.986" x2="292.242" y2="123.986"/>
  <line class="bc7c37cf-0588-4df5-8124-5658bc143b27" x1="328.391" y1="123.986" x2="343.551" y2="123.986"/>
  <line class="bc7c37cf-0588-4df5-8124-5658bc143b27" x1="355.212" y1="123.986" x2="370.371" y2="123.986"/>
  <line class="bc7c37cf-0588-4df5-8124-5658bc143b27" x1="380.866" y1="123.986" x2="396.025" y2="123.986"/>
  <line class="bc7c37cf-0588-4df5-8124-5658bc143b27" x1="277.083" y1="135.401" x2="292.242" y2="135.401"/>
  <line class="bc7c37cf-0588-4df5-8124-5658bc143b27" x1="302.737" y1="135.401" x2="317.897" y2="135.401"/>
  <line class="bc7c37cf-0588-4df5-8124-5658bc143b27" x1="328.391" y1="135.401" x2="343.551" y2="135.401"/>
  <line class="bc7c37cf-0588-4df5-8124-5658bc143b27" x1="355.212" y1="135.401" x2="370.371" y2="135.401"/>
  <line class="bc7c37cf-0588-4df5-8124-5658bc143b27" x1="380.866" y1="135.401" x2="396.025" y2="135.401"/>
  <line class="bc7c37cf-0588-4df5-8124-5658bc143b27" x1="406.52" y1="135.401" x2="421.679" y2="135.401"/>
  <line class="bc7c37cf-0588-4df5-8124-5658bc143b27" x1="277.083" y1="146.816" x2="292.242" y2="146.816"/>
  <line class="bc7c37cf-0588-4df5-8124-5658bc143b27" x1="302.737" y1="146.816" x2="317.897" y2="146.816"/>
  <line class="bc7c37cf-0588-4df5-8124-5658bc143b27" x1="328.391" y1="146.816" x2="343.551" y2="146.816"/>
  <line class="bc7c37cf-0588-4df5-8124-5658bc143b27" x1="355.212" y1="146.816" x2="370.371" y2="146.816"/>
  <line class="bc7c37cf-0588-4df5-8124-5658bc143b27" x1="380.866" y1="146.816" x2="396.025" y2="146.816"/>
  <line class="bc7c37cf-0588-4df5-8124-5658bc143b27" x1="406.52" y1="146.816" x2="421.679" y2="146.816"/>
  <line class="bc7c37cf-0588-4df5-8124-5658bc143b27" x1="277.083" y1="158.231" x2="292.242" y2="158.231"/>
  <line class="bc7c37cf-0588-4df5-8124-5658bc143b27" x1="302.737" y1="158.231" x2="317.897" y2="158.231"/>
  <line class="bc7c37cf-0588-4df5-8124-5658bc143b27" x1="355.212" y1="158.231" x2="370.371" y2="158.231"/>
  <line class="bc7c37cf-0588-4df5-8124-5658bc143b27" x1="380.866" y1="158.231" x2="396.025" y2="158.231"/>
  <line class="bc7c37cf-0588-4df5-8124-5658bc143b27" x1="277.083" y1="169.646" x2="292.242" y2="169.646"/>
  <line class="bc7c37cf-0588-4df5-8124-5658bc143b27" x1="302.737" y1="169.646" x2="317.897" y2="169.646"/>
  <line class="bc7c37cf-0588-4df5-8124-5658bc143b27" x1="328.391" y1="169.646" x2="343.551" y2="169.646"/>
  <line class="bc7c37cf-0588-4df5-8124-5658bc143b27" x1="355.212" y1="169.646" x2="370.371" y2="169.646"/>
  <line class="bc7c37cf-0588-4df5-8124-5658bc143b27" x1="380.866" y1="169.646" x2="396.025" y2="169.646"/>
  <line class="bc7c37cf-0588-4df5-8124-5658bc143b27" x1="406.52" y1="169.646" x2="421.679" y2="169.646"/>
  <line class="bc7c37cf-0588-4df5-8124-5658bc143b27" x1="277.083" y1="181.061" x2="292.242" y2="181.061"/>
  <line class="bc7c37cf-0588-4df5-8124-5658bc143b27" x1="302.737" y1="181.061" x2="317.897" y2="181.061"/>
  <line class="bc7c37cf-0588-4df5-8124-5658bc143b27" x1="328.391" y1="181.061" x2="343.551" y2="181.061"/>
  <line class="bc7c37cf-0588-4df5-8124-5658bc143b27" x1="355.212" y1="181.061" x2="370.371" y2="181.061"/>
  <line class="bc7c37cf-0588-4df5-8124-5658bc143b27" x1="380.866" y1="181.061" x2="396.025" y2="181.061"/>
  <line class="bc7c37cf-0588-4df5-8124-5658bc143b27" x1="406.52" y1="181.061" x2="421.679" y2="181.061"/>
  <line class="bc7c37cf-0588-4df5-8124-5658bc143b27" x1="277.083" y1="192.476" x2="292.242" y2="192.476"/>
  <line class="bc7c37cf-0588-4df5-8124-5658bc143b27" x1="328.391" y1="192.476" x2="343.551" y2="192.476"/>
  <line class="bc7c37cf-0588-4df5-8124-5658bc143b27" x1="355.212" y1="192.476" x2="370.371" y2="192.476"/>
  <line class="bc7c37cf-0588-4df5-8124-5658bc143b27" x1="380.866" y1="192.476" x2="396.025" y2="192.476"/>
  <line class="bc7c37cf-0588-4df5-8124-5658bc143b27" x1="406.52" y1="192.476" x2="421.679" y2="192.476"/>
  <line class="bc7c37cf-0588-4df5-8124-5658bc143b27" x1="277.083" y1="203.89" x2="292.242" y2="203.89"/>
  <line class="bc7c37cf-0588-4df5-8124-5658bc143b27" x1="302.737" y1="203.89" x2="317.897" y2="203.89"/>
  <line class="bc7c37cf-0588-4df5-8124-5658bc143b27" x1="328.391" y1="203.89" x2="343.551" y2="203.89"/>
  <line class="bc7c37cf-0588-4df5-8124-5658bc143b27" x1="355.212" y1="203.89" x2="370.371" y2="203.89"/>
  <line class="bc7c37cf-0588-4df5-8124-5658bc143b27" x1="380.866" y1="203.89" x2="396.025" y2="203.89"/>
  <line class="bc7c37cf-0588-4df5-8124-5658bc143b27" x1="406.52" y1="203.89" x2="421.679" y2="203.89"/>
  <line class="bc7c37cf-0588-4df5-8124-5658bc143b27" x1="277.083" y1="215.305" x2="292.242" y2="215.305"/>
  <line class="bc7c37cf-0588-4df5-8124-5658bc143b27" x1="302.737" y1="215.305" x2="317.897" y2="215.305"/>
  <line class="bc7c37cf-0588-4df5-8124-5658bc143b27" x1="328.391" y1="215.305" x2="343.551" y2="215.305"/>
  <line class="bc7c37cf-0588-4df5-8124-5658bc143b27" x1="355.212" y1="215.305" x2="370.371" y2="215.305"/>
  <line class="bc7c37cf-0588-4df5-8124-5658bc143b27" x1="380.866" y1="215.305" x2="396.025" y2="215.305"/>
  <g class="b3fd70ba-d81a-4382-a47c-89938e21b283">
    <rect class="e1ad7487-ad31-4a2a-b358-c507da0c0c7e" x="42.5" y="89" width="192" height="149" rx="3"/>
  </g>
  <line class="bf3a2364-7872-4d8a-a5bc-70ce60b116e0" x1="90.913" y1="112.586" x2="106.072" y2="112.586"/>
  <line class="bf3a2364-7872-4d8a-a5bc-70ce60b116e0" x1="116.567" y1="112.586" x2="131.726" y2="112.586"/>
  <line class="bf3a2364-7872-4d8a-a5bc-70ce60b116e0" x1="143.387" y1="112.586" x2="158.546" y2="112.586"/>
  <line class="bf3a2364-7872-4d8a-a5bc-70ce60b116e0" x1="169.041" y1="112.586" x2="184.2" y2="112.586"/>
  <line class="bf3a2364-7872-4d8a-a5bc-70ce60b116e0" x1="194.695" y1="112.586" x2="209.855" y2="112.586"/>
  <line class="bf3a2364-7872-4d8a-a5bc-70ce60b116e0" x1="65.258" y1="124.001" x2="80.418" y2="124.001"/>
  <line class="bf3a2364-7872-4d8a-a5bc-70ce60b116e0" x1="116.567" y1="124.001" x2="131.726" y2="124.001"/>
  <line class="bf3a2364-7872-4d8a-a5bc-70ce60b116e0" x1="143.387" y1="124.001" x2="158.546" y2="124.001"/>
  <line class="bf3a2364-7872-4d8a-a5bc-70ce60b116e0" x1="169.041" y1="124.001" x2="184.2" y2="124.001"/>
  <line class="bf3a2364-7872-4d8a-a5bc-70ce60b116e0" x1="65.258" y1="135.415" x2="80.418" y2="135.415"/>
  <line class="bf3a2364-7872-4d8a-a5bc-70ce60b116e0" x1="90.913" y1="135.415" x2="106.072" y2="135.415"/>
  <line class="bf3a2364-7872-4d8a-a5bc-70ce60b116e0" x1="116.567" y1="135.415" x2="131.726" y2="135.415"/>
  <line class="bf3a2364-7872-4d8a-a5bc-70ce60b116e0" x1="143.387" y1="135.415" x2="158.546" y2="135.415"/>
  <line class="bf3a2364-7872-4d8a-a5bc-70ce60b116e0" x1="169.041" y1="135.415" x2="184.2" y2="135.415"/>
  <line class="bf3a2364-7872-4d8a-a5bc-70ce60b116e0" x1="194.695" y1="135.415" x2="209.855" y2="135.415"/>
  <line class="bf3a2364-7872-4d8a-a5bc-70ce60b116e0" x1="65.258" y1="146.83" x2="80.418" y2="146.83"/>
  <line class="bf3a2364-7872-4d8a-a5bc-70ce60b116e0" x1="90.913" y1="146.83" x2="106.072" y2="146.83"/>
  <line class="bf3a2364-7872-4d8a-a5bc-70ce60b116e0" x1="116.567" y1="146.83" x2="131.726" y2="146.83"/>
  <line class="bf3a2364-7872-4d8a-a5bc-70ce60b116e0" x1="116.567" y1="158.245" x2="131.726" y2="158.245"/>
  <line class="bf3a2364-7872-4d8a-a5bc-70ce60b116e0" x1="143.387" y1="146.83" x2="158.546" y2="146.83"/>
  <line class="bf3a2364-7872-4d8a-a5bc-70ce60b116e0" x1="169.041" y1="146.83" x2="184.2" y2="146.83"/>
  <line class="bf3a2364-7872-4d8a-a5bc-70ce60b116e0" x1="194.695" y1="146.83" x2="209.855" y2="146.83"/>
  <line class="bf3a2364-7872-4d8a-a5bc-70ce60b116e0" x1="65.258" y1="158.245" x2="80.418" y2="158.245"/>
  <line class="bf3a2364-7872-4d8a-a5bc-70ce60b116e0" x1="90.913" y1="158.245" x2="106.072" y2="158.245"/>
  <line class="bf3a2364-7872-4d8a-a5bc-70ce60b116e0" x1="143.387" y1="158.245" x2="158.546" y2="158.245"/>
  <line class="bf3a2364-7872-4d8a-a5bc-70ce60b116e0" x1="169.041" y1="158.245" x2="184.2" y2="158.245"/>
  <line class="bf3a2364-7872-4d8a-a5bc-70ce60b116e0" x1="65.258" y1="169.66" x2="80.418" y2="169.66"/>
  <line class="bf3a2364-7872-4d8a-a5bc-70ce60b116e0" x1="90.913" y1="169.66" x2="106.072" y2="169.66"/>
  <line class="bf3a2364-7872-4d8a-a5bc-70ce60b116e0" x1="116.567" y1="169.66" x2="131.726" y2="169.66"/>
  <line class="bf3a2364-7872-4d8a-a5bc-70ce60b116e0" x1="143.387" y1="169.66" x2="158.546" y2="169.66"/>
  <line class="bf3a2364-7872-4d8a-a5bc-70ce60b116e0" x1="169.041" y1="169.66" x2="184.2" y2="169.66"/>
  <line class="bf3a2364-7872-4d8a-a5bc-70ce60b116e0" x1="194.695" y1="169.66" x2="209.855" y2="169.66"/>
  <line class="bf3a2364-7872-4d8a-a5bc-70ce60b116e0" x1="65.258" y1="181.075" x2="80.418" y2="181.075"/>
  <line class="bf3a2364-7872-4d8a-a5bc-70ce60b116e0" x1="90.913" y1="181.075" x2="106.072" y2="181.075"/>
  <line class="bf3a2364-7872-4d8a-a5bc-70ce60b116e0" x1="90.913" y1="192.49" x2="106.072" y2="192.49"/>
  <line class="bf3a2364-7872-4d8a-a5bc-70ce60b116e0" x1="116.567" y1="181.075" x2="131.726" y2="181.075"/>
  <line class="bf3a2364-7872-4d8a-a5bc-70ce60b116e0" x1="143.387" y1="181.075" x2="158.546" y2="181.075"/>
  <line class="bf3a2364-7872-4d8a-a5bc-70ce60b116e0" x1="169.041" y1="181.075" x2="184.2" y2="181.075"/>
  <line class="bf3a2364-7872-4d8a-a5bc-70ce60b116e0" x1="194.695" y1="181.075" x2="209.855" y2="181.075"/>
  <line class="bf3a2364-7872-4d8a-a5bc-70ce60b116e0" x1="65.258" y1="192.49" x2="80.418" y2="192.49"/>
  <line class="bf3a2364-7872-4d8a-a5bc-70ce60b116e0" x1="116.567" y1="192.49" x2="131.726" y2="192.49"/>
  <line class="bf3a2364-7872-4d8a-a5bc-70ce60b116e0" x1="143.387" y1="192.49" x2="158.546" y2="192.49"/>
  <line class="bf3a2364-7872-4d8a-a5bc-70ce60b116e0" x1="169.041" y1="192.49" x2="184.2" y2="192.49"/>
  <line class="bf3a2364-7872-4d8a-a5bc-70ce60b116e0" x1="194.695" y1="192.49" x2="209.855" y2="192.49"/>
  <line class="bf3a2364-7872-4d8a-a5bc-70ce60b116e0" x1="65.258" y1="203.905" x2="80.418" y2="203.905"/>
  <line class="bf3a2364-7872-4d8a-a5bc-70ce60b116e0" x1="90.913" y1="203.905" x2="106.072" y2="203.905"/>
  <line class="bf3a2364-7872-4d8a-a5bc-70ce60b116e0" x1="116.567" y1="203.905" x2="131.726" y2="203.905"/>
  <line class="bf3a2364-7872-4d8a-a5bc-70ce60b116e0" x1="143.387" y1="203.905" x2="158.546" y2="203.905"/>
  <line class="bf3a2364-7872-4d8a-a5bc-70ce60b116e0" x1="169.041" y1="203.905" x2="184.2" y2="203.905"/>
  <line class="bf3a2364-7872-4d8a-a5bc-70ce60b116e0" x1="194.695" y1="203.905" x2="209.855" y2="203.905"/>
  <line class="bf3a2364-7872-4d8a-a5bc-70ce60b116e0" x1="65.258" y1="215.32" x2="80.418" y2="215.32"/>
  <line class="bf3a2364-7872-4d8a-a5bc-70ce60b116e0" x1="90.913" y1="215.32" x2="106.072" y2="215.32"/>
  <line class="bf3a2364-7872-4d8a-a5bc-70ce60b116e0" x1="116.567" y1="215.32" x2="131.726" y2="215.32"/>
  <line class="bf3a2364-7872-4d8a-a5bc-70ce60b116e0" x1="143.387" y1="215.32" x2="158.546" y2="215.32"/>
  <line class="bf3a2364-7872-4d8a-a5bc-70ce60b116e0" x1="169.041" y1="215.32" x2="184.2" y2="215.32"/>
</svg>
