<svg id="b0b93838-c1fb-4e46-8096-302786b3a614" data-name="Layer 1" xmlns="http://www.w3.org/2000/svg" viewBox="0 0 488 328">
  <defs>
    <style>
      .a9261a10-8a5b-4241-80ee-d3846d2457dd, .a9f95a73-0e20-462d-b6a8-0e6d42dc2984, .b2da05d4-3dab-40ba-9f5e-f352926d775e, .ba1e223d-9087-4756-a71c-942ed7571fa4, .e0c37682-85ce-4647-b64e-73d3c5070936 {
        fill: none;
        stroke-width: 2px;
      }

      .b2da05d4-3dab-40ba-9f5e-f352926d775e {
        stroke: #00a8e1;
      }

      .a9261a10-8a5b-4241-80ee-d3846d2457dd, .a9f95a73-0e20-462d-b6a8-0e6d42dc2984, .b2da05d4-3dab-40ba-9f5e-f352926d775e {
        stroke-miterlimit: 10;
      }

      .ba1e223d-9087-4756-a71c-942ed7571fa4, .e0c37682-85ce-4647-b64e-73d3c5070936 {
        stroke: #73c06b;
        stroke-linejoin: round;
      }

      .a9f95a73-0e20-462d-b6a8-0e6d42dc2984, .ba1e223d-9087-4756-a71c-942ed7571fa4 {
        stroke-linecap: round;
      }

      .aa019706-9d2e-4c07-be3a-f31ea1cfbd9b {
        isolation: isolate;
      }

      .a9261a10-8a5b-4241-80ee-d3846d2457dd, .a9f95a73-0e20-462d-b6a8-0e6d42dc2984 {
        stroke: #004ba5;
      }
    </style>
  </defs>
  <title>how-3-illo</title>
  <path class="b2da05d4-3dab-40ba-9f5e-f352926d775e" d="M405.219,132.857c-35.733-.463-67.443,5.128-66.778-9.646s14.382-14.539,25.415-14.526,5.99-21.744,19.361-21.343c11.648.349,5.086,12.843,13.571,17.085a13.857,13.857,0,0,0,4.857,1.274c15.681,1.556,7.425-29.4,25.787-28.873,12.954.374,12.1,20.523,16.7,26.133s17.376,3.986,17.426,16.608C461.634,138.37,440.952,133.319,405.219,132.857Z"/>
  <path class="ba1e223d-9087-4756-a71c-942ed7571fa4" d="M387.072,154.232l12.681-10.96,12.681,10.96m-12.681-10.174v71.77c0,7.039-6.123,12.373-13.606,12.373s-14.791-5.76-14.791-12.8q-.108-32.021,0-37.486c.2-10.384-3.254-22.361-22.627-22.412s-21.689,14.322-21.86,22.412c-.15,7.131.894,22.49-14.283,22.839q-15.177.348-15.932-23.143l-1.879-40.558c0-5.478-5.17-21.844-23.368-28.673"/>
  <g class="aa019706-9d2e-4c07-be3a-f31ea1cfbd9b">
    <path class="a9261a10-8a5b-4241-80ee-d3846d2457dd" d="M238.679,131.548c-6.465-3.922-11.095-11.145-11.116-18.084q-.024-8.191,7.958-15.116a2.7,2.7,0,0,1,4.469,2.03l.036,10.244a2.7,2.7,0,0,0,.821,1.929q5.949,5.765,7.942,5.764,3.15,0,9.46-5.734a2.7,2.7,0,0,0,.884-2.029l-.12-10.447a2.7,2.7,0,0,1,4.367-2.155q8.256,6.484,8.256,15.514c0,7.646-5.453,14.672-12.468,18.357q.2,62.118-.021,68.74c-.234,6.955-.716,12.631-10.358,12.79s-10.847-6.9-10.733-13.057Q238.164,194.414,238.679,131.548Z"/>
  </g>
  <path class="e0c37682-85ce-4647-b64e-73d3c5070936" d="M258.093,105.148c-1.787-.037-2.954-.007-4.757.011-33.745.338-43.418,23.937-43.418,30.976l-.515,14.856c0,7.039-6.2,12.8-13.784,12.8s-13.786-5.761-13.786-12.8V136.262c0-7.039-6.291-12.8-13.981-12.8s-13.981,5.76-13.981,12.8v15.714c0,7.039-6.849,12.8-15.221,12.8"/>
  <ellipse class="a9261a10-8a5b-4241-80ee-d3846d2457dd" cx="248.282" cy="199.574" rx="3.379" ry="3.394"/>
  <g class="aa019706-9d2e-4c07-be3a-f31ea1cfbd9b">
    <rect class="a9261a10-8a5b-4241-80ee-d3846d2457dd" x="26.441" y="76.398" width="111.702" height="45.822" rx="2.7"/>
  </g>
  <line class="a9f95a73-0e20-462d-b6a8-0e6d42dc2984" x1="68.677" y1="99.543" x2="123.762" y2="99.543"/>
  <path class="b2da05d4-3dab-40ba-9f5e-f352926d775e" d="M41.936,103.645a4.639,4.639,0,1,0-4.685-4.638A4.661,4.661,0,0,0,41.936,103.645Z"/>
  <g class="aa019706-9d2e-4c07-be3a-f31ea1cfbd9b">
    <rect class="a9261a10-8a5b-4241-80ee-d3846d2457dd" x="26.441" y="141.089" width="111.702" height="45.822" rx="2.7"/>
  </g>
  <line class="a9f95a73-0e20-462d-b6a8-0e6d42dc2984" x1="68.677" y1="164.232" x2="123.762" y2="164.232"/>
  <path class="b2da05d4-3dab-40ba-9f5e-f352926d775e" d="M41.936,168.335a4.639,4.639,0,1,0-4.685-4.638A4.661,4.661,0,0,0,41.936,168.335Z"/>
  <g class="aa019706-9d2e-4c07-be3a-f31ea1cfbd9b">
    <rect class="a9261a10-8a5b-4241-80ee-d3846d2457dd" x="26.441" y="205.779" width="111.702" height="45.822" rx="2.7"/>
  </g>
  <line class="a9f95a73-0e20-462d-b6a8-0e6d42dc2984" x1="68.677" y1="228.923" x2="123.762" y2="228.923"/>
  <path class="b2da05d4-3dab-40ba-9f5e-f352926d775e" d="M42.837,233.013a4.632,4.632,0,1,0-4.685-4.632A4.658,4.658,0,0,0,42.837,233.013Z"/>
</svg>
