<svg id="abe31ed9-b604-4621-b554-b26674d187e7" data-name="Layer 1" xmlns="http://www.w3.org/2000/svg" viewBox="0 0 488 328">
  <defs>
    <style>
      .a05c2bb2-e2f9-48d2-9ba0-f00ebac6bd44, .ae9647f4-9faf-48ef-ad02-e221a9a4d92d, .b128ec58-f041-4705-a5cb-6ef8718213c0, .e6ece0d3-8ac7-4115-994a-8b46422d7af2, .edd5c18b-d502-48cb-b897-44de854ab9ce, .f6de690d-730d-4b20-bce8-3c1e2b75342e {
        fill: none;
        stroke-miterlimit: 10;
        stroke-width: 2px;
      }

      .a05c2bb2-e2f9-48d2-9ba0-f00ebac6bd44, .edd5c18b-d502-48cb-b897-44de854ab9ce {
        stroke: #004ba5;
      }

      .ba989c71-29eb-4315-b0f5-e58bca1a68cc {
        fill: #004ba5;
      }

      .e6922844-b8e2-40c3-b8c9-7a0f69a335c8 {
        fill: #00a8e1;
      }

      .ae9647f4-9faf-48ef-ad02-e221a9a4d92d, .b128ec58-f041-4705-a5cb-6ef8718213c0 {
        stroke: #00a8e1;
      }

      .ad9c7ed3-dc49-45ca-a05d-4ff0d1aba9f6 {
        fill: #73c06b;
      }

      .a05c2bb2-e2f9-48d2-9ba0-f00ebac6bd44, .b128ec58-f041-4705-a5cb-6ef8718213c0, .e6ece0d3-8ac7-4115-994a-8b46422d7af2 {
        stroke-linecap: round;
      }

      .e6ece0d3-8ac7-4115-994a-8b46422d7af2, .f6de690d-730d-4b20-bce8-3c1e2b75342e {
        stroke: #73c06b;
      }
    </style>
  </defs>
  <title>how-2-illo</title>
  <rect class="edd5c18b-d502-48cb-b897-44de854ab9ce" x="190.25" y="37.15" width="108.36" height="44.72" rx="2.58"/>
  <g>
    <path class="ba989c71-29eb-4315-b0f5-e58bca1a68cc" d="M237.548,52.475h2.026V66.91h-2.026Z"/>
    <path class="ba989c71-29eb-4315-b0f5-e58bca1a68cc" d="M242.91,66.91V55.734c0-3.159,2.336-3.3,4.832-3.3.96,0,2.553.037,3.674.093v1.555h-3.735c-2.36,0-2.751.446-2.751,2.515v2.157h6.195v1.6H244.93V66.91Z"/>
  </g>
  <g>
    <path class="e6922844-b8e2-40c3-b8c9-7a0f69a335c8" d="M112.355,106.564h-3.816V119.37h-2.026V106.564h-3.822v-1.629h9.664Z"/>
    <path class="e6922844-b8e2-40c3-b8c9-7a0f69a335c8" d="M121.879,119.37V112.5c0-1.933-.365-2.757-2.924-2.757a6.9,6.9,0,0,0-2.447.465v9.162h-1.895v-15.3h1.895v4.554a10.549,10.549,0,0,1,2.986-.44c3.829-.012,4.281,1.7,4.281,4.021v7.161Z"/>
    <path class="e6922844-b8e2-40c3-b8c9-7a0f69a335c8" d="M126.254,113.85c0-4,1.221-5.662,4.863-5.662,3.847,0,4.783,2.02,4.783,5.16,0,.291-.006.638-.032.942-1.263.217-3.883.465-5.419.533l-2.305.1c.161,2.2,1.041,3.047,3.32,3.047a30.038,30.038,0,0,0,3.928-.3l.167,1.462a27.646,27.646,0,0,1-4.69.383C127.214,119.518,126.254,117.121,126.254,113.85Zm4.436-.4c.9-.043,2.379-.161,3.277-.278.019-.186.025-.465.025-.658,0-1.784-.731-2.842-2.875-2.842-2.558,0-3.017,1.443-3.017,3.9Z"/>
    <path class="e6922844-b8e2-40c3-b8c9-7a0f69a335c8" d="M140.454,119.37h-1.9v-8.289c0-.682.024-1.314.074-1.951a12.056,12.056,0,0,1,4.982-.942c3.822,0,4.206,1.8,4.206,4.058v7.124h-1.9v-6.859c0-1.938-.347-2.787-2.881-2.787a7.053,7.053,0,0,0-2.534.465c-.043.483-.056,1.1-.056,1.616Z"/>
  </g>
  <rect class="ae9647f4-9faf-48ef-ad02-e221a9a4d92d" x="72.43" y="90.47" width="108.36" height="44.72" rx="2.58"/>
  <g>
    <path class="ad9c7ed3-dc49-45ca-a05d-4ff0d1aba9f6" d="M118.134,184.806h-3.729c-2.361,0-2.757.446-2.757,2.516v2.156h6.2v1.6h-6.2v2.428c0,2.076.4,2.51,2.757,2.51h3.729v1.56c-1.1.05-2.608.087-3.668.087-2.5,0-4.832-.13-4.832-3.289v-7.924c0-3.159,2.33-3.3,4.832-3.3.961,0,2.547.043,3.668.093Z"/>
    <path class="ad9c7ed3-dc49-45ca-a05d-4ff0d1aba9f6" d="M122.66,197.63h-1.895v-8.289c0-.682.024-1.313.074-1.951a12.064,12.064,0,0,1,4.981-.942c3.822,0,4.206,1.8,4.206,4.058v7.124h-1.9v-6.858c0-1.939-.346-2.787-2.881-2.787a7.043,7.043,0,0,0-2.533.464c-.044.483-.056,1.1-.056,1.617Z"/>
    <path class="ad9c7ed3-dc49-45ca-a05d-4ff0d1aba9f6" d="M140.027,182.334h1.888v12.571c0,.681-.024,1.313-.074,1.951a9.185,9.185,0,0,1-4.23.923c-3.563,0-5.056-1.357-5.056-5.668,0-4.238,1.394-5.663,4.721-5.663a11.664,11.664,0,0,1,2.751.359Zm-2.237,5.625c-3.011,0-3.321,1.463-3.321,4.152,0,2.533.452,4.163,3.142,4.163a6,6,0,0,0,2.36-.441c.037-.489.056-1.108.056-1.616v-5.88A7.754,7.754,0,0,0,137.79,187.959Z"/>
  </g>
  <line class="a05c2bb2-e2f9-48d2-9ba0-f00ebac6bd44" x1="244.43" y1="81.87" x2="244.43" y2="111.11"/>
  <line class="a05c2bb2-e2f9-48d2-9ba0-f00ebac6bd44" x1="185.514" y1="112.4" x2="302.859" y2="112.4"/>
  <line class="e6ece0d3-8ac7-4115-994a-8b46422d7af2" x1="224.06" y1="112.4" x2="264.887" y2="112.4"/>
  <rect class="f6de690d-730d-4b20-bce8-3c1e2b75342e" x="72.43" y="167.01" width="108.36" height="44.72" rx="2.58"/>
  <line class="a05c2bb2-e2f9-48d2-9ba0-f00ebac6bd44" x1="360.96" y1="135.19" x2="360.96" y2="160.21"/>
  <line class="b128ec58-f041-4705-a5cb-6ef8718213c0" x1="360.96" y1="135.19" x2="360.96" y2="148.117"/>
  <line class="a05c2bb2-e2f9-48d2-9ba0-f00ebac6bd44" x1="126.18" y1="135.19" x2="126.18" y2="160.21"/>
  <line class="b128ec58-f041-4705-a5cb-6ef8718213c0" x1="126.18" y1="135.19" x2="126.18" y2="148.117"/>
  <line class="a05c2bb2-e2f9-48d2-9ba0-f00ebac6bd44" x1="360.96" y1="212.59" x2="360.96" y2="241.132"/>
  <line class="e6ece0d3-8ac7-4115-994a-8b46422d7af2" x1="360.96" y1="211.73" x2="360.96" y2="227.425"/>
  <rect class="ae9647f4-9faf-48ef-ad02-e221a9a4d92d" x="307.21" y="90.47" width="108.36" height="44.72" rx="2.58"/>
  <g>
    <path class="e6922844-b8e2-40c3-b8c9-7a0f69a335c8" d="M352.817,107.406h-3.73c-2.36,0-2.757.446-2.757,2.515v2.156h6.2v1.605h-6.2v2.428c0,2.076.4,2.509,2.757,2.509h3.73v1.561c-1.1.05-2.609.087-3.668.087-2.5,0-4.832-.13-4.832-3.289v-7.924c0-3.159,2.33-3.3,4.832-3.3.961,0,2.547.043,3.668.093Z"/>
    <path class="e6922844-b8e2-40c3-b8c9-7a0f69a335c8" d="M355.339,104.934h1.9v12.335a3.994,3.994,0,0,0,.848,2.644l-1.63.806a4.687,4.687,0,0,1-1.115-3.345Z"/>
    <path class="e6922844-b8e2-40c3-b8c9-7a0f69a335c8" d="M362.094,111.941c0,1.326,1.233,1.511,2.5,1.914,2.063.663,3.444,1.134,3.444,3.351,0,2.485-1.845,3.172-4.256,3.172a16.858,16.858,0,0,1-3.648-.4l.186-1.456a17.924,17.924,0,0,0,2.88.285c1.1,0,2.906.012,2.906-1.518,0-1.338-1.053-1.517-2.453-1.939-1.747-.527-3.457-.96-3.457-3.277,0-2.36,1.648-3.029,3.853-3.029a16.049,16.049,0,0,1,3.742.4l-.179,1.424a15.209,15.209,0,0,0-2.764-.285C363.761,110.584,362.094,110.6,362.094,111.941Z"/>
    <path class="e6922844-b8e2-40c3-b8c9-7a0f69a335c8" d="M370.175,114.71c0-4,1.221-5.662,4.863-5.662,3.847,0,4.783,2.02,4.783,5.16,0,.291-.006.638-.032.942-1.263.216-3.883.465-5.42.533l-2.3.1c.161,2.2,1.04,3.047,3.32,3.047a29.852,29.852,0,0,0,3.928-.3l.167,1.462a27.524,27.524,0,0,1-4.69.384C371.135,120.378,370.175,117.981,370.175,114.71Zm4.436-.4c.9-.043,2.379-.161,3.277-.278.019-.186.024-.465.024-.658,0-1.784-.73-2.842-2.874-2.842-2.558,0-3.017,1.443-3.017,3.9Z"/>
  </g>
  <rect class="f6de690d-730d-4b20-bce8-3c1e2b75342e" x="307.21" y="167.01" width="108.36" height="44.72" rx="2.58"/>
  <g>
    <path class="ad9c7ed3-dc49-45ca-a05d-4ff0d1aba9f6" d="M348.794,183.964h-3.816V196.77h-2.026V183.964H339.13v-1.629h9.664Z"/>
    <path class="ad9c7ed3-dc49-45ca-a05d-4ff0d1aba9f6" d="M358.318,196.77V189.9c0-1.933-.366-2.757-2.924-2.757a6.906,6.906,0,0,0-2.447.465v9.162h-1.9v-15.3h1.9v4.554a10.549,10.549,0,0,1,2.986-.44c3.829-.013,4.281,1.7,4.281,4.021v7.161Z"/>
    <path class="ad9c7ed3-dc49-45ca-a05d-4ff0d1aba9f6" d="M362.693,191.25c0-4,1.22-5.662,4.863-5.662,3.848,0,4.783,2.02,4.783,5.16,0,.291-.007.638-.031.942-1.264.217-3.885.465-5.421.533l-2.305.1c.161,2.2,1.041,3.047,3.322,3.047a29.991,29.991,0,0,0,3.926-.3l.168,1.461a27.53,27.53,0,0,1-4.689.384C363.654,196.918,362.693,194.521,362.693,191.25Zm4.436-.4c.9-.043,2.379-.161,3.277-.278.018-.186.025-.465.025-.658,0-1.784-.731-2.842-2.875-2.842-2.559,0-3.017,1.443-3.017,3.9Z"/>
    <path class="ad9c7ed3-dc49-45ca-a05d-4ff0d1aba9f6" d="M376.894,196.77H375v-8.289c0-.682.025-1.314.075-1.951a12.046,12.046,0,0,1,4.98-.942c3.822,0,4.206,1.8,4.206,4.058v7.124h-1.9v-6.859c0-1.938-.347-2.787-2.881-2.787a7.034,7.034,0,0,0-2.533.465c-.044.483-.056,1.1-.056,1.616Z"/>
  </g>
  <g>
    <path class="ba989c71-29eb-4315-b0f5-e58bca1a68cc" d="M353.774,263.066h-3.729c-2.36,0-2.757.446-2.757,2.515v2.157h6.2v1.6h-6.2v2.428c0,2.076.4,2.51,2.757,2.51h3.729v1.56c-1.1.05-2.608.087-3.667.087-2.5,0-4.832-.13-4.832-3.289v-7.924c0-3.159,2.329-3.3,4.832-3.3.96,0,2.546.043,3.667.093Z"/>
    <path class="ba989c71-29eb-4315-b0f5-e58bca1a68cc" d="M358.3,275.89h-1.9V267.6c0-.682.024-1.314.074-1.951a12.054,12.054,0,0,1,4.981-.942c3.823,0,4.206,1.8,4.206,4.058v7.124h-1.895v-6.858c0-1.939-.347-2.788-2.881-2.788a7.053,7.053,0,0,0-2.534.465c-.043.483-.056,1.1-.056,1.616Z"/>
    <path class="ba989c71-29eb-4315-b0f5-e58bca1a68cc" d="M375.666,260.594h1.89v12.57c0,.682-.024,1.314-.074,1.951a9.18,9.18,0,0,1-4.232.923c-3.562,0-5.054-1.356-5.054-5.668,0-4.237,1.393-5.662,4.72-5.662a11.656,11.656,0,0,1,2.75.359Zm-2.236,5.625c-3.011,0-3.32,1.463-3.32,4.151,0,2.534.452,4.163,3.14,4.163a5.993,5.993,0,0,0,2.361-.44c.037-.489.055-1.108.055-1.616V266.6A7.735,7.735,0,0,0,373.43,266.219Z"/>
  </g>
  <rect class="edd5c18b-d502-48cb-b897-44de854ab9ce" x="307.21" y="246.13" width="108.36" height="44.72" rx="2.58"/>
</svg>
