<svg id="adffa502-2e73-446c-ac2c-dfd0145d03a6" data-name="Layer 1" xmlns="http://www.w3.org/2000/svg" viewBox="0 0 40 40">
  <defs>
    <style>
      .fd8b3a1d-5708-4fba-bf55-5f95538b0fbb {
        fill: none;
        stroke: #0249a4;
        stroke-linecap: round;
        stroke-linejoin: round;
        stroke-width: 2px;
      }
    </style>
  </defs>
  <title>icon-heads</title>
  <g>
    <path class="fd8b3a1d-5708-4fba-bf55-5f95538b0fbb" d="M30.5,23.439a14,14,0,1,0-14,14A14,14,0,0,0,30.5,23.439Z"/>
    <path class="fd8b3a1d-5708-4fba-bf55-5f95538b0fbb" d="M26,23.439a9.5,9.5,0,0,0-4.847-8.285l-.244-.133A9.5,9.5,0,1,0,26,23.439Z"/>
    <path class="fd8b3a1d-5708-4fba-bf55-5f95538b0fbb" d="M21,23.438a4.5,4.5,0,1,0-4.5,4.5A4.5,4.5,0,0,0,21,23.438Z"/>
    <polygon class="fd8b3a1d-5708-4fba-bf55-5f95538b0fbb" points="28.5 11.561 28.5 6.705 32.5 2.561 32.519 7.542 28.5 11.561"/>
    <polygon class="fd8b3a1d-5708-4fba-bf55-5f95538b0fbb" points="28.5 11.561 33.356 11.561 37.5 7.561 32.519 7.542 28.5 11.561"/>
    <line class="fd8b3a1d-5708-4fba-bf55-5f95538b0fbb" x1="16.5" y1="23.561" x2="32.519" y2="7.542"/>
  </g>
</svg>
