<?xml version="1.0" encoding="utf-8"?>
<!-- Generator: Adobe Illustrator 23.0.2, SVG Export Plug-In . SVG Version: 6.00 Build 0)  -->
<svg version="1.1" id="a3a6c5c4-be02-4f03-8cc0-f505cb7dad1c"
	 xmlns="http://www.w3.org/2000/svg" xmlns:xlink="http://www.w3.org/1999/xlink" x="0px" y="0px" viewBox="0 0 220 220"
	 style="enable-background:new 0 0 220 220;" xml:space="preserve">
<style type="text/css">
	.st0{fill:none;stroke:#00A8E1;stroke-width:2;stroke-linecap:round;stroke-linejoin:round;}
	.st1{fill:none;stroke:#FFFFFF;stroke-width:2;stroke-linecap:round;stroke-linejoin:round;}
</style>
<title>Artboard 21</title>
<g>
	<rect x="27.8" y="156.8" class="st0" width="111.3" height="51.4"/>
	<rect x="54" y="191.4" class="st1" width="56.7" height="16.8"/>
	<g>
		<path class="st1" d="M176.7,208.2h-5.3c-8.6,0-15.5-7-15.6-15.6v-21.6c0-8.6,7-15.5,15.6-15.6h5.3c8.6,0,15.5,7,15.6,15.6v21.6
			C192.2,201.2,185.3,208.2,176.7,208.2z"/>
		<line class="st1" x1="174.1" y1="155.5" x2="174.1" y2="176"/>
	</g>
	<g>
		<g>
			<line class="st0" x1="70.3" y1="93.4" x2="70.3" y2="112.3"/>
			<line class="st0" x1="86.2" y1="78.7" x2="86.2" y2="112.3"/>
			<line class="st0" x1="102.1" y1="69.8" x2="102.1" y2="112.3"/>
			<line class="st0" x1="117.9" y1="69.8" x2="117.9" y2="112.3"/>
			<line class="st0" x1="133.8" y1="54.8" x2="133.8" y2="112.3"/>
			<line class="st0" x1="149.7" y1="36.3" x2="149.7" y2="112.3"/>
		</g>
		<rect x="36.2" y="20" class="st1" width="147.5" height="110.1"/>
		<rect x="27.8" y="11.8" class="st1" width="164.5" height="126.6"/>
	</g>
</g>
</svg>
