<?xml version="1.0" encoding="utf-8"?>
<!-- Generator: Adobe Illustrator 23.0.2, SVG Export Plug-In . SVG Version: 6.00 Build 0)  -->
<svg version="1.1" id="a2f053bd-a8cc-465a-a092-d8f0d7d149ec"
	 xmlns="http://www.w3.org/2000/svg" xmlns:xlink="http://www.w3.org/1999/xlink" x="0px" y="0px" viewBox="0 0 150 202"
	 style="enable-background:new 0 0 150 202;" xml:space="preserve">
<style type="text/css">
	.st0{fill:none;stroke:#91CAE6;stroke-width:2.7308;stroke-linecap:round;stroke-linejoin:round;stroke-miterlimit:10;}
	.st1{fill:none;stroke:#00A8E1;stroke-width:2.7308;stroke-linecap:round;stroke-linejoin:round;stroke-miterlimit:10;}
	.st2{fill:none;stroke:#FFFFFF;stroke-width:2.7308;stroke-linecap:round;stroke-linejoin:round;stroke-miterlimit:10;}
</style>
<title>identity</title>
<g>
	<path class="st0" d="M5,61.7c21.3-24.3,57-38.2,88.3-25.5c24.9,10.1,44.3,39.6,51,65c9.6,36.5-5.3,67.3-29,95.3"/>
</g>
<g>
	<path class="st0" d="M137.5,32C94.6-8.7,44-3.1,3,27.3"/>
</g>
<g>
	<path class="st1" d="M65.3,196.5c16-11.4,31.6-20.5,42.3-37.7c9.6-15.4,14.2-34.3,8.9-52.1c-8-26.8-30.1-48.5-59.5-43.7
		c-10.9,1.8-21.6,7.1-29.3,15c-7.1,7.2-13.8,16.3-25.1,16.3"/>
</g>
<g>
	<path class="st2" d="M25.6,199c0,0,0.2-18.5,18.4-25.6c18.2-7.1,39.5-25,45.6-43.9c4.3-13.5-6.3-31.5-19-35.4
		c-17-5.3-27.5,10.2-39.5,19c-6.6,4.8-18.1,11.3-26.6,11.3"/>
</g>
<path class="st2" d="M62.2,122.9c-6.7,7.8-15,14.2-23.5,19.7c-10.7,7-30.3,13.5-31.9,28.7"/>
</svg>
