<?xml version="1.0" encoding="utf-8"?>
<!-- Generator: Adobe Illustrator 23.0.2, SVG Export Plug-In . SVG Version: 6.00 Build 0)  -->
<svg version="1.1" id="b144b012-2458-4574-9f53-37a65db20564"
	 xmlns="http://www.w3.org/2000/svg" xmlns:xlink="http://www.w3.org/1999/xlink" x="0px" y="0px" viewBox="0 0 220 220"
	 style="enable-background:new 0 0 220 220;" xml:space="preserve">
<style type="text/css">
	.st0{fill:none;stroke:#FFFFFF;stroke-width:1.7316;stroke-miterlimit:10;}
	.st1{fill:none;stroke:#00A8E1;stroke-width:1.7316;stroke-linecap:round;stroke-linejoin:round;}
	.st2{fill:none;stroke:#00A8E1;stroke-width:1.7316;stroke-linecap:round;stroke-miterlimit:10;}
	.st3{fill:none;stroke:#FFFFFF;stroke-width:1.7316;stroke-linecap:round;stroke-miterlimit:10;}
</style>
<title>identitylink-versatile</title>
<g>
	<ellipse class="st0" cx="142.3" cy="26.1" rx="23.1" ry="23.2"/>
	<ellipse class="st0" cx="142.3" cy="125.3" rx="45" ry="45.2"/>
	<g>
		<path class="st1" d="M149,124.9v6.3l12.6,1.4c2.7,0.7,4.6,3.1,4.6,5.9v13.1"/>
		<path class="st1" d="M136,124.9v6.3l-12.9,1.4c-2.7,0.6-4.7,3.1-4.7,5.9v13.1h45.6"/>
		<path class="st1" d="M154.7,103.1v10.5c0,7.3-5.3,13.2-11.9,13.2c-6.6,0-11.9-5.9-11.9-13.2V107"/>
		<path class="st1" d="M154.7,109.8c-6.3,0.1-12.5-2.4-16.9-6.9l-6.9,6.9v-6.3c-0.1-4.3,3.2-7.8,7.5-7.9h7.9c4.8,0.1,8.6,4.2,8.5,9
			v4.7"/>
	</g>
	<ellipse class="st0" cx="55.7" cy="73" rx="23.1" ry="23.2"/>
	<path class="st2" d="M70.4,67.5c-3.5-8.1-12.8-11.9-21-8.4S37.5,71.9,41,80c3.5,8.1,12.8,11.9,21,8.4c2.8-1.2,5.1-3.1,6.8-5.5"/>
	<line class="st3" x1="142.3" y1="27.4" x2="142.3" y2="78.9"/>
	
		<ellipse transform="matrix(0.7071 -0.7071 0.7071 0.7071 -116.0834 107.676)" class="st0" cx="71.9" cy="194" rx="23.2" ry="23.1"/>
	<line class="st3" x1="72.9" y1="193" x2="109.3" y2="156.6"/>
	<line class="st3" x1="55.9" y1="73" x2="101.2" y2="104.3"/>
</g>
</svg>
