<?xml version="1.0" encoding="utf-8"?>
<!-- Generator: Adobe Illustrator 23.0.4, SVG Export Plug-In . SVG Version: 6.00 Build 0)  -->
<svg version="1.1" id="b537853e-e945-4f2c-b65e-e25c6f3a3dc2"
	 xmlns="http://www.w3.org/2000/svg" xmlns:xlink="http://www.w3.org/1999/xlink" x="0px" y="0px" viewBox="0 0 430 600"
	 style="enable-background:new 0 0 430 600;" xml:space="preserve">
<style type="text/css">
	.st0{fill:none;stroke:#73C06B;stroke-width:2;stroke-linecap:round;stroke-miterlimit:10;stroke-dasharray:0,4;}
	.st1{fill:none;stroke:#73C06B;stroke-width:2;stroke-linecap:round;stroke-miterlimit:10;}
	.st2{fill:none;stroke:#00A8E1;stroke-width:2;stroke-linecap:round;stroke-miterlimit:10;}
	.st3{fill:#F6F9FB;}
	.st4{fill:#91CAE6;}
	.st5{fill:none;stroke:#00A8E1;stroke-width:2;stroke-linecap:round;stroke-linejoin:round;}
	.st6{fill:none;stroke:#73C06B;stroke-width:2;stroke-linecap:round;stroke-linejoin:round;}
	.st7{fill:#FFFFFF;}
</style>
<title>important-outcomes-3</title>
<line class="st0" x1="117" y1="371.1" x2="150.5" y2="371.1"/>
<line class="st1" x1="240.1" y1="339.9" x2="240.1" y2="302.4"/>
<line class="st2" x1="246.2" y1="323.4" x2="246.2" y2="305.7"/>
<line class="st2" x1="235.2" y1="260.2" x2="235.2" y2="242.7"/>
<line class="st1" x1="240.1" y1="264" x2="240.1" y2="230.9"/>
<rect x="153.6" y="265.5" class="st3" width="173" height="33.5"/>
<path class="st4" d="M186.3,592.1H80.6c-12.2,0-22.1-9.9-22.1-22.1l0,0c0-12.2,9.9-22.1,22.1-22.1h105.7c12.2,0,22.1,9.9,22.1,22.1
	l0,0C208.4,582.1,198.5,592.1,186.3,592.1z"/>
<path class="st4" d="M397.8,592.1H292.1c-12.2,0-22.1-9.9-22.1-22.1l0,0c0-12.2,9.9-22.1,22.1-22.1h105.7c12.2,0,22.1,9.9,22.1,22.1
	l0,0C419.9,582.1,410,592.1,397.8,592.1z"/>
<g>
	<rect x="314.9" y="507.1" class="st5" width="55.1" height="25"/>
	<polyline class="st6" points="315,507.1 315,532.1 333.2,532.1 	"/>
	<line class="st6" x1="321.8" y1="518.5" x2="333" y2="518.5"/>
	<line class="st6" x1="321.8" y1="522.4" x2="333" y2="522.4"/>
	<line class="st6" x1="321.8" y1="526.4" x2="333" y2="526.4"/>
</g>
<g>
	<rect x="107.4" y="504.9" class="st6" width="52.1" height="29.3"/>
	<polyline class="st5" points="127.7,527.2 139.1,519.4 127.7,511.5 127.7,527.2 	"/>
	<polyline class="st5" points="107.4,504.9 107.4,534.2 124.7,534.2 	"/>
</g>
<g>
	<g>
		<line class="st1" x1="283.8" y1="404.8" x2="304" y2="451"/>
		<line class="st1" x1="305.4" y1="454.2" x2="322.3" y2="492.8"/>
	</g>
	<line class="st2" x1="299.5" y1="451" x2="310.7" y2="476.7"/>
	<line class="st2" x1="297.5" y1="425.9" x2="308.8" y2="451.6"/>
	<g>
		<line class="st1" x1="196.4" y1="404.8" x2="176.2" y2="451"/>
		<line class="st1" x1="174.8" y1="454.2" x2="157.9" y2="492.8"/>
	</g>
	<line class="st2" x1="180.7" y1="451" x2="169.5" y2="476.7"/>
	<line class="st2" x1="182.7" y1="425.9" x2="171.4" y2="451.6"/>
</g>
<g>
	<circle class="st6" cx="156.3" cy="59" r="3.5"/>
	<circle class="st6" cx="169.7" cy="68.4" r="3.5"/>
	<circle class="st6" cx="181.2" cy="52.5" r="3.5"/>
	<line class="st6" x1="154" y1="61.6" x2="147.7" y2="69.3"/>
	<line class="st6" x1="159.3" y1="60.8" x2="167.1" y2="66.2"/>
	<line class="st6" x1="172.1" y1="65.7" x2="179" y2="55.1"/>
	<polyline class="st5" points="147.6,43.6 147.6,78.7 184.8,78.7 	"/>
</g>
<path class="st4" d="M303.7,391.5H179.4c-12.2,0-22.1-9.9-22.1-22.1l0,0c0-12.2,9.9-22.1,22.1-22.1h124.3c12.2,0,22.1,9.9,22.1,22.1
	l0,0C325.9,381.6,315.9,391.5,303.7,391.5z"/>
<path class="st4" d="M303.7,221.2H179.4c-12.2,0-22.1-9.9-22.1-22.1l0,0c0-12.2,9.9-22.1,22.1-22.1h124.3c12.2,0,22.1,9.9,22.1,22.1
	l0,0C325.9,211.3,315.9,221.2,303.7,221.2z"/>
<g>
	<rect x="213.8" y="43.5" class="st6" width="45.5" height="35.2"/>
	<polyline class="st5" points="259.3,43.5 213.8,43.5 213.8,78.7 	"/>
	<path class="st5" d="M235.3,73.3c6.8,0.2,12.4-5.2,12.6-11.9c0.2-6.8-5.2-12.4-11.9-12.6c-0.2,0-0.4,0-0.6,0"/>
	<path class="st6" d="M235.3,48.8c-6.8-0.2-12.4,5.2-12.6,11.9c-0.2,6.8,5.2,12.4,11.9,12.6c0.2,0,0.4,0,0.6,0"/>
	<path class="st6" d="M235.3,60.8c-1,0-1.8-0.8-1.8-1.8s0.8-1.8,1.8-1.8s1.8,0.8,1.8,1.8"/>
	<path class="st6" d="M235.3,60.8c1,0,1.8,0.8,1.8,1.8s-0.8,1.8-1.8,1.8s-1.8-0.8-1.8-1.8"/>
	<line class="st6" x1="235.6" y1="65" x2="235.6" y2="66.2"/>
	<line class="st6" x1="235.6" y1="55.4" x2="235.6" y2="56.6"/>
	<path class="st5" d="M234.1,52.4c-4.8,0.9-7.9,5.5-7,10.3c0.7,3.6,3.5,6.4,7,7"/>
	<path class="st6" d="M237.1,69.7c4.8-0.9,7.9-5.5,7-10.3c-0.7-3.6-3.5-6.4-7-7"/>
</g>
<g>
	<path class="st6" d="M297.7,78.9c0,1.8-1.4,3.2-3.2,3.2c-1.8,0-3.2-1.4-3.2-3.2c0-1.8,1.4-3.2,3.2-3.2l0,0
		C296.2,75.7,297.7,77.1,297.7,78.9L297.7,78.9z"/>
	<path class="st5" d="M322.9,78.9c0,1.8-1.4,3.2-3.2,3.2c-1.8,0-3.2-1.4-3.2-3.2c0-1.8,1.4-3.2,3.2-3.2l0,0
		C321.4,75.7,322.9,77.1,322.9,78.9L322.9,78.9z"/>
	<line class="st5" x1="316.2" y1="45.9" x2="316.2" y2="71"/>
	<line class="st6" x1="303.8" y1="45.9" x2="303.8" y2="71.2"/>
	<line class="st5" x1="328.7" y1="45.5" x2="326.5" y2="71.3"/>
	<line class="st5" x1="309.6" y1="45.5" x2="328.7" y2="45.5"/>
	<line class="st5" x1="326.5" y1="71.3" x2="310.1" y2="71.3"/>
	<line class="st5" x1="326.7" y1="58.4" x2="310.1" y2="58.4"/>
	<path class="st6" d="M310.1,71.3h-16.6l-2.3-26c-0.3-3-2.8-5.3-5.8-5.3"/>
	<line class="st6" x1="296.7" y1="45.5" x2="309.6" y2="45.5"/>
	<line class="st6" x1="309.6" y1="58.4" x2="292.3" y2="58.4"/>
</g>
<g>
	<path class="st5" d="M236.9,101.7h8.4c5,0,9,4,9,9l0,0v4.7"/>
	<path class="st5" d="M248.5,134.4v4.7l14.2,1.5c3,0.7,5.1,3.4,5.1,6.4v14.4"/>
	<polyline class="st5" points="267.8,161.5 263.9,161.5 241.6,161.5 	"/>
	<path class="st6" d="M254.3,110.3v11.2c0,7.8-5.7,14.1-12.7,14.1s-12.7-6.3-12.7-14.1v-7.1"/>
	<line class="st6" x1="228.9" y1="116" x2="236.2" y2="109.1"/>
	<path class="st6" d="M241.6,101.7h-4.7c-4.4,0-8,3.6-8,8v6.4"/>
	<path class="st6" d="M234.7,134.4v4.7l-14.2,1.5c-3,0.7-5.1,3.4-5.1,6.4v14.4h26.2"/>
	<path class="st5" d="M254.3,110.3v11.2c0,7.8-5.7,14.1-12.7,14.1"/>
	<path class="st6" d="M241.6,135.6c-7,0-12.7-6.3-12.7-14.1v-7.1"/>
	<path class="st6" d="M254.3,116c-11.7,0-18.1-6.9-18.1-6.9l-7.3,6.9v-6.4c0-4.4,3.6-8,8-8l0,0"/>
</g>
<g>
	<path class="st5" d="M174.2,100.6h6.4c3.8,0,6.9,3.1,6.9,6.9l0,0v3.6"/>
	<path class="st5" d="M183.1,125.6v3.6l10.8,1.2c2.3,0.5,3.9,2.6,3.9,4.9v11"/>
	<polyline class="st5" points="197.8,146.3 194.8,146.3 177.8,146.3 	"/>
	<path class="st6" d="M187.5,107.2v8.5c0,5.9-4.3,10.7-9.7,10.7s-9.7-4.8-9.7-10.7v-5.4"/>
	<line class="st6" x1="168.1" y1="111.5" x2="173.7" y2="106.3"/>
	<path class="st6" d="M177.8,100.6h-3.6c-3.4,0-6.1,2.7-6.1,6.1v4.8"/>
	<path class="st6" d="M172.5,125.6v3.6l-10.8,1.2c-2.3,0.5-3.9,2.6-3.9,4.9v11h20"/>
	<path class="st5" d="M187.5,107.2v8.5c0,5.9-4.3,10.7-9.7,10.7"/>
	<path class="st6" d="M177.8,126.5c-5.4,0-9.7-4.8-9.7-10.7v-5.4"/>
	<path class="st6" d="M187.5,111.5c-9,0-13.8-5.3-13.8-5.3l-5.6,5.3v-4.8c0-3.4,2.7-6.1,6.1-6.1l0,0"/>
</g>
<g>
	<path class="st5" d="M301.8,100.6h6.4c3.8,0,6.9,3.1,6.9,6.9l0,0v3.6"/>
	<path class="st5" d="M310.6,125.6v3.6l10.8,1.2c2.3,0.5,3.9,2.6,3.9,4.9v11"/>
	<polyline class="st5" points="325.4,146.3 322.4,146.3 305.4,146.3 	"/>
	<path class="st6" d="M315,107.2v8.5c0,5.9-4.3,10.7-9.7,10.7s-9.7-4.8-9.7-10.7v-5.4"/>
	<line class="st6" x1="295.7" y1="111.5" x2="301.2" y2="106.3"/>
	<path class="st6" d="M305.4,100.6h-3.6c-3.4,0-6.1,2.7-6.1,6.1v4.8"/>
	<path class="st6" d="M300.1,125.6v3.6l-10.8,1.2c-2.3,0.5-3.9,2.6-3.9,4.9v11h20"/>
	<path class="st5" d="M315,107.2v8.5c0,5.9-4.3,10.7-9.7,10.7"/>
	<path class="st6" d="M305.4,126.5c-5.4,0-9.7-4.8-9.7-10.7v-5.4"/>
	<path class="st6" d="M315,111.5c-9,0-13.8-5.3-13.8-5.3l-5.6,5.3v-4.8c0-3.4,2.7-6.1,6.1-6.1l0,0"/>
</g>
<g>
	<path class="st4" d="M45.2,365.6v-12.6h2.4v12.6H45.2z"/>
	<path class="st4" d="M56.1,352.3h2.2v10.9c0,0.6,0,1.2-0.1,1.8c-1.2,0.6-2.8,0.8-4.1,0.8c-3.5,0-4.9-1.2-4.9-4.9
		c0-3.7,1.4-4.9,4.6-4.9c0.7,0,1.6,0.1,2.3,0.3V352.3z M54.3,357.5c-2.8,0-2.9,1.4-2.9,3.3c0,1.8,0.1,3.4,2.6,3.4
		c0.7,0,1.5-0.1,1.9-0.3c0-0.4,0.1-0.9,0.1-1.3v-4.8C55.6,357.6,54.9,357.5,54.3,357.5z"/>
	<path class="st4" d="M62.2,361.9c0.1,1.9,1.2,2.3,2.8,2.3c1.4,0,2.7-0.1,3.8-0.2l0.2,1.5c-1.1,0.2-2.5,0.4-4.5,0.4
		c-3.5,0-4.5-2.1-4.5-4.9c0-3.5,1.2-4.9,4.7-4.9c3.8,0,4.6,1.8,4.6,4.7c0,0.2,0,0.5,0,0.7c-1.2,0.2-3.7,0.4-5.2,0.5L62.2,361.9z
		 M64.2,360.4c0.8,0,2-0.1,2.7-0.2c0-0.1,0-0.3,0-0.4c0-1.5-0.6-2.3-2.3-2.3c-2.2,0-2.5,1.3-2.5,3L64.2,360.4z"/>
	<path class="st4" d="M79.8,365.6h-2.2v-5.9c0-1.5-0.3-2.2-2.5-2.2c-0.7,0-1.5,0.1-1.9,0.3c0,0.4-0.1,0.9-0.1,1.3v6.5h-2.2v-7.1
		c0-0.6,0-1.2,0.1-1.8c1.2-0.5,2.8-0.8,4.7-0.8c3.7,0,4.1,1.6,4.1,3.6V365.6z"/>
	<path class="st4" d="M87.3,365.6c-0.5,0.1-1.1,0.1-1.6,0.1c-2.1,0-3-0.8-3-2.6v-5.6h-1.8V356h1.8v-2.4l2.2-0.3v2.7h2.2v1.5h-2.2
		v5.4c0,0.9,0.4,1.2,1.4,1.2c0.3,0,0.5,0,0.8,0L87.3,365.6z"/>
	<path class="st4" d="M89.6,354.7c-1.1,0-1.4-0.3-1.4-1.2c0-0.9,0.3-1.2,1.4-1.2c1,0,1.4,0.3,1.4,1.2
		C91,354.4,90.7,354.7,89.6,354.7z M88.5,365.6V356h2.3v9.6H88.5z"/>
	<path class="st4" d="M98.3,365.6c-0.5,0.1-1.1,0.1-1.6,0.1c-2.1,0-3-0.8-3-2.6v-5.6h-1.8V356h1.8v-2.4l2.2-0.3v2.7h2.2v1.5h-2.2
		v5.4c0,0.9,0.4,1.2,1.4,1.2c0.3,0,0.5,0,0.8,0L98.3,365.6z"/>
	<path class="st4" d="M104.2,362.4l2.2-6.4h2.3l-4.9,13.2h-2.3l1.6-4.2l-4.2-9h2.4L104.2,362.4z"/>
	<path class="st4" d="M28.1,385.2h-2.2v-7.1c0-0.6,0-1.2,0.1-1.8c1.2-0.6,2.8-0.8,4.1-0.8c0.3,0,0.7,0,1,0l-0.2,1.6
		c-0.2,0-0.5,0-0.8,0c-0.7,0-1.5,0.1-1.9,0.3c0,0.4-0.1,0.9-0.1,1.3V385.2z"/>
	<path class="st4" d="M33.9,381.5c0.1,1.9,1.2,2.3,2.8,2.3c1.4,0,2.7-0.1,3.8-0.2l0.2,1.5c-1.1,0.2-2.5,0.4-4.5,0.4
		c-3.5,0-4.5-2.1-4.5-4.9c0-3.5,1.2-4.9,4.7-4.9c3.8,0,4.6,1.8,4.6,4.7c0,0.2,0,0.5,0,0.7c-1.2,0.2-3.7,0.4-5.2,0.5L33.9,381.5z
		 M35.9,380c0.8,0,2-0.1,2.7-0.2c0-0.1,0-0.3,0-0.4c0-1.5-0.6-2.3-2.3-2.3c-2.2,0-2.5,1.3-2.5,3L35.9,380z"/>
	<path class="st4" d="M47.6,382.6c0-1.1-1.1-1.2-2.1-1.5c-1.7-0.5-3.3-0.9-3.3-2.9c0-2.1,1.6-2.7,3.7-2.7c1.5,0,2.5,0.1,3.7,0.4
		l-0.2,1.5c-0.8-0.1-1.7-0.3-2.6-0.3c-0.9,0-2.4,0-2.4,1c0,1,1.3,1.2,2.1,1.5c1.8,0.6,3.2,0.9,3.2,3c0,2.2-1.8,2.8-4.1,2.8
		c-1.1,0-2.5-0.1-3.6-0.4l0.2-1.5c0.8,0.1,2,0.3,2.8,0.3C46,383.7,47.6,383.7,47.6,382.6z"/>
	<path class="st4" d="M55.7,385.4c-3.4,0-4.7-1.3-4.7-4.9c0-3.6,1.2-4.9,4.7-4.9s4.7,1.4,4.7,4.9C60.4,384,59.1,385.4,55.7,385.4z
		 M55.7,383.7c1.9,0,2.4-0.8,2.4-3.3c0-2.5-0.5-3.3-2.4-3.3s-2.4,0.7-2.4,3.3C53.3,383.1,53.8,383.7,55.7,383.7z"/>
	<path class="st4" d="M61.9,371.9h2.2v10.8c0,0.9,0.2,1.5,0.8,2.2l-2,0.8c-0.7-0.7-1.1-1.6-1.1-2.9V371.9z"/>
	<path class="st4" d="M72.8,375.6H75v7.1c0,0.6,0,1.2-0.1,1.8c-1.2,0.5-2.7,0.8-4.7,0.8c-3.7,0-4.1-1.6-4.1-3.6v-6.2h2.2v5.9
		c0,1.5,0.3,2.2,2.4,2.2c0.7,0,1.4-0.1,1.9-0.3c0-0.4,0.1-0.9,0.1-1.3V375.6z"/>
	<path class="st4" d="M82.6,385.2c-0.5,0.1-1.1,0.1-1.6,0.1c-2.1,0-3-0.8-3-2.6v-5.6h-1.8v-1.5H78v-2.4l2.2-0.3v2.7h2.2v1.5h-2.2
		v5.4c0,0.9,0.4,1.2,1.4,1.2c0.3,0,0.5,0,0.8,0L82.6,385.2z"/>
	<path class="st4" d="M85,374.3c-1.1,0-1.4-0.3-1.4-1.2s0.3-1.2,1.4-1.2c1,0,1.4,0.3,1.4,1.2S86,374.3,85,374.3z M83.9,385.2v-9.6
		h2.3v9.6H83.9z"/>
	<path class="st4" d="M92.5,385.4c-3.4,0-4.7-1.3-4.7-4.9c0-3.6,1.2-4.9,4.7-4.9s4.7,1.4,4.7,4.9C97.2,384,95.9,385.4,92.5,385.4z
		 M92.5,383.7c1.9,0,2.4-0.8,2.4-3.3c0-2.5-0.5-3.3-2.4-3.3s-2.4,0.7-2.4,3.3C90.1,383.1,90.6,383.7,92.5,383.7z"/>
	<path class="st4" d="M107.7,385.2h-2.2v-5.9c0-1.5-0.3-2.2-2.5-2.2c-0.7,0-1.5,0.1-1.9,0.3c0,0.4-0.1,0.9-0.1,1.3v6.5h-2.2v-7.1
		c0-0.6,0-1.2,0.1-1.8c1.2-0.5,2.8-0.8,4.7-0.8c3.7,0,4.1,1.6,4.1,3.6V385.2z"/>
</g>
<g>
	<path class="st4" d="M136,23.2h-2.4V10.8c1.1-0.2,2.8-0.3,4.4-0.3c3,0,5.5,0.5,5.5,3.9c0,2.3-1.1,3.3-2.9,3.7l3.2,5.1h-2.8
		l-2.9-4.9c-0.7,0-1.5,0-2.1-0.1V23.2z M136,16.5c0.7,0.1,1.3,0.1,2,0.1c1.9,0,3.1-0.4,3.1-2.2c0-1.6-0.8-2.2-3-2.2
		c-0.6,0-1.4,0-2.1,0.1V16.5z"/>
	<path class="st4" d="M146.9,19.4c0.1,1.9,1.2,2.3,2.8,2.3c1.4,0,2.7-0.1,3.8-0.2l0.2,1.5c-1.1,0.2-2.5,0.4-4.5,0.4
		c-3.5,0-4.5-2.1-4.5-4.9c0-3.5,1.2-4.9,4.7-4.9c3.8,0,4.6,1.8,4.6,4.7c0,0.2,0,0.5,0,0.7c-1.2,0.2-3.7,0.4-5.2,0.5L146.9,19.4z
		 M149,17.9c0.8,0,2-0.1,2.7-0.2c0-0.1,0-0.3,0-0.4c0-1.5-0.6-2.3-2.3-2.3c-2.2,0-2.5,1.3-2.5,3L149,17.9z"/>
	<path class="st4" d="M157.8,26.7h-2.2V16.1c0-0.6,0-1.2,0.1-1.8c1.2-0.6,2.8-0.8,4.1-0.8c3.5,0,4.9,1.2,4.9,4.9
		c0,3.7-1.4,4.9-4.6,4.9c-0.7,0-1.6-0.1-2.3-0.3V26.7z M159.6,21.7c2.8,0,2.9-1.4,2.9-3.3c0-1.8-0.1-3.4-2.6-3.4
		c-0.7,0-1.5,0.1-1.9,0.3c0,0.4-0.1,0.9-0.1,1.3v4.8C158.3,21.6,159,21.7,159.6,21.7z"/>
	<path class="st4" d="M170.6,23.3c-3.4,0-4.7-1.3-4.7-4.9c0-3.6,1.2-4.9,4.7-4.9s4.7,1.4,4.7,4.9C175.3,21.9,174.1,23.3,170.6,23.3z
		 M170.6,21.7c1.9,0,2.4-0.8,2.4-3.3c0-2.5-0.5-3.3-2.4-3.3s-2.4,0.7-2.4,3.3C168.2,21,168.7,21.7,170.6,21.7z"/>
	<path class="st4" d="M179.2,23.2H177v-7.1c0-0.6,0-1.2,0.1-1.8c1.2-0.6,2.8-0.8,4.1-0.8c0.3,0,0.7,0,1,0l-0.2,1.6
		c-0.2,0-0.5,0-0.8,0c-0.7,0-1.5,0.1-1.9,0.3c0,0.4-0.1,0.9-0.1,1.3V23.2z"/>
	<path class="st4" d="M189.2,23.2c-0.5,0.1-1.1,0.1-1.6,0.1c-2.1,0-3-0.8-3-2.6v-5.6h-1.8v-1.5h1.8v-2.4l2.2-0.3v2.7h2.2v1.5h-2.2
		v5.4c0,0.9,0.4,1.2,1.4,1.2c0.3,0,0.5,0,0.8,0L189.2,23.2z"/>
	<path class="st4" d="M191.6,12.2c-1.1,0-1.4-0.3-1.4-1.2s0.3-1.2,1.4-1.2c1,0,1.4,0.3,1.4,1.2S192.6,12.2,191.6,12.2z M190.5,23.2
		v-9.6h2.3v9.6H190.5z"/>
	<path class="st4" d="M203.7,23.2h-2.2v-5.9c0-1.5-0.3-2.2-2.5-2.2c-0.7,0-1.5,0.1-1.9,0.3c0,0.4-0.1,0.9-0.1,1.3v6.5h-2.2v-7.1
		c0-0.6,0-1.2,0.1-1.8c1.2-0.5,2.8-0.8,4.7-0.8c3.7,0,4.1,1.6,4.1,3.6V23.2z"/>
	<path class="st4" d="M209.9,23.1c-3.1,0-4.6-1.2-4.6-4.8c0-3.7,1.5-4.8,4.9-4.8c1.4,0,3,0.2,4.1,0.8c0.1,0.6,0.1,1.1,0.1,1.8v7.8
		c0,2.5-1.9,3-4.2,3c-1.5,0-3.1-0.2-4.2-0.4l0.2-1.5c1.1,0.1,2.6,0.3,3.8,0.3c1.6,0,2.2-0.7,2.2-2v-0.4
		C211.5,23,210.6,23.1,209.9,23.1z M212.2,16.6c0-0.4,0-0.9-0.1-1.3c-0.5-0.2-1.2-0.3-1.9-0.3c-2.5,0-2.6,1.5-2.6,3.3
		c0,1.9,0.1,3.2,2.9,3.2c0.5,0,1.3-0.1,1.8-0.3V16.6z"/>
	<path class="st4" d="M219.3,21l-1.9,4.5h-1.9l1.2-4.5H219.3z"/>
	<path class="st4" d="M229.4,23.3c-3.4,0-4.7-1.3-4.7-4.9c0-3.6,1.2-4.9,4.7-4.9c3.4,0,4.7,1.4,4.7,4.9
		C234.1,21.9,232.8,23.3,229.4,23.3z M229.4,21.7c1.9,0,2.4-0.8,2.4-3.3c0-2.5-0.5-3.3-2.4-3.3s-2.4,0.7-2.4,3.3
		C227,21,227.5,21.7,229.4,21.7z"/>
	<path class="st4" d="M244.7,23.2h-2.2v-5.9c0-1.5-0.3-2.2-2.5-2.2c-0.7,0-1.5,0.1-1.9,0.3c0,0.4-0.1,0.9-0.1,1.3v6.5h-2.2v-7.1
		c0-0.6,0-1.2,0.1-1.8c1.2-0.5,2.8-0.8,4.7-0.8c3.7,0,4.1,1.6,4.1,3.6V23.2z"/>
	<path class="st4" d="M246.5,9.9h2.2v10.8c0,0.9,0.2,1.5,0.8,2.2l-2,0.8c-0.7-0.7-1.1-1.6-1.1-2.9V9.9z"/>
	<path class="st4" d="M251.9,12.2c-1.1,0-1.4-0.3-1.4-1.2s0.3-1.2,1.4-1.2c1,0,1.4,0.3,1.4,1.2S253,12.2,251.9,12.2z M250.8,23.2
		v-9.6h2.3v9.6H250.8z"/>
	<path class="st4" d="M264,23.2h-2.2v-5.9c0-1.5-0.3-2.2-2.5-2.2c-0.7,0-1.5,0.1-1.9,0.3c0,0.4-0.1,0.9-0.1,1.3v6.5h-2.2v-7.1
		c0-0.6,0-1.2,0.1-1.8c1.2-0.5,2.8-0.8,4.7-0.8c3.7,0,4.1,1.6,4.1,3.6V23.2z"/>
	<path class="st4" d="M267.9,19.4c0.1,1.9,1.2,2.3,2.8,2.3c1.4,0,2.7-0.1,3.8-0.2l0.2,1.5c-1.1,0.2-2.5,0.4-4.5,0.4
		c-3.5,0-4.5-2.1-4.5-4.9c0-3.5,1.2-4.9,4.7-4.9c3.8,0,4.6,1.8,4.6,4.7c0,0.2,0,0.5,0,0.7c-1.2,0.2-3.7,0.4-5.2,0.5L267.9,19.4z
		 M269.9,17.9c0.8,0,2-0.1,2.7-0.2c0-0.1,0-0.3,0-0.4c0-1.5-0.6-2.3-2.3-2.3c-2.2,0-2.5,1.3-2.5,3L269.9,17.9z"/>
	<path class="st4" d="M279.3,21l-1.9,4.5h-1.9l1.2-4.5H279.3z"/>
	<path class="st4" d="M286.2,12.2c-1.1,0-1.4-0.3-1.4-1.2s0.3-1.2,1.4-1.2c1,0,1.4,0.3,1.4,1.2S287.3,12.2,286.2,12.2z M285.1,23.2
		v-9.6h2.3v9.6H285.1z"/>
	<path class="st4" d="M298.3,23.2h-2.2v-5.9c0-1.5-0.3-2.2-2.5-2.2c-0.7,0-1.5,0.1-1.9,0.3c0,0.4-0.1,0.9-0.1,1.3v6.5h-2.2v-7.1
		c0-0.6,0-1.2,0.1-1.8c1.2-0.5,2.8-0.8,4.7-0.8c3.7,0,4.1,1.6,4.1,3.6V23.2z"/>
	<path class="st4" d="M300.2,19.3v-1.7h5.1v1.7H300.2z"/>
	<path class="st4" d="M312,20.6c0-1.1-1.1-1.2-2.1-1.5c-1.7-0.5-3.3-0.9-3.3-2.9c0-2.1,1.6-2.7,3.7-2.7c1.5,0,2.5,0.1,3.7,0.4
		l-0.2,1.5c-0.8-0.1-1.7-0.3-2.6-0.3c-0.9,0-2.4,0-2.4,1c0,1,1.3,1.2,2.1,1.5c1.8,0.6,3.2,0.9,3.2,3c0,2.2-1.8,2.8-4.1,2.8
		c-1.1,0-2.5-0.1-3.6-0.4l0.2-1.5c0.8,0.1,2,0.3,2.8,0.3C310.4,21.7,312,21.7,312,20.6z"/>
	<path class="st4" d="M321.6,23.2c-0.5,0.1-1.1,0.1-1.6,0.1c-2.1,0-3-0.8-3-2.6v-5.6h-1.8v-1.5h1.8v-2.4l2.2-0.3v2.7h2.2v1.5h-2.2
		v5.4c0,0.9,0.4,1.2,1.4,1.2c0.3,0,0.5,0,0.8,0L321.6,23.2z"/>
	<path class="st4" d="M326.9,23.3c-3.4,0-4.7-1.3-4.7-4.9c0-3.6,1.2-4.9,4.7-4.9c3.4,0,4.7,1.4,4.7,4.9
		C331.6,21.9,330.4,23.3,326.9,23.3z M326.9,21.7c1.9,0,2.4-0.8,2.4-3.3c0-2.5-0.5-3.3-2.4-3.3c-1.9,0-2.4,0.7-2.4,3.3
		C324.5,21,325,21.7,326.9,21.7z"/>
	<path class="st4" d="M335.5,23.2h-2.2v-7.1c0-0.6,0-1.2,0.1-1.8c1.2-0.6,2.8-0.8,4.1-0.8c0.3,0,0.7,0,1,0l-0.2,1.6
		c-0.2,0-0.5,0-0.8,0c-0.7,0-1.5,0.1-1.9,0.3c0,0.4-0.1,0.9-0.1,1.3V23.2z"/>
	<path class="st4" d="M341.3,19.4c0.1,1.9,1.2,2.3,2.8,2.3c1.4,0,2.7-0.1,3.8-0.2l0.2,1.5c-1.1,0.2-2.5,0.4-4.5,0.4
		c-3.5,0-4.5-2.1-4.5-4.9c0-3.5,1.2-4.9,4.7-4.9c3.8,0,4.6,1.8,4.6,4.7c0,0.2,0,0.5,0,0.7c-1.2,0.2-3.7,0.4-5.2,0.5L341.3,19.4z
		 M343.4,17.9c0.8,0,2-0.1,2.7-0.2c0-0.1,0-0.3,0-0.4c0-1.5-0.6-2.3-2.3-2.3c-2.2,0-2.5,1.3-2.5,3L343.4,17.9z"/>
</g>
<g>
	<path class="st4" d="M180.6,276.2v1.7h-3.5v10.8h-2.4v-10.8h-3.5v-1.7H180.6z"/>
	<path class="st4" d="M182.7,288.8h-2.2v-7.1c0-0.6,0-1.2,0.1-1.8c1.2-0.6,2.8-0.8,4.1-0.8c0.3,0,0.7,0,1,0l-0.2,1.6
		c-0.2,0-0.5,0-0.8,0c-0.7,0-1.5,0.1-1.9,0.3c0,0.4-0.1,0.9-0.1,1.3V288.8z"/>
	<path class="st4" d="M186.3,285.9c0-1.7,0.8-2.7,2.8-3c1.2-0.2,2.4-0.2,3.7-0.3c0-1.3-0.6-2-2.2-2c-1.3,0-2.6,0.1-3.7,0.2l-0.2-1.5
		c1.1-0.2,2.5-0.4,4.1-0.4c2.3,0,4.2,0.6,4.2,3v4.2c0,0.6,0,1.2-0.1,1.8c-1.2,0.6-2.7,0.8-4.7,0.8
		C187.4,288.9,186.3,287.9,186.3,285.9z M192.8,284c-0.9,0-2,0-2.9,0.2c-1.1,0.2-1.5,0.5-1.5,1.7c0,1.2,0.7,1.5,2.1,1.5
		c0.7,0,1.5,0,2.2-0.3c0-0.4,0.1-0.9,0.1-1.3V284z"/>
	<path class="st4" d="M205.9,288.8h-2.2v-5.9c0-1.5-0.3-2.2-2.5-2.2c-0.7,0-1.5,0.1-1.9,0.3c0,0.4-0.1,0.9-0.1,1.3v6.5H197v-7.1
		c0-0.6,0-1.2,0.1-1.8c1.2-0.5,2.8-0.8,4.7-0.8c3.7,0,4.1,1.6,4.1,3.6V288.8z"/>
	<path class="st4" d="M212.9,286.1c0-1.1-1.1-1.2-2.1-1.5c-1.7-0.5-3.3-0.9-3.3-2.9c0-2.1,1.6-2.7,3.7-2.7c1.5,0,2.5,0.1,3.7,0.4
		l-0.2,1.5c-0.8-0.1-1.7-0.3-2.6-0.3c-0.9,0-2.4,0-2.4,1c0,1,1.3,1.2,2.1,1.5c1.8,0.6,3.2,0.9,3.2,3c0,2.2-1.8,2.8-4.1,2.8
		c-1.1,0-2.5-0.1-3.6-0.4l0.2-1.5c0.8,0.1,2,0.3,2.8,0.3C211.3,287.3,212.9,287.3,212.9,286.1z"/>
	<path class="st4" d="M216.4,285.9c0-1.7,0.8-2.7,2.8-3c1.2-0.2,2.4-0.2,3.7-0.3c0-1.3-0.6-2-2.2-2c-1.3,0-2.6,0.1-3.7,0.2l-0.2-1.5
		c1.1-0.2,2.5-0.4,4.1-0.4c2.3,0,4.2,0.6,4.2,3v4.2c0,0.6,0,1.2-0.1,1.8c-1.2,0.6-2.7,0.8-4.7,0.8
		C217.5,288.9,216.4,287.9,216.4,285.9z M223,284c-0.9,0-2,0-2.9,0.2c-1.1,0.2-1.5,0.5-1.5,1.7c0,1.2,0.7,1.5,2.1,1.5
		c0.7,0,1.5,0,2.2-0.3c0-0.4,0.1-0.9,0.1-1.3V284z"/>
	<path class="st4" d="M233.9,280.9c-0.6-0.1-1.2-0.2-1.8-0.2c-2.8,0-3,0.7-3,3.2c0,2.4,0.1,3.3,3,3.3c0.6,0,1.2-0.1,1.8-0.2l0.2,1.6
		c-0.9,0.2-1.9,0.3-3.3,0.3c-3.5,0-4.1-2.4-4.1-5c0-3.1,0.8-4.8,4.6-4.8c1.1,0,2,0.1,2.7,0.3L233.9,280.9z"/>
	<path class="st4" d="M241.4,288.8c-0.5,0.1-1.1,0.1-1.6,0.1c-2.1,0-3-0.8-3-2.6v-5.6H235v-1.5h1.8v-2.4l2.2-0.3v2.7h2.2v1.5h-2.2
		v5.4c0,0.9,0.4,1.2,1.4,1.2c0.3,0,0.5,0,0.8,0L241.4,288.8z"/>
	<path class="st4" d="M243.8,277.8c-1.1,0-1.4-0.3-1.4-1.2s0.3-1.2,1.4-1.2c1,0,1.4,0.3,1.4,1.2S244.9,277.8,243.8,277.8z
		 M242.7,288.8v-9.6h2.3v9.6H242.7z"/>
	<path class="st4" d="M251.3,288.9c-3.4,0-4.7-1.3-4.7-4.9c0-3.6,1.2-4.9,4.7-4.9c3.4,0,4.7,1.4,4.7,4.9
		C256,287.5,254.8,288.9,251.3,288.9z M251.3,287.3c1.9,0,2.4-0.8,2.4-3.3c0-2.5-0.5-3.3-2.4-3.3c-1.9,0-2.4,0.7-2.4,3.3
		C248.9,286.6,249.4,287.3,251.3,287.3z"/>
	<path class="st4" d="M266.6,288.8h-2.2v-5.9c0-1.5-0.3-2.2-2.5-2.2c-0.7,0-1.5,0.1-1.9,0.3c0,0.4-0.1,0.9-0.1,1.3v6.5h-2.2v-7.1
		c0-0.6,0-1.2,0.1-1.8c1.2-0.5,2.8-0.8,4.7-0.8c3.7,0,4.1,1.6,4.1,3.6V288.8z"/>
	<path class="st4" d="M279.3,275.4h2.2v10.9c0,0.6,0,1.2-0.1,1.8c-1.2,0.6-2.8,0.8-4.1,0.8c-3.5,0-4.9-1.2-4.9-4.9
		c0-3.7,1.4-4.9,4.6-4.9c0.7,0,1.6,0.1,2.3,0.3V275.4z M277.5,280.6c-2.8,0-2.9,1.4-2.9,3.3c0,1.8,0.1,3.4,2.6,3.4
		c0.7,0,1.5-0.1,1.9-0.3c0-0.4,0.1-0.9,0.1-1.3v-4.8C278.8,280.7,278,280.6,277.5,280.6z"/>
	<path class="st4" d="M283,285.9c0-1.7,0.8-2.7,2.8-3c1.2-0.2,2.4-0.2,3.7-0.3c0-1.3-0.6-2-2.2-2c-1.3,0-2.6,0.1-3.7,0.2l-0.2-1.5
		c1.1-0.2,2.5-0.4,4.1-0.4c2.3,0,4.2,0.6,4.2,3v4.2c0,0.6,0,1.2-0.1,1.8c-1.2,0.6-2.7,0.8-4.7,0.8C284.1,288.9,283,287.9,283,285.9z
		 M289.5,284c-0.9,0-2,0-2.9,0.2c-1.1,0.2-1.5,0.5-1.5,1.7c0,1.2,0.7,1.5,2.1,1.5c0.7,0,1.5,0,2.2-0.3c0-0.4,0.1-0.9,0.1-1.3V284z"
		/>
	<path class="st4" d="M299.2,288.8c-0.5,0.1-1.1,0.1-1.6,0.1c-2.1,0-3-0.8-3-2.6v-5.6h-1.8v-1.5h1.8v-2.4l2.2-0.3v2.7h2.2v1.5h-2.2
		v5.4c0,0.9,0.4,1.2,1.4,1.2c0.3,0,0.5,0,0.8,0L299.2,288.8z"/>
	<path class="st4" d="M300,285.9c0-1.7,0.8-2.7,2.8-3c1.2-0.2,2.4-0.2,3.7-0.3c0-1.3-0.6-2-2.2-2c-1.3,0-2.6,0.1-3.7,0.2l-0.2-1.5
		c1.1-0.2,2.5-0.4,4.1-0.4c2.3,0,4.2,0.6,4.2,3v4.2c0,0.6,0,1.2-0.1,1.8c-1.2,0.6-2.7,0.8-4.7,0.8C301.1,288.9,300,287.9,300,285.9z
		 M306.6,284c-0.9,0-2,0-2.9,0.2c-1.1,0.2-1.5,0.5-1.5,1.7c0,1.2,0.7,1.5,2.1,1.5c0.7,0,1.5,0,2.2-0.3c0-0.4,0.1-0.9,0.1-1.3V284z"
		/>
</g>
<g>
	<path class="st7" d="M179.3,375c-0.9,0-2.4,0.1-3.1,0.1c-2.2,0-4.2-0.1-4.2-2.7v-8.5h2.5v7.9c0,1.2,0.2,1.5,1.7,1.5h3.2V375z"/>
	<path class="st7" d="M180,364.3c0-0.9,0.3-1.2,1.4-1.2c1,0,1.4,0.3,1.4,1.2c0,0.9-0.3,1.2-1.4,1.2C180.3,365.5,180,365.2,180,364.3
		z M180.2,366.5h2.3v8.6h-2.3V366.5z"/>
	<path class="st7" d="M189.8,373.9c-0.4,0.9-0.9,1.3-1.8,1.3c-0.8,0-1.4-0.4-1.8-1.3l-2.9-7.4h2.5l2.2,6.4l2.2-6.4h2.4L189.8,373.9z
		"/>
	<path class="st7" d="M193,370.8c0-3.1,1.1-4.4,4.2-4.4c3.4,0,4.1,1.6,4.1,4.2c0,0.2,0,0.5,0,0.7c-1.1,0.2-3.1,0.4-4.4,0.4l-1.5,0.1
		c0.1,1.3,0.9,1.7,2.2,1.7c1.3,0,2.4-0.1,3.4-0.2l0.2,1.6c-1,0.1-2.3,0.3-4.1,0.3C193.8,375.2,193,373.3,193,370.8z M196.8,370.3
		c0.6,0,1.6-0.1,2.1-0.2c0-0.1,0-0.2,0-0.3c0-1.1-0.5-1.7-1.8-1.7c-1.7,0-1.9,1-1.9,2.3L196.8,370.3z"/>
	<path class="st7" d="M205.2,375.1h-2.5v-11c1.1-0.2,2.5-0.3,4-0.3c2.7,0,4.9,0.5,4.9,3.5c0,2-0.9,2.9-2.3,3.3l2.8,4.5h-2.9
		l-2.5-4.2c-0.5,0-1.1,0-1.5,0V375.1z M205.2,369c0.5,0.1,1,0.1,1.5,0.1c1.5,0,2.4-0.4,2.4-1.8c0-1.2-0.6-1.7-2.4-1.7
		c-0.5,0-1.1,0-1.6,0.1V369z"/>
	<path class="st7" d="M212.6,372.5c0-1.5,0.7-2.5,2.6-2.7c1-0.1,2-0.2,3-0.2c0-1-0.5-1.4-1.7-1.4c-1.1,0-2.4,0.1-3.3,0.2l-0.2-1.6
		c1-0.2,2.3-0.3,3.7-0.3c2.1,0,3.8,0.5,3.8,2.8v3.6c0,0.6,0,1.1-0.1,1.6c-1.1,0.6-2.5,0.8-4.2,0.8
		C213.6,375.2,212.6,374.3,212.6,372.5z M218.2,370.9c-0.7,0-1.5,0.1-2.2,0.2c-0.8,0.2-1.1,0.4-1.1,1.3c0,0.9,0.6,1.1,1.6,1.1
		c0.5,0,1.1,0,1.6-0.2c0-0.3,0.1-0.8,0.1-1.1V370.9z"/>
	<path class="st7" d="M224.3,375.1H222v-6.3c0-0.6,0-1.1,0.1-1.6c1-0.5,2.5-0.8,4-0.8c1,0,1.8,0.2,2.3,0.5c0.8-0.3,1.9-0.5,2.9-0.5
		c3,0,3.4,1.5,3.4,3.2v5.5h-2.3v-5.3c0-1.1-0.3-1.7-1.6-1.7c-0.4,0-0.9,0.1-1.3,0.3c0.1,0.4,0.1,0.8,0.1,1.2v5.5h-2.3v-5.3
		c0-1.1-0.3-1.7-1.6-1.7c-0.4,0-0.9,0.1-1.2,0.2c0,0.3-0.1,0.8-0.1,1.1V375.1z"/>
	<path class="st7" d="M238.6,378.2h-2.3v-9.4c0-0.6,0-1.1,0.1-1.6c1-0.6,2.5-0.8,3.8-0.8c3.1,0,4.4,1,4.4,4.4c0,3.3-1.3,4.4-4.2,4.4
		c-0.6,0-1.2-0.1-1.8-0.2V378.2z M239.9,373.5c2.2,0,2.3-1.2,2.3-2.7c0-1.4-0.1-2.7-2.1-2.7c-0.5,0-1.1,0.1-1.5,0.2
		c0,0.3-0.1,0.8-0.1,1.1v3.9C239,373.4,239.5,373.5,239.9,373.5z"/>
	<path class="st7" d="M251.9,378.2h-2.3v-9.4c0-0.6,0-1.1,0.1-1.6c1-0.6,2.5-0.8,3.8-0.8c3.1,0,4.4,1,4.4,4.4c0,3.3-1.3,4.4-4.2,4.4
		c-0.6,0-1.2-0.1-1.8-0.2V378.2z M253.2,373.5c2.2,0,2.3-1.2,2.3-2.7c0-1.4-0.1-2.7-2.1-2.7c-0.5,0-1.1,0.1-1.5,0.2
		c0,0.3-0.1,0.8-0.1,1.1v3.9C252.3,373.4,252.8,373.5,253.2,373.5z"/>
	<path class="st7" d="M259.1,363.2h2.3v9.5c0,0.8,0.2,1.3,0.7,1.9l-2.1,0.9c-0.6-0.6-0.9-1.4-0.9-2.6V363.2z"/>
	<path class="st7" d="M262.6,372.5c0-1.5,0.7-2.5,2.6-2.7c1-0.1,2-0.2,3-0.2c0-1-0.5-1.4-1.7-1.4c-1.1,0-2.4,0.1-3.3,0.2l-0.2-1.6
		c1-0.2,2.3-0.3,3.7-0.3c2.1,0,3.8,0.5,3.8,2.8v3.6c0,0.6,0,1.1-0.1,1.6c-1.1,0.6-2.5,0.8-4.2,0.8
		C263.6,375.2,262.6,374.3,262.6,372.5z M268.2,370.9c-0.7,0-1.5,0.1-2.2,0.2c-0.8,0.2-1.1,0.4-1.1,1.3c0,0.9,0.6,1.1,1.6,1.1
		c0.5,0,1.1,0,1.6-0.2c0-0.3,0.1-0.8,0.1-1.1V370.9z"/>
	<path class="st7" d="M275.2,364.1v2.4h1.9v1.6h-1.9v4.4c0,0.7,0.3,1,1.1,1c0.3,0,0.5,0,0.8,0l0.2,1.5c-0.5,0.1-1.1,0.1-1.6,0.1
		c-2,0-2.8-0.8-2.8-2.4v-4.6h-1.5v-1.6h1.5v-2.1L275.2,364.1z"/>
	<path class="st7" d="M281.6,366.5h1.9v1.6h-1.9v6.9h-2.3v-6.9h-1.5v-1.6h1.5v-0.7c0-1.7,1-2.7,3-2.7c0.4,0,1,0,1.4,0.1l-0.2,1.5
		h-0.7c-0.8,0-1.2,0.3-1.2,1.1V366.5z"/>
	<path class="st7" d="M284.1,370.8c0-3.2,1.1-4.4,4.2-4.4c3.1,0,4.2,1.2,4.2,4.4c0,3.2-1.1,4.4-4.2,4.4
		C285.2,375.2,284.1,374,284.1,370.8z M290.1,370.8c0-2.1-0.4-2.7-1.9-2.7c-1.5,0-1.8,0.5-1.8,2.7c0,2.1,0.4,2.7,1.8,2.7
		C289.8,373.5,290.1,372.9,290.1,370.8z"/>
	<path class="st7" d="M293.8,375.1v-6.3c0-0.6,0-1.1,0.1-1.6c1-0.6,2.5-0.8,3.8-0.8c0.3,0,0.7,0,1,0l-0.2,1.7c-0.2,0-0.4,0-0.7,0
		c-0.5,0-1.2,0.1-1.6,0.3c0,0.3-0.1,0.8-0.1,1.1v5.5H293.8z"/>
	<path class="st7" d="M301.8,375.1h-2.3v-6.3c0-0.6,0-1.1,0.1-1.6c1-0.5,2.5-0.8,4-0.8c1,0,1.8,0.2,2.3,0.5c0.8-0.3,1.9-0.5,2.9-0.5
		c3,0,3.4,1.5,3.4,3.2v5.5h-2.3v-5.3c0-1.1-0.3-1.7-1.6-1.7c-0.4,0-0.9,0.1-1.3,0.3c0.1,0.4,0.1,0.8,0.1,1.2v5.5h-2.3v-5.3
		c0-1.1-0.3-1.7-1.6-1.7c-0.4,0-0.9,0.1-1.2,0.2c0,0.3-0.1,0.8-0.1,1.1V375.1z"/>
</g>
<g>
	<path class="st7" d="M184.8,205.3v-8.5c0-2.6,2-2.7,4.3-2.7c0.9,0,2.5,0,3.3,0.1v1.8H189c-1.5,0-1.7,0.3-1.7,1.5v1.3h4.9v1.8h-4.9
		v4.8H184.8z"/>
	<path class="st7" d="M193.4,194.5c0-0.9,0.3-1.2,1.4-1.2c1,0,1.4,0.3,1.4,1.2c0,0.9-0.3,1.2-1.4,1.2
		C193.7,195.7,193.4,195.4,193.4,194.5z M193.6,196.7h2.3v8.6h-2.3V196.7z"/>
	<path class="st7" d="M197.7,205.3V199c0-0.6,0-1.1,0.1-1.6c1-0.6,2.5-0.8,3.8-0.8c0.3,0,0.7,0,0.9,0l-0.2,1.7c-0.2,0-0.4,0-0.7,0
		c-0.5,0-1.2,0.1-1.6,0.3c0,0.3-0.1,0.8-0.1,1.1v5.5H197.7z"/>
	<path class="st7" d="M205.4,199c0,0.8,1,0.9,1.7,1.1c1.6,0.5,2.9,0.8,2.9,2.7c0,2-1.6,2.6-3.7,2.6c-1.1,0-2.4-0.1-3.3-0.4l0.2-1.6
		c0.7,0.1,1.8,0.3,2.5,0.3c0.7,0,1.9,0,1.9-0.8c0-0.8-0.8-0.9-1.6-1.1c-1.5-0.4-2.9-0.8-2.9-2.7c0-1.9,1.5-2.5,3.3-2.5
		c1.3,0,2.3,0.1,3.4,0.4l-0.2,1.6c-0.7-0.1-1.5-0.2-2.4-0.2C206.6,198.3,205.4,198.3,205.4,199z"/>
	<path class="st7" d="M214.6,194.3v2.4h1.9v1.6h-1.9v4.4c0,0.7,0.3,1,1.1,1c0.3,0,0.5,0,0.8,0l0.2,1.5c-0.5,0.1-1.1,0.1-1.6,0.1
		c-2,0-2.8-0.8-2.8-2.4v-4.6h-1.5v-1.6h1.5v-2.1L214.6,194.3z"/>
	<path class="st7" d="M216.9,200.2h4.6v1.7h-4.6V200.2z"/>
	<path class="st7" d="M225.4,208.4h-2.3V199c0-0.6,0-1.1,0.1-1.6c1-0.6,2.5-0.8,3.8-0.8c3.1,0,4.4,1,4.4,4.4c0,3.3-1.3,4.4-4.2,4.4
		c-0.6,0-1.2-0.1-1.8-0.2V208.4z M226.7,203.7c2.2,0,2.3-1.2,2.3-2.7c0-1.4-0.1-2.7-2.1-2.7c-0.5,0-1.1,0.1-1.5,0.2
		c0,0.3-0.1,0.8-0.1,1.1v3.9C225.8,203.6,226.3,203.7,226.7,203.7z"/>
	<path class="st7" d="M232.2,202.7c0-1.5,0.7-2.5,2.6-2.7c1-0.1,2-0.2,3-0.2c0-1-0.5-1.4-1.7-1.4c-1.1,0-2.4,0.1-3.3,0.2l-0.2-1.6
		c1-0.2,2.3-0.3,3.7-0.3c2.1,0,3.8,0.5,3.8,2.8v3.6c0,0.6,0,1.1-0.1,1.6c-1.1,0.6-2.5,0.8-4.2,0.8
		C233.3,205.4,232.2,204.5,232.2,202.7z M237.8,201.1c-0.7,0-1.5,0.1-2.2,0.2c-0.8,0.2-1.1,0.4-1.1,1.3c0,0.9,0.6,1.1,1.6,1.1
		c0.5,0,1.1,0,1.6-0.2c0-0.3,0.1-0.8,0.1-1.1V201.1z"/>
	<path class="st7" d="M241.7,205.3V199c0-0.6,0-1.1,0.1-1.6c1-0.6,2.5-0.8,3.8-0.8c0.3,0,0.7,0,1,0l-0.2,1.7c-0.2,0-0.4,0-0.7,0
		c-0.5,0-1.2,0.1-1.6,0.3c0,0.3-0.1,0.8-0.1,1.1v5.5H241.7z"/>
	<path class="st7" d="M250.9,194.3v2.4h1.9v1.6h-1.9v4.4c0,0.7,0.3,1,1.1,1c0.3,0,0.5,0,0.8,0l0.2,1.5c-0.5,0.1-1.1,0.1-1.6,0.1
		c-2,0-2.8-0.8-2.8-2.4v-4.6H247v-1.6h1.5v-2.1L250.9,194.3z"/>
	<path class="st7" d="M260,196.7h2.4l-4.4,11.7h-2.4l1.5-3.8l-3.8-8h2.5l2.3,5.3L260,196.7z"/>
	<path class="st7" d="M272.5,193.4h2.3v9.6c0,0.6,0,1.1-0.1,1.6c-1.1,0.6-2.5,0.8-3.8,0.8c-3.1,0-4.4-1-4.4-4.4
		c0-3.3,1.3-4.4,4.2-4.4c0.6,0,1.2,0.1,1.8,0.2V193.4z M271.2,198.3c-2.2,0-2.3,1.2-2.3,2.7c0,1.4,0.1,2.7,2.1,2.7
		c0.5,0,1.1-0.1,1.5-0.2c0-0.3,0.1-0.8,0.1-1.1v-3.9C272.1,198.4,271.6,198.3,271.2,198.3z"/>
	<path class="st7" d="M276,202.7c0-1.5,0.7-2.5,2.6-2.7c1-0.1,2-0.2,3-0.2c0-1-0.5-1.4-1.7-1.4c-1.1,0-2.4,0.1-3.3,0.2l-0.2-1.6
		c1-0.2,2.3-0.3,3.7-0.3c2.1,0,3.8,0.5,3.8,2.8v3.6c0,0.6,0,1.1-0.1,1.6c-1.1,0.6-2.5,0.8-4.2,0.8C277,205.4,276,204.5,276,202.7z
		 M281.6,201.1c-0.7,0-1.5,0.1-2.2,0.2c-0.8,0.2-1.1,0.4-1.1,1.3c0,0.9,0.6,1.1,1.6,1.1c0.5,0,1.1,0,1.6-0.2c0-0.3,0.1-0.8,0.1-1.1
		V201.1z"/>
	<path class="st7" d="M288.6,194.3v2.4h1.9v1.6h-1.9v4.4c0,0.7,0.3,1,1.1,1c0.3,0,0.5,0,0.8,0l0.2,1.5c-0.5,0.1-1.1,0.1-1.6,0.1
		c-2,0-2.8-0.8-2.8-2.4v-4.6h-1.5v-1.6h1.5v-2.1L288.6,194.3z"/>
	<path class="st7" d="M291.3,202.7c0-1.5,0.7-2.5,2.6-2.7c1-0.1,2-0.2,3-0.2c0-1-0.5-1.4-1.7-1.4c-1.1,0-2.4,0.1-3.3,0.2l-0.2-1.6
		c1-0.2,2.3-0.3,3.7-0.3c2.1,0,3.8,0.5,3.8,2.8v3.6c0,0.6,0,1.1-0.1,1.6c-1.1,0.6-2.5,0.8-4.2,0.8
		C292.3,205.4,291.3,204.5,291.3,202.7z M296.9,201.1c-0.7,0-1.5,0.1-2.2,0.2c-0.8,0.2-1.1,0.4-1.1,1.3c0,0.9,0.6,1.1,1.6,1.1
		c0.5,0,1.1,0,1.6-0.2c0-0.3,0.1-0.8,0.1-1.1V201.1z"/>
</g>
<g>
	<path class="st7" d="M104.1,565.7c0,1.1,0.8,1.3,2.2,1.6c2.3,0.6,3.3,1.4,3.3,3.4c0,2.5-1.6,3.4-4.5,3.4c-1.4,0-2.5-0.1-3.5-0.3
		l0.2-1.8c0.9,0.1,2.3,0.2,3.2,0.2c1.3,0,2.1-0.3,2.1-1.4c0-1-0.9-1.3-2-1.6c-2.2-0.6-3.5-1.2-3.5-3.4c0-2.4,1.6-3.2,4.4-3.2
		c1.3,0,2.6,0.2,3.5,0.4l-0.2,1.7c-0.8-0.1-1.8-0.2-2.7-0.2C105.6,564.5,104.1,564.6,104.1,565.7z"/>
	<path class="st7" d="M110.7,569.7c0-3.2,1.1-4.4,4.2-4.4c3.1,0,4.2,1.2,4.2,4.4c0,3.2-1.1,4.4-4.2,4.4
		C111.8,574.1,110.7,572.9,110.7,569.7z M116.7,569.7c0-2.1-0.4-2.7-1.9-2.7c-1.5,0-1.8,0.5-1.8,2.7c0,2.1,0.4,2.7,1.8,2.7
		C116.3,572.4,116.7,571.8,116.7,569.7z"/>
	<path class="st7" d="M126.8,573.8c-0.8,0.2-1.8,0.3-3.1,0.3c-3.1,0-3.6-2.2-3.6-4.5c0-2.8,0.7-4.3,4.2-4.3c1.1,0,1.9,0.1,2.5,0.3
		l-0.2,1.6c-0.6-0.1-1.1-0.2-1.7-0.2c-2.2,0-2.4,0.6-2.4,2.6c0,1.9,0.1,2.7,2.4,2.7c0.6,0,1.1-0.1,1.7-0.2L126.8,573.8z"/>
	<path class="st7" d="M127.8,563.2c0-0.9,0.3-1.2,1.4-1.2c1,0,1.4,0.3,1.4,1.2c0,0.9-0.3,1.2-1.4,1.2
		C128.1,564.4,127.8,564.1,127.8,563.2z M128,565.4h2.3v8.6H128V565.4z"/>
	<path class="st7" d="M131.6,571.4c0-1.5,0.7-2.5,2.6-2.7c1-0.1,2-0.2,3-0.2c0-1-0.5-1.4-1.7-1.4c-1.1,0-2.4,0.1-3.3,0.2l-0.2-1.6
		c1-0.2,2.3-0.3,3.7-0.3c2.1,0,3.8,0.5,3.8,2.8v3.6c0,0.6,0,1.1-0.1,1.6c-1.1,0.6-2.5,0.8-4.2,0.8
		C132.6,574.1,131.6,573.2,131.6,571.4z M137.2,569.8c-0.7,0-1.5,0.1-2.2,0.2c-0.8,0.2-1.1,0.4-1.1,1.3c0,0.9,0.6,1.1,1.6,1.1
		c0.5,0,1.1,0,1.6-0.2c0-0.3,0.1-0.8,0.1-1.1V569.8z"/>
	<path class="st7" d="M140.9,562.1h2.3v9.5c0,0.8,0.2,1.3,0.7,1.9l-2.1,0.9c-0.6-0.6-0.9-1.4-0.9-2.6V562.1z"/>
	<path class="st7" d="M148.3,571.4c0-1.5,0.7-2.5,2.6-2.7c1-0.1,2-0.2,3-0.2c0-1-0.5-1.4-1.7-1.4c-1.1,0-2.4,0.1-3.3,0.2l-0.2-1.6
		c1-0.2,2.3-0.3,3.7-0.3c2.1,0,3.8,0.5,3.8,2.8v3.6c0,0.6,0,1.1-0.1,1.6c-1.1,0.6-2.5,0.8-4.2,0.8
		C149.3,574.1,148.3,573.2,148.3,571.4z M153.9,569.8c-0.7,0-1.5,0.1-2.2,0.2c-0.8,0.2-1.1,0.4-1.1,1.3c0,0.9,0.6,1.1,1.6,1.1
		c0.5,0,1.1,0,1.6-0.2c0-0.3,0.1-0.8,0.1-1.1V569.8z"/>
	<path class="st7" d="M163.3,562.1h2.3v9.6c0,0.6,0,1.1-0.1,1.6c-1.1,0.6-2.5,0.8-3.8,0.8c-3.1,0-4.4-1-4.4-4.4
		c0-3.3,1.3-4.4,4.2-4.4c0.6,0,1.2,0.1,1.8,0.2V562.1z M162,567c-2.2,0-2.3,1.2-2.3,2.7c0,1.4,0.1,2.7,2.1,2.7
		c0.5,0,1.1-0.1,1.5-0.2c0-0.3,0.1-0.8,0.1-1.1v-3.9C162.9,567.1,162.4,567,162,567z"/>
</g>
<g>
	<path class="st7" d="M317.1,565.7c0,1.1-0.6,2.1-1.8,2.5c1.1,0.3,2,1.1,2,2.7c0,2.6-2.3,3.1-4.9,3.1c-1.6,0-3-0.1-4.2-0.3V563
		c1-0.2,2.5-0.3,4-0.3C314.5,562.7,317.1,563.1,317.1,565.7z M310.6,569.1v3.1c0.5,0.1,1,0.1,1.7,0.1c1.5,0,2.5-0.2,2.5-1.6
		c0-1.4-1.1-1.6-2.5-1.6H310.6z M312.2,567.5c1.4,0,2.4-0.2,2.4-1.5c0-1.3-1-1.5-2.5-1.5c-0.5,0-1,0-1.5,0.1v2.9H312.2z"/>
	<path class="st7" d="M318.3,571.4c0-1.5,0.7-2.5,2.6-2.7c1-0.1,2-0.2,3-0.2c0-1-0.5-1.4-1.7-1.4c-1.1,0-2.4,0.1-3.3,0.2l-0.2-1.6
		c1-0.2,2.3-0.3,3.7-0.3c2.1,0,3.8,0.5,3.8,2.8v3.6c0,0.6,0,1.1-0.1,1.6c-1.1,0.6-2.5,0.8-4.2,0.8
		C319.3,574.1,318.3,573.2,318.3,571.4z M323.8,569.8c-0.7,0-1.5,0.1-2.2,0.2c-0.8,0.2-1.1,0.4-1.1,1.3c0,0.9,0.6,1.1,1.6,1.1
		c0.5,0,1.1,0,1.6-0.2c0-0.3,0.1-0.8,0.1-1.1V569.8z"/>
	<path class="st7" d="M330.1,574h-2.3v-6.3c0-0.6,0-1.1,0.1-1.6c1.1-0.5,2.5-0.8,4.2-0.8c3.4,0,3.7,1.4,3.7,3.2v5.5h-2.3v-5.3
		c0-1.2-0.2-1.7-1.9-1.7c-0.5,0-1.1,0.1-1.4,0.2c0,0.3-0.1,0.8-0.1,1.1V574z"/>
	<path class="st7" d="M339.7,574h-2.3v-6.3c0-0.6,0-1.1,0.1-1.6c1.1-0.5,2.5-0.8,4.2-0.8c3.4,0,3.7,1.4,3.7,3.2v5.5H343v-5.3
		c0-1.2-0.2-1.7-1.9-1.7c-0.5,0-1.1,0.1-1.4,0.2c0,0.3-0.1,0.8-0.1,1.1V574z"/>
	<path class="st7" d="M346.6,569.7c0-3.1,1.1-4.4,4.2-4.4c3.4,0,4.1,1.6,4.1,4.2c0,0.2,0,0.5,0,0.7c-1.1,0.2-3.1,0.4-4.4,0.4
		l-1.5,0.1c0.1,1.3,0.9,1.7,2.2,1.7c1.3,0,2.4-0.1,3.4-0.2l0.2,1.6c-1,0.1-2.3,0.3-4.1,0.3C347.5,574.1,346.6,572.3,346.6,569.7z
		 M350.5,569.2c0.6,0,1.6-0.1,2.1-0.2c0-0.1,0-0.2,0-0.3c0-1.1-0.5-1.7-1.8-1.7c-1.7,0-1.9,1-1.9,2.3L350.5,569.2z"/>
	<path class="st7" d="M356.3,574v-6.3c0-0.6,0-1.1,0.1-1.6c1-0.6,2.5-0.8,3.8-0.8c0.3,0,0.7,0,1,0l-0.2,1.7c-0.2,0-0.4,0-0.7,0
		c-0.5,0-1.2,0.1-1.6,0.3c0,0.3-0.1,0.8-0.1,1.1v5.5H356.3z"/>
	<path class="st7" d="M365.2,571.4c0-1.5,0.7-2.5,2.6-2.7c1-0.1,2-0.2,3-0.2c0-1-0.5-1.4-1.7-1.4c-1.1,0-2.4,0.1-3.3,0.2l-0.2-1.6
		c1-0.2,2.3-0.3,3.7-0.3c2.1,0,3.8,0.5,3.8,2.8v3.6c0,0.6,0,1.1-0.1,1.6c-1.1,0.6-2.5,0.8-4.2,0.8
		C366.2,574.1,365.2,573.2,365.2,571.4z M370.8,569.8c-0.7,0-1.5,0.1-2.2,0.2c-0.8,0.2-1.1,0.4-1.1,1.3c0,0.9,0.6,1.1,1.6,1.1
		c0.5,0,1.1,0,1.6-0.2c0-0.3,0.1-0.8,0.1-1.1V569.8z"/>
	<path class="st7" d="M380.2,562.1h2.3v9.6c0,0.6,0,1.1-0.1,1.6c-1.1,0.6-2.5,0.8-3.8,0.8c-3.1,0-4.4-1-4.4-4.4
		c0-3.3,1.3-4.4,4.2-4.4c0.6,0,1.2,0.1,1.8,0.2V562.1z M378.9,567c-2.2,0-2.3,1.2-2.3,2.7c0,1.4,0.1,2.7,2.1,2.7
		c0.5,0,1.1-0.1,1.5-0.2c0-0.3,0.1-0.8,0.1-1.1v-3.9C379.8,567.1,379.3,567,378.9,567z"/>
</g>
<g>
	<g>
		<path class="st4" d="M206.6,451.3c-1.9,0-2.2,0.4-2.2,2v1.7h5.7v1.7h-5.7v1.9c0,1.6,0.3,2,2.2,2h3.7v1.7c-1,0-2.7,0.1-3.6,0.1
			c-2.4,0-4.7-0.1-4.7-3v-6.7c0-2.9,2.3-3,4.7-3c1,0,2.6,0,3.6,0.1v1.7H206.6z"/>
		<path class="st4" d="M221.6,462.2H219l-2.5-3.5l-2.5,3.5h-2.5l3.8-5l-3.5-4.6h2.6l2.3,3.1l2.3-3.1h2.4l-3.5,4.6L221.6,462.2z"/>
		<path class="st4" d="M225.1,465.7h-2.2v-10.7c0-0.6,0-1.2,0.1-1.8c1.2-0.6,2.8-0.8,4.1-0.8c3.5,0,4.9,1.2,4.9,4.9
			c0,3.7-1.4,4.9-4.6,4.9c-0.7,0-1.6-0.1-2.3-0.3V465.7z M226.9,460.7c2.8,0,2.9-1.4,2.9-3.3c0-1.8-0.1-3.4-2.6-3.4
			c-0.7,0-1.5,0.1-1.9,0.3c0,0.4-0.1,0.9-0.1,1.3v4.8C225.7,460.6,226.4,460.7,226.9,460.7z"/>
		<path class="st4" d="M238,462.3c-3.4,0-4.7-1.3-4.7-4.9c0-3.6,1.2-4.9,4.7-4.9c3.4,0,4.7,1.4,4.7,4.9
			C242.6,460.9,241.4,462.3,238,462.3z M238,460.7c1.9,0,2.4-0.8,2.4-3.3c0-2.5-0.5-3.3-2.4-3.3c-1.9,0-2.4,0.7-2.4,3.3
			C235.5,460,236,460.7,238,460.7z"/>
		<path class="st4" d="M249.3,459.6c0-1.1-1.1-1.2-2.1-1.5c-1.7-0.5-3.3-0.9-3.3-2.9c0-2.1,1.6-2.7,3.7-2.7c1.5,0,2.5,0.1,3.7,0.4
			l-0.2,1.5c-0.8-0.1-1.7-0.3-2.6-0.3c-0.9,0-2.4,0-2.4,1c0,1,1.3,1.2,2.1,1.5c1.8,0.6,3.2,0.9,3.2,3c0,2.2-1.8,2.8-4.1,2.8
			c-1.1,0-2.5-0.1-3.6-0.4l0.2-1.5c0.8,0.1,2,0.3,2.8,0.3C247.7,460.7,249.3,460.7,249.3,459.6z"/>
		<path class="st4" d="M259.7,452.6h2.2v7.1c0,0.6,0,1.2-0.1,1.8c-1.2,0.5-2.7,0.8-4.7,0.8c-3.7,0-4.1-1.6-4.1-3.6v-6.2h2.2v5.9
			c0,1.5,0.3,2.2,2.4,2.2c0.7,0,1.4-0.1,1.9-0.3c0-0.4,0.1-0.9,0.1-1.3V452.6z"/>
		<path class="st4" d="M266.2,462.2H264v-7.1c0-0.6,0-1.2,0.1-1.8c1.2-0.6,2.8-0.8,4.1-0.8c0.3,0,0.7,0,1,0l-0.2,1.6
			c-0.2,0-0.5,0-0.8,0c-0.7,0-1.5,0.1-1.9,0.3c0,0.4-0.1,0.9-0.1,1.3V462.2z"/>
		<path class="st4" d="M272,458.4c0.1,1.9,1.2,2.3,2.8,2.3c1.4,0,2.7-0.1,3.8-0.2l0.2,1.5c-1.1,0.2-2.5,0.4-4.5,0.4
			c-3.5,0-4.5-2.1-4.5-4.9c0-3.5,1.2-4.9,4.7-4.9c3.8,0,4.6,1.8,4.6,4.7c0,0.2,0,0.5,0,0.7c-1.2,0.2-3.7,0.4-5.2,0.5L272,458.4z
			 M274.1,456.9c0.8,0,2-0.1,2.7-0.2c0-0.1,0-0.3,0-0.4c0-1.5-0.6-2.3-2.3-2.3c-2.2,0-2.5,1.3-2.5,3L274.1,456.9z"/>
		<path class="st4" d="M228.7,468.5h2.2v10.9c0,0.6,0,1.2-0.1,1.8c-1.2,0.6-2.8,0.8-4.1,0.8c-3.5,0-4.9-1.2-4.9-4.9
			c0-3.7,1.4-4.9,4.6-4.9c0.7,0,1.6,0.1,2.3,0.3V468.5z M226.9,473.6c-2.8,0-2.9,1.4-2.9,3.3c0,1.8,0.1,3.4,2.6,3.4
			c0.7,0,1.5-0.1,1.9-0.3c0-0.4,0.1-0.9,0.1-1.3v-4.8C228.2,473.7,227.5,473.6,226.9,473.6z"/>
		<path class="st4" d="M232.4,478.9c0-1.7,0.8-2.7,2.8-3c1.2-0.2,2.4-0.2,3.7-0.3c0-1.3-0.6-2-2.2-2c-1.3,0-2.6,0.1-3.7,0.2
			l-0.2-1.5c1.1-0.2,2.5-0.4,4.1-0.4c2.3,0,4.2,0.6,4.2,3v4.2c0,0.6,0,1.2-0.1,1.8c-1.2,0.6-2.7,0.8-4.7,0.8
			C233.5,481.9,232.4,480.9,232.4,478.9z M239,477c-0.9,0-2,0-2.9,0.2c-1.1,0.2-1.5,0.5-1.5,1.7c0,1.2,0.7,1.5,2.1,1.5
			c0.7,0,1.5,0,2.2-0.3c0-0.4,0.1-0.9,0.1-1.3V477z"/>
		<path class="st4" d="M248.6,481.8c-0.5,0.1-1.1,0.1-1.6,0.1c-2.1,0-3-0.8-3-2.6v-5.6h-1.8v-1.5h1.8v-2.4l2.2-0.3v2.7h2.2v1.5h-2.2
			v5.4c0,0.9,0.4,1.2,1.4,1.2c0.3,0,0.5,0,0.8,0L248.6,481.8z"/>
		<path class="st4" d="M249.4,478.9c0-1.7,0.8-2.7,2.8-3c1.2-0.2,2.4-0.2,3.7-0.3c0-1.3-0.6-2-2.2-2c-1.3,0-2.6,0.1-3.7,0.2
			l-0.2-1.5c1.1-0.2,2.5-0.4,4.1-0.4c2.3,0,4.2,0.6,4.2,3v4.2c0,0.6,0,1.2-0.1,1.8c-1.2,0.6-2.7,0.8-4.7,0.8
			C250.6,481.9,249.4,480.9,249.4,478.9z M256,477c-0.9,0-2,0-2.9,0.2c-1.1,0.2-1.5,0.5-1.5,1.7c0,1.2,0.7,1.5,2.1,1.5
			c0.7,0,1.5,0,2.2-0.3c0-0.4,0.1-0.9,0.1-1.3V477z"/>
	</g>
</g>
</svg>
