<?xml version="1.0" encoding="utf-8"?>
<!-- Generator: Adobe Illustrator 23.0.4, SVG Export Plug-In . SVG Version: 6.00 Build 0)  -->
<svg version="1.1" id="a7bfbb7d-5fc4-4fb4-8509-db37730cfe67"
	 xmlns="http://www.w3.org/2000/svg" xmlns:xlink="http://www.w3.org/1999/xlink" x="0px" y="0px" viewBox="0 0 560 600"
	 style="enable-background:new 0 0 560 600;" xml:space="preserve">
<style type="text/css">
	.st0{fill:#91CAE6;}
	.st1{fill:none;stroke:#73C06B;stroke-width:2;stroke-linecap:round;stroke-miterlimit:10;stroke-dasharray:0,4;}
	.st2{fill:none;stroke:#73C06B;stroke-width:2;stroke-linecap:round;stroke-miterlimit:10;}
	.st3{fill:none;stroke:#00A8E1;stroke-width:2;stroke-linecap:round;stroke-miterlimit:10;}
	.st4{fill:none;stroke:#00A8E1;stroke-width:2;stroke-linecap:round;stroke-linejoin:round;}
	.st5{fill:none;stroke:#73C06B;stroke-width:2;stroke-linecap:round;stroke-linejoin:round;}
	.st6{fill:#F6F9FB;}
	.st7{fill:#FFFFFF;}
</style>
<title>important-outcomes-2</title>
<path class="st0" d="M342.1,365.9H217.9c-12.2,0-22.1-9.9-22.1-22.1l0,0c0-12.2,9.9-22.1,22.1-22.1h124.3c12.2,0,22.1,9.9,22.1,22.1
	l0,0C364.3,356,354.4,365.9,342.1,365.9z"/>
<line class="st1" x1="155.5" y1="345.6" x2="188.9" y2="345.6"/>
<path class="st0" d="M332.9,585.6H227.1c-12.2,0-22.1-9.9-22.1-22.1l0,0c0-12.2,9.9-22.1,22.1-22.1h105.7c12.2,0,22.1,9.9,22.1,22.1
	l0,0C355,575.7,345.1,585.6,332.9,585.6z"/>
<g>
	<line class="st2" x1="279.4" y1="486.2" x2="279.4" y2="440.7"/>
	<line class="st3" x1="285.5" y1="460.6" x2="285.5" y2="433"/>
	<line class="st3" x1="274.5" y1="436.5" x2="274.5" y2="409"/>
	<line class="st2" x1="279.4" y1="429.3" x2="279.4" y2="387.2"/>
</g>
<line class="st2" x1="410.9" y1="476.8" x2="391.6" y2="435.7"/>
<line class="st3" x1="410.4" y1="461.3" x2="404.6" y2="449.6"/>
<line class="st3" x1="377.7" y1="416.8" x2="370.3" y2="400.8"/>
<line class="st2" x1="386.8" y1="425.4" x2="369" y2="387.2"/>
<path class="st0" d="M523.3,585.6H417.6c-12.2,0-22.1-9.9-22.1-22.1l0,0c0-12.2,9.9-22.1,22.1-22.1h105.7c12.2,0,22.1,9.9,22.1,22.1
	l0,0C545.4,575.7,535.5,585.6,523.3,585.6z"/>
<path class="st0" d="M142.4,585.6H36.7c-12.2,0-22.1-9.9-22.1-22.1l0,0c0-12.2,9.9-22.1,22.1-22.1h105.7c12.2,0,22.1,9.9,22.1,22.1
	l0,0C164.6,575.7,154.6,585.6,142.4,585.6z"/>
<g>
	<path class="st4" d="M212.6,75h6.4c3.8,0,6.9,3.1,6.9,6.9l0,0v3.6"/>
	<path class="st4" d="M221.5,100v3.6l10.8,1.2c2.3,0.5,3.9,2.6,3.9,4.9v11"/>
	<polyline class="st4" points="236.2,120.7 233.3,120.7 216.2,120.7 	"/>
	<path class="st5" d="M225.9,81.6v8.5c0,5.9-4.3,10.7-9.7,10.7s-9.7-4.8-9.7-10.7v-5.4"/>
	<line class="st5" x1="206.5" y1="85.9" x2="212.1" y2="80.7"/>
	<path class="st5" d="M216.2,75h-3.6c-3.4,0-6.1,2.7-6.1,6.1v4.8"/>
	<path class="st5" d="M211,100v3.6l-10.8,1.2c-2.3,0.5-3.9,2.6-3.9,4.9v11h20"/>
	<path class="st4" d="M225.9,81.6v8.5c0,5.9-4.3,10.7-9.7,10.7"/>
	<path class="st5" d="M216.2,100.9c-5.4,0-9.7-4.8-9.7-10.7v-5.4"/>
	<path class="st5" d="M225.9,85.9c-9,0-13.8-5.3-13.8-5.3l-5.6,5.3v-4.8c0-3.4,2.7-6.1,6.1-6.1l0,0"/>
</g>
<g>
	<path class="st4" d="M340.2,75h6.4c3.8,0,6.9,3.1,6.9,6.9l0,0v3.6"/>
	<path class="st4" d="M349,100v3.6l10.8,1.2c2.3,0.5,3.9,2.6,3.9,4.9v11"/>
	<polyline class="st4" points="363.8,120.7 360.8,120.7 343.8,120.7 	"/>
	<path class="st5" d="M353.5,81.6v8.5c0,5.9-4.3,10.7-9.7,10.7s-9.7-4.8-9.7-10.7v-5.4"/>
	<line class="st5" x1="334.1" y1="85.9" x2="339.7" y2="80.7"/>
	<path class="st5" d="M343.8,75h-3.6c-3.4,0-6.1,2.7-6.1,6.1v4.8"/>
	<path class="st5" d="M338.5,100v3.6l-10.8,1.2c-2.3,0.5-3.9,2.6-3.9,4.9v11h20"/>
	<path class="st4" d="M353.5,81.6v8.5c0,5.9-4.3,10.7-9.7,10.7"/>
	<path class="st5" d="M343.8,100.9c-5.4,0-9.7-4.8-9.7-10.7v-5.4"/>
	<path class="st5" d="M353.5,85.9c-9,0-13.8-5.3-13.8-5.3l-5.6,5.3v-4.8c0-3.4,2.7-6.1,6.1-6.1l0,0"/>
</g>
<g>
	<line class="st2" x1="277.9" y1="306" x2="277.9" y2="260.5"/>
	<line class="st3" x1="284" y1="280.4" x2="284" y2="252.8"/>
	<line class="st3" x1="273.1" y1="256.3" x2="273.1" y2="228.8"/>
	<line class="st2" x1="277.9" y1="249.1" x2="277.9" y2="207"/>
</g>
<g>
	<path class="st4" d="M85.7,488.5h6.9c4.1,0,7.4,3.3,7.4,7.4l0,0v3.9"/>
	<path class="st4" d="M95.2,515.4v3.9l11.6,1.3c2.5,0.6,4.2,2.8,4.2,5.3v11.8"/>
	<polyline class="st4" points="111.1,537.7 107.9,537.7 89.6,537.7 	"/>
	<path class="st5" d="M100,495.6v9.2c0,6.4-4.7,11.6-10.4,11.6s-10.4-5.2-10.4-11.6V499"/>
	<line class="st5" x1="79.1" y1="500.3" x2="85.1" y2="494.6"/>
	<path class="st5" d="M89.6,488.5h-3.9c-3.6,0-6.6,2.9-6.6,6.6l0,0v5.2"/>
	<path class="st5" d="M83.9,515.4v3.9l-11.6,1.3c-2.5,0.6-4.2,2.8-4.2,5.3v11.8h21.5"/>
	<path class="st4" d="M100,495.6v9.2c0,6.4-4.7,11.6-10.4,11.6"/>
	<path class="st5" d="M89.6,516.4c-5.8,0-10.4-5.2-10.4-11.6V499"/>
	<path class="st5" d="M100,500.3c-9.7,0-14.9-5.7-14.9-5.7l-6,5.7v-5.2c0-3.6,2.9-6.6,6.6-6.6"/>
</g>
<g>
	<g>
		<rect x="252.2" y="17.9" class="st5" width="45.5" height="35.2"/>
		<polyline class="st4" points="297.7,17.9 252.2,17.9 252.2,53.1 		"/>
		<path class="st4" d="M273.7,47.7c6.8,0.2,12.4-5.2,12.6-11.9c0.2-6.8-5.2-12.4-11.9-12.6c-0.2,0-0.4,0-0.6,0"/>
		<path class="st5" d="M273.7,23.3c-6.8-0.2-12.4,5.2-12.6,11.9s5.2,12.4,11.9,12.6c0.2,0,0.4,0,0.6,0"/>
		<path class="st5" d="M273.7,35.2c-1,0-1.8-0.8-1.8-1.8s0.8-1.8,1.8-1.8s1.8,0.8,1.8,1.8"/>
		<path class="st5" d="M273.7,35.2c1,0,1.8,0.8,1.8,1.8s-0.8,1.8-1.8,1.8s-1.8-0.8-1.8-1.8"/>
		<line class="st5" x1="274" y1="39.4" x2="274" y2="40.6"/>
		<line class="st5" x1="274" y1="29.8" x2="274" y2="31"/>
		<path class="st4" d="M272.5,26.8c-4.8,0.9-7.9,5.5-7,10.3c0.7,3.6,3.5,6.4,7,7"/>
		<path class="st5" d="M275.5,44.1c4.8-0.9,7.9-5.5,7-10.3c-0.7-3.6-3.5-6.4-7-7"/>
	</g>
	<g>
		<path class="st5" d="M336.1,53.3c0,1.8-1.4,3.2-3.2,3.2c-1.8,0-3.2-1.4-3.2-3.2s1.4-3.2,3.2-3.2l0,0
			C334.7,50.1,336.1,51.5,336.1,53.3L336.1,53.3z"/>
		<path class="st4" d="M361.3,53.3c0,1.8-1.4,3.2-3.2,3.2c-1.8,0-3.2-1.4-3.2-3.2s1.4-3.2,3.2-3.2l0,0
			C359.9,50.1,361.3,51.6,361.3,53.3L361.3,53.3z"/>
		<line class="st4" x1="354.6" y1="20.3" x2="354.6" y2="45.4"/>
		<line class="st5" x1="342.2" y1="20.3" x2="342.2" y2="45.6"/>
		<line class="st4" x1="367.1" y1="19.9" x2="364.9" y2="45.7"/>
		<line class="st4" x1="348.1" y1="19.9" x2="367.1" y2="19.9"/>
		<line class="st4" x1="364.9" y1="45.7" x2="348.5" y2="45.7"/>
		<line class="st4" x1="365.2" y1="32.8" x2="348.5" y2="32.8"/>
		<path class="st5" d="M348.5,45.7h-16.6l-2.3-26c-0.3-3-2.8-5.3-5.8-5.3"/>
		<line class="st5" x1="335.2" y1="19.9" x2="348.1" y2="19.9"/>
		<line class="st5" x1="348.1" y1="32.8" x2="330.8" y2="32.8"/>
	</g>
	<g>
		<polyline class="st4" points="209.1,16.7 192.9,16.7 192.9,52.6 219.3,52.6 219.3,32.2 		"/>
		<polyline class="st5" points="192.9,16.7 192.9,52.6 219.3,52.6 		"/>
		<polygon class="st4" points="219.2,26.9 209.1,26.9 209.1,16.7 		"/>
		<line class="st5" x1="198.4" y1="34.5" x2="214.3" y2="34.5"/>
		<line class="st5" x1="198.4" y1="39.2" x2="214.3" y2="39.2"/>
		<line class="st5" x1="198.4" y1="44" x2="214.3" y2="44"/>
	</g>
</g>
<g>
	<rect x="440.5" y="500.6" class="st4" width="55.1" height="25"/>
	<polyline class="st5" points="440.5,500.6 440.5,525.6 458.7,525.6 	"/>
	<line class="st5" x1="447.3" y1="512" x2="458.5" y2="512"/>
	<line class="st5" x1="447.3" y1="516" x2="458.5" y2="516"/>
	<line class="st5" x1="447.3" y1="520" x2="458.5" y2="520"/>
</g>
<g>
	<rect x="254" y="498.5" class="st5" width="52.1" height="29.3"/>
	<polyline class="st4" points="274.3,520.8 285.7,512.9 274.3,505.1 274.3,520.8 	"/>
	<polyline class="st4" points="254,498.5 254,527.7 271.3,527.7 	"/>
</g>
<rect x="338.7" y="419.7" class="st6" width="105.7" height="28.2"/>
<line class="st2" x1="192.3" y1="387.2" x2="174.4" y2="425.4"/>
<rect x="118.4" y="419.7" class="st6" width="109" height="28.2"/>
<line class="st2" x1="227" y1="449.6" x2="116.8" y2="449.6"/>
<path class="st0" d="M342.1,195.6H217.9c-12.2,0-22.1-9.9-22.1-22.1l0,0c0-12.2,9.9-22.1,22.1-22.1h124.3c12.2,0,22.1,9.9,22.1,22.1
	l0,0C364.3,185.7,354.4,195.6,342.1,195.6z"/>
<g>
	<path class="st4" d="M275.3,76.1h8.4c5,0,9,4,9,9l0,0v4.7"/>
	<path class="st4" d="M286.9,108.8v4.7l14.2,1.5c3,0.7,5.1,3.4,5.1,6.4V136"/>
	<polyline class="st4" points="306.2,136 302.3,136 280,136 	"/>
	<path class="st5" d="M292.7,84.7v11.2c0,7.8-5.7,14.1-12.7,14.1s-12.7-6.3-12.7-14.1v-7.1"/>
	<line class="st5" x1="267.3" y1="90.4" x2="274.6" y2="83.5"/>
	<path class="st5" d="M280,76.1h-4.7c-4.4,0-8,3.6-8,8v6.4"/>
	<path class="st5" d="M273.1,108.8v4.7l-14.2,1.5c-3,0.7-5.1,3.4-5.1,6.4V136H280"/>
	<path class="st4" d="M292.7,84.7v11.2c0,7.8-5.7,14.1-12.7,14.1"/>
	<path class="st5" d="M280,110c-7,0-12.7-6.3-12.7-14.1v-7.1"/>
	<path class="st5" d="M292.7,90.4c-11.7,0-18.1-6.9-18.1-6.9l-7.3,6.9V84c0-4.4,3.6-8,8-8l0,0"/>
</g>
<g>
	<path class="st0" d="M83.6,340.7v-12.6H86v12.6H83.6z"/>
	<path class="st0" d="M94.5,327.4h2.2v10.9c0,0.6,0,1.2-0.1,1.8c-1.2,0.6-2.8,0.8-4.1,0.8c-3.5,0-4.9-1.2-4.9-4.9
		c0-3.7,1.4-4.9,4.6-4.9c0.7,0,1.6,0.1,2.3,0.3V327.4z M92.7,332.5c-2.8,0-2.9,1.4-2.9,3.3c0,1.8,0.1,3.4,2.6,3.4
		c0.7,0,1.5-0.1,1.9-0.3c0-0.4,0.1-0.9,0.1-1.3v-4.8C94,332.7,93.3,332.5,92.7,332.5z"/>
	<path class="st0" d="M100.6,336.9c0.1,1.9,1.2,2.3,2.8,2.3c1.4,0,2.7-0.1,3.8-0.2l0.2,1.5c-1.1,0.2-2.5,0.4-4.5,0.4
		c-3.5,0-4.5-2.1-4.5-4.9c0-3.5,1.2-4.9,4.7-4.9c3.8,0,4.6,1.8,4.6,4.7c0,0.2,0,0.5,0,0.7c-1.2,0.2-3.7,0.4-5.2,0.5L100.6,336.9z
		 M102.6,335.4c0.8,0,2-0.1,2.7-0.2c0-0.1,0-0.3,0-0.4c0-1.5-0.6-2.3-2.3-2.3c-2.2,0-2.5,1.3-2.5,3L102.6,335.4z"/>
	<path class="st0" d="M118.2,340.7h-2.2v-5.9c0-1.5-0.3-2.2-2.5-2.2c-0.7,0-1.5,0.1-1.9,0.3c0,0.4-0.1,0.9-0.1,1.3v6.5h-2.2v-7.1
		c0-0.6,0-1.2,0.1-1.8c1.2-0.5,2.8-0.8,4.7-0.8c3.7,0,4.1,1.6,4.1,3.6V340.7z"/>
	<path class="st0" d="M125.7,340.7c-0.5,0.1-1.1,0.1-1.6,0.1c-2.1,0-3-0.8-3-2.6v-5.6h-1.8v-1.5h1.8v-2.4l2.2-0.3v2.7h2.2v1.5h-2.2
		v5.4c0,0.9,0.4,1.2,1.4,1.2c0.3,0,0.5,0,0.8,0L125.7,340.7z"/>
	<path class="st0" d="M128,329.7c-1.1,0-1.4-0.3-1.4-1.2c0-0.9,0.3-1.2,1.4-1.2c1,0,1.4,0.3,1.4,1.2
		C129.4,329.4,129.1,329.7,128,329.7z M126.9,340.7v-9.6h2.3v9.6H126.9z"/>
	<path class="st0" d="M136.7,340.7c-0.5,0.1-1.1,0.1-1.6,0.1c-2.1,0-3-0.8-3-2.6v-5.6h-1.8v-1.5h1.8v-2.4l2.2-0.3v2.7h2.2v1.5h-2.2
		v5.4c0,0.9,0.4,1.2,1.4,1.2c0.3,0,0.5,0,0.8,0L136.7,340.7z"/>
	<path class="st0" d="M142.6,337.5l2.2-6.4h2.3l-4.9,13.2h-2.3l1.6-4.2l-4.2-9h2.4L142.6,337.5z"/>
	<path class="st0" d="M66.5,360.3h-2.2v-7.1c0-0.6,0-1.2,0.1-1.8c1.2-0.6,2.8-0.8,4.1-0.8c0.3,0,0.7,0,1,0l-0.2,1.6
		c-0.2,0-0.5,0-0.8,0c-0.7,0-1.5,0.1-1.9,0.3c0,0.4-0.1,0.9-0.1,1.3V360.3z"/>
	<path class="st0" d="M72.3,356.5c0.1,1.9,1.2,2.3,2.8,2.3c1.4,0,2.7-0.1,3.8-0.2l0.2,1.5c-1.1,0.2-2.5,0.4-4.5,0.4
		c-3.5,0-4.5-2.1-4.5-4.9c0-3.5,1.2-4.9,4.7-4.9c3.8,0,4.6,1.8,4.6,4.7c0,0.2,0,0.5,0,0.7c-1.2,0.2-3.7,0.4-5.2,0.5L72.3,356.5z
		 M74.3,355c0.8,0,2-0.1,2.7-0.2c0-0.1,0-0.3,0-0.4c0-1.5-0.6-2.3-2.3-2.3c-2.2,0-2.5,1.3-2.5,3L74.3,355z"/>
	<path class="st0" d="M86,357.7c0-1.1-1.1-1.2-2.1-1.5c-1.7-0.5-3.3-0.9-3.3-2.9c0-2.1,1.6-2.7,3.7-2.7c1.5,0,2.5,0.1,3.7,0.4
		l-0.2,1.5c-0.8-0.1-1.7-0.3-2.6-0.3c-0.9,0-2.4,0-2.4,1c0,1,1.3,1.2,2.1,1.5c1.8,0.6,3.2,0.9,3.2,3c0,2.2-1.8,2.8-4.1,2.8
		c-1.1,0-2.5-0.1-3.6-0.4l0.2-1.5c0.8,0.1,2,0.3,2.8,0.3C84.4,358.8,86,358.8,86,357.7z"/>
	<path class="st0" d="M94.1,360.4c-3.4,0-4.7-1.3-4.7-4.9c0-3.6,1.2-4.9,4.7-4.9s4.7,1.4,4.7,4.9C98.8,359,97.5,360.4,94.1,360.4z
		 M94.1,358.8c1.9,0,2.4-0.8,2.4-3.3c0-2.5-0.5-3.3-2.4-3.3s-2.4,0.7-2.4,3.3C91.7,358.2,92.2,358.8,94.1,358.8z"/>
	<path class="st0" d="M100.3,347h2.2v10.8c0,0.9,0.2,1.5,0.8,2.2l-2,0.8c-0.7-0.7-1.1-1.6-1.1-2.9V347z"/>
	<path class="st0" d="M111.2,350.7h2.2v7.1c0,0.6,0,1.2-0.1,1.8c-1.2,0.5-2.7,0.8-4.7,0.8c-3.7,0-4.1-1.6-4.1-3.6v-6.2h2.2v5.9
		c0,1.5,0.3,2.2,2.4,2.2c0.7,0,1.4-0.1,1.9-0.3c0-0.4,0.1-0.9,0.1-1.3V350.7z"/>
	<path class="st0" d="M121,360.3c-0.5,0.1-1.1,0.1-1.6,0.1c-2.1,0-3-0.8-3-2.6v-5.6h-1.8v-1.5h1.8v-2.4l2.2-0.3v2.7h2.2v1.5h-2.2
		v5.4c0,0.9,0.4,1.2,1.4,1.2c0.3,0,0.5,0,0.8,0L121,360.3z"/>
	<path class="st0" d="M123.4,349.3c-1.1,0-1.4-0.3-1.4-1.2c0-0.9,0.3-1.2,1.4-1.2c1,0,1.4,0.3,1.4,1.2
		C124.7,349,124.4,349.3,123.4,349.3z M122.3,360.3v-9.6h2.3v9.6H122.3z"/>
	<path class="st0" d="M130.9,360.4c-3.4,0-4.7-1.3-4.7-4.9c0-3.6,1.2-4.9,4.7-4.9s4.7,1.4,4.7,4.9
		C135.6,359,134.3,360.4,130.9,360.4z M130.9,358.8c1.9,0,2.4-0.8,2.4-3.3c0-2.5-0.5-3.3-2.4-3.3s-2.4,0.7-2.4,3.3
		C128.5,358.2,129,358.8,130.9,358.8z"/>
	<path class="st0" d="M146.1,360.3h-2.2v-5.9c0-1.5-0.3-2.2-2.5-2.2c-0.7,0-1.5,0.1-1.9,0.3c0,0.4-0.1,0.9-0.1,1.3v6.5h-2.2v-7.1
		c0-0.6,0-1.2,0.1-1.8c1.2-0.5,2.8-0.8,4.7-0.8c3.7,0,4.1,1.6,4.1,3.6V360.3z"/>
</g>
<g>
	<path class="st0" d="M124.4,426.6c1.1-0.2,2.8-0.3,4.4-0.3c5.1,0,6,2.1,6,6.4c0,4.3-0.9,6.4-6,6.4c-1.6,0-3.3-0.1-4.4-0.3V426.6z
		 M126.8,437.2c0.4,0.1,1,0.1,1.6,0.1c4,0,4-2,4-4.7c0-2.6,0-4.7-4-4.7c-0.6,0-1.2,0.1-1.6,0.1V437.2z"/>
	<path class="st0" d="M140.9,439.1c-3.4,0-4.7-1.3-4.7-4.9c0-3.6,1.2-4.9,4.7-4.9s4.7,1.4,4.7,4.9
		C145.6,437.7,144.4,439.1,140.9,439.1z M140.9,437.5c1.9,0,2.4-0.8,2.4-3.3c0-2.5-0.5-3.3-2.4-3.3s-2.4,0.7-2.4,3.3
		C138.5,436.8,139,437.5,140.9,437.5z"/>
	<path class="st0" d="M160.6,439h-2.2V433c0-1.5-0.3-2.2-2.5-2.2c-0.7,0-1.5,0.1-1.9,0.3c0,0.4-0.1,0.9-0.1,1.3v6.5h-2.2v-7.1
		c0-0.6,0-1.2,0.1-1.8c1.2-0.5,2.8-0.8,4.7-0.8c3.7,0,4.1,1.6,4.1,3.6V439z"/>
	<path class="st0" d="M166.9,439.1c-3.4,0-4.7-1.3-4.7-4.9c0-3.6,1.2-4.9,4.7-4.9s4.7,1.4,4.7,4.9
		C171.6,437.7,170.4,439.1,166.9,439.1z M166.9,437.5c1.9,0,2.4-0.8,2.4-3.3c0-2.5-0.5-3.3-2.4-3.3s-2.4,0.7-2.4,3.3
		C164.5,436.8,165,437.5,166.9,437.5z"/>
	<path class="st0" d="M178.8,439c-0.5,0.1-1.1,0.1-1.6,0.1c-2.1,0-3-0.8-3-2.6v-5.6h-1.8v-1.5h1.8V427l2.2-0.3v2.7h2.2v1.5h-2.2v5.4
		c0,0.9,0.4,1.2,1.4,1.2c0.3,0,0.5,0,0.8,0L178.8,439z"/>
	<path class="st0" d="M189.3,436.3c0-1.1-1.1-1.2-2.1-1.5c-1.7-0.5-3.3-0.9-3.3-2.9c0-2.1,1.6-2.7,3.7-2.7c1.5,0,2.5,0.1,3.7,0.4
		l-0.2,1.5c-0.8-0.1-1.7-0.3-2.6-0.3c-0.9,0-2.4,0-2.4,1c0,1,1.3,1.2,2.1,1.5c1.8,0.6,3.2,0.9,3.2,3c0,2.2-1.8,2.8-4.1,2.8
		c-1.1,0-2.5-0.1-3.6-0.4l0.2-1.5c0.8,0.1,2,0.3,2.8,0.3C187.7,437.5,189.3,437.5,189.3,436.3z"/>
	<path class="st0" d="M195,435.2c0.1,1.9,1.2,2.3,2.8,2.3c1.4,0,2.7-0.1,3.8-0.2l0.2,1.5c-1.1,0.2-2.5,0.4-4.5,0.4
		c-3.5,0-4.5-2.1-4.5-4.9c0-3.5,1.2-4.9,4.7-4.9c3.8,0,4.6,1.8,4.6,4.7c0,0.2,0,0.5,0,0.7c-1.2,0.2-3.7,0.4-5.2,0.5L195,435.2z
		 M197,433.7c0.8,0,2-0.1,2.7-0.2c0-0.1,0-0.3,0-0.4c0-1.5-0.6-2.3-2.3-2.3c-2.2,0-2.5,1.3-2.5,3L197,433.7z"/>
	<path class="st0" d="M212.6,439h-2.2V433c0-1.5-0.3-2.2-2.5-2.2c-0.7,0-1.5,0.1-1.9,0.3c0,0.4-0.1,0.9-0.1,1.3v6.5h-2.2v-7.1
		c0-0.6,0-1.2,0.1-1.8c1.2-0.5,2.8-0.8,4.7-0.8c3.7,0,4.1,1.6,4.1,3.6V439z"/>
	<path class="st0" d="M220.9,425.6h2.2v10.9c0,0.6,0,1.2-0.1,1.8c-1.2,0.6-2.8,0.8-4.1,0.8c-3.5,0-4.9-1.2-4.9-4.9
		c0-3.7,1.4-4.9,4.6-4.9c0.7,0,1.6,0.1,2.3,0.3V425.6z M219.1,430.8c-2.8,0-2.9,1.4-2.9,3.3c0,1.8,0.1,3.4,2.6,3.4
		c0.7,0,1.5-0.1,1.9-0.3c0-0.4,0.1-0.9,0.1-1.3v-4.8C220.4,430.9,219.7,430.8,219.1,430.8z"/>
</g>
<g>
	<path class="st0" d="M357.6,426.6c1.1-0.2,2.8-0.3,4.4-0.3c5.1,0,6,2.1,6,6.4c0,4.3-0.9,6.4-6,6.4c-1.6,0-3.3-0.1-4.4-0.3V426.6z
		 M360,437.2c0.4,0.1,1,0.1,1.6,0.1c4,0,4-2,4-4.7c0-2.6,0-4.7-4-4.7c-0.6,0-1.2,0.1-1.6,0.1V437.2z"/>
	<path class="st0" d="M369.4,436.1c0-1.7,0.8-2.7,2.8-3c1.2-0.2,2.4-0.2,3.7-0.3c0-1.3-0.6-2-2.2-2c-1.3,0-2.6,0.1-3.7,0.2l-0.2-1.5
		c1.1-0.2,2.5-0.4,4.1-0.4c2.3,0,4.2,0.6,4.2,3v4.2c0,0.6,0,1.2-0.1,1.8c-1.2,0.6-2.7,0.8-4.7,0.8
		C370.5,439.1,369.4,438.1,369.4,436.1z M375.9,434.2c-0.9,0-2,0-2.9,0.2c-1.1,0.2-1.5,0.5-1.5,1.7c0,1.2,0.7,1.5,2.1,1.5
		c0.7,0,1.5,0,2.2-0.3c0-0.4,0.1-0.9,0.1-1.3V434.2z"/>
	<path class="st0" d="M385.6,439c-0.5,0.1-1.1,0.1-1.6,0.1c-2.1,0-3-0.8-3-2.6v-5.6h-1.8v-1.5h1.8V427l2.2-0.3v2.7h2.2v1.5h-2.2v5.4
		c0,0.9,0.4,1.2,1.4,1.2c0.3,0,0.5,0,0.8,0L385.6,439z"/>
	<path class="st0" d="M386.4,436.1c0-1.7,0.8-2.7,2.8-3c1.2-0.2,2.4-0.2,3.7-0.3c0-1.3-0.6-2-2.2-2c-1.3,0-2.6,0.1-3.7,0.2l-0.2-1.5
		c1.1-0.2,2.5-0.4,4.1-0.4c2.3,0,4.2,0.6,4.2,3v4.2c0,0.6,0,1.2-0.1,1.8c-1.2,0.6-2.7,0.8-4.7,0.8
		C387.5,439.1,386.4,438.1,386.4,436.1z M393,434.2c-0.9,0-2,0-2.9,0.2c-1.1,0.2-1.5,0.5-1.5,1.7c0,1.2,0.7,1.5,2.1,1.5
		c0.7,0,1.5,0,2.2-0.3c0-0.4,0.1-0.9,0.1-1.3V434.2z"/>
	<path class="st0" d="M405.8,439.1c-3.4,0-4.7-1.3-4.7-4.9c0-3.6,1.2-4.9,4.7-4.9c3.4,0,4.7,1.4,4.7,4.9
		C410.5,437.7,409.3,439.1,405.8,439.1z M405.8,437.5c1.9,0,2.4-0.8,2.4-3.3c0-2.5-0.5-3.3-2.4-3.3c-1.9,0-2.4,0.7-2.4,3.3
		C403.4,436.8,403.9,437.5,405.8,437.5z"/>
	<path class="st0" d="M418.8,429.4h2.2v7.1c0,0.6,0,1.2-0.1,1.8c-1.2,0.5-2.7,0.8-4.7,0.8c-3.7,0-4.1-1.6-4.1-3.6v-6.2h2.2v5.9
		c0,1.5,0.3,2.2,2.4,2.2c0.7,0,1.4-0.1,1.9-0.3c0-0.4,0.1-0.9,0.1-1.3V429.4z"/>
	<path class="st0" d="M428.6,439c-0.5,0.1-1.1,0.1-1.6,0.1c-2.1,0-3-0.8-3-2.6v-5.6h-1.8v-1.5h1.8V427l2.2-0.3v2.7h2.2v1.5h-2.2v5.4
		c0,0.9,0.4,1.2,1.4,1.2c0.3,0,0.5,0,0.8,0L428.6,439z"/>
</g>
<g>
	<path class="st7" d="M223.3,179.7v-8.5c0-2.6,2-2.7,4.3-2.7c0.9,0,2.5,0,3.3,0.1v1.8h-3.4c-1.5,0-1.7,0.3-1.7,1.5v1.3h4.9v1.8h-4.9
		v4.8H223.3z"/>
	<path class="st7" d="M231.9,168.9c0-0.9,0.3-1.2,1.4-1.2c1,0,1.4,0.3,1.4,1.2s-0.3,1.2-1.4,1.2
		C232.2,170.1,231.9,169.8,231.9,168.9z M232.1,171.1h2.3v8.6h-2.3V171.1z"/>
	<path class="st7" d="M236.2,179.7v-6.3c0-0.6,0-1.1,0.1-1.6c1-0.6,2.5-0.8,3.8-0.8c0.3,0,0.7,0,0.9,0l-0.2,1.7c-0.2,0-0.4,0-0.7,0
		c-0.5,0-1.2,0.1-1.6,0.3c0,0.3-0.1,0.8-0.1,1.1v5.5H236.2z"/>
	<path class="st7" d="M243.9,173.4c0,0.8,1,0.9,1.7,1.1c1.6,0.5,2.9,0.8,2.9,2.7c0,2-1.6,2.6-3.7,2.6c-1.1,0-2.4-0.1-3.3-0.4
		l0.2-1.6c0.7,0.1,1.8,0.3,2.5,0.3c0.7,0,1.9,0,1.9-0.8c0-0.8-0.8-0.9-1.6-1.1c-1.5-0.4-2.9-0.8-2.9-2.7c0-1.9,1.5-2.5,3.3-2.5
		c1.3,0,2.3,0.1,3.4,0.4l-0.2,1.6c-0.7-0.1-1.5-0.2-2.4-0.2C245.1,172.7,243.9,172.7,243.9,173.4z"/>
	<path class="st7" d="M253.1,168.7v2.4h1.9v1.6h-1.9v4.4c0,0.7,0.3,1,1.1,1c0.3,0,0.5,0,0.8,0l0.2,1.5c-0.5,0.1-1.1,0.1-1.6,0.1
		c-2,0-2.8-0.8-2.8-2.4v-4.6h-1.5v-1.6h1.5V169L253.1,168.7z"/>
	<path class="st7" d="M255.4,174.6h4.6v1.7h-4.6V174.6z"/>
	<path class="st7" d="M263.9,182.8h-2.3v-9.4c0-0.6,0-1.1,0.1-1.6c1-0.6,2.5-0.8,3.8-0.8c3.1,0,4.4,1,4.4,4.4c0,3.3-1.3,4.4-4.2,4.4
		c-0.6,0-1.2-0.1-1.8-0.2V182.8z M265.2,178.1c2.2,0,2.3-1.2,2.3-2.7c0-1.4-0.1-2.7-2.1-2.7c-0.5,0-1.1,0.1-1.5,0.2
		c0,0.3-0.1,0.8-0.1,1.1v3.9C264.3,178,264.8,178.1,265.2,178.1z"/>
	<path class="st7" d="M270.7,177.1c0-1.5,0.7-2.5,2.6-2.7c1-0.1,2-0.2,3-0.2c0-1-0.5-1.4-1.7-1.4c-1.1,0-2.4,0.1-3.3,0.2l-0.2-1.6
		c1-0.2,2.3-0.3,3.7-0.3c2.1,0,3.8,0.5,3.8,2.8v3.6c0,0.6,0,1.1-0.1,1.6c-1.1,0.6-2.5,0.8-4.2,0.8
		C271.8,179.8,270.7,178.9,270.7,177.1z M276.3,175.5c-0.7,0-1.5,0.1-2.2,0.2c-0.8,0.2-1.1,0.4-1.1,1.3c0,0.9,0.6,1.1,1.6,1.1
		c0.5,0,1.1,0,1.6-0.2c0-0.3,0.1-0.8,0.1-1.1V175.5z"/>
	<path class="st7" d="M280.2,179.7v-6.3c0-0.6,0-1.1,0.1-1.6c1-0.6,2.5-0.8,3.8-0.8c0.3,0,0.7,0,1,0l-0.2,1.7c-0.2,0-0.4,0-0.7,0
		c-0.5,0-1.2,0.1-1.6,0.3c0,0.3-0.1,0.8-0.1,1.1v5.5H280.2z"/>
	<path class="st7" d="M289.4,168.7v2.4h1.9v1.6h-1.9v4.4c0,0.7,0.3,1,1.1,1c0.3,0,0.5,0,0.8,0l0.2,1.5c-0.5,0.1-1.1,0.1-1.6,0.1
		c-2,0-2.8-0.8-2.8-2.4v-4.6h-1.5v-1.6h1.5V169L289.4,168.7z"/>
	<path class="st7" d="M298.5,171.1h2.4l-4.4,11.7h-2.4l1.5-3.8l-3.8-8h2.5l2.3,5.3L298.5,171.1z"/>
	<path class="st7" d="M311,167.8h2.3v9.6c0,0.6,0,1.1-0.1,1.6c-1.1,0.6-2.5,0.8-3.8,0.8c-3.1,0-4.4-1-4.4-4.4c0-3.3,1.3-4.4,4.2-4.4
		c0.6,0,1.2,0.1,1.8,0.2V167.8z M309.7,172.7c-2.2,0-2.3,1.2-2.3,2.7c0,1.4,0.1,2.7,2.1,2.7c0.5,0,1.1-0.1,1.5-0.2
		c0-0.3,0.1-0.8,0.1-1.1v-3.9C310.6,172.8,310.1,172.7,309.7,172.7z"/>
	<path class="st7" d="M314.5,177.1c0-1.5,0.7-2.5,2.6-2.7c1-0.1,2-0.2,3-0.2c0-1-0.5-1.4-1.7-1.4c-1.1,0-2.4,0.1-3.3,0.2l-0.2-1.6
		c1-0.2,2.3-0.3,3.7-0.3c2.1,0,3.8,0.5,3.8,2.8v3.6c0,0.6,0,1.1-0.1,1.6c-1.1,0.6-2.5,0.8-4.2,0.8
		C315.5,179.8,314.5,178.9,314.5,177.1z M320.1,175.5c-0.7,0-1.5,0.1-2.2,0.2c-0.8,0.2-1.1,0.4-1.1,1.3c0,0.9,0.6,1.1,1.6,1.1
		c0.5,0,1.1,0,1.6-0.2c0-0.3,0.1-0.8,0.1-1.1V175.5z"/>
	<path class="st7" d="M327.1,168.7v2.4h1.9v1.6h-1.9v4.4c0,0.7,0.3,1,1.1,1c0.3,0,0.5,0,0.8,0l0.2,1.5c-0.5,0.1-1.1,0.1-1.6,0.1
		c-2,0-2.8-0.8-2.8-2.4v-4.6h-1.5v-1.6h1.5V169L327.1,168.7z"/>
	<path class="st7" d="M329.8,177.1c0-1.5,0.7-2.5,2.6-2.7c1-0.1,2-0.2,3-0.2c0-1-0.5-1.4-1.7-1.4c-1.1,0-2.4,0.1-3.3,0.2l-0.2-1.6
		c1-0.2,2.3-0.3,3.7-0.3c2.1,0,3.8,0.5,3.8,2.8v3.6c0,0.6,0,1.1-0.1,1.6c-1.1,0.6-2.5,0.8-4.2,0.8
		C330.8,179.8,329.8,178.9,329.8,177.1z M335.4,175.5c-0.7,0-1.5,0.1-2.2,0.2c-0.8,0.2-1.1,0.4-1.1,1.3c0,0.9,0.6,1.1,1.6,1.1
		c0.5,0,1.1,0,1.6-0.2c0-0.3,0.1-0.8,0.1-1.1V175.5z"/>
</g>
<g>
	<path class="st7" d="M32.6,570.3l3.6-9.8c0.4-1.1,1.1-1.6,2-1.6c0.9,0,1.6,0.5,2,1.6l3.6,9.8h-2.6l-0.9-2.8h-4.2l-0.9,2.8H32.6z
		 M39.7,565.8l-1.5-4.5l-1.5,4.5H39.7z"/>
	<path class="st7" d="M50,558.4h2.3v9.6c0,0.6,0,1.1-0.1,1.6c-1.1,0.6-2.5,0.8-3.8,0.8c-3.1,0-4.4-1-4.4-4.4c0-3.3,1.3-4.4,4.2-4.4
		c0.6,0,1.2,0.1,1.8,0.2V558.4z M48.7,563.3c-2.2,0-2.3,1.2-2.3,2.7c0,1.4,0.1,2.7,2.1,2.7c0.5,0,1.1-0.1,1.5-0.2
		c0-0.3,0.1-0.8,0.1-1.1v-3.9C49.6,563.4,49.1,563.3,48.7,563.3z"/>
	<path class="st7" d="M59.8,564c0,0.8,1,0.9,1.7,1.1c1.6,0.5,2.9,0.8,2.9,2.7c0,2-1.6,2.6-3.7,2.6c-1.1,0-2.4-0.1-3.3-0.4l0.2-1.6
		c0.7,0.1,1.8,0.3,2.5,0.3c0.7,0,1.9,0,1.9-0.8c0-0.8-0.8-0.9-1.6-1.1c-1.5-0.4-2.9-0.8-2.9-2.7c0-1.9,1.5-2.5,3.3-2.5
		c1.3,0,2.3,0.1,3.4,0.4l-0.2,1.6c-0.7-0.1-1.5-0.2-2.4-0.2C61,563.3,59.8,563.3,59.8,564z"/>
	<path class="st7" d="M65.6,561.7h2.3v5.3c0,1.2,0.2,1.7,1.8,1.7c0.5,0,1.1-0.1,1.4-0.2c0-0.3,0.1-0.8,0.1-1.1v-5.6h2.3v6.3
		c0,0.6,0,1.1-0.1,1.6c-1.1,0.5-2.5,0.8-4.2,0.8c-3.4,0-3.7-1.4-3.7-3.2V561.7z"/>
	<path class="st7" d="M77.5,573.4h-2.3V564c0-0.6,0-1.1,0.1-1.6c1-0.6,2.5-0.8,3.8-0.8c3.1,0,4.4,1,4.4,4.4c0,3.3-1.3,4.4-4.2,4.4
		c-0.6,0-1.2-0.1-1.8-0.2V573.4z M78.8,568.7c2.2,0,2.3-1.2,2.3-2.7c0-1.4-0.1-2.7-2.1-2.7c-0.5,0-1.1,0.1-1.5,0.2
		c0,0.3-0.1,0.8-0.1,1.1v3.9C77.9,568.6,78.4,568.7,78.8,568.7z"/>
	<path class="st7" d="M87,573.4h-2.3V564c0-0.6,0-1.1,0.1-1.6c1-0.6,2.5-0.8,3.8-0.8c3.1,0,4.4,1,4.4,4.4c0,3.3-1.3,4.4-4.2,4.4
		c-0.6,0-1.2-0.1-1.8-0.2V573.4z M88.4,568.7c2.2,0,2.3-1.2,2.3-2.7c0-1.4-0.1-2.7-2.1-2.7c-0.5,0-1.1,0.1-1.5,0.2
		c0,0.3-0.1,0.8-0.1,1.1v3.9C87.4,568.6,87.9,568.7,88.4,568.7z"/>
	<path class="st7" d="M94.2,570.3V564c0-0.6,0-1.1,0.1-1.6c1-0.6,2.5-0.8,3.8-0.8c0.3,0,0.7,0,1,0l-0.2,1.7c-0.2,0-0.4,0-0.7,0
		c-0.5,0-1.2,0.1-1.6,0.3c0,0.3-0.1,0.8-0.1,1.1v5.5H94.2z"/>
	<path class="st7" d="M99.5,566c0-3.1,1.1-4.4,4.2-4.4c3.4,0,4.1,1.6,4.1,4.2c0,0.2,0,0.5,0,0.7c-1.1,0.2-3.1,0.4-4.4,0.4l-1.5,0.1
		c0.1,1.3,0.9,1.7,2.2,1.7c1.3,0,2.4-0.1,3.4-0.2l0.2,1.6c-1,0.1-2.3,0.3-4.1,0.3C100.3,570.4,99.5,568.5,99.5,566z M103.3,565.5
		c0.6,0,1.6-0.1,2.1-0.2c0-0.1,0-0.2,0-0.3c0-1.1-0.5-1.7-1.8-1.7c-1.7,0-1.9,1-1.9,2.3L103.3,565.5z"/>
	<path class="st7" d="M111.2,564c0,0.8,1,0.9,1.7,1.1c1.6,0.5,2.9,0.8,2.9,2.7c0,2-1.6,2.6-3.7,2.6c-1.1,0-2.4-0.1-3.3-0.4l0.2-1.6
		c0.7,0.1,1.8,0.3,2.5,0.3c0.7,0,1.9,0,1.9-0.8c0-0.8-0.8-0.9-1.6-1.1c-1.5-0.4-2.9-0.8-2.9-2.7c0-1.9,1.5-2.5,3.3-2.5
		c1.3,0,2.3,0.1,3.4,0.4l-0.2,1.6c-0.7-0.1-1.5-0.2-2.4-0.2C112.3,563.3,111.2,563.3,111.2,564z"/>
	<path class="st7" d="M119,564c0,0.8,1,0.9,1.7,1.1c1.6,0.5,2.9,0.8,2.9,2.7c0,2-1.6,2.6-3.7,2.6c-1.1,0-2.4-0.1-3.3-0.4l0.2-1.6
		c0.7,0.1,1.8,0.3,2.5,0.3c0.7,0,1.9,0,1.9-0.8c0-0.8-0.8-0.9-1.6-1.1c-1.5-0.4-2.9-0.8-2.9-2.7c0-1.9,1.5-2.5,3.3-2.5
		c1.3,0,2.3,0.1,3.4,0.4l-0.2,1.6c-0.7-0.1-1.5-0.2-2.4-0.2C120.1,563.3,119,563.3,119,564z"/>
	<path class="st7" d="M124.7,559.5c0-0.9,0.3-1.2,1.4-1.2c1,0,1.4,0.3,1.4,1.2c0,0.9-0.3,1.2-1.4,1.2
		C125,560.7,124.7,560.4,124.7,559.5z M124.9,561.7h2.3v8.6h-2.3V561.7z"/>
	<path class="st7" d="M128.6,566c0-3.2,1.1-4.4,4.2-4.4c3.1,0,4.2,1.2,4.2,4.4c0,3.2-1.1,4.4-4.2,4.4
		C129.7,570.4,128.6,569.2,128.6,566z M134.7,566c0-2.1-0.4-2.7-1.9-2.7c-1.5,0-1.8,0.5-1.8,2.7c0,2.1,0.4,2.7,1.8,2.7
		C134.3,568.7,134.7,568.1,134.7,566z"/>
	<path class="st7" d="M140.6,570.3h-2.3V564c0-0.6,0-1.1,0.1-1.6c1.1-0.5,2.5-0.8,4.2-0.8c3.4,0,3.7,1.4,3.7,3.2v5.5H144V565
		c0-1.2-0.2-1.7-1.9-1.7c-0.5,0-1.1,0.1-1.4,0.2c0,0.3-0.1,0.8-0.1,1.1V570.3z"/>
</g>
<g>
	<path class="st7" d="M244.6,560.9h-3v9.4h-2.5v-9.4h-3v-1.8h8.5V560.9z"/>
	<path class="st7" d="M244.2,567.7c0-1.5,0.7-2.5,2.6-2.7c1-0.1,2-0.2,3-0.2c0-1-0.5-1.4-1.7-1.4c-1.1,0-2.4,0.1-3.3,0.2l-0.2-1.6
		c1-0.2,2.3-0.3,3.7-0.3c2.1,0,3.8,0.5,3.8,2.8v3.6c0,0.6,0,1.1-0.1,1.6c-1.1,0.6-2.5,0.8-4.2,0.8
		C245.2,570.4,244.2,569.5,244.2,567.7z M249.7,566.1c-0.7,0-1.5,0.1-2.2,0.2c-0.8,0.2-1.1,0.4-1.1,1.3c0,0.9,0.6,1.1,1.6,1.1
		c0.5,0,1.1,0,1.6-0.2c0-0.3,0.1-0.8,0.1-1.1V566.1z"/>
	<path class="st7" d="M253.6,570.3V564c0-0.6,0-1.1,0.1-1.6c1-0.6,2.5-0.8,3.8-0.8c0.3,0,0.7,0,1,0l-0.2,1.7c-0.2,0-0.4,0-0.7,0
		c-0.5,0-1.2,0.1-1.6,0.3c0,0.3-0.1,0.8-0.1,1.1v5.5H253.6z"/>
	<path class="st7" d="M259.6,571.6c0.9,0.1,2.3,0.2,3.4,0.2c1.3,0,1.8-0.5,1.8-1.6V570c-0.6,0.1-1.2,0.2-1.8,0.2
		c-2.8,0-4.2-1-4.2-4.3c0-3.3,1.4-4.3,4.4-4.3c1.3,0,2.7,0.2,3.8,0.8c0.1,0.5,0.1,1,0.1,1.6v6.8c0,2.2-1.7,2.8-3.8,2.8
		c-1.4,0-2.9-0.2-3.9-0.4L259.6,571.6z M261.2,565.9c0,1.5,0.1,2.6,2.3,2.6c0.4,0,0.9-0.1,1.3-0.2v-3.7c0-0.4,0-0.8-0.1-1.1
		c-0.4-0.1-0.9-0.2-1.5-0.2C261.3,563.3,261.2,564.6,261.2,565.9z"/>
	<path class="st7" d="M268.4,566c0-3.1,1.1-4.4,4.2-4.4c3.4,0,4.1,1.6,4.1,4.2c0,0.2,0,0.5,0,0.7c-1.1,0.2-3.1,0.4-4.4,0.4l-1.5,0.1
		c0.1,1.3,0.9,1.7,2.2,1.7c1.3,0,2.4-0.1,3.4-0.2l0.2,1.6c-1,0.1-2.3,0.3-4.1,0.3C269.2,570.4,268.4,568.5,268.4,566z M272.2,565.5
		c0.6,0,1.6-0.1,2.1-0.2c0-0.1,0-0.2,0-0.3c0-1.1-0.5-1.7-1.8-1.7c-1.7,0-1.9,1-1.9,2.3L272.2,565.5z"/>
	<path class="st7" d="M281.2,559.3v2.4h1.9v1.6h-1.9v4.4c0,0.7,0.3,1,1.1,1c0.3,0,0.5,0,0.8,0l0.2,1.5c-0.5,0.1-1.1,0.1-1.6,0.1
		c-2,0-2.8-0.8-2.8-2.4v-4.6h-1.5v-1.6h1.5v-2.1L281.2,559.3z"/>
	<path class="st7" d="M283.8,566c0-3.1,1.1-4.4,4.2-4.4c3.4,0,4.1,1.6,4.1,4.2c0,0.2,0,0.5,0,0.7c-1.1,0.2-3.1,0.4-4.4,0.4l-1.5,0.1
		c0.1,1.3,0.9,1.7,2.2,1.7c1.3,0,2.4-0.1,3.4-0.2l0.2,1.6c-1,0.1-2.3,0.3-4.1,0.3C284.6,570.4,283.8,568.5,283.8,566z M287.6,565.5
		c0.6,0,1.6-0.1,2.1-0.2c0-0.1,0-0.2,0-0.3c0-1.1-0.5-1.7-1.8-1.7c-1.7,0-1.9,1-1.9,2.3L287.6,565.5z"/>
	<path class="st7" d="M298.9,558.4h2.3v9.6c0,0.6,0,1.1-0.1,1.6c-1.1,0.6-2.5,0.8-3.8,0.8c-3.1,0-4.4-1-4.4-4.4
		c0-3.3,1.3-4.4,4.2-4.4c0.6,0,1.2,0.1,1.8,0.2V558.4z M297.6,563.3c-2.2,0-2.3,1.2-2.3,2.7c0,1.4,0.1,2.7,2.1,2.7
		c0.5,0,1.1-0.1,1.5-0.2c0-0.3,0.1-0.8,0.1-1.1v-3.9C298.6,563.4,298,563.3,297.6,563.3z"/>
	<path class="st7" d="M306.3,567.7c0-1.5,0.7-2.5,2.6-2.7c1-0.1,2-0.2,3-0.2c0-1-0.5-1.4-1.7-1.4c-1.1,0-2.4,0.1-3.3,0.2l-0.2-1.6
		c1-0.2,2.3-0.3,3.7-0.3c2.1,0,3.8,0.5,3.8,2.8v3.6c0,0.6,0,1.1-0.1,1.6c-1.1,0.6-2.5,0.8-4.2,0.8
		C307.3,570.4,306.3,569.5,306.3,567.7z M311.9,566.1c-0.7,0-1.5,0.1-2.2,0.2c-0.8,0.2-1.1,0.4-1.1,1.3c0,0.9,0.6,1.1,1.6,1.1
		c0.5,0,1.1,0,1.6-0.2c0-0.3,0.1-0.8,0.1-1.1V566.1z"/>
	<path class="st7" d="M321.3,558.4h2.3v9.6c0,0.6,0,1.1-0.1,1.6c-1.1,0.6-2.5,0.8-3.8,0.8c-3.1,0-4.4-1-4.4-4.4
		c0-3.3,1.3-4.4,4.2-4.4c0.6,0,1.2,0.1,1.8,0.2V558.4z M320,563.3c-2.2,0-2.3,1.2-2.3,2.7c0,1.4,0.1,2.7,2.1,2.7
		c0.5,0,1.1-0.1,1.5-0.2c0-0.3,0.1-0.8,0.1-1.1v-3.9C320.9,563.4,320.4,563.3,320,563.3z"/>
</g>
<g>
	<path class="st7" d="M423.7,562.4h-2.5v-11c1.1-0.2,2.5-0.3,4-0.3c2.7,0,4.9,0.5,4.9,3.6c0,3-2,3.6-4.8,3.6c-0.5,0-1.2,0-1.6-0.1
		V562.4z M423.7,556.4c0.5,0.1,1,0.1,1.5,0.1c1.6,0,2.4-0.4,2.4-1.8c0-1.3-0.6-1.8-2.4-1.8c-0.5,0-1.1,0-1.6,0.1V556.4z"/>
	<path class="st7" d="M430.8,558.1c0-3.1,1.1-4.4,4.2-4.4c3.4,0,4.1,1.6,4.1,4.2c0,0.2,0,0.5,0,0.7c-1.1,0.2-3.1,0.4-4.4,0.4
		l-1.5,0.1c0.1,1.3,0.9,1.7,2.2,1.7c1.3,0,2.4-0.1,3.4-0.2l0.2,1.6c-1,0.1-2.3,0.3-4.1,0.3C431.7,562.5,430.8,560.6,430.8,558.1z
		 M434.7,557.6c0.6,0,1.6-0.1,2.1-0.2c0-0.1,0-0.2,0-0.3c0-1.1-0.5-1.7-1.8-1.7c-1.7,0-1.9,1-1.9,2.3L434.7,557.6z"/>
	<path class="st7" d="M440.2,558.1c0-3.2,1.1-4.4,4.2-4.4c3.1,0,4.2,1.2,4.2,4.4c0,3.2-1.1,4.4-4.2,4.4
		C441.3,562.5,440.2,561.3,440.2,558.1z M446.2,558.1c0-2.1-0.4-2.7-1.9-2.7c-1.5,0-1.8,0.5-1.8,2.7c0,2.1,0.4,2.7,1.8,2.7
		C445.8,560.8,446.2,560.2,446.2,558.1z"/>
	<path class="st7" d="M452.2,565.5h-2.3v-9.4c0-0.6,0-1.1,0.1-1.6c1-0.6,2.5-0.8,3.8-0.8c3.1,0,4.4,1,4.4,4.4c0,3.3-1.3,4.4-4.2,4.4
		c-0.6,0-1.2-0.1-1.8-0.2V565.5z M453.5,560.8c2.2,0,2.3-1.2,2.3-2.7c0-1.4-0.1-2.7-2.1-2.7c-0.5,0-1.1,0.1-1.5,0.2
		c0,0.3-0.1,0.8-0.1,1.1v3.9C452.6,560.7,453.1,560.8,453.5,560.8z"/>
	<path class="st7" d="M459.3,550.5h2.3v9.5c0,0.8,0.2,1.3,0.7,1.9l-2.1,0.9c-0.6-0.6-0.9-1.4-0.9-2.6V550.5z"/>
	<path class="st7" d="M463,558.1c0-3.1,1.1-4.4,4.2-4.4c3.4,0,4.1,1.6,4.1,4.2c0,0.2,0,0.5,0,0.7c-1.1,0.2-3.1,0.4-4.4,0.4l-1.5,0.1
		c0.1,1.3,0.9,1.7,2.2,1.7c1.3,0,2.4-0.1,3.4-0.2l0.2,1.6c-1,0.1-2.3,0.3-4.1,0.3C463.8,562.5,463,560.6,463,558.1z M466.8,557.6
		c0.6,0,1.6-0.1,2.1-0.2c0-0.1,0-0.2,0-0.3c0-1.1-0.5-1.7-1.8-1.7c-1.7,0-1.9,1-1.9,2.3L466.8,557.6z"/>
	<path class="st7" d="M476.4,550.5h2.3v3.4c0.6-0.1,1.2-0.2,1.8-0.2c2.9,0,4.2,1.1,4.2,4.4c0,3.4-1.3,4.4-4.4,4.4
		c-1.3,0-2.7-0.2-3.8-0.8c-0.1-0.5-0.1-1-0.1-1.6V550.5z M478.7,559.5c0,0.4,0,0.8,0.1,1.1c0.3,0.1,0.9,0.2,1.5,0.2
		c2,0,2.1-1.3,2.1-2.7c0-1.6-0.1-2.7-2.3-2.7c-0.4,0-0.9,0.1-1.3,0.2V559.5z"/>
	<path class="st7" d="M485.5,559.8c0-1.5,0.7-2.5,2.6-2.7c1-0.1,2-0.2,3-0.2c0-1-0.5-1.4-1.7-1.4c-1.1,0-2.4,0.1-3.3,0.2l-0.2-1.6
		c1-0.2,2.3-0.3,3.7-0.3c2.1,0,3.8,0.5,3.8,2.8v3.6c0,0.6,0,1.1-0.1,1.6c-1.1,0.6-2.5,0.8-4.2,0.8
		C486.5,562.5,485.5,561.6,485.5,559.8z M491,558.2c-0.7,0-1.5,0.1-2.2,0.2c-0.8,0.2-1.1,0.4-1.1,1.3c0,0.9,0.6,1.1,1.6,1.1
		c0.5,0,1.1,0,1.6-0.2c0-0.3,0.1-0.8,0.1-1.1V558.2z"/>
	<path class="st7" d="M496.8,556.1c0,0.8,1,0.9,1.7,1.1c1.6,0.5,2.9,0.8,2.9,2.7c0,2-1.6,2.6-3.7,2.6c-1.1,0-2.4-0.1-3.3-0.4
		l0.2-1.6c0.7,0.1,1.8,0.3,2.5,0.3c0.7,0,1.9,0,1.9-0.8c0-0.8-0.8-0.9-1.6-1.1c-1.5-0.4-2.9-0.8-2.9-2.7c0-1.9,1.5-2.5,3.3-2.5
		c1.3,0,2.3,0.1,3.4,0.4l-0.2,1.6c-0.7-0.1-1.5-0.2-2.4-0.2C498,555.4,496.8,555.4,496.8,556.1z"/>
	<path class="st7" d="M502.3,558.1c0-3.1,1.1-4.4,4.2-4.4c3.4,0,4.1,1.6,4.1,4.2c0,0.2,0,0.5,0,0.7c-1.1,0.2-3.1,0.4-4.4,0.4
		l-1.5,0.1c0.1,1.3,0.9,1.7,2.2,1.7c1.3,0,2.4-0.1,3.4-0.2l0.2,1.6c-1,0.1-2.3,0.3-4.1,0.3C503.2,562.5,502.3,560.6,502.3,558.1z
		 M506.2,557.6c0.6,0,1.6-0.1,2.1-0.2c0-0.1,0-0.2,0-0.3c0-1.1-0.5-1.7-1.8-1.7c-1.7,0-1.9,1-1.9,2.3L506.2,557.6z"/>
	<path class="st7" d="M517.5,550.5h2.3v9.6c0,0.6,0,1.1-0.1,1.6c-1.1,0.6-2.5,0.8-3.8,0.8c-3.1,0-4.4-1-4.4-4.4
		c0-3.3,1.3-4.4,4.2-4.4c0.6,0,1.2,0.1,1.8,0.2V550.5z M516.2,555.4c-2.2,0-2.3,1.2-2.3,2.7c0,1.4,0.1,2.7,2.1,2.7
		c0.5,0,1.1-0.1,1.5-0.2c0-0.3,0.1-0.8,0.1-1.1v-3.9C517.1,555.5,516.6,555.4,516.2,555.4z"/>
	<path class="st7" d="M433,577.6h-2.3v-6.3c0-0.6,0-1.1,0.1-1.6c1-0.5,2.5-0.8,4-0.8c1,0,1.8,0.2,2.3,0.5c0.8-0.3,1.9-0.5,2.9-0.5
		c3,0,3.4,1.5,3.4,3.2v5.5h-2.3v-5.3c0-1.1-0.3-1.7-1.6-1.7c-0.4,0-0.9,0.1-1.3,0.3c0.1,0.4,0.1,0.8,0.1,1.2v5.5h-2.3v-5.3
		c0-1.1-0.3-1.7-1.6-1.7c-0.4,0-0.9,0.1-1.2,0.2c0,0.3-0.1,0.8-0.1,1.1V577.6z"/>
	<path class="st7" d="M444.6,573.3c0-3.1,1.1-4.4,4.2-4.4c3.4,0,4.1,1.6,4.1,4.2c0,0.2,0,0.5,0,0.7c-1.1,0.2-3.1,0.4-4.4,0.4
		l-1.5,0.1c0.1,1.3,0.9,1.7,2.2,1.7c1.3,0,2.4-0.1,3.4-0.2l0.2,1.6c-1,0.1-2.3,0.3-4.1,0.3C445.4,577.7,444.6,575.8,444.6,573.3z
		 M448.5,572.8c0.6,0,1.6-0.1,2.1-0.2c0-0.1,0-0.2,0-0.3c0-1.1-0.5-1.7-1.8-1.7c-1.7,0-1.9,1-1.9,2.3L448.5,572.8z"/>
	<path class="st7" d="M456.3,571.3c0,0.8,1,0.9,1.7,1.1c1.6,0.5,2.9,0.8,2.9,2.7c0,2-1.6,2.6-3.7,2.6c-1.1,0-2.4-0.1-3.3-0.4
		l0.2-1.6c0.7,0.1,1.8,0.3,2.5,0.3c0.7,0,1.9,0,1.9-0.8c0-0.8-0.8-0.9-1.6-1.1c-1.5-0.4-2.9-0.8-2.9-2.7c0-1.9,1.5-2.5,3.3-2.5
		c1.3,0,2.3,0.1,3.4,0.4l-0.2,1.6c-0.7-0.1-1.5-0.2-2.4-0.2C457.4,570.6,456.3,570.6,456.3,571.3z"/>
	<path class="st7" d="M464.1,571.3c0,0.8,1,0.9,1.7,1.1c1.6,0.5,2.9,0.8,2.9,2.7c0,2-1.6,2.6-3.7,2.6c-1.1,0-2.4-0.1-3.3-0.4
		l0.2-1.6c0.7,0.1,1.8,0.3,2.5,0.3c0.7,0,1.9,0,1.9-0.8c0-0.8-0.8-0.9-1.6-1.1c-1.5-0.4-2.9-0.8-2.9-2.7c0-1.9,1.5-2.5,3.3-2.5
		c1.3,0,2.3,0.1,3.4,0.4l-0.2,1.6c-0.7-0.1-1.5-0.2-2.4-0.2C465.2,570.6,464.1,570.6,464.1,571.3z"/>
	<path class="st7" d="M469.6,575c0-1.5,0.7-2.5,2.6-2.7c1-0.1,2-0.2,3-0.2c0-1-0.5-1.4-1.7-1.4c-1.1,0-2.4,0.1-3.3,0.2l-0.2-1.6
		c1-0.2,2.3-0.3,3.7-0.3c2.1,0,3.8,0.5,3.8,2.8v3.6c0,0.6,0,1.1-0.1,1.6c-1.1,0.6-2.5,0.8-4.2,0.8
		C470.6,577.7,469.6,576.8,469.6,575z M475.2,573.4c-0.7,0-1.5,0.1-2.2,0.2c-0.8,0.2-1.1,0.4-1.1,1.3c0,0.9,0.6,1.1,1.6,1.1
		c0.5,0,1.1,0,1.6-0.2c0-0.3,0.1-0.8,0.1-1.1V573.4z"/>
	<path class="st7" d="M479.5,578.9c0.9,0.1,2.3,0.2,3.4,0.2c1.3,0,1.8-0.5,1.8-1.6v-0.3c-0.6,0.1-1.2,0.2-1.8,0.2
		c-2.8,0-4.2-1-4.2-4.3c0-3.3,1.4-4.3,4.4-4.3c1.3,0,2.7,0.2,3.8,0.8c0.1,0.5,0.1,1,0.1,1.6v6.8c0,2.2-1.7,2.8-3.8,2.8
		c-1.4,0-2.9-0.2-3.9-0.4L479.5,578.9z M481.1,573.2c0,1.5,0.1,2.6,2.3,2.6c0.4,0,0.9-0.1,1.3-0.2V572c0-0.4,0-0.8-0.1-1.1
		c-0.4-0.1-0.9-0.2-1.5-0.2C481.2,570.6,481.1,571.9,481.1,573.2z"/>
	<path class="st7" d="M488.4,566.8c0-0.9,0.3-1.2,1.4-1.2c1,0,1.4,0.3,1.4,1.2c0,0.9-0.3,1.2-1.4,1.2
		C488.8,568,488.4,567.7,488.4,566.8z M488.6,569h2.3v8.6h-2.3V569z"/>
	<path class="st7" d="M495,577.6h-2.3v-6.3c0-0.6,0-1.1,0.1-1.6c1.1-0.5,2.5-0.8,4.2-0.8c3.4,0,3.7,1.4,3.7,3.2v5.5h-2.3v-5.3
		c0-1.2-0.2-1.7-1.9-1.7c-0.5,0-1.1,0.1-1.4,0.2c0,0.3-0.1,0.8-0.1,1.1V577.6z"/>
	<path class="st7" d="M502.7,578.9c0.9,0.1,2.3,0.2,3.4,0.2c1.3,0,1.8-0.5,1.8-1.6v-0.3c-0.6,0.1-1.2,0.2-1.8,0.2
		c-2.8,0-4.2-1-4.2-4.3c0-3.3,1.4-4.3,4.4-4.3c1.3,0,2.7,0.2,3.8,0.8c0.1,0.5,0.1,1,0.1,1.6v6.8c0,2.2-1.7,2.8-3.8,2.8
		c-1.4,0-2.9-0.2-3.9-0.4L502.7,578.9z M504.3,573.2c0,1.5,0.1,2.6,2.3,2.6c0.4,0,0.9-0.1,1.3-0.2V572c0-0.4,0-0.8-0.1-1.1
		c-0.4-0.1-0.9-0.2-1.5-0.2C504.5,570.6,504.3,571.9,504.3,573.2z"/>
</g>
<g>
	<path class="st7" d="M217.8,349.4c-0.9,0-2.4,0.1-3.1,0.1c-2.2,0-4.2-0.1-4.2-2.7v-8.5h2.5v7.9c0,1.2,0.2,1.5,1.7,1.5h3.2V349.4z"
		/>
	<path class="st7" d="M218.5,338.7c0-0.9,0.3-1.2,1.4-1.2c1,0,1.4,0.3,1.4,1.2c0,0.9-0.3,1.2-1.4,1.2
		C218.8,339.9,218.5,339.6,218.5,338.7z M218.7,340.9h2.3v8.6h-2.3V340.9z"/>
	<path class="st7" d="M228.3,348.3c-0.4,0.9-0.9,1.3-1.8,1.3c-0.8,0-1.4-0.4-1.8-1.3l-2.9-7.4h2.5l2.2,6.4l2.2-6.4h2.4L228.3,348.3z
		"/>
	<path class="st7" d="M231.5,345.2c0-3.1,1.1-4.4,4.2-4.4c3.4,0,4.1,1.6,4.1,4.2c0,0.2,0,0.5,0,0.7c-1.1,0.2-3.1,0.4-4.4,0.4
		l-1.5,0.1c0.1,1.3,0.9,1.7,2.2,1.7c1.3,0,2.4-0.1,3.4-0.2l0.2,1.6c-1,0.1-2.3,0.3-4.1,0.3C232.3,349.6,231.5,347.7,231.5,345.2z
		 M235.3,344.7c0.6,0,1.6-0.1,2.1-0.2c0-0.1,0-0.2,0-0.3c0-1.1-0.5-1.7-1.8-1.7c-1.7,0-1.9,1-1.9,2.3L235.3,344.7z"/>
	<path class="st7" d="M243.7,349.5h-2.5v-11c1.1-0.2,2.5-0.3,4-0.3c2.7,0,4.9,0.5,4.9,3.5c0,2-0.9,2.9-2.3,3.3l2.8,4.5h-2.9
		l-2.5-4.2c-0.5,0-1.1,0-1.5,0V349.5z M243.7,343.4c0.5,0.1,1,0.1,1.5,0.1c1.5,0,2.4-0.4,2.4-1.8c0-1.2-0.6-1.7-2.4-1.7
		c-0.5,0-1.1,0-1.6,0.1V343.4z"/>
	<path class="st7" d="M251.1,346.9c0-1.5,0.7-2.5,2.6-2.7c1-0.1,2-0.2,3-0.2c0-1-0.5-1.4-1.7-1.4c-1.1,0-2.4,0.1-3.3,0.2l-0.2-1.6
		c1-0.2,2.3-0.3,3.7-0.3c2.1,0,3.8,0.5,3.8,2.8v3.6c0,0.6,0,1.1-0.1,1.6c-1.1,0.6-2.5,0.8-4.2,0.8
		C252.1,349.6,251.1,348.7,251.1,346.9z M256.7,345.3c-0.7,0-1.5,0.1-2.2,0.2c-0.8,0.2-1.1,0.4-1.1,1.3c0,0.9,0.6,1.1,1.6,1.1
		c0.5,0,1.1,0,1.6-0.2c0-0.3,0.1-0.8,0.1-1.1V345.3z"/>
	<path class="st7" d="M262.8,349.5h-2.3v-6.3c0-0.6,0-1.1,0.1-1.6c1-0.5,2.5-0.8,4-0.8c1,0,1.8,0.2,2.3,0.5c0.8-0.3,1.9-0.5,2.9-0.5
		c3,0,3.4,1.5,3.4,3.2v5.5h-2.3v-5.3c0-1.1-0.3-1.7-1.6-1.7c-0.4,0-0.9,0.1-1.3,0.3c0.1,0.4,0.1,0.8,0.1,1.2v5.5h-2.3v-5.3
		c0-1.1-0.3-1.7-1.6-1.7c-0.4,0-0.9,0.1-1.2,0.2c0,0.3-0.1,0.8-0.1,1.1V349.5z"/>
	<path class="st7" d="M277.1,352.6h-2.3v-9.4c0-0.6,0-1.1,0.1-1.6c1-0.6,2.5-0.8,3.8-0.8c3.1,0,4.4,1,4.4,4.4c0,3.3-1.3,4.4-4.2,4.4
		c-0.6,0-1.2-0.1-1.8-0.2V352.6z M278.4,347.9c2.2,0,2.3-1.2,2.3-2.7c0-1.4-0.1-2.7-2.1-2.7c-0.5,0-1.1,0.1-1.5,0.2
		c0,0.3-0.1,0.8-0.1,1.1v3.9C277.5,347.8,278,347.9,278.4,347.9z"/>
	<path class="st7" d="M290.4,352.6h-2.3v-9.4c0-0.6,0-1.1,0.1-1.6c1-0.6,2.5-0.8,3.8-0.8c3.1,0,4.4,1,4.4,4.4c0,3.3-1.3,4.4-4.2,4.4
		c-0.6,0-1.2-0.1-1.8-0.2V352.6z M291.7,347.9c2.2,0,2.3-1.2,2.3-2.7c0-1.4-0.1-2.7-2.1-2.7c-0.5,0-1.1,0.1-1.5,0.2
		c0,0.3-0.1,0.8-0.1,1.1v3.9C290.8,347.8,291.3,347.9,291.7,347.9z"/>
	<path class="st7" d="M297.6,337.6h2.3v9.5c0,0.8,0.2,1.3,0.7,1.9l-2.1,0.9c-0.6-0.6-0.9-1.4-0.9-2.6V337.6z"/>
	<path class="st7" d="M301.1,346.9c0-1.5,0.7-2.5,2.6-2.7c1-0.1,2-0.2,3-0.2c0-1-0.5-1.4-1.7-1.4c-1.1,0-2.4,0.1-3.3,0.2l-0.2-1.6
		c1-0.2,2.3-0.3,3.7-0.3c2.1,0,3.8,0.5,3.8,2.8v3.6c0,0.6,0,1.1-0.1,1.6c-1.1,0.6-2.5,0.8-4.2,0.8
		C302.1,349.6,301.1,348.7,301.1,346.9z M306.7,345.3c-0.7,0-1.5,0.1-2.2,0.2c-0.8,0.2-1.1,0.4-1.1,1.3c0,0.9,0.6,1.1,1.6,1.1
		c0.5,0,1.1,0,1.6-0.2c0-0.3,0.1-0.8,0.1-1.1V345.3z"/>
	<path class="st7" d="M313.7,338.5v2.4h1.9v1.6h-1.9v4.4c0,0.7,0.3,1,1.1,1c0.3,0,0.5,0,0.8,0l0.2,1.5c-0.5,0.1-1.1,0.1-1.6,0.1
		c-2,0-2.8-0.8-2.8-2.4v-4.6h-1.5v-1.6h1.5v-2.1L313.7,338.5z"/>
	<path class="st7" d="M320.1,340.9h1.9v1.6h-1.9v6.9h-2.3v-6.9h-1.5v-1.6h1.5v-0.7c0-1.7,1-2.7,3-2.7c0.4,0,1,0,1.4,0.1l-0.2,1.5
		h-0.7c-0.8,0-1.2,0.3-1.2,1.1V340.9z"/>
	<path class="st7" d="M322.6,345.2c0-3.2,1.1-4.4,4.2-4.4c3.1,0,4.2,1.2,4.2,4.4c0,3.2-1.1,4.4-4.2,4.4
		C323.7,349.6,322.6,348.4,322.6,345.2z M328.6,345.2c0-2.1-0.4-2.7-1.9-2.7c-1.5,0-1.8,0.5-1.8,2.7c0,2.1,0.4,2.7,1.8,2.7
		C328.3,347.9,328.6,347.3,328.6,345.2z"/>
	<path class="st7" d="M332.3,349.5v-6.3c0-0.6,0-1.1,0.1-1.6c1-0.6,2.5-0.8,3.8-0.8c0.3,0,0.7,0,1,0l-0.2,1.7c-0.2,0-0.4,0-0.7,0
		c-0.5,0-1.2,0.1-1.6,0.3c0,0.3-0.1,0.8-0.1,1.1v5.5H332.3z"/>
	<path class="st7" d="M340.2,349.5h-2.3v-6.3c0-0.6,0-1.1,0.1-1.6c1-0.5,2.5-0.8,4-0.8c1,0,1.8,0.2,2.3,0.5c0.8-0.3,1.9-0.5,2.9-0.5
		c3,0,3.4,1.5,3.4,3.2v5.5h-2.3v-5.3c0-1.1-0.3-1.7-1.6-1.7c-0.4,0-0.9,0.1-1.3,0.3c0.1,0.4,0.1,0.8,0.1,1.2v5.5h-2.3v-5.3
		c0-1.1-0.3-1.7-1.6-1.7c-0.4,0-0.9,0.1-1.2,0.2c0,0.3-0.1,0.8-0.1,1.1V349.5z"/>
</g>
</svg>
