<?xml version="1.0" encoding="utf-8"?>
<!-- Generator: Adobe Illustrator 23.0.4, SVG Export Plug-In . SVG Version: 6.00 Build 0)  -->
<svg version="1.1" id="a1818d2d-44ea-4adf-8c8c-51f3847fe2dc"
	 xmlns="http://www.w3.org/2000/svg" xmlns:xlink="http://www.w3.org/1999/xlink" x="0px" y="0px" viewBox="0 0 400 600"
	 style="enable-background:new 0 0 400 600;" xml:space="preserve">
<style type="text/css">
	.st0{fill:#91CAE6;}
	.st1{fill:none;stroke:#00A8E1;stroke-width:2;stroke-linecap:round;stroke-linejoin:round;}
	.st2{fill:none;stroke:#73C06B;stroke-width:2;stroke-linecap:round;stroke-linejoin:round;}
	.st3{fill:none;stroke:#73C06B;stroke-width:2;stroke-linecap:round;stroke-miterlimit:10;}
	.st4{fill:none;stroke:#00A8E1;stroke-width:2;stroke-linecap:round;stroke-miterlimit:10;}
	.st5{fill:#F6F9FB;}
	.st6{fill:none;stroke:#73C06B;stroke-width:2;stroke-linecap:round;stroke-miterlimit:10;stroke-dasharray:0,4;}
	.st7{fill:#FFFFFF;}
</style>
<title>important-outcomes-5</title>
<path class="st0" d="M315.7,594.5H191.5c-12.2,0-22.1-9.9-22.1-22.1l0,0c0-12.2,9.9-22.1,22.1-22.1h124.3c12.2,0,22.1,9.9,22.1,22.1
	l0,0C337.9,584.6,328,594.5,315.7,594.5z"/>
<g>
	<path class="st1" d="M281,513.3c-1.9,0.9-3.9,1.3-5.9,1.2c-1.5,0-3-0.2-4.5-0.6c-2.1-0.9-4.1-2-5.9-3.4c-2.2-1.4-4.8-2.1-7.4-2.1
		c-2-0.1-4.1,0.4-5.9,1.2c-1.5,0.8-3,1.8-4.5,2.8c-2.2,1.4-4.8,2.1-7.4,2.1c-2,0.1-4.1-0.4-5.9-1.2c-2.2-1.1-3.7-2.6-5.9-3.6
		c-3.8-1.7-8.1-1.7-11.9,0c-2.2,1.1-3.7,2.6-5.9,3.6c-1.9,0.9-3.9,1.3-5.9,1.2c-1.5,0-3-0.2-4.5-0.6c-2.1-0.9-4.1-2-5.9-3.4
		c-2.2-1.4-4.8-2.1-7.4-2.1"/>
	<path class="st2" d="M274.9,523.1c-2,0.1-4.1-0.4-5.9-1.2c-2.2-1.1-3.7-2.6-5.9-3.6c-3.8-1.7-8.1-1.7-11.8,0
		c-2.2,1.1-3.7,2.6-5.9,3.6c-3.8,1.7-8.1,1.7-11.8,0c-1.5-0.8-3-1.8-4.4-2.8c-2.2-1.4-4.8-2.1-7.4-2.1c-2-0.1-4.1,0.4-5.9,1.2
		c-2.2,1.1-3.7,2.6-5.9,3.6c-3.8,1.7-8.1,1.7-11.8,0c-2.2-1.1-3.7-2.6-5.9-3.6c-1.8-0.9-3.9-1.3-5.9-1.2c-2.6-0.1-5.2,0.6-7.4,2.1"
		/>
	<path class="st2" d="M323.6,518.2c-2.2,1.1-3.7,2.6-5.9,3.6c-3.8,1.7-8.1,1.7-11.9,0c-2.2-1.1-3.7-2.6-5.9-3.6
		c-3.8-1.7-8.1-1.7-11.9,0c-2.2,1.1-3.7,2.6-5.9,3.6c-1.9,0.9-3.9,1.3-5.9,1.2"/>
	<path class="st1" d="M310.2,531.6c-1.5,0-3-0.2-4.4-0.6c-2.1-0.9-4.1-2-5.9-3.4c-2.2-1.4-4.8-2.1-7.4-2.1c-2-0.1-4.1,0.4-5.9,1.2
		c-1.5,0.8-3,1.8-4.4,2.8c-2.2,1.4-4.8,2.1-7.4,2.1c-2,0.1-4.1-0.4-5.9-1.2c-2.2-1.1-3.7-2.6-5.9-3.6c-3.8-1.7-8.1-1.7-11.8,0
		c-2.2,1.1-3.7,2.6-5.9,3.6c-1.9,0.9-3.9,1.3-5.9,1.2c-1.5,0-3-0.2-4.4-0.6c-2.1-0.9-4.1-2-5.9-3.4c-2.2-1.4-4.8-2.1-7.4-2.1"/>
</g>
<line class="st3" x1="253.6" y1="490" x2="253.6" y2="452.5"/>
<line class="st4" x1="259.7" y1="473.4" x2="259.7" y2="455.7"/>
<line class="st4" x1="248.7" y1="410.3" x2="248.7" y2="392.8"/>
<line class="st3" x1="253.6" y1="414.1" x2="253.6" y2="381"/>
<rect x="167.1" y="415.5" class="st5" width="173" height="33.5"/>
<path class="st0" d="M313.5,189H189.3c-12.2,0-22.1-9.9-22.1-22.1l0,0c0-12.2,9.9-22.1,22.1-22.1h124.3c12.2,0,22.1,9.9,22.1,22.1
	l0,0C335.7,179.1,325.8,189,313.5,189z"/>
<path class="st0" d="M313.5,361.3H189.3c-12.2,0-22.1-9.9-22.1-22.1l0,0c0-12.2,9.9-22.1,22.1-22.1h124.3c12.2,0,22.1,9.9,22.1,22.1
	l0,0C335.7,351.4,325.8,361.3,313.5,361.3z"/>
<g>
	<polyline class="st1" points="261.7,15.9 270.7,23.5 270.7,46.8 	"/>
	<line class="st1" x1="251.4" y1="7.1" x2="259" y2="13.6"/>
	<line class="st1" x1="243.7" y1="13.7" x2="251.4" y2="7.1"/>
	<polyline class="st2" points="270.7,46.8 232.1,46.8 232.1,23.5 240.7,16.2 	"/>
	<polyline class="st2" points="261.6,30.6 261.6,13.8 241.2,13.8 241.2,30.6 	"/>
	<line class="st2" x1="246.9" y1="28.6" x2="255.9" y2="28.6"/>
	<line class="st2" x1="246.9" y1="24.5" x2="255.9" y2="24.5"/>
	<line class="st2" x1="246.9" y1="20.3" x2="255.9" y2="20.3"/>
	<polyline class="st1" points="270.7,23.5 251.4,39.8 236.9,27 	"/>
</g>
<g>
	<path class="st2" d="M307.9,107.3c0,1.8-1.4,3.2-3.2,3.2c-1.8,0-3.2-1.4-3.2-3.2c0-1.8,1.4-3.2,3.2-3.2l0,0
		C306.4,104.1,307.9,105.5,307.9,107.3L307.9,107.3z"/>
	<path class="st1" d="M333.1,107.3c0,1.8-1.4,3.2-3.2,3.2c-1.8,0-3.2-1.4-3.2-3.2c0-1.8,1.4-3.2,3.2-3.2l0,0
		C331.6,104.1,333.1,105.5,333.1,107.3L333.1,107.3z"/>
	<line class="st1" x1="326.4" y1="74.2" x2="326.4" y2="99.4"/>
	<line class="st2" x1="314" y1="74.2" x2="314" y2="99.5"/>
	<line class="st1" x1="338.9" y1="73.9" x2="336.7" y2="99.6"/>
	<line class="st1" x1="319.8" y1="73.9" x2="338.9" y2="73.9"/>
	<line class="st1" x1="336.7" y1="99.6" x2="320.3" y2="99.6"/>
	<line class="st1" x1="336.9" y1="86.8" x2="320.3" y2="86.8"/>
	<path class="st2" d="M320.3,99.6h-16.6l-2.3-26c-0.3-3-2.8-5.3-5.8-5.3"/>
	<line class="st2" x1="306.9" y1="73.9" x2="319.8" y2="73.9"/>
	<line class="st2" x1="319.8" y1="86.8" x2="302.5" y2="86.8"/>
</g>
<g>
	<polyline class="st1" points="187.9,70.5 171.7,70.5 171.7,106.4 198,106.4 198,86 	"/>
	<polyline class="st2" points="171.7,70.5 171.7,106.4 198,106.4 	"/>
	<polygon class="st1" points="198,80.7 187.9,80.7 187.9,70.5 	"/>
	<line class="st2" x1="177.2" y1="88.3" x2="193.1" y2="88.3"/>
	<line class="st2" x1="177.2" y1="93" x2="193.1" y2="93"/>
	<line class="st2" x1="177.2" y1="97.8" x2="193.1" y2="97.8"/>
</g>
<g>
	<line class="st3" x1="250.8" y1="295.8" x2="250.8" y2="250.4"/>
	<line class="st4" x1="256.9" y1="270.3" x2="256.9" y2="242.6"/>
	<line class="st4" x1="245.9" y1="246.2" x2="245.9" y2="218.6"/>
	<line class="st3" x1="250.8" y1="239" x2="250.8" y2="196.8"/>
</g>
<g>
	<path class="st1" d="M246.7,69.5h8.4c5,0,9,4,9,9l0,0v4.7"/>
	<path class="st1" d="M258.3,102.2v4.7l14.2,1.5c3,0.7,5.1,3.4,5.1,6.4v14.4"/>
	<polyline class="st1" points="277.6,129.4 273.7,129.4 251.4,129.4 	"/>
	<path class="st2" d="M264.1,78.1v11.2c0,7.8-5.7,14.1-12.7,14.1s-12.7-6.3-12.7-14.1v-7.1"/>
	<line class="st2" x1="238.7" y1="83.8" x2="246" y2="76.9"/>
	<path class="st2" d="M251.4,69.5h-4.7c-4.4,0-8,3.6-8,8v6.4"/>
	<path class="st2" d="M244.5,102.2v4.7l-14.2,1.5c-3,0.7-5.1,3.4-5.1,6.4v14.4h26.2"/>
	<path class="st1" d="M264.1,78.1v11.2c0,7.8-5.7,14.1-12.7,14.1"/>
	<path class="st2" d="M251.4,103.4c-7,0-12.7-6.3-12.7-14.1v-7.1"/>
	<path class="st2" d="M264.1,83.8c-11.7,0-18.1-6.9-18.1-6.9l-7.3,6.9v-6.4c0-4.4,3.6-8,8-8l0,0"/>
</g>
<line class="st6" x1="126.8" y1="339" x2="160.3" y2="339"/>
<g>
	<path class="st7" d="M194.7,172.7v-8.5c0-2.6,2-2.7,4.3-2.7c0.9,0,2.5,0,3.3,0.1v1.8h-3.4c-1.5,0-1.7,0.3-1.7,1.5v1.3h4.9v1.8h-4.9
		v4.8H194.7z"/>
	<path class="st7" d="M203.3,161.9c0-0.9,0.3-1.2,1.4-1.2c1,0,1.4,0.3,1.4,1.2s-0.3,1.2-1.4,1.2
		C203.6,163.1,203.3,162.8,203.3,161.9z M203.5,164.1h2.3v8.6h-2.3V164.1z"/>
	<path class="st7" d="M207.6,172.7v-6.3c0-0.6,0-1.1,0.1-1.6c1-0.6,2.5-0.8,3.8-0.8c0.3,0,0.7,0,0.9,0l-0.2,1.7c-0.2,0-0.4,0-0.7,0
		c-0.5,0-1.2,0.1-1.6,0.3c0,0.3-0.1,0.8-0.1,1.1v5.5H207.6z"/>
	<path class="st7" d="M215.3,166.4c0,0.8,1,0.9,1.7,1.1c1.6,0.5,2.9,0.8,2.9,2.7c0,2-1.6,2.6-3.7,2.6c-1.1,0-2.4-0.1-3.3-0.4
		l0.2-1.6c0.7,0.1,1.8,0.3,2.5,0.3c0.7,0,1.9,0,1.9-0.8c0-0.8-0.8-0.9-1.6-1.1c-1.5-0.4-2.9-0.8-2.9-2.7c0-1.9,1.5-2.5,3.3-2.5
		c1.3,0,2.3,0.1,3.4,0.4l-0.2,1.6c-0.7-0.1-1.5-0.2-2.4-0.2C216.5,165.7,215.3,165.7,215.3,166.4z"/>
	<path class="st7" d="M224.5,161.7v2.4h1.9v1.6h-1.9v4.4c0,0.7,0.3,1,1.1,1c0.3,0,0.5,0,0.8,0l0.2,1.5c-0.5,0.1-1.1,0.1-1.6,0.1
		c-2,0-2.8-0.8-2.8-2.4v-4.6h-1.5v-1.6h1.5v-2.1L224.5,161.7z"/>
	<path class="st7" d="M226.8,167.6h4.6v1.7h-4.6V167.6z"/>
	<path class="st7" d="M235.3,175.8H233v-9.4c0-0.6,0-1.1,0.1-1.6c1-0.6,2.5-0.8,3.8-0.8c3.1,0,4.4,1,4.4,4.4c0,3.3-1.3,4.4-4.2,4.4
		c-0.6,0-1.2-0.1-1.8-0.2V175.8z M236.6,171.1c2.2,0,2.3-1.2,2.3-2.7c0-1.4-0.1-2.7-2.1-2.7c-0.5,0-1.1,0.1-1.5,0.2
		c0,0.3-0.1,0.8-0.1,1.1v3.9C235.7,171,236.2,171.1,236.6,171.1z"/>
	<path class="st7" d="M242.1,170.1c0-1.5,0.7-2.5,2.6-2.7c1-0.1,2-0.2,3-0.2c0-1-0.5-1.4-1.7-1.4c-1.1,0-2.4,0.1-3.3,0.2l-0.2-1.6
		c1-0.2,2.3-0.3,3.7-0.3c2.1,0,3.8,0.5,3.8,2.8v3.6c0,0.6,0,1.1-0.1,1.6c-1.1,0.6-2.5,0.8-4.2,0.8
		C243.2,172.8,242.1,171.9,242.1,170.1z M247.7,168.5c-0.7,0-1.5,0.1-2.2,0.2c-0.8,0.2-1.1,0.4-1.1,1.3c0,0.9,0.6,1.1,1.6,1.1
		c0.5,0,1.1,0,1.6-0.2c0-0.3,0.1-0.8,0.1-1.1V168.5z"/>
	<path class="st7" d="M251.6,172.7v-6.3c0-0.6,0-1.1,0.1-1.6c1-0.6,2.5-0.8,3.8-0.8c0.3,0,0.7,0,1,0l-0.2,1.7c-0.2,0-0.4,0-0.7,0
		c-0.5,0-1.2,0.1-1.6,0.3c0,0.3-0.1,0.8-0.1,1.1v5.5H251.6z"/>
	<path class="st7" d="M260.8,161.7v2.4h1.9v1.6h-1.9v4.4c0,0.7,0.3,1,1.1,1c0.3,0,0.5,0,0.8,0l0.2,1.5c-0.5,0.1-1.1,0.1-1.6,0.1
		c-2,0-2.8-0.8-2.8-2.4v-4.6h-1.5v-1.6h1.5v-2.1L260.8,161.7z"/>
	<path class="st7" d="M269.9,164.1h2.4l-4.4,11.7h-2.4l1.5-3.8l-3.8-8h2.5l2.3,5.3L269.9,164.1z"/>
	<path class="st7" d="M282.4,160.8h2.3v9.6c0,0.6,0,1.1-0.1,1.6c-1.1,0.6-2.5,0.8-3.8,0.8c-3.1,0-4.4-1-4.4-4.4
		c0-3.3,1.3-4.4,4.2-4.4c0.6,0,1.2,0.1,1.8,0.2V160.8z M281.1,165.7c-2.2,0-2.3,1.2-2.3,2.7c0,1.4,0.1,2.7,2.1,2.7
		c0.5,0,1.1-0.1,1.5-0.2c0-0.3,0.1-0.8,0.1-1.1v-3.9C282,165.8,281.5,165.7,281.1,165.7z"/>
	<path class="st7" d="M285.9,170.1c0-1.5,0.7-2.5,2.6-2.7c1-0.1,2-0.2,3-0.2c0-1-0.5-1.4-1.7-1.4c-1.1,0-2.4,0.1-3.3,0.2l-0.2-1.6
		c1-0.2,2.3-0.3,3.7-0.3c2.1,0,3.8,0.5,3.8,2.8v3.6c0,0.6,0,1.1-0.1,1.6c-1.1,0.6-2.5,0.8-4.2,0.8
		C286.9,172.8,285.9,171.9,285.9,170.1z M291.5,168.5c-0.7,0-1.5,0.1-2.2,0.2c-0.8,0.2-1.1,0.4-1.1,1.3c0,0.9,0.6,1.1,1.6,1.1
		c0.5,0,1.1,0,1.6-0.2c0-0.3,0.1-0.8,0.1-1.1V168.5z"/>
	<path class="st7" d="M298.5,161.7v2.4h1.9v1.6h-1.9v4.4c0,0.7,0.3,1,1.1,1c0.3,0,0.5,0,0.8,0l0.2,1.5c-0.5,0.1-1.1,0.1-1.6,0.1
		c-2,0-2.8-0.8-2.8-2.4v-4.6h-1.5v-1.6h1.5v-2.1L298.5,161.7z"/>
	<path class="st7" d="M301.2,170.1c0-1.5,0.7-2.5,2.6-2.7c1-0.1,2-0.2,3-0.2c0-1-0.5-1.4-1.7-1.4c-1.1,0-2.4,0.1-3.3,0.2l-0.2-1.6
		c1-0.2,2.3-0.3,3.7-0.3c2.1,0,3.8,0.5,3.8,2.8v3.6c0,0.6,0,1.1-0.1,1.6c-1.1,0.6-2.5,0.8-4.2,0.8
		C302.2,172.8,301.2,171.9,301.2,170.1z M306.8,168.5c-0.7,0-1.5,0.1-2.2,0.2c-0.8,0.2-1.1,0.4-1.1,1.3c0,0.9,0.6,1.1,1.6,1.1
		c0.5,0,1.1,0,1.6-0.2c0-0.3,0.1-0.8,0.1-1.1V168.5z"/>
</g>
<g>
	<path class="st0" d="M55,335.4v-12.6h2.4v12.6H55z"/>
	<path class="st0" d="M65.9,322.1h2.2v10.9c0,0.6,0,1.2-0.1,1.8c-1.2,0.6-2.8,0.8-4.1,0.8c-3.5,0-4.9-1.2-4.9-4.9
		c0-3.7,1.4-4.9,4.6-4.9c0.7,0,1.6,0.1,2.3,0.3V322.1z M64.1,327.3c-2.8,0-2.9,1.4-2.9,3.3c0,1.8,0.1,3.4,2.6,3.4
		c0.7,0,1.5-0.1,1.9-0.3c0-0.4,0.1-0.9,0.1-1.3v-4.8C65.4,327.4,64.7,327.3,64.1,327.3z"/>
	<path class="st0" d="M72,331.6c0.1,1.9,1.2,2.3,2.8,2.3c1.4,0,2.7-0.1,3.8-0.2l0.2,1.5c-1.1,0.2-2.5,0.4-4.5,0.4
		c-3.5,0-4.5-2.1-4.5-4.9c0-3.5,1.2-4.9,4.7-4.9c3.8,0,4.6,1.8,4.6,4.7c0,0.2,0,0.5,0,0.7c-1.2,0.2-3.7,0.4-5.2,0.5L72,331.6z
		 M74,330.2c0.8,0,2-0.1,2.7-0.2c0-0.1,0-0.3,0-0.4c0-1.5-0.6-2.3-2.3-2.3c-2.2,0-2.5,1.3-2.5,3L74,330.2z"/>
	<path class="st0" d="M89.6,335.4h-2.2v-5.9c0-1.5-0.3-2.2-2.5-2.2c-0.7,0-1.5,0.1-1.9,0.3c0,0.4-0.1,0.9-0.1,1.3v6.5h-2.2v-7.1
		c0-0.6,0-1.2,0.1-1.8c1.2-0.5,2.8-0.8,4.7-0.8c3.7,0,4.1,1.6,4.1,3.6V335.4z"/>
	<path class="st0" d="M97.1,335.4c-0.5,0.1-1.1,0.1-1.6,0.1c-2.1,0-3-0.8-3-2.6v-5.6h-1.8v-1.5h1.8v-2.4l2.2-0.3v2.7h2.2v1.5h-2.2
		v5.4c0,0.9,0.4,1.2,1.4,1.2c0.3,0,0.5,0,0.8,0L97.1,335.4z"/>
	<path class="st0" d="M99.4,324.5c-1.1,0-1.4-0.3-1.4-1.2c0-0.9,0.3-1.2,1.4-1.2c1,0,1.4,0.3,1.4,1.2
		C100.8,324.2,100.5,324.5,99.4,324.5z M98.3,335.4v-9.6h2.3v9.6H98.3z"/>
	<path class="st0" d="M108.1,335.4c-0.5,0.1-1.1,0.1-1.6,0.1c-2.1,0-3-0.8-3-2.6v-5.6h-1.8v-1.5h1.8v-2.4l2.2-0.3v2.7h2.2v1.5h-2.2
		v5.4c0,0.9,0.4,1.2,1.4,1.2c0.3,0,0.5,0,0.8,0L108.1,335.4z"/>
	<path class="st0" d="M114,332.2l2.2-6.4h2.3l-4.9,13.2h-2.3l1.6-4.2l-4.2-9h2.4L114,332.2z"/>
	<path class="st0" d="M37.9,355h-2.2v-7.1c0-0.6,0-1.2,0.1-1.8c1.2-0.6,2.8-0.8,4.1-0.8c0.3,0,0.7,0,1,0l-0.2,1.6
		c-0.2,0-0.5,0-0.8,0c-0.7,0-1.5,0.1-1.9,0.3c0,0.4-0.1,0.9-0.1,1.3V355z"/>
	<path class="st0" d="M43.7,351.2c0.1,1.9,1.2,2.3,2.8,2.3c1.4,0,2.7-0.1,3.8-0.2l0.2,1.5c-1.1,0.2-2.5,0.4-4.5,0.4
		c-3.5,0-4.5-2.1-4.5-4.9c0-3.5,1.2-4.9,4.7-4.9c3.8,0,4.6,1.8,4.6,4.7c0,0.2,0,0.5,0,0.7c-1.2,0.2-3.7,0.4-5.2,0.5L43.7,351.2z
		 M45.7,349.8c0.8,0,2-0.1,2.7-0.2c0-0.1,0-0.3,0-0.4c0-1.5-0.6-2.3-2.3-2.3c-2.2,0-2.5,1.3-2.5,3L45.7,349.8z"/>
	<path class="st0" d="M57.4,352.4c0-1.1-1.1-1.2-2.1-1.5c-1.7-0.5-3.3-0.9-3.3-2.9c0-2.1,1.6-2.7,3.7-2.7c1.5,0,2.5,0.1,3.7,0.4
		l-0.2,1.5c-0.8-0.1-1.7-0.3-2.6-0.3c-0.9,0-2.4,0-2.4,1c0,1,1.3,1.2,2.1,1.5c1.8,0.6,3.2,0.9,3.2,3c0,2.2-1.8,2.8-4.1,2.8
		c-1.1,0-2.5-0.1-3.6-0.4l0.2-1.5c0.8,0.1,2,0.3,2.8,0.3C55.8,353.5,57.4,353.5,57.4,352.4z"/>
	<path class="st0" d="M65.5,355.2c-3.4,0-4.7-1.3-4.7-4.9c0-3.6,1.2-4.9,4.7-4.9s4.7,1.4,4.7,4.9C70.2,353.8,68.9,355.2,65.5,355.2z
		 M65.5,353.5c1.9,0,2.4-0.8,2.4-3.3c0-2.5-0.5-3.3-2.4-3.3s-2.4,0.7-2.4,3.3C63.1,352.9,63.6,353.5,65.5,353.5z"/>
	<path class="st0" d="M71.7,341.7H74v10.8c0,0.9,0.2,1.5,0.8,2.2l-2,0.8c-0.7-0.7-1.1-1.6-1.1-2.9V341.7z"/>
	<path class="st0" d="M82.6,345.4h2.2v7.1c0,0.6,0,1.2-0.1,1.8c-1.2,0.5-2.7,0.8-4.7,0.8c-3.7,0-4.1-1.6-4.1-3.6v-6.2h2.2v5.9
		c0,1.5,0.3,2.2,2.4,2.2c0.7,0,1.4-0.1,1.9-0.3c0-0.4,0.1-0.9,0.1-1.3V345.4z"/>
	<path class="st0" d="M92.4,355c-0.5,0.1-1.1,0.1-1.6,0.1c-2.1,0-3-0.8-3-2.6v-5.6H86v-1.5h1.8V343l2.2-0.3v2.7h2.2v1.5H90v5.4
		c0,0.9,0.4,1.2,1.4,1.2c0.3,0,0.5,0,0.8,0L92.4,355z"/>
	<path class="st0" d="M94.8,344.1c-1.1,0-1.4-0.3-1.4-1.2s0.3-1.2,1.4-1.2c1,0,1.4,0.3,1.4,1.2S95.8,344.1,94.8,344.1z M93.7,355
		v-9.6h2.3v9.6H93.7z"/>
	<path class="st0" d="M102.3,355.2c-3.4,0-4.7-1.3-4.7-4.9c0-3.6,1.2-4.9,4.7-4.9s4.7,1.4,4.7,4.9
		C107,353.8,105.7,355.2,102.3,355.2z M102.3,353.5c1.9,0,2.4-0.8,2.4-3.3c0-2.5-0.5-3.3-2.4-3.3s-2.4,0.7-2.4,3.3
		C99.9,352.9,100.4,353.5,102.3,353.5z"/>
	<path class="st0" d="M117.5,355h-2.2v-5.9c0-1.5-0.3-2.2-2.5-2.2c-0.7,0-1.5,0.1-1.9,0.3c0,0.4-0.1,0.9-0.1,1.3v6.5h-2.2v-7.1
		c0-0.6,0-1.2,0.1-1.8c1.2-0.5,2.8-0.8,4.7-0.8c3.7,0,4.1,1.6,4.1,3.6V355z"/>
</g>
<g>
	<path class="st7" d="M189.2,344.6c-0.9,0-2.4,0.1-3.1,0.1c-2.2,0-4.2-0.1-4.2-2.7v-8.5h2.5v7.9c0,1.2,0.2,1.5,1.7,1.5h3.2V344.6z"
		/>
	<path class="st7" d="M189.9,333.9c0-0.9,0.3-1.2,1.4-1.2c1,0,1.4,0.3,1.4,1.2c0,0.9-0.3,1.2-1.4,1.2
		C190.2,335.1,189.9,334.8,189.9,333.9z M190.1,336.1h2.3v8.6h-2.3V336.1z"/>
	<path class="st7" d="M199.7,343.5c-0.4,0.9-0.9,1.3-1.8,1.3c-0.8,0-1.4-0.4-1.8-1.3l-2.9-7.4h2.5l2.2,6.4l2.2-6.4h2.4L199.7,343.5z
		"/>
	<path class="st7" d="M202.9,340.4c0-3.1,1.1-4.4,4.2-4.4c3.4,0,4.1,1.6,4.1,4.2c0,0.2,0,0.5,0,0.7c-1.1,0.2-3.1,0.4-4.4,0.4
		l-1.5,0.1c0.1,1.3,0.9,1.7,2.2,1.7c1.3,0,2.4-0.1,3.4-0.2l0.2,1.6c-1,0.1-2.3,0.3-4.1,0.3C203.7,344.8,202.9,342.9,202.9,340.4z
		 M206.7,339.9c0.6,0,1.6-0.1,2.1-0.2c0-0.1,0-0.2,0-0.3c0-1.1-0.5-1.7-1.8-1.7c-1.7,0-1.9,1-1.9,2.3L206.7,339.9z"/>
	<path class="st7" d="M215.1,344.7h-2.5v-11c1.1-0.2,2.5-0.3,4-0.3c2.7,0,4.9,0.5,4.9,3.5c0,2-0.9,2.9-2.3,3.3l2.8,4.5h-2.9
		l-2.5-4.2c-0.5,0-1.1,0-1.5,0V344.7z M215.1,338.6c0.5,0.1,1,0.1,1.5,0.1c1.5,0,2.4-0.4,2.4-1.8c0-1.2-0.6-1.7-2.4-1.7
		c-0.5,0-1.1,0-1.6,0.1V338.6z"/>
	<path class="st7" d="M222.5,342.1c0-1.5,0.7-2.5,2.6-2.7c1-0.1,2-0.2,3-0.2c0-1-0.5-1.4-1.7-1.4c-1.1,0-2.4,0.1-3.3,0.2l-0.2-1.6
		c1-0.2,2.3-0.3,3.7-0.3c2.1,0,3.8,0.5,3.8,2.8v3.6c0,0.6,0,1.1-0.1,1.6c-1.1,0.6-2.5,0.8-4.2,0.8
		C223.5,344.8,222.5,343.9,222.5,342.1z M228.1,340.5c-0.7,0-1.5,0.1-2.2,0.2c-0.8,0.2-1.1,0.4-1.1,1.3c0,0.9,0.6,1.1,1.6,1.1
		c0.5,0,1.1,0,1.6-0.2c0-0.3,0.1-0.8,0.1-1.1V340.5z"/>
	<path class="st7" d="M234.2,344.7h-2.3v-6.3c0-0.6,0-1.1,0.1-1.6c1-0.5,2.5-0.8,4-0.8c1,0,1.8,0.2,2.3,0.5c0.8-0.3,1.9-0.5,2.9-0.5
		c3,0,3.4,1.5,3.4,3.2v5.5h-2.3v-5.3c0-1.1-0.3-1.7-1.6-1.7c-0.4,0-0.9,0.1-1.3,0.3c0.1,0.4,0.1,0.8,0.1,1.2v5.5H237v-5.3
		c0-1.1-0.3-1.7-1.6-1.7c-0.4,0-0.9,0.1-1.2,0.2c0,0.3-0.1,0.8-0.1,1.1V344.7z"/>
	<path class="st7" d="M248.5,347.8h-2.3v-9.4c0-0.6,0-1.1,0.1-1.6c1-0.6,2.5-0.8,3.8-0.8c3.1,0,4.4,1,4.4,4.4c0,3.3-1.3,4.4-4.2,4.4
		c-0.6,0-1.2-0.1-1.8-0.2V347.8z M249.8,343.1c2.2,0,2.3-1.2,2.3-2.7c0-1.4-0.1-2.7-2.1-2.7c-0.5,0-1.1,0.1-1.5,0.2
		c0,0.3-0.1,0.8-0.1,1.1v3.9C248.9,343,249.4,343.1,249.8,343.1z"/>
	<path class="st7" d="M261.8,347.8h-2.3v-9.4c0-0.6,0-1.1,0.1-1.6c1-0.6,2.5-0.8,3.8-0.8c3.1,0,4.4,1,4.4,4.4c0,3.3-1.3,4.4-4.2,4.4
		c-0.6,0-1.2-0.1-1.8-0.2V347.8z M263.1,343.1c2.2,0,2.3-1.2,2.3-2.7c0-1.4-0.1-2.7-2.1-2.7c-0.5,0-1.1,0.1-1.5,0.2
		c0,0.3-0.1,0.8-0.1,1.1v3.9C262.2,343,262.7,343.1,263.1,343.1z"/>
	<path class="st7" d="M269,332.8h2.3v9.5c0,0.8,0.2,1.3,0.7,1.9l-2.1,0.9c-0.6-0.6-0.9-1.4-0.9-2.6V332.8z"/>
	<path class="st7" d="M272.5,342.1c0-1.5,0.7-2.5,2.6-2.7c1-0.1,2-0.2,3-0.2c0-1-0.5-1.4-1.7-1.4c-1.1,0-2.4,0.1-3.3,0.2l-0.2-1.6
		c1-0.2,2.3-0.3,3.7-0.3c2.1,0,3.8,0.5,3.8,2.8v3.6c0,0.6,0,1.1-0.1,1.6c-1.1,0.6-2.5,0.8-4.2,0.8
		C273.5,344.8,272.5,343.9,272.5,342.1z M278.1,340.5c-0.7,0-1.5,0.1-2.2,0.2c-0.8,0.2-1.1,0.4-1.1,1.3c0,0.9,0.6,1.1,1.6,1.1
		c0.5,0,1.1,0,1.6-0.2c0-0.3,0.1-0.8,0.1-1.1V340.5z"/>
	<path class="st7" d="M285.1,333.7v2.4h1.9v1.6h-1.9v4.4c0,0.7,0.3,1,1.1,1c0.3,0,0.5,0,0.8,0l0.2,1.5c-0.5,0.1-1.1,0.1-1.6,0.1
		c-2,0-2.8-0.8-2.8-2.4v-4.6h-1.5v-1.6h1.5v-2.1L285.1,333.7z"/>
	<path class="st7" d="M291.5,336.1h1.9v1.6h-1.9v6.9h-2.3v-6.9h-1.5v-1.6h1.5v-0.7c0-1.7,1-2.7,3-2.7c0.4,0,1,0,1.4,0.1l-0.2,1.5
		h-0.7c-0.8,0-1.2,0.3-1.2,1.1V336.1z"/>
	<path class="st7" d="M294,340.4c0-3.2,1.1-4.4,4.2-4.4c3.1,0,4.2,1.2,4.2,4.4c0,3.2-1.1,4.4-4.2,4.4
		C295.1,344.8,294,343.6,294,340.4z M300,340.4c0-2.1-0.4-2.7-1.9-2.7c-1.5,0-1.8,0.5-1.8,2.7c0,2.1,0.4,2.7,1.8,2.7
		C299.7,343.1,300,342.5,300,340.4z"/>
	<path class="st7" d="M303.7,344.7v-6.3c0-0.6,0-1.1,0.1-1.6c1-0.6,2.5-0.8,3.8-0.8c0.3,0,0.7,0,1,0l-0.2,1.7c-0.2,0-0.4,0-0.7,0
		c-0.5,0-1.2,0.1-1.6,0.3c0,0.3-0.1,0.8-0.1,1.1v5.5H303.7z"/>
	<path class="st7" d="M311.6,344.7h-2.3v-6.3c0-0.6,0-1.1,0.1-1.6c1-0.5,2.5-0.8,4-0.8c1,0,1.8,0.2,2.3,0.5c0.8-0.3,1.9-0.5,2.9-0.5
		c3,0,3.4,1.5,3.4,3.2v5.5h-2.3v-5.3c0-1.1-0.3-1.7-1.6-1.7c-0.4,0-0.9,0.1-1.3,0.3c0.1,0.4,0.1,0.8,0.1,1.2v5.5h-2.3v-5.3
		c0-1.1-0.3-1.7-1.6-1.7c-0.4,0-0.9,0.1-1.2,0.2c0,0.3-0.1,0.8-0.1,1.1V344.7z"/>
</g>
<g>
	<path class="st0" d="M186.1,440.3h-2.5v-11c1.1-0.2,2.5-0.3,4-0.3c2.7,0,4.9,0.5,4.9,3.5c0,2-0.9,2.9-2.3,3.3l2.8,4.5h-2.9
		l-2.5-4.2c-0.5,0-1.1,0-1.5,0V440.3z M186.1,434.2c0.5,0.1,1,0.1,1.5,0.1c1.5,0,2.4-0.4,2.4-1.8c0-1.2-0.6-1.7-2.4-1.7
		c-0.5,0-1.1,0-1.6,0.1V434.2z"/>
	<path class="st0" d="M193.5,436c0-3.1,1.1-4.4,4.2-4.4c3.4,0,4.1,1.6,4.1,4.2c0,0.2,0,0.5,0,0.7c-1.1,0.2-3.1,0.4-4.4,0.4l-1.5,0.1
		c0.1,1.3,0.9,1.7,2.2,1.7c1.3,0,2.4-0.1,3.4-0.2l0.2,1.6c-1,0.1-2.3,0.3-4.1,0.3C194.3,440.4,193.5,438.5,193.5,436z M197.4,435.5
		c0.6,0,1.6-0.1,2.1-0.2c0-0.1,0-0.2,0-0.3c0-1.1-0.5-1.7-1.8-1.7c-1.7,0-1.9,1-1.9,2.3L197.4,435.5z"/>
	<path class="st0" d="M205.2,434c0,0.8,1,0.9,1.7,1.1c1.6,0.5,2.9,0.8,2.9,2.7c0,2-1.6,2.6-3.7,2.6c-1.1,0-2.4-0.1-3.3-0.4l0.2-1.6
		c0.7,0.1,1.8,0.3,2.5,0.3c0.7,0,1.9,0,1.9-0.8c0-0.8-0.8-0.9-1.6-1.1c-1.5-0.4-2.9-0.8-2.9-2.7c0-1.9,1.5-2.5,3.3-2.5
		c1.3,0,2.3,0.1,3.4,0.4l-0.2,1.6c-0.7-0.1-1.5-0.2-2.4-0.2C206.3,433.3,205.2,433.3,205.2,434z"/>
	<path class="st0" d="M210.7,436c0-3.2,1.1-4.4,4.2-4.4c3.1,0,4.2,1.2,4.2,4.4c0,3.2-1.1,4.4-4.2,4.4
		C211.8,440.4,210.7,439.2,210.7,436z M216.7,436c0-2.1-0.4-2.7-1.9-2.7c-1.5,0-1.8,0.5-1.8,2.7c0,2.1,0.4,2.7,1.8,2.7
		C216.4,438.7,216.7,438.1,216.7,436z"/>
	<path class="st0" d="M220.3,428.4h2.3v9.5c0,0.8,0.2,1.3,0.7,1.9l-2.1,0.9c-0.6-0.6-0.9-1.4-0.9-2.6V428.4z"/>
	<path class="st0" d="M230,439.1c-0.4,0.9-0.9,1.3-1.8,1.3c-0.8,0-1.4-0.4-1.8-1.3l-2.9-7.4h2.5l2.2,6.4l2.2-6.4h2.4L230,439.1z"/>
	<path class="st0" d="M233.1,436c0-3.1,1.1-4.4,4.2-4.4c3.4,0,4.1,1.6,4.1,4.2c0,0.2,0,0.5,0,0.7c-1.1,0.2-3.1,0.4-4.4,0.4l-1.5,0.1
		c0.1,1.3,0.9,1.7,2.2,1.7c1.3,0,2.4-0.1,3.4-0.2l0.2,1.6c-1,0.1-2.3,0.3-4.1,0.3C234,440.4,233.1,438.5,233.1,436z M237,435.5
		c0.6,0,1.6-0.1,2.1-0.2c0-0.1,0-0.2,0-0.3c0-1.1-0.5-1.7-1.8-1.7c-1.7,0-1.9,1-1.9,2.3L237,435.5z"/>
	<path class="st0" d="M248.3,428.4h2.3v9.6c0,0.6,0,1.1-0.1,1.6c-1.1,0.6-2.5,0.8-3.8,0.8c-3.1,0-4.4-1-4.4-4.4
		c0-3.3,1.3-4.4,4.2-4.4c0.6,0,1.2,0.1,1.8,0.2V428.4z M247,433.3c-2.2,0-2.3,1.2-2.3,2.7c0,1.4,0.1,2.7,2.1,2.7
		c0.5,0,1.1-0.1,1.5-0.2c0-0.3,0.1-0.8,0.1-1.1v-3.9C247.9,433.4,247.4,433.3,247,433.3z"/>
	<path class="st0" d="M255.9,429.5c0-0.9,0.3-1.2,1.4-1.2c1,0,1.4,0.3,1.4,1.2c0,0.9-0.3,1.2-1.4,1.2
		C256.2,430.7,255.9,430.4,255.9,429.5z M256.1,431.7h2.3v8.6h-2.3V431.7z"/>
	<path class="st0" d="M265.7,428.4h2.3v9.6c0,0.6,0,1.1-0.1,1.6c-1.1,0.6-2.5,0.8-3.8,0.8c-3.1,0-4.4-1-4.4-4.4
		c0-3.3,1.3-4.4,4.2-4.4c0.6,0,1.2,0.1,1.8,0.2V428.4z M264.4,433.3c-2.2,0-2.3,1.2-2.3,2.7c0,1.4,0.1,2.7,2.1,2.7
		c0.5,0,1.1-0.1,1.5-0.2c0-0.3,0.1-0.8,0.1-1.1v-3.9C265.3,433.4,264.8,433.3,264.4,433.3z"/>
	<path class="st0" d="M269.3,436c0-3.1,1.1-4.4,4.2-4.4c3.4,0,4.1,1.6,4.1,4.2c0,0.2,0,0.5,0,0.7c-1.1,0.2-3.1,0.4-4.4,0.4l-1.5,0.1
		c0.1,1.3,0.9,1.7,2.2,1.7c1.3,0,2.4-0.1,3.4-0.2l0.2,1.6c-1,0.1-2.3,0.3-4.1,0.3C270.2,440.4,269.3,438.5,269.3,436z M273.2,435.5
		c0.6,0,1.6-0.1,2.1-0.2c0-0.1,0-0.2,0-0.3c0-1.1-0.5-1.7-1.8-1.7c-1.7,0-1.9,1-1.9,2.3L273.2,435.5z"/>
	<path class="st0" d="M281.3,440.3H279V434c0-0.6,0-1.1,0.1-1.6c1.1-0.5,2.5-0.8,4.2-0.8c3.4,0,3.7,1.4,3.7,3.2v5.5h-2.3V435
		c0-1.2-0.2-1.7-1.9-1.7c-0.5,0-1.1,0.1-1.4,0.2c0,0.3-0.1,0.8-0.1,1.1V440.3z"/>
	<path class="st0" d="M291.7,429.3v2.4h1.9v1.6h-1.9v4.4c0,0.7,0.3,1,1.1,1c0.3,0,0.5,0,0.8,0l0.2,1.5c-0.5,0.1-1.1,0.1-1.6,0.1
		c-2,0-2.8-0.8-2.8-2.4v-4.6h-1.5v-1.6h1.5v-2.1L291.7,429.3z"/>
	<path class="st0" d="M294.6,429.5c0-0.9,0.3-1.2,1.4-1.2c1,0,1.4,0.3,1.4,1.2c0,0.9-0.3,1.2-1.4,1.2
		C294.9,430.7,294.6,430.4,294.6,429.5z M294.8,431.7h2.3v8.6h-2.3V431.7z"/>
	<path class="st0" d="M301.9,429.3v2.4h1.9v1.6h-1.9v4.4c0,0.7,0.3,1,1.1,1c0.3,0,0.5,0,0.8,0l0.2,1.5c-0.5,0.1-1.1,0.1-1.6,0.1
		c-2,0-2.8-0.8-2.8-2.4v-4.6h-1.5v-1.6h1.5v-2.1L301.9,429.3z"/>
	<path class="st0" d="M304.8,429.5c0-0.9,0.3-1.2,1.4-1.2c1,0,1.4,0.3,1.4,1.2c0,0.9-0.3,1.2-1.4,1.2
		C305.1,430.7,304.8,430.4,304.8,429.5z M305,431.7h2.3v8.6H305V431.7z"/>
	<path class="st0" d="M308.6,436c0-3.1,1.1-4.4,4.2-4.4c3.4,0,4.1,1.6,4.1,4.2c0,0.2,0,0.5,0,0.7c-1.1,0.2-3.1,0.4-4.4,0.4l-1.5,0.1
		c0.1,1.3,0.9,1.7,2.2,1.7c1.3,0,2.4-0.1,3.4-0.2l0.2,1.6c-1,0.1-2.3,0.3-4.1,0.3C309.4,440.4,308.6,438.5,308.6,436z M312.5,435.5
		c0.6,0,1.6-0.1,2.1-0.2c0-0.1,0-0.2,0-0.3c0-1.1-0.5-1.7-1.8-1.7c-1.7,0-1.9,1-1.9,2.3L312.5,435.5z"/>
	<path class="st0" d="M320.3,434c0,0.8,1,0.9,1.7,1.1c1.6,0.5,2.9,0.8,2.9,2.7c0,2-1.6,2.6-3.7,2.6c-1.1,0-2.4-0.1-3.3-0.4l0.2-1.6
		c0.7,0.1,1.8,0.3,2.5,0.3c0.7,0,1.9,0,1.9-0.8c0-0.8-0.8-0.9-1.6-1.1c-1.5-0.4-2.9-0.8-2.9-2.7c0-1.9,1.5-2.5,3.3-2.5
		c1.3,0,2.3,0.1,3.4,0.4l-0.2,1.6c-0.7-0.1-1.5-0.2-2.4-0.2C321.4,433.3,320.3,433.3,320.3,434z"/>
</g>
<g>
	<path class="st7" d="M220,568.4c1-0.2,2.5-0.3,4-0.3c4.6,0,5.4,1.9,5.4,5.7s-0.8,5.7-5.4,5.7c-1.5,0-2.9-0.1-4-0.3V568.4z
		 M222.5,570v7.6c0.3,0,0.7,0.1,1.2,0.1c3.2,0,3.2-1.7,3.2-3.9c0-2.2,0-3.9-3.2-3.9C223.2,569.9,222.8,570,222.5,570z"/>
	<path class="st7" d="M230.5,576.8c0-1.5,0.7-2.5,2.6-2.7c1-0.1,2-0.2,3-0.2c0-1-0.5-1.4-1.7-1.4c-1.1,0-2.4,0.1-3.3,0.2l-0.2-1.6
		c1-0.2,2.3-0.3,3.7-0.3c2.1,0,3.8,0.5,3.8,2.8v3.6c0,0.6,0,1.1-0.1,1.6c-1.1,0.6-2.5,0.8-4.2,0.8
		C231.5,579.5,230.5,578.6,230.5,576.8z M236,575.2c-0.7,0-1.5,0.1-2.2,0.2c-0.8,0.2-1.1,0.4-1.1,1.3c0,0.9,0.6,1.1,1.6,1.1
		c0.5,0,1.1,0,1.6-0.2c0-0.3,0.1-0.8,0.1-1.1V575.2z"/>
	<path class="st7" d="M243.1,568.4v2.4h1.9v1.6h-1.9v4.4c0,0.7,0.3,1,1.1,1c0.3,0,0.5,0,0.8,0l0.2,1.5c-0.5,0.1-1.1,0.1-1.6,0.1
		c-2,0-2.8-0.8-2.8-2.4v-4.6h-1.5v-1.6h1.5v-2.1L243.1,568.4z"/>
	<path class="st7" d="M245.7,576.8c0-1.5,0.7-2.5,2.6-2.7c1-0.1,2-0.2,3-0.2c0-1-0.5-1.4-1.7-1.4c-1.1,0-2.4,0.1-3.3,0.2l-0.2-1.6
		c1-0.2,2.3-0.3,3.7-0.3c2.1,0,3.8,0.5,3.8,2.8v3.6c0,0.6,0,1.1-0.1,1.6c-1.1,0.6-2.5,0.8-4.2,0.8
		C246.8,579.5,245.7,578.6,245.7,576.8z M251.3,575.2c-0.7,0-1.5,0.1-2.2,0.2c-0.8,0.2-1.1,0.4-1.1,1.3c0,0.9,0.6,1.1,1.6,1.1
		c0.5,0,1.1,0,1.6-0.2c0-0.3,0.1-0.8,0.1-1.1V575.2z"/>
	<path class="st7" d="M258.8,567.5h2.3v9.5c0,0.8,0.2,1.3,0.7,1.9l-2.1,0.9c-0.6-0.6-0.9-1.4-0.9-2.6V567.5z"/>
	<path class="st7" d="M262.3,576.8c0-1.5,0.7-2.5,2.6-2.7c1-0.1,2-0.2,3-0.2c0-1-0.5-1.4-1.7-1.4c-1.1,0-2.4,0.1-3.3,0.2l-0.2-1.6
		c1-0.2,2.3-0.3,3.7-0.3c2.1,0,3.8,0.5,3.8,2.8v3.6c0,0.6,0,1.1-0.1,1.6c-1.1,0.6-2.5,0.8-4.2,0.8
		C263.3,579.5,262.3,578.6,262.3,576.8z M267.9,575.2c-0.7,0-1.5,0.1-2.2,0.2c-0.8,0.2-1.1,0.4-1.1,1.3c0,0.9,0.6,1.1,1.6,1.1
		c0.5,0,1.1,0,1.6-0.2c0-0.3,0.1-0.8,0.1-1.1V575.2z"/>
	<path class="st7" d="M274.1,574.6l3.2-3.7h2.7l-3.5,3.9l3.7,4.6h-2.8l-3.2-4.3v4.3h-2.3v-11.9h2.3V574.6z"/>
	<path class="st7" d="M280.1,575.1c0-3.1,1.1-4.4,4.2-4.4c3.4,0,4.1,1.6,4.1,4.2c0,0.2,0,0.5,0,0.7c-1.1,0.2-3.1,0.4-4.4,0.4
		l-1.5,0.1c0.1,1.3,0.9,1.7,2.2,1.7c1.3,0,2.4-0.1,3.4-0.2l0.2,1.6c-1,0.1-2.3,0.3-4.1,0.3C281,579.5,280.1,577.6,280.1,575.1z
		 M284,574.6c0.6,0,1.6-0.1,2.1-0.2c0-0.1,0-0.2,0-0.3c0-1.1-0.5-1.7-1.8-1.7c-1.7,0-1.9,1-1.9,2.3L284,574.6z"/>
</g>
</svg>
