<?xml version="1.0" encoding="utf-8"?>
<!-- Generator: Adobe Illustrator 25.1.0, SVG Export Plug-In . SVG Version: 6.00 Build 0)  -->
<svg version="1.1" id="Layer_1" xmlns="http://www.w3.org/2000/svg" xmlns:xlink="http://www.w3.org/1999/xlink" x="0px" y="0px"
	 viewBox="0 0 466 466" style="enable-background:new 0 0 466 466;" xml:space="preserve">
<style type="text/css">
	.st0{opacity:0.2;fill:#8DC8E8;enable-background:new    ;}
	.st1{opacity:0.4;}
	.st2{fill:#8DC8E8;}
	.st3{fill:#FFFFFF;}
	.st4{fill:none;stroke:url(#SVGID_1_);stroke-width:4;stroke-linecap:round;stroke-linejoin:round;}
	.st5{fill:none;stroke:url(#SVGID_2_);stroke-width:5;stroke-linecap:round;stroke-linejoin:round;stroke-dasharray:0,11.63;}
	.st6{fill:none;stroke:url(#SVGID_3_);stroke-width:5;stroke-linecap:round;stroke-linejoin:round;stroke-dasharray:0,11.63;}
</style>
<g>
	<circle class="st0" cx="233.4" cy="231.9" r="70.7"/>
	<g class="st1">
		<polyline class="st2" points="366.2,111.3 362.9,93.2 382.2,80.8 396.2,93.7 413.1,93.7 425.7,80.8 447.5,92.3 441.7,109.9 
			451.5,125 466,130.4 466,141.4 466,152.1 452.5,158.3 444.5,171.5 447.9,189.6 428.6,202 414.6,189.1 397.7,189.1 385.1,202 
			363.2,190.5 369,172.9 359.2,157.8 344.8,152.4 344.8,130.7 358.3,124.4 		"/>
		<ellipse class="st3" cx="405.4" cy="141.4" rx="27.9" ry="27.8"/>
	</g>
	<g class="st1">
		<circle class="st2" cx="58.8" cy="319.1" r="58.8"/>
		<path class="st3" d="M36.6,340.6c-7-6.6-14.3-13.5-14.3-13.5L35,312.8l14.3,14.3l33.4-33.4l12.7,12.7l-46.1,46.1L36.6,340.6z"/>
	</g>
	
		<linearGradient id="SVGID_1_" gradientUnits="userSpaceOnUse" x1="15.99" y1="233.265" x2="450.62" y2="233.265" gradientTransform="matrix(1 0 0 -1 0 466)">
		<stop  offset="0" style="stop-color:#003865"/>
		<stop  offset="0.45" style="stop-color:#00A9E0"/>
		<stop  offset="0.85" style="stop-color:#73C063"/>
		<stop  offset="0.87" style="stop-color:#79C262"/>
		<stop  offset="0.9" style="stop-color:#89C65E"/>
		<stop  offset="0.93" style="stop-color:#A3CD59"/>
		<stop  offset="0.96" style="stop-color:#C8D851"/>
		<stop  offset="1" style="stop-color:#F7E547"/>
		<stop  offset="1" style="stop-color:#F9E547"/>
	</linearGradient>
	<path class="st4" d="M188.9,310.8c-43.6-24.6-58.9-79.9-34.3-123.4s79.9-58.9,123.4-34.3s58.9,79.9,34.3,123.4
		c-8.1,14.4-20,26.2-34.3,34.3 M233.4,124.1v-20.8 M250.4,127.9l13.2-15.1 M216.4,127.9l-13.2-15.1 M242.6,230.5v8.1l20.5,2.8
		c4.1,0.8,7,4.3,7.1,8.5v24.7 M196.7,274.6v-24.7c0-4.2,3-7.7,7.1-8.5l20.5-2.8v-8.1 M250.4,214.5c0,10.7-7.2,18.4-17,18.4
		s-17-7.7-17-18.4v-9.2c0-10.7,7.2-18.4,17-18.4s17,7.7,17,18.4V214.5z M172.6,241.5c0-3.4,2.3-6.4,5.6-7.1l17-2.1v-6.4
		 M207.3,227.3c-1.4,0.5-2.8,0.7-4.2,0.7c-8,0-14.1-6.1-14.1-14.8v-7.8c0-8.8,6.1-14.8,14.1-14.8c2.2-0.1,4.4,0.4,6.4,1.4
		 M271.6,225.9v6.4l17,2.1c3.3,0.7,5.7,3.7,5.7,7.1 M257.5,191.9c2-1,4.2-1.5,6.4-1.4c8,0,14.1,6.1,14.1,14.8v7.8
		c0,8.8-6.1,14.8-14.1,14.8c-1.4,0-2.9-0.2-4.2-0.7 M209.8,387.5h54.3c4.8,0,8.7-3.9,8.8-8.8v-56 M194.1,387.5v-36.8 M257.1,322.8
		v29.8 M241.3,322.8v29.8 M225.6,352.5v-57.8c0-4.8-3.5-8.8-7.9-8.8s-7.9,3.9-7.9,8.8V370 M409.2,362.4c-21.8,0-39.4,17.9-39.4,39.9
		s17.6,39.9,39.4,39.9s39.4-17.9,39.4-39.9S431,362.4,409.2,362.4L409.2,362.4z M404.3,390c0.6-0.3,0.9-1,0.6-1.6
		c-0.3-0.6-1-0.9-1.6-0.6c0,0,0,0,0,0c-0.6,0.3-0.9,1-0.6,1.6C403,390,403.7,390.3,404.3,390C404.3,390,404.3,390,404.3,390z
		 M418.7,420.9c-1.4-3.1,0-6.8,3.1-8.2c0.2-0.1,0.4-0.2,0.6-0.2c-0.5-0.5-0.9-1.1-1.2-1.8c-1.4-3.1,0-6.8,3.1-8.2
		c0.7-0.3,1.3-0.5,2.1-0.5l0,0c-1.4-3.1,0-6.8,3.1-8.2c0.1-0.1,0.3-0.1,0.4-0.2l-0.2-0.4c-4.9-11.3-18-16.5-29.3-11.5
		c-0.1,0-0.2,0.1-0.3,0.1c-11.3,5.3-16.3,18.6-11.2,30c4.9,11.3,18.1,16.4,29.3,11.5c0.1,0,0.2-0.1,0.3-0.1c0.4-0.2,0.8-0.4,1.2-0.6
		C419.2,421.9,418.9,421.4,418.7,420.9L418.7,420.9z M415.2,391.2c0.6-0.3,0.9-1,0.6-1.6c-0.3-0.6-1-0.9-1.6-0.6c0,0,0,0,0,0
		c-0.6,0.3-0.9,1-0.6,1.6C413.8,391.2,414.5,391.5,415.2,391.2L415.2,391.2z M416.4,408.8c0.6-0.3,0.9-1,0.6-1.6
		c-0.3-0.6-1-0.9-1.6-0.6c0,0,0,0,0,0c-0.6,0.3-0.9,1-0.6,1.6C415,408.7,415.8,409,416.4,408.8L416.4,408.8z M405.6,419
		c0.6-0.3,0.9-1,0.6-1.6c-0.3-0.6-1-0.9-1.6-0.6c-0.6,0.3-0.9,1-0.6,1.6C404.2,419,404.9,419.3,405.6,419
		C405.6,419,405.6,419,405.6,419z M396.4,404c0.6-0.3,0.9-1,0.6-1.6c-0.3-0.6-1-0.9-1.6-0.6c0,0,0,0,0,0c-0.6,0.3-0.9,1-0.6,1.6
		C395.1,404,395.8,404.3,396.4,404C396.4,404,396.4,404,396.4,404z M381.8,431l55.6-56.4 M91.1,59.8c0-20.2-16.4-36.6-36.5-36.6
		S18,39.6,18,59.8s16.4,36.6,36.5,36.6c0,0,0,0,0,0C74.7,96.3,91.1,80,91.1,59.8C91.1,59.8,91.1,59.8,91.1,59.8z M54.5,96.3
		c11.4,0,20.6-16.4,20.6-36.5s-9.2-36.5-20.6-36.5 M54.5,23.2c-11.4,0-20.6,16.4-20.6,36.6s9.2,36.5,20.6,36.5 M54.5,23.2v36.6
		 M75.2,59.8c0-20.2-9.2-36.5-20.6-36.5 M54.5,23.2c-11.4,0-20.6,16.4-20.6,36.5 M25.9,59.8h57.3 M30.8,43h47.4 M30.8,76.6h47.4
		 M54.5,23.2v73.1"/>
	
		<linearGradient id="SVGID_2_" gradientUnits="userSpaceOnUse" x1="53.5" y1="196.695" x2="353.2" y2="196.695" gradientTransform="matrix(1 0 0 -1 0 466)">
		<stop  offset="0" style="stop-color:#003865"/>
		<stop  offset="0.45" style="stop-color:#00A9E0"/>
		<stop  offset="0.85" style="stop-color:#73C063"/>
		<stop  offset="0.87" style="stop-color:#79C262"/>
		<stop  offset="0.9" style="stop-color:#89C65E"/>
		<stop  offset="0.93" style="stop-color:#A3CD59"/>
		<stop  offset="0.96" style="stop-color:#C8D851"/>
		<stop  offset="1" style="stop-color:#F7E547"/>
		<stop  offset="1" style="stop-color:#F9E547"/>
	</linearGradient>
	<path class="st5" d="M350.7,416.1H71.4c-8.5,0-15.4-6.9-15.4-15.4V122.5"/>
	
		<linearGradient id="SVGID_3_" gradientUnits="userSpaceOnUse" x1="114.4" y1="266.135" x2="408.69" y2="266.135" gradientTransform="matrix(1 0 0 -1 0 466)">
		<stop  offset="0" style="stop-color:#003865"/>
		<stop  offset="0.45" style="stop-color:#00A9E0"/>
		<stop  offset="0.85" style="stop-color:#73C063"/>
		<stop  offset="0.87" style="stop-color:#79C262"/>
		<stop  offset="0.9" style="stop-color:#89C65E"/>
		<stop  offset="0.93" style="stop-color:#A3CD59"/>
		<stop  offset="0.96" style="stop-color:#C8D851"/>
		<stop  offset="1" style="stop-color:#F7E547"/>
		<stop  offset="1" style="stop-color:#F9E547"/>
	</linearGradient>
	<path class="st6" d="M116.9,51.5h273.9c8.5,0,15.4,6.9,15.4,15.4v281.3"/>
</g>
</svg>
