<svg xmlns="http://www.w3.org/2000/svg" xmlns:xlink="http://www.w3.org/1999/xlink" viewBox="0 0 466 466">
  <defs>
    <linearGradient id="a" data-name="Gradient" x1="15.99" y1="232.75" x2="450.63" y2="232.75" gradientUnits="userSpaceOnUse">
      <stop offset="0" stop-color="#003865"/>
      <stop offset="0.45" stop-color="#00a9e0"/>
      <stop offset="0.85" stop-color="#73c063"/>
      <stop offset="0.87" stop-color="#79c262"/>
      <stop offset="0.9" stop-color="#89c65e"/>
      <stop offset="0.93" stop-color="#a3cd59"/>
      <stop offset="0.96" stop-color="#c8d851"/>
      <stop offset="1" stop-color="#f7e547"/>
      <stop offset="1" stop-color="#f9e547"/>
    </linearGradient>
    <linearGradient id="b" x1="53.49" y1="269.31" x2="353.2" y2="269.31" xlink:href="#a"/>
    <linearGradient id="c" x1="114.4" y1="199.86" x2="408.69" y2="199.86" xlink:href="#a"/>
  </defs>
  <g>
    <circle cx="233.44" cy="231.94" r="70.72" fill="#8dc8e8" opacity="0.2"/>
    <g opacity="0.4">
      <polyline points="366.23 111.28 362.85 93.18 382.17 80.77 396.18 93.7 413.09 93.7 425.66 80.77 447.52 92.28 441.72 109.86 451.5 124.99 466 130.42 466 141.4 466 152.14 452.47 158.34 444.52 171.51 447.91 189.61 428.58 202.02 414.57 189.09 397.66 189.09 385.1 202.02 363.23 190.51 369.03 172.93 359.25 157.81 344.75 152.38 344.75 130.66 358.28 124.45" fill="#8dc8e8"/>
      <ellipse cx="405.38" cy="141.37" rx="27.85" ry="27.84" fill="#fff"/>
    </g>
    <g opacity="0.4">
      <circle cx="58.82" cy="319.15" r="58.82" fill="#8dc8e8"/>
      <path d="M36.57,340.61c-7-6.63-14.31-13.51-14.31-13.51L35,312.79l14.3,14.31,33.39-33.39,12.72,12.72-46.11,46.1Z" fill="#fff"/>
    </g>
    <path d="M188.9,310.83a90.58,90.58,0,1,1,89.08,0M233.44,124.1V103.29m17,24.6,13.24-15.14m-47.3,15.14-13.24-15.14M208,274.63m34.64-44.18v8.13l20.5,2.82a8.71,8.71,0,0,1,7.07,8.49v24.74m-36.76-6.95-36.76,6.95V249.89a8.71,8.71,0,0,1,7.07-8.49l20.5-2.82v-8.13m26.16-15.91c0,10.69-7.19,18.38-17,18.38s-17-7.69-17-18.38v-9.19c0-10.69,7.18-18.38,17-18.38s17,7.69,17,18.38ZM202.9,256.45m-30.25-15a7.14,7.14,0,0,1,5.65-7.07l17-2.12v-6.36m12,1.42a11.84,11.84,0,0,1-4.24.7c-8,0-14.14-6.06-14.14-14.84v-7.78c0-8.78,6.1-14.84,14.14-14.84a12.76,12.76,0,0,1,6.36,1.41M264,256.45m7.63-30.6v6.36l17,2.12a7.15,7.15,0,0,1,5.66,7.07m-36.76-49.48a12.73,12.73,0,0,1,6.36-1.41c8,0,14.14,6.06,14.14,14.84v7.78c0,8.78-6.1,14.84-14.14,14.84a11.76,11.76,0,0,1-4.24-.7M209.81,387.53h54.26a8.8,8.8,0,0,0,8.75-8.75v-56m-78.76,64.76V350.77m63-28v29.75m-15.75-29.75v29.75m-15.75,0V294.76c0-4.84-3.54-8.75-7.88-8.75s-7.88,3.91-7.88,8.75V370m199.42-7.61c-21.76,0-39.4,17.87-39.4,39.92s17.64,39.92,39.4,39.92,39.4-17.87,39.4-39.92S431,362.42,409.23,362.42ZM404.33,390a1.24,1.24,0,0,0,.61-1.64,1.21,1.21,0,0,0-1.61-.62,1.24,1.24,0,0,0-.61,1.64A1.21,1.21,0,0,0,404.33,390Zm14.34,30.89a6.27,6.27,0,0,1,3.07-8.25,5,5,0,0,1,.64-.25,6.12,6.12,0,0,1-1.21-1.8,6.26,6.26,0,0,1,3.07-8.25,6.17,6.17,0,0,1,2.06-.54l0,0a6.26,6.26,0,0,1,3.07-8.25,3.25,3.25,0,0,1,.43-.18l-.16-.36A22.29,22.29,0,0,0,400,381.6a22.83,22.83,0,0,0-11.18,30A22.29,22.29,0,0,0,418.44,423c.4-.19.8-.38,1.18-.59A6.44,6.44,0,0,1,418.67,420.86Zm-3.51-29.65a1.25,1.25,0,0,0,.61-1.64,1.21,1.21,0,0,0-1.62-.62,1.25,1.25,0,0,0-.61,1.64A1.22,1.22,0,0,0,415.16,391.21Zm1.22,17.51a1.25,1.25,0,0,0,.61-1.64,1.22,1.22,0,0,0-1.62-.62,1.26,1.26,0,0,0-.61,1.64A1.23,1.23,0,0,0,416.38,408.72ZM405.56,419a1.26,1.26,0,0,0,.61-1.64,1.23,1.23,0,0,0-1.62-.62,1.24,1.24,0,0,0-.61,1.64A1.22,1.22,0,0,0,405.56,419Zm-9.15-15a1.25,1.25,0,0,0,.61-1.64,1.22,1.22,0,0,0-1.62-.61,1.25,1.25,0,0,0-.61,1.64A1.22,1.22,0,0,0,396.41,404ZM381.8,431l55.65-56.39M91.09,59.79A36.55,36.55,0,1,0,54.54,96.34,36.54,36.54,0,0,0,91.09,59.79ZM54.54,96.34c11.39,0,20.62-16.36,20.62-36.55S65.93,23.24,54.54,23.24m0,0c-11.38,0-20.62,16.36-20.62,36.55s9.24,36.55,20.62,36.55m0-73.1V59.79m20.62,0c0-20.19-9.23-36.55-20.62-36.55m0,0c-11.38,0-20.62,16.36-20.62,36.55m-8,0H83.19M30.83,43H78.25M30.83,76.58H78.25M54.54,23.24v73.1" fill="none" stroke-linecap="round" stroke-linejoin="round" stroke-width="4" stroke="url(#a)"/>
    <path d="M350.7,416.12H71.38A15.39,15.39,0,0,1,56,400.73V122.49" fill="none" stroke-linecap="round" stroke-linejoin="round" stroke-width="5" stroke-dasharray="0 11.63" stroke="url(#b)"/>
    <path d="M116.9,51.5H390.79a15.4,15.4,0,0,1,15.4,15.39V348.23" fill="none" stroke-linecap="round" stroke-linejoin="round" stroke-width="5" stroke-dasharray="0 11.63" stroke="url(#c)"/>
  </g>
</svg>
