<svg xmlns="http://www.w3.org/2000/svg" xmlns:xlink="http://www.w3.org/1999/xlink" viewBox="0 0 466 466">
  <defs>
    <linearGradient id="a" data-name="Gradient" x1="27.91" y1="175" x2="366.48" y2="175" gradientUnits="userSpaceOnUse">
      <stop offset="0" stop-color="#003865"/>
      <stop offset="0.45" stop-color="#00a9e0"/>
      <stop offset="0.85" stop-color="#73c063"/>
      <stop offset="0.87" stop-color="#79c262"/>
      <stop offset="0.9" stop-color="#89c65e"/>
      <stop offset="0.93" stop-color="#a3cd59"/>
      <stop offset="0.96" stop-color="#c8d851"/>
      <stop offset="1" stop-color="#f7e547"/>
      <stop offset="1" stop-color="#f9e547"/>
    </linearGradient>
    <linearGradient id="b" x1="130.07" y1="296.11" x2="436.4" y2="296.11" xlink:href="#a"/>
    <linearGradient id="c" x1="54.43" y1="237.64" x2="437.37" y2="237.64" xlink:href="#a"/>
  </defs>
  <g>
    <circle cx="186.75" cy="221.98" r="73.3" fill="#8dc8e8" opacity="0.2"/>
    <g opacity="0.4">
      <path d="M68.1,19.78c27.66,0,50.09,20.82,50.09,48.48,0,12.75-4.52,22.28-12.93,31.51-7,7.68-10.5,12.93-10.5,24.24H41.43c0-11.31-3.51-16.56-10.5-24.24C22.52,90.54,18,81,18,68.26,18,40.6,40.43,19.78,68.1,19.78Z" fill="#8dc8e8"/>
      <rect x="41.96" y="139.37" width="52.28" height="22.62" fill="#8dc8e8"/>
    </g>
    <g opacity="0.4">
      <path d="M425.73,384.68a62.5,62.5,0,1,1-63.46-63.46v62.5h63.46Z" fill="#8dc8e8"/>
      <path d="M382.61,364.33V298.94A65.39,65.39,0,0,1,448,364.33Z" fill="#8dc8e8"/>
    </g>
    <g>
      <path d="M53.62,322.88a200.81,200.81,0,0,1-23.21-94c0-111.42,90.32-201.74,201.75-201.74A201,201,0,0,1,364,76.12" fill="none" stroke-linecap="round" stroke-linejoin="round" stroke-width="5" stroke-dasharray="0 11.63" stroke="url(#a)"/>
      <path d="M422.43,161.62a201.44,201.44,0,0,1,11.47,67.23c0,111.42-90.32,201.75-201.74,201.75a200.81,200.81,0,0,1-99.59-26.25" fill="none" stroke-linecap="round" stroke-linejoin="round" stroke-width="5" stroke-dasharray="0 11.63" stroke="url(#b)"/>
    </g>
    <path d="M337.42,207.69v52.14c0,4.59-3.64,8.66-9.74,11.64-.54.26-1.11.52-1.69.77m-61.2-16.13V207.69m12.11,14c6.53,2.54,15,3.72,24.21,3.72,20.69,0,36.31-8.19,36.31-17.69s-15.62-16.76-36.31-16.76-36.32,7.26-36.32,16.76m12.11,38.18a67.72,67.72,0,0,0,24.21,4.65c20.69,0,36.31-8.19,36.31-17.69M232.2,328.74l37.25-15.83-16.76-43.76L232.2,276.6M370,271a9.68,9.68,0,0,0-14,0l-23.3,18.62m-66.1,15.83,14.9-6.52,28.87,17.7A18.62,18.62,0,0,0,330,314.77l38.18-30.72m-73.56,1.86,24.21,14.9c4.22,2.91,10.15,2.38,13-1.87s1.42-8.26-2.8-11.17l-31.66-21.42c-2.36-1.14-5.58-2.79-8.38-2.79a20.43,20.43,0,0,0-8.38,1.86L255.48,276.6m-11.2,31.66L232.2,276.6M170.91,129a93.88,93.88,0,0,0,0,184.56M269,179.41c-.45-.9-.91-1.79-1.39-2.67A94.09,94.09,0,0,0,202.25,129m0,184.56a92,92,0,0,0,24.37-8.14M205.73,202.09a19.16,19.16,0,1,0-19.15,19.15m-19.16,19.15a19.16,19.16,0,1,0,19.16-19.15m0,38.31v13.93m0-104.47v13.93m27.29,38.3M382.51,67.74a12.95,12.95,0,1,0,12.95-12.95A12.94,12.94,0,0,0,382.51,67.74Zm-27,53.93a12.95,12.95,0,1,0,12.95-12.94A13,13,0,0,0,355.54,121.67Zm53.94,0a12.95,12.95,0,1,0,12.94-12.94A12.94,12.94,0,0,0,409.48,121.67Zm-41-.54,27-22.11V68.82m0,30.2,27,22.11m-110,52.14a13.57,13.57,0,0,0-22.66,0,13.57,13.57,0,0,1,22.66,0Zm20.91-29.63a48.71,48.71,0,0,0-64.49,0m54,14.82a31.57,31.57,0,0,0-43.57,0m-179,262H74.38A3.27,3.27,0,0,1,71.2,417v-.12a3.22,3.22,0,0,1,3.18-3.4h28.91a3.55,3.55,0,0,0,3.49-3.49h0a3.55,3.55,0,0,0-3.49-3.49H67.9M56.43,364.65c0,7.87,2.79,13.75,8,19.45,4.31,4.73,6.48,8,6.48,14.95h32.9c0-7,2.17-10.22,6.48-14.95,5.19-5.7,8-11.58,8-19.45,0-17.07-13.84-29.91-30.91-29.91S56.43,347.58,56.43,364.65Z" fill="none" stroke-linecap="round" stroke-linejoin="round" stroke-width="4" stroke="url(#c)"/>
  </g>
</svg>
