<svg width="319" height="292" viewBox="0 0 319 292" fill="none" xmlns="http://www.w3.org/2000/svg">
<path d="M288.254 287.688C287.978 287.688 287.793 287.596 287.609 287.412L240.545 240.421C240.176 240.053 240.176 239.5 240.545 239.132C240.913 238.764 241.466 238.764 241.834 239.132L288.899 286.124C289.267 286.492 289.267 287.044 288.899 287.412C288.715 287.596 288.53 287.688 288.254 287.688ZM222.212 288.002C221.936 288.002 221.752 287.91 221.568 287.726L178.363 244.562L124.38 190.723L0.276364 67.7906C-0.0921214 67.4225 -0.0921214 66.8703 0.276364 66.5022C0.64485 66.134 1.19758 66.134 1.56607 66.5022L125.669 189.435L222.857 286.437C223.226 286.805 223.226 287.358 222.857 287.726C222.673 287.91 222.397 288.002 222.212 288.002ZM192.213 292C191.937 292 191.752 291.908 191.568 291.724L101.441 201.675C101.073 201.307 101.073 200.755 101.441 200.386C101.81 200.018 102.363 200.018 102.731 200.386L192.858 290.435C193.226 290.804 193.226 291.356 192.858 291.724C192.674 291.908 192.397 292 192.213 292ZM291.505 256.701C291.229 256.701 291.044 256.608 290.86 256.424L223.963 190.723L140.961 107.801C140.593 107.433 140.593 106.881 140.961 106.513C141.33 106.145 141.883 106.145 142.251 106.513L225.252 189.435L292.058 255.136C292.426 255.504 292.426 256.056 292.058 256.424C291.966 256.608 291.689 256.701 291.505 256.701ZM318.079 249.109C317.802 249.109 317.618 249.017 317.434 248.833L269.938 202.387C269.569 202.019 269.569 201.467 269.938 201.099C270.306 200.731 270.859 200.731 271.228 201.099L318.724 247.545C319.092 247.913 319.092 248.465 318.724 248.833C318.539 249.017 318.355 249.109 318.079 249.109ZM111.575 243.918C111.298 243.918 111.114 243.826 110.93 243.642L57.96 190.723L11.5533 144.342C11.1848 143.974 11.1848 143.422 11.5533 143.053C11.9218 142.685 12.4745 142.685 12.843 143.053L59.2497 189.435L112.219 242.353C112.588 242.722 112.588 243.274 112.219 243.642C112.035 243.826 111.851 243.918 111.575 243.918ZM226.45 225.972C226.174 225.972 225.989 225.88 225.805 225.695L191.905 191.827C191.628 191.551 191.628 191.275 191.628 190.907C191.352 190.999 190.983 190.907 190.707 190.631L107.706 107.801C107.337 107.433 107.337 106.881 107.706 106.513C108.074 106.145 108.627 106.145 108.995 106.513L191.997 189.435C192.273 189.711 192.273 189.987 192.273 190.355C192.549 190.263 192.918 190.355 193.194 190.631L227.095 224.499C227.463 224.867 227.463 225.419 227.095 225.788C226.911 225.88 226.726 225.972 226.45 225.972ZM158.188 190.999C157.912 190.999 157.727 190.907 157.543 190.723L91.1237 124.367C90.7552 123.999 90.7552 123.447 91.1237 123.079C91.4922 122.711 92.0449 122.711 92.4134 123.079L158.833 189.435C159.201 189.803 159.201 190.355 158.833 190.723C158.649 190.907 158.464 190.999 158.188 190.999ZM297.139 180.456C296.863 180.456 296.679 180.364 296.494 180.18L240.545 124.275C240.176 123.907 240.176 123.355 240.545 122.987C240.913 122.619 241.466 122.619 241.834 122.987L297.784 178.892C298.153 179.26 298.153 179.812 297.784 180.18C297.6 180.364 297.324 180.456 297.139 180.456ZM224.608 157.775C224.331 157.775 224.147 157.683 223.963 157.499L124.38 58.0115C124.011 57.6434 124.011 57.0912 124.38 56.7231C124.748 56.3549 125.301 56.3549 125.669 56.7231L225.252 156.211C225.621 156.579 225.621 157.131 225.252 157.499C225.068 157.683 224.884 157.775 224.608 157.775ZM125.024 91.4195C124.748 91.4195 124.564 91.3274 124.38 91.1434L74.2655 41.0775C73.897 40.7093 73.897 40.1571 74.2655 39.789C74.634 39.4209 75.1867 39.4209 75.5552 39.789L125.669 89.8549C126.038 90.223 126.038 90.7752 125.669 91.1434C125.485 91.3274 125.209 91.4195 125.024 91.4195ZM91.7686 91.4195C91.4922 91.4195 91.308 91.3274 91.1237 91.1434L16.9143 17.0391C16.5458 16.671 16.5458 16.1188 16.9143 15.7507C17.2828 15.3826 17.8355 15.3826 18.204 15.7507L42.6218 40.1111L92.4134 89.8549C92.7819 90.223 92.7819 90.7752 92.4134 91.1434C92.2292 91.3274 92.0449 91.4195 91.7686 91.4195ZM199.735 90.223C199.458 90.223 199.274 90.131 199.09 89.9469L116.089 7.02528C115.72 6.65715 115.72 6.10495 116.089 5.73682C116.457 5.36869 117.01 5.36869 117.378 5.73682L200.38 88.6585C200.748 89.0266 200.748 89.5788 200.38 89.9469C200.195 90.131 199.919 90.223 199.735 90.223ZM213.922 73.6571C213.645 73.6571 213.461 73.5651 213.277 73.381L148.159 8.30368C147.79 7.93555 147.79 7.38335 148.159 7.01522C148.527 6.64708 149.08 6.64708 149.448 7.01522L214.566 72.0925C214.935 72.4607 214.935 73.0129 214.566 73.381C214.382 73.5651 214.198 73.6571 213.922 73.6571ZM109.087 42.3659C108.811 42.3659 108.627 42.2739 108.443 42.0898L67.8652 1.56456C67.4967 1.19643 67.4967 0.64423 67.8652 0.276099C68.2337 -0.0920329 68.7864 -0.0920329 69.1549 0.276099L109.824 40.8934C110.193 41.2615 110.193 41.8137 109.824 42.1819C109.548 42.3659 109.364 42.3659 109.087 42.3659Z" fill="url(#paint0_linear)"/>
<defs>
<linearGradient id="paint0_linear" x1="-1.21586" y1="146.016" x2="320.233" y2="146.016" gradientUnits="userSpaceOnUse">
<stop stop-color="#00A9E0"/>
<stop offset="0.6798" stop-color="#73C063"/>
<stop offset="1" stop-color="#D5E345"/>
</linearGradient>
</defs>
</svg>
