<svg xmlns="http://www.w3.org/2000/svg" width="100" height="100" viewBox="0 0 100 100">
  <path d="M51.5 23h-8.4c-2.1 0-4.9.1-7.6.5-7.3 1.1-12.9 7.1-12.6 13.5.3 5.1 5 9.8 10.4 10.3 1.1.1 2.2.2 3.3.2.5 0 .9 0 1.4.1-.4.8-.6 1.6-.6 2.5 0 1.5.7 3 2.1 4.7-.6.1-1.2.1-1.8.2-1.5.2-2.9.3-4.4.5-4.2.6-7.6 1.9-10.3 4-2.4 1.9-3.9 4.6-3.9 7.3 0 1.9.7 4.6 4 6.9 1.7 1.2 3.3 1.9 5 2.4 5.8 1.4 11.6 1.1 17.2-.7 3.7-1.3 6.6-3.5 8.5-6.7.9-1.5 1.4-3.3 1.4-5.2 0-2.8-1.1-5.4-3-7.1-1-.9-2.1-1.9-3.5-3-.4-.3-.7-.6-1.1-.9-.7-.5-1.4-1.1-2-1.7-1.2-1.2-1.3-2.6-.2-4 .7-.9 1.6-1.7 2.5-2.4.2-.2.4-.3.6-.5 1.4-1.3 2.9-2.8 3.5-4.7.4-1.4.7-2.7.7-4.1 0-3.5-1.6-6.7-4.7-9-.1-.1-.2-.2-.2-.3l-.1-.1c3 .6 5.7-.2 8.7-2.3l.4-.3H55c-1.2-.1-2.3-.1-3.5-.1zm-4.1 38.1c1.7 1.4 2.6 3.2 2.6 5.2 0 2.7-1.8 5.1-4.6 6.3-2.1.9-4.5 1.1-6.5 1.2-3-.1-6.5-.5-9.4-2.5-2.5-1.6-3.7-3.6-3.7-6 0-.3 0-.7.1-1 .4-2.7 2.1-4.7 5.2-5.8 3.1-1.2 6.5-1.7 10-1.6.4 0 .8.2 1.1.3.4.3.8.5 1.2.8 1.3 1.1 2.7 2.1 4 3.1zm-1.7-21.7c-.1.6-.1 1.3-.3 1.9-.4 1.7-1.7 3.1-3.6 3.7-2.1.8-4.6.5-6.4-.6-2.1-1.4-3.7-3.4-4.8-6.3-.7-1.9-1.1-3.5-1.1-5.1 0-.9.1-1.8.4-2.7.8-2.6 2.5-4.2 5.1-4.7 2.6-.5 4.9.3 6.7 2.2 1.8 2 3 4.5 3.7 8 .1.6.2 1.2.2 1.8 0 .3.1.6.1.9.1.4 0 .7 0 .9z"/>
  <polygon points="72.6,45 72.6,37.5 67.6,37.5 67.6,45 59.6,45 59.6,49.6 67.7,49.6 67.7,56.9 72.7,56.9 72.7,49.6 
		80.9,49.6 80.9,45 	"/>
</svg>