<svg viewBox="0 0 466 466" xmlns="http://www.w3.org/2000/svg" xmlns:xlink="http://www.w3.org/1999/xlink"><linearGradient id="a" gradientUnits="userSpaceOnUse" x1="15.992" x2="450.63" y1="232.75" y2="232.75"><stop offset=".003" stop-color="#003865"/><stop offset=".45" stop-color="#00a9e0"/><stop offset=".851" stop-color="#73c063"/><stop offset=".872" stop-color="#79c262"/><stop offset=".9" stop-color="#89c65e"/><stop offset=".931" stop-color="#a3cd59"/><stop offset=".964" stop-color="#c8d851"/><stop offset=".999" stop-color="#f7e547"/><stop offset="1" stop-color="#f9e547"/></linearGradient><linearGradient id="b" x1="53.493" x2="353.202" xlink:href="#a" y1="269.309" y2="269.309"/><linearGradient id="c" x1="114.404" x2="408.685" xlink:href="#a" y1="199.864" y2="199.864"/><g fill="#8dc8e8"><circle cx="233.442" cy="231.942" opacity=".2" r="70.721"/><path d="m366.228 111.283-3.382-18.1 19.326-12.411 14.012 12.928h16.91l12.562-12.928 21.863 11.506-5.8 17.582 9.784 15.126 14.5 5.43v21.719l-13.528 6.206-7.947 13.168 3.382 18.1-19.33 12.411-14.011-12.928h-16.911l-12.558 12.928-21.863-11.506 5.8-17.582-9.784-15.126-14.494-5.43v-21.719l13.528-6.206zm67 30.089a27.854 27.854 0 1 0 -27.854 27.842 27.848 27.848 0 0 0 27.856-27.842z" opacity=".4"/><path d="m117.644 319.146a58.822 58.822 0 1 1 -58.822-58.822 58.821 58.821 0 0 1 58.822 58.822zm-68.361 33.386 46.1-46.1-12.714-12.722-33.386 33.39-14.308-14.313-12.718 14.313s7.268 6.888 14.308 13.514z" opacity=".4"/></g><path d="m188.9 310.832a90.579 90.579 0 1 1 89.076 0m-44.534-186.732v-20.81m17.028 24.6 13.244-15.136m-47.3 15.136-13.244-15.14m39.462 117.7v8.129l20.5 2.828a8.7 8.7 0 0 1 7.069 8.483v24.741m-73.518 0v-24.744a8.7 8.7 0 0 1 7.069-8.483l20.5-2.828v-8.129m26.156-15.906c0 10.689-7.184 18.38-16.966 18.38s-16.966-7.691-16.966-18.38v-9.189c0-10.689 7.184-18.38 16.966-18.38s16.966 7.691 16.966 18.38zm-77.76 26.859a7.134 7.134 0 0 1 5.655-7.069l16.966-2.121v-6.362m12.018 1.414a11.729 11.729 0 0 1 -4.242.707c-8.038 0-14.138-6.062-14.138-14.845v-7.776c0-8.784 6.1-14.845 14.138-14.845a12.77 12.77 0 0 1 6.362 1.413m62.208 33.932v6.362l16.966 2.121a7.134 7.134 0 0 1 5.655 7.069m-36.759-49.48a12.77 12.77 0 0 1 6.362-1.413c8.039 0 14.138 6.061 14.138 14.845v7.776c0 8.783-6.1 14.845-14.138 14.845a11.724 11.724 0 0 1 -4.241-.707m-49.786 160.263h54.261a8.8 8.8 0 0 0 8.752-8.752v-56.011m-78.766 64.763v-36.758m63.013-28v29.756m-15.753-29.756v29.756m-15.754 0v-57.767c0-4.841-3.534-8.751-7.876-8.751s-7.877 3.91-7.877 8.751v75.265m199.418-7.607c-21.76 0-39.4 17.874-39.4 39.921s17.64 39.921 39.4 39.921 39.4-17.873 39.4-39.921-17.64-39.921-39.4-39.921zm-4.9 27.549a1.245 1.245 0 0 0 .609-1.638 1.215 1.215 0 0 0 -1.616-.618 1.245 1.245 0 0 0 -.61 1.638 1.215 1.215 0 0 0 1.621.618zm14.338 30.9a6.216 6.216 0 0 1 3.7-8.5 6.288 6.288 0 0 1 1.863-10.052 6.089 6.089 0 0 1 2.063-.537c-.007-.017-.016-.033-.024-.05a6.273 6.273 0 0 1 3.073-8.255c.141-.065.283-.122.426-.175-.051-.121-.1-.243-.157-.364a22.28 22.28 0 0 0 -29.63-11.334 22.817 22.817 0 0 0 -11.177 30.03 22.28 22.28 0 0 0 29.638 11.325c.4-.184.8-.38 1.181-.585a6.248 6.248 0 0 1 -.952-1.507zm-3.514-29.658a1.244 1.244 0 0 0 .61-1.638 1.215 1.215 0 0 0 -1.617-.617 1.244 1.244 0 0 0 -.61 1.638 1.215 1.215 0 0 0 1.621.613zm1.222 17.515a1.245 1.245 0 0 0 .61-1.638 1.215 1.215 0 0 0 -1.617-.618 1.245 1.245 0 0 0 -.61 1.638 1.217 1.217 0 0 0 1.621.614zm-10.824 10.288a1.245 1.245 0 0 0 .609-1.638 1.214 1.214 0 0 0 -1.616-.617 1.244 1.244 0 0 0 -.61 1.638 1.215 1.215 0 0 0 1.621.613zm-9.147-15.015a1.245 1.245 0 0 0 .61-1.638 1.215 1.215 0 0 0 -1.617-.618 1.245 1.245 0 0 0 -.609 1.638 1.215 1.215 0 0 0 1.62.614zm-14.613 27 55.661-56.397m-346.36-314.809a36.551 36.551 0 1 0 -36.55 36.551 36.551 36.551 0 0 0 36.55-36.551zm-36.55 36.551c11.387 0 20.618-16.365 20.618-36.551s-9.231-36.551-20.618-36.551m0 0c-11.387 0-20.619 16.365-20.619 36.551s9.232 36.551 20.619 36.551m0-73.1v36.549m20.618 0c0-20.186-9.231-36.551-20.618-36.551m0 0c-11.387 0-20.619 16.365-20.619 36.551m-8.029 0h57.3m-52.361-16.791h47.417m-47.417 33.584h47.417m-23.708-53.344v73.1" fill="none" stroke="url(#a)" stroke-linecap="round" stroke-linejoin="round" stroke-width="4"/><path d="m350.7 416.124h-279.315a15.391 15.391 0 0 1 -15.392-15.391v-278.24" style="fill:none;stroke-linecap:round;stroke-linejoin:round;stroke-width:5;stroke-dasharray:0 11.628;stroke:url(#b)"/><path d="m116.9 51.5h273.89a15.391 15.391 0 0 1 15.391 15.391v281.334" style="fill:none;stroke-linecap:round;stroke-linejoin:round;stroke-width:5;stroke-dasharray:0 11.628;stroke:url(#c)"/></svg>