<svg viewBox="0 0 466 466" xmlns="http://www.w3.org/2000/svg" xmlns:xlink="http://www.w3.org/1999/xlink"><linearGradient id="a" gradientUnits="userSpaceOnUse" x1="27.91" x2="366.48" y1="175" y2="175"><stop offset="0" stop-color="#003865"/><stop offset=".45" stop-color="#00a9e0"/><stop offset=".85" stop-color="#73c063"/><stop offset=".87" stop-color="#79c262"/><stop offset=".9" stop-color="#89c65e"/><stop offset=".93" stop-color="#a3cd59"/><stop offset=".96" stop-color="#c8d851"/><stop offset="1" stop-color="#f7e547"/><stop offset="1" stop-color="#f9e547"/></linearGradient><linearGradient id="b" x1="130.07" x2="436.4" xlink:href="#a" y1="296.11" y2="296.11"/><linearGradient id="c" x1="54.43" x2="437.37" xlink:href="#a" y1="237.64" y2="237.64"/><g fill="#8dc8e8"><circle cx="186.75" cy="221.98" opacity=".2" r="73.3"/><g opacity=".4"><path d="m68.1 19.78c27.66 0 50.09 20.82 50.09 48.48 0 12.75-4.52 22.28-12.93 31.51-7 7.68-10.5 12.93-10.5 24.24h-53.33c0-11.31-3.51-16.56-10.5-24.24-8.41-9.23-12.93-18.77-12.93-31.51 0-27.66 22.43-48.48 50.1-48.48z"/><path d="m41.96 139.37h52.28v22.62h-52.28z"/></g><g opacity=".4"><path d="m425.73 384.68a62.5 62.5 0 1 1 -63.46-63.46v62.5h63.46z"/><path d="m382.61 364.33v-65.39a65.39 65.39 0 0 1 65.39 65.39z"/></g></g><path d="m53.62 322.88a200.81 200.81 0 0 1 -23.21-94c0-111.42 90.32-201.74 201.75-201.74a201 201 0 0 1 131.84 48.98" style="fill:none;stroke-linecap:round;stroke-linejoin:round;stroke-width:5;stroke-dasharray:0 11.63;stroke:url(#a)"/><path d="m422.43 161.62a201.44 201.44 0 0 1 11.47 67.23c0 111.42-90.32 201.75-201.74 201.75a200.81 200.81 0 0 1 -99.59-26.25" style="fill:none;stroke-linecap:round;stroke-linejoin:round;stroke-width:5;stroke-dasharray:0 11.63;stroke:url(#b)"/><path d="m337.42 207.69v52.14c0 4.59-3.64 8.66-9.74 11.64-.54.26-1.11.52-1.69.77m-61.2-16.13v-48.42m12.11 14c6.53 2.54 15 3.72 24.21 3.72 20.69 0 36.31-8.19 36.31-17.69s-15.62-16.76-36.31-16.76-36.32 7.26-36.32 16.76m12.11 38.18a67.72 67.72 0 0 0 24.21 4.65c20.69 0 36.31-8.19 36.31-17.69m-105.22 95.88 37.25-15.83-16.76-43.76-20.49 7.45m137.8-5.6a9.68 9.68 0 0 0 -14 0l-23.3 18.62m-66.1 15.83 14.9-6.52 28.87 17.7a18.62 18.62 0 0 0 19.63-1.86l38.18-30.72m-73.56 1.86 24.21 14.9c4.22 2.91 10.15 2.38 13-1.87s1.42-8.26-2.8-11.17l-31.66-21.42c-2.36-1.14-5.58-2.79-8.38-2.79a20.43 20.43 0 0 0 -8.38 1.86l-25.13 11.18m-11.2 31.66-12.08-31.66m-61.29-147.6a93.88 93.88 0 0 0 0 184.56m98.09-134.15c-.45-.9-.91-1.79-1.39-2.67a94.09 94.09 0 0 0 -65.36-47.74m0 184.56a92 92 0 0 0 24.37-8.14m-20.89-103.33a19.16 19.16 0 1 0 -19.15 19.15m-19.16 19.15a19.16 19.16 0 1 0 19.16-19.15m0 38.31v13.93m0-104.47v13.93m195.93-115.2a12.95 12.95 0 1 0 12.95-12.95 12.94 12.94 0 0 0 -12.95 12.95zm-27 53.93a12.95 12.95 0 1 0 12.95-12.94 13 13 0 0 0 -12.92 12.94zm53.94 0a12.95 12.95 0 1 0 12.94-12.94 12.94 12.94 0 0 0 -12.91 12.94zm-41-.54 27-22.11v-30.2m0 30.2 27 22.11m-110 52.14a13.57 13.57 0 0 0 -22.66 0 13.57 13.57 0 0 1 22.66 0zm20.91-29.63a48.71 48.71 0 0 0 -64.49 0m54 14.82a31.57 31.57 0 0 0 -43.57 0m-179 262h-25.92a3.27 3.27 0 0 1 -3.18-3.46v-.12a3.22 3.22 0 0 1 3.18-3.4h28.91a3.55 3.55 0 0 0 3.49-3.49 3.55 3.55 0 0 0 -3.49-3.49h-35.39m-11.47-41.85c0 7.87 2.79 13.75 8 19.45 4.31 4.73 6.48 8 6.48 14.95h32.9c0-7 2.17-10.22 6.48-14.95 5.19-5.7 8-11.58 8-19.45 0-17.07-13.84-29.91-30.91-29.91s-30.95 12.84-30.95 29.91z" fill="none" stroke="url(#c)" stroke-linecap="round" stroke-linejoin="round" stroke-width="4"/></svg>