<svg width="352" height="348" viewBox="0 0 352 348" fill="none" xmlns="http://www.w3.org/2000/svg">
<path d="M180.582 348C180.582 348 180.484 348 180.582 348C158.972 347.112 138.053 342.277 118.317 333.692C104.7 327.771 91.8717 320.074 80.1291 310.799C78.8463 309.812 77.5635 308.825 76.3794 307.74C76.1821 307.542 75.9847 307.246 75.9847 306.95C75.9847 306.753 76.0834 306.457 76.1821 306.358C76.5768 305.964 77.1688 305.865 77.5635 306.26C90.0955 316.719 104.108 325.403 119.008 331.916C138.447 340.402 159.17 345.138 180.484 346.026C181.076 346.026 181.471 346.52 181.471 347.013C181.471 347.605 181.076 348 180.582 348ZM187.885 322.739C185.22 322.739 182.556 322.64 179.892 322.541C167.064 321.851 154.334 319.581 142.197 315.634C141.704 315.437 141.408 314.943 141.605 314.351C141.802 313.858 142.296 313.562 142.888 313.759C154.828 317.607 167.36 319.877 180.089 320.568C193.213 321.259 206.436 320.173 219.165 317.41C219.659 317.311 220.251 317.607 220.349 318.199C220.448 318.693 220.152 319.285 219.56 319.384C209.199 321.555 198.542 322.739 187.885 322.739ZM312.909 294.714C312.711 294.714 312.415 294.616 312.218 294.418C311.823 294.024 311.823 293.432 312.218 293.037C317.645 287.412 322.678 281.393 327.217 275.078C327.513 274.683 328.105 274.584 328.598 274.88C328.993 275.176 329.092 275.867 328.796 276.262C324.158 282.577 319.026 288.695 313.599 294.418C313.402 294.616 313.205 294.714 312.909 294.714ZM311.823 286.623C311.626 286.623 311.33 286.524 311.132 286.327C310.738 285.932 310.738 285.34 311.034 284.945C320.507 274.387 328.697 262.546 335.21 249.718C342.018 236.495 347.051 222.384 350.011 207.977C350.11 207.484 350.603 207.089 351.195 207.188C351.689 207.286 352.083 207.78 351.985 208.372C348.926 222.976 343.893 237.186 336.986 250.606C330.374 263.532 322.086 275.472 312.514 286.228C312.316 286.426 312.119 286.623 311.823 286.623ZM63.2554 286.031C62.9593 286.031 62.762 285.932 62.5646 285.735C52.0062 273.893 43.1252 260.572 36.3165 246.165C36.1191 245.672 36.3165 245.08 36.8099 244.882C37.3033 244.685 37.8953 244.882 38.0927 245.376C44.9014 259.585 53.585 272.808 64.0448 284.551C64.4395 284.945 64.3408 285.537 63.9461 285.932C63.7487 285.932 63.4527 286.031 63.2554 286.031ZM35.1324 284.057C34.8363 284.057 34.5403 283.959 34.343 283.663C26.9422 273.301 20.5281 262.052 15.3969 250.408C7.30541 232.252 2.27288 212.812 0.200659 192.88C0.101982 192.386 0.496688 191.893 1.08875 191.794C1.68081 191.794 2.07552 192.09 2.1742 192.682C4.14774 212.418 9.18028 231.66 17.1731 249.619C22.3043 261.164 28.6197 272.216 35.9218 282.478C36.2178 282.873 36.1191 283.564 35.7244 283.86C35.5271 283.959 35.3297 284.057 35.1324 284.057ZM84.4709 280.604C84.1749 280.604 83.9775 280.505 83.7802 280.307C74.7019 271.427 66.8077 261.46 60.295 250.507C54.8678 241.527 50.4273 231.956 47.0723 222.088C46.4802 220.213 45.8882 218.437 45.2961 216.562C45.2961 216.463 45.2961 216.365 45.2961 216.266C45.2961 215.871 45.5921 215.477 45.9869 215.279C46.4802 215.082 47.0723 215.378 47.171 215.97C50.6247 227.713 55.6572 238.962 61.9726 249.422C68.3866 260.177 76.1821 270.045 85.1617 278.827C85.5564 279.222 85.5564 279.814 85.1617 280.209C85.063 280.505 84.767 280.604 84.4709 280.604ZM316.56 247.547C316.362 247.547 316.264 247.547 316.066 247.448C315.573 247.152 315.375 246.56 315.671 246.067C324.355 230.772 330.078 214.194 332.743 196.827C333.532 191.893 334.025 186.86 334.321 181.926C334.321 181.334 334.815 180.94 335.407 181.038C335.999 181.038 336.394 181.532 336.295 182.124C335.999 187.156 335.506 192.287 334.716 197.221C331.953 214.885 326.131 231.66 317.349 247.152C317.25 247.349 316.856 247.547 316.56 247.547ZM315.573 210.74C315.474 210.74 315.375 210.74 315.277 210.74C314.783 210.641 314.487 210.049 314.586 209.556C318.73 194.853 320.211 179.854 319.125 164.757C319.125 164.164 319.52 163.77 320.013 163.671C320.507 163.671 321 164.066 321.099 164.559C322.184 179.854 320.605 195.149 316.461 210.049C316.362 210.543 315.967 210.74 315.573 210.74ZM55.2625 180.841C54.7691 180.841 54.2757 180.446 54.2757 179.854C53.6837 165.743 55.2625 151.633 59.1109 137.916C59.2096 137.423 59.8017 137.127 60.295 137.226C60.7884 137.324 61.0845 137.916 60.9858 138.41C57.236 151.929 55.5585 165.842 56.1506 179.657C56.2493 180.348 55.8546 180.841 55.2625 180.841ZM52.9929 114.53C52.8942 114.53 52.6969 114.53 52.5982 114.431C52.1048 114.234 51.9075 113.642 52.1048 113.148C57.8281 100.32 65.4262 88.2818 74.6032 77.526C82.5961 68.1516 91.773 59.7641 101.937 52.5606C110.522 46.4427 119.699 41.3114 129.369 37.167C129.862 36.9696 130.454 37.167 130.652 37.6604C130.849 38.1538 130.652 38.7458 130.158 38.9432C120.685 42.989 111.508 48.1202 103.121 54.1395C93.1545 61.1456 84.0762 69.4344 76.1821 78.8088C67.1038 89.4659 59.6043 101.208 53.9797 113.938C53.7823 114.333 53.3876 114.53 52.9929 114.53ZM12.1406 108.905C12.0419 108.905 11.9432 108.905 11.7459 108.807C11.2525 108.609 10.9565 108.017 11.1538 107.524C21.3176 80.6836 37.698 56.113 58.7162 36.3776C59.1109 35.9829 59.703 35.9829 60.0977 36.3776C60.4924 36.7723 60.4924 37.3644 60.0977 37.7591C39.3755 57.2971 23.0938 81.5717 13.0287 108.116C12.93 108.708 12.5353 108.905 12.1406 108.905ZM319.717 108.511C319.323 108.511 319.026 108.313 318.829 108.017C311.527 93.5116 301.857 80.3876 290.213 68.941C277.779 56.9024 263.57 47.1334 247.782 40.1273C237.519 35.4895 226.763 32.1345 215.712 29.9636C209.1 28.6808 202.39 27.8914 195.68 27.4967C195.088 27.4967 194.693 27.0033 194.792 26.4112C194.792 25.8191 195.285 25.4244 195.877 25.5231C202.686 25.9178 209.594 26.7072 216.205 27.99C227.454 30.1609 238.309 33.6146 248.768 38.2525C264.754 45.3572 279.161 55.2249 291.693 67.4609C303.534 79.0061 313.303 92.3275 320.704 107.03C320.901 107.524 320.803 108.116 320.309 108.313C320.013 108.511 319.915 108.511 319.717 108.511ZM329.585 75.6511C329.289 75.6511 328.993 75.5524 328.796 75.2564C313.698 53.7448 293.568 35.6869 270.675 23.1549C270.181 22.8588 269.984 22.2668 270.28 21.7734C270.576 21.28 271.168 21.0826 271.661 21.3787C294.851 34.108 315.178 52.3633 330.473 74.0723C330.769 74.5657 330.67 75.1577 330.276 75.4537C329.98 75.5524 329.782 75.6511 329.585 75.6511ZM76.6754 50.5871C76.3794 50.5871 76.1821 50.4884 75.9847 50.2911C75.59 49.8964 75.6887 49.3043 76.0834 48.9096C90.7863 35.7855 107.561 25.4244 126.014 18.1223C143.381 11.2149 161.538 7.36652 180.188 6.47843C180.681 6.47843 181.175 6.87314 181.175 7.4652C181.175 8.05726 180.78 8.45197 180.188 8.45197C161.834 9.34007 143.776 13.1885 126.705 19.9972C108.548 27.2006 91.8717 37.4631 77.3662 50.3898C77.1688 50.4884 76.9715 50.5871 76.6754 50.5871ZM278.766 35.1935C278.569 35.1935 278.372 35.0948 278.273 34.9961C273.536 31.9371 268.602 29.0755 263.57 26.5099C247.88 18.4184 231.105 12.9911 213.837 10.2281C213.343 10.1295 212.949 9.63608 213.047 9.14269C213.146 8.64931 213.639 8.25461 214.133 8.35329C231.599 11.1163 248.571 16.6422 264.458 24.8324C269.589 27.4966 274.523 30.3583 279.358 33.4173C279.852 33.7133 279.95 34.3054 279.654 34.7988C279.358 34.9961 279.062 35.1935 278.766 35.1935ZM140.816 8.35329C140.421 8.35329 140.026 8.05725 139.829 7.66254C139.73 7.16915 140.026 6.57711 140.52 6.47843C158.183 1.4459 176.537 -0.626349 195.088 0.163068C195.68 0.163068 196.075 0.656454 196.075 1.14984C196.075 1.64323 195.581 2.13661 195.088 2.13661C176.734 1.34719 158.577 3.51812 141.112 8.45197C141.013 8.3533 140.914 8.35329 140.816 8.35329Z" fill="url(#paint0_linear)"/>
<defs>
<linearGradient id="paint0_linear" x1="-1.15538" y1="174.019" x2="353.36" y2="174.019" gradientUnits="userSpaceOnUse">
<stop stop-color="#00A9E0"/>
<stop offset="0.6798" stop-color="#73C063"/>
<stop offset="1" stop-color="#D5E345"/>
</linearGradient>
</defs>
</svg>
