<?xml version="1.0" encoding="utf-8"?>
<!-- Generator: Adobe Illustrator 25.1.0, SVG Export Plug-In . SVG Version: 6.00 Build 0)  -->
<svg version="1.1" id="Layer_1" xmlns="http://www.w3.org/2000/svg" xmlns:xlink="http://www.w3.org/1999/xlink" x="0px" y="0px"
	 viewBox="0 0 466 466" style="enable-background:new 0 0 466 466;" xml:space="preserve">
<style type="text/css">
	.st0{opacity:0.2;fill:#8DC8E8;enable-background:new    ;}
	.st1{opacity:0.4;}
	.st2{fill:#8DC8E8;}
	.st3{fill:url(#SVGID_1_);}
	.st4{opacity:0.4;fill:#8DC8E8;enable-background:new    ;}
	.st5{fill:url(#SVGID_2_);}
</style>
<circle class="st0" cx="241.4" cy="232.5" r="71.5"/>
<g class="st1">
	<path class="st2" d="M448.3,99.6V19.3c0-2-1.6-3.6-3.6-3.6l0,0h-125c-2,0-3.6,1.6-3.6,3.6c0,0,0,0,0,0v80.3H448.3z"/>
	<path class="st2" d="M305.5,112.2v-3.6H459v3.6c0,7.9-6.4,14.3-14.3,14.3h-125C311.8,126.4,305.5,120.1,305.5,112.2z"/>
</g>
<linearGradient id="SVGID_1_" gradientUnits="userSpaceOnUse" x1="230.12" y1="191.415" x2="253.37" y2="191.415" gradientTransform="matrix(1 0 0 -1 0 466)">
	<stop  offset="0.45" style="stop-color:#00A9B7"/>
	<stop  offset="1" style="stop-color:#00A988"/>
</linearGradient>
<path class="st3" d="M237.6,273.3h-4.8v-5.4h-2.7v13.3h2.7v-5.7h4.8v5.7h2.7v-13.3h-2.7V273.3z M247.5,267.8c-1.4,0-2.9,0.1-4.3,0.4
	V281c1.4,0.2,2.9,0.4,4.3,0.4c5,0,5.9-2.3,5.9-6.8S252.5,267.8,247.5,267.8z M247.1,279.1c-0.4,0-0.8,0-1.3-0.1v-9
	c0.4-0.1,0.8-0.1,1.3-0.1c3.5,0,3.5,2,3.5,4.6S250.6,279.1,247.1,279.1z"/>
<path class="st4" d="M118.1,353.5c-11.5,0-22.6,4.1-31.3,11.5L50,326.2c6.7-10.9,3.3-25.2-7.6-31.9s-25.2-3.3-31.9,7.6
	s-3.3,25.2,7.6,31.9c7,4.3,15.8,4.6,23.1,0.7l37.4,39.4c-15.4,21.8-10.2,52,11.6,67.4c21.8,15.4,52,10.2,67.4-11.6
	s10.2-52-11.6-67.4C137.8,356.6,128,353.5,118.1,353.5L118.1,353.5z"/>
<linearGradient id="SVGID_2_" gradientUnits="userSpaceOnUse" x1="42.441" y1="154.8145" x2="424.5076" y2="293.8753">
	<stop  offset="0" style="stop-color:#003865"/>
	<stop  offset="0.45" style="stop-color:#00A9E0"/>
	<stop  offset="0.85" style="stop-color:#73C063"/>
	<stop  offset="0.87" style="stop-color:#79C262"/>
	<stop  offset="0.9" style="stop-color:#89C65E"/>
	<stop  offset="0.93" style="stop-color:#A3CD59"/>
	<stop  offset="0.96" style="stop-color:#C8D851"/>
	<stop  offset="1" style="stop-color:#F7E547"/>
</linearGradient>
<path class="st5" d="M179.8,402.8c0-1.4,1.1-2.5,2.5-2.5l0,0c1.4,0,2.5,1.1,2.5,2.5l0,0c0,1.4-1.1,2.5-2.5,2.5l0,0
	C180.9,405.3,179.8,404.1,179.8,402.8z M168.2,402.8c0-1.4,1.1-2.5,2.5-2.5l0,0c1.4,0,2.5,1.1,2.5,2.5l0,0c0,1.4-1.1,2.5-2.5,2.5
	l0,0C169.3,405.3,168.2,404.1,168.2,402.8z M156.5,402.8c0-1.4,1.1-2.5,2.5-2.5l0,0c1.4,0,2.5,1.1,2.5,2.5l0,0
	c0,1.4-1.1,2.5-2.5,2.5l0,0C157.7,405.3,156.5,404.1,156.5,402.8z M144.9,402.8c0-1.4,1.1-2.5,2.5-2.5l0,0c1.4,0,2.5,1.1,2.5,2.5
	l0,0c0,1.4-1.1,2.5-2.5,2.5l0,0C146,405.3,144.9,404.1,144.9,402.8z M133.3,402.8c0-1.4,1.1-2.5,2.5-2.5l0,0c1.4,0,2.5,1.1,2.5,2.5
	l0,0c0,1.4-1.1,2.5-2.5,2.5l0,0C134.4,405.3,133.3,404.1,133.3,402.8z M123.3,403.8c-1.3-0.5-1.9-2-1.3-3.3l0,0
	c0.5-1.3,2-1.8,3.3-1.3l0,0l0,0l0,0c1.3,0.5,1.9,2,1.3,3.3l0,0c-0.4,0.9-1.3,1.5-2.3,1.5l0,0C124,404,123.7,403.9,123.3,403.8z
	 M113.9,394.6c-0.6-1.2-0.1-2.7,1.2-3.3l0,0c1.2-0.6,2.7,0,3.3,1.2l0,0c0.6,1.2,0.1,2.7-1.2,3.3l0,0c-0.4,0.2-0.7,0.2-1.1,0.2l0,0
	C115.2,396.1,114.3,395.5,113.9,394.6z M112.1,382.2c0-1.4,1.1-2.5,2.5-2.5l0,0c1.4,0,2.5,1.1,2.5,2.5l0,0c0,1.4-1.1,2.5-2.5,2.5
	l0,0C113.2,384.7,112.1,383.5,112.1,382.2z M112.1,370.5c0-1.4,1.1-2.5,2.5-2.5l0,0c1.4,0,2.5,1.1,2.5,2.5l0,0
	c0,1.4-1.1,2.5-2.5,2.5l0,0C113.2,373,112.1,371.9,112.1,370.5z M112.1,358.9c0-1.4,1.1-2.5,2.5-2.5l0,0c1.4,0,2.5,1.1,2.5,2.5l0,0
	c0,1.4-1.1,2.5-2.5,2.5l0,0C113.2,361.4,112.1,360.3,112.1,358.9z M112.1,347.3c0-1.4,1.1-2.5,2.5-2.5l0,0c1.4,0,2.5,1.1,2.5,2.5
	l0,0c0,1.4-1.1,2.5-2.5,2.5l0,0C113.2,349.8,112.1,348.6,112.1,347.3z M112.1,335.6c0-1.4,1.1-2.5,2.5-2.5l0,0
	c1.4,0,2.5,1.1,2.5,2.5l0,0c0,1.4-1.1,2.5-2.5,2.5l0,0C113.2,338.1,112.1,337,112.1,335.6z M112.1,324c0-1.4,1.1-2.5,2.5-2.5l0,0
	c1.4,0,2.5,1.1,2.5,2.5l0,0c0,1.4-1.1,2.5-2.5,2.5l0,0C113.2,326.5,112.1,325.4,112.1,324z M112.1,312.4c0-1.4,1.1-2.5,2.5-2.5l0,0
	c1.4,0,2.5,1.1,2.5,2.5l0,0c0,1.4-1.1,2.5-2.5,2.5l0,0C113.2,314.9,112.1,313.8,112.1,312.4z M112.1,300.8c0-1.4,1.1-2.5,2.5-2.5
	l0,0c1.4,0,2.5,1.1,2.5,2.5l0,0c0,1.4-1.1,2.5-2.5,2.5l0,0C113.2,303.2,112.1,302.1,112.1,300.8z M112.1,289.1
	c0-1.4,1.1-2.5,2.5-2.5l0,0c1.4,0,2.5,1.1,2.5,2.5l0,0c0,1.4-1.1,2.5-2.5,2.5l0,0C113.2,291.6,112.1,290.5,112.1,289.1z
	 M112.1,277.5c0-1.4,1.1-2.5,2.5-2.5l0,0c1.4,0,2.5,1.1,2.5,2.5l0,0c0,1.4-1.1,2.5-2.5,2.5l0,0C113.2,280,112.1,278.9,112.1,277.5z
	 M394.3,277.9c0-1.4,1.1-2.5,2.5-2.5l0,0c1.4,0,2.5,1.1,2.5,2.5l0,0c0,1.4-1.1,2.5-2.5,2.5l0,0C395.4,280.4,394.3,279.3,394.3,277.9
	z M382.6,277.9c0-1.4,1.1-2.5,2.5-2.5l0,0c1.4,0,2.5,1.1,2.5,2.5l0,0c0,1.4-1.1,2.5-2.5,2.5l0,0
	C383.8,280.4,382.6,279.3,382.6,277.9z M371,277.9c0-1.4,1.1-2.5,2.5-2.5l0,0c1.4,0,2.5,1.1,2.5,2.5l0,0c0,1.4-1.1,2.5-2.5,2.5l0,0
	C372.1,280.4,371,279.3,371,277.9z M359.4,277.9c0-1.4,1.1-2.5,2.5-2.5l0,0c1.4,0,2.5,1.1,2.5,2.5l0,0c0,1.4-1.1,2.5-2.5,2.5l0,0
	C360.5,280.4,359.4,279.3,359.4,277.9z M347.8,277.9c0-1.4,1.1-2.5,2.5-2.5l0,0c1.4,0,2.5,1.1,2.5,2.5l0,0c0,1.4-1.1,2.5-2.5,2.5
	l0,0C348.9,280.4,347.8,279.3,347.8,277.9z M405.9,278c-0.3-1.3,0.5-2.7,1.8-3l0,0l0,0l0,0c1.3-0.3,2.7,0.5,3,1.8l0,0
	c0.3,1.3-0.5,2.7-1.8,3l0,0c-0.2,0.1-0.4,0.1-0.6,0.1l0,0C407.2,279.9,406.2,279.2,405.9,278z M416.3,273c-1.1-0.8-1.4-2.3-0.7-3.5
	l0,0c0.8-1.1,2.3-1.4,3.5-0.7l0,0c1.1,0.8,1.4,2.3,0.7,3.5l0,0c-0.5,0.7-1.3,1.1-2.1,1.1l0,0C417.2,273.4,416.7,273.3,416.3,273z
	 M418,259.8c0-1.4,1.1-2.5,2.5-2.5l0,0c1.4,0,2.5,1.1,2.5,2.5l0,0c0,1.4-1.1,2.5-2.5,2.5l0,0C419.1,262.3,418,261.2,418,259.8z
	 M418,248.2c0-1.4,1.1-2.5,2.5-2.5l0,0c1.4,0,2.5,1.1,2.5,2.5l0,0c0,1.4-1.1,2.5-2.5,2.5l0,0C419.1,250.7,418,249.6,418,248.2z
	 M418,236.6c0-1.4,1.1-2.5,2.5-2.5l0,0c1.4,0,2.5,1.1,2.5,2.5l0,0c0,1.4-1.1,2.5-2.5,2.5l0,0C419.1,239.1,418,238,418,236.6z
	 M418,225c0-1.4,1.1-2.5,2.5-2.5l0,0c1.4,0,2.5,1.1,2.5,2.5l0,0c0,1.4-1.1,2.5-2.5,2.5l0,0C419.1,227.5,418,226.3,418,225z
	 M418,213.3c0-1.4,1.1-2.5,2.5-2.5l0,0c1.4,0,2.5,1.1,2.5,2.5l0,0c0,1.4-1.1,2.5-2.5,2.5l0,0C419.1,215.8,418,214.7,418,213.3z
	 M418,201.7c0-1.4,1.1-2.5,2.5-2.5l0,0c1.4,0,2.5,1.1,2.5,2.5l0,0c0,1.4-1.1,2.5-2.5,2.5l0,0C419.1,204.2,418,203.1,418,201.7z
	 M418,190.1c0-1.4,1.1-2.5,2.5-2.5l0,0c1.4,0,2.5,1.1,2.5,2.5l0,0c0,1.4-1.1,2.5-2.5,2.5l0,0C419.1,192.6,418,191.4,418,190.1z
	 M418,178.4c0-1.4,1.1-2.5,2.5-2.5l0,0c1.4,0,2.5,1.1,2.5,2.5l0,0c0,1.4-1.1,2.5-2.5,2.5l0,0C419.1,180.9,418,179.8,418,178.4z
	 M418,166.8c0-1.4,1.1-2.5,2.5-2.5l0,0c1.4,0,2.5,1.1,2.5,2.5l0,0c0,1.4-1.1,2.5-2.5,2.5l0,0C419.1,169.3,418,168.2,418,166.8z
	 M418,155.2c0-1.4,1.1-2.5,2.5-2.5l0,0c1.4,0,2.5,1.1,2.5,2.5l0,0c0,1.4-1.1,2.5-2.5,2.5l0,0C419.1,157.7,418,156.6,418,155.2z
	 M418,143.5c0-1.4,1.1-2.5,2.5-2.5l0,0c1.4,0,2.5,1.1,2.5,2.5l0,0c0,1.4-1.1,2.5-2.5,2.5l0,0C419.1,146,418,144.9,418,143.5z
	 M418,131.9c0-1.4,1.1-2.5,2.5-2.5l0,0c1.4,0,2.5,1.1,2.5,2.5l0,0c0,1.4-1.1,2.5-2.5,2.5l0,0C419.1,134.4,418,133.3,418,131.9z
	 M418,120.3c0-1.4,1.1-2.5,2.5-2.5l0,0c1.4,0,2.5,1.1,2.5,2.5l0,0c0,1.4-1.1,2.5-2.5,2.5l0,0C419.1,122.8,418,121.7,418,120.3z
	 M418,108.7c0-1.4,1.1-2.5,2.5-2.5l0,0c1.4,0,2.5,1.1,2.5,2.5l0,0c0,1.4-1.1,2.5-2.5,2.5l0,0C419.1,111.2,418,110,418,108.7z
	 M418,97c0-1.4,1.1-2.5,2.5-2.5l0,0c1.4,0,2.5,1.1,2.5,2.5l0,0c0,1.4-1.1,2.5-2.5,2.5l0,0C419.1,99.5,418,98.4,418,97z M418,85.4
	c0-1.4,1.1-2.5,2.5-2.5l0,0c1.4,0,2.5,1.1,2.5,2.5l0,0c0,1.4-1.1,2.5-2.5,2.5l0,0C419.1,87.9,418,86.8,418,85.4z M418,73.8
	c0-1.4,1.1-2.5,2.5-2.5l0,0c1.4,0,2.5,1.1,2.5,2.5l0,0c0,1.4-1.1,2.5-2.5,2.5l0,0C419.1,76.3,418,75.1,418,73.8z M414.6,64.8
	c-0.9-1-0.8-2.6,0.2-3.5l0,0c1-0.9,2.6-0.8,3.5,0.2l0,0c0.9,1,0.8,2.6-0.2,3.5l0,0c-0.5,0.4-1.1,0.6-1.6,0.6l0,0
	C415.8,65.6,415.1,65.3,414.6,64.8z M406.1,60.2L406.1,60.2L406.1,60.2c-1.4-0.2-2.3-1.4-2.2-2.8l0,0c0.2-1.4,1.4-2.3,2.8-2.2v0
	c1.4,0.2,2.3,1.4,2.2,2.8l0,0c-0.2,1.3-1.2,2.2-2.5,2.2l0,0C406.4,60.3,406.2,60.3,406.1,60.2z M392.3,57.6c0-1.4,1.1-2.5,2.5-2.5
	l0,0c1.4,0,2.5,1.1,2.5,2.5l0,0c0,1.4-1.1,2.5-2.5,2.5l0,0C393.5,60.1,392.3,59,392.3,57.6z M380.7,57.6c0-1.4,1.1-2.5,2.5-2.5l0,0
	c1.4,0,2.5,1.1,2.5,2.5l0,0c0,1.4-1.1,2.5-2.5,2.5l0,0C381.8,60.1,380.7,59,380.7,57.6z M369.1,57.6c0-1.4,1.1-2.5,2.5-2.5l0,0
	c1.4,0,2.5,1.1,2.5,2.5l0,0c0,1.4-1.1,2.5-2.5,2.5l0,0C370.2,60.1,369.1,59,369.1,57.6z M357.5,57.6c0-1.4,1.1-2.5,2.5-2.5l0,0
	c1.4,0,2.5,1.1,2.5,2.5l0,0c0,1.4-1.1,2.5-2.5,2.5l0,0C358.6,60.1,357.5,59,357.5,57.6z M345.8,57.6c0-1.4,1.1-2.5,2.5-2.5l0,0
	c1.4,0,2.5,1.1,2.5,2.5l0,0c0,1.4-1.1,2.5-2.5,2.5l0,0C346.9,60.1,345.8,59,345.8,57.6z M334.2,57.6c0-1.4,1.1-2.5,2.5-2.5l0,0
	c1.4,0,2.5,1.1,2.5,2.5l0,0c0,1.4-1.1,2.5-2.5,2.5l0,0C335.3,60.1,334.2,59,334.2,57.6z M322.6,57.6c0-1.4,1.1-2.5,2.5-2.5l0,0
	c1.4,0,2.5,1.1,2.5,2.5l0,0c0,1.4-1.1,2.5-2.5,2.5l0,0C323.7,60.1,322.6,59,322.6,57.6z M310.9,57.6c0-1.4,1.1-2.5,2.5-2.5l0,0
	c1.4,0,2.5,1.1,2.5,2.5l0,0c0,1.4-1.1,2.5-2.5,2.5l0,0C312,60.1,310.9,59,310.9,57.6z M299.3,57.6c0-1.4,1.1-2.5,2.5-2.5l0,0
	c1.4,0,2.5,1.1,2.5,2.5l0,0c0,1.4-1.1,2.5-2.5,2.5l0,0C300.4,60.1,299.3,59,299.3,57.6z M287.7,57.6c0-1.4,1.1-2.5,2.5-2.5l0,0
	c1.4,0,2.5,1.1,2.5,2.5l0,0c0,1.4-1.1,2.5-2.5,2.5l0,0C288.8,60.1,287.7,59,287.7,57.6z M276,57.6c0-1.4,1.1-2.5,2.5-2.5l0,0
	c1.4,0,2.5,1.1,2.5,2.5l0,0c0,1.4-1.1,2.5-2.5,2.5l0,0C277.1,60.1,276,59,276,57.6z M378.9,369.6c0.8-0.8,0.8-2,0-2.8l-54.5-54.5
	c-0.8-0.8-2-0.8-2.8,0s-0.8,2,0,2.8l54.5,54.5c0.4,0.4,0.9,0.6,1.4,0.6S378.5,370,378.9,369.6z M275.8,319.1
	c23.2-9.2,41.5-26.8,51.5-49.8c9.9-22.9,10.4-48.3,1.2-71.6c-18.9-48-73.4-71.6-121.3-52.7c-6.4,2.5-12.6,5.8-18.3,9.7
	c-0.9,0.6-1.1,1.9-0.5,2.8c0.6,0.9,1.9,1.2,2.8,0.5c5.5-3.7,11.4-6.9,17.6-9.3c45.9-18.1,98,4.5,116.1,50.4
	c8.8,22.2,8.4,46.6-1.1,68.5c-9.5,21.9-27,38.9-49.3,47.6c-22.2,8.8-46.6,8.4-68.5-1.1c-21.9-9.5-38.9-27-47.6-49.3
	c-0.4-1-1.6-1.5-2.6-1.1c-1,0.4-1.5,1.6-1.1,2.6c9.2,23.2,26.8,41.5,49.8,51.5c11.9,5.2,24.6,7.8,37.2,7.8
	C253.1,325.7,264.7,323.5,275.8,319.1z M198.5,286.8v-31.3c0-5.3,3.6-7.3,6.7-8l24.9-3.3c1-0.1,1.7-1,1.7-2v-10
	c0-0.6-0.3-1.2-0.8-1.6c-5.9-4.4-9.4-11.5-9.3-18.9v-10.6c0-12.3,8.7-21.9,19.7-21.9c11.2,0,19.6,9.2,19.6,21.3v11.6
	c0.1,7.2-3.3,14.1-9.2,18.3c-0.5,0.4-0.8,1-0.8,1.6v10c0,1,0.7,1.9,1.7,2l24.9,3.3c3.1,0.7,6.7,2.7,6.7,8v31.3c0,1.1,0.9,2,2,2
	s2-0.9,2-2v-31.3c0-6-3.7-10.5-9.9-11.9c-0.1,0-0.1,0-0.2,0l-23.3-3.1v-7.3c6.4-5,10.1-12.8,10-21v-11.6c0-14.4-10.2-25.3-23.6-25.3
	c-13.3,0-23.7,11.4-23.7,25.9v10.5c-0.1,8.3,3.6,16.3,10.1,21.5v7.3l-23.3,3.1c-0.1,0-0.1,0-0.2,0c-6.2,1.4-9.9,5.9-9.9,11.9v31.3
	c0,1.1,0.9,2,2,2S198.5,287.9,198.5,286.8z M267.7,289.7h-52.5c-1.1,0-2-0.9-2-2v-26.2c0-1.1,0.9-2,2-2h52.5c1.1,0,2,0.9,2,2v26.2
	C269.7,288.8,268.8,289.7,267.7,289.7z M217.2,285.7h48.5v-22.2h-48.5V285.7z M260.7,82.3V38.6c0-1.1-0.9-2-2-2s-2,0.9-2,2v43.7
	c0,7.7-14.9,12.9-28.8,12.9c-13.9,0-28.8-5.2-28.8-12.9V38.6c0-1.1-0.9-2-2-2s-2,0.9-2,2v43.7c0,9.6,14.1,16.9,32.8,16.9
	C246.6,99.2,260.7,91.9,260.7,82.3z M260.7,38.6c0-9.6-14.1-16.9-32.8-16.9c-18.7,0-32.8,7.3-32.8,16.9c0,1.1,0.9,2,2,2s2-0.9,2-2
	c0-7.7,14.9-12.9,28.8-12.9c13.9,0,28.8,5.2,28.8,12.9c0,6.8-12.9,12.4-28.8,12.4c-9,0-17-1.5-22.4-4.3c-1-0.5-2.2-0.1-2.7,0.9
	c-0.5,1-0.1,2.2,0.9,2.7c6,3,14.6,4.7,24.2,4.7C246.9,55,260.7,48.1,260.7,38.6z M260.7,60c0-1.1-0.9-2-2-2s-2,0.9-2,2
	c0,7.7-14.9,12.9-28.8,12.9c-8.2,0-16.4-1.7-22.4-4.8c-1-0.5-2.2-0.1-2.7,0.9c-0.5,1-0.1,2.2,0.9,2.7c6.6,3.3,15.4,5.2,24.2,5.2
	C246.6,76.9,260.7,69.6,260.7,60z M253.3,426.4v-58.9c0-1.1-0.9-2-2-2s-2,0.9-2,2v58.9c0,1.1,0.9,2,2,2S253.3,427.5,253.3,426.4z
	 M241.2,426.4v-46.8c0-1.1-0.9-2-2-2s-2,0.9-2,2v46.8c0,1.1,0.9,2,2,2S241.2,427.5,241.2,426.4z M229.9,426.4v-33.2c0-1.1-0.9-2-2-2
	s-2,0.9-2,2v33.2c0,1.1,0.9,2,2,2S229.9,427.5,229.9,426.4z M206.5,426.4v-15.1c0-1.1-0.9-2-2-2s-2,0.9-2,2v15.1c0,1.1,0.9,2,2,2
	S206.5,427.5,206.5,426.4z M217.9,426.4v-22.6c0-1.1-0.9-2-2-2s-2,0.9-2,2v22.6c0,1.1,0.9,2,2,2S217.9,427.5,217.9,426.4z
	 M269.4,438c0-1.1-0.9-2-2-2h-79.1c-1.1,0-2,0.9-2,2s0.9,2,2,2h79.1C268.5,440,269.4,439.1,269.4,438z M114.6,221.7 M114.6,262.8
	c-38.6,0-73.1-24.8-87.9-63.3c-0.2-0.5-0.2-1,0-1.4c14.8-38.4,49.2-63.3,87.9-63.3s73.1,24.8,87.9,63.3c0.2,0.5,0.2,1,0,1.4
	C187.7,238,153.2,262.8,114.6,262.8z M30.7,198.8c14.3,36.5,47.1,60,83.9,60s69.5-23.5,83.9-60c-14.3-36.5-47.1-60-83.9-60
	S45,162.3,30.7,198.8z M114.6,242.8c-24.3,0-44-19.7-44-44s19.7-44,44-44s44,19.7,44,44S138.8,242.8,114.6,242.8z M114.6,158.8
	c-22.1,0-40,17.9-40,40s17.9,40,40,40s40-17.9,40-40S136.6,158.8,114.6,158.8z M134.6,198.8c0-11-9-20-20-20c-1.1,0-2,0.9-2,2
	s0.9,2,2,2c8.8,0,16,7.2,16,16s-7.2,16-16,16s-16-7.2-16-16c0-4.4,1.7-8.5,4.9-11.5c0.8-0.8,0.8-2,0.1-2.8c-0.8-0.8-2-0.8-2.8-0.1
	c-3.9,3.8-6.1,8.9-6.1,14.4c0,11,9,20,20,20S134.6,209.8,134.6,198.8z"/>
</svg>
