<svg xmlns="http://www.w3.org/2000/svg" width="100" height="100" viewBox="0 0 100 100">
  <!-- <style>
    .twitter-st0{fill:#ffffff;}
  </style> -->
  <path class="twitter-st0" d="M79.9 33.1c-2.2.9-4.6 1.5-7 1.8 2.5-1.4 4.5-3.6 5.4-6.2-2.4 1.3-5 2.2-7.8 2.7-2.2-2.2-5.4-3.5-9-3.5-6.8 0-12.3 5-12.3 11.2 0 .9.1 1.7.3 2.6-10.2-.5-19.2-4.9-25.3-11.7-1.1 1.7-1.7 3.6-1.7 5.6 0 3.9 2.2 7.3 5.5 9.3-2-.1-3.9-.6-5.6-1.4v.1c0 5.4 4.2 10 9.8 11-1 .3-2.1.4-3.2.4-.8 0-1.6-.1-2.3-.2 1.6 4.5 6.1 7.7 11.5 7.8-4.2 3-9.5 4.8-15.2 4.8-1 0-2-.1-2.9-.2 5.4 3.2 11.9 5 18.8 5 22.6 0 34.9-17.1 34.9-31.9v-1.4c2.4-1.6 4.5-3.6 6.1-5.8z"/>
</svg>