<svg xmlns="http://www.w3.org/2000/svg" viewBox="0 0 751.9 367.9">
  <defs>
    <style>
      .cls-1, .cls-2, .cls-3, .cls-4, .cls-5 {
        fill: none;
        stroke-miterlimit: 10;
      }

      .cls-1 {
        stroke: #fa8d28;
        stroke-width: 3px;
      }

      .cls-1, .cls-3, .cls-4, .cls-5 {
        stroke-linecap: round;
        stroke-width: 3px;
      }

      .cls-2 {
        stroke: #fff;
        stroke-width: 3px;
      }

      .cls-3 {
        stroke: #9cb6cb;
        stroke-width: 3px;
      }

      .cls-4 {
        stroke: #0aa8e0;
        stroke-width: 3px;
      }

      .cls-5 {
        stroke: #4b576f;
        stroke-width: 3px;
      }
    </style>
  </defs>
  <title>blog-picture-lines</title>
  <g id="c5">
    <line id="Line_5679" data-name="Line 5679" class="cls-1" x1="179" y1="40.4" x2="217.9" y2="1.5"/>
    <line id="Line_5679-2" data-name="Line 5679" class="cls-1" x1="445.25" y1="40.4" x2="484.15" y2="1.5"/>
    <line id="Line_5679-3" data-name="Line 5679" class="cls-1" x1="622.75" y1="40.4" x2="661.65" y2="1.5"/>
    <line id="Line_5679-4" data-name="Line 5679" class="cls-1" x1="711.5" y1="158.95" x2="750.4" y2="120.05"/>
    <line id="Line_5679-5" data-name="Line 5679" class="cls-1" x1="711.5" y1="247.86" x2="750.4" y2="208.95"/>
    <line id="Line_5679-6" data-name="Line 5679" class="cls-1" x1="711.5" y1="336.76" x2="750.4" y2="297.86"/>
  </g>
  <g id="c4">
    <line id="Line_5679-7" data-name="Line 5679" class="cls-2" x1="149.42" y1="40.4" x2="188.32" y2="1.5"/>
    <line id="Line_5679-8" data-name="Line 5679" class="cls-2" x1="326.92" y1="40.4" x2="365.82" y2="1.5"/>
    <line id="Line_5679-9" data-name="Line 5679" class="cls-2" x1="563.58" y1="40.4" x2="602.48" y2="1.5"/>
    <line id="Line_5679-10" data-name="Line 5679" class="cls-2" x1="711.5" y1="40.4" x2="750.4" y2="1.5"/>
  </g>
  <g id="c3">
    <line id="Line_5679-11" data-name="Line 5679" class="cls-3" x1="60.67" y1="40.4" x2="99.57" y2="1.5"/>
    <line id="Line_5679-12" data-name="Line 5679" class="cls-3" x1="119.83" y1="40.4" x2="158.73" y2="1.5"/>
    <line id="Line_5679-13" data-name="Line 5679" class="cls-3" x1="238.17" y1="40.4" x2="277.07" y2="1.5"/>
    <line id="Line_5679-14" data-name="Line 5679" class="cls-3" x1="415.67" y1="40.4" x2="454.57" y2="1.5"/>
    <line id="Line_5679-15" data-name="Line 5679" class="cls-3" x1="534" y1="40.4" x2="572.9" y2="1.5"/>
    <line id="Line_5679-16" data-name="Line 5679" class="cls-3" x1="711.5" y1="99.67" x2="750.4" y2="60.77"/>
    <line id="Line_5679-17" data-name="Line 5679" class="cls-3" x1="711.5" y1="277.49" x2="750.4" y2="238.59"/>
    <line id="Line_5679-18" data-name="Line 5679" class="cls-3" x1="711.5" y1="366.4" x2="750.4" y2="327.5"/>
  </g>
  <g id="c2">
    <line id="Line_5679-19" data-name="Line 5679" class="cls-4" x1="1.5" y1="40.4" x2="40.4" y2="1.5"/>
    <line id="Line_5679-20" data-name="Line 5679" class="cls-4" x1="90.25" y1="40.4" x2="129.15" y2="1.5"/>
    <line id="Line_5679-21" data-name="Line 5679" class="cls-4" x1="208.58" y1="40.4" x2="247.48" y2="1.5"/>
    <line id="Line_5679-22" data-name="Line 5679" class="cls-4" x1="297.33" y1="40.4" x2="336.23" y2="1.5"/>
    <line id="Line_5679-23" data-name="Line 5679" class="cls-4" x1="356.5" y1="40.4" x2="395.4" y2="1.5"/>
    <line id="Line_5679-24" data-name="Line 5679" class="cls-4" x1="474.83" y1="40.4" x2="513.73" y2="1.5"/>
    <line id="Line_5679-25" data-name="Line 5679" class="cls-4" x1="504.42" y1="40.4" x2="543.32" y2="1.5"/>
    <line id="Line_5679-26" data-name="Line 5679" class="cls-4" x1="652.33" y1="40.4" x2="691.23" y2="1.5"/>
    <line id="Line_5679-27" data-name="Line 5679" class="cls-4" x1="681.92" y1="40.4" x2="720.82" y2="1.5"/>
    <line id="Line_5679-28" data-name="Line 5679" class="cls-4" x1="711.5" y1="70.04" x2="750.4" y2="31.14"/>
    <line id="Line_5679-29" data-name="Line 5679" class="cls-4" x1="711.5" y1="188.58" x2="750.4" y2="149.68"/>
  </g>
  <g id="c1">
    <line id="Line_5679-30" data-name="Line 5679" class="cls-5" x1="31.08" y1="40.4" x2="69.98" y2="1.5"/>
    <line id="Line_5679-31" data-name="Line 5679" class="cls-5" x1="267.75" y1="40.4" x2="306.65" y2="1.5"/>
    <line id="Line_5679-32" data-name="Line 5679" class="cls-5" x1="386.08" y1="40.4" x2="424.98" y2="1.5"/>
    <line id="Line_5679-33" data-name="Line 5679" class="cls-5" x1="593.17" y1="40.4" x2="632.07" y2="1.5"/>
    <line id="Line_5679-34" data-name="Line 5679" class="cls-5" x1="711.5" y1="129.31" x2="750.4" y2="90.41"/>
    <line id="Line_5679-35" data-name="Line 5679" class="cls-5" x1="711.5" y1="218.22" x2="750.4" y2="179.32"/>
    <line id="Line_5679-36" data-name="Line 5679" class="cls-5" x1="711.5" y1="307.13" x2="750.4" y2="268.23"/>
  </g>
</svg>
