<?xml version="1.0" encoding="utf-8"?>
<!-- Generator: Adobe Illustrator 23.0.2, SVG Export Plug-In . SVG Version: 6.00 Build 0)  -->
<svg version="1.1" xmlns="http://www.w3.org/2000/svg" xmlns:xlink="http://www.w3.org/1999/xlink" x="0px" y="0px"
	 viewBox="0 0 1280 1024" style="enable-background:new 0 0 1280 1024;" xml:space="preserve">
<style type="text/css">
	.st0{fill:none;stroke:#FFF5C8;stroke-width:3;stroke-linecap:round;stroke-miterlimit:10;}
	.st1{fill:none;stroke:#CFF1CC;stroke-width:3;stroke-linecap:round;stroke-miterlimit:10;}
	.st2{fill:none;stroke:#ECF2F7;stroke-width:3;stroke-linecap:round;stroke-miterlimit:10;}
	.st3{fill:none;stroke:#A1D89C;stroke-width:3;stroke-linecap:round;stroke-miterlimit:10;}
	.st4{fill:none;stroke:#F9E064;stroke-width:3;stroke-linecap:round;stroke-miterlimit:10;}
</style>
<g id="Color_5">
	<path id="Path_20472" class="st0" d="M764.3,548.3c-2.4,0-4.7-0.1-7.2-0.1c-29.1-0.8-53.2-4.6-73.9-10.6"/>
	<path id="Path_20473" class="st0" d="M832.7,539.4c-13,3.6-26.3,5.9-39.7,7.1"/>
</g>
<g id="Color_4">
	<path id="Path_20474" class="st1" d="M357.4,430.5c18.6-3.6,39.6-5.4,64.2-4.8c126.2,3.4,157.1,67.1,234.7,101.2"/>
</g>
<g id="Color_3">
	<path id="Path_20469" class="st2" d="M525.9,514.5c53.2,24.9,84.7,63.8,143.1,85.4"/>
	<path id="Path_20470" class="st2" d="M498.9,505.3c-21.5-6.7-46.6-11.2-77.4-12c-106.2-2.8-146.7,40.9-203.9,72.8"/>
	<path id="Path_20476" class="st2" d="M540.2,386.5c36.9,20.1,64.2,46.2,101.7,65.8"/>
</g>
<g id="Color_2">
	<path id="Path_20471" class="st3" d="M951.9,480.7c-29.4,17.8-55.6,37.8-90.6,51.6"/>
	<path id="Path_20475" class="st3" d="M807.3,477.2c66.2-8.7,102-38.7,144.7-64"/>
</g>
<g id="Color_1">
	<path id="Path_20468" class="st4" d="M697.6,608.8c19.6,4.3,39.7,6.6,59.7,7c29.6,0.8,54.2-2,75.4-7"/>
	<path id="Path_20477" class="st4" d="M778.6,480.5c-6.8,0.2-13.9,0.3-21.3,0.1c-36.1-1-64.5-7-88.4-15.9"/>
</g>
</svg>
