<svg id="svg-arrow-down" xmlns="http://www.w3.org/2000/svg" viewBox="0 0 71 79">
  <path d="M28.4 49.8s.2 1.4-.5 1.7c-.8.5-1.6-.7-1.6-.7l-12-12c-1.4-1.4-3.3-2.1-5.1-2.1-1.8 0-3.7.7-5.1 2.1-2.8 2.8-2.8 7.3 0 10.1l24.4 24.2 1.9 1.8.5.5c.1.1.2.1.3.2.1.1.2.2.3.2.1.1.2.1.3.2.1.1.2.1.3.2.1.1.2.1.3.2.1 0 .2.1.3.1.1 0 .2.1.3.1.1 0 .2.1.3.1.1 0 .2.1.3.1.1 0 .2.1.4.1.1 0 .3 0 .4.1h2c.1 0 .2 0 .4-.1.1 0 .2-.1.4-.1.1 0 .2 0 .3-.1.1 0 .2-.1.4-.1.1 0 .2-.1.3-.1.1 0 .2-.1.3-.2.1 0 .2-.1.3-.1.1-.1.2-.1.4-.2.1-.1.2-.1.3-.2.1-.1.2-.2.3-.2l.2-.2c.2-.2.4-.3.6-.5l21.3-21.1 5-4.9c2.8-2.8 2.8-7.3 0-10.1-1.4-1.4-3.3-2.1-5.1-2.1-1.8 0-3.7.7-5.1 2.1L45.2 50.1s-.8 1-1.5.7c-1-.5-.9-1.5-.9-1.5V9.1c0-3.9-3.2-7.1-7.2-7.1s-7.2 3.2-7.2 7.1l.1 30.4-.1 10.3z" fill="none" stroke="#000" stroke-width="4" stroke-linecap="round" stroke-linejoin="round" stroke-miterlimit="10"/>
</svg>