<svg id="svg-bg-c1" xmlns="http://www.w3.org/2000/svg" width="1440" height="900" viewBox="0 0 1440 900"  preserveAspectRatio="xMidYMax slice">
    <g>
    <path d="M1060,764.06a.25.25,0,0,1-.2.05l-.26,0a.22.22,0,0,1-.19-.08c-12.2-10.34-15.88-15.36-15.19-20.62a9.26,9.26,0,0,1,10.12-8.41,9.49,9.49,0,0,1,7.54,5.24,9.31,9.31,0,0,1,16.78,6.36C1078.28,751.88,1073.74,756.13,1060,764.06Zm106.71-9.31a9.31,9.31,0,0,0-16.78-6.36,9.45,9.45,0,0,0-7.54-5.24,9.25,9.25,0,0,0-10.12,8.4c-.69,5.27,3,10.28,15.19,20.62a.26.26,0,0,0,.19.09l.26,0a.22.22,0,0,0,.2,0C1161.85,764.3,1166.39,760.05,1166.68,754.75Zm8.85-95.3-88.11-8.18L1085,677.81l88.11,8.18ZM1173.07,686l-6.48,69.85m-81.63-78-6.48,69.86" fill="none" stroke="#000" stroke-linecap="round" stroke-linejoin="round" stroke-width="5"/>
    </g>
    <g>
    <path d="M679.25,794.18a.26.26,0,0,1-.2.05l-.27,0a.23.23,0,0,1-.18-.08c-12.21-10.35-15.89-15.36-15.2-20.63a9.25,9.25,0,0,1,10.12-8.4,9.44,9.44,0,0,1,7.54,5.24,9.32,9.32,0,0,1,16.79,6.36C697.55,782,693,786.24,679.25,794.18ZM786,784.86a9.31,9.31,0,0,0-16.78-6.36,9.51,9.51,0,0,0-7.55-5.24,9.26,9.26,0,0,0-10.12,8.41c-.69,5.26,3,10.28,15.2,20.62a.21.21,0,0,0,.19.08l.26,0a.26.26,0,0,0,.2,0C781.12,794.42,785.66,790.16,786,784.86Zm8.84-95.3-88.11-8.17-2.46,26.54,88.11,8.17Zm-2.46,26.54L785.86,786m-81.63-78-6.48,69.86" fill="none" stroke="#000" stroke-linecap="round" stroke-linejoin="round" stroke-width="5"/>
    </g>
    <g>
    <path d="M55.58,598.29a.22.22,0,0,1-.2,0l-.26,0a.25.25,0,0,1-.19-.08c-12.2-10.35-15.88-15.36-15.2-20.63a9.25,9.25,0,0,1,10.13-8.4,9.45,9.45,0,0,1,7.54,5.24,9.31,9.31,0,0,1,16.78,6.36C73.88,586.1,69.35,590.35,55.58,598.29ZM162.29,589a9.31,9.31,0,0,0-16.78-6.36,9.45,9.45,0,0,0-7.54-5.24,9.26,9.26,0,0,0-10.13,8.41c-.68,5.26,3,10.28,15.2,20.62a.22.22,0,0,0,.19.08l.26,0a.26.26,0,0,0,.2,0C157.46,598.52,162,594.27,162.29,589Zm8.85-95.3L83,485.5,80.56,512l88.11,8.17Zm-2.47,26.54-6.48,69.86M80.56,512,74.08,581.9" fill="none" stroke="#000" stroke-linecap="round" stroke-linejoin="round" stroke-width="5"/>
    </g>
    <g>
      <path d="M89.06,312.7C88,325.15,75.21,334.23,60.51,333s-25.75-12.38-24.68-24.84c.09-1,7.88-41.89,7.88-41.89l44.74,3.85S89.15,311.71,89.06,312.7ZM60.51,333l-3.16,36.72M72.64,371l-30.58-2.63" fill="none" stroke="#000" stroke-linecap="round" stroke-linejoin="round" stroke-width="5"/>
      <path d="M159.77,294.12c7.25,10.18,3.39,25.38-8.62,33.94s-27.64,7.24-34.89-2.94c-.58-.81-21.14-37-21.14-37l36.58-26.06S159.19,293.32,159.77,294.12Zm-8.62,33.94,21.38,30M160,367l25-17.81" fill="none" stroke="#000" stroke-linecap="round" stroke-linejoin="round" stroke-width="5"/>
      <line x1="101.34" y1="228.15" x2="101.34" y2="255.49" fill="none" stroke="#000" stroke-linecap="round" stroke-linejoin="round" stroke-width="5"/>
      <line x1="128.2" y1="229.69" x2="115.61" y2="253.95" fill="none" stroke="#000" stroke-linecap="round" stroke-linejoin="round" stroke-width="5"/>
      <line x1="74.48" y1="229.69" x2="87.07" y2="253.95" fill="none" stroke="#000" stroke-linecap="round" stroke-linejoin="round" stroke-width="5"/>
    </g>
    <g>
      <path d="M290.3,741.05c-1.07,12.45-13.85,21.53-28.55,20.26S236,748.93,237.07,736.47c.09-1,7.88-41.89,7.88-41.89l44.74,3.85S290.39,740.06,290.3,741.05Zm-28.55,20.26L258.59,798m15.29,1.31-30.58-2.63" fill="none" stroke="#000" stroke-linecap="round" stroke-linejoin="round" stroke-width="5"/>
      <path d="M361,722.47c7.25,10.18,3.39,25.38-8.62,33.94s-27.64,7.24-34.89-2.94c-.58-.81-21.14-37-21.14-37l36.58-26.06S360.43,721.67,361,722.47Zm-8.62,33.94,21.38,30m-12.5,8.91,25-17.81" fill="none" stroke="#000" stroke-linecap="round" stroke-linejoin="round" stroke-width="5"/>
      <line x1="302.58" y1="656.5" x2="302.58" y2="683.84" fill="none" stroke="#000" stroke-linecap="round" stroke-linejoin="round" stroke-width="5"/>
      <line x1="329.44" y1="658.04" x2="316.85" y2="682.3" fill="none" stroke="#000" stroke-linecap="round" stroke-linejoin="round" stroke-width="5"/>
      <line x1="275.72" y1="658.04" x2="288.31" y2="682.3" fill="none" stroke="#000" stroke-linecap="round" stroke-linejoin="round" stroke-width="5"/>
    </g>
    <g>
      <path d="M922.55,812.77C921.48,825.23,908.7,834.3,894,833s-25.75-12.39-24.68-24.84c.09-1,7.88-41.89,7.88-41.89l44.74,3.84S922.63,811.78,922.55,812.77ZM894,833l-3.16,36.71m15.29,1.32-30.58-2.63" fill="none" stroke="#000" stroke-linecap="round" stroke-linejoin="round" stroke-width="5"/>
      <path d="M993.26,794.2c7.25,10.18,3.39,25.37-8.62,33.93s-27.64,7.25-34.89-2.93c-.58-.81-21.14-37-21.14-37l36.58-26.06S992.68,793.39,993.26,794.2Zm-8.62,33.93,21.38,30m-12.5,8.9,25-17.81" fill="none" stroke="#000" stroke-linecap="round" stroke-linejoin="round" stroke-width="5"/>
      <line x1="934.83" y1="728.23" x2="934.83" y2="755.57" fill="none" stroke="#000" stroke-linecap="round" stroke-linejoin="round" stroke-width="5"/>
      <line x1="961.69" y1="729.76" x2="949.1" y2="754.03" fill="none" stroke="#000" stroke-linecap="round" stroke-linejoin="round" stroke-width="5"/>
      <line x1="907.97" y1="729.76" x2="920.55" y2="754.03" fill="none" stroke="#000" stroke-linecap="round" stroke-linejoin="round" stroke-width="5"/>
    </g>
    <g>
      <path d="M1312,514.72c-1.07,12.46-13.85,21.53-28.55,20.27s-25.75-12.39-24.68-24.84c.09-1,7.88-41.89,7.88-41.89l44.74,3.84S1312.06,513.74,1312,514.72ZM1283.42,535l-3.16,36.71m15.29,1.32L1265,570.39" fill="none" stroke="#000" stroke-linecap="round" stroke-linejoin="round" stroke-width="5"/>
      <path d="M1382.68,496.15c7.25,10.18,3.4,25.37-8.62,33.93s-27.64,7.25-34.89-2.93c-.57-.81-21.14-37-21.14-37l36.58-26.06S1382.11,495.34,1382.68,496.15Zm-8.62,33.93,21.38,30M1383,569l25-17.8" fill="none" stroke="#000" stroke-linecap="round" stroke-linejoin="round" stroke-width="5"/>
      <line x1="1324.25" y1="430.18" x2="1324.25" y2="457.52" fill="none" stroke="#000" stroke-linecap="round" stroke-linejoin="round" stroke-width="5"/>
      <line x1="1351.11" y1="431.71" x2="1338.52" y2="455.98" fill="none" stroke="#000" stroke-linecap="round" stroke-linejoin="round" stroke-width="5"/>
      <line x1="1297.39" y1="431.71" x2="1309.98" y2="455.98" fill="none" stroke="#000" stroke-linecap="round" stroke-linejoin="round" stroke-width="5"/>
    </g>
    <g>
      <path d="M1406.51,233.7c-.78-21-16.58-36.77-36.77-36.77a36.83,36.83,0,0,0-31.59,17.87,37.39,37.39,0,0,0-31.59-17.87c-20.45,0-36.25,15.8-36.76,36.77-.78,21,15.53,39.36,67.32,75.6a.93.93,0,0,0,.77.26h1a.93.93,0,0,0,.77-.26C1391,273.06,1407.28,254.67,1406.51,233.7Z" fill="none" stroke="#000" stroke-linecap="round" stroke-linejoin="round" stroke-width="5"/>
      <line x1="1338.15" y1="254.27" x2="1413.13" y2="285.7" fill="none" stroke="#000" stroke-linecap="round" stroke-linejoin="round" stroke-width="5"/>
      <line x1="1219.5" y1="204.53" x2="1270.73" y2="226.01" fill="none" stroke="#000" stroke-linecap="round" stroke-linejoin="round" stroke-width="5"/>
      <polygon points="1434.41 297.2 1418.87 273.96 1406.52 299.05 1434.41 297.2" fill="none" stroke="#000" stroke-linecap="round" stroke-linejoin="round" stroke-width="5"/>
      <line x1="1254.5" y1="219.2" x2="1240.85" y2="196.93" fill="none" stroke="#000" stroke-linecap="round" stroke-linejoin="round" stroke-width="5"/>
      <line x1="1235.96" y1="211.47" x2="1222.31" y2="189.2" fill="none" stroke="#000" stroke-linecap="round" stroke-linejoin="round" stroke-width="5"/>
      <line x1="1253.39" y1="219.69" x2="1227.93" y2="225.52" fill="none" stroke="#000" stroke-linecap="round" stroke-linejoin="round" stroke-width="5"/>
      <line x1="1234.89" y1="211.85" x2="1209.43" y2="217.68" fill="none" stroke="#000" stroke-linecap="round" stroke-linejoin="round" stroke-width="5"/>
    </g>
    <g>
      <path d="M625.82,797.54c-.78-21-16.58-36.77-36.77-36.77a36.81,36.81,0,0,0-31.59,17.87,37.39,37.39,0,0,0-31.59-17.87c-20.45,0-36.25,15.8-36.76,36.77-.78,21,15.53,39.35,67.32,75.6a.93.93,0,0,0,.77.26h1a.93.93,0,0,0,.77-.26C610.28,836.89,626.59,818.51,625.82,797.54Z" fill="none" stroke="#000" stroke-linecap="round" stroke-linejoin="round" stroke-width="5"/>
      <line x1="557.46" y1="818.11" x2="632.44" y2="849.54" fill="none" stroke="#000" stroke-linecap="round" stroke-linejoin="round" stroke-width="5"/>
      <line x1="438.81" y1="768.37" x2="490.04" y2="789.85" fill="none" stroke="#000" stroke-linecap="round" stroke-linejoin="round" stroke-width="5"/>
      <polygon points="653.72 861.04 638.17 837.8 625.82 862.89 653.72 861.04" fill="none" stroke="#000" stroke-linecap="round" stroke-linejoin="round" stroke-width="5"/>
      <line x1="473.81" y1="783.04" x2="460.16" y2="760.77" fill="none" stroke="#000" stroke-linecap="round" stroke-linejoin="round" stroke-width="5"/>
      <line x1="455.27" y1="775.31" x2="441.62" y2="753.04" fill="none" stroke="#000" stroke-linecap="round" stroke-linejoin="round" stroke-width="5"/>
      <line x1="472.7" y1="783.52" x2="447.24" y2="789.36" fill="none" stroke="#000" stroke-linecap="round" stroke-linejoin="round" stroke-width="5"/>
      <line x1="454.2" y1="775.69" x2="428.74" y2="781.52" fill="none" stroke="#000" stroke-linecap="round" stroke-linejoin="round" stroke-width="5"/>
    </g>
    <g>
      <path d="M202.76,784.08c-.78-21-16.57-36.77-36.77-36.77a36.83,36.83,0,0,0-31.59,17.87,37.38,37.38,0,0,0-31.58-17.87c-20.46,0-36.25,15.79-36.77,36.77-.78,21,15.54,39.35,67.32,75.6a1,1,0,0,0,.78.26h1a1,1,0,0,0,.78-.26C187.22,823.43,203.54,805.05,202.76,784.08Z" fill="none" stroke="#000" stroke-linecap="round" stroke-linejoin="round" stroke-width="5"/>
      <line x1="134.4" y1="804.65" x2="209.39" y2="836.08" fill="none" stroke="#000" stroke-linecap="round" stroke-linejoin="round" stroke-width="5"/>
      <line x1="15.75" y1="754.91" x2="66.98" y2="776.38" fill="none" stroke="#000" stroke-linecap="round" stroke-linejoin="round" stroke-width="5"/>
      <polygon points="230.66 847.58 215.12 824.34 202.77 849.42 230.66 847.58" fill="none" stroke="#000" stroke-linecap="round" stroke-linejoin="round" stroke-width="5"/>
      <line x1="50.75" y1="769.58" x2="37.1" y2="747.31" fill="none" stroke="#000" stroke-linecap="round" stroke-linejoin="round" stroke-width="5"/>
      <line x1="32.21" y1="761.85" x2="18.56" y2="739.58" fill="none" stroke="#000" stroke-linecap="round" stroke-linejoin="round" stroke-width="5"/>
      <line x1="49.64" y1="770.06" x2="24.18" y2="775.89" fill="none" stroke="#000" stroke-linecap="round" stroke-linejoin="round" stroke-width="5"/>
      <line x1="31.15" y1="762.23" x2="5.69" y2="768.06" fill="none" stroke="#000" stroke-linecap="round" stroke-linejoin="round" stroke-width="5"/>
    </g>
    <g>
      <path d="M1235.52,794.67c.78-21,16.57-36.76,36.77-36.76a36.82,36.82,0,0,1,31.58,17.86,37.43,37.43,0,0,1,31.59-17.86c20.46,0,36.25,15.79,36.77,36.76.77,21-15.54,39.36-67.32,75.61a1,1,0,0,1-.78.25h-1a1,1,0,0,1-.78-.25C1251.05,834,1234.74,815.64,1235.52,794.67Z" fill="none" stroke="#000" stroke-linecap="round" stroke-linejoin="round" stroke-width="5"/>
      <line x1="1303.87" y1="815.24" x2="1228.89" y2="846.67" fill="none" stroke="#000" stroke-linecap="round" stroke-linejoin="round" stroke-width="5"/>
      <line x1="1422.53" y1="765.51" x2="1371.3" y2="786.98" fill="none" stroke="#000" stroke-linecap="round" stroke-linejoin="round" stroke-width="5"/>
      <polygon points="1207.61 858.17 1223.16 834.94 1235.51 860.02 1207.61 858.17" fill="none" stroke="#000" stroke-linecap="round" stroke-linejoin="round" stroke-width="5"/>
      <line x1="1387.53" y1="780.18" x2="1401.18" y2="757.91" fill="none" stroke="#000" stroke-linecap="round" stroke-linejoin="round" stroke-width="5"/>
      <line x1="1406.07" y1="772.44" x2="1419.71" y2="750.17" fill="none" stroke="#000" stroke-linecap="round" stroke-linejoin="round" stroke-width="5"/>
      <line x1="1388.64" y1="780.66" x2="1414.1" y2="786.49" fill="none" stroke="#000" stroke-linecap="round" stroke-linejoin="round" stroke-width="5"/>
      <line x1="1407.13" y1="772.82" x2="1432.59" y2="778.65" fill="none" stroke="#000" stroke-linecap="round" stroke-linejoin="round" stroke-width="5"/>
    </g>
</svg>
