
<svg version="1.1" id="svg-bg-home" xmlns="http://www.w3.org/2000/svg" xmlns:xlink="http://www.w3.org/1999/xlink" x="0px" y="0px" viewBox="0 0 1440 900"
	 style="enable-background:new 0 0 1440 900;"  preserveAspectRatio="xMidYMid slice">
    <style type="text/css">
        .bg-home-st1{fill:#007D39;}
        .bg-home-st2{fill:none;}
    </style>
        <g class="">
            <path class="bg-home-st1" d="M982.3,818.5h-26.9c-0.7,0-1.3,0.3-1.7,0.7l-3.6,3.5v-11.8c1.8-1.2,3.5-2.5,5.1-4c0.4,0,0.9-0.2,1.3-0.5
                c0.4-0.3,1.3-0.5,2.1-0.7c1.5-0.3,3.3-0.7,4.7-2.1c1.4-1.4,1.8-3.2,2.2-4.8c0.2-0.9,0.4-1.9,0.8-2.3c0.3-0.4,1.1-0.9,1.9-1.3
                c1.3-0.8,3-1.7,3.9-3.5c0.9-1.7,0.7-3.6,0.6-5.2c-0.1-1-0.1-1.9,0-2.5c0.2-0.5,0.8-1.2,1.4-1.9c1-1.2,2.3-2.6,2.6-4.6
                c0.3-1.9-0.4-3.6-1-5.1c-0.4-0.9-0.7-1.8-0.7-2.4s0.4-1.5,0.7-2.4c0.6-1.5,1.3-3.2,1-5.1c-0.3-2-1.6-3.4-2.6-4.6
                c-0.6-0.7-1.2-1.4-1.4-1.9c-0.2-0.6-0.1-1.5,0-2.5c0.1-1.6,0.2-3.5-0.6-5.2c-0.9-1.7-2.5-2.7-3.9-3.5c-0.8-0.4-1.6-0.9-1.9-1.3
                c-0.3-0.4-0.5-1.4-0.8-2.3c-0.4-1.6-0.8-3.4-2.2-4.8c-1.4-1.4-3.2-1.8-4.7-2.1c-0.9-0.2-1.7-0.4-2.1-0.7
                c-0.4-0.3-0.9-1.2-1.4-1.9c-0.8-1.4-1.8-3-3.5-3.9c-1.7-0.9-3.6-0.7-5.1-0.5c-0.8,0.1-1.8,0.2-2.2,0.1
                c-0.4-0.1-1.2-0.8-1.8-1.4c-1.2-1-2.6-2.4-4.5-2.7c-1.9-0.3-3.5,0.5-5,1.1c-0.8,0.4-1.6,0.8-2.1,0.8c-0.1,0-0.3,0-0.4-0.1
                c-0.5-0.1-1.1-0.4-1.7-0.7c-0.4-0.2-0.7-0.3-1.1-0.5c-0.8-0.3-1.6-0.6-2.5-0.7c-0.4,0-0.9,0-1.4,0c-1.9,0.3-3.4,1.6-4.5,2.7
                c-0.6,0.6-1.3,1.2-1.8,1.4c-0.5,0.2-1.4,0-2.2-0.1c-1.5-0.2-3.4-0.4-5.1,0.5c-1.7,0.9-2.7,2.5-3.5,3.9
                c-0.2,0.4-0.5,0.8-0.7,1.1c-0.2,0.3-0.5,0.6-0.7,0.8c-0.2,0.1-0.5,0.3-0.9,0.4c-0.4,0.1-0.8,0.2-1.2,0.3
                c-0.2,0-0.4,0.1-0.6,0.1c-1.4,0.3-2.9,0.7-4.2,1.9c-1.4,1.4-1.8,3.2-2.2,4.8c-0.2,0.9-0.4,1.9-0.8,2.3
                c-0.3,0.4-1.1,0.9-1.9,1.3c-1.3,0.8-3,1.7-3.9,3.5c-0.9,1.7-0.7,3.6-0.6,5.2c0.1,1,0.1,1.9,0,2.5c-0.2,0.5-0.8,1.2-1.4,1.9
                c-1,1.2-2.3,2.6-2.6,4.6c-0.3,1.9,0.4,3.6,1,5.1c0.4,0.9,0.7,1.8,0.7,2.4c0,0.6-0.4,1.5-0.7,2.4c-0.6,1.5-1.3,3.2-1,5.1
                c0.3,2,1.6,3.4,2.6,4.6c0.6,0.7,1.2,1.4,1.4,1.9c0.2,0.6,0.1,1.5,0,2.5c-0.1,1.6-0.2,3.5,0.6,5.2c0.9,1.7,2.5,2.7,3.9,3.5
                c0.8,0.4,1.6,0.9,1.9,1.3c0.3,0.4,0.5,1.4,0.8,2.3c0.4,1.6,0.8,3.4,2.2,4.8c1.4,1.4,3.2,1.8,4.7,2.1c0.9,0.2,1.7,0.4,2.1,0.7
                c0.1,0.1,0.2,0.1,0.3,0.2c1.8,1.8,3.8,3.3,6,4.7v9.8l-1.8-1.8c-0.5-0.5-1.1-0.7-1.7-0.7h-6.8l0,0h-21.9
                c-0.1,0-14.2,0.4-14.2,15.4V852c0,1.4,1.1,2.5,2.5,2.5s2.5-1.1,2.5-2.5l0,0v-17.9c0-9.9,8.3-10.4,9.2-10.4h21.9h5.8l23,22.3
                c0.1,0.1,0.3,0.2,0.4,0.3c0.1,0,0.1,0.1,0.2,0.1c0.1,0,0.2,0.1,0.3,0.1c0.1,0,0.1,0,0.2,0c0.1,0,0.2,0.1,0.3,0.1
                c0.1,0,0.1,0,0.2,0c0.1,0,0.2,0,0.3,0c0,0,0,0,0,0c0.1,0,0.2,0,0.3,0c0.1,0,0.1,0,0.2,0c0.1,0,0.2-0.1,0.3-0.1c0,0,0.1,0,0.1,0
                c0.1,0,0.2-0.1,0.4-0.2c0,0,0.1,0,0.1,0c0.1-0.1,0.3-0.2,0.4-0.3l23-22.4h3.9l0,0c0,0,0,0,0,0h21.8c0.9,0,9.3,0.5,9.3,10.4V852
                l0,0c0,1.4,1.1,2.5,2.5,2.5s2.5-1.1,2.5-2.5v-18.1C996.5,818.9,982.5,818.5,982.3,818.5z M894.1,789.5
                c-0.2-0.5-0.2-1.6-0.1-2.6c0.1-1.4,0.2-2.9-0.3-4.4c-0.5-1.5-1.5-2.6-2.3-3.6c-0.6-0.7-1.3-1.6-1.4-2.1
                c-0.1-0.5,0.3-1.5,0.7-2.4c0.5-1.3,1.1-2.7,1.1-4.3s-0.6-3-1.1-4.3c-0.4-0.9-0.8-1.9-0.7-2.4c0.1-0.5,0.8-1.4,1.4-2.1
                c0.9-1,1.9-2.2,2.3-3.6c0.5-1.5,0.4-3,0.3-4.4c-0.1-1-0.2-2.1,0.1-2.6c0.2-0.4,1.1-1,1.9-1.5c1.2-0.7,2.5-1.4,3.4-2.7
                c0.9-1.3,1.3-2.8,1.6-4.1c0.2-0.9,0.5-2,0.8-2.4c0.3-0.3,1.4-0.5,2.2-0.7c1.3-0.3,2.8-0.6,4.1-1.5c1.3-0.9,2-2.2,2.7-3.4
                c0.5-0.8,1-1.8,1.5-2c0.4-0.2,1.4-0.1,2.2,0c1.3,0.2,2.9,0.3,4.4-0.1c1.5-0.5,2.6-1.5,3.6-2.4c0.6-0.6,1.5-1.3,1.9-1.4
                c0.4-0.1,1.4,0.4,2.1,0.7c1.2,0.6,2.6,1.2,4.2,1.2s3-0.7,4.2-1.2c0.7-0.3,1.7-0.8,2.1-0.7c0.4,0.1,1.3,0.8,1.9,1.4
                c1,0.9,2.1,1.9,3.6,2.4c1.5,0.5,3,0.3,4.4,0.1c0.8-0.1,1.9-0.2,2.2,0c0.4,0.2,1,1.2,1.5,2c0.7,1.2,1.5,2.5,2.7,3.4
                c1.3,0.9,2.8,1.2,4.1,1.5c0.8,0.2,1.9,0.4,2.2,0.7c0.4,0.4,0.6,1.5,0.8,2.4c0.3,1.3,0.7,2.8,1.6,4.1c0.9,1.3,2.2,2,3.4,2.7
                c0.8,0.5,1.7,1,1.9,1.5c0.2,0.5,0.2,1.6,0.1,2.6c-0.1,1.4-0.2,2.9,0.3,4.4c0.5,1.5,1.5,2.6,2.3,3.6c0.6,0.7,1.3,1.6,1.4,2.1
                c0.1,0.5-0.3,1.5-0.7,2.4c-0.5,1.3-1.1,2.7-1.1,4.3s0.6,3,1.1,4.3c0.4,0.9,0.8,1.9,0.7,2.4c-0.1,0.5-0.8,1.4-1.4,2.1
                c-0.9,1-1.9,2.2-2.3,3.6c-0.5,1.5-0.4,3-0.3,4.4c0.1,1,0.2,2.1-0.1,2.6c-0.2,0.4-1.1,1-1.9,1.5c-0.2,0.1-0.5,0.3-0.7,0.4
                c1-3.4,1.6-6.9,1.6-10.6c0-6.1-1.6-12.2-4.6-17.5c0,0,0,0,0,0c0-0.1-0.1-0.2-0.2-0.2c0-0.1-0.1-0.1-0.1-0.2
                c0-0.1-0.1-0.1-0.2-0.1c-0.1-0.1-0.1-0.1-0.2-0.2c0,0,0,0,0,0c-0.3-0.2-0.7-0.8-1-1.5c-0.7-1.1-1.5-2.6-3.1-3.5
                c-1.5-0.8-3.2-0.9-4.7-1c-0.9-0.1-1.9-0.1-2.5-0.3c-0.5-0.2-1.1-0.7-1.7-1.3c-1-0.9-2.3-2-4-2.5c-1.6-0.4-3.3-0.1-4.7,0.1
                c-0.9,0.2-1.8,0.3-2.4,0.2c-0.6-0.1-1.4-0.5-2.3-0.9l-0.2-0.1c-1.1-0.6-2.5-0.2-3.2,0.8c-0.9,1-1.3,2.1-1.6,3.1
                c-0.2,0.5-0.4,1.2-0.6,1.4c-0.4,0.3-1.5,0.4-2.4,0.6c-1.3,0.2-2.7,0.4-3.9,1c-1.3,0.7-2.1,1.7-2.8,2.6c-0.5,0.6-1,1.2-1.4,1.4
                c-0.5,0.2-1.6,0.1-2.6,0c-1.3-0.1-2.7-0.2-4.1,0.1c-1.4,0.3-2.5,1.1-3.5,1.7c-0.8,0.5-1.5,1-2.1,1.1c-0.6,0.1-1.5-0.3-2.5-0.6
                c-1.1-0.4-2.3-0.7-3.6-0.8c-0.1,0-0.2,0-0.3,0c0,0-0.1,0-0.1,0c-1.3,0-2.3,1-2.5,2.2c-2,4.6-3,9.4-3,14.4
                c0,3.5,0.5,6.9,1.5,10.2C895.2,790.5,894.3,790,894.1,789.5z M899.5,780.8c0-3.9,0.7-7.7,2.2-11.3c0.2,0.1,0.5,0.2,0.8,0.2
                c1.2,0.4,2.5,0.8,3.9,0.8c0.2,0,0.5,0,0.7,0c1.8-0.2,3.2-1.1,4.3-1.9c0.7-0.5,1.4-0.9,1.9-1c0.6-0.1,1.6-0.1,2.5,0
                c1.5,0.1,3.2,0.3,4.8-0.3c1.7-0.6,2.7-1.9,3.6-2.9c0.5-0.6,0.9-1.1,1.3-1.3c0.5-0.2,1.4-0.4,2.3-0.5c1.5-0.2,3.2-0.5,4.6-1.5
                c1.5-1.1,2-2.6,2.4-3.8c0.6,0.2,1.1,0.4,1.8,0.5c1.4,0.2,2.8,0,4.1-0.3c1-0.2,1.9-0.4,2.5-0.2c0.6,0.2,1.2,0.7,1.9,1.4
                c0.9,0.8,1.9,1.7,3.2,2.2c1.3,0.5,2.8,0.6,4,0.7c1,0.1,2.1,0.1,2.6,0.4c0.4,0.2,0.7,0.9,1.1,1.5c0.5,0.8,1,1.7,1.9,2.5
                c2.5,4.5,3.8,9.6,3.8,14.7c0,17.1-13.9,31-31,31C913.4,811.7,899.5,797.8,899.5,780.8z M930.4,816.7c5.2,0,10.1-1.1,14.6-3.1
                v14l-13.4,13.1L916.5,826v-12.1C920.8,815.7,925.5,816.7,930.4,816.7z"/>
        </g>
        <g class="">
            <path class="bg-home-st1" d="M1414.5,812.2h-21.4c0-0.1,0.1-0.3,0.1-0.4c3-9.6,6.7-23.3,7.5-33.7l0.1-1.6c0-0.1,0-0.1,0-0.2
                c0-0.7,0.1-1.4,0.1-2.1c0-10.1-3.9-19.7-11.1-26.8c-7.2-7.2-16.7-11.1-26.8-11.1c-17.5,0-32.2,11.9-36.6,27.9
                c0,0.1-0.1,0.1-0.1,0.2c-0.3,1.3-0.6,2.6-0.8,3.8c0,0.1,0,0.3-0.1,0.4c0,0.2-0.1,0.4-0.1,0.6c-0.2,1.6-0.3,3.3-0.3,5
                c0,0,0,0,0,0l0,0c0,0,0,0,0,0c0,0,0,0.1,0,0.1c0,0.5,0,1,0,1.4c0,0.3,0,0.7,0.1,1c0,0,0,0.1,0,0.1c0,0.5,0.1,0.9,0.1,1.4
                c0.7,8.2,3.5,21.4,5.7,31.1c0.2,1,0.5,2,0.8,3h-20.4c-0.1,0-14.2,0.4-14.2,15.4v17.9c0,1.4,1.1,2.5,2.5,2.5
                c1.4,0,2.5-1.1,2.5-2.5v0v-17.9c0-9.9,8.3-10.4,9.2-10.4h22.5c3.7,6.9,9.9,12.3,17.5,15l0.3,0.1c3.5,1.2,7.1,1.9,10.8,1.9
                c4,0,8.1-0.8,11.9-2.3c7.2-2.9,13-8.2,16.5-14.9l23.5,0c0.9,0,9.3,0.5,9.3,10.4v18.1v0c0,1.4,1.1,2.5,2.5,2.5s2.5-1.1,2.5-2.5
                v-18.1C1428.7,812.6,1414.7,812.2,1414.5,812.2z M1353.5,827.9l-0.3-0.1c-8.7-3.1-15.2-10.4-17.3-19.4
                c-2.2-9.5-4.9-22.5-5.6-30.4c0-0.3-0.1-0.5-0.1-0.8c3.2,5.9,8.3,12.4,15.3,16.6c1,0.6,2.3,0.4,3.1-0.5l2.2-2.4
                c1-1.1,2.5-1.8,4-1.8h16.2c1.6,0,3,0.6,4,1.8l2.2,2.4c0.8,0.9,2.1,1.1,3.1,0.5c7-4.2,12.1-10.6,15.3-16.6l0,0.6
                c-0.8,9.9-4.4,23.2-7.3,32.6c-2.4,7.9-8.2,14.1-15.8,17.2C1366.5,830,1359.7,830.1,1353.5,827.9z M1363,741.4
                c8.8,0,17.1,3.4,23.3,9.6c4.1,4.1,6.9,9,8.4,14.5c0,0.6-0.3,2.1-1.1,4.4c-2.1,5.8-6.8,13.4-14,18.4l-0.8-0.8
                c-2-2.2-4.8-3.4-7.7-3.4h-16.2c-2.9,0-5.8,1.3-7.7,3.4l-0.8,0.8c-7.2-5-11.9-12.6-14-18.4c-0.7-2-1-3.5-1.1-4.3
                C1335.1,751.6,1347.9,741.4,1363,741.4z"/>
        </g>
        <g class="">
            <path class="bg-home-st1" d="M1119.9,125.1H1093c-0.1,0-0.1,0-0.2,0c-0.1,0-0.2,0-0.3,0c-0.1,0-0.1,0-0.2,0.1c-0.1,0-0.2,0-0.3,0.1
                c-0.1,0-0.1,0.1-0.2,0.1c-0.1,0-0.1,0.1-0.2,0.1c-0.1,0.1-0.3,0.2-0.4,0.3l-3.2,3.1v-11.4c2.2-1.4,4.2-3,6-4.9
                c6.6-6.6,10.3-15.3,10.5-24.5c0.3,0.3,0.5,0.6,0.7,0.9c0.5,0.7,1.2,1.1,2.1,1.1c0.2,0,0.4,0,0.7-0.1c1-0.3,1.8-1.2,1.8-2.2
                c0.6-7.5-4-17.9-11.4-25.8c-8.1-8.7-18.5-13.5-29.4-13.5c-12.4,0-16.5,3.4-18.2,7.6c-10.8,6.2-18.1,17.9-18.1,31.2
                c0,9.6,3.7,18.6,10.5,25.4c1.9,1.9,4,3.6,6.2,5v10.6l-2.3-2.2c-0.5-0.5-1.1-0.7-1.7-0.7h-28.7c0,0,0,0,0,0h0
                c-0.1,0-14.2,0.4-14.2,15.4v17.9c0,1.4,1.1,2.5,2.5,2.5l126.5,0c0.7,0,1.3-0.3,1.8-0.7c0.5-0.5,0.7-1.1,0.7-1.8v-18.1
                C1134.1,125.5,1120.1,125.1,1119.9,125.1z M1129.1,156.1l-121.5,0v-15.4c0-9.9,8.3-10.4,9.2-10.4h27.7l23,22.3
                c0.1,0.1,0.3,0.2,0.4,0.3c0.1,0,0.1,0.1,0.2,0.1c0.1,0,0.2,0.1,0.3,0.1c0.1,0,0.1,0,0.2,0c0.1,0,0.2,0.1,0.3,0.1
                c0.1,0,0.1,0,0.2,0c0.1,0,0.2,0,0.3,0c0,0,0,0,0,0c0.1,0,0.2,0,0.3,0c0.1,0,0.1,0,0.2,0c0.1,0,0.2-0.1,0.3-0.1
                c0.1,0,0.1,0,0.2,0c0.1,0,0.2-0.1,0.3-0.2c0,0,0.1,0,0.1-0.1c0.1-0.1,0.3-0.2,0.4-0.3l23-22.4l25.8,0c0.9,0,9.3,0.5,9.3,10.4
                V156.1z M1069.2,53.4c9.4,0,18.6,4.2,25.7,11.9c4.6,4.9,7.5,10.3,8.9,14.8c-3-2.8-5.9-5-6-5.1c-0.4-0.3-1-0.5-1.5-0.5
                c-0.4,0-0.8,0.1-1.2,0.3c-0.9,0.4-1.4,1.4-1.3,2.3c0,0.1,0,0.2,0,0.4c-0.6-0.6-1.1-1.2-1.7-1.8c-10.7-9.6-32.6-11.1-35.8-11.3
                c-0.6-0.2-2.1-1.2-1.5-4.1C1055.6,56.9,1056.4,53.4,1069.2,53.4z M1049.8,62.8c0.5,3.8,3.2,5.9,5.4,6.5c0.2,0,0.4,0.1,0.6,0.1
                c0.2,0,23,1.1,33,10c1.8,1.7,3.9,4.5,3.9,4.6c0.5,0.7,1.3,1.1,2.2,1.1c0.9,0,1.6-0.5,2.1-1.3c0.1-0.2,0.6-1.1,1-2.2
                c0.5,0.4,1,0.9,1.5,1.3c0.2,1.4,0.3,2.9,0.3,4.3c0,8.3-3.2,16-9.1,21.9c-5.8,5.8-13.6,9.1-21.9,9.1s-16-3.2-21.9-9.1
                c-5.8-5.8-9.1-13.6-9.1-21.9C1037.8,77.3,1042.5,68.4,1049.8,62.8z M1068.7,123.1C1068.7,123.1,1068.7,123.1,1068.7,123.1
                c5,0,9.9-1,14.4-3v13.6l-13.9,13.5l-14.7-14.2v-12.8C1059,122.1,1063.8,123.1,1068.7,123.1z"/>
        </g>
        <g class="">
            <path class="bg-home-st1" d="M1349.3,152.3h-8.3c1.1-6.3,1.9-12.5,2.2-18.6c0.8-14.5-0.3-34.8-10.1-49.7c-7.9-11.9-19.7-18-35.2-18
                c0,0,0,0,0,0s0,0,0,0c-0.9,0-1.8,0-2.7,0.1c-0.3,0-0.7,0-1,0.1c-0.5,0-1.1,0.1-1.6,0.1c-0.4,0-0.8,0.1-1.2,0.1
                c-0.4,0.1-0.9,0.1-1.3,0.2c-0.5,0.1-0.9,0.2-1.4,0.2c-0.4,0.1-0.7,0.1-1.1,0.2c-0.5,0.1-1,0.2-1.5,0.3
                c-0.3,0.1-0.6,0.1-0.9,0.2c-0.5,0.1-1,0.3-1.5,0.4c-0.2,0.1-0.5,0.1-0.7,0.2c-0.5,0.2-1.1,0.4-1.6,0.6
                c-0.2,0.1-0.3,0.1-0.5,0.2c-0.6,0.2-1.2,0.5-1.7,0.7c-0.1,0-0.1,0.1-0.2,0.1c-3.3,1.5-6.4,3.5-9.1,5.9
                c-0.1,0.1-0.1,0.1-0.2,0.1c-0.4,0.4-0.9,0.8-1.3,1.2c-0.1,0.1-0.3,0.3-0.4,0.4c-0.4,0.4-0.7,0.8-1.1,1.2
                c-0.2,0.2-0.4,0.4-0.6,0.7c-0.3,0.3-0.6,0.7-0.9,1.1c-0.1,0.1-0.2,0.3-0.4,0.4c0,0-0.1,0.1-0.1,0.1c-0.8,1-1.5,2-2.2,3.1
                c-9.8,14.9-10.9,35.2-10.1,49.7c0.3,6.1,1.1,12.4,2.2,18.8h-8.6c-0.1,0-14.2,0.4-14.2,15.4v17.9c0,1.4,1.1,2.5,2.5,2.5
                s2.5-1.1,2.5-2.5l0,0v-17.9c0-9.9,8.3-10.4,9.2-10.4h9.5c2.1,9.8,5,19.5,8.6,28.3c0.1,0.2,0.2,0.4,0.3,0.6c0,0,0,0.1,0,0.1
                c0,1.4,1.1,2.5,2.5,2.5l0.3,0c0,0,0.1,0,0.1,0c0.9,0,2.5,0,4.2,0c4.1,0,9.4,0,9.4,0c1.4,0,2.5-1.1,2.5-2.5v-0.8v-18.9
                l13.3,12.9c1,0.9,2.5,0.9,3.5,0l11.8-11.5v17.5v0.8c0,1.4,1.1,2.5,2.5,2.5h13.7c1,0,1.9-0.6,2.3-1.5c0.2-0.6,0.5-1.2,0.7-1.8
                c3.6-8.9,6.6-18.6,8.6-28.5h4.8c0,0,0,0,0,0l4.4,0c0.4,0,9.3,0.3,9.3,10.4v7.9v10.2l0,0c0,1.4,1.1,2.5,2.5,2.5
                c1.4,0,2.5-1.1,2.5-2.5v-10.2v-7.9C1363.5,152.7,1349.5,152.4,1349.3,152.3z M1298.7,174.5l-15.1-14.6v-10.4
                c4.4,1.8,9.2,2.8,14.2,2.8c5.1,0,9.9-1,14.3-2.8v11.9L1298.7,174.5z M1283.5,99.4c9.8,12,21.9,19.1,36.3,21.2
                c0.1,0,0.2,0,0.3,0c1,0.1,2,0.3,2.9,0.4c0.3,0,0.6,0,0.8,0.1c0.8,0.1,1.6,0.1,2.5,0.2c0.5,0,1,0,1.5,0c0.5,0,1,0,1.4,0
                c0.1,0,0.3,0,0.4,0c0.1,0,0.2,0,0.3,0c-3.2,14.8-16.4,26-32.2,26c-5.5,0-10.7-1.4-15.2-3.7c0,0-0.1-0.1-0.1-0.1
                c-11.6-7-17.4-16.8-17.4-29.1C1265,108.6,1270.6,104.1,1283.5,99.4z M1317.2,184.1v-37c7.4-4.1,17.4-15.5,18.4-28.2
                c0.1-0.7-0.2-1.4-0.7-1.9c-0.5-0.5-1.2-0.8-1.9-0.8l-0.1,0c0,0,0,0-0.1,0l-0.2,0c-1.1,0.1-2.5,0.1-4.3,0.1c-0.2,0-0.4,0-0.6,0
                l0,0c-8.8-0.1-24.3-2.2-38.1-17.5l0.2,0.1c-1.1-1.3-2.3-2.6-3.4-4c-0.5-0.7-1.3-1-2.1-1c-0.4,0-0.8,0.1-1.2,0.3
                c-11.6,4-23.2,9.5-23.2,20.1c0,13.7,6.3,24.6,18.6,32.6v37.1c-2.7,0-6.9,0-9.5,0c-12.5-30.3-17.5-74.2-2.2-97.3
                c0.8-1.2,1.6-2.3,2.5-3.3c0.2-0.2,0.4-0.4,0.6-0.7c0.3-0.3,0.6-0.7,0.9-1c0.2-0.2,0.4-0.4,0.6-0.6c0.3-0.3,0.6-0.6,1-0.9
                c0.2-0.2,0.4-0.4,0.6-0.5c0.4-0.3,0.7-0.6,1.1-0.9c0.2-0.1,0.4-0.3,0.5-0.4c0.4-0.3,0.9-0.7,1.3-1c0.1-0.1,0.2-0.2,0.4-0.3
                c0.6-0.4,1.1-0.8,1.7-1.1c0.2-0.1,0.4-0.2,0.5-0.3c0.4-0.2,0.8-0.5,1.3-0.7c0.3-0.1,0.5-0.3,0.8-0.4c0.4-0.2,0.7-0.4,1.1-0.5
                c0.3-0.1,0.6-0.2,0.9-0.4c0.4-0.1,0.7-0.3,1.1-0.4c0.3-0.1,0.6-0.2,0.9-0.3c0.4-0.1,0.7-0.2,1.1-0.3c0.3-0.1,0.6-0.2,1-0.3
                c0.4-0.1,0.8-0.2,1.1-0.3c0.3-0.1,0.7-0.2,1-0.2c0.4-0.1,0.8-0.2,1.2-0.2c0.3-0.1,0.7-0.1,1-0.2c0.4-0.1,0.9-0.1,1.3-0.2
                c0.3,0,0.6-0.1,1-0.1c0.5,0,1-0.1,1.5-0.1c0.3,0,0.5,0,0.8-0.1c0.8,0,1.6-0.1,2.4-0.1c13.7,0,24.2,5.3,31.1,15.7
                c15.3,23.1,10.3,67-2.2,97.3H1317.2z"/>
        </g>
        <g class="">
            <path class="bg-home-st1" d="M1264.1,350.7h-8.3c1.1-6.3,1.9-12.5,2.2-18.6c0.8-14.5-0.3-34.8-10.1-49.7c-7.9-11.9-19.7-18-35.2-18
                c0,0,0,0,0,0s0,0,0,0c-0.9,0-1.8,0-2.7,0.1c-0.3,0-0.7,0-1,0.1c-0.5,0-1.1,0.1-1.6,0.1c-0.4,0-0.8,0.1-1.2,0.1
                c-0.4,0.1-0.9,0.1-1.3,0.2c-0.5,0.1-0.9,0.2-1.4,0.2c-0.4,0.1-0.7,0.1-1.1,0.2c-0.5,0.1-1,0.2-1.5,0.3
                c-0.3,0.1-0.6,0.1-0.9,0.2c-0.5,0.1-1,0.3-1.5,0.4c-0.2,0.1-0.5,0.1-0.7,0.2c-0.5,0.2-1.1,0.4-1.6,0.6
                c-0.2,0.1-0.3,0.1-0.5,0.2c-0.6,0.2-1.2,0.5-1.7,0.7c-0.1,0-0.1,0.1-0.2,0.1c-3.3,1.5-6.4,3.5-9.1,5.9
                c-0.1,0.1-0.1,0.1-0.2,0.1c-0.4,0.4-0.9,0.8-1.3,1.2c-0.1,0.1-0.3,0.3-0.4,0.4c-0.4,0.4-0.7,0.8-1.1,1.2
                c-0.2,0.2-0.4,0.4-0.6,0.7c-0.3,0.3-0.6,0.7-0.9,1.1c-0.1,0.1-0.2,0.3-0.4,0.4c0,0-0.1,0.1-0.1,0.1c-0.8,1-1.5,2-2.2,3.1
                c-9.8,14.9-10.9,35.2-10.1,49.7c0.3,6.1,1.1,12.4,2.2,18.8h-8.6c-0.1,0-14.2,0.4-14.2,15.4v17.9c0,1.4,1.1,2.5,2.5,2.5
                s2.5-1.1,2.5-2.5l0,0v-17.9c0-9.9,8.3-10.4,9.2-10.4h9.5c2.1,9.8,5,19.5,8.6,28.3c0.1,0.2,0.2,0.4,0.3,0.6c0,0,0,0.1,0,0.1
                c0,1.4,1.1,2.5,2.5,2.5l0.3,0c0,0,0.1,0,0.1,0c0.9,0,2.5,0,4.2,0c4.1,0,9.4,0,9.4,0c1.4,0,2.5-1.1,2.5-2.5v-0.8v-18.9
                l13.3,12.9c1,0.9,2.5,0.9,3.5,0l11.8-11.5v17.5v0.8c0,1.4,1.1,2.5,2.5,2.5h13.7c1,0,1.9-0.6,2.3-1.5c0.2-0.6,0.5-1.2,0.7-1.8
                c3.6-8.9,6.6-18.6,8.6-28.5h4.8c0,0,0,0,0,0l4.4,0c0.4,0,9.3,0.3,9.3,10.4v7.9v10.2l0,0c0,1.4,1.1,2.5,2.5,2.5
                c1.4,0,2.5-1.1,2.5-2.5V374v-7.9C1278.3,351.1,1264.3,350.7,1264.1,350.7z M1213.5,372.9l-15.1-14.6V348
                c4.4,1.8,9.2,2.8,14.2,2.8c5.1,0,9.9-1,14.3-2.8v11.9L1213.5,372.9z M1198.4,297.8c9.8,12,21.9,19.1,36.3,21.2
                c0.1,0,0.2,0,0.3,0c1,0.1,2,0.3,2.9,0.4c0.3,0,0.6,0,0.8,0.1c0.8,0.1,1.6,0.1,2.5,0.2c0.5,0,1,0,1.5,0c0.5,0,1,0,1.4,0
                c0.1,0,0.3,0,0.4,0c0.1,0,0.2,0,0.3,0c-3.2,14.8-16.4,26-32.2,26c-5.5,0-10.7-1.4-15.2-3.7c0,0-0.1-0.1-0.1-0.1
                c-11.6-7-17.4-16.8-17.4-29.1C1179.8,307,1185.4,302.5,1198.4,297.8z M1232,382.5v-37c7.4-4.1,17.4-15.5,18.4-28.2
                c0.1-0.7-0.2-1.4-0.7-1.9c-0.5-0.5-1.2-0.8-1.9-0.8l-0.1,0c0,0,0,0-0.1,0l-0.2,0c-1.1,0.1-2.5,0.1-4.3,0.1c-0.2,0-0.4,0-0.6,0
                l0,0c-8.8-0.1-24.3-2.2-38.1-17.5l0.2,0.1c-1.1-1.3-2.3-2.6-3.4-4c-0.5-0.7-1.3-1-2.1-1c-0.4,0-0.8,0.1-1.2,0.3
                c-11.6,4-23.2,9.5-23.2,20.1c0,13.7,6.3,24.6,18.6,32.6v37.1c-2.7,0-6.9,0-9.5,0c-12.5-30.3-17.5-74.2-2.2-97.3
                c0.8-1.2,1.6-2.3,2.5-3.3c0.2-0.2,0.4-0.4,0.6-0.7c0.3-0.3,0.6-0.7,0.9-1c0.2-0.2,0.4-0.4,0.6-0.6c0.3-0.3,0.6-0.6,1-0.9
                c0.2-0.2,0.4-0.4,0.6-0.5c0.4-0.3,0.7-0.6,1.1-0.9c0.2-0.1,0.4-0.3,0.5-0.4c0.4-0.3,0.9-0.7,1.3-1c0.1-0.1,0.2-0.2,0.4-0.3
                c0.6-0.4,1.1-0.8,1.7-1.1c0.2-0.1,0.4-0.2,0.5-0.3c0.4-0.2,0.8-0.5,1.3-0.7c0.3-0.1,0.5-0.3,0.8-0.4c0.4-0.2,0.7-0.4,1.1-0.5
                c0.3-0.1,0.6-0.2,0.9-0.4c0.4-0.1,0.7-0.3,1.1-0.4c0.3-0.1,0.6-0.2,0.9-0.3c0.4-0.1,0.7-0.2,1.1-0.3c0.3-0.1,0.6-0.2,1-0.3
                c0.4-0.1,0.8-0.2,1.1-0.3c0.3-0.1,0.7-0.2,1-0.2c0.4-0.1,0.8-0.2,1.2-0.2c0.3-0.1,0.7-0.1,1-0.2c0.4-0.1,0.9-0.1,1.3-0.2
                c0.3,0,0.6-0.1,1-0.1c0.5,0,1-0.1,1.5-0.1c0.3,0,0.5,0,0.8-0.1c0.8,0,1.6-0.1,2.4-0.1c13.7,0,24.2,5.3,31.1,15.7
                c15.3,23.1,10.3,67-2.2,97.3H1232z"/>
        </g>
        <g class="">
            <path class="bg-home-st1" d="M1369.5,520.7h-21.4c0.3-0.9,0.6-1.8,0.8-2.7c0.6-1.9,1.2-4,1.8-6.1c0-0.1,0-0.1,0-0.1c0,0,0,0,0,0
                c2.3-8.2,4.4-17.5,5-25.1l0.1-1.6c0,0,0-0.1,0-0.1c0-0.7,0.1-1.4,0.1-2.1c0,0,0,0,0,0l0,0c0,0,0,0,0,0
                c0-15.5-9.3-28.8-22.7-34.7c-2-3.4-8.6-5-15.3-5c-6.6,0-13.3,1.6-15.3,5c-2.5,1.1-4.8,2.4-7,4c-0.1,0-0.2,0.1-0.2,0.1
                c-1,0.8-2,1.6-2.9,2.4c-0.1,0.1-0.1,0.1-0.2,0.2c-1.7,1.6-3.3,3.3-4.7,5.2c-0.1,0.1-0.1,0.2-0.2,0.3c-1,1.3-1.8,2.7-2.6,4.1
                c-0.1,0.2-0.2,0.3-0.3,0.5c-0.2,0.4-0.4,0.8-0.6,1.2c-0.1,0.2-0.2,0.5-0.4,0.7c-0.1,0.3-0.3,0.6-0.4,0.9c0,0,0,0.1,0,0.1
                c-0.7,1.6-1.3,3.3-1.7,5c0,0.1-0.1,0.1-0.1,0.2c-0.3,1.3-0.6,2.6-0.8,3.8c0,0.1,0,0.3-0.1,0.4c0,0.2-0.1,0.4-0.1,0.6
                c-0.2,1.6-0.3,3.3-0.3,4.9c0,0,0,0,0,0c0,0,0,0,0,0c0,0,0,0,0,0c0,0,0,0.1,0,0.1c0,0.5,0,1,0,1.4c0,0.3,0,0.7,0.1,1
                c0,0,0,0.1,0,0.1c0,0.5,0.1,0.9,0.1,1.4c0.7,8.2,3.5,21.4,5.7,31.1c0.2,1,0.5,2,0.8,3h-12.2c0,0,0,0,0,0l-8.2,0
                c-0.1,0-9.4,0.3-12.9,8.4c-0.8,1.9-1.3,4.2-1.3,7v17.9c0,1.4,1.1,2.5,2.5,2.5s2.5-1.1,2.5-2.5l0,0v-8.3c0,0,0,0,0-0.1v-9.6
                c0-1.8,0.3-3.4,0.8-4.6c0.1-0.1,0.1-0.3,0.2-0.4c0.1-0.3,0.2-0.5,0.4-0.8c2.4-4.3,7.2-4.6,7.9-4.6h22.5
                c3.7,6.9,9.9,12.3,17.5,15l0.3,0.1c3.3,1.2,6.8,1.8,10.3,1.9c0,0,0,0,0.1,0c0.1,0,0.2,0,0.3,0c0,0,0.1,0,0.1,0
                c0.2,0,0.5,0,0.7,0c0.2,0,0.5,0,0.7,0c0.2,0,0.5,0,0.7,0c0.2,0,0.5,0,0.7-0.1c0.2,0,0.5,0,0.7-0.1c0.3,0,0.5-0.1,0.8-0.1
                c0.2,0,0.5-0.1,0.7-0.1c0.2,0,0.5-0.1,0.7-0.1c0.2,0,0.5-0.1,0.7-0.1c0.2,0,0.5-0.1,0.7-0.1c0.2-0.1,0.5-0.1,0.7-0.2
                c0.2-0.1,0.4-0.1,0.6-0.2c0.3-0.1,0.5-0.1,0.8-0.2c0.2-0.1,0.4-0.1,0.5-0.2c0.3-0.1,0.6-0.2,0.9-0.3c0,0,0.1,0,0.1,0l0.3-0.1
                c0.1,0,0.2-0.1,0.4-0.1c0.1-0.1,0.3-0.1,0.4-0.2c0.1,0,0.2-0.1,0.2-0.1c3.7-1.5,7.1-3.7,9.9-6.4c0.1-0.1,0.2-0.2,0.4-0.3
                c0.1-0.1,0.2-0.2,0.4-0.4c2.2-2.3,4.1-4.9,5.6-7.7l23.5,0c0.9,0,9.3,0.5,9.3,10.4v18.1l0,0c0,1.4,1.1,2.5,2.5,2.5
                c1.4,0,2.5-1.1,2.5-2.5v-18.1C1383.7,521.1,1369.7,520.7,1369.5,520.7z M1290.9,516.8c-2.2-9.5-4.9-22.5-5.6-30.4
                c0-0.3-0.1-0.5-0.1-0.8c3.2,5.9,8.3,12.4,15.3,16.6c1,0.6,2.3,0.4,3.1-0.5l2.2-2.4c1-1.1,2.5-1.8,4-1.8h16.2c1.6,0,3,0.6,4,1.8
                l2.2,2.4c0.8,0.9,2.1,1.1,3.1,0.5c7-4.2,12.1-10.6,15.3-16.6l0,0.6c-0.6,7.2-2.6,16.2-4.8,24.2c-0.2,0.7-1.3,4.3-1.8,6.3
                c-2.5,9.4-8.7,16.5-17.1,19.5l-0.3,0.1c-2.2,0.8-4.4,1.3-6.7,1.5l0,0c-0.4,0-0.7,0.1-1.1,0.1c-0.4,0-0.8,0-1.2,0
                c-3.1,0-6.2-0.5-9.1-1.6l-0.3-0.1C1299.4,533.1,1292.9,525.9,1290.9,516.8z M1348.6,478.4c-2.1,5.8-6.8,13.4-14,18.4l-0.8-0.8
                c-2-2.2-4.8-3.4-7.7-3.4h-16.2c-2.9,0-5.8,1.3-7.7,3.4l-0.8,0.8c-7.2-5-11.9-12.6-14-18.4c-0.7-2-1-3.5-1.1-4.3
                c0.5-1.8,1.1-3.5,1.9-5.1c0.1-0.2,0.2-0.4,0.3-0.6c0.2-0.4,0.4-0.7,0.6-1.1c0.1-0.1,0.1-0.3,0.2-0.4c0.7-1.3,1.5-2.5,2.3-3.6
                c0.1-0.1,0.1-0.2,0.2-0.2c1.2-1.6,2.6-3.1,4.1-4.5c0.1,0,0.1-0.1,0.2-0.1c2.1-1.9,4.5-3.6,7.1-4.9c2.2,3.5,7.8,5.8,14.9,5.8
                c7,0,12.7-2.4,14.9-5.8c8.1,4.2,14.3,11.6,16.8,20.6C1349.6,474.7,1349.4,476.1,1348.6,478.4z M1307.1,450.5
                c0.7-0.8,4.5-2.4,10.8-2.4s10.1,1.6,10.8,2.4c-0.3,1.5-4.4,3.8-10.8,3.8C1311.5,454.3,1307.5,451.9,1307.1,450.5z"/>
        </g>
        <g class="">
            <path class="bg-home-st2" d="M1135.6,624.6c9.6-0.1,16.5,1.2,24,3.7c-2-3.4-3.1-3.6-3.1-3.6l-0.3,0l-26.3-3.8c-2.3-0.1-6-1-9.6-1.9
                c-1.4-0.4-2.9-0.8-4.1-1l-4.8,10.8C1119.2,626.1,1126.2,624.6,1135.6,624.6L1135.6,624.6z"/>
            <path class="bg-home-st2" d="M1111.6,697.4c-0.7-0.2-1.4-0.5-2.1-0.8l-3,6.8c3,1.2,6,2.2,9.1,3c5.1,1.3,10.3,2.2,15.6,2.5l-4.6-7.9
                C1121.6,700.3,1116.5,699.1,1111.6,697.4z"/>
            <path class="bg-home-st2" d="M1167.3,664.6c0.2-0.6,0.3-1.2,0.5-1.8c0.6-2.4,0.9-5,0.9-7.6c0-2.8-0.4-5.7-1.1-8.4
                c-0.1-0.2-0.1-0.4-0.1-0.6h-0.1c-1.4-4.7-3.7-9-6.9-12.6c-8-2.8-14.9-4.3-24.8-4.2c-9.8,0.1-16.8,1.7-25.2,4.8
                c-2.9,3.5-5.1,7.5-6.4,12h-0.1c0,0.2,0,0.4-0.1,0.6c-0.7,2.7-1.1,5.6-1.1,8.5c0,3.2,0.5,6.3,1.3,9.4
                c4.1,13.9,17.1,23.6,31.6,23.6C1150.2,688.2,1163.2,678.5,1167.3,664.6z"/>
            <path class="bg-home-st2" d="M1163,699.3l-0.4-0.9l-0.8-1.9c-0.1,0-0.2,0.1-0.2,0.1c-0.6,0.2-1.2,0.4-1.8,0.7c-0.3,0.1-0.6,0.2-0.9,0.3
                c-0.4,0.1-0.8,0.3-1.2,0.4c-0.3,0.1-0.6,0.2-1,0.3c-0.4,0.1-0.7,0.2-1.1,0.3c-0.3,0.1-0.7,0.2-1,0.3c-0.4,0.1-0.7,0.2-1.1,0.3
                c-0.3,0.1-0.7,0.2-1,0.3c-0.4,0.1-0.7,0.2-1.1,0.3c-0.3,0.1-0.7,0.2-1,0.2c-0.4,0.1-0.7,0.2-1.1,0.2c-0.3,0.1-0.7,0.1-1,0.2
                c-0.4,0.1-0.7,0.1-1.1,0.2c-0.3,0.1-0.7,0.1-1,0.2c-0.2,0-0.4,0.1-0.6,0.1c0,0-0.1,0-0.1,0c-0.3,0-0.7,0.1-1,0.1l-4.6,7.9
                c2.1-0.1,4.2-0.3,6.3-0.6c6.3-0.9,12.4-2.5,18.4-4.8L1163,699.3L1163,699.3z"/>
            <path class="bg-home-st1" d="M1187.2,702.5h-17.4l-2.2-5.2l-0.4-0.9l-1.8-4.1c0,0,0,0,0,0l-1-2.3l-2.3,1c-0.7,0.3-1.5,0.6-2.2,0.9
                c-0.2,0.1-0.5,0.2-0.8,0.3c-0.5,0.2-1,0.4-1.5,0.5c-0.3,0.1-0.6,0.2-0.9,0.3c-0.4,0.1-0.9,0.3-1.3,0.4
                c-0.2,0.1-0.4,0.1-0.5,0.2v-5.8c4.1-2.5,7.8-5.7,10.7-9.5c0.1-0.1,0.1-0.1,0.2-0.2c0.2-0.2,0.4-0.5,0.5-0.7
                c0.2-0.2,0.3-0.5,0.5-0.7c0.1-0.2,0.2-0.4,0.4-0.5c0.2-0.4,0.5-0.7,0.7-1.1c0.1-0.1,0.1-0.2,0.2-0.3c1.6-2.7,3-5.7,3.9-8.8
                c0.2-0.6,0.4-1.3,0.5-2c0.1-0.3,0.1-0.6,0.2-0.9c0-0.1,0.1-0.3,0.1-0.4c0.1-0.5,0.2-1,0.3-1.4c0-0.2,0.1-0.5,0.1-0.7
                c0.1-0.4,0.1-0.8,0.2-1.2c0-0.4,0.1-0.8,0.1-1.1c0-0.3,0-0.6,0.1-0.9c0-0.7,0.1-1.4,0.1-2.1c0,0,0,0,0,0v0c0-0.8,0-1.5-0.1-2.3
                c0-0.2,0-0.4,0-0.5c0-0.6-0.1-1.2-0.2-1.8c0-0.2,0-0.3-0.1-0.5c-0.1-0.7-0.2-1.5-0.4-2.2c0,0,0,0,0,0c-0.8-4-2.2-7.8-4.2-11.3
                l0.2,0.1l-2.3-5.2c-3.5-7.9-6.5-11.5-9.9-11.6l-26.4-3.8l-0.3,0c-1.6,0-5.5-1-8.6-1.8c-2.7-0.7-5-1.3-6.5-1.4l-1.7-0.2
                l-10.8,24.1c-1.5,2.7-2.7,5.5-3.5,8.5c0,0.1-0.1,0.1-0.1,0.2c-0.3,1.1-0.5,2.2-0.7,3.4c-0.1,0.3-0.1,0.6-0.1,0.9
                c-0.1,0.4-0.1,0.7-0.1,1.1c0,0.4-0.1,0.8-0.1,1.3c0,0.3-0.1,0.6-0.1,0.9c0,0.7-0.1,1.4-0.1,2.2c0,0,0,0,0,0c0,0,0,0,0,0
                c0,0,0,0,0,0c0,0.8,0,1.6,0.1,2.5c0,0.2,0,0.4,0,0.6c0.1,0.8,0.1,1.5,0.2,2.2c0,0.1,0,0.1,0,0.2c0.1,0.8,0.3,1.6,0.4,2.4
                c0,0.1,0.1,0.3,0.1,0.4c0.2,0.8,0.4,1.5,0.6,2.3c0,0,0,0,0,0.1c0,0,0,0,0,0c0.1,0.4,0.2,0.8,0.4,1.2c0,0.1,0.1,0.3,0.1,0.4
                c0.1,0.4,0.3,0.8,0.4,1.2c0,0.1,0.1,0.2,0.1,0.2c1.2,3.2,2.9,6.2,5,8.9c0,0,0,0.1,0.1,0.1c0.4,0.5,0.7,0.9,1.1,1.4
                c0.1,0.1,0.1,0.1,0.2,0.2c0.4,0.4,0.7,0.8,1.1,1.3c0.1,0.1,0.1,0.1,0.2,0.2c0.3,0.3,0.6,0.7,0.9,1c0.1,0.1,0.2,0.2,0.3,0.3
                c0,0,0,0,0,0c2.2,2.2,4.6,4,7.2,5.6v5.7c-2.4-0.7-4.8-1.6-7.2-2.6l-2.3-1l-1,2.3c0,0,0,0,0,0l-4.5,10.3l-17.3,0
                c-0.1,0-14.2,0.4-14.2,15.4v12.6c0,1.4,1.1,2.5,2.5,2.5c1.4,0,2.5-1.1,2.5-2.5v-12.6c0-9.9,8.3-10.4,9.2-10.4h19.6
                c0.7,0.3,1.5,0.6,2.3,0.9c0.4,0.2,0.8,0.3,1.2,0.4c0.9,0.3,1.7,0.6,2.6,0.9c0.5,0.2,1,0.3,1.5,0.5c0.8,0.2,1.6,0.5,2.4,0.7
                c0.5,0.1,1.1,0.3,1.6,0.4c0.8,0.2,1.6,0.4,2.4,0.6c0.5,0.1,1.1,0.2,1.6,0.3c0.8,0.2,1.6,0.3,2.4,0.4c0.5,0.1,1,0.2,1.5,0.3
                c0.9,0.1,1.8,0.2,2.7,0.3c0.4,0.1,0.9,0.1,1.3,0.2c1.2,0.1,2.5,0.2,3.7,0.3c0.1,0,0.2,0,0.3,0c0,0,0,0,0,0l-0.1,0.1h4.3h0h4.3
                l-0.1-0.1c0,0,0,0,0,0c0.1,0,0.2,0,0.3,0c1.2-0.1,2.5-0.2,3.7-0.3c0.5,0,0.9-0.1,1.4-0.2c0.9-0.1,1.8-0.2,2.7-0.3
                c0.5-0.1,1-0.2,1.6-0.3c0.8-0.1,1.6-0.3,2.4-0.4c0.5-0.1,1.1-0.2,1.6-0.3c0.8-0.2,1.6-0.4,2.4-0.6c0.5-0.1,1.1-0.3,1.6-0.4
                c0.8-0.2,1.6-0.5,2.4-0.7c0.5-0.2,1-0.3,1.5-0.5c0.9-0.3,1.7-0.6,2.6-0.9c0.4-0.1,0.8-0.3,1.3-0.4c0.9-0.3,1.8-0.7,2.7-1.1
                h19.1c0.4,0,9.3,0.3,9.3,10.4l0,12.8v0c0,1.4,1.1,2.5,2.5,2.5c1.4,0,2.5-1.1,2.5-2.5l0-12.8
                C1201.4,702.9,1187.4,702.5,1187.2,702.5z M1116.3,618c1.2,0.3,2.6,0.6,4.1,1c3.6,0.9,7.3,1.9,9.6,1.9l26.3,3.8l0.3,0
                c0,0,1.1,0.2,3.1,3.6c-7.5-2.4-14.4-3.7-24-3.7h0c-9.4,0.1-16.5,1.5-24.2,4.1L1116.3,618z M1104.1,664.6
                c-0.9-3-1.3-6.2-1.3-9.4c0-2.9,0.4-5.8,1.1-8.5c0.1-0.2,0.1-0.4,0.1-0.6h0.1c1.3-4.5,3.5-8.5,6.4-12c8.4-3,15.4-4.7,25.2-4.8
                c9.9-0.1,16.8,1.4,24.8,4.2c3.1,3.6,5.5,7.9,6.9,12.6h0.1c0,0.2,0,0.4,0.1,0.6c0.7,2.8,1.1,5.6,1.1,8.4c0,2.6-0.3,5.2-0.9,7.6
                c-0.2,0.6-0.3,1.2-0.5,1.8c-4.1,13.9-17.1,23.6-31.6,23.6C1121.2,688.2,1108.2,678.5,1104.1,664.6z M1115.6,706.4
                c-3.1-0.8-6.1-1.8-9.1-3l3-6.8c0.7,0.3,1.4,0.5,2.1,0.8c4.9,1.7,9.9,2.9,15.1,3.6l4.6,7.9
                C1126,708.6,1120.8,707.7,1115.6,706.4z M1135.7,706.5l-5.3-9.1c0,0,0,0,0,0l-0.6-1.1l-1.3-0.1c-2.4-0.3-4.8-0.7-7.1-1.2v-4.6
                c1.9,0.8,3.9,1.4,6,1.9c0.1,0,0.2,0,0.2,0c2.6,0.6,5.3,0.9,8.1,0.9c5,0,9.8-1,14.3-2.8v4.6c0,0-0.1,0-0.1,0
                c-0.5,0.1-0.9,0.2-1.4,0.3c-0.3,0.1-0.6,0.1-0.9,0.2c-0.5,0.1-1.1,0.2-1.6,0.3c-0.3,0-0.5,0.1-0.8,0.1
                c-0.8,0.1-1.6,0.2-2.4,0.3l-1.3,0.1l-0.6,1.1c0,0,0,0,0,0L1135.7,706.5z M1146.4,708.2c-2.1,0.3-4.2,0.5-6.3,0.6l4.6-7.9
                c0.3,0,0.7-0.1,1-0.1c0,0,0.1,0,0.1,0c0.2,0,0.4-0.1,0.6-0.1c0.3,0,0.7-0.1,1-0.2c0.4-0.1,0.7-0.1,1.1-0.2
                c0.3-0.1,0.7-0.1,1-0.2c0.4-0.1,0.7-0.1,1.1-0.2c0.3-0.1,0.7-0.1,1-0.2c0.4-0.1,0.7-0.2,1.1-0.3c0.3-0.1,0.7-0.2,1-0.3
                c0.4-0.1,0.7-0.2,1.1-0.3c0.3-0.1,0.7-0.2,1-0.3c0.4-0.1,0.7-0.2,1.1-0.3c0.3-0.1,0.6-0.2,1-0.3c0.4-0.1,0.8-0.3,1.2-0.4
                c0.3-0.1,0.6-0.2,0.9-0.3c0.6-0.2,1.2-0.4,1.8-0.7c0.1,0,0.2-0.1,0.2-0.1l0.8,1.9l0.4,0.9v0l1.8,4.1
                C1158.9,705.8,1152.7,707.4,1146.4,708.2z"/>
        </g>
        <g class="">
            <path class="bg-home-st1" d="M441.2,833.9V852c0,1.4,1.1,2.5,2.5,2.5s2.5-1.1,2.5-2.5l0,0v-18.1c0-9.9,8.3-10.4,9.3-10.4h21.8
                c0,0,0,0,0,0l0,0h3.9l23,22.4c0.1,0.1,0.3,0.2,0.4,0.3c0,0,0.1,0,0.1,0c0.1,0.1,0.2,0.1,0.4,0.2c0,0,0.1,0,0.1,0
                c0.1,0,0.2,0.1,0.3,0.1c0.1,0,0.1,0,0.2,0c0.1,0,0.2,0,0.3,0c0,0,0,0,0,0c0.1,0,0.2,0,0.3,0c0.1,0,0.1,0,0.2,0
                c0.1,0,0.2-0.1,0.3-0.1c0.1,0,0.1,0,0.2,0c0.1,0,0.2-0.1,0.3-0.1c0.1,0,0.1-0.1,0.2-0.1c0.1-0.1,0.3-0.2,0.4-0.3l23-22.3h5.8
                h21.9c0.9,0,9.2,0.5,9.2,10.4V852l0,0c0,1.4,1.1,2.5,2.5,2.5s2.5-1.1,2.5-2.5v-17.9c0-15-14-15.4-14.2-15.4h-21.9l0,0h-6.8
                c-0.6,0-1.3,0.3-1.7,0.7l-1.8,1.8v-9.8c2.2-1.4,4.2-2.9,6-4.7c0.1-0.1,0.2-0.1,0.3-0.2c0.4-0.3,1.3-0.5,2.1-0.7
                c1.5-0.3,3.3-0.7,4.7-2.1c1.4-1.4,1.8-3.2,2.2-4.8c0.2-0.9,0.4-1.9,0.8-2.3c0.3-0.4,1.1-0.9,1.9-1.3c1.3-0.8,3-1.7,3.9-3.5
                c0.9-1.7,0.7-3.6,0.6-5.2c-0.1-1-0.1-1.9,0-2.5c0.2-0.5,0.8-1.2,1.4-1.9c1-1.2,2.3-2.6,2.6-4.6c0.3-1.9-0.4-3.6-1-5.1
                c-0.4-0.9-0.7-1.8-0.7-2.4c0-0.6,0.4-1.5,0.7-2.4c0.6-1.5,1.3-3.2,1-5.1c-0.3-2-1.6-3.4-2.6-4.6c-0.6-0.7-1.2-1.4-1.4-1.9
                c-0.2-0.6-0.1-1.5,0-2.5c0.1-1.6,0.2-3.5-0.6-5.2c-0.9-1.7-2.5-2.7-3.9-3.5c-0.8-0.4-1.6-0.9-1.9-1.3c-0.3-0.4-0.5-1.4-0.8-2.3
                c-0.4-1.6-0.8-3.4-2.2-4.8c-1.2-1.2-2.8-1.6-4.2-1.9c-0.2,0-0.4-0.1-0.6-0.1c-0.4-0.1-0.9-0.2-1.2-0.3
                c-0.4-0.1-0.7-0.2-0.9-0.4c-0.2-0.1-0.4-0.4-0.7-0.8c-0.2-0.3-0.5-0.7-0.7-1.1c-0.8-1.4-1.8-3-3.5-3.9
                c-1.7-0.9-3.6-0.7-5.1-0.5c-0.8,0.1-1.8,0.2-2.2,0.1c-0.4-0.1-1.2-0.8-1.8-1.4c-1.2-1-2.6-2.4-4.5-2.7c-0.5-0.1-0.9-0.1-1.4,0
                c-0.9,0.1-1.7,0.4-2.5,0.7c-0.4,0.2-0.8,0.3-1.1,0.5c-0.6,0.3-1.2,0.6-1.7,0.7c-0.2,0-0.3,0.1-0.4,0.1c-0.5,0-1.4-0.4-2.1-0.8
                c-1.5-0.7-3.1-1.4-5-1.1c-1.9,0.3-3.4,1.6-4.5,2.7c-0.6,0.6-1.3,1.2-1.8,1.4c-0.5,0.2-1.4,0-2.2-0.1c-1.5-0.2-3.4-0.4-5.1,0.5
                c-1.7,0.9-2.7,2.5-3.5,3.9c-0.4,0.8-0.9,1.6-1.4,1.9c-0.4,0.3-1.3,0.5-2.1,0.7c-1.5,0.3-3.3,0.7-4.7,2.1
                c-1.4,1.4-1.8,3.2-2.2,4.8c-0.2,0.9-0.4,1.9-0.8,2.3c-0.3,0.4-1.1,0.9-1.9,1.3c-1.3,0.8-3,1.7-3.9,3.5
                c-0.9,1.7-0.7,3.6-0.6,5.2c0.1,1,0.1,1.9,0,2.5c-0.2,0.5-0.8,1.2-1.4,1.9c-1,1.2-2.3,2.6-2.6,4.6c-0.3,1.9,0.4,3.6,1,5.1
                c0.4,0.9,0.7,1.8,0.7,2.4s-0.4,1.5-0.7,2.4c-0.6,1.5-1.3,3.2-1,5.1c0.3,2,1.6,3.4,2.6,4.6c0.6,0.7,1.2,1.4,1.4,1.9
                c0.2,0.6,0.1,1.5,0,2.5c-0.1,1.6-0.2,3.5,0.6,5.2c0.9,1.7,2.5,2.7,3.9,3.5c0.8,0.4,1.6,0.9,1.9,1.3c0.3,0.4,0.5,1.4,0.8,2.3
                c0.4,1.6,0.8,3.4,2.2,4.8c1.4,1.4,3.2,1.8,4.7,2.1c0.9,0.2,1.7,0.4,2.1,0.7c0.4,0.3,0.8,0.4,1.3,0.5c1.6,1.5,3.3,2.8,5.1,4
                v11.8l-3.6-3.5c-0.5-0.5-1.1-0.7-1.7-0.7h-26.9C455.3,818.5,441.2,818.9,441.2,833.9z M541.8,790.9c1-3.2,1.5-6.6,1.5-10.2
                c0-5-1-9.9-3-14.4c-0.1-1.3-1.2-2.2-2.5-2.2c0,0-0.1,0-0.1,0c-0.1,0-0.2,0-0.3,0c-1.3,0.1-2.5,0.5-3.6,0.8
                c-0.9,0.3-1.9,0.6-2.5,0.6c-0.6-0.1-1.3-0.6-2.1-1.1c-1-0.7-2.1-1.4-3.5-1.7c-1.4-0.3-2.8-0.2-4.1-0.1c-1,0.1-2.1,0.2-2.6,0
                c-0.4-0.2-0.9-0.7-1.4-1.4c-0.7-0.8-1.5-1.9-2.8-2.6c-1.2-0.6-2.6-0.9-3.9-1c-0.8-0.1-2-0.3-2.4-0.6c-0.2-0.1-0.4-0.8-0.6-1.4
                c-0.3-0.9-0.7-2.1-1.6-3.1c-0.7-1-2-1.4-3.2-0.8l-0.2,0.1c-0.8,0.4-1.6,0.8-2.3,0.9c-0.6,0.1-1.5-0.1-2.4-0.2
                c-1.4-0.3-3-0.6-4.7-0.1c-1.7,0.5-3,1.6-4,2.5c-0.6,0.6-1.2,1.1-1.7,1.3c-0.6,0.2-1.5,0.3-2.5,0.3c-1.5,0.1-3.2,0.2-4.7,1
                c-1.6,0.9-2.4,2.3-3.1,3.5c-0.4,0.6-0.7,1.2-1,1.5c0,0,0,0,0,0c-0.1,0.1-0.1,0.1-0.2,0.2c-0.1,0-0.1,0.1-0.2,0.1
                c0,0.1-0.1,0.1-0.1,0.2c-0.1,0.1-0.1,0.2-0.2,0.2c0,0,0,0,0,0c-3,5.3-4.6,11.4-4.6,17.5c0,3.7,0.6,7.3,1.6,10.6
                c-0.2-0.1-0.5-0.3-0.7-0.4c-0.8-0.5-1.7-1-1.9-1.5c-0.2-0.5-0.2-1.6-0.1-2.6c0.1-1.4,0.2-2.9-0.3-4.4c-0.5-1.5-1.5-2.6-2.3-3.6
                c-0.6-0.7-1.3-1.6-1.4-2.1c-0.1-0.5,0.3-1.5,0.7-2.4c0.5-1.3,1.1-2.7,1.1-4.3s-0.6-3-1.1-4.3c-0.4-0.9-0.8-1.9-0.7-2.4
                c0.1-0.5,0.8-1.4,1.4-2.1c0.9-1,1.9-2.2,2.3-3.6c0.5-1.5,0.4-3,0.3-4.4c-0.1-1-0.1-2.1,0.1-2.6c0.2-0.4,1.1-1,1.9-1.5
                c1.2-0.7,2.5-1.4,3.4-2.7c0.9-1.3,1.3-2.8,1.6-4.1c0.2-0.9,0.5-2,0.8-2.4c0.3-0.3,1.4-0.5,2.2-0.7c1.3-0.3,2.8-0.6,4.1-1.5
                c1.3-0.9,2-2.2,2.7-3.4c0.5-0.8,1-1.8,1.5-2c0.4-0.2,1.4-0.1,2.2,0c1.3,0.2,2.9,0.3,4.4-0.1c1.5-0.5,2.6-1.5,3.6-2.4
                c0.6-0.6,1.5-1.3,1.9-1.4c0.4-0.1,1.4,0.4,2.1,0.7c1.2,0.6,2.6,1.2,4.2,1.2s3-0.7,4.2-1.2c0.7-0.3,1.7-0.8,2.1-0.7
                c0.4,0.1,1.3,0.8,1.9,1.4c1,0.9,2.1,1.9,3.6,2.4c1.5,0.5,3,0.3,4.4,0.1c0.8-0.1,1.9-0.2,2.2,0c0.4,0.2,1,1.2,1.5,2
                c0.7,1.2,1.5,2.5,2.7,3.4c1.3,0.9,2.8,1.2,4.1,1.5c0.8,0.2,1.9,0.4,2.2,0.7c0.4,0.4,0.6,1.5,0.8,2.4c0.3,1.3,0.7,2.8,1.6,4.1
                c0.9,1.3,2.2,2,3.4,2.7c0.8,0.5,1.7,1,1.9,1.5c0.2,0.5,0.2,1.6,0.1,2.6c-0.1,1.4-0.2,2.9,0.3,4.4c0.5,1.5,1.5,2.6,2.3,3.6
                c0.6,0.7,1.3,1.6,1.4,2.1c0.1,0.5-0.3,1.5-0.7,2.4c-0.5,1.3-1.1,2.7-1.1,4.3s0.6,3,1.1,4.3c0.4,0.9,0.8,1.9,0.7,2.4
                c-0.1,0.6-0.8,1.4-1.4,2.1c-0.9,1-1.9,2.2-2.3,3.6c-0.5,1.5-0.4,3-0.3,4.4c0.1,1,0.2,2.1-0.1,2.6
                C543.4,790,542.6,790.5,541.8,790.9z M507.3,811.7c-17.1,0-31-13.9-31-31c0-5.1,1.3-10.2,3.8-14.7c0.9-0.8,1.4-1.7,1.9-2.5
                c0.4-0.7,0.8-1.3,1.1-1.5c0.5-0.3,1.6-0.3,2.6-0.4c1.3-0.1,2.7-0.2,4-0.7c1.3-0.5,2.3-1.4,3.2-2.2c0.7-0.6,1.4-1.2,1.9-1.4
                c0.6-0.1,1.6,0,2.5,0.2c1.2,0.2,2.6,0.5,4.1,0.3c0.6-0.1,1.2-0.3,1.8-0.5c0.4,1.2,0.9,2.7,2.4,3.8c1.3,1,3.1,1.2,4.6,1.5
                c0.9,0.1,1.8,0.3,2.3,0.5c0.4,0.2,0.8,0.7,1.3,1.3c0.8,1,1.8,2.3,3.6,2.9c1.6,0.6,3.3,0.4,4.8,0.3c0.9-0.1,1.9-0.2,2.5,0
                c0.5,0.1,1.2,0.6,1.9,1c1.1,0.7,2.5,1.7,4.3,1.9c0.2,0,0.5,0,0.7,0c1.4,0,2.7-0.4,3.9-0.8c0.3-0.1,0.5-0.2,0.8-0.2
                c1.4,3.6,2.2,7.4,2.2,11.3C538.2,797.8,524.4,811.7,507.3,811.7z M521.2,813.9V826l-15.2,14.7l-13.4-13.1v-14
                c4.5,2,9.4,3.1,14.6,3.1C512.2,816.7,517,815.7,521.2,813.9z"/>
        </g>
        <g class="">
            <path class="bg-home-st1" d="M9,827.6v18.1c0,1.4,1.1,2.5,2.5,2.5s2.5-1.1,2.5-2.5v0v-18.1c0-9.9,8.3-10.4,9.3-10.4l23.5,0
                c3.5,6.8,9.3,12.1,16.5,14.9c3.8,1.5,7.8,2.3,11.9,2.3c3.6,0,7.3-0.6,10.8-1.9l0.3-0.1c7.6-2.7,13.8-8.1,17.5-15h22.5
                c0.9,0,9.2,0.5,9.2,10.4v17.9v0c0,1.4,1.1,2.5,2.5,2.5c1.4,0,2.5-1.1,2.5-2.5v-17.9c0-15-14-15.4-14.2-15.4h-20.4
                c0.3-1,0.6-2,0.8-3c2.2-9.7,5-22.9,5.7-31.1c0-0.4,0.1-0.9,0.1-1.4c0,0,0-0.1,0-0.1c0-0.3,0-0.7,0.1-1c0-0.5,0-1,0-1.4
                c0,0,0-0.1,0-0.1c0,0,0,0,0,0l0,0c0,0,0,0,0,0c0-1.7-0.1-3.3-0.3-5c0-0.2,0-0.4-0.1-0.6c0-0.1,0-0.3-0.1-0.4
                c-0.2-1.2-0.4-2.5-0.8-3.8c0-0.1-0.1-0.1-0.1-0.2c-4.4-16.1-19.1-27.9-36.6-27.9c-10.1,0-19.7,3.9-26.8,11.1
                c-7.2,7.2-11.1,16.7-11.1,26.8c0,0.7,0,1.4,0.1,2.1c0,0.1,0,0.1,0,0.2l0.1,1.6c0.8,10.4,4.5,24,7.5,33.7c0,0.1,0.1,0.3,0.1,0.4
                H23.2C23,812.2,9,812.6,9,827.6z M65.1,827.5c-7.6-3-13.4-9.3-15.8-17.2c-2.9-9.4-6.5-22.6-7.3-32.6l0-0.6
                c3.2,5.9,8.3,12.3,15.3,16.6c1,0.6,2.3,0.4,3.1-0.5l2.2-2.4c1.1-1.2,2.5-1.8,4-1.8h16.2c1.5,0,3,0.6,4,1.8l2.2,2.4
                c0.8,0.9,2.1,1.1,3.1,0.5c7-4.2,12.1-10.7,15.3-16.6c0,0.3,0,0.6-0.1,0.8c-0.7,7.9-3.5,20.9-5.6,30.4
                c-2.1,9-8.5,16.3-17.3,19.4l-0.3,0.1C78,830.1,71.2,830,65.1,827.5z M106.5,765.5c-0.1,0.9-0.4,2.4-1.1,4.3
                c-2.1,5.8-6.8,13.5-14,18.4l-0.8-0.8c-2-2.2-4.8-3.4-7.7-3.4H66.6c-2.9,0-5.8,1.2-7.7,3.4l-0.8,0.8c-7.2-5-11.9-12.7-14-18.4
                c-0.8-2.3-1-3.7-1.1-4.4c1.5-5.4,4.4-10.4,8.4-14.5c6.2-6.2,14.5-9.6,23.3-9.6C89.8,741.4,102.6,751.6,106.5,765.5z"/>
        </g>
        <g class="">
            <path class="bg-home-st1" d="M303.6,140.5v18.1c0,0.7,0.3,1.3,0.7,1.8c0.5,0.5,1.1,0.7,1.8,0.7l126.5,0c1.4,0,2.5-1.1,2.5-2.5v-17.9
                c0-15-14-15.4-14.2-15.4h0c0,0,0,0,0,0h-28.7c-0.6,0-1.3,0.3-1.7,0.7l-2.3,2.2v-10.6c2.2-1.4,4.3-3.1,6.2-5
                c6.8-6.8,10.5-15.8,10.5-25.4c0-13.3-7.3-25-18.1-31.2c-1.8-4.2-5.9-7.6-18.2-7.6c-10.8,0-21.3,4.8-29.4,13.5
                c-7.4,7.9-11.9,18.3-11.4,25.8c0.1,1.1,0.8,1.9,1.8,2.2c0.2,0.1,0.4,0.1,0.7,0.1c0.8,0,1.6-0.4,2.1-1.1
                c0.2-0.3,0.4-0.6,0.7-0.9c0.2,9.3,3.9,18,10.5,24.5c1.9,1.9,3.9,3.5,6,4.9v11.4l-3.2-3.1c-0.1-0.1-0.2-0.2-0.4-0.3
                c-0.1,0-0.1-0.1-0.2-0.1c-0.1,0-0.1-0.1-0.2-0.1c-0.1,0-0.2-0.1-0.3-0.1c-0.1,0-0.1,0-0.2-0.1c-0.1,0-0.2,0-0.3,0
                c-0.1,0-0.1,0-0.2,0h-26.9C317.6,125.1,303.6,125.5,303.6,140.5z M308.6,140.5c0-9.9,8.3-10.4,9.3-10.4l25.8,0l23,22.4
                c0.1,0.1,0.3,0.2,0.4,0.3c0,0,0.1,0,0.1,0.1c0.1,0.1,0.2,0.1,0.3,0.2c0.1,0,0.1,0,0.2,0c0.1,0,0.2,0.1,0.3,0.1
                c0.1,0,0.1,0,0.2,0c0.1,0,0.2,0,0.3,0c0,0,0,0,0,0c0.1,0,0.2,0,0.3,0c0.1,0,0.1,0,0.2,0c0.1,0,0.2-0.1,0.3-0.1
                c0.1,0,0.1,0,0.2,0c0.1,0,0.2-0.1,0.3-0.1c0.1,0,0.1-0.1,0.2-0.1c0.1-0.1,0.3-0.2,0.4-0.3l23-22.3h27.7c0.9,0,9.2,0.5,9.2,10.4
                v15.4l-121.5,0V140.5z M382.9,60.4c0.6,2.9-0.9,3.8-1.5,4.1c-3.2,0.2-25,1.7-35.8,11.3c-0.6,0.5-1.2,1.1-1.7,1.8
                c0-0.1,0-0.3,0-0.4c0-1-0.5-1.9-1.3-2.3c-0.4-0.2-0.8-0.3-1.2-0.3c-0.5,0-1.1,0.2-1.5,0.5c0,0-3,2.3-6,5.1
                c1.5-4.5,4.4-9.9,8.9-14.8c7.1-7.7,16.3-11.9,25.7-11.9C381.4,53.4,382.1,56.9,382.9,60.4z M399.9,87.2c0,8.3-3.2,16-9.1,21.9
                c-5.8,5.8-13.6,9.1-21.9,9.1s-16-3.2-21.9-9.1c-5.8-5.8-9.1-13.6-9.1-21.9c0-1.5,0.1-2.9,0.3-4.3c0.5-0.5,1-0.9,1.5-1.3
                c0.5,1.2,0.9,2.1,1,2.2c0.4,0.7,1.2,1.2,2.1,1.3c0.9,0,1.7-0.4,2.2-1.1c0,0,2.1-2.9,3.9-4.6c10-9,32.8-10,33-10
                c0.2,0,0.4,0,0.6-0.1c2.2-0.6,5-2.8,5.4-6.5C395.2,68.4,399.9,77.3,399.9,87.2z M383.2,120.2v12.8l-14.7,14.2l-13.9-13.5v-13.6
                c4.5,2,9.4,3,14.4,3c0,0,0,0,0,0C373.9,123.1,378.7,122.1,383.2,120.2z"/>
        </g>
        <g class="">
            <path class="bg-home-st1" d="M74.2,167.7v7.9v10.2c0,1.4,1.1,2.5,2.5,2.5c1.4,0,2.5-1.1,2.5-2.5l0,0v-10.2v-7.9
                c0-10.1,8.9-10.4,9.3-10.4l4.4,0c0,0,0,0,0,0h4.8c2.1,9.9,5,19.6,8.6,28.5c0.2,0.6,0.5,1.2,0.7,1.8c0.4,0.9,1.3,1.5,2.3,1.5
                H123c1.4,0,2.5-1.1,2.5-2.5v-0.8v-17.5l11.8,11.5c1,0.9,2.5,0.9,3.5,0l13.3-12.9v18.9v0.8c0,1.4,1.1,2.5,2.5,2.5
                c0,0,5.2,0,9.4,0c1.8,0,3.4,0,4.2,0c0,0,0.1,0,0.1,0l0.3,0c1.4,0,2.5-1.1,2.5-2.5c0,0,0-0.1,0-0.1c0.1-0.2,0.2-0.4,0.3-0.6
                c3.6-8.8,6.5-18.5,8.6-28.3h9.5c0.9,0,9.2,0.5,9.2,10.4v17.9l0,0c0,1.4,1.1,2.5,2.5,2.5s2.5-1.1,2.5-2.5v-17.9
                c0-15-14-15.4-14.2-15.4h-8.6c1.1-6.3,1.9-12.6,2.2-18.8c0.8-14.5-0.3-34.8-10.1-49.7c-0.7-1.1-1.5-2.1-2.2-3.1
                c0,0-0.1-0.1-0.1-0.1c-0.1-0.1-0.2-0.3-0.4-0.4c-0.3-0.4-0.6-0.7-0.9-1.1c-0.2-0.2-0.4-0.4-0.6-0.7c-0.4-0.4-0.7-0.8-1.1-1.2
                c-0.1-0.1-0.3-0.3-0.4-0.4c-0.4-0.4-0.9-0.8-1.3-1.2c-0.1-0.1-0.1-0.1-0.2-0.1c-2.8-2.4-5.8-4.4-9.1-5.9
                c-0.1,0-0.1-0.1-0.2-0.1c-0.6-0.3-1.2-0.5-1.7-0.7c-0.2-0.1-0.3-0.1-0.5-0.2c-0.5-0.2-1.1-0.4-1.6-0.6
                c-0.2-0.1-0.5-0.2-0.7-0.2c-0.5-0.2-1-0.3-1.5-0.4c-0.3-0.1-0.6-0.2-0.9-0.2c-0.5-0.1-1-0.2-1.5-0.3c-0.4-0.1-0.7-0.1-1.1-0.2
                c-0.5-0.1-0.9-0.2-1.4-0.2c-0.4-0.1-0.9-0.1-1.3-0.2c-0.4-0.1-0.8-0.1-1.2-0.1c-0.5-0.1-1.1-0.1-1.6-0.1c-0.3,0-0.7-0.1-1-0.1
                c-0.9,0-1.8-0.1-2.7-0.1c0,0,0,0,0,0s0,0,0,0c-15.5,0-27.4,6.1-35.2,18c-9.8,14.9-10.9,35.2-10.1,49.7
                c0.3,6.1,1.1,12.3,2.2,18.6h-8.3C88.2,152.4,74.2,152.7,74.2,167.7z M125.7,161.5v-11.9c4.4,1.8,9.2,2.8,14.3,2.8
                c5,0,9.8-1,14.2-2.8v10.4l-15.1,14.6L125.7,161.5z M172.8,114.4c0,12.2-5.9,22-17.4,29.1c-0.1,0-0.1,0.1-0.1,0.1
                c-4.6,2.4-9.7,3.7-15.2,3.7c-15.8,0-29-11.2-32.2-26c0.1,0,0.2,0,0.3,0c0.1,0,0.3,0,0.4,0c0.5,0,1,0,1.4,0c0.5,0,1,0,1.5,0
                c0.8,0,1.6-0.1,2.5-0.2c0.3,0,0.6,0,0.8-0.1c1-0.1,2-0.2,2.9-0.4c0.1,0,0.2,0,0.3,0c14.4-2.1,26.5-9.2,36.3-21.2
                C167.2,104.1,172.8,108.6,172.8,114.4z M111,184.1c-12.5-30.3-17.5-74.2-2.2-97.3c6.9-10.4,17.3-15.7,31.1-15.7
                c0.8,0,1.6,0,2.4,0.1c0.3,0,0.5,0,0.8,0.1c0.5,0,1,0.1,1.5,0.1c0.3,0,0.6,0.1,1,0.1c0.4,0.1,0.9,0.1,1.3,0.2
                c0.3,0.1,0.7,0.1,1,0.2c0.4,0.1,0.8,0.1,1.2,0.2c0.3,0.1,0.7,0.1,1,0.2c0.4,0.1,0.8,0.2,1.1,0.3c0.3,0.1,0.7,0.2,1,0.3
                c0.4,0.1,0.7,0.2,1.1,0.3c0.3,0.1,0.6,0.2,0.9,0.3c0.4,0.1,0.7,0.3,1.1,0.4c0.3,0.1,0.6,0.2,0.9,0.4c0.4,0.2,0.7,0.3,1.1,0.5
                c0.3,0.1,0.5,0.2,0.8,0.4c0.4,0.2,0.9,0.5,1.3,0.7c0.2,0.1,0.4,0.2,0.5,0.3c0.6,0.4,1.2,0.7,1.7,1.1c0.1,0.1,0.2,0.2,0.4,0.3
                c0.4,0.3,0.9,0.6,1.3,1c0.2,0.1,0.4,0.3,0.5,0.4c0.4,0.3,0.7,0.6,1.1,0.9c0.2,0.2,0.4,0.3,0.6,0.5c0.3,0.3,0.7,0.6,1,0.9
                c0.2,0.2,0.4,0.4,0.6,0.6c0.3,0.3,0.6,0.6,0.9,1c0.2,0.2,0.4,0.4,0.6,0.7c0.9,1,1.7,2.1,2.5,3.3c15.3,23.1,10.3,67-2.2,97.3
                c-2.6,0-6.8,0-9.5,0V147c12.4-8,18.6-18.9,18.6-32.6c0-10.6-11.6-16.1-23.2-20.1c-0.4-0.2-0.8-0.3-1.2-0.3
                c-0.8,0-1.6,0.3-2.1,1c-1.1,1.4-2.3,2.8-3.4,4l0.2-0.1c-13.8,15.3-29.3,17.4-38.1,17.5l0,0c-0.2,0-0.4,0-0.6,0
                c-1.7,0-3.2-0.1-4.3-0.1l-0.2,0c0,0,0,0-0.1,0l-0.1,0c-0.7,0-1.4,0.2-1.9,0.8c-0.5,0.5-0.8,1.2-0.7,1.9
                c0.9,12.7,10.9,24.2,18.4,28.2v37H111z"/>
        </g>
        <g class="">
            <path class="bg-home-st1" d="M159.4,366.1v7.9v10.2c0,1.4,1.1,2.5,2.5,2.5c1.4,0,2.5-1.1,2.5-2.5l0,0V374v-7.9
                c0-10.1,8.9-10.4,9.3-10.4l4.4,0c0,0,0,0,0,0h4.8c2.1,9.9,5,19.6,8.6,28.5c0.2,0.6,0.5,1.2,0.7,1.8c0.4,0.9,1.3,1.5,2.3,1.5
                h13.7c1.4,0,2.5-1.1,2.5-2.5v-0.8v-17.5l11.8,11.5c1,0.9,2.5,0.9,3.5,0l13.3-12.9v18.9v0.8c0,1.4,1.1,2.5,2.5,2.5
                c0,0,5.2,0,9.4,0c1.8,0,3.4,0,4.2,0c0,0,0.1,0,0.1,0l0.3,0c1.4,0,2.5-1.1,2.5-2.5c0,0,0-0.1,0-0.1c0.1-0.2,0.2-0.4,0.3-0.6
                c3.6-8.8,6.5-18.5,8.6-28.3h9.5c0.9,0,9.2,0.5,9.2,10.4v17.9l0,0c0,1.4,1.1,2.5,2.5,2.5s2.5-1.1,2.5-2.5v-17.9
                c0-15-14-15.4-14.2-15.4h-8.6c1.1-6.3,1.9-12.6,2.2-18.8c0.8-14.5-0.3-34.8-10.1-49.7c-0.7-1.1-1.5-2.1-2.2-3.1
                c0,0-0.1-0.1-0.1-0.1c-0.1-0.1-0.2-0.3-0.4-0.4c-0.3-0.4-0.6-0.7-0.9-1.1c-0.2-0.2-0.4-0.4-0.6-0.7c-0.4-0.4-0.7-0.8-1.1-1.2
                c-0.1-0.1-0.3-0.3-0.4-0.4c-0.4-0.4-0.9-0.8-1.3-1.2c-0.1-0.1-0.1-0.1-0.2-0.1c-2.8-2.4-5.8-4.4-9.1-5.9
                c-0.1,0-0.1-0.1-0.2-0.1c-0.6-0.3-1.2-0.5-1.7-0.7c-0.2-0.1-0.3-0.1-0.5-0.2c-0.5-0.2-1.1-0.4-1.6-0.6
                c-0.2-0.1-0.5-0.2-0.7-0.2c-0.5-0.2-1-0.3-1.5-0.4c-0.3-0.1-0.6-0.2-0.9-0.2c-0.5-0.1-1-0.2-1.5-0.3c-0.4-0.1-0.7-0.1-1.1-0.2
                c-0.5-0.1-0.9-0.2-1.4-0.2c-0.4-0.1-0.9-0.1-1.3-0.2c-0.4-0.1-0.8-0.1-1.2-0.1c-0.5-0.1-1.1-0.1-1.6-0.1c-0.3,0-0.7-0.1-1-0.1
                c-0.9,0-1.8-0.1-2.7-0.1c0,0,0,0,0,0s0,0,0,0c-15.5,0-27.4,6.1-35.2,18c-9.8,14.9-10.9,35.2-10.1,49.7
                c0.3,6.1,1.1,12.3,2.2,18.6h-8.3C173.4,350.7,159.4,351.1,159.4,366.1z M210.8,359.8v-11.9c4.4,1.8,9.2,2.8,14.3,2.8
                c5,0,9.8-1,14.2-2.8v10.4l-15.1,14.6L210.8,359.8z M257.9,312.8c0,12.2-5.9,22-17.4,29.1c-0.1,0-0.1,0.1-0.1,0.1
                c-4.6,2.4-9.7,3.7-15.2,3.7c-15.8,0-29-11.2-32.2-26c0.1,0,0.2,0,0.3,0c0.1,0,0.3,0,0.4,0c0.5,0,1,0,1.4,0c0.5,0,1,0,1.5,0
                c0.8,0,1.6-0.1,2.5-0.2c0.3,0,0.6,0,0.8-0.1c1-0.1,2-0.2,2.9-0.4c0.1,0,0.2,0,0.3,0c14.4-2.1,26.5-9.2,36.3-21.2
                C252.4,302.5,257.9,307,257.9,312.8z M196.2,382.5c-12.5-30.3-17.5-74.2-2.2-97.3c6.9-10.4,17.3-15.7,31.1-15.7
                c0.8,0,1.6,0,2.4,0.1c0.3,0,0.5,0,0.8,0.1c0.5,0,1,0.1,1.5,0.1c0.3,0,0.6,0.1,1,0.1c0.4,0.1,0.9,0.1,1.3,0.2
                c0.3,0.1,0.7,0.1,1,0.2c0.4,0.1,0.8,0.1,1.2,0.2c0.3,0.1,0.7,0.1,1,0.2c0.4,0.1,0.8,0.2,1.1,0.3c0.3,0.1,0.7,0.2,1,0.3
                c0.4,0.1,0.7,0.2,1.1,0.3c0.3,0.1,0.6,0.2,0.9,0.3c0.4,0.1,0.7,0.3,1.1,0.4c0.3,0.1,0.6,0.2,0.9,0.4c0.4,0.2,0.7,0.3,1.1,0.5
                c0.3,0.1,0.5,0.2,0.8,0.4c0.4,0.2,0.9,0.5,1.3,0.7c0.2,0.1,0.4,0.2,0.5,0.3c0.6,0.4,1.2,0.7,1.7,1.1c0.1,0.1,0.2,0.2,0.4,0.3
                c0.4,0.3,0.9,0.6,1.3,1c0.2,0.1,0.4,0.3,0.5,0.4c0.4,0.3,0.7,0.6,1.1,0.9c0.2,0.2,0.4,0.3,0.6,0.5c0.3,0.3,0.7,0.6,1,0.9
                c0.2,0.2,0.4,0.4,0.6,0.6c0.3,0.3,0.6,0.6,0.9,1c0.2,0.2,0.4,0.4,0.6,0.7c0.9,1,1.7,2.1,2.5,3.3c15.3,23.1,10.3,67-2.2,97.3
                c-2.6,0-6.8,0-9.5,0v-37.1c12.4-8,18.6-18.9,18.6-32.6c0-10.6-11.6-16.1-23.2-20.1c-0.4-0.2-0.8-0.3-1.2-0.3
                c-0.8,0-1.6,0.3-2.1,1c-1.1,1.4-2.3,2.8-3.4,4l0.2-0.1c-13.8,15.3-29.3,17.4-38.1,17.5l0,0c-0.2,0-0.4,0-0.6,0
                c-1.7,0-3.2-0.1-4.3-0.1l-0.2,0c0,0,0,0-0.1,0l-0.1,0c-0.7,0-1.4,0.2-1.9,0.8c-0.5,0.5-0.8,1.2-0.7,1.9
                c0.9,12.7,10.9,24.2,18.4,28.2v37H196.2z"/>
        </g>
        <g class="">
            <path class="bg-home-st1" d="M54,536.1v18.1c0,1.4,1.1,2.5,2.5,2.5c1.4,0,2.5-1.1,2.5-2.5l0,0v-18.1c0-9.9,8.3-10.4,9.3-10.4l23.5,0
                c1.5,2.9,3.4,5.5,5.6,7.7c0.1,0.1,0.2,0.2,0.4,0.4c0.1,0.1,0.2,0.2,0.4,0.3c2.9,2.8,6.2,4.9,9.9,6.4c0.1,0,0.2,0.1,0.2,0.1
                c0.1,0.1,0.3,0.1,0.4,0.2c0.1,0,0.2,0.1,0.4,0.1l0.3,0.1c0,0,0.1,0,0.1,0c0.3,0.1,0.6,0.2,0.9,0.3c0.2,0.1,0.4,0.1,0.5,0.2
                c0.3,0.1,0.5,0.2,0.8,0.2c0.2,0.1,0.4,0.1,0.6,0.2c0.2,0.1,0.5,0.1,0.7,0.2c0.2,0.1,0.5,0.1,0.7,0.1c0.2,0,0.5,0.1,0.7,0.1
                c0.2,0,0.5,0.1,0.7,0.1c0.2,0,0.5,0.1,0.7,0.1c0.2,0,0.5,0.1,0.8,0.1c0.2,0,0.5,0.1,0.7,0.1c0.2,0,0.5,0,0.7,0.1
                c0.2,0,0.5,0,0.7,0c0.2,0,0.5,0,0.7,0c0.2,0,0.5,0,0.7,0c0,0,0.1,0,0.1,0c0.1,0,0.2,0,0.3,0c0,0,0,0,0.1,0
                c3.5-0.1,6.9-0.7,10.3-1.9l0.3-0.1c7.6-2.7,13.8-8.1,17.5-15h22.5c0.7,0,5.5,0.3,7.9,4.6c0.1,0.2,0.2,0.5,0.4,0.8
                c0.1,0.1,0.1,0.3,0.2,0.4c0.5,1.2,0.8,2.8,0.8,4.6v9.6c0,0,0,0,0,0.1v8.3l0,0c0,1.4,1.1,2.5,2.5,2.5s2.5-1.1,2.5-2.5v-17.9
                c0-2.8-0.5-5.1-1.3-7c-3.5-8.1-12.8-8.4-12.9-8.4l-8.2,0c0,0,0,0,0,0h-12.2c0.3-1,0.6-2,0.8-3c2.2-9.7,5-22.9,5.7-31.1
                c0-0.4,0.1-0.9,0.1-1.4c0,0,0-0.1,0-0.1c0-0.3,0-0.7,0.1-1c0-0.5,0-1,0-1.4c0,0,0-0.1,0-0.1c0,0,0,0,0,0c0,0,0,0,0,0
                c0,0,0,0,0,0c0-1.7-0.1-3.3-0.3-4.9c0-0.2,0-0.4-0.1-0.6c0-0.1,0-0.3-0.1-0.4c-0.2-1.2-0.4-2.5-0.8-3.8c0-0.1-0.1-0.1-0.1-0.2
                c-0.5-1.7-1-3.4-1.7-5c0,0,0-0.1,0-0.1c-0.1-0.3-0.3-0.6-0.4-0.9c-0.1-0.2-0.2-0.5-0.4-0.7c-0.2-0.4-0.4-0.8-0.6-1.2
                c-0.1-0.2-0.2-0.3-0.3-0.5c-0.8-1.4-1.7-2.8-2.6-4.1c-0.1-0.1-0.1-0.2-0.2-0.3c-1.4-1.9-3-3.6-4.7-5.2
                c-0.1-0.1-0.1-0.1-0.2-0.2c-0.9-0.8-1.9-1.7-2.9-2.4c-0.1-0.1-0.1-0.1-0.2-0.1c-2.2-1.6-4.5-2.9-7-4c-2-3.4-8.6-5-15.3-5
                c-6.6,0-13.3,1.6-15.3,5c-13.3,5.9-22.7,19.2-22.7,34.7c0,0,0,0,0,0l0,0c0,0,0,0,0,0c0,0.7,0,1.4,0.1,2.1c0,0,0,0.1,0,0.1
                l0.1,1.6c0.6,7.6,2.7,16.9,5,25.1c0,0,0,0,0,0c0,0,0,0,0,0.1c0.6,2.1,1.2,4.2,1.8,6.1c0.2,0.9,0.5,1.8,0.8,2.7H68.2
                C68.1,520.7,54,521.1,54,536.1z M129.6,536.3l-0.3,0.1c-3,1.1-6.1,1.6-9.1,1.6c-0.4,0-0.8,0-1.2,0c-0.4,0-0.7,0-1.1-0.1l0,0
                c-2.3-0.2-4.5-0.7-6.7-1.5l-0.3-0.1c-8.4-3-14.6-10.1-17.1-19.5c-0.5-1.9-1.6-5.5-1.8-6.3c-2.2-8-4.3-17-4.8-24.2l0-0.6
                c3.2,5.9,8.3,12.3,15.3,16.6c1,0.6,2.3,0.4,3.1-0.5l2.2-2.4c1.1-1.2,2.5-1.8,4-1.8h16.2c1.5,0,3,0.6,4,1.8l2.2,2.4
                c0.8,0.9,2.1,1.1,3.1,0.5c7-4.2,12.1-10.7,15.3-16.6c0,0.3,0,0.6-0.1,0.8c-0.7,7.9-3.5,20.9-5.6,30.4
                C144.8,525.9,138.3,533.1,129.6,536.3z M88,474c2.5-9,8.7-16.4,16.8-20.6c2.2,3.5,7.8,5.8,14.9,5.8c7.1,0,12.7-2.4,14.9-5.8
                c2.6,1.3,5,3,7.1,4.9c0.1,0,0.1,0.1,0.2,0.1c1.5,1.4,2.9,2.9,4.1,4.5c0.1,0.1,0.1,0.2,0.2,0.2c0.8,1.1,1.6,2.4,2.3,3.6
                c0.1,0.1,0.1,0.3,0.2,0.4c0.2,0.4,0.4,0.7,0.6,1.1c0.1,0.2,0.2,0.4,0.3,0.6c0.8,1.6,1.4,3.3,1.9,5.1c-0.1,0.9-0.4,2.4-1.1,4.3
                c-2.1,5.8-6.8,13.5-14,18.4l-0.8-0.8c-2-2.2-4.8-3.4-7.7-3.4h-16.2c-2.9,0-5.8,1.2-7.7,3.4l-0.8,0.8c-7.2-5-11.9-12.7-14-18.4
                C88.3,476.1,88.1,474.7,88,474z M119.8,454.3c-6.4,0-10.5-2.4-10.8-3.8c0.7-0.8,4.5-2.4,10.8-2.4s10.1,1.6,10.8,2.4
                C130.2,451.9,126.2,454.3,119.8,454.3z"/>
        </g>
        <g class="">
            <path class="bg-home-st2" d="M302.1,624.6c-9.6-0.1-16.5,1.2-24,3.7c2-3.4,3.1-3.6,3.1-3.6l0.3,0l26.3-3.8c2.3-0.1,6-1,9.6-1.9
                c1.4-0.4,2.9-0.8,4.1-1l4.8,10.8C318.6,626.1,311.5,624.6,302.1,624.6L302.1,624.6z"/>
            <path class="bg-home-st2" d="M326.1,697.4c0.7-0.2,1.4-0.5,2.1-0.8l3,6.8c-3,1.2-6,2.2-9.1,3c-5.1,1.3-10.3,2.2-15.6,2.5l4.6-7.9
                C316.2,700.3,321.2,699.1,326.1,697.4z"/>
            <path class="bg-home-st2" d="M270.4,664.6c-0.2-0.6-0.3-1.2-0.5-1.8c-0.6-2.4-0.9-5-0.9-7.6c0-2.8,0.4-5.7,1.1-8.4
                c0.1-0.2,0.1-0.4,0.1-0.6h0.1c1.4-4.7,3.7-9,6.9-12.6c8-2.8,14.9-4.3,24.8-4.2c9.8,0.1,16.8,1.7,25.2,4.8
                c2.9,3.5,5.1,7.5,6.4,12h0.1c0,0.2,0,0.4,0.1,0.6c0.7,2.7,1.1,5.6,1.1,8.5c0,3.2-0.5,6.3-1.3,9.4
                c-4.1,13.9-17.1,23.6-31.6,23.6C287.5,688.2,274.5,678.5,270.4,664.6z"/>
            <path class="bg-home-st2" d="M274.7,699.3l0.4-0.9l0.8-1.9c0.1,0,0.2,0.1,0.2,0.1c0.6,0.2,1.2,0.4,1.8,0.7c0.3,0.1,0.6,0.2,0.9,0.3
                c0.4,0.1,0.8,0.3,1.2,0.4c0.3,0.1,0.6,0.2,1,0.3c0.4,0.1,0.7,0.2,1.1,0.3c0.3,0.1,0.7,0.2,1,0.3c0.4,0.1,0.7,0.2,1.1,0.3
                c0.3,0.1,0.7,0.2,1,0.3c0.4,0.1,0.7,0.2,1.1,0.3c0.3,0.1,0.7,0.2,1,0.2c0.4,0.1,0.7,0.2,1.1,0.2c0.3,0.1,0.7,0.1,1,0.2
                c0.4,0.1,0.7,0.1,1.1,0.2c0.3,0.1,0.7,0.1,1,0.2c0.2,0,0.4,0.1,0.6,0.1c0,0,0.1,0,0.1,0c0.3,0,0.7,0.1,1,0.1l4.6,7.9
                c-2.1-0.1-4.2-0.3-6.3-0.6c-6.3-0.9-12.4-2.5-18.4-4.8L274.7,699.3L274.7,699.3z"/>
            <path class="bg-home-st1" d="M236.3,717.9l0,12.8c0,1.4,1.1,2.5,2.5,2.5c1.4,0,2.5-1.1,2.5-2.5v0l0-12.8c0-10.1,8.9-10.4,9.3-10.4h19.1
                c0.9,0.4,1.8,0.7,2.7,1.1c0.4,0.2,0.8,0.3,1.3,0.4c0.9,0.3,1.7,0.6,2.6,0.9c0.5,0.2,1,0.3,1.5,0.5c0.8,0.2,1.6,0.5,2.4,0.7
                c0.5,0.1,1.1,0.3,1.6,0.4c0.8,0.2,1.6,0.4,2.4,0.6c0.5,0.1,1.1,0.2,1.6,0.3c0.8,0.2,1.6,0.3,2.4,0.4c0.5,0.1,1,0.2,1.6,0.3
                c0.9,0.1,1.8,0.2,2.7,0.3c0.5,0.1,0.9,0.1,1.4,0.2c1.2,0.1,2.5,0.2,3.7,0.3c0.1,0,0.2,0,0.3,0c0,0,0,0,0,0l-0.1,0.1h4.3h0h4.3
                l-0.1-0.1c0,0,0,0,0,0c0.1,0,0.2,0,0.3,0c1.2-0.1,2.5-0.2,3.7-0.3c0.5,0,0.9-0.1,1.3-0.2c0.9-0.1,1.8-0.2,2.7-0.3
                c0.5-0.1,1-0.2,1.5-0.3c0.8-0.1,1.6-0.3,2.4-0.4c0.5-0.1,1.1-0.2,1.6-0.3c0.8-0.2,1.6-0.4,2.4-0.6c0.5-0.1,1.1-0.3,1.6-0.4
                c0.8-0.2,1.6-0.5,2.4-0.7c0.5-0.2,1-0.3,1.5-0.5c0.9-0.3,1.7-0.6,2.6-0.9c0.4-0.1,0.8-0.3,1.2-0.4c0.8-0.3,1.5-0.6,2.3-0.9
                h19.6c0.9,0,9.2,0.5,9.2,10.4v12.6c0,1.4,1.1,2.5,2.5,2.5c1.4,0,2.5-1.1,2.5-2.5v-12.6c0-15-14-15.4-14.2-15.4l-17.3,0
                l-4.5-10.3c0,0,0,0,0,0l-1-2.3l-2.3,1c-2.3,1-4.8,1.9-7.2,2.6v-5.7c2.6-1.5,5-3.4,7.2-5.6c0,0,0,0,0,0c0.1-0.1,0.2-0.2,0.3-0.3
                c0.3-0.3,0.6-0.7,0.9-1c0.1-0.1,0.1-0.1,0.2-0.2c0.4-0.4,0.7-0.8,1.1-1.3c0.1-0.1,0.1-0.1,0.2-0.2c0.4-0.5,0.8-0.9,1.1-1.4
                c0,0,0-0.1,0.1-0.1c2.1-2.8,3.7-5.8,5-8.9c0-0.1,0.1-0.2,0.1-0.2c0.2-0.4,0.3-0.8,0.4-1.2c0-0.1,0.1-0.3,0.1-0.4
                c0.1-0.4,0.3-0.8,0.4-1.2c0,0,0,0,0,0c0,0,0,0,0-0.1c0.2-0.8,0.4-1.5,0.6-2.3c0-0.1,0.1-0.3,0.1-0.4c0.2-0.8,0.3-1.6,0.4-2.4
                c0-0.1,0-0.1,0-0.2c0.1-0.7,0.2-1.5,0.2-2.2c0-0.2,0-0.4,0-0.6c0.1-0.8,0.1-1.6,0.1-2.5c0,0,0,0,0,0c0,0,0,0,0,0c0,0,0,0,0,0
                c0-0.7,0-1.5-0.1-2.2c0-0.3,0-0.6-0.1-0.9c0-0.4-0.1-0.8-0.1-1.3c0-0.4-0.1-0.8-0.1-1.1c0-0.3-0.1-0.6-0.1-0.9
                c-0.2-1.1-0.4-2.3-0.7-3.4c0-0.1,0-0.1-0.1-0.2c-0.8-3-2-5.9-3.5-8.5l-10.8-24.1l-1.7,0.2c-1.4,0.1-3.8,0.7-6.5,1.4
                c-3.1,0.8-6.9,1.8-8.6,1.8l-0.3,0l-26.4,3.8c-3.3,0.1-6.4,3.7-9.9,11.6l-2.3,5.2l0.2-0.1c-2,3.5-3.4,7.3-4.2,11.3c0,0,0,0,0,0
                c-0.1,0.7-0.3,1.5-0.4,2.2c0,0.2,0,0.3-0.1,0.5c-0.1,0.6-0.1,1.2-0.2,1.8c0,0.2,0,0.4,0,0.5c0,0.7-0.1,1.5-0.1,2.3v0
                c0,0,0,0,0,0c0,0.7,0,1.4,0.1,2.1c0,0.3,0,0.6,0.1,0.9c0,0.4,0.1,0.8,0.1,1.1c0,0.4,0.1,0.8,0.2,1.2c0,0.2,0.1,0.5,0.1,0.7
                c0.1,0.5,0.2,1,0.3,1.4c0,0.1,0.1,0.3,0.1,0.4c0.1,0.3,0.1,0.6,0.2,0.9c0.2,0.7,0.3,1.3,0.5,2c0.9,3.1,2.3,6.1,3.9,8.8
                c0.1,0.1,0.1,0.2,0.2,0.3c0.2,0.4,0.5,0.7,0.7,1.1c0.1,0.2,0.2,0.4,0.4,0.5c0.2,0.2,0.3,0.5,0.5,0.7c0.2,0.2,0.4,0.5,0.5,0.7
                c0.1,0.1,0.1,0.1,0.2,0.2c2.9,3.8,6.6,7,10.7,9.5v5.8c-0.2-0.1-0.4-0.1-0.5-0.2c-0.4-0.1-0.9-0.3-1.3-0.4
                c-0.3-0.1-0.6-0.2-0.9-0.3c-0.5-0.2-1-0.4-1.5-0.5c-0.3-0.1-0.5-0.2-0.8-0.3c-0.7-0.3-1.5-0.6-2.2-0.9l-2.3-1l-1,2.3
                c0,0,0,0,0,0l-1.8,4.1l-0.4,0.9l-2.2,5.2h-17.4C250.3,702.5,236.3,702.9,236.3,717.9z M326.3,628.7c-7.7-2.6-14.8-4.1-24.2-4.1
                h0c-9.6-0.1-16.5,1.2-24,3.7c2-3.4,3.1-3.6,3.1-3.6l0.3,0l26.3-3.8c2.3-0.1,6-1,9.6-1.9c1.4-0.4,2.9-0.8,4.1-1L326.3,628.7z
                    M302,688.2c-14.5,0-27.5-9.7-31.6-23.6c-0.2-0.6-0.3-1.2-0.5-1.8c-0.6-2.4-0.9-5-0.9-7.6c0-2.8,0.4-5.7,1.1-8.4
                c0.1-0.2,0.1-0.4,0.1-0.6h0.1c1.4-4.7,3.7-9,6.9-12.6c8-2.8,14.9-4.3,24.8-4.2c9.8,0.1,16.8,1.7,25.2,4.8
                c2.9,3.5,5.1,7.5,6.4,12h0.1c0,0.2,0,0.4,0.1,0.6c0.7,2.7,1.1,5.6,1.1,8.5c0,3.2-0.5,6.3-1.3,9.4
                C329.5,678.5,316.5,688.2,302,688.2z M306.4,708.8l4.6-7.9c5.2-0.6,10.2-1.9,15.1-3.6c0.7-0.2,1.4-0.5,2.1-0.8l3,6.8
                c-3,1.2-6,2.2-9.1,3C317,707.7,311.7,708.6,306.4,708.8z M296.8,697.4C296.8,697.4,296.8,697.4,296.8,697.4l-0.6-1.1l-1.3-0.1
                c-0.8-0.1-1.6-0.2-2.4-0.3c-0.3,0-0.5-0.1-0.8-0.1c-0.5-0.1-1.1-0.2-1.6-0.3c-0.3-0.1-0.6-0.1-0.9-0.2
                c-0.5-0.1-0.9-0.2-1.4-0.3c0,0-0.1,0-0.1,0v-4.6c4.5,1.8,9.3,2.8,14.3,2.8c2.8,0,5.5-0.3,8.1-0.9c0.1,0,0.2,0,0.2,0
                c2.1-0.5,4-1.1,6-1.9v4.6c-2.3,0.5-4.7,0.9-7.1,1.2l-1.3,0.1l-0.6,1.1c0,0,0,0,0,0l-5.3,9.1L296.8,697.4z M272.9,703.4l1.8-4.1
                v0l0.4-0.9l0.8-1.9c0.1,0,0.2,0.1,0.2,0.1c0.6,0.2,1.2,0.4,1.8,0.7c0.3,0.1,0.6,0.2,0.9,0.3c0.4,0.1,0.8,0.3,1.2,0.4
                c0.3,0.1,0.6,0.2,1,0.3c0.4,0.1,0.7,0.2,1.1,0.3c0.3,0.1,0.7,0.2,1,0.3c0.4,0.1,0.7,0.2,1.1,0.3c0.3,0.1,0.7,0.2,1,0.3
                c0.4,0.1,0.7,0.2,1.1,0.3c0.3,0.1,0.7,0.2,1,0.2c0.4,0.1,0.7,0.2,1.1,0.2c0.3,0.1,0.7,0.1,1,0.2c0.4,0.1,0.7,0.1,1.1,0.2
                c0.3,0.1,0.7,0.1,1,0.2c0.2,0,0.4,0.1,0.6,0.1c0,0,0.1,0,0.1,0c0.3,0,0.7,0.1,1,0.1l4.6,7.9c-2.1-0.1-4.2-0.3-6.3-0.6
                C285,707.4,278.9,705.8,272.9,703.4z"/>
        </g>
</svg>
