<svg id="svg-c1-s1" xmlns="http://www.w3.org/2000/svg" width="1038.29" height="562.49" viewBox="0 0 1038.29 562.49">
  <g fill="none" stroke="#000" stroke-linecap="round" stroke-linejoin="round" stroke-width="10" data-name="Layer 1">
    <path d="M905.19 209.26C901.62 113 829.13 40.5 736.42 40.5a169 169 0 0 0-145 82c-30.9-49.91-85.57-82-145-82-93.88 0-166.42 72.5-168.75 168.76-3.57 96.27 71.31 180.65 309 347a4.37 4.37 0 0 0 3.57 1.19H595a4.37 4.37 0 0 0 3.57-1.19c235.31-166.35 310.18-250.73 306.62-347zM591.43 303.69l342.68 143.64M46.79 75.38l235.14 98.57M1033.29 500.75l-73.77-107.78-51.88 117.38 125.65-9.6zM207.44 142.72L144.79 40.5M122.34 107.23L59.7 5M206.95 143.21L90.09 169.98M121.87 107.04L5 133.8"/>
  </g>
</svg>