<svg id="svg-c2-s1" xmlns="http://www.w3.org/2000/svg" viewBox="0 0 638 635.7">
  <style>
    .c2-s1-st0{fill:none;stroke:#f2f2f2;stroke-width:10;stroke-linecap:round;stroke-linejoin:round}
  </style>
  <path class="c2-s1-st0" d="M505.5 429.9c19.6 19.6 19.6 51.4 0 71s-51.4 19.6-71 0-19.6-51.4 0-71 51.4-19.6 71 0zM108.2 105.7L390 387.5m123.7 169.4l45.7-45.7M87.5 128.7L241 282.2s-29.8 59.6 11.4 100.8c11.5 11.5 22.9 18.3 45.3 25.7 48.6 13.2 50.9 33.8 53.7 86.1 1.8 71.3 101.4 212.3 229.6 84l.1-.1c128.3-128.3-12.6-227.9-84-229.7-52.2-2.8-72.8-5-86.1-53.7-7.4-22.4-14.3-33.8-25.7-45.3-41.2-41.2-100.8-11.4-100.8-11.4L131 85.2M70.3 15.3L17.6 68l59.6 64.1 57.3-57.3-64.2-59.5zM140.2 50.8l4.5-4.6M119.5 30.2l4.6-4.6M98.9 9.6l4.6-4.6M46.2 144.7l4.6-4.5M25.6 124.1l4.6-4.6M5 103.5l4.6-4.6"/>
</svg>