<svg id="svg-c5-s2" xmlns="http://www.w3.org/2000/svg" viewBox="0 0 367 290.97">
  <defs>
    <style>
      .c5-s2-cls-6{fill:#eef4fc}.c5-s2-cls-3{fill:#599cf4}
    </style>
    <clipPath id="c5-s2-clip-path">
      <path d="M310.05 51.51a54.24 54.24 0 0 0-13.32 1.65 80 80 0 0 0-150.23-1.4c-1.71-.16-3.44-.25-5.18-.25a54.38 54.38 0 0 0-40.87 90.18 54.36 54.36 0 0 0 56.82 20.15 80 80 0 0 0 150.23 1.4c1.71.16 3.43.25 5.18.25a54.38 54.38 0 0 0 40.87-90.18 54.21 54.21 0 0 0-43.5-21.8z" clip-rule="evenodd" fill="#eef4fc"/>
    </clipPath>
    <clipPath id="c5-s2-clip-path-2">
      <path d="M217.07 128.29v-3.47a28.42 28.42 0 0 1 2.35-12.35q2.34-4.84 8.73-10.23 8.86-7.38 11.18-11.1a16.68 16.68 0 0 0 2.31-9q0-6.54-4.27-10.1t-12.28-3.54a42.5 42.5 0 0 0-10 1.18A55 55 0 0 0 203.85 74L200 65.35A55.49 55.49 0 0 1 225.74 59q12.45 0 19.35 6T252 82a22.69 22.69 0 0 1-5 15q-2.47 3.18-10.68 10.23-6.59 5.52-8.7 9.18c-1.42 2.44-2.12 5.69-2.12 9.75v2.12zm-3.19 19.05q0-8.73 7.82-8.72a7.49 7.49 0 0 1 5.83 2.24q2.06 2.25 2.05 6.48a9.08 9.08 0 0 1-2.08 6.38 7.46 7.46 0 0 1-5.8 2.28 8 8 0 0 1-5.6-2q-2.22-2-2.22-6.66z" fill="#599cf4" clip-rule="evenodd"/>
    </clipPath>
    <clipPath id="c5-s2-clip-path-3">
      <path class="c5-s2-cls-3" d="M-451-486H989v900H-451z"/>
    </clipPath>
  </defs>
    <g id="c5-s2-xlC">
        <path d="M310.05 51.51a54.24 54.24 0 0 0-13.32 1.65 80 80 0 0 0-150.23-1.4c-1.71-.16-3.44-.25-5.18-.25a54.38 54.38 0 0 0-40.87 90.18 54.36 54.36 0 0 0 56.82 20.15 80 80 0 0 0 150.23 1.4c1.71.16 3.43.25 5.18.25a54.38 54.38 0 0 0 40.87-90.18 54.21 54.21 0 0 0-43.5-21.8z" fill-rule="evenodd" fill="#eef4fc"/>
        <g clip-path="url(#c5-s2-clip-path)">
        <path class="c5-s2-cls-6" d="M-451-486H989v900H-451z"/>
    </g>
        </g>
    <g id="c5-s2-xlCq">
        <path d="M217.07 128.29v-3.47a28.42 28.42 0 0 1 2.35-12.35q2.34-4.84 8.73-10.23 8.86-7.38 11.18-11.1a16.68 16.68 0 0 0 2.31-9q0-6.54-4.27-10.1t-12.28-3.54a42.5 42.5 0 0 0-10 1.18A55 55 0 0 0 203.85 74L200 65.35A55.49 55.49 0 0 1 225.74 59q12.45 0 19.35 6T252 82a22.69 22.69 0 0 1-5 15q-2.47 3.18-10.68 10.23-6.59 5.52-8.7 9.18c-1.42 2.44-2.12 5.69-2.12 9.75v2.12zm-3.19 19.05q0-8.73 7.82-8.72a7.49 7.49 0 0 1 5.83 2.24q2.06 2.25 2.05 6.48a9.08 9.08 0 0 1-2.08 6.38 7.46 7.46 0 0 1-5.8 2.28 8 8 0 0 1-5.6-2q-2.22-2-2.22-6.66z" fill-rule="evenodd" fill="#599cf4"/>
        <g clip-path="url(#c5-s2-clip-path-2)">
            <path class="c5-s2-cls-3" d="M-451-486H989v900H-451z"/>
            <g clip-path="url(#c5-s2-clip-path-3)">
                <path class="c5-s2-cls-3" d="M195 54h62v107h-62z"/>
            </g>
         </g>
    </g>

    <g id="c5-s2-mdC">
        <circle cx="99.5" cy="212.5" r="35.5" fill="#d5e3ec"/>
    </g>
    <g id="c5-s2-smC">
        <circle class="c5-s2-cls-6" cx="30.29" cy="261.21" r="29.76"/>
    </g>
</svg>