<svg id="svg-c5-s3-transparent" xmlns="http://www.w3.org/2000/svg" viewBox="0 0 80 76">
  <defs>
    <style>
      .c5-s3-transparent-cls-1{fill:none;stroke:#55555a;stroke-linecap:round;stroke-linejoin:round;stroke-width:5px}.c5-s3-transparent-cls-2{fill:#55555a}
    </style>
  </defs>
  <g>
    <path class="c5-s3-transparent-cls-1" d="M56.41 17a28.81 28.81 0 1 0-32.76 42M56.41 17a28.8 28.8 0 0 1-25.07 43 29.07 29.07 0 0 1-7.69-1 28.81 28.81 0 1 0 32.76-42z"/>
    <path class="c5-s3-transparent-cls-1" d="M23.65 59a28.82 28.82 0 0 0 36.49-27.79A28.69 28.69 0 0 0 56.41 17"/>
    <path class="c5-s3-transparent-cls-2" d="M57.5 20.29a2.57 2.57 0 0 1-.67-.09l-.44-.11a2.5 2.5 0 1 1 1.25-4.85l.53.14a2.5 2.5 0 0 1-.67 4.91zM22 54.54a2.49 2.49 0 0 1-2.43-1.92c-.08-.33-.16-.66-.22-1a2.5 2.5 0 1 1 4.89-1c.06.28.12.55.19.83a2.5 2.5 0 0 1-1.85 3 2.36 2.36 0 0 1-.58.09zm-.73-8.36h-.15a2.51 2.51 0 0 1-2.35-2.65c0-.33.05-.67.08-1a2.5 2.5 0 0 1 5 .46c0 .28-.05.57-.07.85a2.5 2.5 0 0 1-2.49 2.34zM23 38a2.43 2.43 0 0 1-.87-.16 2.5 2.5 0 0 1-1.48-3.21c.12-.32.24-.64.37-1a2.5 2.5 0 0 1 4.63 1.89c-.11.26-.21.52-.31.79A2.5 2.5 0 0 1 23 38zm4-7.36a2.49 2.49 0 0 1-2-4c.2-.28.41-.54.63-.81A2.5 2.5 0 1 1 29.54 29c-.18.22-.35.44-.52.67a2.49 2.49 0 0 1-2.02.95zm6-5.88a2.5 2.5 0 0 1-1.48-4.52l.83-.58a2.5 2.5 0 0 1 2.82 4.13l-.71.5a2.47 2.47 0 0 1-1.46.45zm7.42-3.89a2.5 2.5 0 0 1-.81-4.87c.32-.12.64-.22 1-.33a2.5 2.5 0 0 1 1.49 4.78c-.28.08-.55.17-.82.27a2.62 2.62 0 0 1-.85.13zm8.24-1.57a2.5 2.5 0 0 1-.1-5h1a2.5 2.5 0 0 1 0 5h-.86zM25 62a2.51 2.51 0 0 1-2.18-1.27l-.27-.48a2.5 2.5 0 0 1 4.4-2.38l.22.4A2.49 2.49 0 0 1 25 62z"/>
  </g>
</svg>