<svg xmlns="http://www.w3.org/2000/svg" viewBox="0 0 130 124.619">
  <defs>
    <style>
      .svg-nav-drinks{fill:#6BB364}
    </style>
  </defs>
  <g>
    <path class="svg-nav-drinks" d="M33.385 124.619c-.072 0-.145 0-.217-.009l-25.6-2.2a2.5 2.5 0 0 1 .428-4.982l10.312.887 2.224-25.873C8.123 90.285-.882 80.316.069 69.254.141 68.423 4.252 46.76 6.7 33.921A2.5 2.5 0 0 1 9.367 31.9l37.472 3.221a2.5 2.5 0 0 1 2.286 2.449c.217 13.069.571 35.116.5 35.946-.952 11.061-11.525 19.346-24.116 19.353l-2.225 25.873 10.312.887a2.5 2.5 0 0 1-.211 4.99zm-22.2-87.546c-2.53 13.31-5.985 31.59-6.143 32.693-.768 8.957 7.48 17.076 18.4 18.015 10.894.931 20.391-5.629 21.2-14.643.03-1.4-.254-19.8-.475-33.23zM47.134 73.3zm0 0zM106.572 121.255a2.5 2.5 0 0 1-1.453-4.536l8.429-6L98.48 89.564c-10.846 6.394-24.163 4.636-30.606-4.409-.483-.678-11.386-19.844-17.842-31.209a2.5 2.5 0 0 1 .723-3.271l30.632-21.823a2.5 2.5 0 0 1 3.328.385c8.631 9.814 23.185 26.38 23.668 27.059 6.443 9.043 3.756 22.205-5.831 30.367l15.068 21.15 8.429-6.006a2.5 2.5 0 0 1 2.9 4.073l-10.449 7.448-.01.008-.01.007-10.455 7.448a2.485 2.485 0 0 1-1.453.464zM55.494 53.438c6.694 11.78 15.9 27.945 16.5 28.886 5.218 7.32 16.761 8.161 25.683 1.805 8.906-6.345 11.887-17.5 6.665-24.889-.884-1.086-13.022-14.918-21.892-25.006zM57.416 27.894a2.5 2.5 0 0 1-2.5-2.5V2.5a2.5 2.5 0 0 1 5 0v22.894a2.5 2.5 0 0 1-2.5 2.5zM69.367 26.609a2.5 2.5 0 0 1-2.217-3.651L77.691 2.634a2.5 2.5 0 0 1 4.439 2.3L71.588 25.26a2.5 2.5 0 0 1-2.221 1.349zM45.465 26.609a2.5 2.5 0 0 1-2.221-1.349L32.7 4.937a2.5 2.5 0 0 1 4.439-2.3l10.543 20.321a2.5 2.5 0 0 1-2.217 3.651z"/>
  </g>
</svg>